<svg width="130" height="163" fill="none" xmlns="http://www.w3.org/2000/svg"><path d="M1 65.214v-.005C1 29.963 29.712 1.25 65 1.25c35.287 0 64 28.713 64 64v.004c.116 25.771-15.913 49.905-32.15 67.694-8.1 8.874-16.212 16.124-22.298 21.155a199.757 199.757 0 0 1-7.35 5.804A131.585 131.585 0 0 1 65 161.525c-3.256-2.311-18.158-13.114-32.773-29.238C16.304 114.721.884 91.013 1 65.214Zm30.5.036c0 18.509 14.991 33.5 33.5 33.5 18.508 0 33.5-14.991 33.5-33.5 0-18.508-14.992-33.5-33.5-33.5-18.509 0-33.5 14.992-33.5 33.5Z" stroke="#fff" stroke-width="2"/></svg>