<svg width="45" height="45" fill="none" xmlns="http://www.w3.org/2000/svg"><path d="m.949 44.06 2.915-10.71A21.46 21.46 0 0 1 .94 22.5C.94 10.593 10.592.94 22.5.94c11.907 0 21.56 9.653 21.56 21.56 0 11.908-9.653 21.56-21.56 21.56a21.46 21.46 0 0 1-10.845-2.921L.95 44.06Zm13.77-31.676c-.278.018-.55.091-.8.216a2.788 2.788 0 0 0-.634.492c-.258.243-.405.455-.563.66a5.884 5.884 0 0 0-1.218 3.617c.005 1.057.28 2.085.712 3.047.882 1.944 2.333 4.003 4.25 5.911.46.46.911.92 1.396 1.35a20.37 20.37 0 0 0 8.28 4.411l1.226.188c.4.021.798-.009 1.199-.028a4.29 4.29 0 0 0 1.796-.498c.282-.146.558-.304.826-.475 0 0 .092-.06.27-.194a4.95 4.95 0 0 0 .71-.62c.18-.186.335-.404.453-.652.169-.351.337-1.022.406-1.58.051-.427.036-.66.03-.804-.009-.231-.2-.47-.41-.572l-1.255-.562s-1.875-.817-3.02-1.34a1.074 1.074 0 0 0-.382-.088 1.037 1.037 0 0 0-.815.274v-.004c-.01 0-.155.123-1.714 2.011a.754.754 0 0 1-.793.28 3.04 3.04 0 0 1-.412-.142c-.267-.112-.36-.155-.543-.235l-.011-.004a12.958 12.958 0 0 1-3.385-2.156c-.272-.237-.524-.496-.783-.746a13.571 13.571 0 0 1-2.199-2.734l-.127-.204a1.993 1.993 0 0 1-.22-.442c-.082-.317.132-.572.132-.572s.524-.573.767-.884a9.44 9.44 0 0 0 .567-.804c.255-.41.335-.83.2-1.156a179.614 179.614 0 0 0-1.87-4.4c-.128-.289-.505-.496-.848-.537-.116-.013-.233-.026-.35-.034a7.3 7.3 0 0 0-.868.008v.002Z" fill="#131441"/></svg>