<svg width="719" height="608" fill="none" xmlns="http://www.w3.org/2000/svg"><path d="M260.007 465.384c-9.558 3.857-38.348 18.308-77.043 45.252-48.369 33.681-65.988 30.053-90.687-13.824-19.76-35.102-19.168-96.965-16.403-123.509 4.547 25.739 15.818 80.981 24.523 96.044 10.882 18.829 39.381 57.697 73.585 33.343 27.363-19.483 45.49-51.531 51.134-65.119l-4.491-2.246c-12.784 22.11-40.77 64.947-50.443 59.419-12.091-6.91-7.945-24.702-4.489-34.203 3.455-9.5 18.657-22.627 19.004-45.774.277-18.518-.459-27.293-.862-29.366l-14.165 7.6c4.433 6.68 12.263 20.902 8.117 24.357-4.146 3.454-10.019 4.778-12.437 5.008l-12.091-20.729-17.965 9.154c3.972 7.025 9.465 21.489-.347 23.147-9.812 1.658-15.489 3.914-17.101 4.836l-13.991-20.384-4.145-13.301c.403-2.534 2.695-8.326 8.638-11.228 7.428-3.627 12.092-3.454 16.237 1.21 3.316 3.732 4.376 7.659 4.491 9.156l19.693-11.745-9.327-20.211c3.397-4.203 11.643-11.02 17.447-4.663 5.803 6.357 7.139 15.086 7.081 18.655l17.275-10.363c-8.233-15.201-18.031-46.847 8.64-51.821 33.338-6.216 55.967-1.378 68.232-12.087s26.776-27.637 28.33-19.518c1.554 8.119-5.876 54.067-5.186 63.049.691 8.982 6.044 38.003 24.7 33.513 18.656-4.49 27.12-6.736 27.638-3.453.518 3.282-23.148 25.563-36.277 28.499-10.502 2.349-49.519 10.649-67.714 14.506 13.186 1.843 45.154 3.147 67.541-6.387 27.984-11.917 48.368-27.635 45.432-38.173-2.936-10.537-28.501-5.183-31.61-5.011-3.11.173-19.347.69-22.11-13.648-2.21-11.469.577-14.106 2.246-13.991L593.063 188.85c7.889-.23 24.598.208 28.329 3.802 3.731 3.593 25.163-15.776 35.413-25.909 3.57-2.533 12.817-6.978 21.247-4.49 10.537 3.11 34.202-2.761 27.466-18.654-5.388-12.714-16.985-16.699-22.109-17.102l-3.109-6.737c3.455-2.591 7.981-8.533-1.554-11.574-11.919-3.801-17.274 6.908-13.301 9.327 3.972 2.42 6.563 2.42 6.908 5.183.346 2.764 2.418 5.528-1.727 6.046-4.146.518-15.547 6.045-16.238 1.381-.69-4.664 5.183-7.773 3.456-10.364-1.728-2.591-6.564-5.873-10.192-6.392-3.627-.518-8.119 5.873-8.464 7.427-.346 1.555 4.145 6.392 6.564 6.738 2.418.345 2.59 6.909-.001 6.909-2.073 0-12.61 3.339-17.619 5.008l-1.037-4.836c3.34-2.073 8.292-7.082 1.383-10.537-8.637-4.319-7.773-5.183-10.364-3.456-2.591 1.728-10.02 9.673-5.874 11.746 4.146 2.073 6.046 1.728 7.255 3.628 1.209 1.9 1.727 5.182-.691 5.7-1.935.415-11.862 3.858-16.584 5.527-.748-.806-2.107-2.695-1.554-3.8.691-1.382 7.601-6.564 3.283-10.019-4.319-3.455-10.019-5.874-12.265-4.837-2.245 1.036-7.946 9.845-5.873 11.746 2.072 1.9 7.427 3.282 7.773 5.182.345 1.9 1.554 4.664-.864 5.182-2.419.518-9.674 1.209-10.365 2.591-.691 1.382.863 19.865-1.21 20.555-2.073.691-272.762 140.42-283.471 127.291-10.709-13.128 6.566-26.946 16.067-32.128 9.501-5.182 33.685-18.135 16.412-28.501-17.274-10.365-33.339-3.284-51.131 7.252-17.793 10.536-44.224 44.392-70.826 46.635-26.601 2.243-109.686-37.145-143.721 60.277s33.846 172.394 41.964 177.75" stroke="#fff" stroke-width="2"/><path d="m189.365 345.844 23.489 47.159-7.429 21.765c-1.843-.058-5.735.759-6.564 4.49-.83 3.731.805 6.161 1.727 6.91l-3.456 8.637c-1.554-.346-5.044-.277-6.564 2.763-1.52 3.04.288 6.334 1.381 7.601l-4.664 7.6c-1.958-.115-6.08.414-6.91 3.454-.829 3.04 1.267 6.104 2.418 7.255l-3.109 7.082c-.288-.575-1.866-1.278-5.874.518-4.007 1.797-2.706 6.852-1.555 9.155l-9.673 4.664 12.091-2.591c1.497.749 5.286 1.521 8.465-1.381 3.178-2.902.634-7.313-1.036-9.155l3.282-6.564c1.612.518 5.424.726 7.774-2.591 2.349-3.316-1.094-7.024-3.109-8.464l4.664-7.6c1.44.864 5.01 1.727 7.774-1.727 2.764-3.455-.345-7.658-2.246-9.328l3.801-7.6c2.073-.115 6.564-1.209 7.946-4.664 1.383-3.455-1.957-6.737-3.799-7.946l6.047-19.001c.23.403 1.451 1.417 4.491 2.246 3.04.829 5.182-5.182 5.873-8.291-6.793-14.05-21.14-43.394-24.18-48.369-3.04-4.975-8.637.576-11.055 3.973Z" stroke="#fff" stroke-width="2"/><path fill-rule="evenodd" clip-rule="evenodd" d="M584.328 392.897c0 .776-.463 2.429-1.031 3.672-.965 2.118-1.288 2.227-5.133 1.717-2.256-.299-5.629-.133-7.495.369-5.348 1.439-6.221 4.873-2.299 9.034 2.17 2.302 8.399 17.737 12.153 30.112 1.623 5.353 2.951 10.109 2.951 10.57 0 .467-.942.602-2.128.304-2.905-.728-7.301 1.262-10.083 4.567-3.062 3.638-3.138 8.325-.19 11.826 4.428 5.26 10.95 5.665 15.455.959 2.408-2.518 2.494-2.893 2.406-10.448-.128-10.806-4.583-27.272-12.63-46.678-.39-.941.66-1.763 3.961-3.101l4.49-1.82.727-5.308c.497-3.634.43-5.604-.213-6.246-.684-.684-.941-.556-.941.471Zm32.839 6.308c-1.652 15.416 2.917 46.277 10.319 69.695 1.16 3.672 2.109 6.753 2.11 6.846 0 .093-1.826.057-4.057-.08-4.869-.3-8.835 1.827-10.919 5.852-2.161 4.178-1.077 6.538 4.116 8.954 5.34 2.486 7.562 2.61 9.446.528 2.062-2.276 1.77-3.431-1.661-6.571-2.884-2.641-2.972-2.869-1.419-3.699 2.439-1.306 5.244-.235 6.685 2.55 1.237 2.392 3.22 3.207 4.148 1.705.254-.41-1.236-6.46-3.31-13.445-9.258-31.172-12.332-46.4-13.039-64.586-.269-6.941-.787-12.803-1.15-13.028-.363-.223-.935 2.152-1.269 5.279Zm-147.12 7.389c-1.501 1.548-2.729 3.223-2.729 3.721 0 2.15-7.05 8.822-10.223 9.677-4.201 1.13-6.4.259-10.561-4.181-5.786-6.175-13.993-4.493-18.524 3.797-2.959 5.413-2.072 10.959 3.728 23.314 2.568 5.469 4.895 10.963 5.173 12.208.492 2.209.379 2.279-4.617 2.859-2.817.326-5.368.992-5.67 1.479-1.271 2.056-.492 9.969 1.359 13.791 2.381 4.917 4.235 5.073 8.585.725 2.432-2.431 3.45-4.351 4.187-7.902 1.399-6.736.103-12.261-5.681-24.217-4.372-9.037-4.909-10.733-4.909-15.49 0-6.001 1.375-8.309 6.151-10.33 3.677-1.555 6.177-.491 9.053 3.851 2.619 3.956 7.732 6.936 11.879 6.924 1.546-.005 4.866-.965 7.378-2.135 2.513-1.168 5.273-2.125 6.132-2.125 2.048 0 4.246-2.251 4.246-4.348 0-.915.972-3.133 2.16-4.927 2.243-3.388 2.181-5.14-.287-8.012-1.89-2.2-3.768-1.837-6.83 1.321Zm60.199 41.363c-.206.352-.441 4.482-.522 9.177-.186 10.65-2.275 16.003-7.808 20.009-5.244 3.797-8.974 4.722-14.373 3.565-5.876-1.26-5.666-1.295-8.22 1.396-6.495 6.845-7.91 16.188-4.432 29.263 2.886 10.848 3.388 14.109 2.752 17.875l-.538 3.182-4.076-.391c-4.965-.478-8.899 1.313-10.75 4.892-1.685 3.257-1.638 3.955.412 6.004 2.148 2.147 7.362 2.266 10.272.233 3.185-2.224 6.203-6.112 6.708-8.645.972-4.858.239-16.211-1.495-23.174-2.108-8.464-2.317-15.157-.595-19.022 2.307-5.18 2.577-5.331 5.629-3.159 5.819 4.142 17.527 2.645 23.828-3.045l3.28-2.962.507 6.198c.278 3.408.752 10.31 1.054 15.336l.549 9.14-3.005-.488c-3.878-.629-7.541 1.483-9.925 5.724-3.526 6.271-1.126 12.766 4.718 12.766 2.868 0 7.159-2.999 7.159-5.003 0-.447.802-.603 1.783-.347 1.783.466 1.783.464 1.707-28.037-.042-15.678-.017-31.386.057-34.907.16-7.76-1.472-16.22-3.131-16.22-.643 0-1.338.288-1.545.64Zm54.93 9.433c.004 1.079-.58 3.096-1.297 4.482-1.041 2.013-1.865 2.518-4.107 2.518-5.33 0-7.776-3.971-4.477-7.269 1.646-1.645 2.828-2.016 5.965-1.873 3.457.158 3.911.407 3.916 2.142Zm-148.034 8.403c-.462 2.846-3.412 7.134-4.907 7.134-.906 0-2.498-4.979-2.498-7.81 0-2.326.176-2.434 3.956-2.434h3.955l-.506 3.11Zm91.519 58.639c.164.843-.271 1.423-1.068 1.423-.791 0-1.343-.729-1.343-1.778 0-2.08 1.996-1.787 2.411.355Zm-33.638 11.581c.887 1.436-5.493 6.18-7.933 5.898-3.027-.351-3.516-3.43-.841-5.302 2.088-1.462 7.99-1.862 8.774-.596Z" fill="#fff"/></svg>