<svg width="45" height="45" fill="none" xmlns="http://www.w3.org/2000/svg"><path d="M22.5.94C10.592.94.94 10.593.94 22.5c0 11.908 9.652 21.56 21.56 21.56 11.907 0 21.56-9.652 21.56-21.56C44.06 10.593 34.407.94 22.5.94Zm8.292 24.325s1.906 1.882 2.376 2.756c.013.018.02.036.024.045.191.32.236.57.142.756-.157.31-.696.463-.88.477h-3.37c-.233 0-.722-.061-1.315-.47-.456-.319-.905-.842-1.343-1.352-.654-.759-1.22-1.415-1.79-1.415a.687.687 0 0 0-.214.034c-.43.14-.983.755-.983 2.394 0 .512-.405.806-.69.806h-1.543c-.525 0-3.263-.184-5.688-2.742-2.97-3.133-5.642-9.417-5.664-9.475-.169-.407.18-.624.559-.624h3.402c.454 0 .602.276.706.52.12.286.565 1.42 1.295 2.696 1.184 2.08 1.91 2.924 2.491 2.924a.674.674 0 0 0 .312-.081c.76-.422.618-3.128.584-3.69 0-.106-.002-1.21-.39-1.74-.28-.385-.753-.53-1.04-.584.116-.161.27-.291.446-.38.521-.26 1.46-.299 2.392-.299h.519c1.01.014 1.271.079 1.637.171.741.177.757.656.692 2.293-.02.465-.04.99-.04 1.61 0 .135-.007.279-.007.431-.023.834-.05 1.78.539 2.168a.486.486 0 0 0 .256.074c.204 0 .82 0 2.486-2.86.514-.92.96-1.876 1.336-2.86.034-.059.133-.238.25-.308a.596.596 0 0 1 .278-.065h4c.435 0 .734.065.79.233.1.268-.018 1.083-1.844 3.556l-.815 1.075c-1.655 2.17-1.655 2.28.104 3.926Z" fill="#131441"/></svg>