<svg width="45" height="45" fill="none" xmlns="http://www.w3.org/2000/svg"><path d="M22.5.94C10.59.94.94 10.591.94 22.5c0 11.91 9.65 21.56 21.56 21.56 11.91 0 21.56-9.65 21.56-21.56C44.06 10.591 34.41.94 22.5.94Zm10.59 14.771-3.54 16.675c-.26 1.182-.965 1.469-1.947.912l-5.39-3.972-2.6 2.504c-.286.286-.53.53-1.086.53l.383-5.486 9.988-9.025c.436-.383-.096-.6-.67-.217l-12.345 7.771-5.32-1.66c-1.156-.365-1.183-1.156.243-1.713l20.787-8.016c.965-.348 1.808.235 1.495 1.696l.001.001Z" fill="#131441"/></svg>