<svg width="906" height="600" fill="none" xmlns="http://www.w3.org/2000/svg"><path d="m659.92 439.557-1.494-.142 1.494.142Zm-35.869-72.401-1.382.582.049.117.068.106 1.265-.805Zm-21.92-21.256.5 1.415-.5-1.415Zm-27.233-216.538.441 1.434-.441-1.434Zm-3.986-11.956.475 1.423-.475-1.423Zm6.53 2.657 1.197-.904-1.197.904Zm14.062-9.3 1.409.513-1.409-.513Zm1.992 9.3 1.061 1.061-1.061-1.061Zm-11.292 9.299-.926-1.18-3.411 2.68h4.338l-.001-1.5Zm11.292-1.994-.9-1.2.9 1.2Zm-110.262 87.015 1.341.67-1.341-.67Zm15.941-28.562 1.184.92.122-.156.077-.182-1.383-.582Zm5.314-12.621 1.489.182-2.871-.764 1.382.582Zm-8.635 37.197-1.324-.706 1.324.706ZM473.27 329.295l1.032-1.089-1.032 1.089Zm18.599 6.642-.1-1.496-.513.034-.384.341.997 1.121Zm18.598 11.957-1.238.847 1.238-.847Zm103.621-59.781-.832-1.249.832 1.249Zm7.306-4.65 1.229.86-2.001-2.146.772 1.286Zm-9.963 25.905 1.248-.832-1.248.832ZM1.609 444.248c14.925-6.633 50.075-21.721 88.695-34.235 38.702-12.541 80.588-22.393 109.114-18.786l.376-2.976c-29.263-3.7-71.734 6.374-110.415 18.908C50.615 419.72 15.357 434.855.39 441.507l1.218 2.741Zm197.809-53.021c28.688 3.627 52.443 12.859 73.454 21.082 20.912 8.183 39.333 15.477 56.981 14.798l-.115-2.997c-16.892.649-34.671-6.338-55.773-14.595-21.001-8.218-45.071-17.585-74.171-21.264l-.376 2.976Zm130.435 35.88c34.416-1.323 46.683-.651 66.234-8.067l-1.064-2.805c-18.975 7.198-30.621 6.541-65.285 7.875l.115 2.997Zm66.234-8.067c4.847-1.838 9.15-3.677 12.879-5.251 3.753-1.585 6.88-2.882 9.454-3.687 2.631-.822 4.389-1.026 5.523-.728.514.135.893.373 1.199.733.32.379.622.968.834 1.89l2.924-.675c-.286-1.236-.753-2.308-1.47-3.154-.732-.865-1.661-1.416-2.724-1.695-2.021-.532-4.498-.073-7.181.766-2.739.856-6.006 2.215-9.726 3.786-3.743 1.581-7.992 3.395-12.776 5.21l1.064 2.805Zm29.889-7.043c.955 4.135.954 6.965.714 9.92-.24 2.96-.752 6.269-.752 10.998h3c0-4.57.484-7.571.742-10.756.259-3.189.258-6.337-.78-10.837l-2.924.675Zm-.038 20.918c0 4.841.327 8.062-.15 11.324-.455 3.105-1.658 6.192-4.853 10.345l2.378 1.83c3.447-4.482 4.901-8.038 5.443-11.741.519-3.546.182-7.3.182-11.758h-3Zm-5.003 21.669c-3.474 4.517-8.688 15.168-12.201 26.63-1.764 5.753-3.121 11.776-3.61 17.403-.487 5.604-.126 10.944 1.667 15.247l2.769-1.154c-1.529-3.668-1.915-8.456-1.447-13.833.465-5.355 1.766-11.163 3.489-16.784 3.461-11.289 8.543-21.561 11.711-25.679l-2.378-1.83Zm-14.144 59.28c3.45 8.282 9.136 12.395 15.387 11.105 5.992-1.237 11.581-7.331 15.297-17.128l-2.804-1.064c-3.591 9.466-8.63 14.332-13.099 15.254-4.21.869-8.82-1.66-12.012-9.321l-2.769 1.154Zm30.684-6.023c3.512-9.258 10.402-16.028 16.921-21.557 3.194-2.708 6.439-5.231 8.928-7.47 2.476-2.228 4.589-4.493 5.391-6.899l-2.846-.949c-.527 1.58-2.067 3.383-4.552 5.618-2.472 2.224-5.496 4.558-8.861 7.412-6.599 5.597-13.991 12.777-17.785 22.781l2.804 1.064Zm31.24-35.926c1.348-4.044 2.246-7.571 2.068-11.747-.177-4.156-1.412-8.827-4.101-15.215l-2.765 1.165c2.624 6.232 3.714 10.528 3.869 14.177.154 3.629-.608 6.744-1.917 10.671l2.846.949Zm-2.033-26.962c-1.281-3.042-1.715-5.176-1.751-6.768-.036-1.562.309-2.698.758-3.783.418-1.011 1.118-2.338 1.445-3.754.359-1.551.331-3.286-.412-5.514l-2.846.949c.586 1.758.558 2.929.336 3.889-.254 1.096-.717 1.886-1.295 3.283-.548 1.323-1.033 2.885-.986 4.997.048 2.082.61 4.598 1.986 7.866l2.765-1.165Zm.04-19.819c-1.41-4.231-4.069-8.171-7.528-10.629-3.502-2.488-7.863-3.466-12.406-1.573l1.154 2.769c3.428-1.428 6.705-.746 9.514 1.25 2.851 2.026 5.174 5.392 6.42 9.132l2.846-.949Zm-19.934-12.202c-2.233.93-3.764 2.284-4.47 3.971-.713 1.701-.474 3.477.31 4.994 1.533 2.964 5.241 5.211 9.387 5.211v-3c-3.161 0-5.764-1.737-6.722-3.589-.461-.891-.513-1.731-.208-2.458.311-.742 1.104-1.63 2.857-2.36l-1.154-2.769Zm5.227 14.176c1.884 0 3.89-.216 5.644-.324 1.824-.112 3.508-.122 5.091.21 1.553.325 3.025.982 4.415 2.246 1.405 1.278 2.789 3.235 4.058 6.25l2.765-1.164c-1.387-3.296-2.992-5.657-4.804-7.305-1.828-1.663-3.802-2.541-5.819-2.964-1.988-.416-3.998-.384-5.89-.267-1.961.12-3.692.318-5.46.318v3Zm19.208 8.382c1.247 2.961 1.809 6.157 2.253 9.408.434 3.179.763 6.518 1.589 9.433.843 2.971 2.251 5.71 4.979 7.669 2.705 1.942 6.503 2.97 11.825 2.97v-3c-4.974 0-8.068-.966-10.075-2.407-1.984-1.424-3.108-3.459-3.843-6.051-.751-2.648-1.044-5.66-1.503-9.02-.449-3.288-1.05-6.818-2.46-10.166l-2.765 1.164Zm20.646 29.48c10.27 0 39.947.995 69.041 1.743 14.532.374 28.907.685 40.607.779 11.648.093 20.776-.028 24.721-.542l-.388-2.975c-3.694.482-12.583.611-24.309.517-11.672-.093-26.025-.405-40.554-.778-29.026-.746-58.797-1.744-69.118-1.744v3Zm134.369 1.98c7.859-1.025 16.229-4.095 22.836-8.728 6.59-4.622 11.617-10.946 12.339-18.522l-2.987-.285c-.606 6.373-4.879 12.005-11.075 16.35-6.18 4.334-14.084 7.243-21.501 8.21l.388 2.975Zm35.175-27.25c.158-1.662-.163-3.74-.771-6.041-.615-2.331-1.559-5.018-2.745-7.945-2.371-5.856-5.752-12.782-9.538-19.937-7.574-14.315-16.828-29.662-23.042-39.426l-2.531 1.61c6.185 9.72 15.396 24.994 22.922 39.219 3.764 7.115 7.092 13.939 9.409 19.66 1.159 2.861 2.053 5.42 2.625 7.584.579 2.195.792 3.863.684 4.991l2.987.285Zm-35.979-73.126c-1.807-4.291-5.099-10.547-9.134-15.36-2.016-2.404-4.284-4.529-6.719-5.841-2.463-1.327-5.186-1.862-7.949-.887l.999 2.829c1.754-.619 3.586-.347 5.527.699 1.968 1.06 3.951 2.87 5.843 5.127 3.78 4.509 6.932 10.475 8.668 14.597l2.765-1.164Zm-23.802-22.088c-5.903 2.083-13.045 6.871-19.255 12.326-6.201 5.447-11.697 11.755-14.152 17.015l2.718 1.269c2.195-4.703 7.326-10.683 13.414-16.03 6.077-5.338 12.885-9.849 18.274-11.751l-.999-2.829Zm-33.407 29.341c-2.428 5.202-5.248 14.207-12.97 20.656-7.573 6.324-20.144 10.328-42.411 4.434l-.768 2.9c22.901 6.062 36.567 2.095 45.102-5.032 8.385-7.002 11.543-16.928 13.765-21.689l-2.718-1.269Zm-55.381 25.09c-10.869-2.877-19.738-10.171-26.534-19.418-6.795-9.247-11.453-20.368-13.905-30.708-2.464-10.389-2.649-19.764-.74-25.578.952-2.901 2.343-4.678 3.98-5.445 1.591-.745 3.816-.717 6.891.898l1.395-2.657c-3.567-1.872-6.822-2.239-9.559-.958-2.691 1.261-4.476 3.931-5.558 7.226-2.159 6.578-1.846 16.59.672 27.207 2.529 10.666 7.337 22.171 14.407 31.792 7.071 9.622 16.467 17.44 28.183 20.541l.768-2.9Zm-30.308-80.251c13.119 6.887 21.588 14.881 29.071 20.851 7.424 5.923 14.079 10.013 23.123 7.842l-.701-2.917c-7.561 1.815-13.195-1.402-20.551-7.27-7.295-5.82-16.097-14.101-29.547-21.163l-1.395 2.657Zm52.194 28.693c8.504-2.041 13.606-5.734 15.348-10.766 1.727-4.988-.079-10.657-3.835-16.12l-2.472 1.7c3.551 5.165 4.734 9.792 3.472 13.439-1.247 3.603-5.112 6.885-13.214 8.83l.701 2.917Zm11.513-26.886c-3.65-5.309-7.373-10.397-10.72-13.744-1.662-1.662-3.343-3.011-4.974-3.696-1.7-.713-3.545-.765-5.101.532l1.921 2.305c.437-.364 1-.499 2.019-.071 1.088.457 2.438 1.475 4.014 3.051 3.129 3.129 6.713 8.005 10.369 13.323l2.472-1.7Zm-20.795-16.908a11.173 11.173 0 0 0-2.835 3.653c-.669 1.376-1.069 2.952-.898 4.475.177 1.581.971 3.049 2.546 4.017 1.513.931 3.598 1.31 6.234 1.133l-.202-2.993c-2.299.154-3.679-.214-4.461-.695-.72-.443-1.053-1.052-1.136-1.796-.09-.802.115-1.8.615-2.832a8.189 8.189 0 0 1 2.058-2.657l-1.921-2.305Zm5.047 13.278c2.844-.192 5.689-1.513 7.987-3.344 2.298-1.83 4.195-4.287 5.017-6.923.839-2.693.55-5.621-1.641-8.026-2.114-2.322-5.806-3.935-11.278-4.619l-.372 2.977c5.156.644 8.012 2.102 9.432 3.662 1.345 1.477 1.578 3.24.995 5.114-.602 1.93-2.073 3.916-4.022 5.469-1.948 1.552-4.228 2.556-6.32 2.697l.202 2.993Zm.085-22.912c-10.64-1.33-20.312-2.332-28.086-2.75-3.887-.209-7.321-.273-10.178-.156-2.828.115-5.2.412-6.9.978l.949 2.846c1.289-.429 3.318-.714 6.073-.827 2.727-.111 6.059-.051 9.895.155 7.669.412 17.26 1.404 27.875 2.731l.372-2.977Zm-45.164-1.928c-1.688.563-4.021 1.964-6.445 3.403-2.512 1.49-5.285 3.128-8.059 4.374-2.797 1.257-5.428 2.037-7.665 1.956-2.124-.077-3.933-.921-5.311-3.126l-2.544 1.59c1.943 3.109 4.701 4.424 7.746 4.534 2.931.106 6.071-.9 9.003-2.217 2.955-1.328 5.87-3.053 8.36-4.531 2.578-1.53 4.562-2.703 5.864-3.137l-.949-2.846Zm-27.48 6.607c-3.323-5.316-9.41-15.027-14.176-26.038-4.789-11.063-8.119-23.167-6.213-33.336l-2.948-.553c-2.079 11.087 1.565 23.892 6.408 35.081 4.865 11.241 11.066 21.125 14.385 26.436l2.544-1.59Zm-20.389-59.374c3.975-21.2 17.238-70.919 23.171-86.08l-2.794-1.093c-6.023 15.394-19.329 65.309-23.325 86.62l2.948.553Zm23.171-86.08c5.994-15.318 15.135-40.706 42.499-55.69l-1.441-2.632c-28.432 15.57-37.89 41.993-43.852 57.229l2.794 1.093Zm42.499-55.69c6.977-3.822 12.346-6.605 16.635-8.343 4.313-1.748 7.334-2.351 9.675-2.032 2.24.306 4.08 1.49 5.975 3.912 1.936 2.474 3.824 6.104 6.153 11.095l2.719-1.269c-2.321-4.972-4.335-8.898-6.509-11.675-2.215-2.83-4.692-4.593-7.932-5.035-3.139-.428-6.761.421-11.207 2.223-4.47 1.812-9.978 4.674-16.95 8.492l1.441 2.631Zm38.438 4.632c4.722 10.118 10.656 17.948 16.585 22.932 5.852 4.919 12.035 7.324 17.099 5.766l-.882-2.868c-3.572 1.099-8.68-.482-14.287-5.195-5.528-4.647-11.219-12.095-15.796-21.904l-2.719 1.269Zm33.684 28.698c3.032-.933 4.721-2.895 5.11-5.281.367-2.254-.476-4.588-1.81-6.356l-2.395 1.807c.989 1.31 1.444 2.835 1.244 4.066-.179 1.099-.924 2.248-3.031 2.896l.882 2.868Zm3.3-11.637c-1.781-2.359-4.919-4.27-8.201-3.176l.949 2.846c1.558-.52 3.478.31 4.857 2.137l2.395-1.807Zm-8.201-3.176c-.831.277-1.563.629-2.09 1.114-.572.526-.991 1.314-.795 2.246.167.798.722 1.346 1.168 1.68.48.36 1.063.644 1.658.863 1.191.438 2.67.698 4.072.662 1.348-.035 2.935-.354 4.029-1.403l-2.077-2.165c-.291.28-.96.542-2.03.569a8.414 8.414 0 0 1-2.959-.479c-.422-.155-.719-.317-.894-.448-.208-.156-.083-.142-.031.105.08.382-.14.605-.111.578.074-.068.345-.255 1.009-.476l-.949-2.846Zm7.739-1.903c1.787.952 4.655 2.023 7.458 2.036 1.419.006 2.905-.259 4.225-1.032 1.346-.788 2.411-2.042 3.053-3.808l-2.819-1.025c-.421 1.157-1.05 1.834-1.75 2.244-.726.426-1.64.626-2.696.621-2.146-.01-4.524-.865-6.059-1.683l-1.412 2.647Zm14.736-2.804c.689-1.895 1.369-4.321 2.062-6.876.7-2.58 1.418-5.31 2.199-7.9.783-2.594 1.608-4.977 2.503-6.856.928-1.95 1.802-3.065 2.534-3.483l-1.488-2.605c-1.592.91-2.795 2.783-3.755 4.798-.994 2.086-1.871 4.643-2.666 7.28-.797 2.642-1.531 5.433-2.222 7.98-.698 2.572-1.347 4.878-1.986 6.637l2.819 1.025Zm9.298-25.115c2.233-1.276 6.211-3.016 9.544-3.559 1.695-.276 2.969-.197 3.749.162.355.164.593.378.756.652.168.285.313.732.313 1.442h3c0-1.116-.229-2.122-.732-2.971-.51-.86-1.242-1.46-2.081-1.847-1.607-.74-3.613-.704-5.487-.399-3.808.62-8.133 2.534-10.55 3.915l1.488 2.605Zm14.362-1.303c0 3.39-1.425 9.67-3.552 15.15-1.057 2.726-2.251 5.154-3.46 6.872-.606.86-1.177 1.487-1.69 1.886-.517.402-.874.497-1.09.497v3c1.113 0 2.104-.485 2.932-1.129.831-.646 1.598-1.529 2.301-2.527 1.406-1.998 2.703-4.676 3.804-7.514 2.191-5.645 3.755-12.318 3.755-16.235h-3Zm-9.792 24.405c-1.663 0-3.282.568-4.745 1.351-1.47.786-2.871 1.837-4.122 2.916-2.454 2.115-4.606 4.6-5.478 5.472l2.121 2.122c1.121-1.121 2.953-3.285 5.316-5.322 1.156-.997 2.371-1.897 3.578-2.543 1.215-.65 2.336-.996 3.33-.996v-3Zm-14.345 9.739c-1.513 1.512-8.016 6.711-11.158 9.18l1.853 2.359c3.057-2.402 9.751-7.744 11.426-9.417l-2.121-2.122Zm-10.231 11.86c1.491 0 3.852-.103 6.13-.413 1.139-.155 2.287-.366 3.31-.653.993-.278 1.997-.663 2.751-1.228l-1.8-2.4c-.308.232-.888.495-1.761.74-.844.236-1.846.424-2.905.568a45.496 45.496 0 0 1-5.726.386l.001 3Zm12.191-2.294c.627-.47 1.944-1.348 3.72-2.553a212.108 212.108 0 0 0 6.063-4.243c2.177-1.591 4.418-3.323 6.375-5.046 1.94-1.708 3.676-3.471 4.782-5.131l-2.497-1.664c-.886 1.331-2.388 2.889-4.268 4.543-1.862 1.64-4.022 3.312-6.162 4.876a211.95 211.95 0 0 1-5.977 4.182c-1.711 1.161-3.134 2.11-3.836 2.636l1.8 2.4Zm20.94-16.973c1.079-1.618 2.294-4.236 3.574-7.063 1.306-2.884 2.719-6.078 4.233-9.025 1.524-2.964 3.089-5.555 4.66-7.269 1.62-1.766 2.853-2.197 3.824-1.933l.789-2.894c-2.682-.731-5.018.83-6.824 2.8-1.854 2.023-3.568 4.912-5.117 7.925-1.557 3.03-3.009 6.313-4.298 9.158-1.314 2.902-2.424 5.266-3.338 6.637l2.497 1.664Zm16.291-25.29c1.69.461 2.771 1.026 3.559 1.845.794.825 1.432 2.057 1.938 4.122 1.037 4.226 1.365 11.167 2.035 23.223l2.996-.166c-.659-11.857-.995-19.197-2.117-23.772-.573-2.335-1.388-4.134-2.69-5.487-1.309-1.36-2.968-2.124-4.932-2.659l-.789 2.894Zm7.532 29.19c.665 11.968.826 22.654 1.245 32.115.415 9.384 1.082 17.498 2.788 23.979l2.901-.763c-1.616-6.14-2.277-13.967-2.692-23.348-.412-9.303-.583-20.205-1.246-32.149l-2.996.166Zm4.033 56.094c1.732 6.584 4.375 9.95 6.08 12.629.845 1.328 1.407 2.404 1.652 3.63.242 1.211.2 2.705-.417 4.867l2.884.824c.711-2.487.835-4.48.475-6.279-.357-1.784-1.164-3.24-2.063-4.653-1.782-2.8-4.121-5.744-5.71-11.781l-2.901.763Zm7.315 21.126c-1.218 4.263-4.789 8.507-7.797 11.766-1.426 1.545-2.813 2.958-3.532 3.89a5.462 5.462 0 0 0-.518.785c-.108.209-.35.711-.251 1.313.058.359.232.713.535.988.28.254.589.367.817.42.42.097.842.05 1.143 0l-.494-2.959c-.198.033-.144-.004.025.035.102.024.314.091.525.282.233.212.366.486.409.751.068.411-.101.658-.046.552.022-.042.087-.148.231-.335.61-.792 1.797-1.994 3.36-3.687 2.97-3.217 7.038-7.94 8.477-12.977l-2.884-.824Zm-9.603 19.162c1.221-.204 2.846-.872 4.45-1.612 1.647-.761 3.466-1.691 5.107-2.512 1.676-.838 3.137-1.546 4.168-1.927.251-.093.455-.159.616-.201.079-.02.14-.033.185-.041.047-.008.065-.008.06-.008-.002 0-.051.002-.131-.014a1.087 1.087 0 0 1-.385-.163 1.208 1.208 0 0 1-.54-.98h3a1.8 1.8 0 0 0-.795-1.517c-.468-.311-.967-.334-1.247-.325-.578.019-1.232.223-1.805.435-1.212.449-2.823 1.236-4.468 2.058-1.68.84-3.431 1.736-5.022 2.471-1.634.754-2.916 1.248-3.687 1.377l.494 2.959Zm13.53-7.458c0-.176.047-.222-.027-.038a5.834 5.834 0 0 1-.309.621c-.303.543-.762 1.254-1.356 2.084-1.184 1.655-2.843 3.701-4.71 5.689-1.87 1.992-3.912 3.888-5.858 5.274-2.006 1.429-3.671 2.14-4.838 2.14v3c2.154 0 4.474-1.198 6.578-2.696 2.164-1.541 4.357-3.589 6.305-5.665 1.953-2.08 3.698-4.228 4.963-5.997.631-.883 1.159-1.692 1.535-2.366a8.75 8.75 0 0 0 .473-.963c.104-.258.244-.657.244-1.083h-3Zm-17.098 15.77c-1.681 0-3.573.085-5.328.125-1.796.041-3.501.039-4.977-.117-1.506-.158-2.595-.46-3.273-.893-.57-.364-.864-.815-.864-1.6h-3c0 1.871.869 3.247 2.25 4.129 1.273.812 2.925 1.174 4.573 1.348 1.679.177 3.545.174 5.36.132 1.857-.042 3.618-.124 5.259-.124v-3Zm-14.442-2.485c0-.513.12-1.437.37-2.823.243-1.354.589-3.039 1-5.02.819-3.95 1.884-9.022 2.844-14.742 1.918-11.423 3.441-25.544 1.752-38.715l-2.976.381c1.633 12.734.167 26.511-1.735 37.837-.949 5.655-2.002 10.672-2.822 14.63-.41 1.973-.764 3.698-1.016 5.097-.246 1.367-.417 2.539-.417 3.355h3Zm5.966-61.3c-1.645-12.831-.486-21.691-.486-27.79 0-2.929-.259-5.555-1.682-7.402-1.513-1.964-3.99-2.649-7.291-2.649v3c3.01 0 4.27.643 4.915 1.48.736.955 1.058 2.605 1.058 5.571 0 5.691-1.166 15.097.51 28.171l2.976-.381Zm-9.459-37.841c-3.497 0-6.266 1.117-8.287 3.151-1.989 2.001-3.121 4.754-3.652 7.805-1.057 6.076.183 13.82 2.546 20.907l2.846-.948c-2.288-6.862-3.372-14.062-2.436-19.445.465-2.677 1.409-4.781 2.824-6.204 1.382-1.391 3.347-2.266 6.159-2.266v-3Zm-9.393 31.863c4.541 13.623 4.558 30.579-.017 46.267l2.88.84c4.723-16.196 4.741-33.78-.017-48.055l-2.846.948Zm-.017 46.267c-4.73 16.214-2.053 32.641-2.053 36.288h3c0-4.323-2.637-19.78 1.933-35.448l-2.88-.84Zm-2.053 36.288c0 1.833-.178 4.768.37 7.146.283 1.223.79 2.482 1.751 3.442 1.002 1.003 2.356 1.54 4.029 1.54v-3c-.985 0-1.54-.293-1.908-.661-.409-.409-.732-1.06-.948-1.996-.448-1.939-.294-4.318-.294-6.471h-3Zm6.15 12.128c1.612 0 3.565-.538 5.467-1.301a33.131 33.131 0 0 0 5.736-3.015c1.766-1.163 3.383-2.488 4.445-3.812.529-.66.984-1.397 1.206-2.181.231-.816.219-1.741-.291-2.591l-2.572 1.544c.003.006.005.009.007.025a.617.617 0 0 1-.031.205c-.071.251-.265.629-.659 1.122-.786.979-2.116 2.104-3.755 3.183a30.187 30.187 0 0 1-5.203 2.735c-1.772.711-3.305 1.086-4.35 1.086v3Zm16.563-12.9c-1.331-2.218-3.718-3.219-6.185-3.219-2.461 0-5.119.977-7.353 2.839l1.92 2.304c1.751-1.459 3.743-2.143 5.433-2.143 1.685 0 2.951.66 3.613 1.763l2.572-1.544Zm-13.538-.38c-1.285 1.07-2.118 2.751-2.752 4.039-.344.699-.639 1.311-.95 1.852-.314.544-.584.903-.825 1.121-.215.193-.352.227-.464.23-.145.003-.481-.046-1.075-.434-1.233-.805-3.046-2.709-5.692-6.512l-2.462 1.713c2.668 3.835 4.758 6.165 6.514 7.311.9.588 1.831.944 2.786.921.988-.023 1.785-.446 2.4-.999.589-.53 1.045-1.209 1.417-1.853.373-.648.722-1.374 1.042-2.025.695-1.41 1.273-2.469 1.981-3.06l-1.92-2.304Zm-11.758.296c-5.079-7.302-6.699-16.421-6.457-23.503.121-3.546.705-6.465 1.474-8.319.392-.944.775-1.474 1.05-1.709.124-.106.179-.111.159-.107-.036.007-.062-.005-.041.004l1.182-2.757c-1.224-.525-2.391-.156-3.252.582-.792.678-1.399 1.705-1.869 2.837-.953 2.298-1.573 5.605-1.701 9.366-.257 7.531 1.444 17.343 6.993 25.319l2.462-1.713Zm-3.815-33.634c-.156-.067-.111-.128.036.146.137.254.288.662.432 1.26.286 1.19.48 2.868.587 4.932.214 4.112.072 9.487-.218 14.954-.289 5.457-.724 10.96-1.087 15.315-.357 4.284-.659 7.597-.659 8.511h3c0-.747.279-3.827.649-8.261.364-4.363.801-9.903 1.093-15.406.291-5.492.44-10.995.218-15.269-.111-2.128-.316-4.02-.666-5.477-.175-.726-.4-1.41-.706-1.979-.296-.55-.76-1.167-1.497-1.483l-1.182 2.757Zm-.909 45.118c0 .836.089 1.976.115 2.789.031.927.002 1.709-.153 2.327-.147.589-.375.904-.669 1.092-.322.205-.972.417-2.277.272l-.331 2.982c1.685.187 3.11-.016 4.221-.725 1.138-.725 1.699-1.822 1.967-2.893.26-1.042.273-2.171.241-3.153-.036-1.097-.114-1.867-.114-2.691h-3Zm-2.984 6.48c-1.392-.155-2.716-.465-4.137-.791-1.393-.32-2.88-.656-4.452-.79-3.247-.279-6.741.308-11.007 3.152l1.664 2.496c3.705-2.469 6.522-2.879 9.087-2.659 1.334.114 2.628.401 4.037.725 1.381.317 2.881.671 4.477.849l.331-2.982Zm-19.596 1.571c-7.993 5.329-20.365 15.77-47.903 20.36l.493 2.959c28.257-4.709 41.126-15.524 49.074-20.823l-1.664-2.496Zm-47.903 20.36a172.786 172.786 0 0 0-16.527 3.579c-4.227 1.123-7.107 2-9.466 2.4-2.275.385-3.824.277-5.349-.44-1.605-.754-3.345-2.256-5.813-5.052l-2.249 1.985c2.514 2.85 4.593 4.752 6.786 5.783 2.274 1.068 4.503 1.126 7.127.681 2.54-.43 5.68-1.38 9.734-2.457a169.697 169.697 0 0 1 16.25-3.52l-.493-2.959Zm-37.155.487c-4.806-5.447-9.675-14.347-11.948-24.654-2.268-10.289-1.929-21.881 3.53-32.8l-2.683-1.341c-5.833 11.665-6.158 23.985-3.777 34.786 2.378 10.783 7.472 20.149 12.629 25.994l2.249-1.985Zm-8.418-57.454c9.034-18.067 14.335-26.448 15.784-28.312l-2.368-1.841c-1.65 2.122-7.065 10.745-16.099 28.812l2.683 1.341Zm15.983-28.65 5.313-12.621-2.764-1.164-5.314 12.62 2.765 1.165ZM503 173.019c-.549 4.504-1.639 11.769-3.118 18.89-1.491 7.179-3.34 14.01-5.352 17.782l2.648 1.412c2.239-4.199 4.155-11.427 5.641-18.584a249.049 249.049 0 0 0 3.159-19.137l-2.978-.363Zm-8.47 36.672c-5.353 10.038-8.236 18.425-6.116 27.613l2.924-.675c-1.866-8.082.565-15.636 5.84-25.526l-2.648-1.412Zm-6.116 27.613c.985 4.265 2.139 11.021 3.222 17.352 1.069 6.25 2.082 12.179 2.776 14.606l2.884-.824c-.635-2.223-1.614-7.919-2.703-14.288-1.076-6.29-2.247-13.151-3.255-17.521l-2.924.675Zm5.998 31.958c.651 2.279 1.044 4.433.491 6.508-.536 2.007-2.038 4.213-5.783 6.397l1.512 2.592c4.225-2.465 6.376-5.242 7.17-8.216.775-2.907.172-5.735-.506-8.105l-2.884.824Zm-5.292 12.905c-3.885 2.266-8.74 4.208-13.209 6.147-2.205.957-4.316 1.915-6.095 2.896-1.751.966-3.325 2.03-4.341 3.249l2.305 1.92c.645-.774 1.811-1.619 3.485-2.542 1.646-.908 3.645-1.818 5.84-2.771 4.333-1.88 9.441-3.924 13.527-6.307l-1.512-2.592Zm-23.645 12.292c-1.06 1.272-1.914 3.421-2.452 5.94-.55 2.571-.808 5.705-.548 9.084.52 6.762 3.127 14.613 9.763 20.901l2.064-2.178c-5.984-5.669-8.359-12.762-8.836-18.953-.238-3.096.002-5.941.491-8.227.499-2.338 1.223-3.926 1.823-4.647l-2.305-1.92Zm6.763 35.925c5.176 4.903 9.562 7.186 13.05 7.949 3.467.758 6.127.014 7.577-1.275l-1.993-2.242c-.543.483-2.134 1.2-4.943.586-2.79-.61-6.706-2.534-11.627-7.196l-2.064 2.178Zm19.73 7.05c2.73-.182 10.616 1.594 17.261 11.307l2.476-1.694c-7.17-10.48-16.023-12.867-19.936-12.606l.199 2.993Zm17.261 11.307c2.142 3.131 3.887 5.935 5.133 8.376 1.258 2.465 1.945 4.442 2.084 5.944.134 1.436-.235 2.258-.927 2.801-.806.633-2.343 1.123-5.052 1.123v3c2.937 0 5.303-.506 6.904-1.763 1.716-1.346 2.261-3.305 2.062-5.439-.192-2.069-1.083-4.45-2.399-7.03-1.328-2.603-3.154-5.527-5.329-8.706l-2.476 1.694Zm1.238 18.244c-5.109 0-10.574-3.044-14.77-6.836-2.075-1.876-3.766-3.871-4.886-5.638-.561-.883-.959-1.681-1.197-2.354-.245-.694-.281-1.148-.246-1.394l-2.97-.425c-.131.917.061 1.895.387 2.818.333.943.848 1.946 1.492 2.962 1.288 2.031 3.166 4.23 5.409 6.256 4.439 4.013 10.599 7.611 16.781 7.611v-3Zm-21.099-16.222c.098-.686.432-1.119.943-1.407.562-.316 1.414-.489 2.492-.385 2.159.209 4.764 1.492 6.501 3.808l2.4-1.8c-2.249-2.998-5.623-4.704-8.612-4.994-1.495-.145-3.009.056-4.253.757-1.295.729-2.206 1.956-2.441 3.596l2.97.425Zm9.936 2.016c.976 1.301 2.403 3.381 4.121 5.843 1.704 2.442 3.67 5.224 5.683 7.866 2.007 2.634 4.09 5.168 6.03 7.098.97.964 1.935 1.808 2.863 2.443.906.62 1.898 1.125 2.908 1.251l.372-2.977c-.318-.04-.842-.241-1.586-.75-.722-.494-1.543-1.201-2.441-2.095-1.796-1.785-3.781-4.192-5.76-6.788-1.973-2.59-3.909-5.329-5.609-7.765-1.686-2.416-3.165-4.57-4.181-5.926l-2.4 1.8Zm21.605 24.501c2.669.333 14.183 2.145 25.805 3.734 5.776.789 11.549 1.519 16.176 1.968 2.312.225 4.357.381 5.983.438.813.029 1.539.034 2.15.007.587-.025 1.164-.082 1.63-.215l-.824-2.885c-.115.033-.405.08-.935.103-.505.022-1.146.019-1.915-.008-1.537-.054-3.513-.204-5.799-.426-4.568-.443-10.295-1.166-16.06-1.954-11.46-1.567-23.194-3.408-25.839-3.739l-.372 2.977Zm51.744 5.932c1.456-.416 2.805-1.41 2.852-3.103.041-1.479-.98-2.754-2.183-3.681-2.516-1.935-7.204-3.466-13.702-3.466v3c6.124 0 10.071 1.458 11.872 2.844.442.34.714.644.865.879.153.237.149.348.149.341.005-.199.192.053-.677.301l.824 2.885Zm-13.033-10.25c-6.208 0-14.403-.982-21.512-1.735-3.524-.372-6.79-.689-9.35-.785-1.277-.047-2.425-.042-3.365.049-.47.046-.921.116-1.327.224-.391.105-.832.269-1.214.555l1.799 2.401c-.049.037-.018-.002.191-.058.193-.051.469-.1.841-.136.745-.072 1.74-.082 2.964-.037 2.442.091 5.611.397 9.145.771 7.006.741 15.417 1.751 21.828 1.751v-3Zm-36.768-1.692a2.2 2.2 0 0 0-.87 1.427c-.086.538.033 1.03.179 1.406.283.731.839 1.462 1.423 2.122 1.2 1.355 3.025 2.959 4.833 4.52 1.85 1.598 3.709 3.175 5.117 4.563.704.694 1.249 1.296 1.608 1.792.408.562.394.743.394.648h3c0-.927-.511-1.783-.965-2.409-.502-.693-1.182-1.429-1.931-2.168-1.498-1.477-3.459-3.139-5.262-4.696-1.845-1.593-3.507-3.062-4.548-4.239-.537-.607-.791-1.007-.871-1.215-.036-.093.013-.023-.015.149a.8.8 0 0 1-.293.501l-1.799-2.401Zm12.684 16.478c0 .35-.269 1.15-1.009 2.193-.697.98-1.651 1.949-2.65 2.627-1.034.701-1.908.955-2.508.883-.442-.053-1.051-.32-1.568-1.611l-2.785 1.114c.812 2.031 2.195 3.259 3.995 3.475 1.643.198 3.259-.503 4.55-1.379 1.326-.9 2.53-2.132 3.411-3.372.838-1.179 1.564-2.62 1.564-3.93h-3Zm-7.735 4.092c-.295-.739-.36-1.181-.352-1.412.003-.104.021-.139.019-.134-.004.008-.013.018-.012.017.021-.018.166-.122.61-.192.43-.067 1.007-.082 1.751-.043 1.505.079 3.361.356 5.558.634 2.151.271 4.552.53 6.975.53v-3c-2.226 0-4.474-.239-6.599-.507-2.08-.262-4.126-.566-5.776-.653-.834-.044-1.647-.038-2.374.076-.714.112-1.492.35-2.115.893-1.443 1.257-1.162 3.176-.47 4.905l2.785-1.114Zm14.549-.6c5.313 0 10.345-3.564 14.197-8.272 3.889-4.753 6.828-10.965 7.872-16.879l-2.955-.522c-.949 5.378-3.655 11.122-7.239 15.502-3.621 4.426-7.888 7.171-11.875 7.171v3Zm22.069-25.151c1.888-10.701 10.759-20.906 22.887-24.736l-.904-2.861c-13.112 4.141-22.841 15.192-24.938 27.075l2.955.522Zm22.887-24.736c3.123-.986 6.198-1.806 9.084-2.611 2.86-.798 5.551-1.586 7.798-2.493 2.217-.896 4.198-1.982 5.477-3.478 1.371-1.604 1.844-3.574 1.22-5.863l-2.894.789c.372 1.364.098 2.3-.607 3.125-.796.932-2.22 1.797-4.32 2.645-2.071.837-4.611 1.585-7.48 2.385-2.843.793-5.995 1.634-9.182 2.64l.904 2.861Zm23.579-14.445c-.585-2.147-1.835-3.932-3.239-5.458-1.394-1.514-3.037-2.871-4.455-4.087-1.471-1.261-2.68-2.353-3.46-3.448-.748-1.048-.995-1.946-.785-2.893l-2.929-.651c-.453 2.042.213 3.802 1.271 5.286 1.025 1.438 2.515 2.753 3.95 3.984 1.488 1.274 2.958 2.491 4.201 3.841 1.232 1.338 2.141 2.709 2.552 4.215l2.894-.789Zm-11.939-15.886c.277-1.249 1.126-3.07 2.418-5.234 1.271-2.128 2.897-4.467 4.616-6.719 1.719-2.25 3.516-4.393 5.12-6.13 1.633-1.767 2.983-3.021 3.82-3.578l-1.664-2.497c-1.157.771-2.712 2.257-4.359 4.039-1.676 1.813-3.532 4.029-5.301 6.345-1.767 2.315-3.463 4.75-4.807 7.002-1.324 2.216-2.385 4.38-2.772 6.121l2.929.651Zm15.974-21.661a205.358 205.358 0 0 1 7.246-4.612l-1.544-2.572a207.356 207.356 0 0 0-7.366 4.687l1.664 2.497Zm5.245-6.758c-2.358 3.369-5.699 8.73-8.056 13.886-1.176 2.573-2.138 5.159-2.592 7.457-.439 2.223-.477 4.54.666 6.254l2.496-1.664c-.452-.677-.623-1.964-.219-4.009.389-1.97 1.245-4.315 2.377-6.79 2.259-4.941 5.495-10.141 7.786-13.414l-2.458-1.72Zm-9.982 27.597c1.193 1.79 2.976 3.054 4.802 4.038 1.817.979 3.851 1.767 5.581 2.491 1.806.756 3.25 1.43 4.211 2.209.889.721 1.197 1.382 1.104 2.219l2.982.332c.239-2.152-.78-3.733-2.196-4.881-1.343-1.089-3.179-1.908-4.943-2.647-1.84-.77-3.667-1.476-5.316-2.364-1.641-.884-2.93-1.862-3.729-3.061l-2.496 1.664Zm15.698 10.957c-.054.489-.296 1.228-.777 2.198-.47.946-1.118 2.016-1.887 3.142-1.538 2.253-3.501 4.642-5.325 6.588a38.148 38.148 0 0 1-2.519 2.474c-.771.679-1.332 1.077-1.65 1.234-.197.098-.087-.005.193.021.186.017.455.095.693.317.231.215.316.454.344.586.043.2-.017.239.064-.05.067-.241.201-.599.433-1.101l-2.724-1.257a10.73 10.73 0 0 0-.598 1.548c-.113.403-.224.952-.107 1.493a1.8 1.8 0 0 0 1.617 1.451c.586.055 1.109-.167 1.416-.319.688-.341 1.493-.96 2.301-1.671a40.86 40.86 0 0 0 2.726-2.675c1.912-2.04 3.976-4.549 5.614-6.947.818-1.198 1.546-2.391 2.096-3.5.538-1.085.96-2.194 1.072-3.2l-2.982-.332Zm-10.431 15.409c.957-2.074 2.138-4.072 3.488-5.702 1.357-1.638 2.821-2.826 4.325-3.408 1.454-.561 3.022-.59 4.763.22 1.792.835 3.849 2.601 6.088 5.8l2.458-1.72c-2.41-3.443-4.837-5.662-7.28-6.799-2.493-1.162-4.91-1.149-7.11-.299-2.149.83-4.006 2.423-5.555 4.293-1.556 1.878-2.866 4.114-3.901 6.358l2.724 1.257Zm18.664-3.09c4.57 6.528 16.139 28.495 26.786 50.037 5.309 10.743 10.366 21.333 14.175 29.771 1.906 4.22 3.494 7.89 4.645 10.766 1.176 2.94 1.83 4.894 1.965 5.772l2.965-.456c-.197-1.28-.996-3.56-2.144-6.43-1.174-2.934-2.783-6.648-4.696-10.887-3.829-8.479-8.902-19.103-14.221-29.865-10.609-21.467-22.287-43.671-27.017-50.428l-2.458 1.72Zm47.571 96.346c.623 4.05.325 14.25-3.572 24.479-3.879 10.182-11.241 20.203-24.615 24.342l.887 2.866c14.524-4.495 22.439-15.398 26.531-26.14 4.074-10.693 4.44-21.417 3.734-26.003l-2.965.456Zm-28.187 48.821c-13.959 4.321-36.735 13.687-59.005 21.523-11.19 3.937-22.304 7.509-32.259 9.931-9.99 2.43-18.669 3.665-25.048 3.027l-.299 2.985c6.906.69 15.995-.649 26.056-3.097 10.097-2.456 21.318-6.066 32.546-10.016 22.566-7.94 44.957-17.173 58.896-21.487l-.887-2.866Zm-116.312 34.481c-12.806-1.281-20.172-7.646-23.582-13.768-1.72-3.088-2.416-6.08-2.343-8.323.076-2.364.926-3.331 1.63-3.542l-.862-2.874c-2.617.785-3.677 3.555-3.767 6.318-.093 2.885.788 6.41 2.721 9.881 3.897 6.997 12.141 13.916 25.904 15.293l.299-2.985Zm-24.295-25.633c1.499-.45 5.531-1.019 11.276-1.659 5.672-.631 12.841-1.315 20.48-2.021 15.256-1.409 32.398-2.907 43.057-4.239l-.372-2.977c-10.596 1.324-27.662 2.816-42.961 4.229-7.638.706-14.833 1.392-20.536 2.027-5.63.627-9.984 1.22-11.806 1.766l.862 2.874Zm74.813-7.919c10.856-1.357 27.984-7.578 37.345-12.976 2.34-1.349 4.302-2.706 5.565-3.988.626-.635 1.175-1.346 1.463-2.118.309-.83.326-1.79-.243-2.658-.513-.782-1.355-1.256-2.233-1.563-.903-.316-2.037-.522-3.384-.64-2.701-.235-6.512-.131-11.612.37l.294 2.986c5.029-.495 8.628-.578 11.058-.367 1.217.106 2.077.281 2.654.483.601.21.723.39.714.376-.066-.1-.006-.178-.06-.034-.075.203-.295.559-.788 1.06-.976.99-2.658 2.187-4.926 3.494-9.071 5.23-25.819 11.298-36.219 12.598l.372 2.977Zm26.901-23.573c-20.312 1.998-48.255 6.157-71.455 10.564-11.599 2.203-22.041 4.474-29.766 6.575-3.856 1.049-7.076 2.067-9.435 3.025-1.176.478-2.184.959-2.963 1.445-.715.446-1.492 1.046-1.853 1.859l2.741 1.218c-.029.066.061-.133.699-.531.573-.358 1.405-.764 2.505-1.212 2.195-.891 5.28-1.872 9.094-2.909 7.615-2.071 17.971-4.325 29.538-6.523 23.129-4.393 50.982-8.538 71.189-10.525l-.294-2.986Zm-115.472 23.468c-1.506 3.387-1.621 8.387-.773 13.476.857 5.143 2.743 10.646 5.516 15.152l2.555-1.572c-2.541-4.129-4.309-9.253-5.112-14.073-.812-4.875-.596-9.174.555-11.765l-2.741-1.218Zm4.743 28.628c1.357 2.206 3.346 4.999 5.266 7.761 1.947 2.8 3.83 5.579 5.072 7.863.624 1.148 1.043 2.094 1.241 2.808.224.813.044.894.156.738.185-.258.307-.001-.583-.112-.82-.102-2.096-.48-3.963-1.292l-1.196 2.751c1.953.849 3.541 1.363 4.789 1.518 1.178.146 2.572.024 3.39-1.116.745-1.038.559-2.343.298-3.286-.287-1.042-.834-2.224-1.496-3.443-1.332-2.449-3.31-5.357-5.245-8.141-1.961-2.822-3.875-5.509-5.174-7.621l-2.555 1.572Zm7.189 17.766c-6.866-2.985-9.251-10.184-10.922-17.953-.806-3.75-1.46-7.703-2.439-10.907-.974-3.185-2.407-6.155-5.124-7.618l-1.423 2.642c1.601.861 2.741 2.79 3.678 5.853.93 3.044 1.521 6.688 2.376 10.66 1.65 7.674 4.247 16.417 12.658 20.074l1.196-2.751Zm-18.485-36.478c-4.62-2.487-10.621-3.375-15.536-2.392-2.467.494-4.768 1.481-6.474 3.088-1.74 1.64-2.785 3.86-2.785 6.603h3c0-1.907.698-3.34 1.843-4.42 1.179-1.111 2.906-1.909 5.005-2.329 4.218-.844 9.509-.071 13.524 2.092l1.423-2.642Zm-24.795 7.299c0 9.434 2.635 21.726-5.894 45.999l2.831.994c8.742-24.88 6.063-37.828 6.063-46.993h-3Zm-5.894 45.999c-4.424 12.593-4.415 26.827-2.128 37.753 1.142 5.459 2.874 10.193 4.986 13.521 2.041 3.218 4.801 5.642 8.069 5.175l-.424-2.969c-1.382.197-3.189-.783-5.112-3.813-1.853-2.92-3.484-7.278-4.583-12.529-2.197-10.496-2.188-24.16 2.023-36.144l-2.831-.994Zm10.927 56.449c4.678-.668 10.239-1.707 14.92-6.028 4.689-4.329 8.259-11.714 9.608-24.526l-2.984-.314c-1.308 12.429-4.713 18.993-8.659 22.635-3.953 3.65-8.688 4.603-13.309 5.264l.424 2.969Zm24.528-30.554c.662-6.287 1.359-10.688 2.153-13.844.794-3.157 1.66-4.961 2.594-6.137.915-1.152 1.987-1.822 3.482-2.555 1.47-.72 3.438-1.534 5.678-2.913l-1.572-2.555c-2.077 1.279-3.763 1.959-5.427 2.775-1.639.803-3.183 1.711-4.51 3.382-1.307 1.646-2.309 3.911-3.155 7.271-.846 3.362-1.56 7.929-2.227 14.262l2.984.314Zm13.907-25.449c2.286-1.406 3.686-2.874 4.26-4.389.613-1.618.203-3.086-.674-4.098-.808-.932-2.031-1.5-3.181-1.482-.592.009-1.283.18-1.843.687-.588.532-.848 1.267-.848 2.027h3c0-.071.01.062-.139.197-.122.11-.205.089-.123.088.199-.003.596.135.867.448.202.234.332.551.135 1.071-.236.623-.994 1.646-3.026 2.896l1.572 2.555Zm-2.286-7.255c0 1.333-.766 5.619 2.47 9.15 3.21 3.501 9.952 5.968 23.643 5.634l-.073-2.999c-13.542.33-19.088-2.185-21.358-4.662-2.244-2.447-1.682-5.135-1.682-7.123h-3Zm26.113 14.784c27.303-.666 48.121-2.666 72.961-13.408l-1.191-2.753c-24.314 10.514-44.678 12.499-71.843 13.162l.073 2.999Zm72.961-13.408c24.226-10.476 58.46-13.161 104.889-9.181l.257-2.989c-46.564-3.991-81.41-1.362-106.337 9.417l1.191 2.753Zm104.889-9.181c11.531.988 24.117 3.338 37.956 6.1 13.816 2.757 28.863 5.92 45.217 8.5 32.731 5.164 70.763 8.004 115.142.663l-.49-2.96c-43.964 7.272-81.655 4.466-114.185-.666-16.276-2.568-31.244-5.715-45.097-8.479-13.831-2.76-26.569-5.143-38.286-6.147l-.257 2.989Z" fill="#131441"/><path d="m610.767 82.864-.053 1.5h.053v-1.5Zm.054-1.499c-18.758-.67-28.475-.004-40.927-2.626l-.618 2.936c12.789 2.693 22.999 2.03 41.438 2.688l.107-2.998Zm-40.927-2.626c-3.186-.67-5.47-1.118-7.23-1.52-1.763-.402-2.847-.725-3.641-1.105-1.46-.698-2.064-1.609-4.132-4.71l-2.496 1.665c1.919 2.877 2.975 4.623 5.334 5.751 1.116.534 2.481.917 4.268 1.324 1.789.408 4.155.873 7.279 1.531l.618-2.936Zm-15.003-7.335c-.948-1.423-2.152-3.667-3.511-6.164-1.333-2.45-2.798-5.107-4.214-7.21-.707-1.05-1.435-2.01-2.16-2.753-.683-.7-1.55-1.404-2.558-1.605a2.717 2.717 0 0 0-1.702.195c-.547.255-.963.668-1.28 1.128-.606.882-.992 2.154-1.251 3.71l2.959.493c.239-1.432.538-2.174.765-2.504.1-.145.137-.138.076-.11a.33.33 0 0 1-.105.03c-.035.003-.054-.001-.05 0 .082.016.414.159.999.758.544.557 1.156 1.35 1.819 2.335 1.324 1.966 2.723 4.498 4.067 6.967 1.319 2.423 2.606 4.828 3.65 6.394l2.496-1.664Zm-16.676-12.699c-.528 3.165-.436 6.13-.201 8.687.117 1.275.271 2.466.402 3.516.134 1.067.24 1.967.279 2.732.039.781-.003 1.292-.094 1.614-.077.274-.153.299-.173.31-.083.044-.378.149-1.12.061-.726-.085-1.728-.335-3.092-.817l-.999 2.829c1.459.515 2.699.846 3.742.968 1.027.12 2.03.06 2.881-.395.914-.487 1.409-1.292 1.648-2.14.226-.799.247-1.7.203-2.58-.045-.895-.167-1.904-.298-2.954-.133-1.068-.28-2.203-.392-3.418-.222-2.424-.296-5.106.173-7.92l-2.959-.493Zm-3.999 16.103c-2.869-1.013-5.037-1.764-6.631-2.57-1.586-.804-2.302-1.518-2.599-2.286-.306-.79-.315-2.01.433-4.167.742-2.136 2.137-4.943 4.289-8.752l-2.611-1.476c-2.165 3.83-3.676 6.836-4.512 9.245-.829 2.39-1.088 4.448-.397 6.233.699 1.806 2.225 2.96 4.043 3.879 1.81.916 4.209 1.743 6.986 2.723l.999-2.829Zm-4.508-17.775c4.457-7.884 5.52-16.721 7.294-24.222 1.801-7.61 4.332-14.081 11.443-18.41l-1.56-2.562c-8.167 4.97-10.949 12.45-12.802 20.282-1.879 7.943-2.808 16.044-6.986 23.436l2.611 1.476Zm18.737-42.631c7.56-4.602 14.373-7.834 22.284-9.53 7.917-1.696 17.032-1.874 29.209-.229l.402-2.973c-12.4-1.675-21.883-1.522-30.24.27-8.362 1.791-15.498 5.202-23.215 9.899l1.56 2.563Zm51.493-9.759c12.001 1.622 19.267 5.966 23.711 11.268 4.467 5.329 6.234 11.805 6.882 17.958l2.983-.314c-.681-6.468-2.567-13.608-7.566-19.571-5.021-5.99-13.032-10.614-25.608-12.314l-.402 2.973Zm30.593 29.226c.675 6.416 3.043 15.238 4.675 22.825.828 3.85 1.472 7.395 1.672 10.281.1 1.442.084 2.67-.056 3.66-.143 1.004-.399 1.649-.686 2.031l2.4 1.8c.71-.946 1.077-2.15 1.256-3.41.181-1.275.186-2.73.079-4.288-.216-3.112-.9-6.833-1.732-10.704-1.69-7.857-3.972-16.304-4.625-22.51l-2.983.315Zm5.605 38.797c-.817 1.09-2.233 2.213-4.15 3.286-1.898 1.061-4.191 2.022-6.658 2.83-4.947 1.622-10.433 2.582-14.561 2.582v3c4.509 0 10.314-1.032 15.496-2.73 2.598-.853 5.079-1.885 7.187-3.064 2.089-1.169 3.911-2.537 5.086-4.104l-2.4-1.8ZM606.117 244.941l.688 1.333.027-.013.026-.015-.741-1.305Zm-24.576 22.584-1.423-.474 1.423.474Zm23.888-23.917c-3.51 1.812-8.949 5.123-13.929 9.207-4.93 4.042-9.647 9.029-11.382 14.236l2.846.949c1.452-4.359 5.592-8.892 10.438-12.865 4.794-3.931 10.05-7.13 13.403-8.861l-1.376-2.666Zm-25.311 23.443c-2.197 6.59.179 14.008 4.982 18.358 2.426 2.197 5.512 3.651 8.99 3.791 3.486.141 7.225-1.042 10.944-3.876l-1.818-2.386c-3.256 2.481-6.325 3.373-9.005 3.265-2.687-.109-5.122-1.229-7.097-3.018-3.998-3.62-5.939-9.819-4.15-15.185l-2.846-.949Zm24.916 18.273c13.951-10.63 23.321-17.989 33.363-28.03l-2.122-2.121c-9.885 9.885-19.113 17.139-33.059 27.765l1.818 2.386Zm33.363-28.03c4.864-4.865 14.823-11.559 23.555-17.773 4.313-3.069 8.319-6.017 11.127-8.506 1.396-1.238 2.567-2.423 3.332-3.501.382-.539.71-1.116.891-1.713.184-.607.243-1.33-.062-2.042l-2.757 1.182c-.056-.131-.002-.174-.051-.012-.053.172-.187.452-.469.85-.564.795-1.53 1.8-2.874 2.991-2.672 2.368-6.555 5.232-10.876 8.307-8.538 6.075-18.839 12.997-23.938 18.096l2.122 2.121Zm38.843-33.535c-.159-.373-.401-.817-.793-1.144a1.9 1.9 0 0 0-.873-.417 1.788 1.788 0 0 0-1.073.135c-.568.261-.869.743-1.016 1.029-.17.33-.282.697-.357 1.051-.288 1.36-.199 3.448.762 5.156.498.886 1.252 1.702 2.332 2.21 1.08.508 2.361.65 3.815.401 2.841-.485 6.542-2.491 11.417-6.694l-1.959-2.272c-4.756 4.101-7.946 5.665-9.963 6.009-.974.167-1.613.039-2.033-.159-.42-.197-.745-.523-.994-.966-.534-.949-.611-2.265-.442-3.064.039-.185.08-.28.091-.303.034-.067-.058.171-.4.328a1.208 1.208 0 0 1-.723.089 1.098 1.098 0 0 1-.507-.231c-.143-.119-.13-.184-.041.024l2.757-1.182Zm14.214 1.727c9.707-8.367 16.374-16.679 19.077-22.87 1.317-3.017 1.88-5.956.816-8.155-1.178-2.437-3.875-3.177-7.089-2.82l.331 2.981c2.764-.307 3.72.447 4.057 1.145.452.935.392 2.77-.864 5.648-2.445 5.599-8.73 13.561-18.287 21.799l1.959 2.272Zm12.804-33.845c-6.283.698-13.974 3.972-20.058 7.774-3.055 1.91-5.775 3.996-7.753 6.028-.988 1.016-1.822 2.05-2.417 3.072-.587 1.01-.997 2.106-.997 3.215h3c0-.385.151-.95.591-1.707.433-.745 1.094-1.584 1.973-2.488 1.759-1.807 4.269-3.748 7.193-5.576 5.872-3.67 13.126-6.706 18.799-7.337l-.331-2.981Zm-31.225 20.089c0 1.63.256 3.497.914 5.12.653 1.608 1.803 3.199 3.714 3.807 1.917.611 4.131.085 6.567-1.469 2.446-1.559 5.327-4.282 8.742-8.508l-2.334-1.885c-3.321 4.11-5.965 6.553-8.021 7.864-2.065 1.317-3.326 1.368-4.043 1.14-.722-.23-1.365-.894-1.845-2.077-.475-1.17-.694-2.632-.694-3.992h-3Zm19.937-1.05c13.355-16.529 35.624-34.964 49.594-46.273l-1.887-2.332c-13.928 11.275-36.453 29.903-50.041 46.72l2.334 1.885Zm49.594-46.273c6.909-5.593 12.659-9.991 16.212-13.46 1.769-1.726 3.154-3.37 3.837-4.952.352-.814.546-1.675.462-2.558-.087-.9-.453-1.708-1.039-2.411l-2.305 1.92c.244.293.335.544.357.778.024.251-.02.598-.229 1.082-.437 1.013-1.46 2.316-3.178 3.994-3.421 3.34-8.964 7.576-16.004 13.275l1.887 2.332Zm19.472-23.381c-1.647-1.977-3.032-3.842-3.857-5.643-.813-1.774-1.028-3.36-.522-4.879l-2.846-.949c-.822 2.467-.373 4.866.64 7.078 1.002 2.184 2.606 4.304 4.28 6.313l2.305-1.92Zm-4.379-10.522c.591-1.774 1.619-3.243 2.668-4.904.985-1.559 2.058-3.39 2.058-5.534h-3c0 1.178-.586 2.335-1.594 3.932-.944 1.494-2.241 3.346-2.978 5.557l2.846.949Zm4.726-10.438c0-1.132-.426-2.559-.963-3.869a21.545 21.545 0 0 0-2.126-3.959 11.716 11.716 0 0 0-1.307-1.6c-.441-.442-.981-.878-1.598-1.121-.665-.262-1.53-.328-2.321.207-.699.473-1.063 1.238-1.269 1.959l2.884.824c.126-.441.219-.402.065-.298-.246.167-.478.091-.458.099.068.027.265.14.576.451.294.294.622.696.961 1.186a18.568 18.568 0 0 1 1.817 3.39c.501 1.221.739 2.203.739 2.731h3Zm-9.584-8.383c-.248.869-.223 1.731.109 2.525.324.772.886 1.353 1.499 1.783 1.191.834 2.818 1.272 4.355 1.492 1.575.225 3.247.246 4.669.123a13.808 13.808 0 0 0 1.973-.301c.551-.131 1.153-.325 1.625-.641l-1.664-2.496c.002-.001-.045.029-.171.076-.12.045-.28.094-.484.142-.408.097-.932.179-1.538.231a18.14 18.14 0 0 1-3.986-.104c-1.369-.196-2.441-.547-3.056-.979-.29-.203-.408-.374-.455-.487-.038-.091-.076-.246.008-.54l-2.884-.824Zm14.23 4.981c.617-.41 1.009-1.107 1.261-1.649.283-.612.529-1.348.73-2.131.403-1.567.67-3.478.67-5.272 0-1.724-.243-3.634-1.115-4.971-.467-.716-1.159-1.332-2.119-1.574-.939-.237-1.915-.062-2.861.358l1.219 2.742c.549-.244.818-.214.907-.192.067.017.185.066.341.305.373.572.628 1.734.628 3.332 0 1.527-.231 3.186-.575 4.525-.173.67-.363 1.22-.547 1.615-.215.465-.321.495-.203.416l1.664 2.496Zm-3.434-15.239c-.883.393-1.643.911-2.133 1.619a2.95 2.95 0 0 0-.443 2.464c.2.768.667 1.414 1.172 1.926.517.523 1.154.989 1.836 1.388 1.361.798 3.045 1.419 4.68 1.708 1.586.282 3.382.296 4.803-.415l-1.341-2.683c-.571.285-1.599.382-2.939.145a11.6 11.6 0 0 1-3.686-1.343c-.522-.306-.932-.619-1.218-.908-.296-.3-.384-.499-.403-.571-.002-.01-.012.023.006-.004.058-.084.273-.312.885-.584l-1.219-2.742Zm9.915 8.69c2.492-1.246 4.344-4.163 5.158-6.695.413-1.285.628-2.671.412-3.878-.11-.616-.345-1.253-.792-1.79a3.144 3.144 0 0 0-1.833-1.078l-.588 2.942c.089.018.104.041.115.054.028.034.099.144.145.4.096.537.019 1.392-.315 2.432-.681 2.118-2.149 4.183-3.643 4.93l1.341 2.683Zm2.945-13.44c-.693-.139-1.485-.082-2.148.423-.644.49-.891 1.197-.963 1.775-.139 1.113.267 2.367.866 3.366.616 1.026 1.601 2.064 2.933 2.548 1.419.516 3.012.321 4.539-.771l-1.744-2.441c-.797.57-1.363.541-1.77.393-.495-.18-1.004-.637-1.385-1.272-.397-.662-.489-1.235-.462-1.451.011-.087.013.08-.195.239-.227.173-.397.105-.259.132l.588-2.942Zm5.227 7.341c2.624-1.874 4.779-5.142 5.773-7.943.49-1.38.781-2.874.523-4.134-.135-.66-.441-1.344-1.039-1.86-.609-.524-1.366-.74-2.143-.74v3c.219 0 .23.053.184.013-.035-.03.018-.013.059.189.095.463.012 1.335-.411 2.529-.833 2.347-2.664 5.058-4.69 6.505l1.744 2.441Zm3.114-14.677c-.809 0-1.546.243-2.148.715-.586.46-.961 1.07-1.189 1.686-.445 1.2-.41 2.619-.114 3.85.294 1.227.911 2.527 1.91 3.39.515.445 1.16.795 1.92.907.769.115 1.545-.03 2.284-.4l-1.341-2.683c-.258.128-.415.129-.502.116-.097-.014-.231-.064-.4-.21-.371-.32-.751-.972-.954-1.82-.203-.846-.168-1.627.01-2.109.084-.225.176-.326.228-.367.036-.028.109-.075.296-.075v-3Zm2.663 10.148c2.247-1.123 5.735-4.12 7.994-7.073 1.117-1.46 2.098-3.119 2.345-4.683.129-.816.074-1.71-.377-2.531-.458-.834-1.218-1.4-2.135-1.744l-1.053 2.809c.411.154.523.314.558.379.042.076.102.251.044.619-.127.801-.724 1.966-1.765 3.329-2.059 2.692-5.214 5.342-6.952 6.212l1.341 2.683Zm7.827-16.031c-1.475-.553-3.129-.692-4.218.474-.993 1.064-.864 2.568-.574 3.584a7.477 7.477 0 0 0 1.905 3.178c.907.895 2.178 1.647 3.689 1.647v-3c-.482 0-1.038-.245-1.583-.783-.544-.536-.949-1.245-1.126-1.866-.208-.727.003-.842-.118-.713-.217.233-.21-.155.972.288l1.053-2.809Zm.802 8.883c.731 0 1.55-.19 2.346-.454.818-.27 1.709-.653 2.614-1.108 1.807-.908 3.753-2.154 5.386-3.522 1.586-1.33 3.066-2.93 3.673-4.589.316-.866.432-1.852.077-2.829-.356-.982-1.105-1.727-2.076-2.267l-1.457 2.623c.524.29.668.542.713.668.048.131.075.364-.075.775-.327.894-1.297 2.075-2.782 3.32-1.44 1.206-3.188 2.327-4.807 3.141a16.74 16.74 0 0 1-2.209.94c-.67.222-1.138.302-1.403.302v3Zm12.02-14.769c-1.594-.885-3.314-1.313-4.658-.393-1.315.9-1.44 2.525-1.294 3.643a7.467 7.467 0 0 0 1.529 3.574c.819 1.027 2.08 1.966 3.695 1.966v-3c-.378 0-.861-.223-1.349-.836a4.47 4.47 0 0 1-.9-2.092c-.103-.793.145-.87.013-.78-.161.11.113-.234 1.507.54l1.457-2.621Zm-.728 8.79c1.305 0 2.569-.429 3.637-.891 1.014-.44 2.17-1.064 2.903-1.414a8.142 8.142 0 0 1 1.022-.423c.133-.041.235-.064.308-.075.075-.011.104-.008.1-.008a.433.433 0 0 1-.246-.14c-.039-.047.036.014.095.368l2.96-.493c-.107-.642-.322-1.287-.759-1.806a2.578 2.578 0 0 0-1.737-.913c-.585-.061-1.149.058-1.614.203-.476.148-.961.36-1.419.579-1.011.481-1.806.936-2.805 1.369-.946.41-1.757.645-2.445.645v3Zm7.819-2.583c.362 2.169 1.094 4.597.353 7.71-.725 3.044-2.945 6.92-9.062 11.427l1.78 2.416c6.503-4.792 9.265-9.219 10.2-13.149.92-3.862-.008-7.08-.311-8.897l-2.96.493Zm-8.709 19.137c-6.255 4.609-11.807 8.482-16.291 11.887-4.496 3.413-8.119 6.501-10.573 9.656l2.368 1.841c2.197-2.823 5.548-5.713 10.019-9.108 4.484-3.404 9.891-7.17 16.257-11.86l-1.78-2.416Zm-26.864 21.543c-1.228 1.58-2.142 3.106-2.907 4.476-.788 1.413-1.355 2.536-1.988 3.524-.612.956-1.179 1.605-1.835 2.03-.631.408-1.457.682-2.713.682v3c1.732 0 3.148-.39 4.344-1.164 1.171-.759 2.015-1.812 2.731-2.931.696-1.088 1.375-2.414 2.081-3.679.73-1.308 1.56-2.687 2.655-4.097l-2.368-1.841Zm-9.443 10.712c-.832 0-1.817-.569-3.166-1.939-.643-.653-1.295-1.408-2-2.23-.694-.809-1.436-1.681-2.214-2.503-1.536-1.62-3.38-3.235-5.64-3.913-2.369-.71-4.945-.325-7.739 1.538l1.664 2.496c2.187-1.458 3.845-1.571 5.213-1.16 1.476.443 2.87 1.568 4.324 3.103.716.756 1.406 1.565 2.114 2.391.696.812 1.414 1.645 2.141 2.383 1.39 1.412 3.145 2.834 5.303 2.834v-3Zm-20.759-9.047c-5.067 3.378-16.438 12.746-27.362 21.85-11.002 9.168-21.563 18.078-25.163 20.696l1.765 2.426c3.706-2.695 14.401-11.72 25.318-20.818 10.996-9.163 22.209-18.393 27.106-21.658l-1.664-2.496Zm-52.525 42.546c-3.587 2.609-10.653 7.491-16.784 12.049-3.081 2.289-5.982 4.537-8.164 6.433-1.088.946-2.027 1.829-2.727 2.604a9.98 9.98 0 0 0-.906 1.141c-.231.35-.472.789-.57 1.276l2.942.588c-.014.072-.017.013.13-.209.133-.201.339-.463.631-.786.582-.644 1.418-1.437 2.468-2.349 2.094-1.82 4.921-4.014 7.985-6.291 6.157-4.575 13.04-9.324 16.76-12.03l-1.765-2.426Zm-29.151 23.503c-.217 1.085-.153 2.394.153 3.592.301 1.18.895 2.478 1.942 3.34 1.155.951 2.678 1.216 4.332.543 1.535-.625 3.144-2.032 4.868-4.274l-2.378-1.829c-1.597 2.076-2.81 2.994-3.621 3.324-.692.282-1.037.131-1.294-.08-.364-.3-.725-.912-.942-1.766-.214-.836-.233-1.686-.118-2.262l-2.942-.588Zm11.295 3.201c1.807-2.348 3.012-5.125 3.625-7.78.608-2.631.667-5.283.023-7.361-.324-1.048-.852-2.029-1.661-2.756-.835-.751-1.894-1.16-3.101-1.145-2.288.029-4.895 1.563-7.778 4.447l2.122 2.121c2.763-2.764 4.639-3.555 5.693-3.568.465-.006.791.136 1.059.376.293.264.585.715.801 1.412.436 1.409.453 3.49-.081 5.799-.528 2.286-1.565 4.657-3.08 6.626l2.378 1.829Zm-8.892-14.595c-2.865 2.866-6.848 7.395-11.544 12.733-4.713 5.357-10.179 11.569-16.057 17.861-11.787 12.617-25.103 25.416-37.173 32.266l1.481 2.609c12.506-7.097 26.091-20.203 37.884-32.828 5.913-6.329 11.407-12.572 16.117-17.926 4.728-5.374 8.633-9.813 11.414-12.594l-2.122-2.121ZM793.704 185.114a1.499 1.499 0 1 0-1.406 2.65l1.406-2.65Zm11.562 15.361-1.433.442 1.433-.442Zm-27.928 29.202.995 1.123-.995-1.123Zm-13.72 3.222.722-1.314-.722 1.314Zm-6.592 1.969-1.483.225 1.483-.225Zm3.83 51.955-1.268-.801 1.268.801Zm-22.357 8.613a1.5 1.5 0 1 0-.726 2.911l.726-2.911Zm53.799-107.672c5.98 3.173 10.051 8.344 11.535 13.153l2.867-.885c-1.737-5.626-6.371-11.402-12.996-14.918l-1.406 2.65Zm11.535 13.153c.947 3.069 1.571 5.827.975 8.405-.573 2.473-2.352 5.077-6.939 7.611l1.451 2.626c5.086-2.81 7.591-6.02 8.41-9.561.796-3.436-.081-6.89-1.03-9.966l-2.867.885Zm-5.964 16.016c-4.75 2.625-8.082 3.788-11.342 5.192-3.284 1.415-6.327 3.014-10.183 6.428l1.989 2.247c3.56-3.153 6.31-4.597 9.381-5.919 3.096-1.334 6.684-2.602 11.606-5.322l-1.451-2.626Zm-21.525 11.62c-2.149 1.903-4.208 5.833-4.749 9.832-.55 4.071.443 8.656 5.019 11.221l1.467-2.617c-3.121-1.75-3.966-4.852-3.513-8.202.463-3.421 2.248-6.645 3.765-7.987l-1.989-2.247Zm.27 21.053c.518.29.989.521 1.409.684.397.155.853.29 1.31.298.473.007 1.227-.135 1.686-.86.392-.618.304-1.275.23-1.609-.158-.713-.615-1.515-1.115-2.26-.534-.794-1.241-1.703-2.068-2.665-3.278-3.819-8.77-8.887-13.726-11.609l-1.444 2.629c4.534 2.491 9.755 7.278 12.894 10.934.778.906 1.406 1.717 1.853 2.384.481.716.65 1.116.677 1.237.018.083-.087-.248.165-.647.321-.506.816-.535.896-.534.065.001-.002.011-.271-.094a8.444 8.444 0 0 1-1.029-.505l-1.467 2.617Zm-12.274-18.021c-5.004-2.75-9.508-5.545-12.472-7.823-1.503-1.156-2.505-2.1-3-2.777-.257-.352-.263-.479-.256-.421a.713.713 0 0 1-.26.596l-1.778-2.416a2.3 2.3 0 0 0-.942 2.171c.083.704.446 1.337.815 1.841.758 1.037 2.044 2.193 3.593 3.384 3.14 2.414 7.797 5.295 12.856 8.074l1.444-2.629Zm-15.988-10.425c.374-.275.779-.438 1.165-.44.338-.002.852.117 1.511.778 1.43 1.436 3.23 5.13 4.515 13.595l2.966-.45c-1.295-8.526-3.192-13.089-5.356-15.262-1.139-1.144-2.396-1.667-3.651-1.661-1.208.006-2.218.501-2.928 1.024l1.778 2.416Zm7.191 13.933c1.285 8.47 2.956 20.288 3.948 30.547.496 5.134.818 9.844.841 13.537.011 1.849-.053 3.408-.199 4.622-.154 1.276-.378 1.958-.545 2.223l2.537 1.601c.551-.873.826-2.138.986-3.465.168-1.389.233-3.088.221-4.999-.024-3.826-.356-8.64-.855-13.807-.999-10.341-2.68-22.224-3.968-30.709l-2.966.45Zm4.045 50.929c-1.621 2.569-5.472 4.89-9.444 6.065-1.952.577-3.801.835-5.262.745-1.523-.093-2.277-.532-2.568-.954l-2.469 1.704c1.078 1.563 3.006 2.132 4.854 2.245 1.91.117 4.122-.221 6.296-.864 4.282-1.266 8.949-3.883 11.13-7.34l-2.537-1.601Zm-17.274 5.856c-.485-.703-.614-1.356-.534-1.983.084-.66.417-1.405 1.053-2.201 1.286-1.609 3.591-3.146 6.306-4.199l-1.085-2.797c-3.017 1.17-5.84 2.965-7.565 5.123-.869 1.089-1.512 2.337-1.685 3.695-.177 1.393.156 2.783 1.041 4.066l2.469-1.704Zm6.825-8.383c2.628-1.019 6.563-1.524 9.71-1.093 1.579.216 2.789.646 3.535 1.21.662.502.964 1.095.871 1.963l2.983.318c.216-2.021-.631-3.604-2.043-4.673-1.33-1.006-3.121-1.541-4.94-1.79-3.649-.5-8.097.065-11.201 1.268l1.085 2.797Zm14.116 2.08c-.101.947-.791 2.257-2.246 3.713-1.419 1.42-3.422 2.833-5.814 3.999-4.797 2.341-10.931 3.585-16.696 2.149l-.726 2.911c6.616 1.648 13.479.202 18.738-2.363 2.636-1.287 4.927-2.881 6.62-4.576 1.659-1.66 2.901-3.575 3.107-5.515l-2.983-.318ZM674.466 258.417a1.5 1.5 0 1 0-.655 2.928l.655-2.928Zm9.461-2.418 1.336-.681-.7-1.373-1.353.736.717 1.318Zm15.756 30.905 1.484-.216-.036-.245-.112-.22-1.336.681Zm-7.85 11.957-.198 1.487.198-1.487Zm14.231-9.838a1.5 1.5 0 1 0 1.218-2.741l-1.218 2.741Zm-32.253-27.678c1.507.337 2.771.405 3.89.222 1.137-.187 2.031-.618 2.808-1.144.726-.49 1.419-1.118 2.017-1.619.634-.531 1.29-1.038 2.117-1.487l-1.433-2.636c-1.081.588-1.913 1.239-2.61 1.823-.734.615-1.215 1.059-1.77 1.434-.503.34-.996.567-1.615.668-.637.105-1.499.091-2.749-.189l-.655 2.928Zm8.779-4.665 15.756 30.906 2.673-1.363-15.756-30.905-2.673 1.362Zm15.608 30.441c.302 2.072.27 5.016-.65 7.235-.449 1.084-1.075 1.911-1.897 2.429-.804.507-1.946.812-3.62.589l-.396 2.974c2.239.298 4.115-.079 5.616-1.025 1.485-.936 2.453-2.334 3.068-3.818 1.21-2.915 1.19-6.469.848-8.817l-2.969.433Zm-6.167 10.253c-.998-.133-1.644-.449-2.049-.798a2.214 2.214 0 0 1-.741-1.301c-.21-1.095.205-2.682 1.481-4.221 2.464-2.971 7.882-5.343 15.342-2.031l1.218-2.741c-8.587-3.813-15.479-1.232-18.869 2.857-1.651 1.991-2.549 4.461-2.118 6.703a5.209 5.209 0 0 0 1.731 3.009c.935.804 2.161 1.304 3.609 1.497l.396-2.974Z" fill="#131441"/></svg>