<svg width="586" height="423" fill="none" xmlns="http://www.w3.org/2000/svg"><path d="M685 833.155H531.026c-21.468 0-126.584-5.183-102.156-22.212 24.429-17.028 59.961-53.307 34.052-49.605-25.909 3.702-57 15.548-36.273-14.068 20.728-29.615 42.195-50.345 28.13-99.211-14.065-48.865-20.727-65.894-32.571-66.634-11.844-.74-10.364-7.404-5.182-22.211 5.182-14.808 17.026-34.798-16.286-19.25-33.311 15.548-75.506 33.317-51.078 0 24.429-33.318 54.78-76.26 18.507-41.462-36.273 34.798-71.065 53.308-96.974 55.529-25.909 2.221-50.338.74-42.195-22.952s16.286-91.807 14.065-132.528c-2.221-40.721-.74-99.952-16.286-130.308-15.545-30.355-31.831-25.172-46.636-25.913-14.805-.74-68.844-2.961-100.675-11.846-31.832-8.885-37.754-5.923-33.312-27.394 4.441-21.471 25.909-66.634 40.714-88.846 14.805-22.211 36.273-51.086 39.974-57.01 2.961-4.738 2.714-13.326 2.221-17.028 26.403 2.962 80.54 8.588 85.87 7.404 6.662-1.48 15.546-6.664 14.805-14.808-.74-8.144 6.663-4.442 13.325-3.702 6.662.74 26.649 10.366 13.325 28.135-13.325 17.769-26.65 3.702-34.052 0-5.922-2.962-10.857-5.183-12.585-5.923 6.663-5.183 17.618-16.88 8.143-22.212-11.844-6.663-20.727-16.288-25.169-10.365-4.441 5.923-8.143 28.875-2.221 21.471 5.923-7.404 19.988-32.577-20.727-38.5C129.065-4.218 143.87 29.1 146.831 29.1c2.961 0 19.987-20.73 14.065-22.212-5.922-1.48-12.584 25.914-7.403 25.914 5.182 0 23.689-19.99 19.988-21.471-3.702-1.481-21.468 23.692-7.403 24.432 14.065.74-31.831-24.432-48.117-26.654-16.286-2.22-8.883 19.991-4.442 19.991 4.442 0 19.247 6.663 33.312 8.884 11.252 1.778 26.896 3.702 33.312 4.443 2.961-10.86 11.252-31.69 20.727-28.135 11.844 4.443 11.104 31.837-8.143 39.98-19.246 8.145-28.87 4.443-34.052 18.51-5.181 14.068-17.026 68.115-24.428 80.702-5.922 10.069-16.286 29.368-20.728 37.759-.74-3.948-4.293-11.105-12.584-8.144-10.364 3.702-8.143-1.481 12.584-8.884 20.728-7.404 46.637-4.443 62.923-2.222 16.285 2.222 92.532 2.962 55.519-3.702-29.61-5.33-53.792-4.195-62.182-2.961-4.688 5.43-14.953 20.584-18.506 37.76-4.442 21.47-11.104 39.98-4.442 44.422 6.662 4.443 27.39 11.106 40.714 10.366 13.325-.741 34.052 5.924 39.234-15.548 5.182-21.471 8.883-44.423 16.286-56.269 7.403-11.846 14.065-10.366 33.312-8.145 19.246 2.222 37.013 5.183 45.155 5.183 8.143 0 15.546 2.962 19.247 0 3.702-2.961-19.247 4.442-19.247 8.144s.741 26.654 19.247 26.654c18.507 0 51.078-13.327 54.039-26.654 2.961-13.327-6.662-26.653-2.221-37.759 4.442-11.106 32.572-32.577 25.169-59.971-7.402-27.394-17.026-37.02-33.311-48.865-16.286-11.846-17.026-19.25-30.351-19.25s-31.091.741-8.143-6.663 56.26-3.702 67.364 6.663c11.104 10.365 17.766 17.77 18.506 25.914.74 8.143 0 10.365 3.701 11.845 3.702 1.481 15.546 9.625 9.624 30.356-5.922 20.731-5.922 31.836-23.689 42.942-17.766 11.106-33.311 15.548-34.051 20.731-.741 5.182 10.363 21.471 10.363 14.807 0-5.33-10.857-20.977-16.286-28.134 8.884-2.715 25.613-11.106 21.468-22.952-4.145-11.846-14.065.494-18.506 8.144 5.428-6.416 14.657-22.507 8.142-35.538-8.142-16.288 18.507-17.77 10.364-22.952-8.143-5.183-30.351-3.7-37.753-19.25-7.403-15.548-5.922-22.952-19.247-13.327-13.325 9.626-37.013 22.212-47.377 45.904-10.363 23.692-19.246 65.894-5.922 69.596 13.325 3.702 32.572-.741 34.793 3.702 2.22 4.442 11.844 19.99 7.402 28.875-4.441 8.884-24.428 24.432-13.325 31.836 11.104 7.404 22.949 8.885 41.455 0 18.506-8.885 32.571-37.019 39.974-31.836 7.403 5.182 20.727 12.587 26.649 17.029 5.922 4.442 18.507 23.693-11.844 39.24-30.35 15.548 17.766-33.318 27.39-24.433 9.623 8.885 58.48 60.711 65.883 71.077 7.403 10.365 25.169 29.615 10.364 39.24-14.806 9.625-39.974 19.25-39.234 25.173.74 5.923 13.324 5.182 14.065 14.807.74 9.625 3.701 30.356 28.13 63.673 24.428 33.317 55.519 90.327 51.078 121.423-4.442 31.096-17.026 39.24-17.767 47.384-.74 8.144 5.182 14.067 17.767 9.625 12.584-4.442 19.987-9.625 13.324-11.846-6.662-2.221-14.805 26.654-2.961 32.577 11.844 5.923 49.598 15.548 42.195-24.433-7.403-39.98-20.727-122.903-35.532-165.105-14.806-42.202-32.572-83.663-44.416-98.471-11.844-14.807-14.065-20.73-14.805-16.288-.741 4.442 2.961 6.664-5.922 13.327s-52.559 34.057-63.663 31.096c-11.104-2.962-35.532-34.798-36.272-44.423-.741-9.625 2.22-20.731 7.402-18.509 5.182 2.221 0 48.124 0 67.374 0 19.25-1.48 54.048 2.961 86.625 4.442 32.577 57 127.345-15.545 148.076-72.546 20.731-148.052 8.144-160.637 10.365-12.584 2.222-45.896 8.885-35.532 22.212 10.364 13.327 60.701 43.682 45.156 67.375-15.546 23.692-54.039 54.788-69.585 62.932-15.545 8.144-19.987 19.25 0 25.173 19.987 5.923 30.351 22.952 27.39 31.836-2.961 8.885-1.481-35.538-8.883-39.24-7.403-3.702-28.87-8.884-23.688-4.442 5.181 4.442 30.35 14.807 50.337-5.183 19.987-19.989 54.779-64.413 61.442-71.076 6.662-6.664 31.831-20.731 13.324-22.952-18.506-2.221-74.026-19.991-37.013-14.808s38.494 10.365 15.546-11.846-25.169-28.873 0-12.586c25.169 16.288 49.597 40.721 49.597 24.432 0-16.288-11.844-28.134-13.324-18.509-1.481 9.625 25.169 95.509 31.831 114.018 6.662 18.51 22.208 77 41.454 77 19.247 0 94.013-6.663 91.052-22.211-2.961-15.548-11.844-33.318-18.506-69.596-6.663-36.279-15.546-102.913-15.546-117.721 0-11.846-2.467-40.967-3.701-54.047-5.428 17.029-39.234 46.643-131.026 28.874-114.74-22.211-101.415-56.267-93.273-51.085 8.143 5.181-10.363 45.162-18.506 58.489-8.143 13.327-94.753 140.672-99.195 168.807-4.441 28.134-5.922 46.645 14.065 46.645s-59.961-5.182-133.987 0" stroke="#fff" stroke-width="2"/></svg>