<svg width="426" height="265" fill="none" xmlns="http://www.w3.org/2000/svg"><path d="M319.499 34.944c3.88 4.78 10.087 16.82 3.88 26.742-7.76 12.403-27.545 10.465-33.364 16.666-5.82 6.201-8.923 14.728-.776 18.991 8.147 4.264-3.88-13.953-12.027-18.216-8.147-4.263-17.07-12.402-13.19-15.115 3.879-2.713 5.043 2.325 3.879 18.603-1.164 16.279-.776 46.509-3.491 49.997-2.716 3.489-5.82 8.139-13.967 8.139s-8.535-7.363-1.939-10.076c6.595-2.713 16.294-4.651 19.785-2.326 3.492 2.326-.388 20.154-23.277 15.891-22.889-4.264-12.027-33.719-10.475-39.145 1.552-5.426 7.759-28.68-11.638-37.595-19.398-8.914-27.545 1.55-23.666 6.201 3.88 4.651 16.294 5.426 18.234-11.627 1.552-13.643-.388-38.757-1.552-49.61L172.077 2v44.959c.388 6.46-1.63 19.223-12.803 18.603-13.966-.775-5.431-19.379 5.432-13.177 10.862 6.2 7.371 18.603 4.267 23.254-3.103 4.65-8.535 15.503-22.113 14.34-13.578-1.162-17.846 1.55-15.518 10.465 2.327 8.914 11.25 25.192 8.923 35.269-2.328 10.077-15.13 31.394-40.735 30.231-25.605-1.163-32.2-26.355-13.19-30.231 19.009-3.876 26.38 20.541 13.19 31.781-13.19 11.24-29.873 6.976-34.528-6.201-4.656-13.178-1.164-27.13 18.621-49.222C103.41 89.979 103.797 65.95 95.65 63.237c-8.147-2.713-17.846 13.952-10.475 56.585 7.371 42.634 11.25 53.098 12.027 59.687.776 6.589 1.164 17.053-5.432 22.867-6.595 5.813-19.397 3.875-19.785-4.651-.388-8.527 14.354-13.178 15.518-4.263 1.164 8.914-8.147 17.44-20.562 7.751-12.414-9.689-21.725-17.053-35.691-3.488-13.967 13.565-6.207 9.689-17.846 13.177-11.639 3.489-18.622 18.604-4.656 26.743 13.967 8.139 38.796 10.852 64.789 1.938 25.993-8.914 41.511-21.704 49.27-32.169 7.759-10.464 16.294-19.379 29.096-16.665 12.803 2.713 9.699 12.014 10.863 15.502 1.164 3.489 2.716 8.14 14.742 3.489 12.027-4.651 14.354 1.55 19.786 8.914 5.431 7.364 13.578 30.231 43.062 15.115 29.485-15.115 39.96-22.091 64.401-13.952 24.441 8.139 57.029 8.526 72.935 6.588 15.906-1.938 40.347-10.077 45.002-24.417 4.656-14.34 3.492-23.642-15.13-24.417-18.621-.775-38.019 11.24-51.985 32.556-11.173 17.053-19.915 43.021-22.89 53.873" stroke="#131441" stroke-width="2"/></svg>