<svg width="594" height="814" fill="none" xmlns="http://www.w3.org/2000/svg"><path d="M340.229 412.911a1.5 1.5 0 0 0-2.7 1.309l2.7-1.309Zm1.884 37.777-1.418-.489 1.418.489Zm-79.522 14.176.14 1.494-.14-1.494Zm-25.944-10.986-1.359.635 1.359-.635Zm-12.962-4.6 1.33.693-1.33-.693Zm-55.114 88.363.551 1.395-.551-1.395Zm-47.393-11.518a1.499 1.499 0 1 0-2.303 1.921l2.303-1.921ZM337.529 414.22c6.067 12.506 6.584 26.063 3.166 35.979l2.837.978c3.696-10.724 3.082-25.104-3.303-38.266l-2.7 1.309Zm3.166 35.979c-2.093 6.073-4.444 11.616-8.781 15.36-4.255 3.673-10.67 5.807-21.345 4.45l-.378 2.976c11.24 1.429 18.598-.765 23.684-5.155 5.004-4.319 7.561-10.574 9.657-16.653l-2.837-.978Zm-30.126 19.81c-10.86-1.382-17.744-3.468-24.574-5.029-6.856-1.566-13.488-2.552-23.544-1.609l.28 2.987c9.662-.906 15.966.032 22.596 1.547 6.656 1.521 13.809 3.674 24.864 5.08l.378-2.976Zm-48.118-6.638c-5.293.496-12.934 4.204-18.322 9.81-5.439 5.658-8.869 13.587-4.856 22.368l2.729-1.248c-3.32-7.263-.646-13.907 4.289-19.041 4.985-5.185 11.988-8.485 16.44-8.902l-.28-2.987Zm-23.178 32.178c.476 1.04.93 1.901 1.365 2.582.422.66.884 1.244 1.405 1.638.533.402 1.364.763 2.284.402.801-.315 1.22-1.023 1.443-1.532.465-1.06.671-2.646.742-4.421.074-1.835.007-4.073-.188-6.564-.777-9.923-3.634-24.389-8.318-34.411l-2.718 1.27c4.48 9.586 7.285 23.666 8.045 33.375.189 2.417.249 4.53.182 6.21-.07 1.74-.272 2.833-.493 3.337-.119.274-.112.069.206-.056.437-.172.716.066.624-.004-.104-.078-.339-.316-.686-.859-.335-.524-.723-1.25-1.164-2.215l-2.729 1.248Zm-1.267-42.306c-4.845-10.369-8.853-20.274-10.979-27.554-1.07-3.666-1.625-6.541-1.626-8.44 0-.966.146-1.488.277-1.719.062-.109.06-.106.179-.106l-.01-3c-1.227.004-2.204.609-2.781 1.631-.509.9-.665 2.039-.665 3.195.001 2.345.66 5.559 1.746 9.28 2.189 7.494 6.27 17.557 11.141 27.983l2.718-1.27Zm-12.149-37.819c1.136-.004 2.324.255 3.281.948.919.665 1.789 1.846 2.123 4.025.692 4.519-.978 12.982-8.906 28.187l2.66 1.387c7.957-15.259 10.061-24.481 9.211-30.028-.437-2.853-1.668-4.799-3.329-6.002-1.623-1.174-3.496-1.522-5.05-1.517l.01 3Zm-3.502 33.16c-7.921 15.192-19.183 36.265-29.708 54.025-5.264 8.884-10.328 16.911-14.687 22.952-2.181 3.022-4.165 5.519-5.894 7.369-1.771 1.897-3.13 2.953-4.047 3.316l1.103 2.79c1.585-.627 3.331-2.125 5.137-4.058 1.849-1.98 3.916-4.589 6.133-7.662 4.437-6.148 9.554-14.265 14.836-23.177 10.567-17.832 21.859-38.962 29.787-54.168l-2.66-1.387Zm-54.336 87.662c-6.133 2.425-15.504 1.507-23.451-1.338-3.94-1.411-7.398-3.251-9.823-5.262-2.473-2.051-3.607-4.047-3.56-5.764l-2.999-.082c-.085 3.103 1.92 5.896 4.644 8.155 2.772 2.299 6.569 4.289 10.727 5.777 8.252 2.955 18.455 4.116 25.565 1.304l-1.103-2.79Zm-36.834-12.364c.056-2.058.755-3.623 1.888-4.819 1.156-1.222 2.846-2.143 4.991-2.727 4.313-1.172 10.13-.883 15.91.663l.775-2.898c-6.093-1.63-12.481-2.016-17.472-.66-2.507.682-4.743 1.826-6.383 3.559-1.664 1.758-2.632 4.037-2.708 6.8l2.999.082Zm22.789-6.883c5.69 1.522 12.86 5.476 17.613 10.06 2.38 2.296 4.03 4.631 4.672 6.772.613 2.041.327 3.914-1.235 5.634l2.221 2.017c2.341-2.578 2.77-5.572 1.888-8.513-.853-2.842-2.909-5.606-5.464-8.069-5.117-4.936-12.737-9.146-18.92-10.799l-.775 2.898Zm21.05 22.466c-1.616 1.779-4.676 3.159-8.884 3.814-4.158.648-9.226.553-14.596-.409-10.756-1.929-22.477-7.291-30.366-16.747l-2.303 1.921c8.45 10.13 20.879 15.76 32.14 17.779 5.638 1.01 11.046 1.128 15.587.42 4.492-.699 8.355-2.243 10.643-4.761l-2.221-2.017ZM80.338 388.108a1.5 1.5 0 0 0-1.285 2.711l1.285-2.711Zm14.747-1.05 1.453-.369-.38-1.493-1.481.419.407 1.443Zm12.641 49.731 1.496.116.019-.246-.061-.24-1.454.37Zm-15.228 14.687-.521 1.406.521-1.406Zm24.172-10.123a1.5 1.5 0 1 0 1.793-2.406l-1.793 2.406Zm-37.617-50.534c2.008.952 3.718 1.429 5.275 1.522 1.576.095 2.902-.209 4.121-.685 1.161-.452 2.307-1.1 3.37-1.647 1.106-.568 2.267-1.11 3.674-1.507l-.816-2.887c-1.685.476-3.05 1.12-4.229 1.726-1.221.628-2.12 1.143-3.088 1.52-.911.355-1.8.549-2.852.486-1.07-.064-2.4-.4-4.17-1.239l-1.285 2.711Zm14.578-3.391 12.642 49.73 2.907-.739-12.642-49.73-2.907.739Zm12.6 49.244c-.246 3.154-1.274 7.537-3.43 10.585-1.062 1.501-2.345 2.606-3.877 3.148-1.512.534-3.434.58-5.905-.336l-1.042 2.813c3.004 1.114 5.659 1.16 7.948.351 2.27-.803 4.013-2.389 5.325-4.243 2.592-3.664 3.704-8.653 3.972-12.085l-2.991-.233Zm-13.212 13.397c-1.498-.555-2.452-1.296-3.023-2.066-.564-.761-.815-1.63-.784-2.57.063-1.929 1.339-4.263 3.794-6.153 4.8-3.694 13.747-5.318 23.664 2.073l1.793-2.406c-10.906-8.127-21.337-6.624-27.287-2.044-2.92 2.248-4.862 5.338-4.963 8.433-.05 1.571.38 3.114 1.374 4.454.986 1.331 2.466 2.38 4.39 3.092l1.042-2.813Z" fill="#131441"/><path d="M120.478 643.741c-.323-1.94-1.552-6.4-3.881-8.728-2.91-2.909-7.277-5.818-7.277-9.697 0-3.879 2.911-4.849 2.911-8.243s-2.426-14.545 6.307-13.576c8.732.97 15.524 8.728 22.801 24.728 7.277 16.001 8.248 24.728 3.396 29.577-4.851 4.848-6.307 4.848-8.247 4.848-1.941 0-16.01-3.394-10.188.97 5.822 4.364 15.524 4.848 12.613-5.818-2.91-10.667-14.553-33.94-18.435-40.244-3.881-6.303-11.158-11.636-14.069 3.394-2.91 15.031 10.188 22.789 12.129 32.001 1.94 9.212-2.426 10.182-10.188 1.94-7.762-8.243-9.218-13.577-9.703-16.001-.485-2.424-1.455-14.061 9.703.97s5.336 22.303-1.455 17.94c-6.792-4.364-12.614-13.092-11.159-22.304 1.456-9.212 6.792-12.606 5.337-16s-1.94-5.334-10.188-5.818c-8.247-.485-18.92-.485-23.286-8.728-4.367-8.242 0-14.546 3.88-15.03 3.882-.485 7.278-1.94 9.703 6.303 2.426 8.242-18.435 6.788-26.197 2.424-7.762-4.364-45.117-40.243-51.91-16.97-6.791 23.273 19.891 55.274 43.178 78.547 23.286 23.273 15.039 41.698 12.613 55.759-2.425 14.061-17.95 65.456 39.781 85.335 57.731 19.879 107.7 10.182 135.838-14.061 28.138-24.243 42.692-115.881 122.739-55.274s179.985 42.668 199.391-4.364c19.405-47.031 5.821-90.184-53.85-110.063-59.672-19.879-94.116-3.394-110.611 0-16.494 3.395-44.147 3.879-42.692-22.788 1.456-26.667 50.939-21.333 64.523-48.001 13.584-26.667 18.435-69.819 4.852-130.911-13.584-61.093-28.623-160.488 27.652-170.67 56.276-10.182 107.215 54.788 104.304 136.73-2.911 81.941-55.791 70.304-48.028-40.729 7.762-111.032 52.394-156.609 39.296-230.307-13.099-73.699-52.88-98.426-74.226-106.184-21.346-7.758-68.404 0 2.911 39.273C542.061 83.245 521.2 46.881 593 68.7" stroke="#131441" stroke-width="3"/></svg>