<svg width="40" height="32" fill="none" xmlns="http://www.w3.org/2000/svg"><path d="M34.02 20.332c-.186-1.282-1.18-2.282-2.462-2.58-4.979-1.162-6.227-4.016-6.438-7.181-.883-.163-2.453-.34-5.12-.34-2.666 0-4.237.177-5.12.34-.21 3.165-1.459 6.02-6.438 7.18-1.28.3-2.276 1.299-2.461 2.581l-.96 6.62c-.339 2.33 1.38 4.432 3.773 4.432h22.413c2.39 0 4.111-2.102 3.773-4.432l-.96-6.62ZM20 26.563c-2.695 0-4.88-2.155-4.88-4.808 0-2.654 2.185-4.808 4.88-4.808 2.696 0 4.88 2.154 4.88 4.808 0 2.653-2.186 4.807-4.88 4.807ZM39.225 8.307C39.18 5.423 31.802.618 20 .615 8.197.617.82 5.423.775 8.308c-.044 2.884.041 6.638 4.898 6.013 5.683-.733 5.333-2.708 5.333-5.53 0-1.97 4.622-2.445 8.994-2.445 4.373 0 8.993.475 8.994 2.444 0 2.823-.35 4.798 5.333 5.531 4.856.625 4.943-3.129 4.898-6.013Z" fill="#131441"/></svg>