<svg width="44" height="44" fill="none" xmlns="http://www.w3.org/2000/svg"><path d="m.009 44 2.974-10.93A21.899 21.899 0 0 1 0 22C0 9.85 9.85 0 22 0s22 9.85 22 22-9.85 22-22 22a21.9 21.9 0 0 1-11.066-2.981L.009 44ZM14.06 11.678a2.114 2.114 0 0 0-.816.22 2.845 2.845 0 0 0-.647.501c-.264.249-.413.464-.574.673a6.004 6.004 0 0 0-1.243 3.692c.004 1.078.286 2.127.726 3.109.9 1.984 2.38 4.085 4.336 6.032.471.469.93.94 1.426 1.377a20.786 20.786 0 0 0 8.448 4.501l1.252.192c.407.022.814-.009 1.223-.029a4.379 4.379 0 0 0 1.832-.508c.288-.148.57-.31.843-.484 0 0 .095-.062.275-.198.297-.22.48-.376.726-.634.183-.189.341-.411.462-.664.172-.359.343-1.043.414-1.613.052-.435.037-.673.03-.82-.008-.236-.204-.48-.418-.583l-1.28-.574s-1.914-.834-3.082-1.367a1.095 1.095 0 0 0-.39-.09 1.06 1.06 0 0 0-.831.28v-.005c-.011 0-.159.126-1.75 2.053a.77.77 0 0 1-.809.286 3.118 3.118 0 0 1-.42-.145c-.273-.115-.367-.159-.554-.24l-.011-.005a13.224 13.224 0 0 1-3.454-2.2c-.278-.242-.535-.506-.799-.76a13.855 13.855 0 0 1-2.244-2.79l-.13-.21a2.033 2.033 0 0 1-.224-.45c-.084-.324.134-.583.134-.583s.535-.586.783-.902c.207-.264.4-.538.579-.821.26-.418.34-.847.204-1.18a183.167 183.167 0 0 0-1.91-4.49c-.129-.294-.514-.505-.864-.547a9.765 9.765 0 0 0-.356-.035 7.45 7.45 0 0 0-.887.008v.003Z" fill="#131441"/></svg>