<svg width="44" height="44" fill="none" xmlns="http://www.w3.org/2000/svg"><path d="M22 0C9.85 0 0 9.85 0 22s9.85 22 22 22 22-9.85 22-22S34.15 0 22 0Zm8.46 24.821s1.947 1.92 2.425 2.812c.014.018.021.037.026.046.194.328.24.582.144.772-.16.316-.71.472-.898.486h-3.438c-.238 0-.738-.062-1.343-.48-.465-.325-.923-.858-1.37-1.379-.667-.774-1.244-1.443-1.827-1.443a.7.7 0 0 0-.217.034c-.44.142-1.004.77-1.004 2.443 0 .522-.413.823-.704.823H20.68c-.536 0-3.33-.188-5.805-2.798-3.03-3.197-5.756-9.61-5.78-9.67-.171-.414.184-.636.571-.636h3.472c.463 0 .614.282.72.532.123.29.577 1.448 1.322 2.75 1.208 2.122 1.948 2.983 2.541 2.983a.687.687 0 0 0 .319-.082c.775-.431.63-3.192.596-3.765 0-.108-.002-1.236-.399-1.776-.284-.392-.768-.541-1.061-.596a1.26 1.26 0 0 1 .456-.388c.532-.266 1.49-.304 2.44-.304h.53c1.031.013 1.297.08 1.67.174.757.18.773.669.707 2.34a36.49 36.49 0 0 0-.042 1.643c0 .137-.007.284-.007.44-.023.85-.05 1.815.55 2.211.079.05.17.075.262.076.208 0 .836 0 2.537-2.918a22.26 22.26 0 0 0 1.363-2.92c.035-.059.135-.242.255-.313a.61.61 0 0 1 .284-.066h4.081c.445 0 .75.066.807.238.1.273-.019 1.104-1.882 3.628l-.832 1.097c-1.689 2.214-1.689 2.326.106 4.006Z" fill="#131441"/></svg>