<svg width="480" height="452" fill="none" xmlns="http://www.w3.org/2000/svg"><path fill-rule="evenodd" clip-rule="evenodd" d="M161.985.77c0 .668-.398 2.088-.885 3.156-.829 1.82-1.107 1.914-4.408 1.476-1.937-.258-4.833-.115-6.436.317-4.592 1.237-5.342 4.187-1.974 7.763 1.863 1.978 7.212 15.241 10.435 25.876 1.395 4.6 2.535 8.686 2.535 9.082 0 .402-.809.518-1.828.262-2.494-.626-6.269 1.084-8.657 3.924-2.63 3.126-2.695 7.154-.164 10.163 3.803 4.52 9.403 4.868 13.271.823 2.068-2.163 2.142-2.485 2.066-8.977-.11-9.287-3.936-23.436-10.845-40.112-.335-.808.566-1.515 3.401-2.664l3.856-1.564.624-4.562c.427-3.122.369-4.815-.183-5.367-.588-.588-.808-.478-.808.405Zm28.198 5.421c-1.419 13.247 2.505 39.767 8.861 59.89.995 3.156 1.811 5.803 1.812 5.883 0 .08-1.568.05-3.484-.069-4.181-.257-7.587 1.57-9.376 5.029-1.856 3.59-.925 5.618 3.534 7.694 4.586 2.137 6.493 2.243 8.111.455 1.771-1.957 1.521-2.949-1.426-5.647-2.476-2.27-2.552-2.465-1.218-3.18 2.094-1.12 4.503-.2 5.74 2.192 1.062 2.056 2.765 2.756 3.562 1.466.218-.353-1.061-5.552-2.843-11.554-7.949-26.786-10.588-39.872-11.196-55.5-.231-5.964-.676-11.002-.988-11.195-.311-.192-.802 1.849-1.089 4.536Zm-126.328 6.35c-1.29 1.33-2.344 2.77-2.344 3.198 0 1.847-6.053 7.58-8.778 8.315-3.607.971-5.495.223-9.068-3.593-4.97-5.306-12.016-3.861-15.907 3.263-2.54 4.651-1.778 9.418 3.201 20.034 2.206 4.7 4.204 9.42 4.442 10.49.423 1.899.326 1.959-3.964 2.457-2.419.28-4.61.853-4.868 1.271-1.092 1.767-.423 8.567 1.166 11.851 2.045 4.225 3.637 4.36 7.372.623 2.088-2.09 2.963-3.739 3.596-6.79 1.2-5.789.087-10.536-4.879-20.81-3.754-7.766-4.215-9.223-4.215-13.311 0-5.157 1.18-7.14 5.281-8.876 3.158-1.337 5.305-.423 7.774 3.309 2.249 3.4 6.64 5.96 10.2 5.95 1.328-.005 4.178-.83 6.336-1.835 2.158-1.004 4.527-1.826 5.265-1.826 1.759 0 3.646-1.935 3.646-3.737 0-.786.835-2.692 1.855-4.233 1.926-2.912 1.873-4.418-.246-6.886-1.623-1.89-3.236-1.577-5.865 1.136Zm392.123 5.1c-.977.908-3.021 3.878-4.543 6.602-1.522 2.724-2.972 4.952-3.222 4.952-.251 0-.978-.448-1.615-.996-2.966-2.554-13.259-3.817-13.259-1.628 0 1.614 3.356 5.227 6.985 7.52 1.804 1.14 3.281 2.284 3.281 2.542.001.258-.624 1.242-1.388 2.186l-1.39 1.716-3.194-1.586c-6.437-3.197-14.928-4.155-14.928-1.685 0 1.611 6.221 4.43 10.824 4.906 3.859.398 3.974.474 3.549 2.341-.241 1.062-2.051 4.505-4.022 7.652-2.749 4.387-3.861 5.601-4.767 5.207-1.879-.816-9.796-2.467-11.911-2.484-1.06-.01-2.332.472-2.827 1.07-2.241 2.7 5.168 9.184 10.496 9.184 1.876 0 2.066.196 1.6 1.651-.291.908-.7 3.93-.908 6.715-.301 4.031-.904 5.977-2.958 9.537-3.518 6.1-19.545 29.944-29.14 43.352-19.735 27.575-42.257 63.56-59.796 95.538l-1.704 3.106-4.089-3.891c-9.238-8.794-21.105-12.568-33.44-10.635-13.124 2.056-26.102 13.634-30.287 27.019-.441 1.413-1.311 6.199-1.933 10.637-1.628 11.616-2.393 13.917-5.933 17.856-4.229 4.704-8.136 6.653-22.335 11.136-18.661 5.893-25.34 9.339-33.965 17.524-14.531 13.79-22.506 33.575-22.506 55.835 0 18.36 5.426 34.76 16.701 50.48 16.66 23.229 43.147 40.804 73.414 48.712 7.441 1.944 9.832 2.235 18.793 2.285 11.751.066 16.178-.859 25.669-5.362 7.256-3.443 11.75-6.664 18.21-13.051 18.355-18.15 26.047-47.236 22.2-83.94-.922-8.792-1.021-12.329-.42-15.038 1.34-6.048 5.372-10.903 15.473-18.63 7.188-5.499 14.576-13.623 14.576-16.029 0-1.321-2.764-4.613-10.482-12.481-13.635-13.903-17.605-19.956-19.681-30.009-1.063-5.149-.125-12.276 2.435-18.507 3.312-8.06 17.806-32.918 41.81-71.708 12.017-19.417 28.554-46.53 41.179-67.51 5.169-8.59 6.005-9.638 6.814-8.532 2.904 3.973 10.769-3.941 14.456-14.549.412-1.184.719-1.081 2.852.957 3.15 3.012 8.385 6.106 9.335 5.518 1.218-.752.87-4.614-.691-7.675-1.588-3.114-3.907-5.214-7.315-6.626-3.917-1.623-1.72-2.034 2.854-.534 3.585 1.175 4.628 1.275 5.527.528.98-.813.917-1.261-.533-3.84-.902-1.607-2.902-4.062-4.443-5.454l-2.802-2.532 1.234-3.233 1.233-3.231 2.975 1.518c3.42 1.745 8.694 1.56 10.627-.374 1.056-1.056 1.043-1.287-.156-2.612-.723-.799-3.094-2.19-5.268-3.092-2.174-.902-3.953-1.879-3.953-2.171 0-.486 2.035-3.085 7.986-10.202 3.003-3.59 3.599-7.862 1.474-10.563-1.586-2.017-1.726-2.048-6.935-1.56-5.98.56-8.734-.355-10.868-3.611-1.508-2.304-2.657-2.355-4.955-.221Zm7.373 5.4c1.865.93 3.51 1.074 7.758.675 5.262-.492 5.422-.459 6.658 1.43 1.12 1.71 1.148 2.175.239 4.007-1.517 3.053-12.729 14.714-14.148 14.714-.951 0-2.65-2.565-2.65-4.001 0-.131 1.158-.455 2.575-.72 2.379-.448 2.509-.606 1.723-2.1-1.731-3.288-4.625-3.678-5.936-.798-.815 1.789-1.116 1.889-4.484 1.49-1.986-.236-3.738-.556-3.894-.711-.223-.223 9.332-15.168 9.697-15.168.052 0 1.159.532 2.462 1.181Zm-103.344 4.478c-4.854 6.173-26.021 22.596-41.488 32.192-5.789 3.591-10.54 6.933-10.558 7.425-.047 1.336-9.878 7.722-16.67 10.827-3.694 1.688-6.098 3.242-6.318 4.084-.394 1.506-8.956 7.327-22.108 15.03-4.757 2.785-9.157 5.839-9.778 6.787-.621.948-4.459 4.068-8.529 6.935-27.347 19.257-45.253 32.343-63.824 46.642l-9.485 7.305-3.545-2.439c-7.462-5.134-17.522-7.422-26.902-6.116-12.908 1.795-19.987 6.878-30.265 21.732-13.992 20.221-29.135 27.806-64.82 32.466-6.44.841-13.523 2.039-15.742 2.662-9.91 2.786-18.08 10.008-23.124 20.447-5.483 11.347-7.31 21.818-6.756 38.724 1.225 37.408 18.912 66.137 50.048 81.294 4.034 1.963 7.72 3.574 8.19 3.58.472.006 1.564 1.152 2.425 2.547 3.602 5.829 16.952 11.875 27.965 12.664 15.845 1.136 32.921-7.802 42.599-22.296 3.987-5.97 11.255-19.408 19.847-36.691 11.045-22.222 13.339-24.747 28.578-31.464 17.286-7.618 21.013-9.792 26.955-15.723 10.719-10.702 15.766-25.249 13.279-38.277-1.142-5.978-5.986-15.695-9.855-19.77-3.646-3.838-7.768-7.453-9.116-7.992-.613-.245 2.005-2.89 6.949-7.023 14.17-11.845 26.663-23.506 44.6-41.63 25.407-25.674 48.778-45.667 60.505-51.757 4.066-2.111 12.094-5.2 13.517-5.2.028 0 .05 1.582.05 3.517 0 4.309 1.752 7.221 5.218 8.669 4.834 2.02 11.284-1.458 11.284-6.087 0-2.158-1.825-5.852-3.102-6.278-1.008-.336 2.858-4.158 4.247-4.2.428-.013 1.499.951 2.379 2.142 1.569 2.123 5.94 3.966 7.754 3.27 1.151-.442 3.389-4.209 3.389-5.706 0-.63-1.048-2.339-2.329-3.799-2.645-3.013-2.84-2.715 4.134-6.319 2.404-1.242 4.478-1.935 4.61-1.54 1.148 3.446 5.501 4.517 8.25 2.029 2.031-1.839 3.475-6.727 2.327-7.876-1.398-1.398-1.076-1.717 3.847-3.81 6.605-2.808 7.552-4.01 6.44-8.167-.482-1.803-.877-5.046-.877-7.205 0-3.024-.592-5.11-2.58-9.084-2.515-5.028-2.733-5.238-8.617-8.294-6.433-3.34-7.811-4.56-7.847-6.955-.027-1.687-1.323-3.264-2.684-3.264-.496 0-1.605.896-2.467 1.992Zm85.637 2.085c1.893 1.326 1.947 1.678.544 3.532-.995 1.314-1.199 1.256-4.745-1.347-2.036-1.495-3.703-2.856-3.703-3.023 0-.841 6.49-.153 7.904.838ZM360.611 36.1c.498 1.377 2.203 3.677 3.788 5.11 3.018 2.726 9.448 6.323 11.303 6.323 1.862 0 3.365 3.073 3.4 6.95.018 2.028.454 4.675.968 5.882l.936 2.194-4.819 2.825c-2.65 1.555-5.709 3.29-6.798 3.858l-1.979 1.031 1.062-2.543c.584-1.4 1.063-3.192 1.063-3.985 0-1.013.578-1.511 1.942-1.675 1.069-.127 2.307-.83 2.751-1.562 1.29-2.126-1.894-4.345-5.342-3.722l-2.652.48 1.793-1.948c1.626-1.766 1.685-2.052.644-3.094-1.042-1.043-1.446-.997-4.36.488-1.766.9-5.521 3.867-8.344 6.593-2.824 2.726-7.279 6.19-9.901 7.695a602.122 602.122 0 0 0-7.334 4.277c-2.528 1.514-2.513 1.475 1.05-2.659 1.989-2.308 5.538-5.737 7.884-7.62 4.193-3.365 5.304-5.574 3.205-6.38-.603-.23-8.718 4.207-18.78 10.27-15.805 9.523-17.839 10.557-18.827 9.569-.988-.989-.881-1.393.996-3.745 1.157-1.451 2.104-2.948 2.104-3.326 0-.378 3.96-3.564 8.801-7.08 15.505-11.261 24.949-18.536 29.399-22.642 2.385-2.202 4.518-4.017 4.739-4.036.222-.018.81 1.094 1.308 2.472Zm104.085.98c.189.575-.405.917-1.593.917-1.232 0-1.895-.403-1.895-1.152 0-1.379 3.023-1.176 3.488.235Zm-5.975 2.666c.044.047.295.979.557 2.072.442 1.845.253 2.047-2.647 2.823-4.388 1.174-4.957 1.855-4.957 5.941 0 3.448-.342 4.054-7.906 14.032-4.349 5.736-9.356 12.503-11.125 15.04-2.258 3.233-3.397 4.328-3.817 3.667-1.039-1.638-.723-2.467 3.899-10.227 2.485-4.174 6.18-11.053 8.211-15.289 2.03-4.236 4.358-8.242 5.174-8.903 1.234-.999 1.325-1.39.544-2.332-.771-.93-.717-1.569.299-3.569 2.067-4.069 2.234-4.156 7.135-3.732 2.504.216 4.589.431 4.633.477Zm1.455 12.958c-2.181 4.188-3.481 5.23-4.488 3.6-.482-.78.607-2.801 3.878-7.194 2.829-3.8 3.231-1.436.61 3.594Zm-344.63-4.62c-.176.302-.379 3.85-.448 7.886-.16 9.151-1.954 13.751-6.704 17.194-4.503 3.262-7.706 4.057-12.343 3.063-5.045-1.082-4.865-1.113-7.058 1.2-5.577 5.882-6.792 13.91-3.805 25.146 2.478 9.322 2.909 12.124 2.363 15.36l-.462 2.734-3.5-.336c-4.263-.41-7.641 1.129-9.231 4.204-1.447 2.799-1.406 3.399.354 5.16 1.844 1.845 6.321 1.947 8.82.2 2.735-1.911 5.326-5.252 5.76-7.429.834-4.175.205-13.93-1.284-19.914-1.81-7.273-1.99-13.025-.51-16.346 1.98-4.45 2.212-4.58 4.833-2.714 4.996 3.559 15.05 2.273 20.461-2.617l2.816-2.545.435 5.326c.239 2.928.646 8.86.906 13.179l.47 7.853-2.58-.419c-3.33-.54-6.475 1.275-8.522 4.919-3.028 5.389-.967 10.97 4.051 10.97 2.463 0 6.147-2.577 6.147-4.299 0-.384.69-.518 1.531-.298 1.532.4 1.532.398 1.467-24.093-.036-13.472-.015-26.97.048-29.996.138-6.669-1.264-13.939-2.688-13.939-.552 0-1.149.248-1.327.55Zm355.699.56c1.461.61 2.462 1.303 2.226 1.54-.546.546-5.502-1.065-6.062-1.97-.614-.994.813-.834 3.836.43Zm-15.17.313c0 .38-.33.895-.734 1.144-.403.25-.733-.062-.733-.69 0-.629.33-1.144.733-1.144.404 0 .734.31.734.69Zm-19.107 6.245c-2.674 3.542-5.117 5.233-5.085 3.519.02-1.084 7.629-9.172 7.89-8.389.146.44-1.116 2.631-2.805 4.87Zm-274.254.988c.003.927-.499 2.66-1.114 3.851-.894 1.73-1.602 2.164-3.527 2.164-4.577 0-6.677-3.413-3.844-6.246 1.413-1.414 2.428-1.733 5.121-1.61 2.969.136 3.359.35 3.364 1.84Zm261.055 3.875c3.675.788 5.073 2.14 2.213 2.14-1.652 0-6.577-1.894-6.577-2.53 0-.536.079-.529 4.364.39Zm28.664.624c-.417.781-.759 2.523-.759 3.872 0 1.915-1.707 4.934-7.806 13.802-32.427 47.15-79.77 122.064-103.255 163.387-3.956 6.96-7.328 12.654-7.496 12.654-.362 0 .092-.886 5.823-11.371 20.978-38.381 49.672-85.71 82.369-135.863 22.905-35.133 31.324-47.9 31.587-47.9.163 0-.045.639-.463 1.42ZM35.6 63.412c-.397 2.446-2.93 6.13-4.214 6.13-.778 0-2.144-4.277-2.144-6.71 0-1.999.15-2.092 3.396-2.092h3.396L35.6 63.41Zm428.685-.7c2.782 2.665 2.588 3.393-.51 1.915-1.541-.735-2.567-1.757-2.567-2.556 0-1.813.66-1.676 3.077.64Zm-100.23 1.505c-.572 2.283-1.551 3.098-3.741 3.114-.835.006-3.046.531-4.912 1.167s-4.107 1.05-4.98.917c-1.168-.176.131-1.153 4.912-3.695 7.752-4.122 9.452-4.414 8.721-1.503Zm65.279 2.942c-.035 1.513-.651 3.741-1.369 4.951l-1.305 2.201.396-3.514c.34-3.013 1.469-6.39 2.138-6.39.112 0 .175 1.24.14 2.752ZM313.256 70.42c-1.29 1.29-2.604 2.087-2.919 1.768-.596-.6 3.28-4.104 4.546-4.11.395-.003-.336 1.051-1.627 2.343Zm139.272 4.758c-1.655 5.451-5.666 12.196-6.994 11.76-.455-.15-.932-1.525-1.06-3.056-.197-2.359.402-3.739 3.912-9.015 5.014-7.536 6.492-7.426 4.142.312Zm12.676-.09c.69 1.054 1.115 2.056.945 2.227-.416.416-7.141-4.75-7.141-5.485 0-2.274 3.923-.212 6.196 3.257Zm-118.813-.344c-.227.366-.846.666-1.376.666-.531 0-2.226 1.155-3.767 2.567-2.142 1.962-3.439 2.568-5.503 2.568-3.329 0-4.796 1.458-3.638 3.62.445.833 1.09 1.515 1.432 1.515.342 0 .794.66 1.006 1.467.225.863.022 1.467-.493 1.467-.482 0-2.171.66-3.754 1.467-1.582.807-3.557 1.467-4.388 1.467s-3.78.63-6.555 1.4l-5.044 1.398 5.825-5.825c4.562-4.564 7.962-7.065 15.693-11.54 8.987-5.204 9.92-5.59 10.422-4.31.304.774.366 1.706.14 2.073Zm-19.454-2.003c-2.345 2.04-10.308 7.006-10.064 6.276.325-.976 8.416-6.391 9.697-6.49.37-.028.535.068.367.214Zm105.066 13.856c-9.776 14.652-31.899 48.696-39.328 60.52-2.344 3.732-4.396 6.786-4.56 6.786-1.794 0 44.852-72.361 51.662-80.144 2.662-3.042 1.102-.464-7.774 12.838Zm-71.906-12.103c-.377.707-3.541 2.936-7.03 4.952-4.76 2.751-6.261 3.98-6.014 4.923.481 1.84-1.414 3.212-2.82 2.044-.787-.653-1.369-.69-2.042-.132-.614.51-1.314.537-2.017.077-.923-.605-.893-.813.208-1.462.707-.416 1.783-1.72 2.391-2.899 1.281-2.476 4.156-4.366 4.603-3.024.153.46.912.838 1.685.838 1.177 0 1.405-.537 1.405-3.301V73.21h5.16c4.689 0 5.097.117 4.471 1.285Zm-52.167.866c0 .66-4.228 4.83-9.546 9.414-2.526 2.178-2.613 2.196-4.217.897-.901-.73-1.638-1.492-1.638-1.695 0-.636 9.408-7.115 11.911-8.204 2.858-1.243 3.49-1.317 3.49-.412Zm2.694 1.93c.121.377-.848 1.374-2.154 2.212-6.719 4.318-6.869 4.339-3.128.434 3.433-3.584 4.77-4.254 5.282-2.646Zm3.124 4.932c-.175.13-3.401 2.665-7.168 5.633-5.394 4.25-6.991 5.177-7.507 4.362-.36-.57-.655-1.365-.656-1.769-.001-1.156 14.194-9.765 14.964-9.074.377.337.542.72.367.848Zm129.126 3.662c0 .919-5.7 10.905-12.668 22.191-6.966 11.286-23.166 37.685-35.999 58.666-12.833 20.98-26.772 43.428-30.974 49.883-8.328 12.79-13.764 23.078-14.923 28.243-1.1 4.897-.93 15.225.33 20.203 2.599 10.261 9.839 21.561 20.092 31.359 6.161 5.888 6.366 6.413 3.795 9.712-.637.817-5.025 5.044-9.748 9.39-7.05 6.486-9.014 8.766-10.954 12.705-2.047 4.161-2.36 5.55-2.342 10.416.011 3.088.45 9.16.974 13.491 1.437 11.867.619 31.702-1.721 41.735-5.139 22.029-17.411 39.447-34.206 48.55-18.298 9.917-41.318 8.101-68.354-5.391-14.684-7.329-24.95-14.659-35.42-25.291-18.741-19.032-27.513-39.74-26.561-62.71 1.081-26.149 14.1-48.402 33.895-57.941 3.227-1.556 10.322-4.213 15.768-5.907 5.445-1.694 11.839-4.058 14.21-5.252 6.096-3.073 11.064-7.99 13.743-13.604 2.037-4.271 2.3-5.675 2.836-15.104.666-11.736 1.891-16.021 6.454-22.552 5.566-7.97 15.431-13.777 25.474-14.997 4.65-.564 13.297 1.188 18.552 3.76 4.004 1.959 13.335 10.042 13.341 11.557.002.458-2.883 6.492-6.41 13.409l-6.414 12.578-5.874-.014c-6.811-.014-10.695 1.191-16.371 5.078-8.045 5.509-12.605 15.027-12.605 26.309 0 7.647 1.016 12.612 3.78 18.478 1.856 3.937 2.058 4.946 1.441 7.18-.732 2.652-8.541 16.929-10.953 20.026l-1.332 1.711-13.152-3.085c-7.234-1.696-13.949-3.386-14.922-3.755-2.037-.772-3.49.195-2.559 1.703.333.538.672 2.261.752 3.826.163 3.171 5.383 11.541 9.203 14.756 1.193 1.004 1.962 2.162 1.708 2.573-.74 1.197.358 3.668 1.629 3.668 1.046 0 1.04.138-.049 1.342-1.237 1.367-1.626 3.06-.704 3.06.28 0 1.353-.803 2.383-1.784 1.634-1.555 2.045-1.657 3.215-.794 1.112.821 1.196 1.263.491 2.581-1.116 2.084-.365 2.757 1.346 1.207 1.276-1.154 1.723-1.052 7.703 1.751 6.695 3.139 13.415 4.535 14.372 2.986.389-.629 2.275-.037 6.712 2.111 3.394 1.641 7.409 3.183 8.921 3.426 1.513.242 2.736.646 2.718.897-.019.251-3.464 7.224-7.656 15.495-6.65 13.119-7.488 15.176-6.568 16.113 1.391 1.415 1.731 1.028 8.011-9.144 8.268-13.392 26.575-38.963 27.344-38.193.71.709-1.448 9.638-3.998 16.552-3.113 8.438-9.211 20.292-16.199 31.482-4.866 7.793-5.718 10.333-3.466 10.333.521 0 2.523-2.559 4.45-5.686 5.768-9.356 10.35-14.94 15.907-19.386 2.616-2.093 2.724-2.118 2.103-.488-1.696 4.454-8.698 19.436-12.616 26.995-3.66 7.062-4.198 8.563-3.365 9.397 1.178 1.179 1.832.482 12.054-12.833 6.765-8.812 8.554-10.443 9.936-9.061.794.794-2.789 11.69-5.928 18.031-5.075 10.245-13.147 18.136-21.129 20.653-4.952 1.562-5.241 2.826-.498 2.179 11.338-1.543 20.733-11.95 27.712-30.699 2.777-7.459 3.151-10.858 1.389-12.622-1.995-1.994-3.455-1.3-8.663 4.121-2.787 2.9-4.937 4.954-4.777 4.565.16-.389 1.835-4.33 3.722-8.757 5.371-12.599 7.205-17.865 6.397-18.365-.905-.559-3.586 1.173-7.88 5.092-1.821 1.662-3.109 2.527-2.864 1.922.247-.605 1.94-4.402 3.764-8.436 3.951-8.739 6.657-17.799 7.791-26.078.665-4.86.641-6.167-.122-6.639-.57-.353-1.501-.089-2.329.66-1.631 1.474-13.101 15.88-16.617 20.87-1.35 1.916-2.541 3.484-2.648 3.484-.394 0 26.896-55.232 28.217-57.106 4.58-6.496 9.819-21.726 9.479-27.555-.183-3.144-.46-3.77-1.749-3.954-.93-.134-2.034-1.284-2.816-2.935-.706-1.493-3.07-5.408-5.252-8.698s-3.968-6.157-3.968-6.372c0-.72 17.747-32.21 27.144-48.166 20.813-35.338 37.38-61.633 70.135-111.321 7.78-11.802 14.321-21.457 14.537-21.457.216 0 .393.752.393 1.67Zm-18.982 6.277c-14.379 20.157-34.038 52.748-65.12 107.958-25.932 46.061-34.15 60.131-34.866 59.689-.329-.204-.472-.596-.318-.87 4.754-8.43 64.245-112.469 68.871-120.44 11.126-19.174 19.579-32.971 25.842-42.181 3.293-4.842 6.22-9.44 6.505-10.218.47-1.277.63-1.303 1.657-.275 1.028 1.027.78 1.64-2.571 6.337Zm-133.119-4.35 1.776 1.397-2.76 2.146c-3.534 2.747-9.506 6.797-10.024 6.797-.22 0-.886-.942-1.481-2.093l-1.082-2.092 5.28-3.701c2.903-2.036 5.558-3.735 5.897-3.777.34-.04 1.417.554 2.394 1.323Zm5.261 7.886c-.201.857-10.764 9.789-11.577 9.789-.227 0-1.024-1.034-1.77-2.299-1.126-1.905-1.185-2.397-.342-2.872.559-.316 3.491-2.213 6.517-4.216 4.921-3.26 5.599-3.518 6.438-2.46.516.65.846 1.577.734 2.058Zm-20.705 2.522c.646 1.248 1.067 2.344.936 2.437-.13.092-3.964 2.722-8.519 5.844l-8.281 5.676-1.412-1.695c-.776-.931-1.422-1.897-1.436-2.145-.021-.396 16.744-12.386 17.318-12.386.122 0 .749 1.021 1.394 2.269Zm63.026.63c.642 2.024-.351 3.703-2.19 3.703-2.185 0-2.891-1.962-1.482-4.114 1.229-1.876 3.009-1.677 3.672.411Zm-58.215 7.152 1.47 2.322-7.863 5.572-7.863 5.571-2.09-2.003c-1.15-1.102-1.99-2.306-1.867-2.677.302-.904 15.408-11.42 16.155-11.245.323.075 1.249 1.182 2.058 2.46Zm-25.288 6.492c1.358 2.074 1.498 1.87-3.958 5.777-4.013 2.875-5.399 2.981-6.718.515-.687-1.282-.232-1.849 3.801-4.746 2.52-1.81 4.822-3.319 5.115-3.354.293-.035 1.085.779 1.76 1.808Zm-140.667 1.307c.141.724-.233 1.223-.917 1.223-.679 0-1.153-.627-1.153-1.528 0-1.788 1.714-1.535 2.07.305Zm145.844 5.019c.933.877 1.697 2.004 1.697 2.504s-2.283 2.226-5.073 3.835l-5.074 2.926-1.527-1.626c-.84-.895-1.527-1.853-1.527-2.131 0-.538 8.673-7.103 9.385-7.103.232 0 1.186.717 2.119 1.595Zm13.065 3.54c-1.16 1.21-2.458 2.192-2.888 2.181-.7-.018 3.905-4.314 4.675-4.362.176-.011-.628.97-1.787 2.181Zm-30.458 1.424c-.012.226-3.357 2.832-7.433 5.793-5.641 4.096-7.562 5.148-8.035 4.401-1.34-2.114-.335-3.358 6.533-8.083 6.343-4.364 7.224-4.771 8.04-3.711.505.654.908 1.375.895 1.6Zm-157.335-.031c.762 1.234-4.717 5.31-6.812 5.068-2.6-.302-3.019-2.947-.722-4.556 1.793-1.257 6.861-1.601 7.534-.512Zm162.45 6.226c-.867.863-16.088 9.048-16.051 8.631.023-.262 3.056-3.047 6.739-6.188l6.697-5.709 1.471 1.471c.808.809 1.324 1.617 1.144 1.795Zm-4.393 8.619c-6.82 5.486-7.512 5.872-8.598 4.785-.65-.649-1.011-1.352-.802-1.561.714-.715 15.667-9.163 16.242-9.178.316-.007-2.763 2.672-6.842 5.954Zm-20.18-3.122 1.093 2.114-4.416 3.098c-3.965 2.781-4.542 2.988-5.657 2.017-.683-.594-1.695-1.219-2.248-1.389-.893-.275 8.189-7.74 9.604-7.894.293-.032 1.023.892 1.624 2.054Zm9.216.452c-.946 1.007-1.876 1.676-2.066 1.486-.317-.318 2.762-3.237 3.474-3.293.171-.013-.463.8-1.408 1.807Zm17.951 9.92c-6.538 6.564-7.418 7.215-8.237 6.095-.504-.689-.908-1.438-.896-1.664.024-.5 15.334-11.78 15.988-11.78.256 0-2.829 3.307-6.855 7.349Zm-24.258-4.33c-1.429 1.588-7.193 5.784-7.946 5.784-1.394 0 .128-1.778 3.735-4.361 4.519-3.238 6.423-3.88 4.211-1.423Zm5.208 4.321c.732.81 1.195 1.557 1.03 1.662-.165.104-2.338 1.918-4.827 4.03s-4.85 3.84-5.245 3.84c-.946 0-2.513-4.531-1.789-5.174 1.13-1.006 8.621-5.83 9.053-5.83.245 0 1.045.663 1.778 1.472Zm-21.333-.293c.638.245 1.16.7 1.16 1.012 0 .747-10.731 8.813-11.726 8.813-.425 0-1.153-.836-1.619-1.858-.741-1.626-.632-2.015.873-3.118 7.258-5.317 8.598-5.89 11.312-4.849Zm4.094 4.304c0 .642-12 9.167-12.375 8.792-.204-.204.27-.829 1.051-1.389.783-.561 3.403-2.525 5.824-4.365 4.099-3.118 5.5-3.891 5.5-3.038Zm24.565 6.261c-.676 1.093-6.145 3.623-7.88 3.645-2.095.027-1.461-.924 2.558-3.838 3.268-2.37 3.943-2.61 4.833-1.721.568.568.788 1.429.489 1.914Zm-21.428.327 1.208 2.536-4.833 4.012-4.833 4.013-1.785-2.122-1.785-2.122 4.629-4.4c2.546-2.42 4.98-4.411 5.41-4.425.429-.014 1.324 1.115 1.989 2.508Zm-22.696.68c1.135 1.732 1.069 1.805-7.693 8.523l-8.838 6.774-1.553-1.553c-1.544-1.545-1.545-1.56-.106-2.941 2.467-2.369 15.807-12.55 16.443-12.55.331 0 1.117.786 1.747 1.747Zm-33.978 5.711c3.025 1.408 5.903 3.051 6.394 3.651.753.919-.989 2.6-11.001 10.619-6.542 5.24-13.05 10.306-14.462 11.257-1.411.951-3.454 2.545-4.539 3.54-1.593 1.462-2.935 1.87-6.967 2.116-17.102 1.043-32.378 13.814-36.18 30.248-.571 2.465-.758 6.237-.496 9.965l.423 6-4.905 3.993a14780.13 14780.13 0 0 1-20.02 16.215L53.65 272.656l-3.778-5.414c-5.438-7.789-9.283-10.119-11.331-6.864-.607.963-.006 2.048 3.006 5.428 2.07 2.323 4.686 6.073 5.813 8.332 1.127 2.26 2.24 4.273 2.472 4.475.233.202 1.974 3.458 3.868 7.237 4.854 9.682 11.073 18.459 19.138 27.01 8.967 9.508 13.607 11.567 13.607 6.036 0-1.898-1.115-3.484-6.226-8.856-6.085-6.396-14.309-16.144-14.309-16.961 0-.226 1.314.106 2.918.737l2.919 1.146 10.466-9.842c15.537-14.612 25.214-23.379 25.806-23.379.289 0 1.614.83 2.943 1.845 4.069 3.103 11.278 5.618 17.286 6.03 10.796.739 19.544-2.646 28.275-10.942 8.456-8.035 12.795-17.865 12.795-28.987 0-4.794.205-5.561 2.017-7.554 1.109-1.221 7.787-5.649 14.839-9.842l12.822-7.624 1.17 4.879c.643 2.683 2.051 7.291 3.129 10.241 3.828 10.476 2.174 18.202-5.474 25.569-5.251 5.057-10.457 7.981-18.915 10.623-16.372 5.114-23.226 8.835-29.641 16.094-4.588 5.192-9.492 15.321-11.933 24.646l-1.954 7.468-7.369 8.67c-14.584 17.158-28.542 29.768-35.66 32.211-2.627.903-7.37 1.821-7.37 1.428 0-.117 6.93-6.393 15.401-13.947 8.47-7.554 15.401-14.039 15.401-14.411 0-.372-.825-1.052-1.832-1.511-4.222-1.925-9.828 1.574-23.103 14.42-4.236 4.098-9.186 8.31-11.001 9.359-3.208 1.856-9.381 3.893-9.979 3.296-.163-.164 1.85-2.737 4.475-5.72 4.168-4.739 5.699-7.285 4.38-7.285-.216 0-2.012.821-3.991 1.825-6.926 3.511-14.25 5.076-23.854 5.096-4.84.011-10.677-.406-12.969-.925-3.863-.875-4.464-1.31-8.198-5.933-14.75-18.261-21.855-37.998-21.94-60.95-.039-10.541 1.007-17.586 3.896-26.242 3.656-10.952 9.542-18.493 17.276-22.129 3.32-1.56 5.409-2.033 23.035-5.212 15.594-2.813 33.248-9.784 43.782-17.29 6.57-4.682 13.446-11.995 19.441-20.678 9.819-14.221 17.835-18.721 32.484-18.234 6.562.218 7.913.513 12.835 2.804Zm37.342-.633c-1.174.856-14.496 11.267-15.524 12.131-.706.593-1.284.736-1.284.318 0-.913 16.24-13.545 16.753-13.031.198.198.222.46.055.582Zm26.828 8.313-6.424 5.969-2.105-2.398c-1.157-1.318-2.104-2.582-2.104-2.809 0-.225 2.276-2.193 5.059-4.37l5.059-3.96 3.47.8 3.469.8-6.424 5.968Zm-25.879-3.602c-14.068 12.054-13.796 11.848-14.273 10.804-.232-.508 15.117-12.772 15.505-12.39.158.156-.396.87-1.232 1.586Zm4.286 1.118c.758.909 1.388 1.862 1.402 2.12.013.257-3.306 3.34-7.375 6.851l-7.4 6.384-1.782-1.675c-.98-.92-1.693-1.918-1.584-2.217.218-.6 14.596-13.113 15.067-13.113.163 0 .915.742 1.672 1.65Zm-33.777 8.885c0 2.206-.582 2.912-5.508 6.686-4.564 3.497-5.695 4.064-6.6 3.313-.601-.499-1.093-1.294-1.093-1.767 0-.921 11.475-10.698 12.556-10.698.355 0 .645 1.11.645 2.466Zm41.803-1.09c0 .267-3.287 3.762-7.304 7.765-7.238 7.212-7.319 7.267-8.818 5.908-.834-.753-1.424-1.607-1.313-1.896.111-.289 3.649-3.331 7.865-6.76 6.612-5.38 9.57-6.93 9.57-5.017Zm-33.736 2.267c0 .388-.66 1.06-1.466 1.492-1.616.865-1.972.065-.587-1.32 1.06-1.061 2.053-1.144 2.053-.172Zm3.499 3.832c-.453 1.361-4.143 3.863-4.77 3.234-.309-.309.364-1.361 1.496-2.335 2.204-1.898 3.748-2.322 3.274-.899Zm-10.838 1.512c-.006.825-8.186 7.886-9.136 7.886-1.31 0 .184-1.796 4.191-5.039 5.205-4.213 4.953-4.067 4.945-2.847Zm12.84 5.314c-3.575 3.067-4.274 3.138-5.451.554-.864-1.897-.753-2.16 1.862-4.422l2.781-2.404 1.871 1.878 1.87 1.878-2.933 2.516Zm-29.825 1.181c.832 1.332.78 1.673-.373 2.49-.736.52-3.634 2.78-6.44 5.022-3.847 3.074-5.335 3.883-6.05 3.289-.522-.433-.949-1.059-.949-1.392 0-.655 11.66-10.953 12.4-10.953.247 0 .882.695 1.412 1.544Zm18.676-1.08c.255.255-1.19 1.78-3.211 3.39-4.639 3.695-5.843 2.876-1.407-.957 3.444-2.978 3.857-3.195 4.618-2.433Zm1.596 3.901c1.414 2.736 1.494 2.418-1.079 4.32-2.081 1.539-2.317 1.564-4.447.462-1.237-.64-2.145-1.459-2.019-1.82.189-.538 5.705-5.036 6.261-5.105.091-.011.668.953 1.284 2.143Zm20.92 3.658c0 .721-7.293 6.282-8.239 6.282-.819 0-4.272-4.473-4.19-5.427.021-.243 1.754-1.844 3.85-3.559l3.812-3.118 2.384 2.69c1.311 1.479 2.383 2.889 2.383 3.132Zm-37.768-1.422c-.857 1.387-12.959 10.393-13.388 9.964-.581-.581.355-1.484 7.153-6.904 3.025-2.412 5.754-4.228 6.062-4.038.31.191.388.631.173.978Zm-24.203 2.936c-.626 1.21-1.564 2.201-2.086 2.201-.521 0-2.713.524-4.87 1.165-4.964 1.474-11.419 7.426-14.186 13.078-1.917 3.917-4.16 11.301-4.16 13.697 0 1.228-7.594 8.005-8.97 8.005-.46 0-.626-2.672-.443-7.152.39-9.541 2.879-15.078 9.957-22.143 6.857-6.844 14.906-10.487 24.227-10.966 1.621-.084 1.636-.023.531 2.115Zm30.486 2.017c1.569 1.109 2.838 2.183 2.821 2.384-.044.528-13.555 10.929-14.834 11.419-.655.252-1.672-.431-2.613-1.753l-1.541-2.165 6.958-5.231c3.827-2.877 6.959-5.41 6.959-5.628 0-.576-1.192.208-7.334 4.826-5.559 4.178-8.226 5.947-7.093 4.702 1.369-1.503 12.639-10.484 13.209-10.526.339-.025 1.9.863 3.468 1.972Zm15.64 2.079c.273.714.11 1.05-.426.871-1.097-.365-1.7-2.033-.736-2.033.394 0 .916.523 1.162 1.162Zm-44.008 5.207a56.258 56.258 0 0 0-2.851 2.231c-.807.68-3.612 2.353-6.234 3.719-4.989 2.597-5.654 3.164-9.058 7.72-1.15 1.54-2.222 2.668-2.382 2.509-.686-.687 2.075-7.89 4.093-10.676 3.254-4.493 7.053-6.71 12.568-7.335 4.907-.555 6.279.096 3.864 1.832Zm72.587 1.743c10.009 11.136 12.134 28.906 5.027 42.045-2.978 5.505-8.863 11.154-14.229 13.657-2.547 1.188-9.381 3.343-15.187 4.789-11.268 2.806-17.784 5.152-21.343 7.686-3.499 2.494-2.563.554 1.646-3.406 3.897-3.666 7.558-6.059 23.889-15.617 20.626-12.071 25.377-22.124 19.089-40.393-2.946-8.56-3.847-12.471-2.875-12.471.357 0 2.148 1.669 3.983 3.71Zm-31.563-1.631 3.539 1.344-5.734 4.158c-3.153 2.285-6.486 4.156-7.407 4.156-1.087 0-1.906.61-2.336 1.741-.554 1.458-4.816 4.861-6.088 4.861-.208 0-.903-.8-1.544-1.779-1.157-1.765-1.105-1.83 6.913-8.803 4.443-3.863 8.312-7.024 8.598-7.023.286 0 2.113.605 4.059 1.345Zm-36.908 1.347c0 1.14-2.544 3.176-3.964 3.172-1.381-.003-1.314-.186.664-1.807 2.221-1.822 3.3-2.268 3.3-1.365Zm.332 11.364c2.012.916 2.345 1.701 1.058 2.496-.445.276-1.675-.365-2.733-1.424-2.047-2.047-1.388-2.469 1.675-1.072Zm-10.6 3.794c0 .134-1.355 1.333-3.011 2.664-2.279 1.832-2.812 2.05-2.194.894 1.097-2.052 5.205-4.86 5.205-3.558Zm5.428 1.142c1.204 1.331 1.033 1.568-4.313 5.937-4.576 3.741-5.758 4.392-6.641 3.659-1.711-1.42-1.328-2.247 3.12-6.743 4.49-4.539 5.858-5.037 7.834-2.853Zm12.907 6.016c0 5.084-3.97 10.807-9.167 13.214-3.144 1.456-8.117 1.801-9.88.685-1.282-.811-.702-1.083 3.989-1.868 3.475-.581 8.81-5.49 9.601-8.833.573-2.421 3.876-6.357 4.836-5.763.342.211.621 1.365.621 2.565Zm16.493-.617c-2.085 10.108-10.657 18.926-20.16 20.736l-2.567.489 3.388-2.191c5.662-3.662 9.309-9.522 9.981-16.039.289-2.798.643-3.761 1.186-3.218 1.188 1.188 3.586.893 5.614-.694 2.577-2.017 3.122-1.821 2.558.917Zm168.965 2.514c.618.399-13.471 23.713-14.178 23.463-1.278-.451-.603-2.117 5.648-13.957 5.108-9.673 6.178-11.254 7.131-10.533.617.467 1.247.929 1.399 1.027Zm-224.35.42c-.035 1.417-8.778 7.905-8.778 6.515 0-.568 7.934-7.406 8.617-7.427.101-.002.173.408.161.912Zm226.64 2.751c-.432.807-.95 1.467-1.152 1.467-.201 0-.013-.66.419-1.467.431-.807.949-1.467 1.151-1.467.202 0 .014.66-.418 1.467Zm-224.555 3.364c.693 1.336.306 2.013-3.042 5.32l-3.837 3.79-1.282-2.173-1.283-2.172 4.207-3.303c2.314-1.817 4.261-3.233 4.325-3.147.065.085.475.844.912 1.685Zm221.833 1.221c-.77 1.312-3.32 5.781-5.667 9.932-2.346 4.151-4.399 7.415-4.561 7.252-.345-.344 10.722-19.568 11.264-19.568.2 0-.266 1.072-1.036 2.384Zm-236.786 3.341c-.412.281-3.372 2.455-6.58 4.832-7.892 5.848-8.187 6.052-7.298 5.053 1.822-2.049 13.83-11.191 14.205-10.815.23.231.083.65-.327.93Zm17.571-.73c.202.326-1.512 2.052-3.807 3.834l-4.174 3.241 3.3-3.801c3.354-3.862 4.027-4.333 4.681-3.274Zm48.388 3.866c-1.115 2.05-4.017 5.569-6.448 7.821-11.463 10.615-27.305 12.525-39.581 4.773l-2.966-1.873 4.273-3.822 4.274-3.824 3.407 1.313c1.874.722 4.562 1.916 5.974 2.651 1.994 1.04 4.206 1.336 9.901 1.324 9.017-.02 12.68-1.539 18.701-7.756 2.219-2.291 4.137-4.202 4.263-4.249.126-.046-.683 1.593-1.798 3.642Zm-62.747 2.429 1.467 2.487-5.246 5.175c-2.884 2.847-7.884 7.3-11.111 9.895-3.227 2.597-8.796 7.731-12.377 11.411-3.58 3.68-6.73 6.691-6.998 6.691-1.393 0-8.88-9.202-8.003-9.839.133-.096 5.523-3.759 11.977-8.139 6.454-4.38 15.528-10.709 20.164-14.065 4.637-3.357 8.482-6.103 8.545-6.103.063 0 .775 1.119 1.582 2.487Zm16.597-1.675c-.338.547.008.651 1.057.318 2.417-.768 1.74.396-2.439 4.19-3.646 3.31-3.9 3.42-5.027 2.174-1.112-1.229-.946-1.504 2.635-4.368 4.13-3.302 4.54-3.554 3.774-2.314Zm-17.407 15.914c-3.509 3.526-6.38 6.728-6.38 7.115 0 .388 3.095-2.377 6.876-6.144 3.782-3.767 7.062-6.549 7.288-6.181.685 1.108-30.187 29.193-32.132 29.231-.928.018-2.2.459-2.828.98-.627.521-1.494.728-1.927.461-.462-.286.204-1.165 1.618-2.136 4.324-2.969 15.598-10.879 15.91-11.164.169-.153.098-.487-.158-.743-.405-.405-4.138 1.716-11.87 6.744l-2.187 1.423 1.684-2.378c1.805-2.551 6.214-6.274 20.587-17.388 5.003-3.868 9.276-6.852 9.496-6.631.221.221-2.469 3.286-5.978 6.811Zm212.374-3.46c-5.675 1.799-11.774 7.196-17.052 15.089-4.388 6.562-5.862 11.151-5.959 18.544l-.073 5.552-1.094-3.301c-1.427-4.306-1.428-14.757-.001-19.27 2.405-7.611 8.24-13.95 15.542-16.887 1.725-.695 5.047-1.179 8.067-1.176l5.134.002-4.564 1.447Zm4.93 3.254c0 .21-.829 1.696-1.843 3.301-1.462 2.318-2.284 2.92-3.985 2.92-3.113 0-5.787 1.194-9.54 4.261l-3.315 2.708 1.634-2.304c2.632-3.711 9.621-9.727 12.15-10.46 2.704-.782 4.899-.974 4.899-.426Zm2.117 3.279c-.904 1.609-1.788 2.781-1.964 2.605-.354-.354 2.691-5.532 3.255-5.532.194 0-.387 1.317-1.291 2.927Zm4.338-.909c-1.732 3.555-2.384 4.585-2.906 4.585-.861 0-.777-.493.504-2.971.615-1.19 1.468-2.164 1.894-2.164.427 0 .655.247.508.55ZM87.6 272.393c-.778.588-1.218 1.265-.98 1.504.58.579 3.493-1.015 3.493-1.912 0-.986-.854-.847-2.513.408Zm220.05 3.102c-.578 1.109-2.853 5.093-5.056 8.852-3.899 6.656-4.932 7.291-4.932 3.035 0-2.158 2.224-8.256 3.56-9.762 1.167-1.316 5.753-4.044 6.91-4.11.313-.017.096.876-.482 1.985Zm19.933.734c1.429 4.807 1.882 8.986.976 8.986-.455 0-.828-.92-.828-2.046 0-1.124-.638-3.299-1.419-4.83-1.317-2.583-1.357-4.861-.085-4.861.296 0 .907 1.238 1.356 2.751Zm8.194 4.543c1.517 2.974 1.517 2.976.036 2.976-.814 0-1.728.013-2.031.027-.303.016-.739-1.223-.971-2.751a109.794 109.794 0 0 0-.97-5.345l-.549-2.568 1.484 2.342c.816 1.289 2.166 3.682 3.001 5.319Zm-25.69-2.618c-2.135 3.619-2.661 3.389-.607-.266.905-1.61 1.764-2.806 1.91-2.66.147.146-.439 1.463-1.303 2.926Zm3.708.463c-.904 1.688-2.198 2.57-2.198 1.496 0-1.276 1.71-3.637 2.349-3.242.323.2.256.986-.151 1.746Zm10.218 5.681c.028 1.312-.086 2.384-.255 2.384s-.829.201-1.467.446c-.928.356-1.16-.094-1.16-2.249 0-1.482.382-3.408.848-4.28.83-1.55.862-1.554 1.416-.136.312.798.589 2.524.618 3.835Zm-256.31 1.101c-.656 2.134-.798 2.265-1.791 1.651-.58-.359-.45-.932.432-1.907 1.648-1.823 1.979-1.76 1.359.256Zm242.427-1.016c0 .938-3.041 4.637-3.464 4.214-.363-.363 2.549-4.849 3.147-4.849.175 0 .317.285.317.635Zm2.9 1.629c-.45.841-1.004 1.345-1.231 1.118-.226-.227.006-.916.517-1.53 1.318-1.589 1.675-1.384.714.412Zm30.092.12c-.01 1.335-.148 1.44-.723.55-.919-1.422-.919-2.2 0-2.2.404 0 .728.743.723 1.65Zm-4.852.734c1.353 5.048-.058 12.593-3.835 20.508-4.909 10.288-13.564 16.721-22.499 16.721-2.703 0-5.717-.51-7.4-1.253l-2.84-1.253 4.767-.466c5.827-.57 8.777-1.794 13.655-5.667 6.917-5.491 11.984-15.538 13.126-26.023.439-4.026.554-4.218 2.522-4.218 1.519 0 2.179.435 2.504 1.651Zm-9.389 3.63c-1.538 11.604-8.143 21.319-17.326 25.486-2.925 1.328-8.025 2.063-8.025 1.157 0-.195 1.237-2.861 2.75-5.923 2.543-5.149 2.895-5.538 4.681-5.182 2.962.589 7.297-.922 9.544-3.328 2.248-2.408 6.022-9.95 6.824-13.639.871-4.004 2.12-2.853 1.552 1.429Zm-6.928 2.195-1.471 3.161.435-3.301c.24-1.816.799-3.538 1.242-3.828 1.4-.915 1.316.698-.206 3.968Zm-27.224-1.925c0 1.035.342 2.522.762 3.305.6 1.124.331 2.156-1.284 4.903-1.785 3.039-2.076 3.265-2.286 1.779-.347-2.453 1.351-11.87 2.14-11.87.368 0 .668.847.668 1.883Zm22.391 2.335c-.544 2.18-3.981 7.106-4.556 6.531-.28-.28 1.661-4.238 3.922-7.998.748-1.243 1.104-.418.634 1.467Zm-17.257 7.921c0 .36-4.903 8.319-5.59 9.074-.152.168-.465.119-.693-.11-.495-.495 4.933-9.365 5.73-9.365.304 0 .553.181.553.401Zm3.532 2.434c.754.478.357 1.84-1.811 6.224-1.527 3.086-2.971 5.612-3.209 5.612-.237 0-1.046-.449-1.797-.998-1.298-.95-1.207-1.252 1.876-6.206 3.461-5.558 3.469-5.565 4.941-4.632Zm-169.767 7.617c-3.597 12.115-8.063 20.123-15.268 27.375-8.957 9.015-19.572 13.917-33.919 15.661-10.971 1.334-22.892-.604-32.045-5.211-4.233-2.131-14.354-8.848-14.354-9.526 0-.312 1.073-.329 2.384-.037 1.31.293 6.179.515 10.817.494 7.883-.036 14.162-1.154 20.902-3.721.93-.355.055 1.076-2.383 3.9-2.118 2.453-3.85 4.828-3.85 5.277 0 1.133 4.085 1.008 8.235-.251 5.87-1.782 10.096-4.796 19.86-14.163 10.377-9.956 14.34-12.847 17.135-12.504 1.639.2.649 1.323-8.61 9.763-5.755 5.245-12.692 11.517-15.416 13.938-2.725 2.421-4.862 4.732-4.75 5.135.112.404 1.983.657 4.159.563 7.12-.305 13.385-4.114 24.337-14.789 5.218-5.087 12.623-12.962 16.454-17.501 3.831-4.539 7.076-8.253 7.21-8.253.135 0-.269 1.732-.898 3.85Zm157.434 3.891c0 .223-.825 1.621-1.834 3.105-2.077 3.057-2.322 2.749-.77-.966.584-1.399 1.409-2.544 1.833-2.544.424 0 .771.182.771.405Zm3.381 4.587 1.547 1.977-3.996 9.169c-2.198 5.044-4.101 9.277-4.229 9.408-.38.386-6.604-4.322-6.604-4.994 0-.763 10.862-17.508 11.368-17.525.201-.007 1.062.877 1.914 1.965Zm22.604 24.096c-10.183 19.952-11.314 21.951-11.322 20.025-.018-4.897-4.256-11.001-9.955-14.342-1.714-1.004-3.63-2.61-4.258-3.569-1.086-1.659-.925-2.203 3.303-11.155 2.444-5.175 4.549-9.518 4.677-9.648.129-.131 1.238.282 2.466.917 6.205 3.209 14.206 2.95 21.373-.693 1.815-.923 3.405-1.578 3.534-1.455s-4.29 9.087-9.818 19.92Zm-57.343-1.353c3.796 2.807 4.122 3.256 3.306 4.561-.496.797-1.262 1.448-1.702 1.448-2.31 0-14.249-13.175-14.249-15.725 0-.307 1.897 1.052 4.217 3.022 2.319 1.969 6.112 4.981 8.428 6.694Zm.644-6.768c4.186 1.849 7.867 3.606 8.18 3.905.311.3-.09 1.139-.894 1.866-1.414 1.281-1.567 1.252-4.967-.932-5.349-3.435-11.567-8.2-10.702-8.2.425 0 4.197 1.512 8.383 3.361Zm16.046 2.097c0 .178-.33.528-.733.777-.404.249-.734.103-.734-.323 0-.427.33-.777.734-.777.403 0 .733.145.733.323Zm8.027 4.397c1.215 1.464.714 1.446-2.502-.088-1.425-.68-2.591-1.679-2.591-2.22 0-.801.382-.784 2.07.088 1.138.589 2.499 1.588 3.023 2.22Zm-9.021 6.055c-.118.118-.836-.243-1.598-.8-1.218-.891-1.259-1.167-.339-2.275.965-1.164 1.09-1.102 1.598.8.303 1.135.455 2.159.339 2.275Zm6.898-2.32c2.313 1.196 2.741 2.945 1.228 5.015-1.257 1.72-3.359.842-3.906-1.63a90.12 90.12 0 0 0-.776-3.221c-.429-1.579.622-1.629 3.454-.164Zm-15.787 3.227c-.266.837-.956 1.522-1.534 1.522-1.376 0-1.327-.678.168-2.33 1.459-1.614 2.027-1.278 1.366.808Zm27.869 5.424c1.481 1.944 2.572 3.655 2.425 3.802-.266.267-10.03-3.679-10.658-4.305-.179-.181.204-1.354.851-2.608 1.087-2.101 1.316-2.207 2.934-1.352.965.511 2.966 2.518 4.448 4.463Zm-20.952-3.185c2.42 1.235 5.9 4.853 5.9 6.136 0 .475-9.628-3.8-10.567-4.691-.395-.376-.284-1.092.274-1.764 1.167-1.407.984-1.42 4.393.319Zm-160.658 2.474c-4.112 3.136-6.643 4.424-11.656 5.934-4.874 1.469-19.241 2.772-21.467 1.949-1.073-.397.809-.718 5.717-.976 9.282-.488 15.488-2.097 23.199-6.015 7.589-3.857 8.29-4.006 4.207-.892Zm177.238 5.882c1.991.955 5.684 2.485 8.204 3.4 2.522.914 4.584 2.082 4.584 2.595 0 1.244-2.081.696-8.434-2.219-4.454-2.044-9.608-5.416-8.388-5.489.227-.013 2.042.758 4.034 1.713Z" fill="#fff"/></svg>