<svg width="479" height="391" fill="none" xmlns="http://www.w3.org/2000/svg"><path fill-rule="evenodd" clip-rule="evenodd" d="M219.236 20.194c-2.773.232-4.702.652-9.008 1.959-8.855 2.688-17.044 7.223-23.019 12.75-2.509 2.32-2.773 2.649-4.105 5.118-1.572 2.913-3.259 7.211-3.486 8.88-.142 1.04-.134 1.059.227.539l.374-.538-.13.645c-.072.356-.287 1.614-.477 2.798s-.477 2.689-.638 3.344c-.343 1.402-.172 2.202.626 2.916.483.433.818.52 2.009.52h1.429l-.132 1.345c-.073.74-.243 1.41-.378 1.487-.134.078-.737.209-1.338.29-1.444.194-3.231 1.022-3.83 1.775-.644.81-.787 1.759-.577 3.82l.175 1.72.56-1.29c1.498-3.457 1.36-3.389 6.88-3.42 2.25-.013 6.415.024 9.255.084 5.005.104 5.199.092 6.269-.38.612-.27 1.228-.73 1.381-1.033.304-.597.345-5.228.054-6.12-.144-.442-.336-.08-1.076 2.021l-.9 2.56-3.284-.193c-1.807-.105-5.257-.191-7.668-.191h-4.384v-.686c0-.377-.106-.934-.235-1.237-.195-.46-.165-.553.181-.557 2.689-.027 10.841-1.07 13.626-1.742.925-.223 2.153-.517 2.729-.652.688-.163.936-.303.721-.408-.755-.37-5.693-.637-11.807-.637h-6.536l-.56-2.744c-1.206-5.908-1.187-5.46-.288-6.715l.792-1.106.444.655c.567.834 1.779.914 2.562.167.755-.72 2.37-3.934 2.992-5.956.52-1.69.609-1.817 2.094-2.987.852-.672 1.453-1.076 1.333-.899a78.58 78.58 0 0 1-1.249 1.707c-1.648 2.21-2.105 3.456-2.111 5.755-.004 1.809.046 2.022.596 2.556.708.687 1.879 1.174 2.815 1.171 1.004-.003 3.003-.92 3.758-1.722 1.036-1.104 2.389-3.712 3.516-6.777 1.262-3.433 2.868-7.203 3.678-8.635.634-1.121 1.087-1.386 5.21-3.044 1.562-.628 7.437-2.32 8.786-2.531l.943-.147-1.081.632c-2.497 1.462-5.222 4.657-7.576 8.883-1.863 3.345-5.605 8.273-6.01 7.913-.098-.087-.051-.862.104-1.722.305-1.69 1.592-4.313 2.95-6.014 1.548-1.939 5.192-6.1 5.698-6.506 1.372-1.102-.074-.648-2.372.746-4.843 2.936-8.432 6.843-9.972 10.856-.536 1.397-.753 4.738-.374 5.767.626 1.697 2.808 2.626 4.757 2.024 1.549-.478 2.294-1.152 4.341-3.927 2.444-3.315 3.105-4.503 4.479-8.062 1.567-4.06 3.429-7.412 4.937-8.89 1.888-1.851 2.427-2.075 5.571-2.307 3.115-.231 8.764-.269 10.123-.067l.923.136-1.643.471c-4.358 1.25-8.073 3.803-10.816 7.43-1.263 1.67-2.261 3.653-3.339 6.633-1.038 2.871-2.156 4.808-3.012 5.218-.384.184-.45.138-.45-.316 0-.815.672-3.233 1.343-4.83 1.614-3.843 5.518-8.814 10.035-12.776l.929-.815-1.049.33c-2.655.838-6.11 3.147-8.748 5.846-2.463 2.522-3.517 3.948-5.035 6.813-1.466 2.767-1.877 4.15-1.878 6.315-.001 1.305.096 1.681.618 2.387 1.243 1.684 4.052 2.089 6.337.915 2.345-1.206 3.718-3.398 5.158-8.24.535-1.8 1.287-4.002 1.671-4.894 1.617-3.757 4.969-7.483 8.608-9.568 1.744-1 1.8-1.015 3.243-.883 8.858.808 13.735 1.651 20.565 3.557 5.567 1.553 14.539 3.417 22.666 4.708 3.236.514 3.117.362-1.287-1.643-3.509-1.598-8.062-3.039-14.773-4.675a367.967 367.967 0 0 1-6.005-1.512c-3.925-1.052-11.78-2.72-15.204-3.227-7.333-1.087-16.879-1.473-23.231-.941Zm23.132 6.535c-6.309 1.556-12.818 7.964-14.995 14.761-1.166 3.644-.521 5.667 2.164 6.787 2.902 1.21 5.905.115 7.924-2.891.45-.67 1.594-2.963 2.541-5.093 2.254-5.067 3.317-6.994 4.865-8.819 1.618-1.906 3.335-2.976 6.073-3.781l2.167-.637-2.402.081c-3.725.126-6.011 1.085-8.926 3.747-2.179 1.988-4.226 4.81-6.252 8.617-1.766 3.32-2.894 4.773-3.704 4.773-1.213 0 1.08-6.26 3.575-9.76 2.127-2.983 5.827-6.233 8.4-7.377.694-.309 1.261-.598 1.261-.643 0-.173-1.609-.033-2.691.235Zm13.982 4.082c-3.707.609-6.143 1.746-8.781 4.098-1.112.992-2.266 2.274-2.715 3.016-1.081 1.788-2.809 5.775-3.149 7.264-.76 3.327 1.976 5.805 6.77 6.134 1.408.096 1.781.037 2.921-.462 1.886-.827 2.798-1.869 4.853-5.546 3.357-6.005 5.348-8.139 9.109-9.764 2.207-.954 4.064-1.375 6.229-1.413 2.525-.045 2.572-.3.136-.742-5.635-1.02-10.235.124-14.242 3.544-2.351 2.007-3.082 2.908-5.075 6.258-.881 1.48-1.964 2.998-2.407 3.372-.726.615-.893.665-1.692.503-.487-.098-1.213-.3-1.614-.449-.692-.257-.72-.316-.581-1.22.08-.523.687-2.178 1.349-3.677 1.878-4.25 3.981-6.465 7.616-8.02 1.545-.66 8.427-2.346 9.579-2.346.32 0 .582-.084.582-.188 0-.51-6.395-.771-8.888-.362Zm-57.387 1.967c-.778 1.055-2.195 3.22-3.148 4.81-2.568 4.284-3.569 5.51-3.129 3.835.69-2.628 5.08-9.354 6.664-10.21.488-.265.92-.452.958-.418.039.035-.566.927-1.345 1.983Zm85.772.779c3.788 3.055 6.393 4.95 11.611 8.441 3.302 2.211 6.924 4.668 8.047 5.46 2.846 2.007 6.967 5.76 9.269 8.438 5.79 6.739 7.466 9.928 8.992 17.11.892 4.196 1.312 9.958.943 12.91-.286 2.283-.768 4.097-1.084 4.082-.123-.007-.629-.09-1.125-.186-.678-.13-.901-.281-.901-.607 0-.354-.063-.385-.349-.173-.206.153-.574.196-.9.105-.525-.146-.532-.134-.153.251.373.38.365.499-.125 1.847l-.524 1.442-2.157-1.208c-2.794-1.563-5.034-2.51-8.275-3.493-2.186-.663-2.584-.732-2.393-.414.514.861 5.208 3.848 11.111 7.07 2.35 1.284 3.994 2.77 4.026 3.64.056 1.525-.09 2.958-.391 3.854-.183.545-.297 1.023-.253 1.062.212.191 1.735-1.695 2.455-3.041.892-1.669 1.024-2.795.446-3.797-.201-.348-1.219-1.265-2.262-2.038l-1.897-1.407.741-1.287.741-1.288.62.365c2.075 1.224 3.003 1.214 3.792-.04 3.071-4.881 4.043-11.804 2.614-18.617-.687-3.278-2.278-7.923-3.5-10.215-.937-1.76-3.05-4.625-5.402-7.326-6.37-7.313-10.793-10.686-20.665-15.762-2.039-1.048-12.492-5.556-13.332-5.75-.541-.125-.513-.068.28.572Zm-72.536 22.025c.205.183 4.095 1.342 7.57 2.255 2.764.726 11.689 2.234 15.922 2.69 3.4.367 11.41 1.73 15.973 2.72 6.367 1.381 9.231 1.974 13.453 2.784 5.002.96 5.608 1.12 12.257 3.215 7.952 2.506 9.848 3.202 11.705 4.295 1.856 1.094 2.17 1.508 2.137 2.816-.033 1.314-.373 2.085-1.298 2.945-.963.894-.557.894.93 0 1.492-.898 2.55-2.64 2.55-4.2 0-1.2-.169-1.554-1.348-2.82-2.572-2.757-6.517-4.68-14.384-7.012-2.938-.87-6.099-1.737-7.024-1.925-.924-.188-3.465-.69-5.645-1.115-2.18-.425-6.735-1.39-10.123-2.143-3.388-.754-7.388-1.576-8.888-1.827-1.501-.25-4.079-.684-5.731-.962-4.002-.676-8.359-1.117-14.893-1.507-5.246-.314-13.425-.444-13.163-.21Zm-1.711 1.016c-.011.445-.242 1.704-.515 2.798-.864 3.47-.418 4.064 3.535 4.71 1.433.235 4.443.853 6.689 1.373 2.246.52 7.273 1.485 11.17 2.144 3.898.66 9.357 1.642 12.131 2.185 4.827.943 14.948 3.531 18.497 4.73 6.246 2.108 12.488 3.627 17.055 4.148 3.508.401 7.138.695 7.257.588.303-.271-9.304-3.888-14.944-5.626a214.968 214.968 0 0 1-4.924-1.62c-1.652-.564-4.733-1.479-6.846-2.032a457.066 457.066 0 0 1-6.486-1.75c-3.047-.857-11.3-2.65-15.855-3.445-1.717-.3-4.203-.774-5.524-1.053-1.322-.279-3.916-.76-5.766-1.07-1.849-.31-4.227-.713-5.284-.896-1.061-.183-3.397-.347-5.213-.365-1.822-.018-3.398-.129-3.53-.248-.131-.118-.357-1.073-.502-2.122-.145-1.048-.413-2.21-.595-2.582l-.33-.676-.02.81Zm-24.882 12.34c-2.692.242-8.768 1.652-8.768 2.034 0 .085 1.248.278 2.773.43 2.372.237 2.749.327 2.609.618-.09.188-.216 1.188-.28 2.224-.064 1.036-.13 1.888-.147 1.894-.017.006-1.446.141-3.177.3-3.604.332-4.534.657-5.05 1.765-.444.95-.862 3.948-.765 5.476l.074 1.16 1.002-1.86c.552-1.022 1.275-2.245 1.608-2.718l.606-.859 4.037-.13c5.214-.17 9.115-.473 13.886-1.078l3.843-.489-.946-.364c-1.595-.615-4.821-.997-9.638-1.142l-4.602-.138.226-.882c.21-.82.138-2.016-.183-3.034-.131-.417-.021-.43 3.78-.43 2.154 0 5.606-.076 7.671-.169l3.754-.169.1 2.051c.106 2.165.503 3.105.746 1.764.075-.41.468-1.424.875-2.255.407-.83.739-1.841.739-2.247 0-1.215-.432-1.377-4.083-1.53-5.347-.224-9.67-.314-10.69-.222Zm23.804.882c2.597 1.096 13.068 3.077 21.341 4.036 2.6.302 14.711 2.439 22.596 3.987 3.159.62 11.37 2.688 17.536 4.415 1.849.518 5.038 1.395 7.086 1.95 6.11 1.653 9.569 3.105 10.389 4.362.533.816.56 2.983.052 4.073l-.369.791.608-.511c1.686-1.42 2.329-4.283 1.348-6.004-.752-1.32-3.599-3.343-6.663-4.732-5.801-2.632-25.722-7.7-38.635-9.83-1.189-.195-3.783-.679-5.765-1.074-7.3-1.455-14.306-2.069-24.24-2.124l-6.944-.04 1.66.701Zm-3.002.389c-.165.355-.502 2.115-.748 3.911-.496 3.616-.385 4.566.597 5.143.313.184 2.767.67 5.453 1.081 9.89 1.512 17.2 2.704 19.657 3.206 1.387.284 3.549.67 4.804.858 1.256.188 3.85.625 5.766.97 1.915.345 4.402.782 5.525.97 1.123.189 5.501 1.107 9.728 2.042 4.228.934 8.66 1.856 9.849 2.048 1.189.193 3.784.626 5.765.963 1.982.337 5.117.722 6.967.856l4.379.315c.559.04.964-.002.901-.095-.206-.299-5.157-2.08-9.844-3.544-5.027-1.568-20.125-5.015-28.254-6.45-2.774-.49-4.785-.882-14.385-2.802-7.715-1.544-12.288-2.178-18.633-2.582-2.765-.176-5.212-.322-5.438-.323-.284-.002-.456-.25-.564-.81a33.1 33.1 0 0 0-.497-2.044c-.189-.68-.43-1.94-.536-2.798-.186-1.509-.203-1.54-.492-.915Zm98.179 9.308c-.669.698-.678 1.158-.075 4.14.331 1.635.601 3.03.601 3.102 0 .071.108.13.241.13.132 0 .237-.219.234-.485-.006-.413.96-4.201 1.132-4.441.107-.15 2.655 1.05 4.444 2.094 2.702 1.575 5.842 3.146 8.436 4.22l2.356.976-.764-.953c-2.143-2.674-8.67-6.782-13.663-8.6-1.805-.657-2.449-.697-2.942-.183Zm-120.609 3.731c-2.115.2-4.84.839-7.14 1.672l-1.561.566 1.505.13c.828.073 1.534.17 1.568.217.035.048.024 1.176-.025 2.508l-.088 2.421-1.12.004c-1.09.003-3.174.338-5.306.853-.58.14-1.376.542-1.769.894l-.714.64.166 1.98c.091 1.088.25 2.317.352 2.731.179.724.217.667.954-1.444.744-2.13.792-2.2 1.542-2.302 1.758-.239 6.924-.594 11.27-.775 4.708-.197 6.071-.352 8.81-1.004 1.343-.32 1.461-.387.962-.553-1.54-.51-6.422-1.068-10.312-1.179l-4.217-.12.31-1.348c.207-.9.241-1.678.103-2.338l-.206-.989 7.176-.027 7.535-.027c1.071 0 1.049-.053 1.004 2.518-.03 1.73.047 2.545.258 2.733.24.216.3.195.3-.104 0-.205.486-1.475 1.081-2.822 1.815-4.113 1.716-4.248-3.483-4.728-3.968-.367-5.962-.39-8.955-.107Zm26.669 1.615c-.053.047-1.493.095-3.2.106l-3.104.02 1.081.494c1.186.543 7.412 1.881 10.449 2.247 1.057.127 4.246.48 7.087.783 9.36 1 14.117 1.598 16.986 2.132 3.032.565 5.84 1.066 13.995 2.498 2.837.498 5.593 1.032 6.125 1.186 8.6 2.483 11.831 3.468 13.663 4.164 1.209.46 3.367 1.137 4.796 1.505 5.172 1.333 6.538 2.359 5.898 4.433-.368 1.194-1.138 1.76-2.822 2.072-1.874.346-1.45.608.991.613 1.809.003 1.889-.02 2.839-.788 1.673-1.354 2.421-3.266 1.913-4.891-.541-1.732-3.525-3.834-7.333-5.167a147.104 147.104 0 0 1-4.084-1.529c-2.892-1.132-14.25-4.194-18.295-4.933-1.597-.291-4.944-.831-7.438-1.2-2.494-.37-5.507-.865-6.696-1.103-5.589-1.116-13.593-2.215-18.501-2.542-3.172-.21-14.141-.287-14.35-.1Zm-6.28 4.509c-.382.768-.745 1.86-.806 2.425-.094.872-.017 1.129.501 1.68.814.867 1.902 1.265 5.205 1.906 1.52.294 4.114.879 5.766 1.299 2.873.73 11.551 2.262 17.655 3.115 1.586.222 3.964.599 5.285.839l4.925.889c1.387.25 4.305.787 6.485 1.193 2.18.407 5.207.894 6.726 1.085 2.73.341 10.574.726 10.566.518-.024-.592-18.457-5.798-23.267-6.57a1111.687 1111.687 0 0 1-14.803-2.504c-12.064-2.157-14.885-2.565-18.928-2.738-2.458-.105-4.141-.269-4.309-.42-.173-.155-.258-.962-.229-2.185.026-1.067.019-1.937-.014-1.934-.034.003-.375.634-.758 1.402Zm97.881 4.11c-.649.74-.641 1.83.034 4.643l.531 2.214.58-2.26c.319-1.242.601-2.282.627-2.31.042-.046 10.049 3.77 11.723 4.471.771.322.758.257.317 1.621-.395 1.22-.742 3.536-.53 3.536.407 0 1.214-1.981 1.337-3.279l.137-1.449 1.261.525c.742.309 1.261.425 1.261.283 0-.494-3.829-3.54-5.664-4.506-3.061-1.61-3.966-2.026-5.746-2.64-.925-.32-2.188-.77-2.807-.999-1.58-.586-2.452-.544-3.061.15Zm-122.287 3.443c-1.712.126-7.066.974-7.284 1.153-.109.09.566.33 1.501.536.935.205 1.699.395 1.699.423 0 .027-.216.807-.48 1.733s-.481 2.308-.481 3.072v1.389l-1.02-.13c-.562-.072-2.188-.142-3.614-.157-3.795-.039-4.052.285-3.426 4.31.205 1.32.374 2.789.374 3.265 0 .477.099.812.221.744.332-.184 1.42-3.295 1.602-4.58.088-.619.281-1.212.429-1.316.148-.104 1.353-.246 2.678-.314 2.457-.128 6.081-.691 6.438-1 .109-.095-.521-.3-1.4-.457-1.791-.319-1.7-.084-.953-2.459.288-.918.364-1.697.262-2.696l-.143-1.406 2.579.26c1.419.143 4.012.328 5.762.412 1.751.084 3.183.205 3.183.268 0 .336-3.341 4.001-3.96 4.344-.398.221-1.481.524-2.406.674l-1.681.272 1.201.261c2.801.607 4.21.265 7.484-1.816 2.303-1.465 4.106-3.139 4.433-4.118.218-.65.195-.92-.123-1.471-.214-.37-.577-.762-.807-.87-.434-.202-10.174-.465-12.068-.326Zm26.826 2.108-4.042.23 1.4.49c.769.27 2.534.685 3.921.923 1.388.237 2.91.525 3.383.638.979.235 10.053 1.638 12.592 1.948.924.112 3.735.452 6.245.754 8.344 1.004 17.716 2.519 25.202 4.075.809.168 2.712.641 4.229 1.051 1.517.411 3.839.991 5.16 1.29 2.897.654 12.34 3.351 13.894 3.967.611.242 1.492.7 1.956 1.018.996.68 1.11 1.477.391 2.74-.54.949-.486.978.442.237.808-.645 1.454-1.748 1.453-2.484 0-.669-1.881-2.791-3.306-3.731-1.83-1.206-8.918-4.311-11.496-5.035-7.237-2.034-16.506-3.812-32.04-6.145-8.727-1.31-12.207-1.74-15.854-1.956-3.688-.22-9.78-.224-13.53-.01Zm-4.841 1.434c.806 1.223 3.164 4.289 3.683 4.788 1.151 1.109 3.518 2.683 5.18 3.446 2.834 1.301 8.945 2.737 15.273 3.591 7.155.965 16.665 2.423 20.299 3.112 7.697 1.459 13.031 2.515 15.734 3.117 3.052.68 9.371 1.594 10.029 1.451.397-.086-7.121-3.505-10.548-4.797-4.094-1.544-12.997-3.331-28.427-5.708-4.624-.712-9.597-1.577-11.05-1.922-1.453-.344-3.453-.734-4.444-.865-5.697-.756-9.421-2.066-13.01-4.576-2.64-1.846-3-2.063-2.719-1.637Zm99.804.81c0 .135.126.246.279.246.153 0 1.748.855 3.543 1.9 1.796 1.045 4.616 2.561 6.267 3.369 4.112 2.012 5.872 3.039 6.757 3.942.745.76.75.784.601 2.504l-.151 1.736.847-1.183c1.11-1.549 1.407-2.553 1.079-3.645-.209-.695-.609-1.094-2.231-2.229-3.843-2.688-7.192-4.382-11.544-5.838-2.454-.822-5.447-1.262-5.447-.802Zm-2.26 4.872c-.992.96-1.403 4.214-.832 6.598l.27 1.13.526-1.603c.288-.882.823-2.122 1.187-2.755.651-1.134.674-1.149 1.546-1.019.487.073 3.803 1.437 7.37 3.032 3.568 1.594 6.811 2.96 7.207 3.035.658.125.564-.008-1.081-1.521a31.692 31.692 0 0 0-8.528-5.606c-4.173-1.853-6.651-2.271-7.665-1.291Zm-125.813 5.808c-1.144.167-2.702.466-3.462.664-1.509.393-1.432.583.343.845 1.01.149 1.04.177.9.805-.079.357-.145 1.509-.145 2.56v1.91h-2.49c-2.803 0-3.509.28-4.145 1.643-.401.86-.43 3.088-.061 4.631l.271 1.13.519-1.613c.286-.887.738-1.948 1.005-2.357l.485-.744 4.31-.017c5.138-.021 9.343-.234 11.156-.565l1.321-.242-1.801-.516c-2.576-.737-4.689-1.104-7.321-1.27-1.948-.122-2.281-.197-2.186-.489.294-.911.371-2.391.179-3.423l-.213-1.142 1.227.114c.675.062 2.308.172 3.63.244 1.321.071 3.132.276 4.024.453 2.212.441 2.82 1.02 3.686 3.509.372 1.068.761 1.866.866 1.772.104-.093.26-1.058.346-2.144.257-3.244-.565-4.469-3.661-5.45-1.851-.588-5.903-.73-8.783-.308Zm34.207 1.499c-1.092.162-2.76.505-3.709.763-1.48.403-1.913.644-3.06 1.702-1.193 1.1-3.561 4.449-3.308 4.676.055.049.756-.436 1.559-1.078 2.2-1.759 3.504-2.485 4.879-2.719 1.575-.268 5.224-.265 8.025.005 1.189.114 3.405.308 4.924.43 6.402.514 11.386 1.207 18.857 2.619 4.36.825 9.711 1.825 11.891 2.222 6.005 1.096 17.086 3.824 20.535 5.057 4.322 1.545 7.423 2.951 8.662 3.928 1.256.992 1.39 1.761.563 3.238l-.508.906.897-.753c.978-.822 1.56-1.826 1.56-2.694 0-2.502-5.889-6.841-12.563-9.257-2.391-.866-10.963-2.894-16.864-3.991-2.378-.442-7.945-1.494-12.371-2.338-10.432-1.99-16.809-2.792-23.181-2.917-3.384-.066-5.391-.006-6.788.201Zm91.825 1.345c2.213 1.881 7.034 4.529 14.256 7.83l2.967 1.356-.144.766c-.079.422-.213 1.3-.297 1.951l-.153 1.184 1.354-1.819c.745-1.001 1.354-1.94 1.354-2.088 0-.7-.68-1.437-1.903-2.062-.737-.376-2.529-1.378-3.982-2.225-3.383-1.972-6.035-3.161-9.092-4.077-2.539-.76-4.79-1.182-4.36-.816Zm-3.877 5.31c-.566.436-.675.707-.759 1.893-.083 1.162.484 4.644 1.045 6.422.056.178.833.822 1.726 1.432 3.035 2.072 6.811 3.872 11.863 5.655 3.684 1.3 3.654 1.265 3.527 4.235l-.103 2.433.471-.69c1.064-1.559 2.081-3.736 2.081-4.456 0-1.05-.485-1.584-2.231-2.455-3.159-1.575-9.987-4.31-13.226-5.296-1.861-.567-3.423-1.135-3.47-1.261-.128-.343.906-4.838 1.167-5.076.143-.129 1.706.336 4.249 1.266 2.212.809 4.995 1.805 6.184 2.215 1.189.409 2.21.786 2.268.838.058.051-.145.551-.45 1.111-.504.922-1.005 3.707-.667 3.707.258 0 1.612-3.432 1.612-4.086 0-.57.071-.642.54-.547 2.122.432 2.815.534 3.649.539l.947.005-1.307-.713a140.7 140.7 0 0 1-2.671-1.504c-3.831-2.218-13.589-6.176-15.228-6.176-.306 0-.854.229-1.217.509Zm-95.755 2.63c2.465 1.054 7.446 2.305 10.632 2.669 1.123.129 3.068.418 4.324.644 1.255.225 3.417.515 4.804.644a77.75 77.75 0 0 1 4.924.647c1.321.226 4.402.709 6.846 1.073 2.445.364 5.255.8 6.246.97.991.17 2.666.418 3.723.551 1.057.133 3.489.516 5.405.85 1.916.335 4.672.77 6.126.967 1.453.197 3.993.647 5.645 1.001 2.419.519 10.153 1.689 11.17 1.691.463 0-2.435-1.38-5.765-2.746-4.85-1.989-7.777-2.98-10.669-3.611a2200.07 2200.07 0 0 0-4.521-.984c-1.904-.413-7.096-1.226-16.314-2.555-2.397-.346-5.436-.825-6.752-1.066-3.808-.695-9.994-1.14-16.994-1.222-3.567-.042-7.277-.174-8.245-.293-2.875-.355-2.959-.245-.585.77Zm-27.443 2.68c-2.236.223-5.164.825-5.164 1.063 0 .091.432.227.961.303.528.075.959.16.957.189-.001.028-.217.665-.48 1.415-.296.847-.477 1.969-.477 2.959v1.595h-2.29c-4.411 0-5.05.77-4.145 4.992.275 1.284.553 2.287.617 2.229.065-.057.363-1.04.664-2.183.301-1.144.709-2.224.906-2.401.31-.277.78-.288 3.444-.079 4.798.377 10.754.532 13.632.355l2.619-.161-1.778-.696c-2.893-1.133-7.973-2.043-11.452-2.052l-1.506-.004.161-.592c.089-.325.314-.979.501-1.452.186-.474.402-1.522.479-2.329.137-1.419.161-1.464.719-1.338 2.005.451 8.909 1.095 13.392 1.25l1.431.049-.046 3.121-.047 3.121.513-.969c.282-.532 1.101-2.05 1.821-3.373 1.713-3.149 1.548-3.687-1.224-3.97-.812-.083-2.719-.345-4.239-.583-3.375-.529-7.399-.714-9.969-.459Zm24.641 2.478c-1.981.385-2.43.742-.933.742.606 0 2.12.237 3.365.527 1.244.289 3.824.779 5.731 1.087 1.908.309 4.172.699 5.03.867 2.799.548 10.629 1.564 16.695 2.167 2.819.28 11.577 1.902 15.014 2.779 2.048.523 4.804 1.143 6.125 1.378 2.553.453 17.533 3.799 17.887 3.995.115.064 1.913.505 3.996.979 2.68.611 4.027 1.028 4.611 1.427.763.521.817.635.709 1.492-.112.895-.623 1.957-1.695 3.527l-.511.748.826-.527c1.312-.837 2.677-2.187 3.153-3.121.539-1.053.575-2.496.085-3.345-.445-.772-2.304-2.119-3.604-2.613-4.194-1.593-8.622-3.034-11.044-3.591-5.332-1.229-10.794-2.367-12.981-2.704-2.259-.348-4.917-.928-7.512-1.638-4.293-1.175-17.71-3.089-28.63-4.084-5.645-.514-13.905-.561-16.317-.092Zm-2.421 2.656c0 .225-.324 1.091-.72 1.925-.895 1.884-.94 3.004-.147 3.671.498.42.963.507 3.579.673 1.653.105 3.692.333 4.531.507.839.174 2.444.422 3.567.551 2.075.24 5.81.907 15.734 2.812 3.039.584 6.498 1.217 7.687 1.407 1.189.191 3.297.676 4.684 1.077 3.794 1.098 15.328 3.463 18.737 3.842 1.652.183 4.408.522 6.126.752 3.277.439 8.287.81 8.287.613 0-.154-4.684-1.907-8.276-3.097-1.591-.527-4.191-1.237-5.777-1.578-1.585-.341-3.747-.865-4.804-1.164-1.057-.3-3.749-.938-5.983-1.418-2.234-.481-5.423-1.258-7.086-1.727-1.664-.469-4.599-1.139-6.522-1.487-1.923-.349-4.355-.827-5.404-1.062-1.05-.236-3.152-.635-4.671-.886-1.52-.252-4.058-.7-5.642-.996-1.766-.331-4.411-.62-6.846-.749-2.182-.116-4.148-.261-4.368-.322-.37-.102-2.735.108-5.184.461l-1.021.147v-2.18c0-1.309-.096-2.18-.24-2.18-.133 0-.241.184-.241.408Zm97.965 3.424c-.868.925-1.084 3.908-.532 7.36l.155.968.65-1.829c.358-1.006.899-2.34 1.204-2.965.626-1.286.43-1.272 3.251-.217 4.621 1.728 7.783 2.809 8.991 3.072 1.437.313 4.298.648 4.1.48-.31-.264-6.364-3.56-8.287-4.513-2.384-1.18-6.723-2.738-8.068-2.896-.732-.086-.952-.006-1.464.54Zm-127.751 5.608-1.081.143 1.407.487c3.154 1.093 9.205 2.217 13.642 2.535 1.143.082 2.214.224 2.38.316.258.143.626 2.543.69 4.502.024.735.294.383 1.15-1.496.9-1.977 1.19-3.652.784-4.53-.356-.769-.708-.862-5.76-1.516-3.814-.495-11-.734-13.212-.441Zm142.146 2.398c-.357.651-.718 1.727-.802 2.391l-.152 1.207-2.075-.731c-1.141-.402-2.664-.886-3.384-1.074-2.072-.542-7.698-1.527-7.698-1.347 0 .28 2.207 1.621 3.963 2.407 2.211.991 5.226 2.091 8.047 2.937 1.256.376 2.877 1.002 3.604 1.391l1.321.708v1.871c0 2.11.073 2.103 1.34-.123.973-1.708.928-2.411-.215-3.376-.742-.625-3.404-2.187-4.155-2.438-.095-.031.094-.768.42-1.636.367-.975.563-1.922.514-2.475l-.079-.896-.649 1.184Zm-111.519.856c-1.585.089-3.089.174-3.343.19-.771.049-.327.219 2.322.885 5.021 1.263 13.409 2.567 24.322 3.781 8.923.992 13.476 1.665 21.019 3.106l7.327 1.403c4.358.836 9.876 2.12 14.292 3.324 1.652.451 4.408 1.132 6.126 1.514 3.504.78 5.645 1.722 5.645 2.485 0 .536-1.445 2.755-2.358 3.62-.355.336-.952.755-1.328.931-.375.175-.623.373-.55.439.231.206 2.596-.59 3.494-1.177 4.159-2.717 4.705-5.048 1.733-7.396-1.35-1.066-2.103-1.419-5.45-2.56-4.39-1.495-12.642-3.452-20.403-4.838a596.65 596.65 0 0 1-5.165-.946c-7.202-1.362-22.889-3.577-31.228-4.409-3.917-.391-12.494-.574-16.455-.352Zm-5.058 5.316c-.098 1.044-.189 2.454-.2 3.133-.034 1.912.337 2.133 4.898 2.923 2.048.355 4.588.71 5.645.789 1.057.078 2.949.276 4.204.439 1.255.163 3.687.404 5.405.534 7.031.534 12.473 1.366 23.901 3.657 2.312.464 5.285 1.035 6.606 1.27 1.321.235 3.861.718 5.645 1.073 3.235.645 9.72 1.591 12.79 1.867.891.08 2.242.072 3.003-.017l1.382-.161-1.681-.475c-.925-.262-2.871-.917-4.324-1.456-3.848-1.428-12.815-3.937-15.992-4.474-1.51-.256-6.42-1.187-10.912-2.068-14.242-2.796-22.41-3.736-32.473-3.736-5.554-.001-6.059-.031-6.172-.377-.068-.207-.411-1.345-.763-2.529-.353-1.184-.673-2.183-.712-2.221-.038-.039-.151.785-.25 1.829Zm-30.935-.992c-.425.544-.484 1.693-.18 3.536l.177 1.076.292-.646c.161-.355.465-1.057.675-1.56.252-.601.529-.915.807-.915.233 0 1.867.185 3.631.41 6.571.84 13.953 1.078 16.268.524.511-.123.454-.176-.548-.517-1.654-.563-5.742-1.499-8.069-1.848-1.123-.169-4.43-.366-7.348-.438l-5.306-.132-.399.51Zm130.019.829c-.386.346-.712.855-.724 1.13-.051 1.146.079 2.536.385 4.125.18.928.274 1.808.211 1.956-.064.148.051.394.256.546.204.151.371.415.371.585 0 .17.106.25.236.178.13-.072.906.276 1.723.774 1.986 1.208 7.583 3.584 11.271 4.784 1.641.535 3.188 1.043 3.436 1.129.412.144.44.34.32 2.207-.148 2.299-.136 2.296 1.295-.287 1.323-2.388.974-3.318-1.566-4.174-.671-.226-2.788-1.09-4.704-1.92-3.58-1.552-7.4-2.805-10.034-3.293-1.364-.252-1.496-.325-1.495-.825.002-.478.787-3.758 1.069-4.459.123-.309 2.423.204 5.415 1.209 1.123.377 3.281 1.023 4.796 1.435 1.515.411 2.786.777 2.825.812.04.036-.149.511-.418 1.057-.54 1.093-.979 4.732-.525 4.347.498-.422 1.298-2.605 1.461-3.982.106-.903.266-1.38.45-1.347.157.028 1.072.11 2.034.182l1.748.13-2.041-1.115c-4.053-2.213-8.27-3.841-13.398-5.172-3.079-.8-3.516-.801-4.397-.012Zm-129.818 5.151-1.441.139 1.441.606c2.583 1.086 7.236 2.042 13.283 2.73 4.681.533 5.533.736 5.692 1.352.067.263.15 1.397.182 2.522l.06 2.044.958-1.722c.838-1.507.958-1.908.961-3.217.004-1.78.16-1.67-3.961-2.79-4.529-1.231-7.553-1.674-11.89-1.742-2.114-.033-4.492.002-5.285.078Zm34.231 3.981c-2.621.242-2.719.268-1.922.514.462.143 2.516.606 4.564 1.03 17.57 3.633 15.664 3.318 26.064 4.302 4.772.452 12.9 1.696 18.376 2.813 2.576.526 5.225 1.06 5.885 1.187.661.128 2.071.462 3.134.744 1.063.282 3.363.801 5.112 1.155 3.724.752 10.276 2.669 12.611 3.688 3.218 1.406 3.859 2.998 2.2 5.466-.465.691-.809 1.29-.764 1.329.162.146 2.834-2.137 3.145-2.688.949-1.68.614-3.582-.902-5.125-2.529-2.575-9.033-5.399-14.807-6.431-1.651-.295-3.759-.721-4.684-.946-2.168-.528-12.877-2.509-16.455-3.044a393.382 393.382 0 0 1-5.35-.845 114.612 114.612 0 0 0-5.765-.764c-1.748-.183-5.826-.675-9.063-1.095-11.363-1.473-16.224-1.767-21.379-1.29Zm-6.481 1.646c-.005.296-.332 1.7-.726 3.12-.9 3.244-.921 4.166-.113 5.027.681.724 1.864 1.121 4.918 1.649 1.123.194 2.644.489 3.381.655.737.166 3.061.503 5.165.748a3286.12 3286.12 0 0 0 16.076 1.833c7.865.871 13.569 1.659 17.776 2.455 2.51.475 6.347 1.201 8.527 1.612 2.18.412 4.829.855 5.886.985 1.057.13 3.218.421 4.804.647 2.787.396 9.733.821 9.488.579-.198-.195-8.87-3.181-10.809-3.721-3.245-.903-10.656-2.652-12.251-2.891-.859-.128-3.453-.566-5.765-.972-3.5-.616-11.392-1.688-15.855-2.155-1.064-.111-4.801-.626-12.371-1.704-2.114-.3-5.086-.648-6.606-.772a119.306 119.306 0 0 1-4.324-.428 31.593 31.593 0 0 0-3.287-.206c-.949-.003-2.003-.099-2.342-.214-.556-.19-.616-.324-.616-1.365 0-1.451-.468-4.669-.741-5.097-.156-.245-.208-.193-.215.215Zm-30.179.149c-.279.048-.798.36-1.153.692-.563.526-.738 1.06-1.354 4.132-.753 3.748-.877 5.927-.441 7.748.22.919.191 1.471-.162 3.077-.963 4.386-.027 8.694 2.939 13.528.598.975 1.502 2.257 2.008 2.849 1.152 1.348 4.796 4.769 4.795 4.503-.001-.109-.648-1.392-1.438-2.851-2.355-4.348-5.964-13.469-6.615-16.717-.214-1.066-.535-2.391-.714-2.945-.494-1.531.004-3.215 2.088-7.062l1.755-3.242 1.442.117c.792.064 2.9.362 4.684.663 1.783.3 4.078.684 5.098.852 2.355.389 8.354.673 8.354.396 0-.744-13.009-4.583-18.136-5.352-1.057-.159-2.084-.331-2.282-.383-.199-.052-.589-.054-.868-.005Zm130.59 2.213c-.676.606-.847 1.343-.847 3.664 0 2.162.533 4.746.878 4.258.108-.152.198-.538.2-.857.004-.716 1.077-3.808 1.501-4.328.291-.356.471-.32 2.857.576 1.4.525 3.989 1.405 5.753 1.955 1.764.55 3.246 1.034 3.293 1.076.047.042-.158.497-.455 1.012-.4.692-.568 1.424-.647 2.818-.077 1.36-.194 1.884-.421 1.884-.173 0-1.622-.439-3.221-.975-3.193-1.07-8.657-2.308-8.657-1.961 0 .277 3.522 2.364 5.405 3.203 2.698 1.202 3.979 1.575 6.774 1.975 3.15.45 3.756.912 3.756 2.865 0 .387.042.704.093.704.052 0 .316-.45.587-.999.545-1.105.489-2.126-.167-3.023-.429-.587-2.563-1.569-3.416-1.572-.666-.003-.669-.132-.036-1.437.314-.647.554-1.713.635-2.821.109-1.499.191-1.765.516-1.684.213.053.765.16 1.227.236.463.077 1.057.194 1.321.26.474.119.475.114.021-.34-1.398-1.403-9.543-5.276-13.609-6.472-1.885-.554-2.737-.558-3.341-.017Zm-124.535 9.067c-.751.529-2.076 2.792-2.705 4.618-.586 1.7-.585 7.82.002 10.102 1.038 4.04 2.152 6.62 3.238 7.499l.489.396-.347-1.035c-.191-.568-.456-2.659-.589-4.645-.198-2.949-.174-4.141.132-6.507.206-1.594.516-3.263.689-3.709l.313-.812.165 1.628c.091.896.1 2.153.021 2.793-.342 2.777.812 11.005 2.096 14.938.63 1.928 1.808 4.021 3.065 5.446 2.319 2.629 6.135 5.465 9.234 6.863 1.523.687 6.301 2.218 6.921 2.218.143 0-1.025-.762-2.596-1.694-2.746-1.629-5.561-3.934-7.921-6.484-1.575-1.703-3.618-4.649-4.277-6.167-1.127-2.599-2.358-9.809-2.272-13.311.021-.849.024-.846.213.216.105.592.318 2.036.473 3.209.299 2.252 1.736 7.002 2.726 9.008.798 1.615 3.026 4.611 4.52 6.075.673.66 1.261 1.167 1.305 1.127.045-.04-.332-.939-.838-1.998-1.841-3.858-2.425-5.74-3.015-9.738-.597-4.034-.945-9.975-.628-10.696.114-.26.257.849.359 2.797.376 7.13 1.208 10.944 3.522 16.142 1.578 3.546 2.712 5.134 5.38 7.536 4.214 3.794 8.546 6.41 13.812 8.34 3.387 1.241 3.376 1.155-.145-1.204-2.467-1.653-4.207-3.049-6.399-5.135-6.541-6.226-8.095-8.368-9.889-13.626-1.505-4.414-1.686-5.744-1.638-12.053.047-6.16-.121-7.242-1.318-8.517-.739-.786-2.265-1.479-3.275-1.486-1.76-.012-3.347 1.493-4.254 4.034l-.44 1.235-.013-2.02c-.017-2.618-.347-3.549-1.706-4.812-1.054-.98-1.159-1.024-2.434-1.024-.992 0-1.498.116-1.976.453Zm22.114 4.389c-1.22.379-1.963 1.033-2.674 2.356-.973 1.808-1.17 3.57-1.012 9.047.153 5.292.456 7.171 1.728 10.706.762 2.121 1.616 3.515 3.132 5.117 1.075 1.136 3.653 2.923 3.899 2.703.065-.058-.221-.452-.636-.876-1.71-1.745-2.962-4.651-3.556-8.25-.701-4.247-.373-16.316.423-15.596.38.344.697 3.026.699 5.908.006 8.65 2.022 15.313 6.083 20.092 1.62 1.908 5.085 4.609 7.191 5.605 1.714.812 12.696 4.883 12.836 4.758.106-.095-6.465-4.48-8.926-5.956-2.273-1.363-5.722-4.285-7.334-6.213-1.434-1.715-3.157-4.631-3.83-6.48-1.109-3.048-1.449-5.75-1.533-12.159-.064-4.951-.151-6.227-.486-7.147-1.008-2.767-3.636-4.349-6.004-3.615Zm99.088.984c-.255.245-.532.753-.616 1.129-.151.676.574 5.313.83 5.313.073 0 .402-.993.729-2.206.562-2.076.635-2.21 1.241-2.274.355-.037 2.513.464 4.797 1.114 3.819 1.086 4.884 1.36 6.738 1.734l.663.134-.521.91c-.337.59-.561 1.462-.635 2.476-.095 1.311-.177 1.55-.502 1.469-.214-.054-.875-.161-1.47-.238-.594-.078-2.648-.47-4.564-.872-5.599-1.176-6.486-1.337-6.486-1.181 0 .22 4.458 2.459 6.126 3.077.792.294 2.449.854 3.682 1.244 1.232.39 2.664.985 3.182 1.321.795.516.943.733.943 1.384 0 1.887-2.572 8.099-4.892 11.816-4.244 6.799-12.558 13.776-18.89 15.85l-1.801.59 1.561.01c6.275.043 16.357-5.336 20.587-10.984 1.8-2.402 3.039-4.388 4.151-6.652 3.38-6.879 3.848-8.127 3.848-10.274 0-1.487-.339-2.534-1.054-3.258-.516-.523-2.755-1.532-3.397-1.532-.446 0-.446-.356.002-1.493.195-.497.426-1.528.514-2.292.13-1.137.229-1.372.545-1.29.678.175 3.15.395 3.15.28 0-.207-3.522-2.077-5.185-2.752-2.924-1.188-6.16-2.164-8.576-2.587-3.086-.54-4.111-.533-4.7.034Zm-85.752.853c-1.051.211-2 1.052-2.875 2.545-1.465 2.502-1.611 3.201-1.602 7.671.008 4.332.241 6.089 1.225 9.235.745 2.385 1.508 3.752 2.642 4.74.902.784 4.418 2.771 4.606 2.603.058-.052-.457-.655-1.144-1.341-1.668-1.666-2.448-2.895-2.833-4.464-.461-1.882-.642-7.948-.33-11.096.288-2.911.544-3.983 1.109-4.637.359-.417.365-.417.725 0 .549.637.807 1.642 1.33 5.175l.837 5.635c.198 1.324.743 3.745 1.211 5.381 1.496 5.228 3.757 8.624 8.164 12.261 4.063 3.353 5.702 4.391 8.844 5.599 2.026.779 12.98 4.163 13.453 4.157.329-.005-2.106-1.438-8.631-5.08-4.643-2.591-5.224-2.99-8.903-6.108-4.38-3.713-5.418-4.838-6.824-7.394-1.39-2.529-2.789-7.619-3.115-11.33-.643-7.327-.874-8.65-1.815-10.427-1.123-2.122-3.917-3.559-6.074-3.125Zm16.386 2.557c-1.172.477-1.963 1.349-2.967 3.273-1.202 2.3-1.508 4.087-1.381 8.045.12 3.71.358 4.728 1.669 7.137.754 1.387 1.979 2.87 2.37 2.87.125 0 .073-.218-.117-.484-.611-.859-1.199-4.016-1.172-6.295.038-3.113 1.024-6.859 2.378-9.029.882-1.414 1.11-1.517 1.952-.882.912.687 1.041.994 2.225 5.284 1.584 5.736 3.454 9.7 6.009 12.739 1.974 2.349 6.069 5.43 11.227 8.448 3.253 1.903 9.904 5.16 9.904 4.849 0-.095-1.216-1.123-2.703-2.285-4.708-3.68-14.264-12.283-15.492-13.947-2.168-2.937-3.63-6.59-4.839-12.088-.849-3.868-1.357-4.925-2.997-6.249-2.162-1.745-4.098-2.187-6.066-1.386Zm3.557 25.998c1.765 2.298 5.313 5.555 7.724 7.092 2.111 1.345 4.27 2.362 9.886 4.657 4.372 1.786 4.964 1.951 6.51 1.808 1.385-.128 3.941-1.22 5.38-2.299l.841-.63-1.326.307c-2.312.534-4.441.727-5.56.503-.572-.115-2.554-1.014-4.404-1.998a3540.76 3540.76 0 0 0-6.606-3.507 224.308 224.308 0 0 1-6.846-3.829c-3.979-2.331-6.545-3.764-6.745-3.764-.071 0 .444.747 1.146 1.66Zm-20.68 12.007c-.64 4.15-2.006 10.929-2.907 14.42-1.555 6.027-2.29 10.15-2.64 14.815-.39 5.195.34 7.536 3.175 10.188 1.376 1.287 5.457 4.223 6.697 4.817.652.313.669.338-2.007-2.905-2.809-3.402-3.863-5.318-3.984-7.236-.135-2.139 1.069-10.564 2.475-17.312.32-1.539.711-3.815.869-5.058.477-3.769-.004-9.566-1.055-12.698l-.325-.968-.298 1.937Zm63.993 3.565c-6.396.152-7.325.264-10.53 1.261-1.47.458-4.106 1.718-3.928 1.877.057.052 2.739-.001 5.96-.117 7.34-.263 10.297-.754 13.602-2.255 1.076-.487 1.887-1.068 1.336-.955-.107.022-3.005.107-6.44.189Zm10.892.453c-.219.415-1.204 1.908-2.191 3.318-4.233 6.055-8.51 14.639-9.909 19.889-.331 1.243-.77 2.841-.975 3.551-.206.711-.47 1.763-.587 2.339-.38 1.869-.991 3.203-2.904 6.336-2.252 3.689-2.572 4.121-4.152 5.601-1.965 1.841-3.906 2.495-5.564 1.874l-.883-.331.357.484c.669.907 1.821 1.328 3.654 1.336 1.472.007 1.885-.086 3.176-.712 1.929-.937 3.854-2.637 4.799-4.24.414-.704 1.143-2.368 1.619-3.697.961-2.683 1.131-4.826.508-6.394-.327-.822-.314-.881.431-1.907 1.094-1.507 4.047-6.525 7.372-12.526 3.765-6.797 6.04-12.767 5.732-15.047l-.085-.628-.398.754Zm-35.588 6.421c-3.092 6.49-5.392 13.088-7.69 22.059-1.411 5.506-1.725 7.098-1.982 10.023-.313 3.561.682 5.027 5.828 8.593 1.428.99 2.682 1.864 2.786 1.942.23.172-4.704-.972-5.714-1.325-1.69-.591-5.138-4.535-5.626-6.434-.309-1.199-.319-7.554-.017-10.431.492-4.677.541-6.519.241-9.014-.168-1.392-.387-2.452-.487-2.355-.19.184-2.33 7.992-2.969 10.831-.313 1.39-.66 4.366-.964 8.255-.157 2.013.254 4.362.971 5.542.814 1.34 4.259 4.286 5.814 4.973 1.036.457 1.419.492 5.439.492 3.688 0 4.439.056 5.104.382.43.21.781.335.781.276 0-.058-.506-.616-1.125-1.241-1.379-1.391-5.015-5.774-5.766-6.95-.649-1.016-.689-1.962-.205-4.812.34-1.999.61-2.756.61-1.708 0 .841.939 5.579 1.249 6.305.486 1.136 1.087 1.728 2.397 2.365l1.279.621-.77-.79c-1.22-1.251-1.396-2.101-1.07-5.159.155-1.448.393-4.327.529-6.398.285-4.311.308-4.376 3.081-8.581 1.819-2.759 3.154-5.053 3.154-5.419 0-.35-4.157 2.898-5.786 4.522l-1.411 1.406.481-1.506c1.978-6.19 3.314-12.688 3.728-18.133.092-1.213.12-2.206.061-2.206-.058 0-.936 1.744-1.951 3.875Zm-29.823 6.828c-.809.184-1.513.702-1.777 1.306-.723 1.655-1.06 13.585-.524 18.518.232 2.137.919 6.087 1.084 6.235.387.346 1.722-8.658 2.292-15.455.273-3.255.605-6.152.738-6.436l.243-.518 5.452.152c3 .084 6.102.231 6.895.326.793.096 1.485.141 1.538.099.207-.158-3.829-1.659-7.244-2.695-4.45-1.349-7.298-1.85-8.697-1.532Zm42.277.957c-.941.445-3.887 2.908-3.689 3.085.056.051.745-.144 1.53-.432.786-.289 1.977-.636 2.647-.772 1.622-.331 2.239-.032 4.349 2.101 2.665 2.695 4.473 4.382 4.586 4.281.216-.194-1.192-3.554-1.981-4.728-2.435-3.623-4.838-4.765-7.442-3.535Zm-36.241 6.189c-.22.643-.401 1.258-.401 1.368 0 .11-.693 1.521-1.541 3.136-2.107 4.016-2.299 5.865-.802 7.748.298.374.837 1.045 1.198 1.492.361.446.763 1.313.893 1.926s.375 1.315.544 1.56c.393.568 1.686.916 3.071.826l1.081-.071-1.201-.538-1.201-.538-.13-1.937c-.115-1.719-.232-2.106-1.042-3.443-.866-1.428-.906-1.58-.771-2.906.079-.769.368-2.028.643-2.798.648-1.816.813-4.284.389-5.811l-.328-1.183-.402 1.169Zm36.804.735c-1.409.349-3.366 1.468-4.123 2.358-.915 1.077-1.73 2.656-2.575 4.992-.645 1.783-.8 2.599-.901 4.756-.182 3.895.42 6.399 1.685 7.003.454.217.496.209.27-.048-.545-.62-.544-1.462.002-3.873.769-3.393 3.569-9.55 5.061-11.129.85-.9 2.266-1.551 3.37-1.551 1.675 0 3.829 1.146 4.522 2.406l.393.714.006-.828c.02-2.999-4.249-5.657-7.71-4.8Zm-31.814 2.053c-1.199.488-2.578 1.893-2.95 3.007-.352 1.05-.36 3.65-.016 5.318.268 1.305 1.087 3.048 1.839 3.913.406.467.418.398.347-2.045-.041-1.39.023-3.62.142-4.954.197-2.211.279-2.497.922-3.229.443-.503 1.374-1.101 2.5-1.606l1.794-.803-1.802.001c-1.235.001-2.108.126-2.776.398Zm35.883 6.47c-3.165 2.863-4.12 4.081-5.638 7.196-.583 1.197-1.286 2.55-1.562 3.005-.468.773-.471.814-.052.608.625-.306 2.378-1.997 4.056-3.911.778-.888 1.756-2.002 2.173-2.475 2.246-2.549 4.133-5.761 3.907-6.651-.048-.188-1.177.685-2.884 2.228Zm-47.174 12.992c-.325.753.039 4.295.545 5.313l.482.968.18-1.433c.216-1.721.015-3.213-.591-4.378-.368-.708-.478-.791-.616-.47Zm42.893 3.12c-1.992.869-3.047.956-7.228.591-2.218-.193-4.674-.001-4.042.316.63.316 6.747 2.147 7.173 2.147.979 0 2.875-.696 3.772-1.384l.975-.748.296 1.227c.449 1.857 1.315 3.393 3.08 5.466.879 1.033 1.62 1.858 1.648 1.833.027-.025-.056-.578-.184-1.229-.295-1.495-1.998-4.665-3.412-6.348l-1.083-1.291.483-.7c.266-.385.447-.693.404-.683a68.54 68.54 0 0 0-1.882.803Zm-42.229 3.604c-.7.169-2.105.658-3.123 1.088-1.018.43-2.445.954-3.171 1.165-1.31.38-1.315.385-.601.565.906.229 3.772.222 6.132-.014 1.728-.173 1.871-.153 3.243.467 1.947.879 4.879 1.687 8.761 2.414 3.012.564 7.207 1.027 7.207.796 0-.261-12.39-5.592-14.329-6.166-2.488-.736-2.4-.73-4.119-.315Zm17.967 1.005c0 1.114 1.091 4.471 1.452 4.471.127 0 .228-.605.225-1.345-.005-1.318-.451-2.563-1.308-3.66-.354-.453-.369-.431-.369.534Zm-25.706 3.556c-.006 1.718-.155 1.953-1.338 2.112-1.325.178-3.079 1.164-3.703 2.08-.648.953-.646 1.443.005.915.465-.377.524-.378 1.381-.018.493.207 1.926.9 3.186 1.541 3.829 1.947 8.356 3.422 15.246 4.969 3.802.853 4.549.958 6.192.866l1.868-.104-.135.68c-.759 3.818-1.184 17.967-1.338 44.584-.061 10.62.174 15.055 1.224 23.029.593 4.502 1.644 9.834 2.001 10.154.451.404.931-18.137.605-23.382-.138-2.235-.127-6.766.03-12.268.137-4.798.353-15.036.479-22.751.19-11.545.171-14.611-.105-17.324-.185-1.813-.295-3.333-.245-3.378.05-.044.825.076 1.723.267.898.191 3.957.594 6.798.894 3.856.407 5.236.63 5.446.88.53.628.562 1.897.934 36.992l.117 10.977 1.076 7.934c.591 4.363 1.238 8.493 1.435 9.178.198.684.364 1.52.367 1.858.006.454.062.53.217.292.41-.635.857-6.865.833-11.622-.112-21.915-.08-29.545.168-40.934.301-13.818.257-14.771-.757-16.552-.663-1.165-1.773-1.915-2.834-1.915-1.732 0-9.557.644-11.686.961-1.19.178-2.556.325-3.037.327-.959.004-.982-.032-1.297-1.987-.157-.97-.136-1.024.403-1.04.522-.017.508-.041-.169-.308-.478-.188-.893-.6-1.183-1.176-.596-1.185-.954-1.357-.745-.359.09.431.076.784-.031.784s-1.706-.494-3.554-1.097c-7.684-2.509-9.293-2.816-14.308-2.729l-3.464.06 1.605.684c2.173.926 7.399 2.541 10.766 3.328 2.107.493 3.518.675 5.945.77 3.031.119 3.183.146 3.181.577-.002.478-.467 3.204-.562 3.288-.148.133-2.377-.707-5.002-1.886-3.667-1.647-7.247-3.021-9.704-3.723-2.991-.855-7.663-1.853-9.551-2.04-1.799-.178-1.665-.304.603-.567.618-.072 1.414-.335 1.768-.584.56-.395.63-.572.531-1.356-.134-1.065-.877-2.903-1.174-2.903-.114 0-.209.46-.211 1.022Zm34.835 1.139c-2.715.246-8.168 1.104-8.168 1.286 0 .178 3.775.996 5.405 1.171.661.07 3.477.264 6.258.43 5.882.35 8.556.213 13.065-.672 3.499-.686 3.38-.776-1.508-1.142-1.739-.13-4.567-.419-6.284-.642-4.212-.547-6.341-.652-8.768-.431Zm21.304 6.158c.121 2.431 2.049 13.642 3.085 17.939.739 3.063 2.107 11.429 2.622 16.033.607 5.424 1.251 9.081 3.593 20.372.335 1.616.83 4.812 1.099 7.102.684 5.811.693 5.876 1.366 10.082.332 2.071.917 5.219 1.301 6.994.383 1.776.702 3.471.707 3.767.008.515.021.52.3.107.212-.312.315-2.759.377-8.899.111-11.136.011-11.982-2.812-23.814-.926-3.879-1.863-9.363-2.207-12.914-1.219-12.595-3.035-22.95-5.068-28.905-.62-1.818-4.023-9.772-4.284-10.017-.107-.1-.143.869-.079 2.153Zm-55.974 1.306c-.247.358-2.299 9.883-2.609 12.112-.478 3.431-.402 14.058.124 17.254.227 1.381.569 2.975.759 3.541.19.567.323 1.034.294 1.04-.64.126-2.087 1.043-2.488 1.578-.956 1.276-1.081 2.495-.79 7.668.147 2.614.379 4.874.515 5.022.137.148.651.269 1.143.269 1.029 0 2.815.525 5.052 1.483.896.384 1.949.669 2.471.669.777.001.978-.104 1.387-.726.416-.633.64-.745 1.733-.873.691-.081 2.553-.432 4.138-.78 1.585-.348 3.072-.632 3.303-.633.941-.001.328-.39-1.019-.646-2.035-.387-4.426-.188-6.126.51-.768.315-1.439.534-1.491.486-.053-.047.072-1.186.278-2.532.435-2.846.576-6.109.295-6.804-.169-.415-.116-.484.37-.484 1.503 0 6.912-1.808 6.912-2.31 0-.271-4.155.083-5.703.486-.75.196-1.87.586-2.49.867-1.067.484-1.241.5-3.241.297-1.994-.203-2.473-.309-2.238-.496.055-.043 1.636-.774 3.513-1.624 3.602-1.631 6.57-3.278 6.139-3.407-.429-.128-6.284.783-8.672 1.35-1.234.293-2.352.532-2.483.532-.152 0-.183-.611-.085-1.668.28-3.014 1.097-9.577 1.561-12.536.697-4.441.737-4.951.764-9.685.021-3.65-.067-4.895-.508-7.21-.555-2.907-.598-3.055-.808-2.75Zm2.863 39.295 1.224.554-.322 1.358c-.176.747-.45 2.545-.607 3.995l-.286 2.637h-1.484c-1.353 0-3.907-.319-4.125-.514-.05-.045.187-.966.527-2.047.339-1.081.833-3.102 1.097-4.491.682-3.589.555-3.395 1.748-2.663.553.34 1.556.867 2.228 1.171Zm-3.724 11.342c-.295 1.198-.683 3.929-1.254 8.824-.375 3.216-.364 8.231.024 10.761.362 2.36 1.223 5.457 1.455 5.232.336-.327 1.435-6.404 1.706-9.429.362-4.055.146-7.623-.741-12.268-.407-2.13-.776-3.971-.82-4.089-.043-.118-.21.317-.37.969Zm41.672 22.879-3.315 2.212c-1.436.957-4.404 3.281-6.595 5.165-4.754 4.086-6.644 5.561-7.728 6.027-.575.247-1.47.344-3.123.338-2.791-.011-4.504-.421-10.729-2.572-2.375-.821-5.527-1.807-7.006-2.191-2.246-.585-2.916-.864-4.083-1.705-1.697-1.223-1.815-1.744-.931-4.112l.603-1.614-1.073 1.076c-2.67 2.676-2.688 4.705-.062 7.138l.967.896-.125 3.946c-.126 3.96-.602 7.006-1.282 8.186-.594 1.033-.43 2.067.453 2.858 1.394 1.248 6.855 2.596 12.665 3.126 3.388.309 7.492.968 9.222 1.48l1.414.418-.574-.51c-.964-.857-4.424-2.602-6.765-3.411-3.804-1.315-10.59-3.606-11.344-3.829l-.721-.213.082-2.35c.092-2.683-.314-4.874-1.399-7.538-.38-.933-.671-1.696-.646-1.696.182 0 6.316 2.538 8.449 3.495 5.736 2.576 8.652 3.395 12.626 3.547 4.666.178 5.162-.002 8.639-3.133 1.587-1.43 3.856-3.806 5.274-5.523a1600.17 1600.17 0 0 1 4.919-5.918c3.498-4.182 3.796-4.671 2.188-3.593Zm-38.45 4.13c.616.449 5.601 3.094 7.326 3.888 1.422.654 13.742 4.411 13.636 4.158-.116-.278-4.362-3.262-5.949-4.18-3.994-2.313-8.745-3.741-13.576-4.081-1.796-.126-1.887-.113-1.437.215ZM268 367.879c-1.321.769-4.834 2.485-7.807 3.815-7.23 3.233-16.623 7.58-20.899 9.673-2.885 1.413-15.222 8.544-15.048 8.7.344.308 7.462-1.762 10.724-3.12.595-.247 2.919-1.208 5.165-2.135 7.096-2.929 13.444-6.027 18.136-8.852 2.445-1.472 4.877-2.971 5.405-3.333 1.851-1.268 7.333-6.229 6.803-6.157-.042.006-1.158.64-2.479 1.409Zm-45.621 10.051c-.435 2.598-.023 6.11 1.001 8.526.33.78.498.185.681-2.402.129-1.836.07-2.524-.351-4.099-.279-1.041-.655-2.147-.835-2.456l-.33-.563-.166.994ZM93.897 26.21c.176.464.276 1.56.222 2.433-.09 1.49-.257 1.628-2.648 2.199-1.403.335-3.362 1.203-4.352 1.93-2.838 2.08-2.577 4.335.688 5.933 1.806.884 8.992 8.707 14.019 15.263 2.174 2.835 4.039 5.38 4.143 5.657.106.28-.421.575-1.19.667-1.884.226-4.034 2.42-4.931 5.033-.987 2.876.03 5.7 2.568 7.125 3.814 2.141 7.765.897 9.363-2.948.855-2.056.821-2.3-.945-6.805-2.526-6.442-8.895-15.287-18.057-25.075-.444-.474-.01-1.206 1.64-2.759l2.245-2.113-.773-3.345c-.53-2.29-1.016-3.453-1.543-3.692-.56-.253-.682-.118-.45.497Zm20.862-3.707c2.518 9.608 12.22 27.048 21.909 39.385 1.519 1.935 2.78 3.563 2.802 3.619.021.055-1.068.45-2.419.876-2.95.93-4.815 3.108-5.135 5.993-.332 2.995.845 4.161 4.466 4.424 3.724.272 5.066-.16 5.709-1.836.704-1.833.27-2.458-2.472-3.557-2.306-.924-2.409-1.04-1.679-1.891 1.148-1.338 3.05-1.336 4.534.003 1.274 1.15 2.633 1.187 2.842.076.057-.304-2.196-3.587-5.008-7.297-12.546-16.557-17.818-24.976-22.36-35.706-1.733-4.095-3.369-7.487-3.634-7.539-.266-.051-.065 1.501.445 3.45ZM29.375 60.458c-.538 1.269-.885 2.552-.772 2.85.487 1.288-2.171 6.89-3.855 8.125-2.23 1.634-3.729 1.614-7.198-.097-4.824-2.38-9.3.499-10.101 6.496-.523 3.916 1.26 7.035 7.492 13.112 2.76 2.69 5.383 5.449 5.83 6.131.792 1.21.74 1.278-2.085 2.764-1.592.838-2.951 1.818-3.02 2.178-.285 1.522 1.97 6.083 3.932 7.95 2.524 2.401 3.656 2.072 5.244-1.523.889-2.01 1.056-3.392.687-5.686-.7-4.353-2.72-7.366-8.853-13.208-4.636-4.415-5.339-5.308-6.417-8.157-1.361-3.593-1.07-5.29 1.297-7.588 1.824-1.77 3.545-1.702 6.231.243 2.447 1.772 6.148 2.392 8.6 1.439.913-.355 2.66-1.687 3.882-2.96 1.222-1.272 2.638-2.474 3.146-2.67 1.212-.467 2.003-2.316 1.527-3.572-.207-.548-.135-2.097.161-3.442.56-2.54.125-3.576-1.986-4.733-1.617-.887-2.646-.241-3.742 2.348Zm79.647 4.18c.246.645.358 1.986.248 2.98-.16 1.442-.533 1.933-1.86 2.444-3.153 1.214-5.501-.606-4.297-3.333.601-1.36 1.217-1.852 3.105-2.481 2.082-.694 2.407-.648 2.804.39Zm-85.697 38.77c.372 1.81-.401 5.05-1.286 5.391-.537.206-2.607-2.413-3.249-4.108-.527-1.393-.448-1.498 1.789-2.359l2.34-.902.406 1.978ZM417.053 3.425c-1.434 1.497-2.606 3.118-2.606 3.6 0 2.08-6.731 8.534-9.76 9.361-4.01 1.094-6.11.251-10.083-4.045-5.524-5.973-13.36-4.346-17.685 3.674-2.825 5.236-1.978 10.602 3.559 22.554 2.452 5.29 4.674 10.606 4.939 11.81.47 2.137.362 2.205-4.408 2.766-2.689.316-5.125.96-5.413 1.43-1.214 1.99-.47 9.645 1.297 13.343 2.274 4.756 4.043 4.907 8.196.7 2.322-2.351 3.294-4.209 3.998-7.643 1.336-6.517.098-11.862-5.424-23.428-4.174-8.743-4.687-10.383-4.687-14.986 0-5.805 1.313-8.038 5.873-9.993 3.51-1.505 5.898-.476 8.643 3.726 2.5 3.827 7.382 6.71 11.341 6.697 1.476-.004 4.645-.933 7.044-2.064 2.399-1.13 5.034-2.057 5.854-2.057 1.956 0 4.054-2.177 4.054-4.206 0-.885.928-3.03 2.063-4.766 2.141-3.278 2.081-4.973-.274-7.751-1.805-2.129-3.598-1.777-6.521 1.278Zm57.473 40.015c-.197.34-.422 4.336-.499 8.878-.177 10.303-2.172 15.482-7.454 19.357-5.007 3.673-8.567 4.568-13.723 3.448-5.61-1.218-5.409-1.252-7.847 1.352-6.201 6.621-7.552 15.66-4.231 28.309 2.755 10.495 3.234 13.649 2.627 17.292l-.514 3.078-3.891-.378c-4.74-.462-8.496 1.271-10.264 4.733-1.608 3.151-1.563 3.826.394 5.808 2.051 2.077 7.028 2.192 9.807.226 3.041-2.151 5.922-5.913 6.405-8.364.927-4.7.227-15.682-1.428-22.419-2.013-8.187-2.212-14.663-.569-18.401 2.203-5.012 2.461-5.158 5.375-3.057 5.555 4.007 16.733 2.56 22.749-2.945l3.131-2.866.484 5.996c.266 3.297.718 9.974 1.007 14.837l.524 8.841-2.869-.471c-3.703-.609-7.199 1.434-9.476 5.537-3.366 6.067-1.075 12.35 4.504 12.35 2.739 0 6.835-2.901 6.835-4.84 0-.432.767-.583 1.703-.336 1.702.451 1.702.449 1.63-27.123-.04-15.167-.017-30.363.054-33.77.153-7.507-1.405-15.691-2.989-15.691-.614 0-1.278.279-1.475.619Zm-88.888 17.255c-.441 2.753-3.258 6.901-4.685 6.901-.866 0-2.385-4.816-2.385-7.555 0-2.25.168-2.355 3.776-2.355h3.777l-.483 3.009Zm87.375 56.728c.156.816-.26 1.377-1.02 1.377-.756 0-1.282-.706-1.282-1.72 0-2.013 1.905-1.729 2.302.343Zm-32.116 11.204c.847 1.389-5.244 5.979-7.573 5.705-2.89-.339-3.357-3.317-.803-5.128 1.993-1.415 7.629-1.802 8.376-.577Z" fill="#131441"/></svg>