<svg width="534" height="522" viewBox="0 0 534 522" fill="none" xmlns="http://www.w3.org/2000/svg">
<path d="M171.152 21.7649C165.986 11.4316 150.952 -6.13509 132.152 6.26491C108.652 21.7649 66.1524 56.7656 66.6524 69.7656C67.1524 82.7656 78.6515 80.7656 72.652 91.7656C66.6524 102.766 60.6529 136.766 66.6524 152.766C72.652 168.766 84.6517 179.266 94.6517 163.266C102.652 150.466 110.318 138.932 113.152 134.766C120.818 141.932 137.552 156.966 143.152 159.766C150.152 163.266 162.152 162.766 148.152 145.766C134.152 128.766 130.152 110.266 136.652 111.266C143.152 112.266 151.652 126.766 148.152 129.266C144.652 131.766 130.652 132.266 127.152 117.266C123.652 102.266 130.152 96.2656 136.652 97.2656C141.852 98.0656 150.818 106.932 154.652 111.266C152.652 106.432 150.352 94.5656 157.152 85.7656C165.652 74.7656 175.152 67.2656 168.652 65.7656C162.152 64.2656 155.152 68.2656 134.152 85.7656C113.152 103.266 107.152 127.766 104.652 132.266C102.152 136.766 84.6515 169.766 78.6517 159.766C72.652 149.766 65.1517 104.266 94.6517 76.2656C124.152 48.2656 162.152 29.2656 190.152 27.7656C218.152 26.2656 239.652 34.2656 237.652 43.2656C235.652 52.2656 216.152 65.7656 211.152 65.7656C206.152 65.7656 200.152 54.7656 203.152 53.2656C206.152 51.7656 218.652 63.7656 217.652 76.2656C216.652 88.7656 212.152 89.7656 214.152 94.7656C216.152 99.7656 230.152 113.766 228.152 117.266C226.152 120.766 219.652 113.766 217.652 120.766C215.652 127.766 223.652 135.766 220.652 145.766C217.652 155.766 216.652 167.266 207.652 167.266C198.652 167.266 188.152 161.266 184.652 155.266C181.152 149.266 187.152 142.766 190.152 145.766C193.152 148.766 201.652 175.766 197.652 185.766C193.652 195.766 185.153 193.266 171.152 187.766C157.152 182.266 136.652 158.266 96.1517 187.766C55.6517 217.266 48.6517 231.266 35.6517 245.766C22.6517 260.266 -2.34828 286.766 2.65172 299.766C7.65172 312.766 31.6514 336.266 28.1514 344.766C24.6514 353.266 6.15137 350.766 6.65137 332.766C7.15137 314.766 10.1514 307.766 31.6514 306.766C53.1514 305.766 109.651 309.766 125.651 306.766C141.651 303.766 163.151 302.266 204.651 270.766C246.151 239.266 280.151 269.766 284.151 275.766C288.151 281.766 292.151 305.766 280.651 295.266C269.151 284.766 266.151 274.266 251.651 274.266C237.151 274.266 217.652 279.766 207.652 283.766C197.652 287.766 150.151 309.266 109.651 301.266C69.1514 293.266 103.151 313.766 116.651 324.266C130.151 334.766 174.151 354.766 170.151 365.766C166.151 376.766 157.151 379.766 156.651 392.266C156.151 404.766 171.651 442.266 192.651 425.766C213.651 409.266 186.151 381.766 144.151 375.766C102.151 369.766 44.6514 346.266 34.1514 350.266C23.6514 354.266 34.6514 385.766 41.6514 398.766C48.6514 411.766 97.6514 519.266 152.651 520.266C207.651 521.266 226.151 480.766 242.651 456.766C259.151 432.766 267.151 420.766 287.151 417.766C307.151 414.766 328.651 400.766 328.651 386.266C328.651 371.766 329.151 341.766 318.651 340.266C308.151 338.766 261.651 372.266 255.151 372.266C248.651 372.266 210.151 369.266 212.151 340.266C214.151 311.266 237.651 317.266 244.651 319.266C251.651 321.266 279.651 349.766 268.651 355.266C257.651 360.766 229.651 365.266 228.151 349.266C226.651 333.266 304.151 307.766 336.151 283.766C368.151 259.766 415.151 233.766 421.151 229.266C427.151 224.766 440.151 209.266 464.651 218.266C489.151 227.266 500.151 235.766 500.651 240.766C501.151 245.766 490.651 249.266 491.151 236.766C491.651 224.266 495.651 223.266 503.651 224.266C511.651 225.266 517.651 238.266 511.651 236.766C505.651 235.266 499.651 220.766 510.151 218.266C520.651 215.766 534.151 223.766 528.651 227.266C523.151 230.766 512.651 219.266 524.651 209.766C536.651 200.266 530.651 196.766 524.651 190.266C518.651 183.766 516.651 178.266 506.151 184.266C495.651 190.266 483.151 181.766 487.151 175.766C491.151 169.766 503.151 181.766 491.151 190.266C479.151 198.766 474.651 188.766 475.151 185.766C475.651 182.766 496.651 184.452 476.651 200.266C456.651 216.079 460.651 194.266 464.651 193.766C468.651 193.266 475.151 198.266 475.151 209.766C475.151 221.266 478.151 235.266 476.651 240.766C475.151 246.266 441.651 283.766 427.651 283.766C413.651 283.766 399.151 284.766 418.151 270.766C437.151 256.766 442.151 256.766 431.651 248.766C421.151 240.766 409.151 227.266 434.651 225.766C460.151 224.266 469.102 232.766 466.651 244.766C464.2 256.766 437.151 289.766 433.651 294.266C430.151 298.766 416.651 309.266 408.151 300.266C399.651 291.266 394.151 284.766 396.651 277.766C399.151 270.766 418.151 253.266 418.151 259.766C418.151 266.266 401.151 278.266 390.651 283.766C382.251 288.166 330.818 317.932 306.151 332.266" stroke="#131441" stroke-width="3"/>
</svg>
