<svg width="474" height="354" fill="none" xmlns="http://www.w3.org/2000/svg"><path d="M97.42 353c8.475-1.477 29.96-4.21 48.091-3.324 22.664 1.108 61.911 5.54 85.68-5.54 23.77-11.08 32.061-23.821 36.483-30.469 4.423-6.648 19.9-28.253 7.186-30.469-12.713-2.216-8.844 23.821 1.659 23.821s22.664-6.093 27.639-4.985c4.975 1.108 15.477 4.985 19.9 4.985 3.537 0 4.79-1.477 4.975-2.216 8.844 6.094 27.638 18.725 32.061 20.498 5.527 2.216 19.347 3.324 19.347-4.986 0-8.31-21.006-30.469-24.875-33.793-3.87-3.324-69.097-36.009-74.072-38.779-4.975-2.77-10.503-7.756-6.634-19.39 2.084-6.263 18.302-56.698 33.798-104.944m119.436 62.841c1.175-3.163 2.151-5.882 2.65-7.755 2.211-8.31 30.955-86.422 33.719-93.624 2.764-7.202 9.95-37.671 8.292-44.32-1.327-5.318-6.818-8.125-9.398-8.863-27.823-8.68-85.901-26.703-95.63-29.362-12.161-3.324-14.372 0-18.242 5.54-3.095 4.432-14.925 36.563-20.452 52.075-3.434 10.703-7.604 23.696-12.091 37.671m111.152 88.638c-4.038 10.867-10.422 26.983-7.853 32.132 3.317 6.648 50.855 6.648 37.036-16.62-13.82-23.267-25.501-25.483-29.183-15.512Zm-16.145 61.493c4.422 11.08 35.931 1.662 35.931-6.094s-15.478-36.563-22.664-29.915c-7.186 6.648-18.795 45.981-21.006 53.183-2.211 7.202-4.975 32.685-20.452 27.145-15.478-5.54-98.948-38.779-108.898-36.009-9.949 2.77-30.402 32.131-43.669 36.009-10.613 3.102-25.059 4.247-30.955 4.432 5.159-4.801 17.246-17.838 24.322-31.577 8.844-17.174 21.006-54.845 13.819-80.882-7.186-26.038-12.713-8.864-8.844-6.094 3.869 2.77 17.689 6.647 31.508-9.972 13.819-16.62 9.95-27.7 6.633-27.7-3.316 0-5.527 13.85 8.845 14.404 14.372.554 46.986-7.202 49.75-14.404 2.764-7.201 2.211-15.511-6.081-16.065-3.092-.207-7.347-.502-11.53-.795m8.284-25.797c4.091-12.741-12.784-5.54-22.734 4.432-7.96 7.978-1.843 16.989 2.211 20.498 2.754.197 7.45.531 12.239.867m8.284-25.797-8.284 25.797m0 0c-6.843-.104-23.405-1.643-34.903-6.961-14.372-6.648-23.216-10.526-33.719 1.662-10.503 12.188-19.9 22.159-31.509 27.699-11.608 5.54-23.769 22.714-33.166 40.441-9.397 17.728-33.719 36.564-37.589 50.413-3.869 13.85-7.186 33.24 9.397 44.319 16.584 11.08 7.739-1.108 3.87-5.54-3.87-4.431-7.739-18.281-10.503-24.929-2.764-6.648-3.869-9.417-45.88-6.094-42.012 3.324-79.541-2.77-93.656-37.522m427.094-175.21-44.091-13.513" stroke="#131441" stroke-width="2" stroke-linecap="round" stroke-linejoin="round"/></svg>