<svg width="263" height="591" fill="none" xmlns="http://www.w3.org/2000/svg"><path d="m130.556 55.393 9.77 7.257 7.998-9.174 1.778 12.04 12.142-.832-7.257 9.771 9.174 7.998-12.04 1.777.832 12.142-9.771-7.257-7.997 9.175-1.778-12.04-12.142.831 7.257-9.77-9.174-7.998 12.04-1.777-.832-12.143Z" fill="#FFD43A"/><path d="m166.112 60.798 7.2 8.396 8.932-6.523-.845 11.028 10.927 1.704-8.395 7.2 6.522 8.931-11.027-.845-1.704 10.928-7.2-8.395-8.931 6.522.845-11.028-10.928-1.703 8.395-7.2-6.522-8.932 11.027.845 1.704-10.928Z" fill="#FFD43A"/><path d="M104.353 214.962c1.372-5.028 4.481-15.452 5.944-16.915 1.828-1.828 7.771-2.743 13.257-7.314 5.486-4.572 9.601-8.229 9.601-11.43 0-2.56 4.876-11.429 7.315-15.543 0-2.134-.915-5.395-4.572-1.372s-7.62 9.601-9.143 11.887c4.876-6.096 14.263-18.836 12.8-21.03-1.828-2.743-10.972 12.343-12.8 12.343-1.829 0 11.886-14.172 9.143-17.372-2.743-3.2-11.429 10.515-14.629 10.515-3.201 0 12.343-14.629 11.429-15.544-.915-.914-5.029-1.828-9.144 0-3.291 1.463-16.915 14.934-23.315 21.487 0 4.115-.457 13.624-2.286 18.744-2.286 6.4-10.972 15.086-9.6 23.315 1.371 8.229 3.2 25.144 9.6 21.487 6.4-3.657 15.544-9.6 17.372-13.258 1.829-3.657 5.029 6.401 0 8.686-5.028 2.286-2.743 11.43-2.743 15.544 0 4.115-3.657 19.201-14.629 18.744-10.972-.457-19.658-10.972-21.487-21.487-1.828-10.515 6.858-21.03 1.372-33.373-5.486-12.343 0-26.058-1.372-35.202-1.371-9.143-7.314-19.658 4.115-24.687 11.429-5.028 19.2-10.057 21.944-8.229 2.743 1.829 9.143 9.144 9.143 12.344 0 3.2-38.859-61.717-50.745-66.746-11.887-5.029-6.4 21.487-27.887-19.658C11.549 19.753 14.292 32.096 8.349 24.782 2.406 17.467-2.166.552 3.777 1.009c5.943.457 19.201 14.63 22.401 16.458 3.2 1.829 7.772-4.115 5.486-5.943-2.286-1.829-6.4.914-5.029 2.743 1.372 1.828 1.83 5.943 5.03 9.143 3.2 3.2 11.428 14.63 12.8 9.143 1.371-5.486-1.372-10.057-3.2-9.143-1.829.914 0 10.972 4.571 15.086 4.572 4.115 13.258 9.6 12.344 3.658-.914-5.943-13.258-4.572-6.4 3.2 6.857 7.772 75.889 92.347 75.889 93.719 0 1.371-11.886-10.058-9.143-14.172 2.743-4.115 6.857-14.63 9.143-14.172 2.286.457 11.429 9.6 16.001 10.972 4.571 1.371 8.686 2.743 6.857 1.371-1.828-1.371-4.571 7.772-4.571 11.886 0 4.115 4.114 10.058-5.486 2.743-7.681-5.851-11.734-7.314-12.801-7.314 10.972 5.029 33.647 12.252 36.573.914 3.657-14.172 5.943-17.829 6.858-14.172.914 3.657 2.743 26.515-1.372 15.086-4.114-11.429-4.572-20.115-2.286-24.687 2.286-4.571 6.858-10.514 9.601-12.8 2.743-2.286 6.4-15.087 3.657-17.83-1.165-1.164-3.648-1.752-6.4-2.008m0 0c-3.73-.346-7.953-.083-10.058.18-3.657.457-3.2 11.429 2.286 11.429 5.486 0 11.429.914 12.343-1.372.915-2.285 3.201-9.502-4.571-10.237Zm-16.915.18c-1.372 0-5.029 13.715-13.715 10.057-8.686-3.657-7.315-12.8-6.401-14.172.915-1.371 19.201 1.372 19.659 2.743.457 1.372-1.829 10.972-2.286 12.8-.457 1.83-3.2 7.316 2.286 6.401 5.485-.914 1.828-1.829-1.372-4.114-3.2-2.286-22.858 7.314-18.287-23.316 4.572-30.63 35.202-22.858 37.031-21.486 1.828 1.371 16.001 24.23 12.343 26.515-3.657 2.286-7.772-10.972-7.772-14.172v-11.43c0-2.742-26.058 2.744-32.915 1.83-6.858-.915-16.001-6.858-13.258-1.83 2.743 5.03 9.6 9.601 15.086 10.058 4.389.366 19.506-2.59 26.516-4.114 4.114 11.734 11.155 40.139 6.4 59.889-5.943 24.687-4.384 20.572-6.4 19.658-2.017-.915.914-5.029 13.715 5.029 12.8 10.057 14.172 1.828 14.172 36.116 0 34.287 20.115 37.944 23.315 39.773 3.2 1.829-5.486 16.915-7.314 17.829-1.829.915-8.686-4.114-12.344-6.4-3.657-2.286-9.143-10.515-9.6-13.258-.457-2.743 5.029-42.059 1.828-43.888-3.2-1.828 0 36.116 0 37.945 0 1.829 4.572 20.573-1.828 13.715-6.401-6.857-27.887-42.059-32.459-45.716-4.572-3.658-10.058-4.572-6.857 4.571 3.2 9.144 52.116 64.003 46.63 62.175-5.486-1.829-63.088-85.947-62.174-81.833.914 4.115 79.547 115.206 81.832 116.577 2.286 1.372 23.316-21.487 23.773-22.401.457-.914-5.486-26.973-9.143-28.344-3.658-1.372-4.115-15.544-11.429-3.2-7.315 12.343 0 9.6-6.401 15.543-6.4 5.944-12.8 10.515-10.972 13.258 1.829 2.743 10.972-6.857 14.172-8.229 3.201-1.371 6.858.915 5.029 4.115-1.463 2.56-10.057 9.6-14.172 12.8l17.372-6.4-14.172 10.515c.305.762 1.555 2.194 4.115 1.828 2.56-.365 10.819-4.114 14.629-5.943-5.638 4.572-16.915 13.99-16.915 15.087 0 1.371 9.143-1.372 18.744-8.229 9.6-6.858 31.087 27.43 20.572 26.515-8.412-.731-8.991-22.553-8.229-33.373" stroke="#131441" stroke-width="2"/><path d="M155.098 545.949c-1.981 4.267-4.754 12.892 0 13.258 5.943.457 10.972-1.371 13.258 2.743 2.286 4.114 5.486 22.858 18.744 25.144 13.258 2.286 27.887 3.657 29.716 1.829 1.828-1.829-5.486-8.229-6.401-11.429-.914-3.201-5.943-9.144-10.514-12.344-4.572-3.2-18.744-11.886-15.087-15.543 3.657-3.658 5.943-12.344 5.943-18.744 0-6.401.457-13.715 3.658-21.487 3.2-7.772 5.486-28.801 5.486-34.287 0-5.486-.915-12.801 2.285-22.401 3.2-9.601 13.715-42.517 10.058-53.946-3.657-11.429-2.743-21.944-1.372-27.43 1.372-5.486-1.828-37.945 6.858-44.802 8.686-6.858 16.458-12.344 17.372-22.401.915-10.058 2.743-17.372 1.372-20.573-1.372-3.2-4.572-9.143-3.658-11.429.915-2.286 5.029-4.114 3.658 0-1.372 4.115-8.686 35.659-9.601 33.831-.914-1.829 1.829-9.144 0-12.344-1.463-2.56-35.659-47.088-52.574-69.032-11.734-16.915-35.476-50.471-36.573-49.374-1.371 1.372 31.087 31.545 29.259 49.374-1.829 17.83 7.771 19.658 9.143 21.944 1.371 2.286 5.943 13.715 0 10.972-5.943-2.743-11.429-6.857-12.344-1.371-.914 5.486 2.286 16.915 10.515 21.029 8.229 4.115 15.087 9.601 17.83 21.487 2.743 11.886 6.4 20.115 10.515 22.401 4.114 2.286 10.971 6.4 15.086 3.2 4.114-3.2-15.544-4.571-21.944-3.2-6.4 1.372-7.772 3.2-11.886-1.828-4.115-5.029-4.115 5.485-5.943 7.314-1.829 1.829-5.486 5.029-21.03 6.858-15.544 1.828-49.831 4.571-54.403 3.657-4.571-.914 0-3.2 0-5.486 0-2.286 6.401-71.318 3.2-70.403-3.2.914-3.2 90.975-1.828 94.176 1.371 3.2 8.229-.915 5.486 3.657-2.743 4.572-3.658 7.772-1.829 10.515 1.829 2.743 0 4.571-1.371 7.771-1.372 3.201-1.372 11.887 0 15.544 1.371 3.657 5.028 9.601 3.2 15.087-1.829 5.486-1.829 6.4-1.829 12.8s-5.486 11.429-4.114 17.372c1.371 5.944 2.743 17.373-1.372 23.316-4.114 5.943-.457 13.715-1.371 27.43-.915 13.715 2.743 38.859 2.743 46.173 0 7.315-3.658 16.458 10.057 14.63 13.715-1.829 8.686-7.315 14.172-8.229 5.486-.915 13.258 2.286 9.144-6.401-4.115-8.686-10.972-11.886-6.401-21.486 4.572-9.601 12.344-52.575 12.344-60.803 0-8.229 7.314-17.373 8.686-22.401 1.371-5.029 2.743-22.402 4.114-31.545 1.372-9.143 16.001-27.43 16.916-29.258.914-1.829-9.144 5.943-7.772 15.543 1.371 9.601 2.743 43.431 0 53.031-2.743 9.601 1.371 20.573 4.571 25.145 3.201 4.571 2.286-7.315 0-7.315-2.285 0-6.857 22.858-6.857 27.887s.457 16.458-1.372 24.23c-1.828 7.772-5.943 22.858-5.943 26.972 0 4.115 22.401 11.43 26.059 9.601 3.657-1.829-29.716-7.772-40.231-1.372-10.515 6.401-37.487 3.658-42.059 30.173-4.572 26.516 30.173 8.229 33.373 4.115 3.2-4.115 5.943-11.43 4.572-15.544-1.098-3.291-2.286-9.6-2.743-12.343M138.64 91.984c-.914 7.772.458 22.859 13.258 21.03 12.801-1.829 19.963-10.21 21.944-14.172" stroke="#131441" stroke-width="2"/><path d="M149.579 193.467c2.286 6.095 6.949 19.749 7.315 25.601.457 7.315 4.572 21.03 4.572 23.773 0 2.743-24.23 7.771-7.315 30.63 16.915 22.858 16.458 12.343 22.858 19.658 6.401 7.314 8.686 15.086 10.515 21.029" stroke="#131441" stroke-width="2"/></svg>