<svg width="726" height="393" fill="none" xmlns="http://www.w3.org/2000/svg"><path d="M725 360.635c-88.34-.407-268.311-1.954-281.471-4.885-16.449-3.663-29.853-.61-34.727 6.716-4.874 7.327-10.966 15.265-34.727 18.928-23.76 3.664-98.697 7.327-108.445-10.379-9.748-17.707 9.139-25.644 26.197-31.75 17.059-6.106 22.543-8.548 22.543-25.644 0-17.096 3.655-44.572 0-48.846-3.656-4.274-12.185-11.601-9.139-14.654 3.046-3.052 10.357-1.221 10.966-9.158.488-6.35.203-29.104 0-39.687-2.843-.814-8.651-3.297-9.138-6.717-.61-4.274-3.047-14.653 17.668-13.432 20.714 1.221 24.369 10.991 5.483 10.381-18.887-.611-17.059-3.053-17.059-14.654 0-11.601 7.92-6.106 25.588-6.106s37.164.61 40.82-15.265c2.924-12.7 3.655-50.474 3.655-67.773V40.696c0-7.938-1.828-25.034-16.449-31.75C352.143 2.23 312.542-1.434 290 6.504c-22.542 7.937-23.761 33.58-24.37 40.907-.609 7.327 4.874 50.067 5.483 53.731.609 3.663.609 11.6 8.53 7.937 7.92-3.663 28.025-4.274 31.68-4.885 3.656-.61 18.887-7.326 5.483-10.99-13.403-3.663-17.668 6.717-26.806 7.938-9.139 1.221-17.059-2.443-10.357-7.938 6.701-5.494 34.117-7.937 37.163-9.769 3.047-1.832 3.656-12.211 0-12.211-3.655 0-28.025 9.769-31.071 10.99-3.046 1.221-17.059 4.885-11.576-4.274 5.484-9.159 24.979-11.601 31.072-12.822 6.092-1.221 20.105-4.274 15.231-10.99-4.874-6.717-23.151 3.663-26.198 4.274-3.046.61-23.151 14.043-23.151 2.442 0-11.601 18.278-10.99 24.979-11.601 6.702-.61 26.807-4.885 23.151-11.6-3.655-6.717-10.357-7.939-24.979-2.443-14.621 5.496-23.151 13.432-23.151 6.716S283.907 29.094 290 27.873c6.092-1.221 1.218-20.149 6.092-17.707 4.874 2.443 5.483 14.654 10.967 12.212 5.483-2.442-1.219-15.874 6.701-15.874s5.483 13.432 9.748 13.432 3.046-9.77 9.139-9.77c6.092 0 5.483 12.212 8.529 10.99 3.046-1.22 1.219-14.653 7.92-10.99 6.702 3.664-3.046 15.875 6.702 15.875s29.244 15.875 20.714 17.096c-8.529 1.221-31.68-10.38-39.6-7.937-7.921 2.442-1.828 9.158 8.529 9.158s24.979 7.938 27.416 9.77c2.437 1.831 10.966 11.6-2.437 7.937-13.403-3.663-30.462-9.159-35.336-3.663-4.874 5.495 3.655 10.38 12.185 8.548 8.529-1.832 29.243 3.663 29.243 7.937 0 4.274-8.529 1.832-21.932 0-13.404-1.832-21.324 1.221-9.139 4.885 12.185 3.663 22.542 3.052 27.416 6.716 4.874 3.663 5.483 9.769-2.437 9.159-7.92-.611-23.151-10.99-29.244-7.937-6.092 3.052-3.655 7.937 4.265 7.937s28.634 5.495 29.853 8.547c1.218 3.053 4.265 6.717-4.874 4.885-9.139-1.832-24.979-9.158-29.244-7.937-4.264 1.221-12.794 5.495-2.437 5.495 10.357 0 29.244 6.105 31.681 7.937 2.437 1.832 7.311 3.053 6.092 12.212-1.218 9.158.61 29.307-12.184 29.918-12.795.61-34.727 5.495-45.085 6.716-10.357 1.221-33.508 8.548-40.819-18.928s3.656-31.139 5.483-28.086c1.828 3.053.61 30.528 7.311 30.528 6.702 0 8.53-1.831 7.92-14.043-.609-12.211 1.219-25.033 6.093-20.759 4.874 4.274 2.437 29.918 4.265 36.024 1.827 6.105 4.874 7.327 7.31 1.831 2.437-5.495 1.219-42.74 8.53-36.634 7.311 6.106-.609 40.298 9.748 39.687 10.357-.61 7.92-14.043 7.92-21.98 0-7.938-1.219-21.37 4.265-18.928 5.483 2.442 3.655 28.697 6.092 32.36 2.437 3.664 9.139 4.885 9.139-1.832 0-6.716-3.046-23.812 1.828-22.591 4.873 1.221 9.138 41.519-1.828 43.351-10.967 1.832-24.979-1.221-27.416 1.832-2.437 3.053-1.219 68.995-1.219 75.711 0 6.716-.074 26.254-14.622 18.927-14.547-7.327 12.185-26.865 15.841 10.991 3.655 37.855 3.655 50.677 16.449 56.172 12.795 5.495 36.555 9.769 31.681 22.591-4.874 12.822-29.244 24.423-65.798 19.539-36.555-4.885-34.118-25.033-6.702-29.918 27.416-4.885 81.639-10.379 98.088 0 16.45 10.379 29.853 35.413-29.853 47.014-59.706 11.601-107.836-1.221-118.193-6.106s-20.714-20.149-6.702-30.529c14.013-10.379 40.211-16.485 44.476-19.538 4.264-3.053-11.576-1.832-19.496 0-7.92 1.832-26.198 4.274-32.899 18.317-6.702 14.043-6.702 10.38-16.45 10.38H0" stroke="#131441" stroke-width="3"/></svg>