<svg width="495" height="647" fill="none" xmlns="http://www.w3.org/2000/svg"><path d="M264.145 514.995c6.905 7.817 26.421 33.925 49.246 75.823 28.531 52.372 46.119 57.062 88.33 28.531 33.768-22.825 61.231-79.08 70.742-104.354-15.764 21.236-50.966 66.13-65.661 75.823-18.37 12.116-61.753 34.394-81.686-3.127-15.946-30.016-17.848-67.224-16.806-82.076h5.081c1.563 25.795 7.504 77.23 18.76 76.604 14.071-.781 18.37-18.76 19.542-28.922 1.173-10.161-6.644-28.922 3.518-50.027 8.129-16.884 12.767-24.493 14.07-26.186l9.38 13.288c-7.035 4.039-20.558 13.367-18.369 18.37 2.189 5.002 6.905 8.859 8.989 10.161l20.324-13.288 12.116 16.415c-6.775 4.56-18.291 15.165-10.162 21.106 8.129 5.94 12.246 10.552 13.289 12.116l21.887-12.116 9.771-10.162c.781-2.476 1.328-8.755-2.736-14.071-5.081-6.644-9.38-8.598-15.243-6.253-4.69 1.876-7.426 4.951-8.208 6.253l-12.507-19.542 17.588-14.07c-1.172-5.341-5.55-15.243-13.679-12.116-8.13 3.127-13.289 10.422-14.852 13.679l-10.944-17.197c14.331-10.032 37.521-34.238 15.634-50.809-27.359-20.715-50.027-26.577-56.281-41.82-6.253-15.243-11.725-37.13-16.806-30.485-5.081 6.644-19.151 51.59-23.841 59.407-4.69 7.817-22.669 31.658-37.521 19.151-14.852-12.507-21.496-18.369-23.45-15.633-1.954 2.735 9.38 33.612 19.933 42.21 8.442 6.879 39.996 32.049 54.717 43.774-12.767-4.299-42.289-17.587-58.235-36.348-19.933-23.45-31.267-46.901-23.841-55.108 7.426-8.208 28.14 8.207 30.876 9.771 2.736 1.563 17.197 9.38 26.186-2.345 7.192-9.38 5.863-13.028 4.3-13.68L87.876 113.993c-7.034-3.778-22.355-10.944-27.358-9.38-5.003 1.563-15.634-25.665-20.324-39.475-2.084-3.908-8.442-12.116-17.197-13.68C12.054 49.506-6.706 33.48 6.582 22.147c10.631-9.068 22.93-7.426 27.75-5.472l5.862-4.69C38.24 8.076 36.834.65 46.84 2.213c12.507 1.954 12.507 14.07 7.816 14.461-4.69.392-7.035-.78-8.598 1.564-1.563 2.345-4.69 3.909-1.173 6.254 3.518 2.345 11.335 12.506 14.07 8.598 2.736-3.908-1.172-9.38 1.564-10.943 2.736-1.564 8.599-2.345 12.116-1.173 3.518 1.173 4.69 8.99 4.3 10.553-.392 1.563-6.645 3.908-8.99 3.126-2.345-.781-5.472 5.081-3.127 6.254 1.876.938 9.902 8.729 13.68 12.507l3.126-3.909c-2.084-3.387-4.299-10.162 3.518-10.162 9.77 0 9.38-1.172 10.943 1.564 1.564 2.736 4.69 13.288 0 13.288s-6.253-1.172-8.207 0c-1.954 1.173-3.909 3.909-1.954 5.472 1.563 1.25 8.989 8.86 12.506 12.507 1.043-.39 3.127-1.485 3.127-2.736 0-1.563-3.908-9.38 1.563-10.553 5.472-1.172 11.726-.781 13.289 1.173 1.563 1.954 2.736 12.507 0 13.289-2.736.781-8.208-.391-9.38 1.172-1.173 1.563-3.518 3.518-1.563 5.081 1.954 1.563 8.207 5.472 8.207 7.035 0 1.563-9.771 17.588-8.207 19.151 1.563 1.564 183.303 250.528 198.937 243.493 15.633-7.035 6.253-27.359 0-36.348-6.254-8.989-22.278-31.658-1.954-33.221 20.323-1.564 31.658 12.116 42.992 29.704 11.334 17.587 19.933 60.19 42.992 74.259 23.06 14.069 116.08 16.024 102.791 119.597-13.288 103.572-108.653 140.702-118.424 141.875" stroke="#000" stroke-width="3"/><path d="m382.18 438.782-42.602 32.049-3.127 23.06c1.694.782 4.847 3.283 3.909 7.035-.938 3.752-3.518 5.211-4.69 5.472l-.782 9.38c1.563.391 4.69 2.032 4.69 5.472 0 3.439-3.127 5.602-4.69 6.253l.782 8.99c1.824.781 5.315 3.126 4.69 6.253-.625 3.127-3.909 4.951-5.472 5.472l-.391 7.817c.521-.391 2.267-.313 5.081 3.126 2.814 3.44-.651 7.426-2.736 8.99l6.645 8.598-9.771-7.817c-1.694 0-5.472-1.016-7.036-5.081-1.563-4.064 2.736-6.904 5.081-7.816v-7.426c-1.693-.261-5.237-1.798-5.862-5.863-.626-4.065 4.169-5.863 6.644-6.253l-.782-8.99c-1.693.131-5.315-.703-6.253-5.081-.938-4.377 3.778-6.774 6.253-7.426v-8.598c-1.824-1.042-5.393-4.065-5.081-7.817.313-3.752 4.821-5.211 7.036-5.472l3.126-19.932c-.391.26-1.954.625-5.081 0-3.126-.626-2.345-7.036-1.563-10.162 12.507-9.641 38.771-29.705 43.774-32.831 5.003-3.127 7.556 4.429 8.208 8.598Z" stroke="#000" stroke-width="3"/></svg>