<svg width="223" height="402" fill="none" xmlns="http://www.w3.org/2000/svg"><path d="M95.256 10.417c-11.582 2.222-34.747 8.4-34.747 15.334 0 8.667 53.457 134.009 68.825 129.342 15.369-4.667 38.088-20.002 36.751-30.669-1.336-10.667-2.672-24.668-12.696-24.002-10.023.667-32.073 20.668-37.419 18.002-5.345-2.667-2.673-8.668 16.037-18.002s23.387-13.334 21.382-17.334c-2.004-4-12.027-.667-19.377 4.667-7.351 5.334-30.069 14.668-30.069 8.667-2.005-1.555-2.406-5.733 12.027-10 18.042-5.334 28.065-12.001 29.401-14.668 1.336-2.667 3.341-12-4.009-8-7.35 4-24.055 14-29.401 16.667-5.346 2.667-24.055 5.334-11.359-3.333 12.695-8.668 22.718-13.335 28.732-18.002 6.014-4.667 12.696-14.667 4.678-13.334-8.019 1.334-19.378 8.667-24.724 12.001-5.345 3.334-18.041 16.001-18.71 8.667-.668-7.334 5.346-11.334 13.365-14 8.018-2.668 26.728-11.335 23.387-15.335-3.341-4-10.023-2-23.387 3.334-13.364 5.333-26.728 14-20.715 5.333 6.014-8.667 37.42-16.668 37.42-26.002 0-9.333-7.351-20-25.392-17.334-18.041 2.667-52.12 16-63.48 23.335-11.359 7.334-26.06 15.334-28.732 26.668-2.673 11.334-.668 24.002 11.36 16.669C26.43 61.754 50.486 51.753 51.822 56.42c1.336 4.667-28.065 14.667-36.083 20.668-8.019 6-6.682 15.334 4.677 9.334 11.36-6 40.76-20.002 44.102-14.668 3.34 5.334-1.337 14.001-18.71 20.669-17.373 6.667-29.4 10.667-27.396 14.667 2.004 4 10.023 6.668 24.055-2s32.074-19.334 34.078-14c2.005 5.332-1.336 12.667-22.05 20-20.715 7.334-29.401 12.001-22.72 15.335 6.683 3.333 19.379-4.668 25.392-8.001 6.014-3.333 25.392-16.001 27.397-9.334 2.004 6.667-20.046 15.335-30.07 18.668-10.022 3.334-24.055 14.001-18.04 16.001 6.013 2 29.4-12.001 36.75-14.667 7.35-2.667 25.392-10.668 22.05-2.667-3.34 8-30.736 18.001-38.087 21.335-7.35 3.333-13.364 6.667-6.682 14.667 6.682 8.001 6.014 24.002 44.77 10.001s16.705 64.004 16.705 80.672c0 16.667-4.677 78.005 4.009 70.004 8.687-8 12.028-47.336-11.359-45.336s-26.06 6.667-28.065-6.667c-2.004-13.334 2.005-26.002 12.696-32.669 10.691-6.667 21.383-13.025 20.046-40.003-1.336-26.977 8.019-40.669 14.032-33.335 6.014 7.334 7.351 57.337 8.687 88.006 1.336 30.668 6.682 105.34-11.359 102.673-18.042-2.667-23.388-10.667 17.373-12.001 40.76-1.333 121.613 15.335 61.474 42.003-60.138 26.668-144.331 10.667-159.7-6-15.369-16.668-2.673-26.002 21.383-33.336 19.244-5.867 38.755-7.778 46.106-8" stroke="#000" stroke-width="3"/></svg>