<svg width="53" height="54" fill="none" xmlns="http://www.w3.org/2000/svg"><path d="M26.502.6C11.917.6.102 12.417.102 27c0 14.583 11.816 26.4 26.4 26.4 14.584 0 26.4-11.817 26.4-26.4 0-14.583-11.817-26.4-26.4-26.4Zm12.966 18.086-4.333 20.418c-.32 1.448-1.182 1.799-2.384 1.118l-6.6-4.865-3.184 3.066c-.35.351-.649.65-1.33.65l.468-6.718 12.231-11.051c.534-.468-.117-.734-.82-.266l-15.117 9.516-6.515-2.033c-1.415-.447-1.447-1.416.298-2.097l25.454-9.816c1.182-.426 2.214.288 1.83 2.076l.002.002Z" fill="#131441"/></svg>