<svg width="53" height="54" fill="none" xmlns="http://www.w3.org/2000/svg"><path d="M26.502.6C11.922.6.102 12.42.102 27c0 14.58 11.82 26.4 26.4 26.4 14.58 0 26.4-11.82 26.4-26.4 0-14.58-11.82-26.4-26.4-26.4Zm10.153 29.785s2.334 2.304 2.91 3.374c.016.022.024.044.03.055.233.393.288.699.173.927-.193.38-.853.566-1.078.583h-4.125c-.286 0-.886-.074-1.612-.575-.558-.39-1.108-1.031-1.644-1.655-.8-.93-1.494-1.733-2.192-1.733a.84.84 0 0 0-.261.041c-.528.17-1.205.924-1.205 2.932 0 .627-.495.987-.844.987h-1.89c-.643 0-3.995-.225-6.965-3.358-3.636-3.836-6.908-11.53-6.936-11.602-.206-.498.22-.764.685-.764h4.166c.556 0 .737.338.864.638.148.349.693 1.738 1.587 3.3 1.449 2.546 2.337 3.58 3.05 3.58a.825.825 0 0 0 .382-.099c.93-.517.756-3.83.715-4.518 0-.13-.003-1.482-.479-2.131-.34-.47-.921-.65-1.273-.715.142-.197.33-.356.547-.465.638-.32 1.788-.366 2.929-.366h.635c1.238.017 1.557.096 2.005.21.907.216.927.802.847 2.807a43.8 43.8 0 0 0-.05 1.972c0 .165-.008.34-.008.528-.027 1.02-.06 2.178.66 2.653.094.06.203.09.314.091.25 0 1.003 0 3.044-3.5a26.725 26.725 0 0 0 1.636-3.504c.041-.072.162-.292.305-.377a.73.73 0 0 1 .341-.08h4.898c.534 0 .9.08.968.286.121.328-.022 1.326-2.258 4.354l-.998 1.317c-2.027 2.656-2.027 2.791.127 4.807Z" fill="#131441"/></svg>