<svg width="53" height="54" fill="none" xmlns="http://www.w3.org/2000/svg"><path d="m.112 53.4 3.57-13.116A26.279 26.279 0 0 1 .101 27C.102 12.419 11.92.6 26.502.6c14.58 0 26.4 11.819 26.4 26.4 0 14.58-11.82 26.4-26.4 26.4a26.28 26.28 0 0 1-13.28-3.578L.112 53.4Zm16.862-38.787c-.341.02-.674.11-.98.264a3.415 3.415 0 0 0-.776.602c-.317.298-.496.557-.689.808a7.204 7.204 0 0 0-1.491 4.43c.005 1.293.343 2.552.87 3.73 1.08 2.381 2.857 4.902 5.204 7.239.565.562 1.117 1.127 1.71 1.652a24.943 24.943 0 0 0 10.139 5.402l1.502.23c.488.026.977-.011 1.468-.035a5.255 5.255 0 0 0 2.199-.61c.345-.178.683-.372 1.01-.58 0 0 .114-.075.33-.238.357-.264.576-.452.872-.76.22-.228.41-.494.554-.798.206-.43.412-1.251.497-1.935.063-.523.045-.808.037-.985-.01-.282-.246-.575-.502-.7l-1.536-.688s-2.297-1-3.7-1.64a1.313 1.313 0 0 0-.466-.108 1.274 1.274 0 0 0-.998.335v-.005c-.014 0-.19.15-2.1 2.463a.923.923 0 0 1-.97.343 3.74 3.74 0 0 1-.505-.174c-.327-.137-.44-.19-.665-.288l-.013-.005a15.867 15.867 0 0 1-4.145-2.64c-.333-.29-.642-.607-.958-.913a16.618 16.618 0 0 1-2.693-3.348l-.156-.25a2.437 2.437 0 0 1-.27-.542c-.1-.388.162-.7.162-.7s.641-.702.94-1.082c.248-.316.48-.645.694-.985.311-.501.41-1.016.245-1.415a219.53 219.53 0 0 0-2.291-5.388c-.156-.354-.618-.607-1.038-.657a11.653 11.653 0 0 0-.427-.042 8.928 8.928 0 0 0-1.064.01v.003Z" fill="#131441"/></svg>