<svg width="602" height="905" fill="none" xmlns="http://www.w3.org/2000/svg"><path d="M232 78.5c0 7.456-7.387 12.5-16.5 12.5S200 85.956 200 78.5 206.387 63 215.5 63 232 71.044 232 78.5ZM295 90c0 7.456-6.5 13-15.5 15-9 1-16.5-2.044-16.5-9.5 0-7.456 7.387-13.5 16.5-13.5s15.5.544 15.5 8ZM361.5 172.999c0 7.456-10 17-19 19-9 1-18.5-1.544-18.5-9 0-7.456 5.5-9 15.5-13 7.5-3 22-4.456 22 3Z" fill="#FFD43A"/><path d="M430.101 46.427c5.227 6.447 13.59 22.684 5.227 36.065-10.454 16.725-37.11 14.112-44.95 22.475-7.84 8.363-12.022 19.861-1.045 25.611 10.976 5.749-5.227-18.816-16.203-24.566-10.977-5.749-22.998-16.725-17.771-20.384 5.226-3.659 6.795 3.136 5.227 25.088-1.569 21.953-2.586 64.284-4.705 67.425-3.332 4.941-7.84 10.976-18.816 10.976-10.976 0-11.499-9.931-2.613-13.589 8.885-3.659 21.952-6.272 26.656-3.136 4.704 3.136-.523 27.179-31.36 21.429-30.838-5.749-16.203-45.472-14.113-52.79 2.091-7.317 10.454-38.678-15.68-50.7-26.133-12.02-37.11 2.092-31.883 8.364s21.952 7.317 24.566-15.68c2.091-18.399-.523-52.268-2.091-66.903L231.485 2v60.63c.523 8.711-2.195 25.925-17.248 25.089-18.817-1.046-7.318-26.134 7.317-17.771 14.635 8.362 9.931 25.088 5.75 31.36-4.182 6.272-11.499 20.907-29.793 19.339-18.293-1.568-24.043 2.091-20.907 14.112 3.136 12.022 15.158 33.974 12.022 47.564-3.136 13.589-20.384 42.336-54.881 40.768-34.496-1.568-43.382-35.542-17.771-40.768 25.611-5.227 35.542 27.701 17.771 42.859-17.771 15.157-40.246 9.408-46.518-8.363-6.272-17.771-1.568-36.587 25.088-66.38 26.657-29.792 27.179-62.198 16.203-65.856-10.976-3.66-24.043 18.816-14.112 76.31s15.158 71.606 16.203 80.492c1.045 8.885 1.568 22.997-7.318 30.837-8.885 7.841-26.133 5.227-26.656-6.272-.523-11.498 19.339-17.771 20.907-5.749 1.568 12.021-10.976 23.52-27.702 10.453-16.725-13.066-29.27-22.997-48.086-4.704-18.816 18.294-8.362 13.067-24.043 17.771-15.68 4.704-25.088 25.089-6.272 36.065 18.816 10.976 52.267 14.635 87.287 2.613 35.019-12.021 55.926-29.27 66.379-43.382 10.454-14.112 21.953-26.133 39.201-22.475 17.248 3.659 13.067 16.203 14.635 20.907 1.568 4.704 3.658 10.976 19.861 4.704 16.203-6.272 19.339 2.091 26.657 12.022 7.317 9.931 18.293 40.768 58.017 20.384 39.723-20.384 53.835-29.792 86.763-18.816 32.929 10.976 76.834 11.499 98.263 8.885 21.43-2.613 54.358-13.589 60.63-32.928 6.272-19.339 4.704-31.883-20.384-32.929-25.088-1.045-51.222 15.158-70.038 43.905-15.053 22.998-26.831 58.017-30.838 72.652" stroke="#131441" stroke-width="2"/><path d="M267.999 723.5c2 1.2 6.166.5 8 0-.334-1.333-.6-4.8 1-8 2-4 7-7 11.5-9s34-16 41.5-20 22-8.5 27-7-1 16.5-2 22 4 2 6.5-4.5 2.5-16.5-6.5-24.5-20.5-9-40-3.5-43.5 22.5-51 34 1.5 19 4 20.5ZM350 723.001c1.355 3.447-7.929 11.643-17.602 15.442-9.672 3.8-22.71 7.655-24.064 4.208-1.354-3.448 9.487-12.892 19.16-16.692 9.673-3.8 21.152-6.406 22.506-2.958ZM246.001 684c-5.6 10-16.334 11.167-21 10.5-10.5-1-4-11.5 0-31.5s9.5-25 12-30 3.5-22 3-26.5 3-8.5 10.5-8.5 6 4.5 9.5 10-3 38-3.5 47-3.5 16.5-10.5 29ZM210 646c0 17.121-4.029 32-9 32s-7.5-13.879-7.5-31c0-17.121 7.029-30.5 12-30.5 7 0 4.5 12.379 4.5 29.5Z" fill="#FFD43A"/><path d="M447.872 355.328c-3.2 12.022-24.043 40.56-7.317 71.084 20.907 38.155 53.376 60.63 68.534 66.379 15.157 5.75 63.243 32.929 76.31 77.879s23.521 97.74 4.704 152.621c-18.816 54.88-49.131 76.833-82.582 92.513-33.451 15.68-55.926-17.771-113.42-10.976-57.495 6.794-36.065 53.312-123.351 88.854-87.287 35.542-51.222-32.405-37.11-48.608 14.112-16.203 42.336-62.721 17.771-71.084-24.566-8.363-13.067 35.542 10.976 20.907 24.043-14.635 7.317-39.723 19.861-48.609 12.545-8.885 17.249 5.227 34.497 3.659 17.248-1.568 24.566-7.317 29.27-12.022 4.704-4.704 11.498-21.952-6.795-16.202-18.294 5.749-33.974 18.293-29.793 22.475 4.182 4.181 34.497-6.795 43.905-22.475 9.408-15.681-13.589-8.363-19.339-4.182-5.749 4.182-48.609 26.657-56.971 10.454-8.363-16.203 12.021-20.907 26.656-28.747 14.635-7.841 55.926-28.747 58.54-16.726 2.613 12.022-4.705 26.656-6.795 20.384-2.091-6.272 14.112-26.133-10.976-35.542-25.089-9.408-77.879 24.566-80.492 36.588-2.614 12.021-.523 19.861 8.885 19.861s18.817 2.091 21.43 4.182c2.613 2.09 9.931-4.182 22.475-14.113 12.544-9.93 46.518.523 66.902-14.634 20.384-15.158 43.905-45.996 38.155-77.879-5.749-31.883-7.317-58.017-59.584-88.854-52.268-30.838-108.717 4.704-119.17 15.157-10.454 10.454-19.862 26.657-22.998 38.678-3.136 12.022-6.795 25.088-11.499 27.179-4.704 2.091-10.976 5.749-12.544 22.998-1.568 17.248-2.613 37.632 4.182 38.155 6.794.523 6.271-8.363 6.271-9.931 0-1.568 2.091-36.064 2.091-39.723 0-3.659-3.135-14.112-12.544-5.75-9.408 8.363-8.886 26.134-9.408 38.156-.523 12.021 2.09 25.088 10.976 25.088 7.108 0 10.279-2.788 10.976-4.181.871 7.84 5.332 23.415 16.203 22.997 13.59-.522 26.657-15.157 31.883-49.654 5.227-34.496 5.227-49.654-4.181-53.312-9.408-3.659-12.544 5.749-12.544 10.453s5.226 17.248-1.568 27.702c-6.795 10.453-10.976 24.565-11.499 32.406-.523 7.84-2.091 21.429-5.227 13.589-3.136-7.84 2.091-28.747 5.227-36.587 3.136-7.84 12.544-24.043 7.84-34.497-4.704-10.453-12.544-9.93-16.203-6.272-3.659 3.659-4.704 16.203 0 16.203s10.976-5.227 1.568-12.544c-9.408-7.317-18.816-7.84-11.499-28.747 7.318-20.907 24.043-61.676 81.537-73.697 57.495-12.022 90.946 6.795 116.557 29.27 25.611 22.475 37.632 67.425 30.837 107.148-6.794 39.723-28.224 62.721-64.811 73.174" stroke="#131441" stroke-width="2"/></svg>