<svg width="139" height="180" viewBox="0 0 139 180" fill="none" xmlns="http://www.w3.org/2000/svg">
<path d="M117.983 3.71632C117.85 3.22298 117.15 3.22298 117.017 3.71632L113.572 16.5132C113.433 17.0294 113.029 17.4327 112.513 17.5717L99.7163 21.0172C99.223 21.15 99.223 21.85 99.7163 21.9828L112.513 25.4283C113.029 25.5673 113.433 25.9706 113.572 26.4868L117.017 39.2837C117.15 39.777 117.85 39.777 117.983 39.2837L121.428 26.4868C121.567 25.9706 121.971 25.5673 122.487 25.4283L135.284 21.9828C135.777 21.85 135.777 21.15 135.284 21.0172L122.487 17.5717C121.971 17.4327 121.567 17.0294 121.428 16.5132L117.983 3.71632Z" fill="#FFD43A" stroke="#131441"/>
<path d="M42.9828 98.7163C42.85 98.223 42.15 98.223 42.0172 98.7163L34.1169 128.058C33.9779 128.575 33.5747 128.978 33.0584 129.117L3.71632 137.017C3.22298 137.15 3.22298 137.85 3.71632 137.983L33.0584 145.883C33.5747 146.022 33.9779 146.425 34.1169 146.942L42.0172 176.284C42.15 176.777 42.85 176.777 42.9828 176.284L50.8831 146.942C51.0221 146.425 51.4253 146.022 51.9416 145.883L81.2837 137.983C81.777 137.85 81.777 137.15 81.2837 137.017L51.9416 129.117C51.4253 128.978 51.0221 128.575 50.8831 128.058L42.9828 98.7163Z" fill="#FFD43A" stroke="#131441"/>
</svg>
