<svg width="206" height="125" fill="none" xmlns="http://www.w3.org/2000/svg"><path d="M1.938.703a1.5 1.5 0 1 0 .124 2.998L1.938.703Zm27.57 117.563 16.227 6.058-2.867-17.082-13.36 11.024Zm5.117.662a1.5 1.5 0 0 0-.545-2.95l.545 2.95Zm8.82-5.015a1.5 1.5 0 0 0 .75 2.905l-.75-2.905Zm10.144.097a1.5 1.5 0 0 0-.972-2.839l.972 2.839Zm7.92-6.312a1.5 1.5 0 1 0 1.213 2.743l-1.214-2.743Zm10.008-1.666a1.5 1.5 0 1 0-1.477-2.611l1.477 2.611Zm6.566-7.764a1.5 1.5 0 1 0 1.76 2.429l-1.76-2.429Zm9.366-3.849a1.5 1.5 0 0 0-2.058-2.182l2.058 2.183Zm4.35-9.175a1.5 1.5 0 1 0 2.362 1.851l-2.361-1.85Zm7.803-6.451a1.5 1.5 0 0 0-2.646-1.415l2.646 1.415Zm.947-10.093a1.5 1.5 0 1 0 2.875.856l-2.875-.855Zm4.647-9.005a1.5 1.5 0 1 0-2.994-.188l2.994.188Zm-3.526-9.482a1.5 1.5 0 1 0 2.952-.532l-2.952.532Zm.006-10.118a1.5 1.5 0 0 0-2.745 1.213l2.745-1.213Zm-7.459-6.89a1.5 1.5 0 0 0 2.418-1.774l-2.418 1.775Zm-4.196-9.185a1.5 1.5 0 1 0-2.05 2.191l2.05-2.191Zm-9.468-3.703a1.5 1.5 0 1 0 1.684-2.482l-1.684 2.482Zm-6.816-7.461a1.5 1.5 0 1 0-1.353 2.677l1.353-2.677Zm-10.098-1.151a1.5 1.5 0 0 0 1.06-2.807l-1.06 2.807Zm-8.313-5.859a1.5 1.5 0 1 0-.804 2.89l.804-2.89Zm-10.148.682a1.5 1.5 0 1 0 .581-2.943l-.581 2.943Zm-9.086-4.52a1.5 1.5 0 0 0-.388 2.975l.388-2.975ZM26.16 4.017a1.5 1.5 0 0 0 .22-2.992l-.22 2.992ZM16.65.559a1.5 1.5 0 0 0-.071 3l.07-3Zm-9.677 2.99a1.5 1.5 0 0 0-.061-3l.061 3Zm37.221 113.269c3.256-.84 6.388-1.779 9.395-2.808l-.972-2.839a123.643 123.643 0 0 1-9.172 2.742l.75 2.905Zm18.528-6.377a100.36 100.36 0 0 0 8.795-4.409l-1.477-2.611a97.53 97.53 0 0 1-8.532 4.277l1.214 2.743Zm17.122-9.744a76.672 76.672 0 0 0 7.605-6.278l-2.058-2.182a73.72 73.72 0 0 1-7.308 6.031l1.76 2.429ZM94.16 87.095a57.164 57.164 0 0 0 5.44-8.302l-2.645-1.415a54.155 54.155 0 0 1-5.156 7.866l2.36 1.851Zm9.263-17.538a44.253 44.253 0 0 0 1.772-9.862l-2.994-.188a41.31 41.31 0 0 1-1.653 9.194l2.875.856Zm1.198-19.876a42.274 42.274 0 0 0-2.946-9.586l-2.745 1.213a39.228 39.228 0 0 1 2.739 8.905l2.952-.532Zm-7.987-18.25a53.5 53.5 0 0 0-6.614-7.411l-2.05 2.191a50.49 50.49 0 0 1 6.246 6.995l2.418-1.775ZM82.237 17.835a76.927 76.927 0 0 0-8.5-4.98l-1.353 2.678a73.955 73.955 0 0 1 8.17 4.784l1.683-2.482ZM64.699 8.898a109.919 109.919 0 0 0-9.373-3.052l-.804 2.89c3.207.892 6.246 1.885 9.117 2.969l1.06-2.807Zm-18.94-5.313c-3.098-.612-6.32-1.14-9.667-1.577l-.388 2.975c3.285.429 6.442.946 9.474 1.545l.581-2.943Zm-19.38-2.56C23.233.795 19.99.638 16.65.559l-.07 3c3.293.077 6.486.23 9.58.458l.22-2.992ZM6.912.549C5.275.583 3.617.634 1.938.703l.124 2.998c1.659-.069 3.296-.12 4.911-.153l-.061-3Z" fill="#131441"/><path d="M129.114 42.395c-.607.121-1.06-.057-1.361-.535-.193-.3-.345-.8-.458-1.502l-4.933.982c-.051.01-.482.129-1.293.357.02.102.056.264.107.486.052.229.09.404.114.525.073.364.005.69-.204.977-.202.286-.494.467-.877.543-.92.183-1.492-.29-1.717-1.42-.046-.23-.101-.542-.166-.934s-.119-.7-.164-.923a1.211 1.211 0 0 1 .202-.986c.193-.264.474-.44.842-.526.408-.918.607-1.95.598-3.096-.009-.815-.141-1.86-.396-3.138-.25-1.258.308-2.022 1.674-2.294.16-.032.46-.079.899-.14a26.42 26.42 0 0 0 1.05-.179c.242-.048.599-.139 1.07-.272.472-.134.813-.222 1.023-.264.639-.127 1.111.028 1.417.465.185.262.344.728.478 1.398.054.275.117.687.186 1.238.076.549.142.96.196 1.235.049.243.297 1.405.744 3.487.925-.091 1.461.233 1.608.974.05.249.123.586.221 1.011.098.426.171.76.22 1.002.072.364.004.69-.204.977-.201.292-.493.476-.876.552Zm-7.139-3.398 3.477-.692a780.45 780.45 0 0 1-.723-3.38c-.051-.256-.11-.64-.179-1.15a28.56 28.56 0 0 0-.171-1.16c-1.124.256-1.873.412-2.247.466.382 2.221.33 4.193-.157 5.916Zm17.418-.54c-.294.059-.824-.168-1.589-.679-.532.398-1.007.712-1.426.941-.418.236-.783.385-1.096.447-1.539.307-2.777.125-3.713-.545-.93-.671-1.559-1.827-1.885-3.468-.307-1.54 0-2.968.919-4.286.918-1.324 2.169-2.144 3.752-2.46.607-.12 1.343-.087 2.21.099 1.047.223 1.625.609 1.734 1.158a.916.916 0 0 1-.1.647c-.013.268 0 .6.039.998.045.39.118.843.221 1.36.243 1.22.504 2.08.783 2.582.031.054.244.357.639.909.359.5.545.787.561.864.067.338-.008.645-.225.921a1.338 1.338 0 0 1-.824.513Zm-3.684-6.097a7.49 7.49 0 0 1-.1-.707c-.022-.274-.036-.58-.044-.917a1.75 1.75 0 0 0-.371-.066.824.824 0 0 0-.259.002c-.868.173-1.56.666-2.075 1.479-.517.806-.686 1.656-.508 2.55.17.856.452 1.47.845 1.843.391.367.894.49 1.507.368a3.314 3.314 0 0 0 1.082-.415c.331-.205.628-.467.89-.785-.495-1.481-.817-2.599-.967-3.352Zm9.665-.221c-.258.17-.63.822-1.115 1.954-.439 1.03-.696 1.755-.772 2.175-.101.591-.442.945-1.023 1.06-.32.064-.622.028-.908-.108-.316-.156-.507-.397-.572-.722-.104-.524.078-1.34.548-2.45.449-1.044.952-1.901 1.51-2.57-.286-.202-.598-.535-.936-.999-.384-.527-.67-.879-.857-1.054-.211-.19-.383-.272-.517-.245a.922.922 0 0 1-.735-.143 1.027 1.027 0 0 1-.398-.647c-.051-.256.089-.523.418-.8.29-.244.582-.395.876-.454.619-.123 1.18.044 1.683.502.136.118.509.575 1.119 1.37.189.248.336.404.442.47.151.09.367.126.649.11a38.47 38.47 0 0 1-.425-1.838c-.192-.964.136-1.53.986-1.7.344-.068.659-.021.944.141a.993.993 0 0 1 .53.711c.084.422.246 1.156.488 2.203.393-.125.659-.357.797-.696.09-.35.183-.697.281-1.042.166-.597.334-1.022.503-1.275.275-.42.671-.681 1.188-.784.287-.057.612-.029.973.085.411.13.642.324.693.579.054.275.011.525-.129.753a.879.879 0 0 1-.614.42c-.198.04-.399.395-.604 1.067-.104.412-.211.822-.323 1.229a3.21 3.21 0 0 1-.328.702c.771.405 1.564 1.003 2.379 1.797.859.845 1.34 1.529 1.444 2.053a.975.975 0 0 1-.252.886 1.415 1.415 0 0 1-.797.448c-.581.115-1.031-.077-1.349-.578-.231-.36-.743-.928-1.535-1.706-.872-.849-1.469-1.31-1.789-1.386.026.134.084.44.173.921.069.378.127.685.174.921.016.083.048.226.095.43.053.201.092.36.114.474.238 1.194-.077 1.878-.946 2.05a1.351 1.351 0 0 1-.919-.115.992.992 0 0 1-.553-.726 36.333 36.333 0 0 1-.228-1.349c-.09-.62-.164-1.072-.221-1.36-.055-.274-.109-.53-.162-.764Zm14.831 1.976c-1.526.304-2.847.189-3.962-.346-1.233-.591-1.995-1.618-2.286-3.08-.322-1.615-.169-3.066.458-4.353.698-1.426 1.849-2.3 3.452-2.618 1.111-.222 2.069-.227 2.874-.015 1.058.28 1.687.919 1.885 1.915.14.702-.129 1.403-.806 2.102-.308.32-.954.827-1.938 1.52l-2.944 2.07a2.96 2.96 0 0 0 1.26.526c.467.08.982.064 1.544-.048.855-.17 1.545-.49 2.069-.96.468-.418.861-.659 1.181-.722.664-.133 1.06.124 1.188.769.145.727-.27 1.428-1.245 2.1a7.278 7.278 0 0 1-2.73 1.14Zm-1.877-8.08a2.188 2.188 0 0 0-1.405.897c-.342.48-.563 1.141-.66 1.984.659-.457 1.316-.91 1.97-1.358.784-.561 1.399-1.059 1.843-1.492-.476-.158-1.058-.168-1.748-.03Zm25.946 3.19c-.383.076-.725.024-1.026-.155a1.199 1.199 0 0 1-.551-.816c-.097-.485-.281-1.195-.554-2.13-.272-.935-.456-1.642-.551-2.12a82.298 82.298 0 0 1-.393-2.322c-2.296.437-3.498.666-3.607.688-.236.047-.55.136-.942.267.063.286.24.955.529 2.006.222.818.385 1.486.488 2.003.057.288.114.725.171 1.31.056.58.112 1.014.169 1.301.072.358.003.68-.205.967-.209.287-.504.469-.888.545-.383.077-.725.022-1.028-.163a1.199 1.199 0 0 1-.551-.817c-.057-.287-.113-.72-.169-1.3a12.954 12.954 0 0 0-.162-1.312c-.109-.55-.314-1.365-.616-2.447-.295-1.083-.498-1.902-.609-2.457a1.424 1.424 0 0 1 .231-1.142c.238-.34.587-.555 1.046-.646a8.39 8.39 0 0 0 1.016-.302 8.417 8.417 0 0 1 1.025-.303c.549-.11 1.377-.268 2.484-.475a242.61 242.61 0 0 0 2.485-.475 1.328 1.328 0 0 1 1.003.189c.318.196.51.46.576.791.077.39.177.974.299 1.753.122.78.221 1.36.297 1.743.098.492.284 1.212.559 2.16.282.946.471 1.665.569 2.156.071.358.003.68-.206.967-.203.28-.499.458-.889.536Zm7.951-1.324c-1.443.287-2.755.133-3.935-.462-1.264-.644-2.031-1.65-2.303-3.016-.308-1.545-.085-3.06.668-4.544.862-1.705 2.187-2.736 3.975-3.092 3.423-.681 5.435.492 6.038 3.518.307 1.545.124 3.042-.55 4.49-.801 1.714-2.099 2.749-3.893 3.106Zm-1.093-8.595c-.849.17-1.509.725-1.978 1.668-.471.937-.607 1.904-.409 2.9.12.6.456 1.04 1.01 1.322.56.28 1.217.345 1.971.195.823-.164 1.448-.713 1.872-1.647.412-.898.516-1.862.311-2.89-.159-.798-.431-1.301-.818-1.51-.38-.21-1.033-.222-1.959-.038Zm-66.434 42.27c-.345.069-.689.01-1.031-.173-.37-.192-.588-.457-.656-.796l-.335-1.685c-.143-.715-.316-1.653-.521-2.814-.263-1.521-.429-2.457-.499-2.808-.089-.48-.116-.834-.081-1.06.056-.383.266-.66.63-.832.52-.256 1.288-.485 2.303-.688 1.092-.217 2.138-.166 3.137.153 1.224.38 1.94 1.09 2.147 2.131.154.773-.072 1.455-.678 2.047 1.316.508 2.055 1.17 2.218 1.988.231 1.162-.554 2.201-2.357 3.118-1.21.62-2.636 1.092-4.277 1.419Zm.584-8.67-.393.079c-.242.048-.446.092-.611.131l.128.642c.025.128.078.343.158.645.097.353.153.568.168.644.272-.034.475-.064.609-.091.428-.085.836-.24 1.223-.463.517-.302.741-.628.671-.98-.042-.21-.285-.381-.729-.512-.446-.137-.854-.168-1.224-.094Zm1.404 3.505c-.145.002-.738.09-1.779.264.034.239.096.585.187 1.038l.27 1.36c2.291-.562 3.388-1.089 3.29-1.58-.054-.275-.331-.529-.828-.762-.441-.21-.82-.318-1.14-.32Zm11.231 2.693c-1.443.287-2.755.133-3.936-.461-1.263-.645-2.031-1.65-2.303-3.017-.308-1.545-.085-3.06.669-4.544.862-1.705 2.187-2.736 3.975-3.092 3.422-.68 5.435.492 6.037 3.518.308 1.546.124 3.042-.55 4.491-.801 1.713-2.098 2.748-3.892 3.105Zm-1.094-8.594c-.849.169-1.508.725-1.978 1.668-.471.937-.607 1.903-.409 2.899.12.6.457 1.041 1.01 1.322.561.28 1.218.346 1.971.196.824-.164 1.448-.713 1.873-1.648.412-.898.515-1.861.311-2.89-.159-.798-.432-1.3-.819-1.51-.38-.21-1.033-.222-1.959-.037Zm11.399 6.393c-.855.17-1.653.197-2.394.078-.994-.16-1.558-.576-1.692-1.246-.051-.255.026-.536.231-.843.21-.313.458-.499.745-.556.301-.06.734-.033 1.301.08.573.111 1.016.136 1.329.074.242-.049.46-.205.653-.47.192-.27.265-.52.219-.75-.071-.357-.376-.572-.915-.644-.505-.039-1.007-.075-1.505-.109-.546-.077-.856-.297-.928-.661-.093-.466.031-.826.372-1.08.19-.15.559-.314 1.108-.49.4-.125.663-.25.791-.376.171-.173.222-.436.152-.787-.094-.472-.629-.611-1.606-.417-.198.04-.449.215-.751.528-.303.313-.608.5-.915.56a1.451 1.451 0 0 1-.961-.127c-.324-.161-.52-.41-.587-.75-.112-.561.208-1.136.961-1.724.632-.491 1.223-.791 1.772-.9.977-.195 1.897-.16 2.76.107 1.075.33 1.705.962 1.891 1.894.19.958.038 1.811-.457 2.56.799.611 1.264 1.246 1.395 1.904.206 1.034.039 1.93-.501 2.688-.54.752-1.363 1.237-2.468 1.457Zm9.706-1.813c-.549.11-1.139.161-1.771.154l.768 3.91c.074.37.01.701-.191.993-.2.293-.492.477-.875.553-.383.076-.724.018-1.021-.175a1.256 1.256 0 0 1-.557-.845c-.059-.3-.29-1.492-.692-3.576a177.388 177.388 0 0 0-.753-3.784 64.52 64.52 0 0 0-.843-3.536c-.369-1.354-.542-1.973-.519-1.858-.106-.53-.078-1.007.083-1.43.19-.483.518-.77.984-.864.357-.07.681-.01.972.185.291.195.47.46.538.8l.009.097c.38-.328.772-.592 1.177-.792a4.92 4.92 0 0 1 1.266-.441c1.469-.292 2.666.117 3.59 1.227.691.838 1.186 2.004 1.483 3.498.279 1.399.11 2.637-.505 3.715-.658 1.16-1.706 1.883-3.143 2.17Zm-.916-8.052c-.402.08-.791.257-1.168.532-.379.267-.741.632-1.087 1.092.338 1.3.639 2.611.902 3.933a5.58 5.58 0 0 0 1.76-.062c.658-.13 1.116-.464 1.374-1 .236-.485.282-1.085.14-1.8-.172-.862-.329-1.452-.472-1.768-.34-.743-.823-1.051-1.449-.927Zm15.267 5.265c-.293.059-.823-.168-1.589-.679-.531.398-1.006.712-1.425.941-.418.236-.783.385-1.096.447-1.539.306-2.777.125-3.713-.545-.93-.671-1.559-1.827-1.886-3.468-.306-1.54.001-2.968.92-4.286.918-1.324 2.168-2.144 3.752-2.46.607-.12 1.343-.087 2.21.098 1.047.224 1.625.61 1.734 1.159a.921.921 0 0 1-.1.647c-.013.268 0 .6.039.998.045.39.118.843.221 1.36.243 1.22.504 2.08.783 2.582.031.054.244.357.639.909.358.5.545.787.56.864.068.338-.007.645-.225.92-.21.275-.485.446-.824.513Zm-3.683-6.097a7.795 7.795 0 0 1-.101-.707c-.021-.274-.035-.58-.043-.917a1.75 1.75 0 0 0-.371-.066.826.826 0 0 0-.259.002c-.868.173-1.56.666-2.075 1.478-.517.807-.686 1.657-.508 2.551.17.856.452 1.47.845 1.843.391.367.894.49 1.506.367a3.324 3.324 0 0 0 1.083-.414c.331-.205.627-.467.889-.785-.494-1.481-.816-2.599-.966-3.352Zm10.717 4.667c-1.404.28-2.662.115-3.772-.493-1.17-.644-1.893-1.655-2.167-3.034-.253-1.27-.064-2.672.566-4.205.715-1.749 1.748-2.758 3.102-3.027.664-.133 1.475-.108 2.434.073 1.167.226 1.808.626 1.922 1.2.062.313.009.613-.16.898a1.152 1.152 0 0 1-.812.57c-.275.055-.636-.026-1.084-.242-.443-.224-1.051-.259-1.823-.105-.492.098-.929.686-1.312 1.765-.363 1.041-.478 1.9-.343 2.577.133.67.481 1.15 1.042 1.436.533.272 1.175.333 1.929.183.428-.085.919-.352 1.473-.8.555-.45.915-.69 1.081-.724a1.21 1.21 0 0 1 .956.198c.298.2.479.46.543.778.099.498-.345 1.105-1.331 1.819-.883.633-1.631 1.011-2.244 1.133Zm10.804-10.654c-.172.035-.432.08-.78.136-.342.048-.599.089-.772.123-.095.02-.199.047-.312.082.705 2.84 1.175 4.851 1.41 6.033.285 1.43-.039 2.238-.971 2.423a1.438 1.438 0 0 1-.973-.134 1.066 1.066 0 0 1-.591-.77 25.88 25.88 0 0 1-.173-1.02 27.528 27.528 0 0 0-.176-1.03c-.174-.875-.561-2.52-1.162-4.937l-.852.17c-.651.13-1.139.163-1.463.102-.517-.096-.83-.416-.938-.959a1.271 1.271 0 0 1 .177-.961c.192-.304.479-.494.862-.57l5.661-1.127c1.245-.248 1.953.056 2.123.912.071.358.006.682-.194.975-.195.29-.487.475-.876.552Zm11.907-2.908c-.407 1.588-1.055 4.084-1.944 7.487-.486 1.83-.833 3.335-1.043 4.519a77.333 77.333 0 0 1-.281 1.888c-.11.646-.459 1.027-1.047 1.144a1.45 1.45 0 0 1-1.028-.163 1.146 1.146 0 0 1-.589-.81c-.118-.593.208-2.487.98-5.68-.978-1.246-2.499-3.065-4.561-5.455l-.616-.645c-.231-.259-.371-.51-.419-.752-.069-.345.008-.676.231-.992.222-.317.512-.51.87-.582.421-.084.781.007 1.08.273 1.147 1.026 2.565 2.633 4.255 4.819.382-1.65.615-2.645.7-2.987.264-1.042.541-1.967.831-2.775.183-.514.514-.819.993-.914a1.456 1.456 0 0 1 1.031.173c.329.187.528.456.598.807.037.185.024.4-.041.645Z" fill="#000"/></svg>