<svg width="41" height="41" viewBox="0 0 41 41" fill="none" xmlns="http://www.w3.org/2000/svg">
<path d="M19.76 1.03098C19.8979 0.193504 21.1021 0.193503 21.24 1.03098L23.743 16.2268C23.8301 16.7555 24.2445 17.1699 24.7732 17.257L39.969 19.76C40.8065 19.8979 40.8065 21.1021 39.969 21.24L24.7732 23.743C24.2445 23.8301 23.8301 24.2445 23.743 24.7732L21.24 39.969C21.1021 40.8065 19.8979 40.8065 19.76 39.969L17.257 24.7732C17.1699 24.2445 16.7555 23.8301 16.2268 23.743L1.03098 21.24C0.193504 21.1021 0.193503 19.8979 1.03098 19.76L16.2268 17.257C16.7555 17.1699 17.1699 16.7555 17.257 16.2268L19.76 1.03098Z" fill="#FFD43A" stroke="#131441" stroke-width="0.5"/>
</svg>
