<svg width="69" height="148" fill="none" xmlns="http://www.w3.org/2000/svg"><path d="M55.262 41.312a1 1 0 1 0-1.452 1.376l1.452-1.376ZM25 148l11.547-.082-5.844-9.959L25 148Zm5.047-1.803a1 1 0 1 0-1.058-1.697l1.058 1.697Zm7.41-7.668a1 1 0 0 0 1.245 1.565l-1.245-1.565Zm9.12-5.524a1.001 1.001 0 0 0-1.427-1.401l1.428 1.401Zm5.322-9.23a1 1 0 0 0 1.596 1.205l-1.596-1.205Zm7.398-7.665a1 1 0 0 0-1.744-.98l1.744.98Zm2.685-10.313a1 1 0 1 0 1.862.73l-1.862-.73Zm5.035-9.392a1 1 0 1 0-1.946-.462l1.946.462Zm-.288-10.647a1 1 0 1 0 1.992.177l-1.993-.177Zm2.134-10.438a1 1 0 0 0-1.996.126l1.996-.126Zm-3.475-10.067a1 1 0 1 0 1.948-.452l-1.948.452ZM64 54.69a1 1 0 1 0-1.83.805l1.83-.804Zm-6.921-8.08a1 1 0 0 0 1.612-1.184L57.08 46.61Zm-18.377 93.484a86.181 86.181 0 0 0 7.876-7.089l-1.428-1.401a84.177 84.177 0 0 1-7.693 6.925l1.245 1.565Zm14.793-15.114a78.932 78.932 0 0 0 5.802-8.87l-1.744-.98a76.782 76.782 0 0 1-5.654 8.645l1.596 1.205Zm10.349-18.453a75.444 75.444 0 0 0 3.173-10.122l-1.946-.462a73.466 73.466 0 0 1-3.089 9.854l1.862.73Zm4.877-20.592c.319-3.596.362-7.148.142-10.615l-1.996.126a68.067 68.067 0 0 1-.139 10.312l1.993.177ZM67.336 64.8A57.335 57.335 0 0 0 64 54.69l-1.83.804a55.34 55.34 0 0 1 3.218 9.758l1.948-.452Zm-8.645-19.375a42.791 42.791 0 0 0-3.43-4.114l-1.451 1.376a40.81 40.81 0 0 1 3.269 3.922l1.612-1.184Z" fill="#131441"/><path d="M10.04 24.56c-.425.085-.742-.04-.953-.374-.135-.21-.242-.561-.32-1.052l-3.453.687c-.036.007-.338.09-.906.25l.075.34c.037.16.063.283.08.368a.837.837 0 0 1-.142.684.944.944 0 0 1-.615.38c-.643.128-1.044-.203-1.201-.994-.033-.161-.071-.379-.117-.653-.045-.275-.083-.49-.114-.647a.845.845 0 0 1 .141-.69.974.974 0 0 1 .589-.368c.286-.642.425-1.365.419-2.168-.007-.57-.099-1.302-.277-2.196-.175-.88.215-1.416 1.172-1.606.112-.022.321-.055.629-.098.31-.047.556-.09.735-.125.17-.034.42-.097.75-.19.329-.094.568-.156.715-.185.447-.09.778.02.992.325.13.183.24.51.334.98.038.191.082.48.13.865.054.385.1.673.138.865.034.17.207.983.52 2.44.648-.063 1.023.164 1.126.683.035.174.087.41.155.708.069.297.12.531.154.7a.837.837 0 0 1-.143.684.93.93 0 0 1-.613.387Zm-4.997-2.378 2.434-.485a491.22 491.22 0 0 1-.506-2.367 14.028 14.028 0 0 1-.126-.804c-.06-.443-.1-.714-.12-.813-.786.18-1.31.29-1.572.327.267 1.555.23 2.935-.11 4.142Zm12.192-.378c-.206.04-.576-.118-1.112-.476a8.62 8.62 0 0 1-.998.659c-.293.165-.549.27-.768.313-1.077.214-1.943.087-2.599-.382-.65-.47-1.09-1.279-1.32-2.428-.214-1.077 0-2.077.644-3a4.043 4.043 0 0 1 2.627-1.721c.424-.085.94-.062 1.547.068.732.157 1.137.427 1.214.811a.644.644 0 0 1-.07.453c-.01.188 0 .42.027.699.031.272.083.59.155.952.17.854.352 1.456.548 1.808.021.037.17.249.447.635.25.35.381.552.392.605a.758.758 0 0 1-.157.645.936.936 0 0 1-.577.359Zm-2.578-4.268a5.186 5.186 0 0 1-.07-.495 11.506 11.506 0 0 1-.031-.642 1.225 1.225 0 0 0-.26-.046.574.574 0 0 0-.181.001c-.608.121-1.092.466-1.453 1.035-.362.564-.48 1.16-.356 1.785.12.6.317 1.03.592 1.29.274.257.626.343 1.055.258.277-.056.53-.152.757-.29.232-.144.44-.327.623-.55-.346-1.037-.571-1.819-.676-2.347Zm6.765-.155c-.18.12-.44.575-.78 1.368-.308.72-.488 1.228-.54 1.522-.072.414-.31.661-.717.742a.993.993 0 0 1-.636-.075.695.695 0 0 1-.4-.506c-.073-.366.055-.938.384-1.714.314-.732.666-1.332 1.056-1.8-.2-.141-.418-.374-.655-.699-.268-.37-.468-.615-.6-.738-.147-.133-.268-.19-.361-.172a.646.646 0 0 1-.515-.1.72.72 0 0 1-.279-.453c-.035-.179.062-.365.293-.56a1.38 1.38 0 0 1 .613-.317c.434-.086.826.03 1.178.35.096.084.357.404.784.96.132.174.235.283.309.329.105.063.257.088.454.077-.131-.522-.23-.951-.297-1.286-.135-.675.095-1.072.69-1.19a.926.926 0 0 1 .66.098.693.693 0 0 1 .372.498c.058.295.172.809.341 1.542.276-.087.462-.25.558-.487.063-.245.129-.488.197-.73.117-.418.234-.715.352-.892a1.24 1.24 0 0 1 .832-.549c.2-.04.428-.02.68.06.288.091.45.226.486.405a.705.705 0 0 1-.09.527.614.614 0 0 1-.43.294c-.139.028-.28.277-.423.747-.073.288-.148.575-.226.86a2.26 2.26 0 0 1-.23.492c.54.283 1.095.702 1.666 1.258.6.59.938 1.07 1.01 1.436a.683.683 0 0 1-.176.62.993.993 0 0 1-.558.314c-.406.081-.721-.054-.944-.404-.162-.252-.52-.65-1.075-1.194-.61-.594-1.028-.918-1.252-.97.019.093.059.308.121.644.048.265.089.48.122.645.011.058.034.158.066.3.038.142.064.253.08.333.167.836-.054 1.314-.662 1.435a.945.945 0 0 1-.643-.08.694.694 0 0 1-.387-.51c-.04-.2-.094-.515-.16-.943a20.58 20.58 0 0 0-.155-.952c-.038-.192-.076-.37-.113-.535Zm10.382 1.383c-1.069.213-1.993.132-2.774-.242-.863-.414-1.396-1.132-1.6-2.156-.225-1.13-.118-2.146.32-3.047.49-.999 1.295-1.61 2.417-1.833.777-.155 1.448-.158 2.012-.01.74.196 1.18.643 1.32 1.34.097.492-.09.982-.565 1.472-.216.224-.668.579-1.356 1.064l-2.061 1.449c.26.19.555.312.882.368.327.056.687.044 1.08-.034.6-.12 1.082-.343 1.449-.672.327-.292.603-.461.826-.506.465-.092.742.087.832.539.102.51-.189 1-.871 1.47a5.099 5.099 0 0 1-1.911.798Zm-1.314-5.656a1.53 1.53 0 0 0-.984.628c-.24.336-.394.799-.462 1.389.461-.32.921-.637 1.379-.951.55-.393.98-.74 1.29-1.044-.333-.11-.74-.118-1.223-.022Zm18.162 2.233a.983.983 0 0 1-.718-.108.839.839 0 0 1-.386-.572c-.068-.34-.197-.836-.388-1.49a19.33 19.33 0 0 1-.386-1.485c-.049-.246-.14-.788-.274-1.625l-2.525.481a5.731 5.731 0 0 0-.66.188c.044.2.168.668.37 1.403.156.574.27 1.041.342 1.403.04.201.08.507.12.917.039.406.078.71.118.91a.83.83 0 0 1-.144.678.968.968 0 0 1-.62.381.968.968 0 0 1-.72-.115.84.84 0 0 1-.386-.571 9.973 9.973 0 0 1-.119-.91 9.119 9.119 0 0 0-.113-.919 25.57 25.57 0 0 0-.431-1.712 27.801 27.801 0 0 1-.426-1.72.998.998 0 0 1 .161-.8c.167-.237.41-.388.733-.452.16-.032.397-.102.71-.211.313-.109.552-.18.718-.213.384-.076.964-.187 1.739-.332.775-.145 1.355-.256 1.739-.332a.93.93 0 0 1 .702.132.825.825 0 0 1 .403.554c.055.272.125.681.21 1.227.085.545.154.952.208 1.22.068.344.199.848.391 1.511.197.663.33 1.166.398 1.51a.83.83 0 0 1-.144.677c-.142.196-.35.32-.622.375Zm5.566-.927c-1.01.201-1.929.094-2.755-.323-.884-.451-1.422-1.155-1.612-2.111-.215-1.082-.06-2.142.468-3.181.603-1.194 1.53-1.915 2.782-2.164 2.396-.477 3.805.344 4.227 2.462a4.972 4.972 0 0 1-.385 3.144c-.561 1.199-1.47 1.923-2.725 2.173Zm-.766-6.016c-.594.118-1.056.507-1.384 1.168a3.07 3.07 0 0 0-.286 2.03c.083.42.319.728.707.925.392.196.852.241 1.38.136.576-.114 1.013-.499 1.31-1.153.288-.629.36-1.303.218-2.022-.112-.56-.303-.911-.573-1.057-.266-.147-.724-.156-1.372-.027ZM6.948 37.987a1.051 1.051 0 0 1-.72-.122c-.26-.134-.413-.32-.46-.556l-.235-1.18c-.1-.5-.221-1.157-.364-1.97-.184-1.065-.3-1.72-.35-1.966-.062-.336-.08-.583-.057-.741a.732.732 0 0 1 .442-.583c.364-.18.901-.34 1.612-.481a4.332 4.332 0 0 1 2.196.106c.857.267 1.357.764 1.503 1.493.107.54-.051 1.018-.475 1.432.921.356 1.439.82 1.553 1.392.162.813-.388 1.54-1.65 2.182-.848.434-1.846.765-2.995.994Zm.41-6.069-.275.055c-.17.034-.313.064-.428.092l.09.45c.017.088.054.24.11.451.068.247.107.397.118.45.19-.023.332-.045.426-.063.3-.06.585-.168.856-.324.362-.212.518-.44.47-.686-.03-.148-.2-.267-.511-.359a1.743 1.743 0 0 0-.857-.066Zm.983 2.453c-.102.002-.518.063-1.246.185.024.167.068.41.13.727l.19.952c1.604-.394 2.372-.763 2.303-1.107-.038-.192-.232-.37-.58-.532-.308-.148-.574-.223-.797-.225Zm7.86 1.885c-1.01.201-1.928.094-2.754-.323-.884-.45-1.422-1.155-1.612-2.111-.216-1.082-.06-2.142.468-3.181.603-1.194 1.53-1.915 2.782-2.164 2.396-.477 3.805.344 4.226 2.462a4.972 4.972 0 0 1-.384 3.144c-.561 1.199-1.47 1.923-2.725 2.173Zm-.765-6.016c-.594.119-1.056.508-1.384 1.168a3.07 3.07 0 0 0-.286 2.03c.083.42.319.728.707.925.392.196.852.242 1.38.137.576-.115 1.013-.5 1.31-1.153.288-.63.36-1.304.218-2.023-.112-.559-.303-.911-.573-1.057-.267-.147-.724-.156-1.372-.027Zm7.98 4.476a4.736 4.736 0 0 1-1.676.054c-.696-.112-1.091-.403-1.184-.872-.036-.179.018-.375.161-.59.147-.22.32-.35.522-.39.21-.041.513-.023.91.056.401.079.711.096.93.052.17-.034.323-.143.458-.328.134-.19.185-.364.153-.525-.05-.25-.263-.4-.64-.451-.354-.027-.705-.053-1.054-.076-.382-.054-.599-.209-.65-.463-.065-.327.022-.579.261-.756.132-.106.39-.22.775-.343.28-.088.465-.176.554-.263.12-.122.155-.306.107-.551-.066-.331-.441-.428-1.125-.292-.139.027-.314.15-.526.37-.212.218-.425.349-.64.392a1.015 1.015 0 0 1-.673-.09.72.72 0 0 1-.41-.524c-.079-.393.145-.796.672-1.207.443-.344.856-.554 1.24-.63.685-.137 1.329-.112 1.933.075.752.231 1.193.673 1.323 1.325.133.67.027 1.268-.32 1.793.56.427.885.871.977 1.332.144.724.027 1.351-.35 1.882-.38.526-.955.866-1.728 1.02Zm6.794-1.27a6.01 6.01 0 0 1-1.24.108l.538 2.737a.877.877 0 0 1-.134.696.93.93 0 0 1-.613.387.93.93 0 0 1-.714-.123.878.878 0 0 1-.39-.592c-.042-.21-.203-1.044-.484-2.503a131.466 131.466 0 0 0-.527-2.648 45.803 45.803 0 0 0-.59-2.476c-.26-.947-.38-1.38-.364-1.3-.074-.371-.055-.705.058-1.002.133-.338.362-.539.689-.604a.872.872 0 0 1 .68.13c.204.136.33.322.377.559l.006.068c.266-.23.54-.414.824-.554.287-.145.582-.248.886-.309 1.029-.204 1.866.082 2.513.86.484.586.83 1.402 1.038 2.448.195.979.078 1.846-.353 2.6-.461.813-1.194 1.319-2.2 1.519Zm-.641-5.636c-.282.056-.554.18-.818.372a3.505 3.505 0 0 0-.761.765 48.5 48.5 0 0 1 .632 2.753c.423.05.834.036 1.232-.043.46-.092.78-.325.961-.7.165-.34.198-.76.098-1.26-.12-.604-.23-1.017-.33-1.238-.238-.52-.576-.736-1.014-.649Zm10.687 3.686c-.206.04-.577-.118-1.113-.476a8.61 8.61 0 0 1-.998.659c-.292.165-.548.27-.767.313-1.077.214-1.943.087-2.599-.382-.651-.47-1.09-1.279-1.32-2.427-.214-1.078 0-2.078.644-3a4.043 4.043 0 0 1 2.627-1.722c.424-.084.94-.062 1.547.069.732.156 1.137.426 1.213.81a.644.644 0 0 1-.07.453c-.009.188 0 .42.028.699.03.273.082.59.154.952.17.854.353 1.456.549 1.808.02.037.17.25.447.635.25.35.381.552.392.605a.758.758 0 0 1-.157.645.936.936 0 0 1-.577.359Zm-2.578-4.268a5.195 5.195 0 0 1-.071-.495 11.596 11.596 0 0 1-.03-.642 1.224 1.224 0 0 0-.26-.046.575.575 0 0 0-.181.001c-.608.121-1.093.466-1.453 1.035-.362.565-.48 1.16-.356 1.785.12.6.317 1.03.592 1.29.274.258.625.343 1.055.258.277-.055.53-.152.757-.29.232-.144.44-.327.623-.55-.346-1.037-.572-1.819-.676-2.346Zm7.501 3.267c-.983.196-1.863.08-2.64-.346-.82-.45-1.325-1.158-1.517-2.123-.177-.89-.045-1.871.397-2.944.5-1.224 1.223-1.93 2.17-2.119.465-.093 1.033-.075 1.704.051.817.158 1.266.438 1.346.84a.866.866 0 0 1-.112.63.807.807 0 0 1-.569.398c-.192.039-.445-.018-.759-.17-.31-.156-.735-.18-1.276-.073-.344.069-.65.48-.918 1.235-.254.73-.335 1.33-.24 1.805.093.469.337.804.73 1.005.372.19.822.233 1.35.128.299-.06.643-.247 1.03-.56.39-.315.641-.484.758-.507a.845.845 0 0 1 .668.139c.21.14.336.321.38.544.07.35-.24.773-.931 1.273-.618.444-1.142.708-1.57.794Zm7.563-7.458c-.12.024-.303.056-.546.095-.24.033-.42.062-.54.086-.067.014-.14.033-.219.058.494 1.988.823 3.396.987 4.222.2 1.002-.027 1.567-.68 1.697a1.006 1.006 0 0 1-.68-.095.744.744 0 0 1-.414-.537 18.814 18.814 0 0 1-.122-.715c-.05-.325-.091-.565-.122-.721-.122-.613-.393-1.765-.814-3.456l-.596.119c-.456.09-.798.114-1.025.071-.362-.067-.58-.29-.656-.67a.892.892 0 0 1 .124-.674.883.883 0 0 1 .604-.398l3.962-.79c.871-.173 1.367.04 1.486.639a.86.86 0 0 1-.136.682c-.136.204-.34.333-.613.387Zm8.335-2.036c-.285 1.112-.739 2.859-1.361 5.241-.34 1.28-.583 2.335-.73 3.163-.038.296-.104.737-.197 1.322-.077.452-.321.72-.732.801-.255.05-.495.013-.72-.115a.803.803 0 0 1-.413-.566c-.082-.415.146-1.741.686-3.977-.684-.872-1.748-2.145-3.192-3.818a91.81 91.81 0 0 0-.431-.45c-.162-.183-.26-.358-.294-.528a.872.872 0 0 1 .162-.694.952.952 0 0 1 .609-.407c.295-.06.547.005.756.19.803.72 1.796 1.843 2.978 3.374.268-1.155.431-1.852.49-2.091.185-.73.38-1.377.582-1.942.129-.36.36-.574.695-.64.25-.05.491-.01.722.12.23.131.37.32.419.566.026.13.016.28-.029.451Z" fill="#000"/></svg>