<svg width="91" height="72" viewBox="0 0 91 72" fill="none" xmlns="http://www.w3.org/2000/svg">
<path d="M21.74 6.03098L23.6066 17.3632C23.6937 17.8919 24.1081 18.3063 24.6368 18.3934L35.969 20.26C36.8065 20.3979 36.8065 21.6021 35.969 21.74L24.6368 23.6066C24.1081 23.6937 23.6937 24.1081 23.6066 24.6368L21.74 35.969C21.6021 36.8065 20.3979 36.8065 20.26 35.969L18.3934 24.6368C18.3063 24.1081 17.8919 23.6937 17.3632 23.6066L6.03098 21.74C5.19351 21.6021 5.1935 20.3979 6.03098 20.26L17.3632 18.3934C17.8919 18.3063 18.3063 17.8919 18.3934 17.3632L20.26 6.03098C20.3979 5.19351 21.6021 5.1935 21.74 6.03098Z" fill="#FFD43A" stroke="#131441" stroke-width="0.5"/>
<ellipse cx="42.3951" cy="58.3468" rx="9.20366" ry="4.84403" transform="rotate(18.5523 42.3951 58.3468)" fill="#FFD43A"/>
<path d="M85.9851 17.1126C85.9022 17.0021 85.7454 16.9798 85.635 17.0627C85.5246 17.1456 85.5023 17.3023 85.5852 17.4128L85.9851 17.1126ZM88.5851 27.0169L88.3375 26.9826L88.5851 27.0169ZM68.1624 35.0505L68.2342 35.29L68.1624 35.0505ZM60.6841 33.4969L60.8862 33.3498L60.6841 33.4969ZM56.9942 32.9584L56.7543 32.8881L56.9942 32.9584ZM46.9425 59.528L46.8065 59.3182L46.8065 59.3182L46.9425 59.528ZM33.6296 59.101C33.5225 59.0139 33.365 59.0302 33.278 59.1373C33.1909 59.2445 33.2071 59.4019 33.3143 59.489L33.6296 59.101ZM85.5852 17.4128C87.8758 20.4636 88.7353 24.1032 88.3375 26.9826L88.8327 27.0511C89.2499 24.0315 88.3488 20.261 85.9851 17.1126L85.5852 17.4128ZM88.3375 26.9826C88.0976 28.7186 87.758 30.3658 86.7705 31.6354C85.7941 32.8907 84.1504 33.8163 81.2092 34.0249L81.2446 34.5237C84.2814 34.3082 86.0769 33.3415 87.1651 31.9424C88.2423 30.5576 88.5928 28.7882 88.8327 27.0511L88.3375 26.9826ZM81.2092 34.0249C78.2366 34.2358 76.2813 34.0444 74.3914 33.9918C72.497 33.939 70.6976 34.0285 68.0905 34.8111L68.2342 35.29C70.778 34.5264 72.5219 34.4399 74.3775 34.4916C76.2376 34.5434 78.2392 34.7369 81.2446 34.5237L81.2092 34.0249ZM68.0905 34.8111C66.7501 35.2134 64.9393 36.5851 63.8148 38.3453C62.684 40.1154 62.2113 42.3436 63.6869 44.4058L64.0935 44.1149C62.7794 42.2782 63.1699 40.2836 64.2362 38.6145C65.3088 36.9356 67.029 35.6518 68.2342 35.29L68.0905 34.8111ZM63.6869 44.4058C63.8653 44.6552 64.0264 44.855 64.171 45.0067C64.3128 45.1555 64.4511 45.2714 64.586 45.3371C64.7234 45.4039 64.901 45.4366 65.0626 45.3323C65.2058 45.2399 65.2674 45.0804 65.2972 44.9461C65.3584 44.6696 65.3353 44.2602 65.2618 43.7837C65.1868 43.2972 65.0537 42.7088 64.8727 42.0568C64.1506 39.4558 62.6412 35.7595 60.8862 33.3498L60.482 33.6441C62.1898 35.9889 63.6783 39.6238 64.391 42.1906C64.5686 42.8305 64.6966 43.3988 64.7677 43.8599C64.8403 44.3308 64.8485 44.6596 64.809 44.838C64.7884 44.9311 64.7667 44.9282 64.7914 44.9123C64.8344 44.8845 64.8584 44.9136 64.8048 44.8875C64.7487 44.8602 64.6588 44.7939 64.5329 44.6618C64.4099 44.5326 64.2638 44.3529 64.0935 44.1149L63.6869 44.4058ZM60.8862 33.3498C59.0531 30.833 57.4637 28.3907 56.5123 26.547C56.0345 25.6211 55.7279 24.8655 55.624 24.3344C55.5715 24.0662 55.5773 23.8864 55.6129 23.7786C55.6413 23.6925 55.6858 23.6519 55.7739 23.634L55.674 23.1441C55.4043 23.199 55.2206 23.3714 55.138 23.6221C55.0627 23.8508 55.0748 24.1313 55.1333 24.4304C55.2514 25.0342 55.5858 25.8418 56.0679 26.7763C57.0364 28.653 58.6428 31.1189 60.482 33.6441L60.8862 33.3498ZM55.7739 23.634C56.0976 23.568 56.4629 23.5715 56.7923 23.7234C57.1147 23.8721 57.4341 24.1771 57.6491 24.7761C58.088 25.9994 58.0709 28.396 56.7543 32.8881L57.2341 33.0288C58.5535 28.527 58.6169 25.993 58.1197 24.6072C57.8665 23.9016 57.4636 23.4824 57.0017 23.2694C56.5469 23.0597 56.0661 23.0642 55.674 23.1441L55.7739 23.634ZM56.7543 32.8881C55.4396 37.3741 53.5424 43.6132 51.6676 48.9282C50.73 51.5864 49.7998 54.0083 48.9524 55.8627C48.5285 56.7902 48.1277 57.5705 47.7594 58.1656C47.3855 58.7696 47.0636 59.1516 46.8065 59.3182L47.0785 59.7377C47.4357 59.5062 47.8064 59.0397 48.1845 58.4287C48.5683 57.8087 48.979 57.0074 49.4071 56.0705C50.2637 54.1961 51.1997 51.7579 52.1391 49.0945C54.0185 43.7666 55.9186 37.5172 57.2341 33.0288L56.7543 32.8881ZM46.8065 59.3182C45.2547 60.3241 42.6679 60.5744 40.388 60.2352C39.2538 60.0665 38.2187 59.7547 37.4478 59.3352C36.6681 58.9109 36.209 58.4055 36.1197 57.8713L35.6265 57.9537C35.7539 58.7156 36.3804 59.3236 37.2088 59.7744C38.0461 60.2301 39.1418 60.5553 40.3144 60.7298C42.6483 61.077 45.3795 60.839 47.0785 59.7377L46.8065 59.3182ZM36.1197 57.8713C36.021 57.2809 36.1319 56.7849 36.3929 56.3694C36.6568 55.9492 37.0845 55.5954 37.6424 55.3163C38.7618 54.7562 40.3553 54.5222 41.9908 54.6283L42.0232 54.1293C40.3333 54.0197 38.6432 54.2565 37.4187 54.8691C36.8047 55.1763 36.2954 55.5844 35.9694 56.1035C35.6405 56.6273 35.5086 57.2481 35.6265 57.9537L36.1197 57.8713ZM41.9908 54.6283C43.6109 54.7334 45.7511 55.4168 47.2774 56.4031C48.0413 56.8968 48.6274 57.451 48.9281 58.0233C49.2208 58.5803 49.2469 59.1567 48.889 59.7532L49.3178 60.0105C49.7743 59.2495 49.7363 58.4863 49.3707 57.7907C49.0132 57.1103 48.3469 56.499 47.5488 55.9832C45.9511 54.9507 43.7286 54.24 42.0232 54.1293L41.9908 54.6283ZM48.889 59.7532C48.5244 60.3609 47.7421 60.9099 46.6427 61.3148C45.5509 61.7169 44.1797 61.9643 42.6861 61.9936C39.6963 62.0524 36.2583 61.2374 33.6296 59.101L33.3143 59.489C36.0569 61.7181 39.6202 62.554 42.696 62.4936C44.2352 62.4633 45.6629 62.2085 46.8155 61.784C47.9604 61.3623 48.8679 60.7603 49.3178 60.0105L48.889 59.7532Z" fill="#131441"/>
</svg>
