<svg width="92" height="226" fill="none" xmlns="http://www.w3.org/2000/svg"><path d="M59.609 57.043a1.5 1.5 0 0 0-2.179 2.062l2.179-2.062Zm-47.59 168.031 17.32.057-8.61-15.028-8.71 14.971Zm5.086-1.185a1.5 1.5 0 0 0-1.533-2.579l1.533 2.579Zm6.709-7.854a1.5 1.5 0 0 0 1.7 2.472l-1.7-2.472Zm9.738-3.48a1.5 1.5 0 0 0-1.87-2.347l1.87 2.347Zm5.57-8.725a1.5 1.5 0 0 0 2.035 2.205l-2.035-2.205Zm9.125-4.85a1.5 1.5 0 0 0-2.196-2.045l2.196 2.045Zm4.19-9.456a1.5 1.5 0 1 0 2.348 1.868l-2.348-1.868Zm8.27-6.213a1.5 1.5 0 1 0-2.49-1.675l2.49 1.675Zm2.634-9.996a1.5 1.5 0 1 0 2.616 1.468l-2.616-1.468Zm7.158-7.468a1.5 1.5 0 1 0-2.728-1.248l2.728 1.248Zm.963-10.295a1.5 1.5 0 0 0 2.823 1.016l-2.823-1.016Zm5.819-8.547a1.5 1.5 0 0 0-2.898-.775l2.898.775Zm-.778-10.316a1.5 1.5 0 1 0 2.953.524l-2.953-.524Zm4.275-9.411a1.501 1.501 0 0 0-2.988-.265l2.988.265Zm-2.561-10.02a1.5 1.5 0 0 0 3-.005l-3 .005Zm2.52-10.035a1.5 1.5 0 0 0-2.987.285l2.987-.285Zm-4.383-9.363a1.5 1.5 0 1 0 2.944-.577l-2.944.577Zm.5-10.326a1.5 1.5 0 1 0-2.866.883l2.867-.883Zm-6.249-8.229a1.5 1.5 0 1 0 2.747-1.206l-2.747 1.206Zm-1.873-10.169a1.5 1.5 0 0 0-2.573 1.544l2.573-1.544Zm-8.116-6.394a1.5 1.5 0 0 0 2.33-1.89l-2.33 1.89ZM25.515 218.507a143.517 143.517 0 0 0 8.037-5.952l-1.87-2.347a139.81 139.81 0 0 1-7.868 5.827l1.7 2.472Zm15.642-12.472c2.487-2.296 4.85-4.65 7.09-7.055l-2.196-2.045a129.3 129.3 0 0 1-6.929 6.895l2.035 2.205Zm13.628-14.643a126.018 126.018 0 0 0 5.921-8.081l-2.489-1.675a122.909 122.909 0 0 1-5.78 7.888l2.348 1.868Zm11.172-16.609a121.766 121.766 0 0 0 4.542-8.936l-2.728-1.248a118.734 118.734 0 0 1-4.43 8.716l2.616 1.468Zm8.328-18.215a118.834 118.834 0 0 0 2.996-9.563l-2.898-.775a115.951 115.951 0 0 1-2.92 9.322l2.822 1.016Zm5.171-19.355c.591-3.326 1.03-6.642 1.322-9.935l-2.988-.265a111.853 111.853 0 0 1-1.287 9.676l2.953.524Zm1.76-19.96a107.49 107.49 0 0 0-.48-10.03l-2.986.285c.305 3.199.462 6.454.467 9.75l3-.005Zm-1.918-19.97a95.379 95.379 0 0 0-2.443-9.75l-2.867.884a92.37 92.37 0 0 1 2.366 9.443l2.944-.577ZM73.352 78.1a79.68 79.68 0 0 0-4.62-8.963l-2.573 1.544a76.678 76.678 0 0 1 4.446 8.625l2.747-1.206ZM62.946 60.852a66.182 66.182 0 0 0-3.337-3.809l-2.179 2.062a63.227 63.227 0 0 1 3.186 3.637l2.33-1.89Z" fill="#131441"/><path d="M15.134 34.47c-.607.12-1.06-.058-1.362-.536-.192-.3-.345-.8-.458-1.502l-4.932.982c-.052.01-.483.13-1.294.357.02.102.056.264.107.487.052.228.09.403.115.524.072.364.004.69-.204.977-.202.286-.495.467-.878.543-.92.183-1.491-.29-1.716-1.42a30.49 30.49 0 0 1-.166-.933c-.065-.392-.12-.7-.164-.924a1.207 1.207 0 0 1 .202-.986c.193-.264.473-.44.841-.526.408-.917.608-1.95.599-3.096-.01-.815-.142-1.86-.396-3.138-.25-1.257.308-2.022 1.674-2.294.16-.032.46-.078.898-.14.445-.068.795-.128 1.05-.178.243-.049.6-.14 1.07-.273.472-.134.813-.222 1.024-.264.638-.127 1.11.028 1.417.465.185.262.344.728.477 1.399.055.274.117.687.187 1.237.076.55.141.96.196 1.235.048.243.296 1.405.744 3.487.924-.091 1.46.233 1.608.974.05.25.123.586.22 1.012.099.425.172.759.22 1.001.073.364.005.69-.204.977-.2.292-.492.476-.875.553Zm-7.14-3.398 3.478-.693a711.19 711.19 0 0 1-.723-3.38c-.051-.256-.11-.64-.18-1.15a29.056 29.056 0 0 0-.17-1.16c-1.124.256-1.873.412-2.247.466.382 2.221.33 4.193-.157 5.916Zm17.418-.54c-.293.058-.823-.168-1.589-.68-.531.398-1.007.712-1.426.941-.417.236-.783.385-1.095.448-1.54.306-2.777.124-3.714-.546-.93-.671-1.558-1.827-1.885-3.468-.306-1.539 0-2.967.92-4.285.918-1.325 2.168-2.145 3.752-2.46.606-.12 1.343-.088 2.21.098 1.046.223 1.625.609 1.734 1.158a.92.92 0 0 1-.1.647c-.013.268 0 .601.039.998.044.39.118.843.22 1.36.244 1.22.505 2.08.784 2.583.03.053.243.356.639.908.358.5.545.788.56.864.067.339-.008.646-.225.921-.21.275-.485.445-.824.513Zm-3.683-6.098a7.435 7.435 0 0 1-.1-.707c-.022-.274-.037-.58-.044-.917a1.749 1.749 0 0 0-.372-.065.82.82 0 0 0-.258.001c-.868.173-1.56.666-2.076 1.479-.516.806-.686 1.656-.508 2.55.17.856.452 1.47.845 1.844.392.366.894.489 1.507.367a3.318 3.318 0 0 0 1.083-.415c.33-.205.627-.467.89-.784-.495-1.482-.817-2.6-.967-3.353Zm9.664-.22c-.258.17-.63.822-1.114 1.954-.44 1.03-.696 1.755-.772 2.175-.102.59-.443.944-1.024 1.06-.319.063-.622.027-.907-.108-.317-.157-.508-.397-.572-.723-.105-.524.078-1.34.548-2.449.449-1.045.952-1.902 1.51-2.57-.287-.203-.599-.536-.937-1-.383-.527-.669-.879-.857-1.054-.21-.19-.382-.272-.516-.245a.922.922 0 0 1-.736-.143 1.028 1.028 0 0 1-.397-.647c-.051-.256.088-.522.418-.8.29-.244.582-.395.875-.454.62-.123 1.18.044 1.683.502.137.119.51.576 1.12 1.37.188.248.336.405.442.47.15.09.366.126.649.11a38.519 38.519 0 0 1-.426-1.837c-.192-.965.137-1.531.986-1.7.345-.069.66-.022.944.14a.99.99 0 0 1 .53.711c.084.422.247 1.156.488 2.203.394-.124.66-.357.798-.696.09-.35.183-.697.28-1.042.167-.597.334-1.022.503-1.275.275-.42.671-.681 1.188-.784.288-.057.612-.029.973.085.411.13.642.324.693.58.055.274.012.525-.129.752a.878.878 0 0 1-.613.42c-.198.04-.4.395-.604 1.067a62.28 62.28 0 0 1-.323 1.23c-.093.27-.202.504-.328.702.77.404 1.563 1.003 2.379 1.796.858.845 1.34 1.53 1.444 2.053a.975.975 0 0 1-.252.886 1.419 1.419 0 0 1-.797.448c-.581.115-1.031-.077-1.35-.578-.23-.359-.742-.928-1.534-1.706-.873-.848-1.47-1.31-1.79-1.386.027.134.085.441.174.921.068.378.126.685.173.922.017.083.048.226.096.429.053.201.091.36.114.475.238 1.194-.078 1.877-.946 2.05a1.351 1.351 0 0 1-.92-.116.99.99 0 0 1-.552-.726 36.106 36.106 0 0 1-.229-1.349 29.47 29.47 0 0 0-.22-1.36c-.055-.274-.11-.529-.163-.764Zm14.832 1.976c-1.526.303-2.847.188-3.962-.347-1.233-.59-1.995-1.617-2.286-3.08-.322-1.615-.17-3.066.457-4.352.699-1.427 1.85-2.3 3.452-2.62 1.111-.22 2.07-.225 2.875-.014 1.058.28 1.686.92 1.884 1.915.14.703-.128 1.403-.806 2.102-.308.32-.954.827-1.937 1.521l-2.944 2.07c.373.27.793.446 1.26.526.467.08.981.063 1.543-.049.856-.17 1.546-.49 2.07-.96.467-.418.86-.659 1.18-.722.664-.132 1.06.124 1.189.769.145.728-.27 1.428-1.245 2.1a7.284 7.284 0 0 1-2.73 1.14Zm-1.878-8.08a2.187 2.187 0 0 0-1.404.897c-.343.48-.563 1.14-.66 1.983.658-.456 1.315-.909 1.97-1.358.784-.561 1.398-1.058 1.843-1.492-.476-.158-1.059-.168-1.749-.03Zm25.947 3.189c-.383.076-.726.025-1.027-.154a1.2 1.2 0 0 1-.55-.817c-.097-.485-.282-1.195-.554-2.13-.273-.935-.456-1.642-.552-2.12-.07-.352-.2-1.125-.392-2.322-2.296.437-3.499.666-3.607.688-.236.047-.55.136-.943.267.064.286.24.955.53 2.006.222.819.385 1.487.488 2.004.057.287.114.724.17 1.31.056.58.113 1.013.17 1.3.071.358.003.68-.206.968-.208.287-.504.468-.887.544-.383.077-.726.022-1.028-.163a1.2 1.2 0 0 1-.551-.817 14.19 14.19 0 0 1-.17-1.3 13.132 13.132 0 0 0-.161-1.312c-.11-.55-.315-1.365-.617-2.447-.295-1.082-.498-1.902-.608-2.457a1.425 1.425 0 0 1 .23-1.141c.238-.34.587-.555 1.047-.647.23-.046.568-.146 1.015-.302a8.43 8.43 0 0 1 1.025-.303c.55-.11 1.377-.268 2.485-.475 1.107-.207 1.935-.365 2.484-.474a1.328 1.328 0 0 1 1.004.188c.317.196.51.46.575.792.078.39.177.973.3 1.752.121.78.22 1.36.296 1.743.098.492.285 1.212.56 2.16.281.946.47 1.665.569 2.156.07.358.002.68-.206.967-.204.28-.5.458-.89.536Zm7.95-1.324c-1.442.287-2.754.133-3.935-.461-1.263-.645-2.03-1.65-2.303-3.017-.307-1.545-.084-3.06.669-4.544.862-1.705 2.187-2.736 3.975-3.091 3.422-.682 5.435.49 6.037 3.517.308 1.546.124 3.043-.55 4.491-.8 1.713-2.098 2.748-3.892 3.105Zm-1.093-8.595c-.849.17-1.508.726-1.978 1.669-.47.937-.607 1.903-.408 2.899.12.6.456 1.041 1.01 1.322.56.28 1.217.346 1.97.196.824-.164 1.448-.713 1.873-1.648.412-.898.516-1.861.31-2.89-.158-.798-.43-1.3-.817-1.51-.38-.21-1.034-.222-1.96-.037ZM10.717 53.65c-.345.069-.688.011-1.03-.173-.37-.192-.589-.457-.656-.795l-.336-1.686c-.142-.715-.316-1.653-.52-2.814-.263-1.52-.43-2.457-.5-2.808-.088-.48-.116-.833-.08-1.06.056-.382.266-.66.63-.832.52-.256 1.287-.485 2.303-.687 1.092-.218 2.137-.167 3.137.152 1.224.38 1.94 1.09 2.147 2.132.153.772-.073 1.454-.678 2.046 1.316.508 2.055 1.171 2.218 1.988.23 1.163-.555 2.202-2.357 3.118-1.211.62-2.637 1.093-4.278 1.42Zm.584-8.67-.392.079c-.243.048-.447.092-.611.131l.127.642c.026.128.079.343.159.646.097.352.152.567.168.643.272-.034.475-.064.609-.091.428-.085.835-.24 1.222-.462.518-.302.741-.63.671-.98-.042-.211-.285-.382-.729-.512-.445-.137-.853-.169-1.224-.095Zm1.405 3.505c-.146.002-.739.09-1.78.264.035.24.097.585.187 1.039l.27 1.36c2.292-.563 3.389-1.09 3.29-1.581-.054-.275-.33-.529-.828-.761-.44-.211-.82-.318-1.14-.321Zm11.23 2.693c-1.443.287-2.755.134-3.935-.461-1.264-.645-2.031-1.65-2.303-3.017-.308-1.545-.085-3.06.668-4.544.862-1.705 2.187-2.735 3.975-3.091 3.423-.681 5.435.491 6.037 3.518.308 1.545.125 3.042-.55 4.49-.8 1.713-2.098 2.748-3.892 3.105Zm-1.093-8.594c-.85.169-1.509.725-1.978 1.668-.471.937-.607 1.903-.409 2.9.12.6.456 1.04 1.01 1.322.56.28 1.217.345 1.97.195.824-.164 1.448-.713 1.873-1.647.412-.899.516-1.862.311-2.89-.159-.798-.431-1.302-.818-1.51-.38-.21-1.034-.223-1.96-.038Zm11.399 6.393c-.856.17-1.654.197-2.394.079-.995-.16-1.559-.576-1.692-1.247-.051-.255.026-.536.23-.842.21-.314.459-.5.746-.557.3-.06.733-.033 1.3.08.573.111 1.017.136 1.33.074.242-.049.46-.205.653-.469.192-.27.265-.52.219-.75-.071-.358-.376-.573-.915-.645-.506-.039-1.007-.075-1.505-.108-.547-.078-.856-.298-.928-.662-.093-.466.03-.826.372-1.08.19-.15.558-.313 1.107-.49.4-.125.664-.25.792-.376.171-.173.222-.436.152-.787-.094-.472-.63-.611-1.607-.417-.198.04-.448.216-.75.528-.304.313-.608.5-.915.56a1.45 1.45 0 0 1-.961-.127 1.028 1.028 0 0 1-.588-.75c-.111-.561.209-1.136.961-1.724.633-.49 1.224-.791 1.773-.9.977-.195 1.897-.159 2.76.108 1.074.33 1.705.961 1.89 1.893.19.958.039 1.812-.456 2.56.799.612 1.263 1.246 1.394 1.904.206 1.034.04 1.93-.5 2.688-.54.752-1.364 1.237-2.468 1.457Zm9.706-1.812c-.55.109-1.14.16-1.772.153l.768 3.91c.074.37.01.701-.19.994-.2.292-.493.476-.876.552-.383.077-.723.018-1.02-.175a1.254 1.254 0 0 1-.557-.845c-.06-.3-.29-1.492-.692-3.576a188.218 188.218 0 0 0-.753-3.783 65.604 65.604 0 0 0-.843-3.537c-.37-1.353-.543-1.973-.52-1.858-.105-.53-.077-1.007.084-1.43.19-.483.517-.77.983-.863.358-.072.682-.01.973.184.29.195.47.461.537.8l.01.097c.38-.327.772-.591 1.177-.792.41-.207.832-.354 1.266-.44 1.468-.293 2.665.116 3.59 1.226.691.838 1.185 2.005 1.483 3.499.278 1.398.11 2.636-.505 3.715-.659 1.16-1.707 1.883-3.143 2.169Zm-.916-8.053c-.402.08-.792.258-1.169.532-.378.268-.74.632-1.087 1.092.339 1.3.64 2.611.903 3.933a5.584 5.584 0 0 0 1.76-.061c.657-.131 1.115-.465 1.374-1 .235-.486.282-1.086.14-1.801-.172-.862-.33-1.452-.472-1.768-.34-.742-.823-1.051-1.45-.927Zm15.267 5.266c-.294.058-.823-.168-1.589-.68-.532.398-1.007.712-1.426.941-.417.236-.783.385-1.096.447-1.538.307-2.776.125-3.713-.545-.93-.671-1.558-1.827-1.885-3.468-.306-1.539 0-2.968.92-4.286.917-1.324 2.168-2.144 3.752-2.46.606-.12 1.343-.087 2.21.099 1.046.223 1.624.609 1.734 1.158a.92.92 0 0 1-.1.647c-.014.268 0 .601.039.998.044.39.118.843.22 1.36.243 1.22.505 2.08.784 2.583.03.053.243.356.639.908.358.5.545.788.56.864.067.338-.008.645-.225.921a1.337 1.337 0 0 1-.824.513Zm-3.683-6.098a7.435 7.435 0 0 1-.101-.707 16.48 16.48 0 0 1-.043-.917 1.755 1.755 0 0 0-.372-.066.82.82 0 0 0-.258.002c-.869.173-1.56.666-2.076 1.479-.516.806-.686 1.656-.508 2.55.17.856.452 1.47.845 1.843.392.367.894.49 1.507.368a3.316 3.316 0 0 0 1.083-.415 3.63 3.63 0 0 0 .889-.784c-.494-1.482-.816-2.6-.966-3.353Zm10.717 4.668c-1.405.28-2.662.115-3.773-.494-1.17-.643-1.892-1.655-2.167-3.034-.253-1.27-.064-2.672.567-4.205.714-1.749 1.748-2.758 3.102-3.027.664-.132 1.475-.108 2.434.073 1.166.226 1.807.626 1.922 1.2.062.313.008.613-.16.899a1.153 1.153 0 0 1-.813.57c-.274.054-.636-.026-1.084-.243-.443-.223-1.05-.258-1.823-.105-.491.098-.929.686-1.311 1.765-.364 1.041-.478 1.9-.344 2.578.134.67.481 1.148 1.043 1.435.532.272 1.175.334 1.928.184.428-.086.92-.353 1.474-.802.554-.448.915-.69 1.08-.722.345-.07.664-.003.956.198.299.199.48.458.543.778.1.498-.344 1.104-1.33 1.818-.883.634-1.631 1.012-2.244 1.134Zm10.803-10.654c-.172.034-.432.079-.78.135-.341.048-.599.09-.771.124a2.93 2.93 0 0 0-.312.082c.705 2.84 1.175 4.85 1.41 6.032.284 1.43-.04 2.238-.972 2.424a1.436 1.436 0 0 1-.972-.135 1.064 1.064 0 0 1-.592-.769 26.949 26.949 0 0 1-.173-1.02c-.072-.464-.13-.808-.175-1.031-.174-.875-.562-2.52-1.162-4.937l-.853.17c-.65.13-1.139.163-1.463.102-.517-.096-.83-.416-.937-.958a1.274 1.274 0 0 1 .177-.962c.191-.303.479-.493.862-.57l5.66-1.127c1.246-.247 1.953.056 2.124.912a1.23 1.23 0 0 1-.195.975c-.194.29-.486.475-.876.553Zm11.908-2.908c-.407 1.587-1.056 4.083-1.945 7.486-.486 1.83-.833 3.336-1.042 4.52-.055.422-.15 1.051-.281 1.887-.11.646-.46 1.028-1.047 1.144a1.451 1.451 0 0 1-1.028-.163 1.148 1.148 0 0 1-.59-.809c-.118-.594.209-2.488.98-5.681-.978-1.246-2.498-3.064-4.56-5.455-.202-.212-.407-.427-.617-.644-.23-.26-.37-.51-.418-.753-.069-.345.008-.676.23-.992a1.36 1.36 0 0 1 .87-.582c.422-.084.782.008 1.08.273 1.147 1.027 2.566 2.633 4.255 4.819.382-1.65.616-2.645.7-2.987.264-1.042.541-1.966.832-2.775.183-.514.514-.819.993-.914a1.453 1.453 0 0 1 1.03.173c.33.187.529.456.599.807.037.185.023.4-.041.646Z" fill="#000"/></svg>