<svg width="141" height="149" fill="none" xmlns="http://www.w3.org/2000/svg"><path d="m43.261 81.84 7.96-29.561a1.5 1.5 0 0 1 1.058-1.059l29.561-7.959c.493-.133.493-.833 0-.965l-29.561-7.96a1.5 1.5 0 0 1-1.059-1.058L43.261 3.716c-.133-.493-.833-.493-.966 0l-7.959 29.562a1.5 1.5 0 0 1-1.058 1.058l-29.562 7.96c-.493.132-.493.832 0 .965l29.562 7.96a1.5 1.5 0 0 1 1.058 1.058l7.96 29.561c.132.494.832.494.965 0ZM123.983 145.284l2.597-9.646a1.5 1.5 0 0 1 1.058-1.058l9.646-2.597c.493-.133.493-.833 0-.966l-9.646-2.597a1.5 1.5 0 0 1-1.058-1.058l-2.597-9.646c-.133-.493-.833-.493-.966 0l-2.597 9.646a1.5 1.5 0 0 1-1.058 1.058l-9.646 2.597c-.493.133-.493.833 0 .966l9.646 2.597a1.5 1.5 0 0 1 1.058 1.058l2.597 9.646c.133.493.833.493.966 0Z" fill="#FFD43A" stroke="#131441"/></svg>