<svg width="66" height="121" viewBox="0 0 66 121" fill="none" xmlns="http://www.w3.org/2000/svg">
<path d="M38.0172 3.71632L33.4049 20.8465C33.2659 21.3627 32.8627 21.7659 32.3465 21.9049L15.2163 26.5172C14.723 26.65 14.723 27.35 15.2163 27.4828L32.3465 32.0951C32.8627 32.2341 33.2659 32.6373 33.4049 33.1535L38.0172 50.2837C38.15 50.777 38.85 50.777 38.9828 50.2837L43.5951 33.1535C43.7341 32.6373 44.1373 32.2341 44.6535 32.0951L61.7837 27.4828C62.277 27.35 62.277 26.65 61.7837 26.5172L44.6535 21.9049C44.1373 21.7659 43.7341 21.3627 43.5951 20.8465L38.9828 3.71632C38.85 3.22298 38.15 3.22297 38.0172 3.71632Z" fill="#FFD43A" stroke="#131441"/>
<path d="M15.5172 93.7163L13.3444 101.786C13.2055 102.302 12.8022 102.705 12.286 102.844L4.21632 105.017C3.72298 105.15 3.72298 105.85 4.21632 105.983L12.286 108.156C12.8022 108.295 13.2055 108.698 13.3444 109.214L15.5172 117.284C15.65 117.777 16.35 117.777 16.4828 117.284L18.6556 109.214C18.7945 108.698 19.1978 108.295 19.714 108.156L27.7837 105.983C28.277 105.85 28.277 105.15 27.7837 105.017L19.714 102.844C19.1978 102.705 18.7945 102.302 18.6556 101.786L16.4828 93.7163C16.35 93.223 15.65 93.223 15.5172 93.7163Z" fill="#FFD43A" stroke="#131441"/>
</svg>
