<svg width="157" height="252" fill="none" xmlns="http://www.w3.org/2000/svg"><path d="m26.517 3.716-4.612 17.13a1.5 1.5 0 0 1-1.059 1.059l-17.13 4.612c-.493.133-.493.833 0 .966l17.13 4.612a1.5 1.5 0 0 1 1.059 1.059l4.612 17.13c.133.493.833.493.966 0l4.612-17.13a1.5 1.5 0 0 1 1.059-1.059l17.13-4.612c.493-.133.493-.833 0-.966l-17.13-4.612a1.5 1.5 0 0 1-1.059-1.059l-4.612-17.13c-.133-.493-.833-.493-.966 0ZM105.017 152.716l-9.81 36.433c-.138.516-.541.92-1.058 1.059l-36.433 9.809c-.493.133-.493.833 0 .966l36.433 9.809c.516.139.92.543 1.059 1.059l9.809 36.433c.133.493.833.493.966 0l9.809-36.433c.139-.516.543-.92 1.059-1.059l36.433-9.809c.493-.133.493-.833 0-.966l-36.433-9.809a1.502 1.502 0 0 1-1.059-1.059l-9.809-36.433c-.133-.493-.833-.493-.966 0Z" fill="#FFD43A" stroke="#131441"/></svg>