<svg width="218" height="109" fill="none" xmlns="http://www.w3.org/2000/svg"><path d="M214.97 20.182a1.5 1.5 0 0 0 1.095-2.793l-1.095 2.793ZM63.017 18.785l-.847-1.237.847 1.237Zm-54 90 9.08-14.75-17.313-.488 8.233 15.238Zm1.65-5.323a1.5 1.5 0 0 0-2.992-.231l2.991.231ZM9.33 92.279a1.5 1.5 0 0 0 2.93.64l-2.93-.64Zm5.79-9.696a1.5 1.5 0 1 0-2.846-.95l2.845.95Zm1.166-11.238a1.5 1.5 0 0 0 2.74 1.224l-2.74-1.224Zm7.576-8.373a1.5 1.5 0 1 0-2.614-1.472l2.614 1.472Zm3.222-10.822a1.5 1.5 0 0 0 2.471 1.701l-2.471-1.7Zm8.946-6.877a1.5 1.5 0 0 0-2.314-1.91l2.314 1.91Zm5.053-10.099a1.5 1.5 0 0 0 2.144 2.098l-2.144-2.098Zm9.978-5.278a1.5 1.5 0 0 0-1.966-2.266l1.966 2.266Zm6.623-9.155a1.5 1.5 0 0 0 1.786 2.411l-1.785-2.41Zm10.253-3.318a1.5 1.5 0 0 0-1.534-2.579l1.534 2.579Zm7.376-7.18a1.5 1.5 0 1 0 1.22 2.742l-1.22-2.741Zm10.274-.727a1.5 1.5 0 1 0-.93-2.852l.93 2.852Zm8.696-5.51a1.5 1.5 0 1 0 .67 2.925l-.67-2.924Zm10.24 1.128a1.5 1.5 0 1 0-.441-2.967l.441 2.967Zm9.452-4.092a1.5 1.5 0 1 0 .24 2.99l-.24-2.99Zm9.997 2.5a1.5 1.5 0 1 0-.065-3l.065 3Zm9.869-2.95a1.5 1.5 0 0 0-.091 2.998l.091-2.998Zm9.68 3.527a1.5 1.5 0 0 0 .23-2.991l-.23 2.991Zm10.104-2.018a1.5 1.5 0 1 0-.356 2.978l.356-2.978Zm9.351 4.332a1.5 1.5 0 1 0 .471-2.962l-.471 2.962Zm10.232-1.225a1.5 1.5 0 1 0-.579 2.944l.579-2.944Zm9.006 5.008a1.501 1.501 0 0 0 .683-2.922l-.683 2.922Zm10.291-.496a1.5 1.5 0 1 0-.786 2.895l.786-2.895Zm8.609 5.632a1.5 1.5 0 0 0 .894-2.864l-.894 2.864Zm10.324.3a1.5 1.5 0 0 0-1.018 2.821l1.018-2.822ZM12.262 92.917a99.626 99.626 0 0 1 2.858-10.335l-2.845-.95a102.627 102.627 0 0 0-2.944 10.646l2.93.64Zm6.764-20.349a115.938 115.938 0 0 1 4.837-9.597L21.249 61.5a118.9 118.9 0 0 0-4.962 9.845l2.74 1.224Zm10.53-18.718a123.216 123.216 0 0 1 6.475-8.578l-2.314-1.91a126.16 126.16 0 0 0-6.632 8.787l2.471 1.701Zm13.672-16.579a132.442 132.442 0 0 1 7.834-7.376l-1.966-2.266a135.463 135.463 0 0 0-8.012 7.544l2.144 2.098Zm16.243-14.12c1.425-1.056 2.89-2.099 4.394-3.129l-1.695-2.475a148.146 148.146 0 0 0-4.485 3.194l1.786 2.41Zm4.394-3.129a75.754 75.754 0 0 1 4.073-2.6l-1.534-2.579a78.797 78.797 0 0 0-4.234 2.704l1.695 2.475Zm12.669-7.038a93.619 93.619 0 0 1 9.054-3.47l-.93-2.851a96.621 96.621 0 0 0-9.344 3.58l1.22 2.74Zm18.42-6.054c3.14-.72 6.335-1.315 9.57-1.797l-.441-2.967a128.44 128.44 0 0 0-9.799 1.84l.67 2.924Zm19.262-2.899c3.233-.26 6.489-.42 9.757-.49l-.065-3c-3.322.072-6.638.235-9.932.5l.24 2.99Zm19.535-.442c3.266.1 6.528.28 9.771.529l.23-2.991a213.982 213.982 0 0 0-9.91-.536l-.091 2.998Zm19.519 1.49c3.275.39 6.516.846 9.707 1.353l.471-2.962a255.47 255.47 0 0 0-9.822-1.37l-.356 2.978Zm19.36 3.072c3.275.645 6.477 1.337 9.585 2.064l.683-2.922a280.611 280.611 0 0 0-9.689-2.086l-.579 2.944Zm19.09 4.463a261.99 261.99 0 0 1 9.395 2.737l.894-2.864a265.295 265.295 0 0 0-9.503-2.768l-.786 2.895Zm18.701 5.858c1.599.577 3.118 1.148 4.549 1.71l1.095-2.794a182.357 182.357 0 0 0-4.626-1.738l-1.018 2.822Z" fill="#131441"/></svg>