<svg width="519" height="329" fill="none" xmlns="http://www.w3.org/2000/svg"><path d="M494.356 66.25c3.2 8.88-.132 19.763-9.171 31.922-9.024 12.14-23.657 25.438-42.792 39.081-38.263 27.281-94.431 55.873-159.435 79.295-65.003 23.422-126.499 37.227-173.369 40.621-23.439 1.697-43.19.789-57.885-2.806-14.717-3.599-24.224-9.855-27.424-18.736-3.2-8.881.132-19.763 9.17-31.922 9.025-12.141 23.658-25.439 42.793-39.082 38.263-27.281 94.431-55.872 159.435-79.294 65.003-23.422 126.499-37.227 173.369-40.621 23.439-1.698 43.191-.79 57.885 2.805 14.717 3.6 24.224 9.856 27.424 18.737Z" stroke="#131441"/><path d="m278.78 45.67-4.911 18.24a1.5 1.5 0 0 1-1.059 1.058l-18.238 4.91c-.494.134-.494.834 0 .966l18.238 4.911a1.5 1.5 0 0 1 1.059 1.059l4.911 18.238c.132.494.832.494.965 0l4.911-18.239a1.5 1.5 0 0 1 1.058-1.058l18.239-4.91c.493-.133.493-.833 0-.966l-18.239-4.911a1.5 1.5 0 0 1-1.058-1.058l-4.911-18.24c-.133-.492-.833-.492-.965 0ZM116.615 210.515l-25.726 30.608a1.5 1.5 0 0 1-1.406.512l-39.387-6.88c-.503-.088-.799.547-.408.876l30.608 25.725c.41.344.605.88.513 1.407l-6.88 39.387c-.088.503.546.799.875.408l25.726-30.608c.344-.41.88-.605 1.406-.513l39.387 6.88c.503.088.799-.546.408-.875l-30.608-25.726a1.5 1.5 0 0 1-.512-1.406l6.88-39.387c.087-.504-.547-.799-.876-.408Z" fill="#FFD43A" stroke="#131441"/></svg>