<svg width="120" height="81" fill="none" xmlns="http://www.w3.org/2000/svg"><path d="M119.994 2.138a1.5 1.5 0 0 0-2.988-.276l2.988.276ZM0 71l14.567 9.37.831-17.3L0 71Zm4.711 1.728a1.5 1.5 0 0 0 .113-2.998l-.113 2.998Zm9.487-2.85a1.5 1.5 0 0 0 .02 3l-.02-3Zm9.515 2.708a1.5 1.5 0 1 0-.167-2.995l.167 2.995Zm9.204-3.773a1.5 1.5 0 0 0 .332 2.981l-.332-2.981Zm9.774 1.64a1.5 1.5 0 1 0-.515-2.955l.515 2.955Zm8.64-4.869a1.5 1.5 0 1 0 .715 2.913l-.716-2.913Zm9.9.284a1.5 1.5 0 1 0-.937-2.85l.938 2.85Zm7.804-6.137a1.5 1.5 0 1 0 1.177 2.76l-1.177-2.76Zm9.816-1.409a1.5 1.5 0 1 0-1.432-2.636l1.432 2.636Zm6.502-7.48a1.5 1.5 0 0 0 1.694 2.477l-1.694-2.476Zm9.32-3.38a1.5 1.5 0 0 0-1.958-2.273l1.958 2.273Zm4.7-8.718a1.5 1.5 0 1 0 2.211 2.028l-2.21-2.028Zm8.28-5.459a1.5 1.5 0 0 0-2.443-1.74l2.443 1.74Zm2.429-9.601a1.5 1.5 0 0 0 2.648 1.41l-2.648-1.41Zm6.599-7.405a1.5 1.5 0 1 0-2.817-1.032l2.817 1.032Zm-.328-9.894a1.5 1.5 0 1 0 2.945.57l-2.945-.57ZM14.218 72.88c3.256-.022 6.42-.121 9.495-.293l-.167-2.995c-3.025.169-6.14.266-9.348.288l.02 3Zm19.031-1.085c3.257-.363 6.404-.812 9.442-1.34l-.515-2.956c-2.976.518-6.061.958-9.26 1.315l.333 2.981Zm18.797-3.297a124.628 124.628 0 0 0 9.186-2.629l-.938-2.85c-2.855.94-5.841 1.798-8.964 2.566l.717 2.913Zm18.166-6.006a101.864 101.864 0 0 0 8.639-4.169l-1.432-2.636a98.903 98.903 0 0 1-8.384 4.045l1.177 2.76Zm16.835-9.172a86.862 86.862 0 0 0 7.626-5.857l-1.958-2.273a83.876 83.876 0 0 1-7.362 5.654l1.694 2.475Zm14.537-12.547a78.08 78.08 0 0 0 6.069-7.487l-2.443-1.74a75.163 75.163 0 0 1-5.836 7.199l2.21 2.028Zm11.146-15.677a69.818 69.818 0 0 0 3.951-8.816l-2.817-1.032a66.627 66.627 0 0 1-3.782 8.437l2.648 1.41Zm6.568-18.14c.324-1.675.554-3.286.696-4.817l-2.988-.276a46.364 46.364 0 0 1-.653 4.523l2.945.57Z" fill="#131441"/></svg>