<svg width="501" height="428" fill="none" xmlns="http://www.w3.org/2000/svg"><path d="M464.137 288.559c4.716-8.169 3.863-19.149-1.921-32.12-5.777-12.959-16.432-27.801-31.123-43.591-29.377-31.574-74.812-66.853-129.343-98.337-54.532-31.484-107.802-53.192-149.835-62.846-21.019-4.828-39.2-6.634-53.312-5.159-14.125 1.478-24.06 6.228-28.777 14.397-4.716 8.17-3.863 19.15 1.92 32.12 5.778 12.959 16.433 27.801 31.124 43.591 29.377 31.574 74.812 66.853 129.343 98.337 54.532 31.484 107.802 53.192 149.835 62.846 21.019 4.828 39.2 6.634 53.312 5.159 14.125-1.478 24.06-6.228 28.777-14.397Z" stroke="#131441"/><path d="M429.762 366.758c4.716-8.169 3.863-19.149-1.921-32.12-5.777-12.959-16.432-27.801-31.123-43.59-29.377-31.575-74.812-66.854-129.343-98.338-54.532-31.484-107.802-53.192-149.835-62.846-21.02-4.828-39.2-6.634-53.312-5.158-14.125 1.477-24.06 6.227-28.777 14.397-4.716 8.169-3.863 19.148 1.92 32.12 5.778 12.959 16.433 27.8 31.124 43.59 29.377 31.574 74.812 66.854 129.343 98.338 54.532 31.483 107.802 53.191 149.835 62.845 21.019 4.828 39.2 6.635 53.312 5.159 14.125-1.477 24.06-6.228 28.777-14.397Z" stroke="#131441"/><path d="m267.256 61.422-8.182 30.388a2 2 0 0 1-1.411 1.41l-30.388 8.183 30.388 8.181a2 2 0 0 1 1.411 1.412l8.182 30.387 8.181-30.387a2.002 2.002 0 0 1 1.412-1.412l30.387-8.181-30.387-8.182a2 2 0 0 1-1.412-1.411l-8.181-30.388Z" fill="#FFD43A" stroke="#131441" stroke-width="2"/><path d="M203.289 293.314c-.133-.493-.833-.493-.966 0l-5.265 19.554a1.5 1.5 0 0 1-1.058 1.059l-19.555 5.265c-.493.133-.493.833 0 .965L196 325.422c.516.139.919.543 1.058 1.059l5.265 19.554c.133.494.833.494.966 0l5.265-19.554c.139-.516.542-.92 1.058-1.059l19.554-5.265c.494-.132.494-.832 0-.965l-19.554-5.265a1.5 1.5 0 0 1-1.058-1.059l-5.265-19.554Z" fill="#FFD43A" stroke="#131441"/><path d="m398.757 316.413.339.941-.339-.941a2.001 2.001 0 0 1 1.965.352l-.644.765.644-.765 40.45 34.034-17.893-49.743a1.998 1.998 0 0 1 .351-1.965l.765.644-.765-.644 34.034-40.451-49.743 17.894a2.001 2.001 0 0 1-1.965-.351l-40.45-34.034 17.894 49.743-.941.338.941-.338a2 2 0 0 1-.352 1.964l-34.034 40.451 49.743-17.894Z" fill="#FFD43A" stroke="#131441" stroke-width="2"/></svg>