<svg width="139" height="183" fill="none" xmlns="http://www.w3.org/2000/svg"><path d="m100.703 171.814 8.54-14.75a1.498 1.498 0 0 1 1.297-.748l17.044-.021c.51-.001.692-.677.249-.933l-14.75-8.54a1.5 1.5 0 0 1-.748-1.296l-.021-17.044c0-.511-.676-.692-.932-.25l-8.54 14.75a1.501 1.501 0 0 1-1.297.749l-17.044.021c-.51 0-.692.676-.25.932l14.75 8.54a1.5 1.5 0 0 1 .75 1.296l.02 17.044c0 .511.676.692.932.25Z" fill="#FFD43A" stroke="#131441"/><path d="M.507 2.14a1.5 1.5 0 1 1 2.986-.28l-2.986.28ZM121 70.62l-14.571 9.363-.824-17.301L121 70.619Zm-4.717 1.725a1.5 1.5 0 0 1-.112-2.998l.112 2.998Zm-9.497-2.85a1.5 1.5 0 0 1-.019 3l.019-3Zm-9.522 2.714a1.5 1.5 0 0 1 .164-2.996l-.164 2.996Zm-9.22-3.762a1.5 1.5 0 1 1-.327 2.982l.327-2.982Zm-9.783 1.659a1.5 1.5 0 1 1 .507-2.957l-.507 2.957Zm-8.66-4.845a1.5 1.5 0 1 1-.707 2.916l.706-2.916Zm-9.915.32a1.5 1.5 0 0 1 .925-2.855l-.925 2.854Zm-7.84-6.103a1.5 1.5 0 0 1-1.163 2.766l1.162-2.766Zm-9.833-1.356a1.5 1.5 0 0 1 1.415-2.645l-1.415 2.645Zm-6.56-7.441a1.5 1.5 0 0 1-1.677 2.487l1.677-2.487ZM26.1 47.36a1.5 1.5 0 1 1 1.94-2.288L26.1 47.36Zm-4.774-8.692a1.5 1.5 0 1 1-2.195 2.045l2.195-2.045Zm-8.322-5.405a1.5 1.5 0 0 1 2.431-1.757l-2.431 1.757Zm-2.498-9.597a1.5 1.5 0 0 1-2.64 1.427l2.64-1.427Zm-6.641-7.379a1.5 1.5 0 0 1 2.812-1.043l-2.812 1.043Zm.29-9.902a1.5 1.5 0 0 1-2.944.577l2.944-.577Zm102.612 66.11c-3.259-.021-6.426-.118-9.503-.287l.164-2.996c3.028.167 6.147.262 9.358.283l-.019 3Zm-19.05-1.067c-3.262-.358-6.413-.801-9.456-1.323l.507-2.957c2.982.512 6.073.946 9.276 1.298l-.327 2.982Zm-18.823-3.252a126.37 126.37 0 0 1-9.208-2.597l.925-2.854c2.863.928 5.858 1.776 8.99 2.535l-.707 2.916Zm-18.211-5.933a102.947 102.947 0 0 1-8.67-4.122l1.415-2.645a99.959 99.959 0 0 0 8.417 4.001l-1.162 2.766Zm-16.907-9.076A87.277 87.277 0 0 1 26.1 47.36l1.94-2.288a84.25 84.25 0 0 0 7.413 5.609l-1.677 2.487ZM19.13 40.714a77.897 77.897 0 0 1-6.127-7.45l2.431-1.757a74.914 74.914 0 0 0 5.891 7.162l-2.195 2.045ZM7.866 25.094a69.125 69.125 0 0 1-4.001-8.806l2.812-1.043a66.124 66.124 0 0 0 3.829 8.423l-2.64 1.426ZM1.211 6.964A48.777 48.777 0 0 1 .507 2.14l2.986-.28c.134 1.429.352 2.943.662 4.526l-2.944.577Z" fill="#131441"/></svg>