<svg width="54" height="44" fill="none" xmlns="http://www.w3.org/2000/svg"><path d="M46.628 28.066c-.26-1.796-1.653-3.196-3.447-3.613-6.97-1.626-8.718-5.622-9.013-10.053-1.236-.229-3.435-.476-7.168-.476s-5.932.247-7.168.476c-.295 4.431-2.043 8.427-9.013 10.053-1.794.42-3.187 1.817-3.447 3.613l-1.344 9.267c-.473 3.263 1.934 6.206 5.283 6.206h31.378c3.346 0 5.756-2.943 5.283-6.206l-1.344-9.267ZM27 36.786c-3.773 0-6.833-3.015-6.833-6.73 0-3.716 3.06-6.731 6.833-6.731s6.833 3.015 6.833 6.73c0 3.716-3.062 6.731-6.833 6.731Zm26.915-25.555C53.85 7.193 43.522.465 27 .461 10.475.466.147 7.194.085 11.232c-.062 4.039.057 9.294 6.857 8.419 7.956-1.026 7.466-3.79 7.466-7.743 0-2.757 6.47-3.422 12.592-3.422 6.121 0 12.59.665 12.592 3.422 0 3.952-.49 6.717 7.466 7.743 6.797.875 6.92-4.38 6.857-8.419Z" fill="#131441"/></svg>