<svg width="377" height="332" viewBox="0 0 377 332" fill="none" xmlns="http://www.w3.org/2000/svg">
<ellipse cx="122.558" cy="295.978" rx="14.915" ry="16.0336" fill="#FFD43A"/>
<ellipse cx="143.57" cy="238.98" rx="17.8567" ry="34.3204" transform="rotate(41.2727 143.57 238.98)" fill="#FFD43A"/>
<path d="M129.658 186.407C127.005 173.394 123.026 144.721 128.332 134.134C134.963 120.9 146.238 105.681 149.553 138.766C152.869 171.85 113.742 187.069 103.794 220.154C93.8462 253.238 113.742 271.104 139.606 264.487C165.47 257.87 170.112 228.094 160.827 218.169C151.543 208.243 132.974 207.582 123.689 218.169C114.405 228.756 107.11 275.074 180.723 246.621C254.336 218.169 142.921 181.114 197.302 153.985C240.807 132.281 200.397 162.587 174.754 180.452M134.963 222.139C142.922 244.636 154.992 292.145 139.606 302.203C120.373 314.775 105.783 301.541 117.057 286.984C128.332 272.427 148.89 312.79 112.415 307.496C75.94 302.203 36.8122 300.88 30.8436 316.76C24.875 332.641 239.746 333.964 211.229 324.039C188.416 316.098 61.5708 325.142 1 330.656" stroke="#131441" stroke-width="2" stroke-linecap="round" stroke-linejoin="round"/>
<ellipse cx="278.915" cy="91.8533" rx="17.9238" ry="9.63069" fill="#FFD43A"/>
<path d="M321.473 74.9005C319.963 71.5954 320.862 68.5539 322.74 66.1371C322.072 62.4674 321.007 58.5163 319.585 55.4742C318.283 52.6887 317.105 49.9658 316.143 47.4931C315.483 49.1679 314.601 51.0909 313.451 53.2972C307.393 64.9158 297.197 83.8211 291.003 91.6527C289.527 93.5186 288.278 94.7559 287.367 95.1163C281.099 97.5952 268.839 93.148 268.964 88.5853C269.089 84.0226 275.023 83.1584 280.642 84.6614C284.28 85.6346 289.077 88.5876 291.003 91.6527C297.197 83.8211 307.393 64.9158 313.451 53.2972C314.601 51.0909 315.483 49.1679 316.143 47.4931C313.704 41.2297 312.65 36.5712 314.476 36.5655C316.633 36.5586 319.794 38.2234 316.143 47.4931C317.105 49.9658 318.283 52.6887 319.585 55.4742C321.007 58.5163 322.072 62.4674 322.74 66.1371C324.109 73.6622 323.806 80.0044 321.473 74.9005Z" fill="#FFD43A"/>
<path d="M368.868 35.9596C368.626 35.4627 368.028 35.2553 367.531 35.4963C367.034 35.7374 366.827 36.3356 367.068 36.8325L368.868 35.9596ZM369.499 53.9648L370.444 54.2907L370.444 54.2907L369.499 53.9648ZM354.48 63.8127L354.606 62.8206L354.48 63.8127ZM331.863 60.6738L331.957 61.6694L331.863 60.6738ZM321.473 74.9005L320.564 75.3162L321.473 74.9005ZM319.585 55.4742L318.679 55.8976L319.585 55.4742ZM314.476 36.5655L314.479 37.5655L314.476 36.5655ZM313.451 53.2972L312.564 52.8349L313.451 53.2972ZM287.367 95.1163L287.735 96.0462L287.735 96.0462L287.367 95.1163ZM268.964 88.5853L269.963 88.6127L269.963 88.6127L268.964 88.5853ZM280.642 84.6614L280.9 83.6954L280.9 83.6954L280.642 84.6614ZM290.946 96.4569L291.687 97.1294L290.946 96.4569ZM265.16 89.4794C264.807 89.0553 264.176 88.9983 263.752 89.3521C263.328 89.7059 263.271 90.3365 263.625 90.7606L265.16 89.4794ZM367.068 36.8325C369.908 42.6872 370.144 49.0241 368.553 53.639L370.444 54.2907C372.22 49.137 371.92 42.2524 368.868 35.9596L367.068 36.8325ZM368.553 53.639C367.563 56.5123 366.47 59.067 364.482 60.783C362.548 62.4521 359.604 63.4561 354.606 62.8206L354.354 64.8047C359.728 65.4881 363.302 64.4438 365.789 62.297C368.222 60.1972 369.452 57.1685 370.444 54.2907L368.553 53.639ZM354.606 62.8206C349.485 62.1694 346.254 61.1882 343.004 60.4458C339.738 59.6994 336.567 59.2286 331.77 59.6781L331.957 61.6694C336.491 61.2445 339.443 61.6836 342.559 62.3956C345.692 63.1115 349.103 64.1369 354.354 64.8047L354.606 62.8206ZM331.77 59.6781C330.284 59.8174 328.473 60.4637 326.742 61.453C325.001 62.4481 323.263 63.8335 321.95 65.5236L323.53 66.7507C324.653 65.3053 326.174 64.0811 327.735 63.1894C329.305 62.2919 330.839 61.7741 331.957 61.6694L331.77 59.6781ZM321.95 65.5236C319.91 68.1494 318.858 71.5847 320.564 75.3162L322.383 74.4848C321.067 71.6062 321.814 68.9584 323.53 66.7507L321.95 65.5236ZM320.564 75.3162C320.868 75.9814 321.164 76.5176 321.458 76.9041C321.606 77.0974 321.778 77.2866 321.979 77.4357C322.178 77.5832 322.469 77.7365 322.831 77.7425C323.661 77.7563 324.046 77.0658 324.182 76.7439C324.347 76.3528 324.437 75.8632 324.49 75.358C324.701 73.3269 324.413 69.7486 323.724 65.9581L321.756 66.3161C322.436 70.0507 322.682 73.406 322.5 75.1514C322.455 75.5903 322.389 75.8474 322.339 75.9657C322.26 76.1531 322.37 75.7346 322.865 75.7428C323.06 75.746 323.168 75.8272 323.169 75.8281C323.172 75.8306 323.131 75.7989 323.049 75.6919C322.886 75.4777 322.662 75.0956 322.383 74.4848L320.564 75.3162ZM323.724 65.9581C323.048 62.244 321.963 58.2006 320.491 55.0509L318.679 55.8976C320.05 58.832 321.096 62.6907 321.756 66.3161L323.724 65.9581ZM320.491 55.0509C319.197 52.2811 318.028 49.5787 317.075 47.1303L315.211 47.8558C316.183 50.353 317.37 53.0964 318.679 55.8976L320.491 55.0509ZM317.075 47.1303C315.862 44.0142 315.018 41.3584 314.695 39.5107C314.53 38.5665 314.524 37.9489 314.599 37.613C314.634 37.4544 314.669 37.4485 314.628 37.4894C314.604 37.513 314.57 37.5364 314.531 37.5517C314.494 37.5662 314.472 37.5655 314.479 37.5655L314.473 35.5655C314.011 35.5669 313.566 35.7251 313.219 36.0701C312.895 36.3914 312.732 36.7993 312.647 37.1761C312.483 37.9111 312.55 38.8506 312.725 39.8547C313.083 41.9034 313.986 44.7086 315.211 47.8558L317.075 47.1303ZM314.479 37.5655C315.308 37.5628 316.151 37.8569 316.554 38.9085C317.016 40.1136 317.019 42.5396 315.212 47.1266L317.073 47.8595C318.917 43.1769 319.166 40.1357 318.421 38.1927C317.618 36.0961 315.801 35.5613 314.473 35.5655L314.479 37.5655ZM315.212 47.1266C314.568 48.7625 313.702 50.6532 312.564 52.8349L314.337 53.7595C315.501 51.5287 316.398 49.5733 317.073 47.8595L315.212 47.1266ZM312.564 52.8349C306.489 64.4853 296.341 83.2918 290.218 91.0324L291.787 92.2731C298.053 84.3504 308.296 65.3462 314.337 53.7595L312.564 52.8349ZM290.218 91.0324C289.496 91.946 288.846 92.6838 288.28 93.2285C287.696 93.7898 287.27 94.0792 286.999 94.1864L287.735 96.0462C288.375 95.793 289.029 95.2835 289.667 94.6696C290.322 94.0391 291.034 93.2253 291.787 92.2731L290.218 91.0324ZM286.999 94.1864C284.191 95.297 279.836 94.8858 276.105 93.5499C274.261 92.8898 272.658 92.0334 271.543 91.1095C270.397 90.1591 269.945 89.2913 269.963 88.6127L267.964 88.5579C267.92 90.1607 268.953 91.5598 270.267 92.649C271.612 93.7648 273.442 94.7208 275.431 95.4329C279.366 96.8415 284.275 97.4145 287.735 96.0462L286.999 94.1864ZM269.963 88.6127C269.988 87.7069 270.293 87.0356 270.778 86.5234C271.278 85.9946 272.025 85.5802 273.005 85.3137C274.981 84.7767 277.679 84.9039 280.384 85.6274L280.9 83.6954C277.987 82.916 274.908 82.7237 272.481 83.3837C271.259 83.7158 270.148 84.279 269.325 85.1485C268.486 86.0346 268.002 87.1824 267.964 88.5579L269.963 88.6127ZM280.384 85.6274C282.081 86.0816 284.093 87.0127 285.916 88.2087C287.748 89.411 289.299 90.8213 290.156 92.1848L291.849 91.1207C290.78 89.419 288.97 87.8203 287.013 86.5365C285.047 85.2464 282.841 84.2144 280.9 83.6954L280.384 85.6274ZM290.156 92.1848C290.62 92.9228 290.844 93.5893 290.856 94.1647C290.868 94.7108 290.693 95.2489 290.206 95.7845L291.687 97.1294C292.503 96.2312 292.879 95.2015 292.856 94.1211C292.833 93.07 292.434 92.0512 291.849 91.1207L290.156 92.1848ZM290.206 95.7845C289.506 96.5551 288.136 97.1923 286.172 97.4982C284.241 97.799 281.876 97.7564 279.36 97.3054C274.318 96.4015 268.839 93.8895 265.16 89.4794L263.625 90.7606C267.678 95.6196 273.629 98.3099 279.007 99.274C281.701 99.7571 284.293 99.815 286.48 99.4744C288.633 99.1389 290.539 98.3926 291.687 97.1294L290.206 95.7845Z" fill="#131441"/>
<ellipse cx="228.755" cy="31.2818" rx="10.2948" ry="5.53155" transform="rotate(-30.6342 228.755 31.2818)" fill="#FFD43A"/>
<path d="M233.64 28.838L233.422 27.9815C224.922 26.0209 219.31 34.4863 225.431 36.7544C231.333 38.9412 233.363 32.3879 233.64 28.838Z" fill="#FFD43A"/>
<path d="M218.959 2.42608C218.46 2.18955 217.864 2.40239 217.627 2.90146C217.391 3.40053 217.604 3.99685 218.103 4.23338L218.959 2.42608ZM226.826 2.03329L227.795 1.78692L227.542 0.791723L226.554 1.07098L226.826 2.03329ZM233.64 28.838L234.637 28.9157L234.649 28.7514L234.609 28.5916L233.64 28.838ZM225.431 36.7544L225.084 37.6921L225.084 37.6921L225.431 36.7544ZM238.346 31.4516C238.789 31.7816 239.415 31.6902 239.745 31.2473C240.075 30.8045 239.984 30.178 239.541 29.848L238.346 31.4516ZM218.103 4.23338C219.2 4.75345 220.146 5.01968 221.016 5.07192C221.899 5.12489 222.642 4.95397 223.319 4.69004C223.957 4.44134 224.59 4.08335 225.153 3.79397C225.745 3.49015 226.357 3.20481 227.098 2.9956L226.554 1.07098C225.628 1.33269 224.879 1.68608 224.239 2.01515C223.571 2.35868 223.102 2.62775 222.592 2.82665C222.121 3.01032 221.67 3.10752 221.136 3.07551C220.59 3.04276 219.898 2.87088 218.959 2.42608L218.103 4.23338ZM225.856 2.27967L232.453 28.2279L234.391 27.7351L227.795 1.78692L225.856 2.27967ZM232.453 28.2279L232.67 29.0843L234.609 28.5916L234.391 27.7352L232.453 28.2279ZM232.643 28.7602C232.511 30.4427 231.963 32.7665 230.829 34.3699C230.272 35.1566 229.61 35.7213 228.832 35.9964C228.066 36.2672 227.076 36.2974 225.779 35.8167L225.084 37.6921C226.738 38.3048 228.215 38.3358 229.498 37.882C230.769 37.4325 231.738 36.547 232.461 35.525C233.886 33.511 234.491 30.7832 234.637 28.9157L232.643 28.7602ZM225.779 35.8167C224.501 35.3431 224.009 34.6298 223.885 33.9677C223.752 33.2523 223.998 32.3285 224.729 31.4017C226.18 29.5628 229.309 28.059 233.197 28.9559L233.647 27.0071C229.035 25.9434 225.108 27.6921 223.159 30.1628C222.19 31.3907 221.649 32.8859 221.919 34.3345C222.2 35.8363 223.301 37.0316 225.084 37.6921L225.779 35.8167ZM233.197 28.9559C234.794 29.3242 236.535 30.1017 238.346 31.4516L239.541 29.848C237.53 28.3492 235.539 27.4436 233.647 27.0071L233.197 28.9559Z" fill="#131441"/>
</svg>
