<svg width="412" height="589" viewBox="0 0 412 589" fill="none" xmlns="http://www.w3.org/2000/svg">
<path d="M190.832 205.865C168.857 230.693 173.346 228.58 170.696 260.803C168.047 293.027 114 221.131 114 202.167C114 183.203 142.745 171 174.935 171C207.126 171 212.806 181.037 190.832 205.865Z" fill="#FFD43A"/>
<path d="M79.5 166.501C72.5 169.001 69 172.001 63.6522 178.001C50.6735 178.001 45 172.512 41.1523 168.012C41.1523 160.556 50.6737 161.012 63.6523 161.012C76.631 161.012 79.5 159.045 79.5 166.501Z" fill="#FFD43A"/>
<path d="M3.474 290.758C3.51746 291.309 3.10637 291.79 2.5558 291.834C2.00523 291.877 1.52367 291.466 1.4802 290.915L3.474 290.758ZM6.97492 209.876L7.76124 210.494L6.97492 209.876ZM130.989 187.12C130.639 187.548 130.009 187.611 129.582 187.261C129.155 186.911 129.092 186.281 129.441 185.854L130.989 187.12ZM1.4802 290.915C0.578827 279.498 -0.277759 261.741 0.0830241 245.566C0.26337 237.481 0.748344 229.766 1.69036 223.425C2.16134 220.255 2.74946 217.408 3.47868 215.021C4.2036 212.647 5.08833 210.659 6.1886 209.258L7.76124 210.494C6.88247 211.612 6.08614 213.33 5.39144 215.605C4.70103 217.865 4.13096 220.607 3.66865 223.719C2.74406 229.942 2.26201 237.564 2.08253 245.611C1.72366 261.7 2.57625 279.386 3.474 290.758L1.4802 290.915ZM6.1886 209.258C8.64276 206.135 11.1571 202.559 13.6762 198.971C16.1881 195.392 18.7057 191.799 21.1424 188.683C23.571 185.576 25.9676 182.879 28.2507 181.126C30.4988 179.4 32.9062 178.389 35.2125 179.254L34.5103 181.127C33.2183 180.642 31.5777 181.093 29.4686 182.712C27.3944 184.305 25.1245 186.836 22.718 189.914C20.3195 192.982 17.8333 196.53 15.3132 200.12C12.8004 203.699 10.2547 207.32 7.76124 210.494L6.1886 209.258ZM35.2125 179.254C39.1874 180.745 42.0336 184.645 43.8713 188.78C45.7218 192.943 46.6562 197.579 46.6562 200.88H44.6562C44.6562 197.884 43.7914 193.524 42.0437 189.592C40.2831 185.631 37.7319 182.335 34.5103 181.127L35.2125 179.254ZM46.6562 200.88C46.6562 202.374 47.0348 202.571 47.1398 202.615C47.2645 202.667 47.495 202.706 47.9049 202.655C48.309 202.605 48.8024 202.479 49.401 202.289C49.9975 202.099 50.65 201.861 51.3802 201.599C52.102 201.34 52.8867 201.063 53.7118 200.81C55.3594 200.304 57.2097 199.88 59.1496 199.88V201.88C57.4913 201.88 55.8559 202.244 54.2988 202.722C53.5214 202.96 52.7741 203.224 52.0552 203.482C51.3447 203.737 50.6478 203.991 50.0074 204.194C49.3692 204.397 48.7381 204.567 48.1513 204.64C47.5702 204.712 46.9433 204.701 46.3653 204.459C45.0647 203.912 44.6562 202.535 44.6562 200.88H46.6562ZM59.1496 199.88C61.0376 199.88 62.4684 200.172 63.5488 200.782C64.6624 201.411 65.2994 202.318 65.7004 203.32C66.0829 204.276 66.2685 205.376 66.4577 206.389C66.6543 207.442 66.8649 208.48 67.2746 209.505L65.4177 210.247C64.9278 209.023 64.6887 207.812 64.4917 206.756C64.2874 205.662 64.1356 204.793 63.8434 204.063C63.5698 203.379 63.1948 202.879 62.5655 202.524C61.903 202.15 60.86 201.88 59.1496 201.88V199.88ZM67.2746 209.505C67.4353 209.906 67.9827 210.721 68.9712 211.954C69.9273 213.147 71.2131 214.631 72.7409 216.334C75.796 219.74 79.7782 223.974 83.9428 228.42C92.2317 237.269 101.304 247.016 104.96 252.5L103.296 253.61C99.7556 248.299 90.8362 238.705 82.4832 229.788C78.3268 225.35 74.3254 221.096 71.2522 217.67C69.7159 215.957 68.4014 214.441 67.4108 213.205C66.4525 212.01 65.7068 210.97 65.4177 210.247L67.2746 209.505ZM104.96 252.5C108.56 257.9 121.373 277.232 134.635 296.338C141.267 305.892 148.005 315.382 153.757 323.042C159.541 330.744 164.247 336.486 166.838 338.645L165.558 340.181C162.751 337.842 157.9 331.89 152.158 324.243C146.384 316.554 139.629 307.041 132.992 297.479C119.717 278.354 106.893 259.005 103.296 253.61L104.96 252.5ZM166.838 338.645C169.576 340.927 173.004 344.026 176.943 346.851C180.876 349.673 185.219 352.144 189.697 353.169C194.139 354.185 198.717 353.783 203.223 350.846C207.764 347.885 212.328 342.287 216.558 332.712L218.388 333.52C214.072 343.286 209.303 349.269 204.315 352.521C199.291 355.796 194.142 356.238 189.251 355.118C184.396 354.007 179.799 351.361 175.777 348.476C171.76 345.595 168.217 342.397 165.558 340.181L166.838 338.645ZM216.558 332.712C225.092 313.398 233.614 291.416 239.104 269.454C244.598 247.481 247.038 225.601 243.477 206.46L245.443 206.095C249.078 225.635 246.571 247.834 241.045 269.939C235.515 292.056 226.945 314.153 218.388 333.52L216.558 332.712ZM243.477 206.46C241.674 196.772 240.33 189.04 239.012 182.815C237.693 176.585 236.419 171.958 234.784 168.47C233.163 165.013 231.203 162.708 228.511 161.088C225.788 159.449 222.236 158.46 217.338 157.792L217.608 155.811C222.605 156.492 226.475 157.528 229.542 159.374C232.641 161.24 234.842 163.883 236.595 167.622C238.333 171.33 239.645 176.149 240.968 182.401C242.293 188.657 243.647 196.443 245.443 206.095L243.477 206.46ZM217.338 157.792C212.333 157.11 206.384 155.749 200.091 154.232C193.779 152.71 187.114 151.03 180.613 149.685C174.111 148.339 167.824 147.341 162.288 147.175C156.732 147.008 152.059 147.686 148.697 149.577L147.716 147.834C151.55 145.677 156.66 145.005 162.348 145.176C168.057 145.347 174.476 146.373 181.018 147.726C187.561 149.08 194.277 150.773 200.559 152.287C206.86 153.806 212.717 155.144 217.608 155.811L217.338 157.792ZM148.697 149.577C141.603 153.567 133.152 160.237 126.259 168.463C119.36 176.697 114.095 186.403 113.22 196.469L111.228 196.295C112.152 185.671 117.681 175.587 124.726 167.179C131.777 158.764 140.417 151.94 147.716 147.834L148.697 149.577ZM113.22 196.469C113.001 198.989 113.131 200.825 113.443 202.099C113.759 203.389 114.229 203.985 114.586 204.218C114.886 204.416 115.232 204.44 115.66 204.212C116.122 203.966 116.646 203.43 117.059 202.579C118.652 199.301 118.216 191.72 106.366 185.575L107.287 183.8C119.726 190.25 121.089 198.861 118.858 203.453C118.315 204.571 117.532 205.482 116.599 205.978C115.633 206.491 114.495 206.551 113.489 205.891C112.538 205.267 111.877 204.112 111.5 202.574C111.12 201.019 110.997 198.947 111.228 196.295L113.22 196.469ZM106.366 185.575C100.222 182.39 96.4167 179.462 93.8651 176.823C91.3092 174.179 90.0463 171.857 88.9807 170.007C87.916 168.157 87.101 166.886 85.4584 165.949C83.7728 164.987 81.1018 164.32 76.196 164.097L76.2868 162.099C81.2762 162.326 84.3398 163.008 86.4493 164.211C88.6017 165.439 89.6421 167.147 90.7139 169.009C91.7847 170.868 92.9394 172.988 95.303 175.433C97.6709 177.882 101.287 180.689 107.287 183.8L106.366 185.575ZM76.196 164.097C66.3133 163.648 57.38 163.651 51.2745 164.317C48.1952 164.653 45.9547 165.147 44.6733 165.769C44.0252 166.083 43.7759 166.359 43.6983 166.516C43.6609 166.592 43.6063 166.734 43.815 167.082L42.1 168.111C41.634 167.334 41.4951 166.463 41.9039 165.633C42.2726 164.884 43.0001 164.358 43.7999 163.97C45.4139 163.186 47.9524 162.668 51.0576 162.329C57.321 161.646 66.3791 161.649 76.2868 162.099L76.196 164.097ZM43.815 167.082C44.071 167.508 44.5673 168.058 45.3116 168.692C46.0439 169.315 46.9685 169.979 48.028 170.642C50.1478 171.968 52.7547 173.258 55.3293 174.189C57.9236 175.128 60.3922 175.668 62.2646 175.579C63.1953 175.534 63.9053 175.338 64.4051 175.025C64.8778 174.73 65.2134 174.301 65.376 173.65L67.3163 174.136C67.0292 175.284 66.3809 176.149 65.4655 176.721C64.5773 177.276 63.4952 177.522 62.3597 177.576C60.0998 177.684 57.3396 177.043 54.649 176.07C51.9387 175.09 49.2044 173.737 46.967 172.337C45.8478 171.637 44.8398 170.916 44.0154 170.215C43.203 169.523 42.5187 168.808 42.1 168.111L43.815 167.082ZM65.376 173.65C65.907 171.526 67.3557 170.001 69.0163 168.785C70.6549 167.585 72.6654 166.577 74.4018 165.6C76.2 164.588 77.7343 163.598 78.7276 162.381C79.6706 161.226 80.1475 159.841 79.7586 157.897L81.7198 157.505C82.2305 160.058 81.5829 162.046 80.2769 163.646C79.0214 165.184 77.1823 166.331 75.3823 167.343C73.5204 168.39 71.7077 169.293 70.1978 170.399C68.71 171.488 67.6849 172.661 67.3163 174.136L65.376 173.65ZM79.7586 157.897C79.4026 156.117 78.1368 155.014 75.9055 153.851C74.787 153.268 73.5207 152.715 72.0795 152.046C70.6571 151.385 69.1092 150.63 67.5183 149.675C61.0703 145.806 54.1679 138.804 50.9706 121.904L52.9357 121.532C56.0354 137.916 62.6264 144.408 68.5473 147.96C70.0488 148.861 71.5228 149.582 72.9221 150.232C74.3025 150.873 75.6577 151.466 76.8302 152.077C79.1811 153.303 81.1763 154.787 81.7198 157.505L79.7586 157.897ZM50.9706 121.904C47.8183 105.242 45.5419 85.993 47.5891 71.0941C48.6122 63.6481 50.7304 57.1655 54.4717 52.6436C58.2591 48.0659 63.6374 45.5874 70.9084 46.0565L70.7796 48.0523C64.1073 47.6219 59.3655 49.8661 56.0126 53.9186C52.6136 58.0268 50.5714 64.082 49.5705 71.3663C47.5696 85.9281 49.7911 104.911 52.9357 121.532L50.9706 121.904ZM70.9084 46.0565C84.7917 46.9522 100.026 47.6286 112.331 51.9583C118.506 54.131 124.003 57.2412 128.249 61.8066C132.503 66.3818 135.451 72.365 136.602 80.1928L134.623 80.4838C133.526 73.0191 130.738 67.4204 126.784 63.1686C122.821 58.9071 117.636 55.9452 111.667 53.8449C99.6842 49.6287 84.7827 48.9558 70.7796 48.0523L70.9084 46.0565ZM136.602 80.1928C138.86 95.5505 139.315 109.797 138.296 121.691C137.279 133.557 134.786 143.186 131.067 149.229L129.364 148.181C132.841 142.531 135.296 133.269 136.303 121.521C137.307 109.801 136.863 95.7114 134.623 80.4838L136.602 80.1928ZM131.067 149.229C127.461 155.089 119.831 167.207 113.436 178.763C110.238 184.543 107.363 190.154 105.459 194.755C104.507 197.057 103.809 199.076 103.432 200.719C103.042 202.412 103.038 203.523 103.265 204.127L101.392 204.829C100.944 203.634 101.081 202.018 101.482 200.271C101.895 198.474 102.639 196.34 103.611 193.99C105.559 189.285 108.476 183.596 111.686 177.794C118.11 166.186 125.773 154.016 129.364 148.181L131.067 149.229ZM103.265 204.127C103.528 204.829 104.141 205.678 105.128 206.673C106.101 207.655 107.37 208.712 108.852 209.839C111.83 212.104 115.516 214.541 119.211 217.155C122.87 219.745 126.505 222.488 129.231 225.286C131.924 228.05 133.914 231.052 133.914 234.164H131.914C131.914 231.878 130.418 229.37 127.798 226.681C125.21 224.025 121.706 221.371 118.056 218.788C114.442 216.23 110.651 213.72 107.641 211.431C106.128 210.28 104.776 209.159 103.708 208.081C102.653 207.017 101.804 205.927 101.392 204.829L103.265 204.127ZM133.914 234.164C133.914 235.751 133.338 237.375 132.417 238.96C131.493 240.551 130.186 242.163 128.639 243.746C125.546 246.911 121.402 250.05 117.148 252.772C112.891 255.497 108.484 257.83 104.841 259.373C103.022 260.143 101.369 260.727 100.007 261.061C99.3259 261.228 98.6945 261.338 98.1372 261.371C97.597 261.404 97.0397 261.372 96.56 261.18L97.3027 259.323C97.3852 259.356 97.601 259.4 98.0161 259.375C98.4142 259.351 98.9204 259.268 99.531 259.118C100.751 258.819 102.296 258.279 104.061 257.531C107.587 256.038 111.894 253.761 116.07 251.088C120.25 248.413 124.259 245.367 127.209 242.348C128.684 240.839 129.873 239.358 130.688 237.955C131.506 236.547 131.914 235.275 131.914 234.164H133.914ZM96.56 261.18C95.4469 260.734 95.0466 259.513 94.8974 258.447C94.7352 257.287 94.7965 255.814 95.0124 254.188C95.4463 250.919 96.5374 246.797 98.0179 242.811C99.4967 238.83 101.39 234.913 103.461 232.083C104.495 230.671 105.609 229.48 106.781 228.697C107.959 227.91 109.278 227.487 110.642 227.79L110.208 229.743C109.548 229.596 108.786 229.763 107.891 230.361C106.99 230.963 106.037 231.95 105.075 233.265C103.155 235.888 101.338 239.618 99.8928 243.508C98.4497 247.393 97.4044 251.367 96.995 254.451C96.7892 256.001 96.7521 257.269 96.8781 258.169C97.017 259.162 97.2913 259.318 97.3027 259.323L96.56 261.18ZM110.642 227.79C112.848 228.28 115.389 229.6 118.063 231.377C120.754 233.167 123.657 235.474 126.597 238.018C132.476 243.106 138.574 249.204 143.516 254.147L142.102 255.561C137.149 250.608 131.103 244.563 125.288 239.53C122.381 237.014 119.549 234.767 116.955 233.043C114.344 231.307 112.05 230.152 110.208 229.743L110.642 227.79ZM143.516 254.147C144.644 255.274 146.545 256.525 149.1 257.886C151.637 259.236 154.744 260.657 158.227 262.142C165.223 265.127 173.554 268.3 181.76 271.696C189.917 275.071 197.879 278.638 203.925 282.337C206.948 284.186 209.532 286.092 211.429 288.054C213.319 290.008 214.607 292.099 214.868 294.318L212.882 294.551C212.693 292.947 211.732 291.243 209.992 289.444C208.259 287.653 205.832 285.848 202.881 284.043C196.98 280.433 189.144 276.916 180.996 273.544C172.897 270.193 164.418 266.957 157.442 263.982C153.939 262.488 150.771 261.041 148.16 259.651C145.567 258.27 143.448 256.907 142.102 255.561L143.516 254.147ZM214.868 294.318C215.327 298.223 215.06 301.285 214.152 303.476C213.224 305.716 211.607 307.065 209.509 307.345C207.491 307.614 205.223 306.865 202.957 305.393C200.674 303.911 198.289 301.63 195.99 298.643L197.576 297.423C199.775 300.283 202 302.388 204.046 303.716C206.109 305.056 207.89 305.543 209.245 305.363C210.521 305.192 211.602 304.406 212.304 302.71C213.027 300.965 213.322 298.292 212.882 294.551L214.868 294.318ZM195.99 298.643C193.796 295.789 190.009 292.335 185.719 288.074C181.477 283.86 176.834 278.937 173.121 273.281C169.404 267.621 166.594 261.19 166.058 253.958C165.521 246.713 167.272 238.75 172.539 230.048L174.25 231.083C169.172 239.473 167.55 247.027 168.052 253.81C168.556 260.605 171.2 266.712 174.792 272.184C178.388 277.66 182.91 282.464 187.129 286.655C191.301 290.8 195.273 294.429 197.576 297.423L195.99 298.643ZM172.539 230.048C177.73 221.471 182.75 214.251 187.012 208.203C191.29 202.133 194.762 197.299 196.921 193.422C197.999 191.487 198.716 189.85 199.049 188.464C199.38 187.087 199.314 186.033 198.925 185.192C198.537 184.353 197.758 183.573 196.357 182.883C194.947 182.189 192.975 181.619 190.322 181.177L190.65 179.204C193.394 179.661 195.582 180.272 197.241 181.089C198.908 181.91 200.103 182.972 200.741 184.353C201.378 185.733 201.39 187.28 200.993 188.931C200.599 190.574 199.783 192.395 198.669 194.395C196.443 198.39 192.887 203.338 188.647 209.355C184.391 215.395 179.404 222.568 174.25 231.083L172.539 230.048ZM190.322 181.177C179.59 179.388 166.626 178.495 155.36 179.276C149.726 179.667 144.551 180.473 140.306 181.778C136.039 183.09 132.831 184.869 130.989 187.12L129.441 185.854C131.648 183.157 135.298 181.225 139.718 179.867C144.16 178.501 149.498 177.677 155.221 177.281C166.67 176.487 179.793 177.394 190.65 179.204L190.322 181.177Z" fill="#131441"/>
<path d="M59.0642 216.902C59.1583 216.358 59.6757 215.993 60.2199 216.087C60.7641 216.181 61.129 216.698 61.035 217.243L59.0642 216.902ZM338.015 271.046L338.64 270.265L338.015 271.046ZM309.928 323.935C309.534 324.322 308.9 324.315 308.514 323.92C308.128 323.526 308.135 322.892 308.529 322.506L309.928 323.935ZM61.035 217.243C58.9346 229.395 55.5533 246.309 52.2376 257.499C51.4081 260.299 50.5766 262.762 49.763 264.711C48.9677 266.617 48.1344 268.173 47.2503 269.025C46.8037 269.456 46.1993 269.847 45.4664 269.814C44.7057 269.779 44.1391 269.307 43.7432 268.76C42.9844 267.712 42.4206 265.809 41.9715 263.114L43.9443 262.786C44.3948 265.489 44.9085 266.959 45.3632 267.587C45.574 267.878 45.6481 267.82 45.5569 267.816C45.4933 267.813 45.5871 267.85 45.862 267.585C46.421 267.046 47.1244 265.84 47.9173 263.941C48.6921 262.084 49.5004 259.698 50.32 256.931C53.6012 245.857 56.9666 229.038 59.0642 216.902L61.035 217.243ZM41.9715 263.114C40.8335 256.286 41.3031 251.467 42.9895 248.311C44.7255 245.062 47.6611 243.734 50.9415 243.734C54.1616 243.734 57.7388 245 61.0409 246.904C64.3562 248.814 67.4848 251.419 69.8135 254.214L68.277 255.494C66.1078 252.891 63.1644 250.436 60.0422 248.636C56.9068 246.829 53.6811 245.734 50.9415 245.734C48.2623 245.734 46.0816 246.768 44.7535 249.253C43.3757 251.832 42.8334 256.12 43.9443 262.786L41.9715 263.114ZM69.8135 254.214C71.9517 256.78 75.478 259.29 80.0502 262.282C84.5795 265.246 90.0726 268.644 95.9475 272.937C107.725 281.544 121.109 293.792 131.993 313.746L130.237 314.704C119.532 295.077 106.379 283.037 94.7675 274.552C88.9481 270.3 83.5339 266.951 78.9551 263.955C74.4193 260.988 70.6366 258.326 68.277 255.494L69.8135 254.214ZM131.993 313.746C142.676 333.331 159.548 346.154 175.404 349.567C183.322 351.272 190.953 350.627 197.459 347.36C203.955 344.099 209.422 338.177 212.943 329.154L214.807 329.881C211.131 339.3 205.354 345.635 198.356 349.148C191.369 352.656 183.258 353.304 174.983 351.523C158.456 347.965 141.144 334.7 130.237 314.704L131.993 313.746ZM212.943 329.154C220.101 310.813 223.685 291.786 226.498 276.599C227.9 269.026 229.117 262.372 230.493 257.278C231.182 254.729 231.921 252.529 232.762 250.779C233.596 249.044 234.578 247.646 235.809 246.825L236.919 248.489C236.126 249.018 235.338 250.037 234.565 251.645C233.8 253.236 233.099 255.302 232.424 257.799C231.074 262.797 229.873 269.355 228.464 276.963C225.654 292.136 222.042 311.34 214.807 329.881L212.943 329.154ZM235.809 246.825C238.004 245.362 240.234 244.817 242.397 245.227C244.543 245.634 246.474 246.951 248.146 248.922C251.47 252.839 253.983 259.577 255.343 268.191L253.368 268.503C252.029 260.026 249.594 253.72 246.621 250.216C245.145 248.476 243.59 247.489 242.025 247.192C240.478 246.899 238.773 247.254 236.919 248.489L235.809 246.825ZM255.343 268.191C255.66 270.198 256.615 272.955 258.08 276.394C259.537 279.816 261.466 283.839 263.686 288.357C268.12 297.38 273.701 308.345 278.886 320.235C289.234 343.97 298.134 371.667 293.115 395.393L291.159 394.979C296.035 371.927 287.394 344.752 277.052 321.034C271.892 309.198 266.341 298.293 261.891 289.24C259.67 284.72 257.72 280.654 256.24 277.178C254.767 273.719 253.726 270.77 253.368 268.503L255.343 268.191ZM293.115 395.393C288.134 418.941 273.438 447.414 259.632 474.576C252.714 488.187 246.012 501.481 240.813 513.729C235.608 525.989 231.947 537.119 231.063 546.408L229.072 546.218C229.986 536.615 233.747 525.256 238.972 512.947C244.202 500.626 250.936 487.271 257.849 473.67C271.706 446.408 286.245 418.208 291.159 394.979L293.115 395.393ZM231.063 546.408C230.174 555.74 231.067 563.922 233.156 570.421C235.249 576.934 238.517 581.689 242.324 584.28C246.087 586.841 250.437 587.338 254.948 585.253C259.512 583.143 264.326 578.344 268.768 570.125L270.528 571.076C265.975 579.499 260.893 584.708 255.787 587.068C250.627 589.453 245.532 588.882 241.199 585.933C236.91 583.014 233.432 577.817 231.252 571.033C229.067 564.236 228.161 555.777 229.072 546.218L231.063 546.408ZM268.768 570.125C273.174 561.976 275.237 551.954 276.583 541.06C277.255 535.619 277.745 529.991 278.266 524.29C278.786 518.595 279.336 512.832 280.127 507.156C283.289 484.459 290.341 462.857 315.12 451.844L315.932 453.672C292.135 464.248 285.243 484.926 282.108 507.432C281.324 513.057 280.778 518.777 280.258 524.472C279.739 530.158 279.245 535.825 278.568 541.305C277.215 552.253 275.118 562.584 270.528 571.076L268.768 570.125ZM315.12 451.844C339.387 441.059 358.346 429.88 368.996 418.564C374.314 412.914 377.489 407.304 378.293 401.761C379.091 396.253 377.567 390.672 373.205 385.001L374.79 383.781C379.423 389.805 381.161 395.918 380.272 402.048C379.389 408.143 375.93 414.115 370.453 419.935C359.514 431.557 340.241 442.868 315.932 453.672L315.12 451.844ZM373.205 385.001C364.325 373.457 352.637 367.313 342.821 360.123C337.951 356.555 333.564 352.731 330.402 347.872C327.226 342.992 325.321 337.122 325.321 329.518H327.321C327.321 336.756 329.125 342.243 332.078 346.781C335.045 351.339 339.204 354.993 344.003 358.509C353.528 365.487 365.679 371.937 374.79 383.781L373.205 385.001ZM325.321 329.518C325.321 314.728 324.869 297.324 326.113 285.001C326.424 281.912 326.845 279.116 327.412 276.743C327.977 274.383 328.702 272.376 329.657 270.908C330.619 269.431 331.894 268.388 333.552 268.245C335.166 268.106 336.867 268.847 338.64 270.265L337.39 271.827C335.79 270.547 334.595 270.163 333.724 270.238C332.898 270.309 332.1 270.82 331.333 271.999C330.559 273.188 329.9 274.941 329.358 277.208C328.818 279.463 328.409 282.163 328.103 285.202C326.872 297.392 327.321 314.622 327.321 329.518H325.321ZM338.64 270.265C341.799 272.792 342.151 276.787 341.021 281.152C339.888 285.532 337.201 290.601 333.788 295.752C326.951 306.072 317.002 317.012 309.928 323.935L308.529 322.506C315.549 315.636 325.39 304.806 332.121 294.647C335.493 289.558 338.035 284.709 339.085 280.651C340.139 276.58 339.629 273.618 337.39 271.827L338.64 270.265Z" fill="#131441"/>
<path d="M81.7543 67.8794L81.9277 66.8945L81.7543 67.8794ZM124.819 29.1049L124.767 28.1063L124.819 29.1049ZM85.5319 60.2766L84.5404 60.4063L84.8195 62.5412L86.2707 60.9506L85.5319 60.2766ZM51.7763 77.055C51.88 75.0709 53.3094 72.0227 57.7205 69.9433C62.1518 67.8544 69.5995 66.7543 81.5809 68.8642L81.9277 66.8945C69.7322 64.7469 61.8175 65.8009 56.8677 68.1343C51.8976 70.4772 49.9271 74.1195 49.779 76.9505L51.7763 77.055ZM81.5809 68.8642C89.1612 70.1991 96.7852 71.1997 103.924 72.1377C111.074 73.0772 117.725 73.9525 123.404 75.0388C129.102 76.1287 133.716 77.413 136.84 79.1267C139.942 80.8281 141.353 82.8121 141.199 85.3037L143.195 85.4276C143.418 81.837 141.24 79.2593 137.802 77.3732C134.386 75.4993 129.508 74.1702 123.78 73.0744C118.031 71.9749 111.318 71.0921 104.184 70.1547C97.039 69.2158 89.458 68.2206 81.9277 66.8945L81.5809 68.8642ZM141.199 85.3037C140.817 91.4429 140.443 102.177 139.042 109.604C138.693 111.454 138.286 113.06 137.815 114.32C137.33 115.612 136.827 116.399 136.368 116.765C136.159 116.931 135.986 116.989 135.835 116.999C135.68 117.008 135.456 116.972 135.14 116.792C134.471 116.411 133.576 115.493 132.466 113.725L130.772 114.788C131.929 116.631 133.04 117.898 134.151 118.53C134.725 118.857 135.334 119.034 135.959 118.995C136.589 118.955 137.143 118.703 137.613 118.329C138.512 117.614 139.171 116.399 139.687 115.021C140.216 113.611 140.648 111.88 141.007 109.975C142.439 102.387 142.82 91.4529 143.195 85.4276L141.199 85.3037ZM132.466 113.725C128.111 106.785 128.57 100.873 130.527 96.7209C131.515 94.6232 132.894 92.9579 134.26 91.826C135.665 90.6628 136.925 90.167 137.663 90.167V88.167C136.243 88.167 134.535 89.0018 132.985 90.2857C131.397 91.601 129.834 93.4995 128.718 95.8684C126.465 100.649 126.061 107.282 130.772 114.788L132.466 113.725ZM137.663 90.167C138.587 90.167 140.177 90.5059 142.434 91.1181C144.658 91.7215 147.377 92.5455 150.527 93.4541C156.799 95.263 164.653 97.3703 173.037 98.5208L173.309 96.5394C165.072 95.4091 157.33 93.3348 151.081 91.5324C147.971 90.6354 145.2 89.7963 142.958 89.1879C140.749 88.5885 138.899 88.167 137.663 88.167V90.167ZM173.037 98.5208C175.101 98.804 176.54 98.9289 177.392 98.8611C177.612 98.8436 177.842 98.8101 178.053 98.7419C178.245 98.6802 178.56 98.5466 178.782 98.2333C179.05 97.8554 179.035 97.4354 178.927 97.1286C178.834 96.8652 178.67 96.6623 178.545 96.5282C178.287 96.2508 177.913 95.9726 177.51 95.7043C177.092 95.4256 176.579 95.1158 175.997 94.7799C174.837 94.1099 173.337 93.298 171.674 92.3785C168.326 90.5278 164.238 88.1997 160.477 85.4927C156.701 82.7759 153.336 79.7338 151.362 76.4837L149.653 77.5218C151.834 81.1143 155.457 84.3446 159.308 87.116C163.173 89.8972 167.349 92.2733 170.706 94.1289C172.395 95.0625 173.859 95.8543 174.997 96.5119C175.565 96.8397 176.035 97.1246 176.401 97.3682C176.781 97.6221 176.99 97.7939 177.081 97.8907C177.13 97.9437 177.081 97.9089 177.041 97.7943C176.985 97.6364 176.96 97.3458 177.15 97.0776C177.226 96.9705 177.308 96.9092 177.358 96.8786C177.384 96.8629 177.404 96.8529 177.417 96.8471C177.43 96.8414 177.438 96.8387 177.44 96.8383C177.441 96.8379 177.426 96.8427 177.388 96.8492C177.352 96.8555 177.301 96.862 177.233 96.8674C176.63 96.9154 175.401 96.8265 173.309 96.5394L173.037 98.5208ZM151.362 76.4837C149.48 73.3849 149.469 68.8643 150.038 63.5306C150.592 58.3392 151.696 52.4084 151.696 47.0666C151.696 41.6815 150.591 36.5467 146.492 32.9505C142.421 29.3788 135.627 27.5311 124.767 28.1063L124.872 30.1035C135.545 29.5383 141.689 31.397 145.173 34.4539C148.63 37.4865 149.696 41.9027 149.696 47.0666C149.696 52.2736 148.629 57.8897 148.049 63.3184C147.485 68.6049 147.379 73.7779 149.653 77.5218L151.362 76.4837ZM124.767 28.1063C107.354 29.0285 96.9346 34.4856 91.0376 41.0981C85.1541 47.6954 83.8766 55.3299 84.5404 60.4063L86.5235 60.147C85.9281 55.593 87.0683 48.554 92.5303 42.4292C97.9788 36.3196 107.833 31.0059 124.872 30.1035L124.767 28.1063ZM86.2707 60.9506C89.8168 57.0635 93.7676 52.3361 97.2175 47.5596C100.658 42.7965 103.641 37.9294 105.205 33.7719C105.986 31.696 106.442 29.7253 106.379 27.9952C106.315 26.2364 105.708 24.6736 104.329 23.5777C102.986 22.5096 101.054 22.0026 98.5771 22C96.0902 21.9974 92.9424 22.5025 89.0433 23.5795L89.5759 25.5073C93.3831 24.4556 96.3378 23.9977 98.575 24C100.822 24.0024 102.236 24.4683 103.085 25.1433C103.899 25.7905 104.332 26.741 104.38 28.0678C104.429 29.4234 104.069 31.1107 103.333 33.0675C101.863 36.9753 99.0029 41.672 95.5962 46.3886C92.1991 51.0918 88.2987 55.7602 84.7932 59.6026L86.2707 60.9506ZM89.0433 23.5795C57.6346 32.2558 47.2803 62.7856 46.0041 76.9128L47.9959 77.0927C49.2381 63.343 59.3335 33.8614 89.5759 25.5073L89.0433 23.5795Z" fill="#131441"/>
<ellipse cx="303.811" cy="98.4241" rx="19.8111" ry="10.6448" fill="#FFD43A"/>
<path d="M350.85 79.6867C349.18 76.0335 350.174 72.6718 352.249 70.0005C351.511 65.9443 350.334 61.5772 348.762 58.2148C347.324 55.136 346.021 52.1264 344.957 49.3933C344.228 51.2444 343.254 53.3699 341.982 55.8085C335.286 68.6505 324.017 89.5465 317.17 98.2028C315.539 100.265 314.159 101.633 313.152 102.031C306.224 104.771 292.672 99.8556 292.811 94.8124C292.949 89.7693 299.508 88.8141 305.719 90.4753C309.74 91.551 315.041 94.8149 317.17 98.2028C324.017 89.5465 335.286 68.6505 341.982 55.8085C343.254 53.3699 344.228 51.2444 344.957 49.3933C342.263 42.4704 341.097 37.3214 343.115 37.315C345.5 37.3075 348.993 39.1475 344.957 49.3933C346.021 52.1264 347.324 55.136 348.762 58.2148C350.334 61.5772 351.511 65.9443 352.249 70.0005C353.763 78.3179 353.428 85.328 350.85 79.6867Z" fill="#FFD43A"/>
<path d="M403.139 36.6913C402.898 36.1944 402.3 35.987 401.803 36.228C401.306 36.4691 401.099 37.0673 401.34 37.5642L403.139 36.6913ZM403.932 56.5465L402.986 56.2206L402.986 56.2206L403.932 56.5465ZM387.332 67.4313L387.458 66.4392L387.458 66.4392L387.332 67.4313ZM362.333 63.9618L362.427 64.9575L362.427 64.9575L362.333 63.9618ZM350.85 79.6867L351.759 79.2709L351.759 79.2709L350.85 79.6867ZM348.762 58.2148L349.668 57.7915L349.668 57.7915L348.762 58.2148ZM343.115 37.315L343.112 36.315L343.112 36.315L343.115 37.315ZM341.982 55.8085L341.095 55.3462L341.095 55.3462L341.982 55.8085ZM313.152 102.031L312.784 101.101L312.784 101.101L313.152 102.031ZM292.811 94.8124L291.811 94.785L291.811 94.785L292.811 94.8124ZM305.719 90.4753L305.46 91.4414L305.46 91.4414L305.719 90.4753ZM317.108 103.513L317.848 104.185L317.848 104.185L317.108 103.513ZM288.526 95.8681C288.172 95.444 287.542 95.387 287.118 95.7408C286.693 96.0946 286.636 96.7252 286.99 97.1493L288.526 95.8681ZM401.34 37.5642C404.49 44.0584 404.754 51.0915 402.986 56.2206L404.877 56.8723C406.83 51.2044 406.502 43.6237 403.139 36.6913L401.34 37.5642ZM402.986 56.2206C401.891 59.3967 400.676 62.2454 398.456 64.1623C396.289 66.0323 393.001 67.1442 387.458 66.4392L387.206 68.4233C393.126 69.1761 397.043 68.024 399.763 65.6763C402.428 63.3756 403.781 60.0529 404.877 56.8723L402.986 56.2206ZM387.458 66.4392C381.791 65.7186 378.209 64.6317 374.624 63.8125C371.022 62.9894 367.528 62.4707 362.24 62.9662L362.427 64.9575C367.453 64.4865 370.727 64.9736 374.179 65.7623C377.648 66.555 381.409 67.6861 387.206 68.4233L387.458 66.4392ZM362.24 62.9662C360.617 63.1184 358.63 63.8259 356.725 64.9145C354.81 66.009 352.901 67.5318 351.46 69.3869L353.039 70.614C354.29 69.0036 355.984 67.642 357.718 66.651C359.462 65.6541 361.172 65.0751 362.427 64.9575L362.24 62.9662ZM351.46 69.3869C349.222 72.2673 348.075 76.0228 349.94 80.1024L351.759 79.2709C350.284 76.0443 351.126 73.0762 353.039 70.614L351.46 69.3869ZM349.94 80.1024C350.275 80.8347 350.598 81.4193 350.917 81.8374C351.076 82.0465 351.259 82.2473 351.471 82.4042C351.681 82.5593 351.981 82.7164 352.352 82.7226C353.2 82.7367 353.599 82.0319 353.746 81.6832C353.922 81.2652 354.021 80.7363 354.079 80.1814C354.31 77.9515 353.995 74.0082 353.233 69.8214L351.265 70.1795C352.017 74.3102 352.291 78.0306 352.089 79.9748C352.039 80.4634 351.965 80.7599 351.903 80.9049C351.813 81.1192 351.908 80.715 352.386 80.7229C352.479 80.7244 352.551 80.7451 352.597 80.7634C352.619 80.7725 352.635 80.7811 352.646 80.7869C352.656 80.7928 352.661 80.7965 352.661 80.7965C352.661 80.7966 352.657 80.7936 352.649 80.7866C352.641 80.7796 352.63 80.7694 352.617 80.755C352.589 80.7258 352.552 80.6837 352.507 80.6252C352.32 80.3793 352.069 79.9489 351.759 79.2709L349.94 80.1024ZM353.233 69.8214C352.487 65.721 351.29 61.2615 349.668 57.7915L347.856 58.6382C349.377 61.8929 350.535 66.1676 351.265 70.1795L353.233 69.8214ZM349.668 57.7915C348.237 54.7283 346.944 51.7392 345.889 49.0305L344.026 49.756C345.099 52.5135 346.41 55.5437 347.856 58.6382L349.668 57.7915ZM345.889 49.0305C344.548 45.5846 343.612 42.6413 343.254 40.5884C343.071 39.5417 343.061 38.8421 343.148 38.4498C343.19 38.263 343.235 38.2354 343.209 38.2615C343.159 38.3114 343.1 38.3151 343.118 38.315L343.112 36.315C342.626 36.3166 342.162 36.4825 341.8 36.8422C341.461 37.1782 341.287 37.608 341.197 38.013C341.02 38.8043 341.09 39.8258 341.284 40.9324C341.677 43.1863 342.672 46.279 344.026 49.756L345.889 49.0305ZM343.118 38.315C344.061 38.312 345.043 38.6498 345.51 39.8671C346.036 41.2379 346.026 43.9518 344.027 49.0268L345.888 49.7597C347.924 44.589 348.186 41.26 347.378 39.1512C346.51 36.889 344.554 36.3104 343.112 36.315L343.118 38.315ZM344.027 49.0268C343.313 50.839 342.354 52.9322 341.095 55.3462L342.869 56.2709C344.153 53.8077 345.143 51.6498 345.888 49.7597L344.027 49.0268ZM341.095 55.3462C334.383 68.22 323.16 89.0172 316.386 97.5825L317.955 98.8232C324.873 90.0758 336.189 69.081 342.869 56.2709L341.095 55.3462ZM316.386 97.5825C315.586 98.5943 314.864 99.4138 314.234 100.02C313.586 100.644 313.103 100.975 312.784 101.101L313.519 102.961C314.208 102.689 314.918 102.137 315.62 101.461C316.34 100.769 317.124 99.8737 317.955 98.8232L316.386 97.5825ZM312.784 101.101C309.646 102.342 304.804 101.879 300.669 100.399C298.623 99.6665 296.838 98.7147 295.595 97.6835C294.319 96.6257 293.788 95.6385 293.81 94.8399L291.811 94.785C291.764 96.5079 292.875 98.0263 294.318 99.223C295.793 100.446 297.804 101.498 299.994 102.282C304.333 103.835 309.73 104.46 313.519 102.961L312.784 101.101ZM293.81 94.8399C293.839 93.8138 294.184 93.0468 294.739 92.461C295.309 91.8585 296.154 91.3927 297.25 91.0947C299.457 90.4947 302.459 90.6387 305.46 91.4414L305.977 89.5093C302.768 88.6507 299.385 88.4417 296.725 89.1647C295.388 89.5283 294.179 90.143 293.286 91.0862C292.378 92.0458 291.852 93.2894 291.811 94.785L293.81 94.8399ZM305.46 91.4414C307.35 91.9467 309.583 92.9812 311.606 94.3081C313.638 95.6413 315.365 97.21 316.323 98.7349L318.017 97.6708C316.846 95.8077 314.859 94.0505 312.703 92.6359C310.537 91.2149 308.109 90.0796 305.977 89.5093L305.46 91.4414ZM316.323 98.7349C316.842 99.5608 317.099 100.316 317.114 100.977C317.128 101.609 316.923 102.229 316.368 102.84L317.848 104.185C318.733 103.212 319.139 102.099 319.113 100.933C319.089 99.7967 318.657 98.6892 318.017 97.6708L316.323 98.7349ZM316.368 102.84C315.571 103.718 314.028 104.428 311.847 104.768C309.7 105.102 307.073 105.055 304.283 104.554C298.693 103.552 292.612 100.766 288.526 95.8681L286.99 97.1493C291.451 102.496 298.003 105.46 303.93 106.523C306.899 107.055 309.752 107.118 312.155 106.744C314.525 106.375 316.603 105.556 317.848 104.185L316.368 102.84Z" fill="#131441"/>
<ellipse cx="263.098" cy="34.2946" rx="11.3788" ry="6.11401" transform="rotate(-30.6342 263.098 34.2946)" fill="#FFD43A"/>
<path d="M268.497 31.593L268.256 30.6464C258.862 28.4793 252.659 37.8361 259.425 40.343C265.948 42.76 268.191 35.5168 268.497 31.593Z" fill="#FFD43A"/>
<path d="M252.226 2.49515C251.727 2.25863 251.13 2.47146 250.894 2.97053C250.657 3.46961 250.87 4.06593 251.369 4.30245L252.226 2.49515ZM260.966 1.96586L261.935 1.71948L261.682 0.724286L260.694 1.00355L260.966 1.96586ZM268.497 31.593L269.494 31.6708L269.507 31.5064L269.466 31.3466L268.497 31.593ZM259.425 40.343L259.077 41.2807L259.077 41.2807L259.425 40.343ZM273.762 34.3974C274.205 34.7274 274.831 34.636 275.161 34.1931C275.491 33.7503 275.4 33.1238 274.957 32.7938L273.762 34.3974ZM251.369 4.30245C252.574 4.87332 253.606 5.16261 254.551 5.21933C255.508 5.27678 256.314 5.09174 257.051 4.80425C257.75 4.53198 258.441 4.14097 259.069 3.81828C259.725 3.48113 260.409 3.16217 261.237 2.92816L260.694 1.00355C259.68 1.29004 258.86 1.67706 258.155 2.03946C257.422 2.4163 256.895 2.71839 256.325 2.94085C255.793 3.14809 255.279 3.25941 254.671 3.22292C254.05 3.1857 253.272 2.99075 252.226 2.49515L251.369 4.30245ZM259.996 2.21223L267.287 30.8927L269.226 30.4L261.935 1.71948L259.996 2.21223ZM267.287 30.8927L267.528 31.8394L269.466 31.3466L269.226 30.4L267.287 30.8927ZM267.5 31.5152C267.354 33.3846 266.745 35.9743 265.476 37.7682C264.852 38.6501 264.104 39.2912 263.218 39.6045C262.344 39.9134 261.225 39.9435 259.772 39.4053L259.077 41.2807C260.886 41.9509 262.493 41.982 263.885 41.49C265.263 41.0024 266.318 40.0406 267.109 38.9234C268.668 36.7189 269.334 33.7251 269.494 31.6708L267.5 31.5152ZM259.772 39.4053C258.333 38.872 257.757 38.0582 257.612 37.2821C257.457 36.4529 257.745 35.4017 258.565 34.3614C260.195 32.2956 263.696 30.6206 268.032 31.6208L268.481 29.672C263.422 28.505 259.124 30.4249 256.995 33.1225C255.937 34.4639 255.355 36.0865 255.646 37.649C255.948 39.2647 257.133 40.5605 259.077 41.2807L259.772 39.4053ZM268.032 31.6208C269.812 32.0314 271.749 32.8975 273.762 34.3974L274.957 32.7938C272.745 31.145 270.557 30.1508 268.481 29.672L268.032 31.6208Z" fill="#131441"/>
</svg>
