<svg width="232" height="1412" viewBox="0 0 232 1412" fill="none" xmlns="http://www.w3.org/2000/svg">
<path opacity="0.6" d="M231.67 1289.96C231.67 1219.08 183.475 1168.68 116.065 1168.68C48.34 1168.68 0.144967 1219.08 0.14497 1289.96C0.144973 1360.83 48.655 1411.23 116.065 1411.23C183.16 1411.23 231.67 1360.83 231.67 1289.96ZM175.285 1289.96C175.285 1323.35 150.085 1348.23 116.065 1348.23C81.73 1348.23 56.53 1323.35 56.53 1289.96C56.53 1256.25 81.415 1232 116.065 1232C150.4 1232 175.285 1256.25 175.285 1289.96ZM5.49994 977.967L5.49995 1158.78L60.31 1158.78L60.31 1098.93L226 1098.93L226 1037.82L60.31 1037.82L60.31 977.967L5.49994 977.967ZM111.655 825.352C100.63 808.972 85.51 799.207 65.3499 799.207C22.1949 799.207 0.14495 838.267 0.144952 878.902C0.144954 922.057 23.77 963.007 70.705 963.007L70.705 903.787C56.845 903.787 48.9699 892.762 48.9699 880.477C48.9699 868.507 56.5299 858.427 69.13 858.427C80.47 858.427 88.975 867.562 88.975 882.682L88.975 900.007L137.485 900.007L137.485 881.737C137.485 865.357 145.99 855.592 158.275 855.592C171.82 855.592 180.64 866.932 180.64 880.477C180.64 893.392 171.82 905.047 156.385 905.047L156.385 965.842C205.21 965.842 231.67 926.152 231.67 880.162C231.67 836.062 208.675 793.537 163.63 793.537C141.265 793.537 123.31 804.247 111.655 825.352ZM69.7599 668.649L69.7599 702.354L5.49993 702.354L5.49993 762.205L226 762.204L226 668.649C226 620.769 193.555 586.749 147.88 586.749C101.89 586.749 69.7599 620.769 69.7599 668.649ZM5.49993 566.904L226 566.904L226 505.479L5.49992 505.479L5.49993 566.904ZM174.025 675.894L174.025 702.354L122.05 702.354L122.05 675.894C122.05 659.199 132.445 647.859 147.88 647.859C163.315 647.859 174.025 659.514 174.025 675.894ZM109.765 323.348C99.3699 306.653 81.7299 295.628 62.1999 295.628C29.4399 295.628 5.81491 324.293 5.81491 363.353L5.81492 462.893L226.315 462.893L226.315 361.148C226.315 320.513 199.225 289.643 163.315 289.643C139.375 289.643 119.53 302.558 109.765 323.348ZM72.2799 353.273C83.6199 353.273 91.4949 361.148 91.4949 373.748L91.4949 404.618L53.0649 404.618L53.0649 373.748C53.0649 361.148 60.6249 353.273 72.2799 353.273ZM176.23 371.543L176.23 404.618L136.225 404.618L136.225 371.543C136.225 358.313 144.415 349.808 156.07 349.808C168.04 349.808 176.23 358.313 176.23 371.543ZM69.7599 164.157L69.7599 197.862L5.49991 197.862L5.49991 257.712L226 257.712L226 164.157C226 116.277 193.555 82.2572 147.88 82.2572C101.89 82.2572 69.7599 116.277 69.7599 164.157ZM5.4999 62.4122L226 62.4122L226 0.987213L5.4999 0.987222L5.4999 62.4122ZM174.025 171.402L174.025 197.862L122.05 197.862L122.05 171.402C122.05 154.707 132.445 143.367 147.88 143.367C163.315 143.367 174.025 155.022 174.025 171.402Z" fill="white"/>
</svg>
