<svg width="163" height="137" viewBox="0 0 163 137" fill="none" xmlns="http://www.w3.org/2000/svg">
<ellipse cx="54.815" cy="98.4238" rx="19.8111" ry="10.6448" fill="#FFD43A"/>
<path d="M101.855 79.686C100.186 76.0329 101.18 72.6711 103.255 69.9998C102.517 65.9436 101.339 61.5766 99.7682 58.2142C98.3295 55.1353 97.0272 52.1257 95.9633 49.3926C95.2342 51.2437 94.2594 53.3693 92.9879 55.8079C86.2919 68.6498 75.0225 89.5459 68.1761 98.2022C66.5449 100.264 65.1649 101.632 64.1575 102.03C57.23 104.77 43.6782 99.8549 43.8167 94.8117C43.9551 89.7686 50.5142 88.8134 56.7246 90.4746C60.7459 91.5503 66.0472 94.8142 68.1761 98.2022C75.0225 89.5459 86.2919 68.6498 92.9879 55.8079C94.2594 53.3693 95.2342 51.2437 95.9633 49.3926C93.2684 42.4697 92.1026 37.3207 94.1211 37.3143C96.5057 37.3068 99.9987 39.1468 95.9633 49.3926C97.0272 52.1257 98.3295 55.1353 99.7682 58.2142C101.339 61.5766 102.517 65.9436 103.255 69.9998C104.769 78.3173 104.434 85.3273 101.855 79.686Z" fill="#FFD43A"/>
<path d="M154.145 36.6906C153.904 36.1937 153.306 35.9863 152.809 36.2274C152.312 36.4684 152.105 37.0666 152.346 37.5635L154.145 36.6906ZM154.937 56.5458L153.992 56.2199L153.992 56.22L154.937 56.5458ZM138.338 67.4306L138.464 66.4386L138.338 67.4306ZM113.339 63.9612L113.433 64.9568L113.339 63.9612ZM101.855 79.686L102.765 79.2703L102.765 79.2703L101.855 79.686ZM99.7682 58.2142L100.674 57.7908L99.7682 58.2142ZM94.1211 37.3143L94.1179 36.3143L94.1179 36.3143L94.1211 37.3143ZM92.9879 55.8079L92.1011 55.3455L92.9879 55.8079ZM64.1575 102.03L63.7897 101.101L64.1575 102.03ZM43.8167 94.8117L42.817 94.7843L42.817 94.7843L43.8167 94.8117ZM56.7246 90.4746L56.4662 91.4407L56.4662 91.4407L56.7246 90.4746ZM68.114 103.512L68.8542 104.185L68.8542 104.185L68.114 103.512ZM39.5319 95.8674C39.1781 95.4433 38.5475 95.3864 38.1234 95.7401C37.6993 96.0939 37.6423 96.7245 37.9961 97.1486L39.5319 95.8674ZM152.346 37.5635C155.496 44.0578 155.76 51.0908 153.992 56.2199L155.883 56.8716C157.836 51.2037 157.508 43.623 154.145 36.6906L152.346 37.5635ZM153.992 56.22C152.897 59.3961 151.682 62.2448 149.462 64.1617C147.295 66.0316 144.007 67.1435 138.464 66.4386L138.212 68.4226C144.132 69.1755 148.049 68.0233 150.768 65.6756C153.434 63.3749 154.787 60.0523 155.883 56.8716L153.992 56.22ZM138.464 66.4386C132.797 65.7179 129.215 64.631 125.63 63.8119C122.027 62.9887 118.534 62.47 113.246 62.9655L113.433 64.9568C118.459 64.4859 121.733 64.9729 125.185 65.7616C128.654 66.5543 132.415 67.6854 138.212 68.4226L138.464 66.4386ZM113.246 62.9655C111.622 63.1177 109.636 63.8252 107.731 64.9139C105.816 66.0083 103.907 67.5312 102.465 69.3863L104.045 70.6133C105.296 69.0029 106.99 67.6413 108.724 66.6503C110.468 65.6534 112.178 65.0744 113.433 64.9568L113.246 62.9655ZM102.465 69.3863C100.228 72.2666 99.0812 76.0221 100.946 80.1017L102.765 79.2703C101.29 76.0436 102.132 73.0756 104.045 70.6133L102.465 69.3863ZM100.946 80.1017C101.281 80.834 101.604 81.4186 101.923 81.8367C102.082 82.0458 102.265 82.2467 102.477 82.4035C102.687 82.5586 102.987 82.7158 103.358 82.7219C104.206 82.736 104.604 82.0312 104.752 81.6825C104.928 81.2646 105.027 80.7356 105.084 80.1807C105.316 77.9509 105.001 74.0075 104.239 69.8208L102.271 70.1788C103.023 74.3096 103.297 78.0299 103.095 79.9741C103.044 80.4627 102.971 80.7592 102.909 80.9043C102.819 81.1186 102.914 80.7143 103.391 80.7222C103.485 80.7238 103.557 80.7444 103.602 80.7628C103.625 80.7718 103.641 80.7804 103.651 80.7863C103.662 80.7921 103.667 80.7958 103.667 80.7959C103.667 80.7959 103.663 80.793 103.655 80.786C103.647 80.779 103.636 80.7687 103.623 80.7543C103.595 80.7251 103.558 80.683 103.513 80.6245C103.326 80.3787 103.075 79.9482 102.765 79.2703L100.946 80.1017ZM104.239 69.8208C103.493 65.7203 102.296 61.2608 100.674 57.7908L98.8623 58.6375C100.383 61.8923 101.541 66.167 102.271 70.1788L104.239 69.8208ZM100.674 57.7908C99.2428 54.7277 97.9496 51.7386 96.8952 49.0298L95.0314 49.7554C96.1048 52.5129 97.4162 55.543 98.8623 58.6375L100.674 57.7908ZM96.8952 49.0298C95.5538 45.5839 94.6182 42.6407 94.2597 40.5878C94.077 39.541 94.0665 38.8414 94.1543 38.4491C94.1961 38.2623 94.2411 38.2347 94.2147 38.2608C94.1645 38.3108 94.1056 38.3144 94.1243 38.3143L94.1179 36.3143C93.632 36.3159 93.168 36.4818 92.8056 36.8416C92.4672 37.1776 92.2932 37.6073 92.2025 38.0123C92.0254 38.8036 92.0963 39.8251 92.2896 40.9318C92.6831 43.1857 93.6779 46.2784 95.0314 49.7554L96.8952 49.0298ZM94.1243 38.3143C95.067 38.3113 96.0493 38.6491 96.5159 39.8664C97.0414 41.2372 97.0317 43.9511 95.0329 49.0261L96.8937 49.7591C98.9302 44.5884 99.1918 41.2593 98.3834 39.1506C97.5163 36.8883 95.5598 36.3098 94.1179 36.3143L94.1243 38.3143ZM95.0329 49.0261C94.3191 50.8383 93.3599 52.9315 92.1011 55.3455L93.8746 56.2702C95.1589 53.807 96.1493 51.6492 96.8937 49.7591L95.0329 49.0261ZM92.1011 55.3455C85.3886 68.2193 74.1662 89.0166 67.3917 97.5818L68.9604 98.8225C75.8789 90.0752 87.1952 69.0803 93.8746 56.2702L92.1011 55.3455ZM67.3917 97.5818C66.5915 98.5936 65.8697 99.4131 65.2394 100.02C64.5919 100.643 64.1087 100.974 63.7897 101.101L64.5252 102.96C65.2136 102.688 65.9241 102.137 66.6263 101.461C67.3457 100.768 68.1295 99.873 68.9604 98.8225L67.3917 97.5818ZM63.7897 101.101C60.6516 102.342 55.8094 101.879 51.6744 100.398C49.6287 99.6658 47.8443 98.7141 46.6007 97.6828C45.3251 96.625 44.7944 95.6379 44.8163 94.8392L42.817 94.7843C42.7697 96.5072 43.881 98.0257 45.324 99.2223C46.7989 100.445 48.8094 101.497 51.0003 102.281C55.3385 103.834 60.7359 104.459 64.5252 102.96L63.7897 101.101ZM44.8163 94.8392C44.8444 93.8132 45.1903 93.0462 45.7449 92.4603C46.315 91.8579 47.1599 91.392 48.256 91.094C50.4631 90.494 53.4654 90.638 56.4662 91.4407L56.983 89.5086C53.7734 88.6501 50.3909 88.441 47.7313 89.1641C46.394 89.5276 45.185 90.1423 44.2923 91.0855C43.384 92.0452 42.8581 93.2887 42.817 94.7843L44.8163 94.8392ZM56.4662 91.4407C58.3555 91.946 60.5891 92.9806 62.6114 94.3074C64.6434 95.6406 66.3712 97.2093 67.3293 98.7342L69.0228 97.6701C67.8521 95.8071 65.8648 94.0499 63.7086 92.6352C61.5427 91.2142 59.115 90.0789 56.983 89.5086L56.4662 91.4407ZM67.3293 98.7342C67.8483 99.5601 68.1053 100.315 68.1197 100.976C68.1335 101.608 67.929 102.229 67.3738 102.84L68.8542 104.185C69.7387 103.211 70.1446 102.099 70.1192 100.933C70.0945 99.796 69.6627 98.6885 69.0228 97.6701L67.3293 98.7342ZM67.3738 102.84C66.5765 103.717 65.0334 104.427 62.8529 104.767C60.7054 105.102 58.0787 105.054 55.2889 104.554C49.6984 103.551 43.618 100.766 39.5319 95.8674L37.9961 97.1486C42.4567 102.496 49.0092 105.46 54.9359 106.522C57.9047 107.055 60.7577 107.118 63.1608 106.743C65.5309 106.374 67.6093 105.555 68.8542 104.185L67.3738 102.84Z" fill="#131441"/>
<ellipse cx="14.0976" cy="34.294" rx="11.3788" ry="6.11401" transform="rotate(-30.6342 14.0976 34.294)" fill="#FFD43A"/>
<path d="M19.497 31.5929L19.2564 30.6462C9.86161 28.4792 3.65893 37.836 10.4246 40.3428C16.948 42.7599 19.1909 35.5166 19.497 31.5929Z" fill="#FFD43A"/>
<path d="M3.22582 2.49503C2.72674 2.2585 2.13042 2.47134 1.8939 2.97041C1.65737 3.46948 1.8702 4.06581 2.36928 4.30233L3.22582 2.49503ZM11.9655 1.96573L12.9347 1.71936L12.6817 0.724164L11.6936 1.00342L11.9655 1.96573ZM19.497 31.5929L20.494 31.6706L20.5068 31.5063L20.4662 31.3465L19.497 31.5929ZM10.4246 40.3428L10.0772 41.2805L10.0772 41.2805L10.4246 40.3428ZM24.7619 34.3973C25.2048 34.7273 25.8313 34.6359 26.1613 34.193C26.4913 33.7502 26.3999 33.1237 25.957 32.7936L24.7619 34.3973ZM2.36928 4.30233C3.57381 4.8732 4.60572 5.16249 5.55079 5.21921C6.50813 5.27666 7.31372 5.09162 8.05114 4.80413C8.74951 4.53186 9.44116 4.14085 10.069 3.81816C10.725 3.48101 11.4095 3.16204 12.2375 2.92804L11.6936 1.00342C10.6798 1.28992 9.85994 1.67694 9.15482 2.03933C8.42158 2.41618 7.89529 2.71827 7.32467 2.94073C6.7931 3.14797 6.27863 3.25929 5.6706 3.2228C5.0503 3.18557 4.27153 2.99063 3.22582 2.49503L2.36928 4.30233ZM10.9963 2.21211L18.2872 30.8926L20.2255 30.3999L12.9347 1.71936L10.9963 2.21211ZM18.2872 30.8926L18.5278 31.8392L20.4662 31.3465L20.2255 30.3999L18.2872 30.8926ZM18.5 31.5151C18.3542 33.3845 17.7451 35.9742 16.4759 37.7681C15.852 38.65 15.1037 39.2911 14.2178 39.6044C13.3441 39.9133 12.2248 39.9434 10.772 39.4051L10.0772 41.2805C11.8861 41.9508 13.4934 41.9819 14.8846 41.4899C16.2635 41.0023 17.3182 40.0405 18.1086 38.9232C19.6683 36.7188 20.3337 33.725 20.494 31.6706L18.5 31.5151ZM10.772 39.4051C9.33293 38.8719 8.75699 38.0581 8.61219 37.282C8.45747 36.4528 8.74452 35.4015 9.56536 34.3613C11.1954 32.2955 14.6957 30.6205 19.0316 31.6207L19.4811 29.6718C14.4222 28.5049 10.1239 30.4248 7.99528 33.1224C6.93682 34.4638 6.35459 36.0864 6.64612 37.6488C6.94759 39.2645 8.13344 40.5604 10.0772 41.2805L10.772 39.4051ZM19.0316 31.6207C20.8119 32.0313 22.7493 32.8974 24.7619 34.3973L25.957 32.7936C23.7447 31.1449 21.557 30.1507 19.4811 29.6718L19.0316 31.6207Z" fill="#131441"/>
</svg>
