<svg width="101" height="84" viewBox="0 0 101 84" fill="none" xmlns="http://www.w3.org/2000/svg">
<ellipse cx="34.5743" cy="60.2874" rx="12.1349" ry="6.52023" fill="#FFD43A"/>
<path d="M63.387 48.81C62.3642 46.5723 62.973 44.5131 64.2443 42.8769C63.7922 40.3924 63.0709 37.7174 62.1085 35.6578C61.2272 33.772 60.4296 31.9285 59.7779 30.2544C59.3313 31.3883 58.7342 32.6902 57.9553 34.1839C53.8538 42.05 46.9511 54.8494 42.7574 60.1516C41.7583 61.4149 40.9129 62.2525 40.2959 62.4966C36.0526 64.1748 27.7518 61.164 27.8366 58.0749C27.9213 54.9858 31.939 54.4008 35.743 55.4183C38.2062 56.0772 41.4534 58.0764 42.7574 60.1516C46.9511 54.8494 53.8538 42.05 57.9553 34.1839C58.7342 32.6902 59.3313 31.3883 59.7779 30.2544C58.1272 26.0139 57.4131 22.86 58.6495 22.8561C60.1101 22.8515 62.2496 23.9786 59.7779 30.2544C60.4296 31.9285 61.2272 33.772 62.1085 35.6578C63.0709 37.7174 63.7922 40.3924 64.2443 42.8769C65.1714 47.9716 64.9664 52.2654 63.387 48.81Z" fill="#FFD43A"/>
<path d="M95.5396 22.4141C95.3589 22.0414 94.9102 21.8858 94.5375 22.0666C94.1648 22.2474 94.0093 22.6961 94.1901 23.0687L95.5396 22.4141ZM95.9012 34.6359L95.1921 34.3915L95.9012 34.6359ZM70.4212 39.1781L70.3512 38.4313L70.3512 38.4313L70.4212 39.1781ZM63.387 48.81L62.7048 49.1217L63.387 48.81ZM62.1085 35.6578L61.429 35.9754L61.429 35.9754L62.1085 35.6578ZM58.6495 22.8561L58.6471 22.1061L58.6471 22.1061L58.6495 22.8561ZM57.9553 34.1839L58.6203 34.5307L57.9553 34.1839ZM40.2959 62.4966L40.02 61.7992L40.02 61.7992L40.2959 62.4966ZM27.8366 58.0749L28.5863 58.0955L27.8366 58.0749ZM35.743 55.4183L35.5492 56.1428L35.743 55.4183ZM42.7194 63.4042L43.2745 63.9085L42.7194 63.4042ZM25.3176 58.6335C25.0522 58.3154 24.5793 58.2727 24.2612 58.538C23.9432 58.8034 23.9004 59.2763 24.1658 59.5944L25.3176 58.6335ZM94.1901 23.0687C96.1051 27.0165 96.2622 31.2868 95.1921 34.3915L96.6103 34.8803C97.8196 31.3715 97.6141 26.6905 95.5396 22.4141L94.1901 23.0687ZM95.1921 34.3915C94.5217 36.3367 93.7869 38.049 92.4572 39.1968C91.1683 40.3094 89.1977 40.9877 85.828 40.5592L85.6388 42.0472C89.2912 42.5116 91.7334 41.8031 93.4374 40.3323C95.1006 38.8966 95.9387 36.8288 96.6103 34.8803L95.1921 34.3915ZM85.828 40.5592C82.3656 40.1189 80.1842 39.4562 77.9802 38.9526C75.7631 38.446 73.6085 38.1261 70.3512 38.4313L70.4912 39.9248C73.5516 39.638 75.542 39.9342 77.6461 40.4149C79.7632 40.8986 82.0791 41.5945 85.6388 42.0472L85.828 40.5592ZM70.3512 38.4313C69.3313 38.5269 68.0958 38.9691 66.9179 39.6422C65.7324 40.3197 64.548 41.2636 63.6521 42.4167L64.8366 43.337C65.5899 42.3675 66.6124 41.5445 67.6622 40.9446C68.7196 40.3403 69.7478 39.9944 70.4912 39.9248L70.3512 38.4313ZM63.6521 42.4167C62.2589 44.2098 61.5359 46.5643 62.7048 49.1217L64.0691 48.4982C63.1925 46.5804 63.6871 44.8165 64.8366 43.337L63.6521 42.4167ZM62.7048 49.1217C62.9116 49.5741 63.1146 49.9427 63.3188 50.2107C63.4209 50.3447 63.542 50.4785 63.6859 50.585C63.8281 50.6902 64.0392 50.8026 64.3052 50.807C64.9153 50.8172 65.1935 50.3092 65.2877 50.0864C65.4037 49.8116 65.4658 49.4717 65.5016 49.1272C65.6455 47.7417 65.4496 45.3109 64.9822 42.7426L63.5065 43.0112C63.9662 45.5375 64.1313 47.801 64.0096 48.9722C63.979 49.267 63.9355 49.4326 63.9059 49.5027C63.8543 49.6247 63.9468 49.3009 64.3301 49.3072C64.4826 49.3098 64.5701 49.3733 64.5782 49.3793C64.588 49.3865 64.5647 49.3708 64.5118 49.3015C64.4061 49.1628 64.2572 48.9097 64.0691 48.4982L62.7048 49.1217ZM64.9822 42.7426C64.5241 40.2249 63.7881 37.4806 62.788 35.3403L61.429 35.9754C62.3537 37.9542 63.0604 40.5599 63.5065 43.0112L64.9822 42.7426ZM62.788 35.3403C61.9122 33.4662 61.1213 31.6381 60.4768 29.9823L59.079 30.5265C59.7378 32.2189 60.5423 34.0777 61.429 35.9754L62.788 35.3403ZM60.4768 29.9823C59.656 27.8737 59.087 26.0812 58.8698 24.8375C58.7586 24.2005 58.7563 23.7941 58.8039 23.5812C58.8262 23.4818 58.8449 23.4925 58.8037 23.5334C58.7445 23.5922 58.6725 23.606 58.6518 23.6061L58.6471 22.1061C58.3173 22.1071 57.9972 22.2204 57.7468 22.469C57.5145 22.6997 57.399 22.9905 57.3401 23.2536C57.2255 23.7657 57.2731 24.4135 57.3922 25.0955C57.6356 26.4899 58.2491 28.3946 59.079 30.5265L60.4768 29.9823ZM58.6518 23.6061C59.195 23.6044 59.7297 23.7947 59.988 24.4685C60.2904 25.2575 60.3018 26.8775 59.08 29.9795L60.4757 30.5292C61.7257 27.3554 61.9032 25.274 61.3886 23.9316C60.8299 22.4741 59.5646 22.1032 58.6471 22.1061L58.6518 23.6061ZM59.08 29.9795C58.645 31.0842 58.0595 32.3619 57.2903 33.8372L58.6203 34.5307C59.4088 33.0185 60.0176 31.6923 60.4757 30.5292L59.08 29.9795ZM57.2903 33.8372C53.1764 41.7271 46.3088 54.4524 42.1691 59.6864L43.3456 60.6169C47.5933 55.2464 54.5313 42.3729 58.6203 34.5307L57.2903 33.8372ZM42.1691 59.6864C41.6811 60.3035 41.2432 60.8002 40.8633 61.1659C40.4704 61.544 40.1901 61.7319 40.02 61.7992L40.5717 63.194C41.0187 63.0172 41.4696 62.6643 41.9034 62.2467C42.3502 61.8167 42.8346 61.263 43.3456 60.6169L42.1691 59.6864ZM40.02 61.7992C38.1427 62.5417 35.2148 62.2692 32.696 61.3674C31.4529 60.9223 30.3754 60.3462 29.6296 59.7277C28.8598 59.0893 28.5746 58.5212 28.5863 58.0955L27.0868 58.0543C27.0561 59.1732 27.7767 60.1398 28.6721 60.8823C29.5914 61.6447 30.8385 62.2956 32.1904 62.7796C34.8616 63.7359 38.2058 64.1297 40.5717 63.194L40.02 61.7992ZM28.5863 58.0955C28.6026 57.4993 28.8021 57.0622 29.1175 56.7291C29.4446 56.3835 29.937 56.1084 30.5918 55.9304C31.9126 55.5713 33.7255 55.655 35.5492 56.1428L35.9368 54.6938C33.9565 54.1641 31.8585 54.0316 30.1983 54.4829C29.3626 54.7101 28.597 55.0968 28.0281 55.698C27.4474 56.3115 27.1129 57.106 27.0868 58.0543L28.5863 58.0955ZM35.5492 56.1428C36.6898 56.4479 38.0446 57.0747 39.2735 57.8809C40.5096 58.692 41.55 59.6399 42.1223 60.5507L43.3924 59.7526C42.6608 58.5882 41.4256 57.4989 40.0963 56.6268C38.7598 55.7499 37.2595 55.0476 35.9368 54.6938L35.5492 56.1428ZM42.1223 60.5507C42.4319 61.0433 42.5773 61.4817 42.5854 61.8539C42.5931 62.2041 42.4816 62.5505 42.1642 62.8999L43.2745 63.9085C43.839 63.2872 44.1014 62.5721 44.0851 61.8212C44.0692 61.0922 43.7927 60.3896 43.3924 59.7526L42.1223 60.5507ZM42.1642 62.8999C41.7066 63.4036 40.7982 63.831 39.4756 64.0371C38.1778 64.2393 36.5844 64.211 34.8879 63.9068C31.4866 63.2971 27.7947 61.6029 25.3176 58.6335L24.1658 59.5944C26.9237 62.9004 30.9697 64.7283 34.6232 65.3833C36.4539 65.7115 38.217 65.7513 39.7066 65.5192C41.1714 65.291 42.4812 64.7817 43.2745 63.9085L42.1642 62.8999Z" fill="#131441"/>
<ellipse cx="9.63394" cy="21.0061" rx="6.96987" ry="3.745" transform="rotate(-30.6342 9.63394 21.0061)" fill="#FFD43A"/>
<path d="M12.9405 19.3515L12.7931 18.7717C7.03856 17.4443 3.23925 23.1756 7.38341 24.7112C11.3792 26.1917 12.753 21.755 12.9405 19.3515Z" fill="#FFD43A"/>
<path d="M3.03283 1.40406C2.65852 1.22666 2.21128 1.38629 2.03389 1.7606C1.85649 2.1349 2.01612 2.58214 2.39042 2.75954L3.03283 1.40406ZM8.32727 1.20408L9.05415 1.0193L8.86441 0.272898L8.1233 0.482344L8.32727 1.20408ZM12.9405 19.3515L13.6882 19.4099L13.6979 19.2866L13.6674 19.1668L12.9405 19.3515ZM7.38341 24.7112L7.12283 25.4144L7.12283 25.4144L7.38341 24.7112ZM16.0833 21.1796C16.4154 21.4271 16.8853 21.3585 17.1328 21.0264C17.3803 20.6942 17.3118 20.2243 16.9796 19.9768L16.0833 21.1796ZM2.39042 2.75954C3.13915 3.11438 3.78862 3.29807 4.38983 3.33415C5.00023 3.37078 5.5137 3.25237 5.97953 3.07076C6.41609 2.90056 6.85111 2.65494 7.22846 2.46101C7.6269 2.25623 8.03683 2.06553 8.53124 1.92581L8.1233 0.482344C7.48958 0.66144 6.97808 0.903179 6.5428 1.12689C6.08642 1.36144 5.77542 1.54037 5.43469 1.67321C5.12323 1.79463 4.82812 1.85775 4.47969 1.83684C4.12206 1.81538 3.66244 1.70245 3.03283 1.40406L2.39042 2.75954ZM7.60039 1.38886L12.0662 18.9565L13.52 18.5869L9.05415 1.0193L7.60039 1.38886ZM12.0662 18.9565L12.2136 19.5363L13.6674 19.1668L13.52 18.5869L12.0662 18.9565ZM12.1928 19.2932C12.1045 20.4256 11.7353 21.9841 10.9778 23.0547C10.6071 23.5787 10.1697 23.9493 9.66099 24.1292C9.16145 24.3059 8.50936 24.3285 7.64399 24.0079L7.12283 25.4144C8.25533 25.8341 9.27339 25.8573 10.1611 25.5434C11.0396 25.2327 11.7067 24.6215 12.2023 23.921C13.1776 22.5425 13.5891 20.681 13.6882 19.4099L12.1928 19.2932ZM7.644 24.0079C6.79718 23.6941 6.48633 23.2287 6.4084 22.8111C6.32303 22.3536 6.47857 21.7489 6.96502 21.1324C7.9292 19.9105 10.0184 18.9014 12.6245 19.5025L12.9617 18.0409C9.81329 17.3147 7.12555 18.5075 5.78747 20.2033C5.12279 21.0456 4.74587 22.0788 4.93385 23.0862C5.12927 24.1336 5.89756 24.9604 7.12283 25.4144L7.644 24.0079ZM12.6245 19.5025C13.6947 19.7494 14.8642 20.2711 16.0833 21.1796L16.9796 19.9768C15.6108 18.9567 14.2535 18.3389 12.9617 18.0409L12.6245 19.5025Z" fill="#131441"/>
</svg>
