<svg width="298" height="332" viewBox="0 0 298 332" fill="none" xmlns="http://www.w3.org/2000/svg">
<path d="M162.019 126.985C146.88 144.091 149.973 142.635 148.147 164.836C146.322 187.036 109.086 137.503 109.086 124.438C109.086 111.373 128.89 102.965 151.068 102.965C173.245 102.965 177.159 109.88 162.019 126.985Z" fill="#FFD43A"/>
<path d="M85.3143 99.865C80.4916 101.587 78.0803 103.654 74.3959 107.788C65.4542 107.788 61.5454 104.006 58.8945 100.906C58.8945 95.7692 65.4543 96.0833 74.396 96.0833C83.3377 96.0833 85.3143 94.7282 85.3143 99.865Z" fill="#FFD43A"/>
<path d="M2.24768 155.441C2.28027 155.854 1.97195 156.215 1.55902 156.248C1.1461 156.28 0.784927 155.972 0.752319 155.559L2.24768 155.441ZM35.3512 129.749L35.941 130.212L35.3512 129.749ZM120.839 114.11C120.576 114.43 120.104 114.478 119.783 114.215C119.463 113.953 119.415 113.48 119.678 113.16L120.839 114.11ZM0.752319 155.559C0.420547 151.357 2.17133 148.011 4.97728 145.29C7.76198 142.59 11.6174 140.47 15.6052 138.657C19.5608 136.859 23.839 135.285 27.2911 133.804C29.044 133.051 30.6108 132.314 31.9006 131.557C33.1981 130.796 34.1646 130.045 34.7615 129.285L35.941 130.212C35.1744 131.188 34.0217 132.052 32.6594 132.851C31.2893 133.655 29.6556 134.421 27.8826 135.182C24.2825 136.727 20.2064 138.213 16.226 140.022C12.2778 141.817 8.61552 143.852 6.02148 146.367C3.4487 148.862 1.95969 151.793 2.24768 155.441L0.752319 155.559ZM34.7615 129.285C36.4511 127.135 38.1824 124.673 39.9182 122.2C41.6485 119.735 43.384 117.259 45.0639 115.11C46.7377 112.969 48.3927 111.105 49.9721 109.893C51.5252 108.701 53.2072 107.987 54.8271 108.594L54.3004 109.999C53.4412 109.677 52.3343 109.97 50.8855 111.083C49.4629 112.175 47.9029 113.914 46.2456 116.034C44.5943 118.146 42.8824 120.588 41.1459 123.062C39.4149 125.528 37.66 128.024 35.941 130.212L34.7615 129.285ZM54.8271 108.594C57.5886 109.63 59.5585 112.336 60.8269 115.19C62.105 118.065 62.7509 121.267 62.7509 123.551H61.2509C61.2509 121.496 60.6572 118.501 59.4562 115.799C58.2456 113.075 56.4969 110.823 54.3004 109.999L54.8271 108.594ZM62.7509 123.551C62.7509 124.575 63.0108 124.675 63.0466 124.69C63.1187 124.72 63.2654 124.748 63.5426 124.713C63.8154 124.679 64.1511 124.594 64.5624 124.463C64.972 124.333 65.4202 124.17 65.9238 123.989C66.4212 123.811 66.963 123.619 67.5329 123.444C68.6707 123.095 69.9521 122.801 71.2972 122.801V124.301C70.1633 124.301 69.0431 124.55 67.9731 124.878C67.439 125.042 66.9253 125.223 66.4301 125.401C65.9412 125.576 65.4597 125.752 65.0172 125.893C64.5762 126.033 64.1373 126.151 63.7274 126.202C63.3218 126.252 62.8778 126.246 62.4658 126.073C61.5332 125.681 61.2509 124.696 61.2509 123.551H62.7509ZM71.2972 122.801C72.6034 122.801 73.6009 123.003 74.358 123.431C75.14 123.872 75.5869 124.509 75.8671 125.209C76.1334 125.875 76.2623 126.64 76.3922 127.335C76.5276 128.061 76.6718 128.771 76.9516 129.47L75.5589 130.027C75.219 129.178 75.0534 128.338 74.9176 127.611C74.7764 126.854 74.6729 126.263 74.4744 125.766C74.2897 125.305 74.0394 124.973 73.6206 124.737C73.1769 124.486 72.4701 124.301 71.2972 124.301V122.801ZM76.9516 129.47C77.0584 129.737 77.4295 130.292 78.1114 131.142C78.7691 131.963 79.6541 132.984 80.7064 134.157C82.8107 136.503 85.5537 139.42 88.4231 142.483C94.1319 148.578 100.387 155.297 102.909 159.081L101.661 159.913C99.2257 156.26 93.0852 149.654 87.3284 143.509C84.4651 140.452 81.7078 137.52 79.5899 135.159C78.5312 133.979 77.6247 132.933 76.9411 132.081C76.2818 131.258 75.762 130.535 75.5589 130.027L76.9516 129.47ZM102.909 159.081C105.389 162.801 114.217 176.12 123.353 189.283C127.922 195.865 132.564 202.402 136.526 207.678C140.512 212.986 143.75 216.936 145.529 218.418L144.568 219.57C142.628 217.953 139.281 213.846 135.327 208.579C131.348 203.281 126.694 196.726 122.121 190.138C112.975 176.961 104.139 163.63 101.661 159.913L102.909 159.081ZM145.529 218.418C147.418 219.992 149.776 222.124 152.487 224.069C155.194 226.011 158.179 227.708 161.252 228.411C164.298 229.109 167.435 228.833 170.524 226.819C173.639 224.789 176.777 220.943 179.689 214.352L181.061 214.959C178.085 221.693 174.793 225.827 171.343 228.076C167.866 230.343 164.301 230.648 160.917 229.873C157.561 229.105 154.386 227.277 151.613 225.288C148.843 223.301 146.398 221.095 144.568 219.57L145.529 218.418ZM179.689 214.352C185.568 201.047 191.437 185.907 195.219 170.781C199.002 155.646 200.681 140.582 198.23 127.407L199.705 127.132C202.212 140.607 200.482 155.911 196.674 171.144C192.863 186.387 186.957 201.614 181.061 214.959L179.689 214.352ZM198.23 127.407C196.988 120.73 196.062 115.405 195.154 111.118C194.246 106.826 193.369 103.644 192.246 101.248C191.133 98.8747 189.79 97.2973 187.948 96.1882C186.082 95.0653 183.645 94.3857 180.273 93.926L180.476 92.4397C183.922 92.9096 186.597 93.6245 188.722 94.9031C190.869 96.1956 192.392 98.0269 193.604 100.611C194.805 103.173 195.71 106.499 196.622 110.807C197.535 115.118 198.468 120.484 199.705 127.132L198.23 127.407ZM180.273 93.926C176.822 93.4553 172.72 92.5168 168.385 91.4716C164.036 90.4232 159.445 89.2658 154.968 88.3395C150.489 87.4129 146.162 86.7259 142.353 86.6116C138.529 86.4969 135.323 86.9638 133.021 88.2587L132.286 86.9513C134.942 85.4573 138.476 84.9946 142.398 85.1123C146.336 85.2304 150.763 85.9378 155.272 86.8706C159.781 87.8035 164.409 88.9702 168.736 90.0134C173.078 91.06 177.11 91.9807 180.476 92.4397L180.273 93.926ZM133.021 88.2587C128.14 91.0041 122.323 95.5944 117.579 101.256C112.831 106.924 109.212 113.6 108.61 120.517L107.116 120.387C107.754 113.05 111.572 106.091 116.43 100.293C121.292 94.4897 127.25 89.7838 132.286 86.9513L133.021 88.2587ZM108.61 120.517C108.46 122.25 108.55 123.507 108.762 124.376C108.978 125.258 109.296 125.651 109.524 125.8C109.709 125.922 109.923 125.941 110.202 125.793C110.505 125.631 110.859 125.273 111.139 124.695C112.217 122.476 111.945 117.285 103.799 113.061L104.49 111.729C113.078 116.182 114.045 122.146 112.489 125.35C112.111 126.129 111.563 126.768 110.906 127.117C110.224 127.48 109.416 127.523 108.701 127.054C108.027 126.612 107.566 125.8 107.305 124.733C107.041 123.652 106.957 122.218 107.116 120.387L108.61 120.517ZM103.799 113.061C99.5616 110.864 96.9342 108.843 95.1707 107.019C93.4039 105.192 92.5306 103.586 91.7965 102.311C91.0633 101.037 90.5086 100.174 89.3925 99.5379C88.2442 98.8829 86.4159 98.4237 83.0386 98.2702L83.1067 96.7718C86.5467 96.9281 88.6694 97.3986 90.1357 98.2349C91.6342 99.0896 92.3578 100.28 93.0965 101.563C93.8343 102.844 94.6266 104.298 96.2491 105.977C97.8749 107.658 100.361 109.588 104.49 111.729L103.799 113.061ZM83.0386 98.2702C76.2306 97.9608 70.0798 97.9632 65.8782 98.4215C63.7575 98.6529 62.223 98.9922 61.3503 99.4159C60.9085 99.6303 60.7513 99.8122 60.7067 99.9028C60.6923 99.9321 60.6488 100.007 60.7847 100.234L59.4985 101.006C59.1695 100.457 59.0679 99.8355 59.3609 99.2403C59.6238 98.7062 60.1397 98.3362 60.6953 98.0665C61.8174 97.5217 63.5754 97.1638 65.7155 96.9304C70.0356 96.4591 76.28 96.4615 83.1067 96.7718L83.0386 98.2702ZM60.7847 100.234C60.9561 100.52 61.2923 100.893 61.803 101.328C62.3047 101.755 62.9392 102.211 63.6673 102.666C65.1242 103.578 66.9163 104.465 68.6859 105.105C70.4704 105.75 72.1622 106.119 73.4404 106.059C74.0753 106.028 74.5532 105.894 74.8856 105.686C75.1978 105.491 75.4194 105.209 75.5277 104.776L76.9829 105.14C76.7813 105.946 76.3251 106.555 75.6809 106.958C75.0571 107.348 74.3003 107.519 73.5117 107.557C71.9429 107.632 70.0324 107.187 68.1757 106.516C66.3043 105.839 64.4166 104.905 62.8716 103.938C62.0987 103.454 61.4016 102.956 60.8309 102.47C60.2691 101.992 59.7919 101.495 59.4985 101.006L60.7847 100.234ZM75.5277 104.776C75.8985 103.293 76.9095 102.231 78.0589 101.39C79.1917 100.56 80.5829 99.8621 81.7753 99.1914C83.0141 98.4945 84.0619 97.8171 84.7383 96.9885C85.3769 96.2063 85.7002 95.2705 85.436 93.9495L86.9069 93.6554C87.2624 95.4331 86.8111 96.8214 85.9003 97.9371C85.0272 99.0066 83.7509 99.8011 82.5107 100.499C81.2241 101.222 79.9813 101.841 78.945 102.6C77.9252 103.347 77.2319 104.144 76.9829 105.14L75.5277 104.776ZM85.436 93.9495C85.1964 92.7517 84.3466 92.0038 82.813 91.2041C82.0441 90.8031 81.1744 90.4237 80.1796 89.9616C79.1989 89.5061 78.1302 88.9847 77.0315 88.3255C72.5729 85.6504 67.808 80.8106 65.6022 69.1515L67.0761 68.8727C69.2086 80.1447 73.7401 84.6014 77.8032 87.0393C78.8349 87.6583 79.8482 88.1537 80.8115 88.6012C81.7607 89.0421 82.6971 89.4519 83.5066 89.8741C85.1299 90.7206 86.5267 91.7545 86.9069 93.6554L85.436 93.9495ZM65.6022 69.1515C63.4302 57.6708 61.8602 44.401 63.272 34.126C63.9776 28.9912 65.4393 24.5119 68.0273 21.3839C70.6499 18.2141 74.3748 16.4993 79.4024 16.8237L79.3058 18.3206C74.7272 18.0252 71.4797 19.5642 69.183 22.3401C66.8517 25.1579 65.447 29.3166 64.7581 34.3302C63.381 44.3523 64.9098 57.4223 67.0761 68.8727L65.6022 69.1515ZM79.4024 16.8237C88.9637 17.4405 99.4693 17.9067 107.957 20.8931C112.218 22.3922 116.014 24.5395 118.948 27.6942C121.889 30.8561 123.924 34.99 124.719 40.3941L123.235 40.6124C122.48 35.4806 120.565 31.6351 117.85 28.7156C115.128 25.7889 111.565 23.7528 107.459 22.3081C99.2133 19.4067 88.957 18.9432 79.3058 18.3206L79.4024 16.8237ZM124.719 40.3941C126.275 50.9788 126.589 60.7987 125.886 68.9988C125.185 77.1771 123.467 83.8224 120.897 87.9981L119.619 87.2119C122.008 83.3309 123.698 76.9612 124.392 68.8707C125.083 60.8021 124.777 51.0994 123.235 40.6124L124.719 40.3941ZM120.897 87.9981C118.412 92.0359 113.157 100.383 108.752 108.343C106.548 112.324 104.569 116.188 103.259 119.354C102.603 120.939 102.124 122.326 101.865 123.454C101.597 124.619 101.599 125.368 101.748 125.767L100.343 126.293C100.028 125.452 100.126 124.323 100.403 123.118C100.689 121.875 101.202 120.401 101.873 118.781C103.216 115.536 105.227 111.614 107.439 107.616C111.866 99.6175 117.146 91.2309 119.619 87.2119L120.897 87.9981ZM101.748 125.767C101.925 126.238 102.34 126.816 103.017 127.499C103.685 128.173 104.557 128.899 105.577 129.674C107.627 131.234 110.164 132.911 112.712 134.714C115.233 136.498 117.742 138.391 119.624 140.323C121.481 142.23 122.867 144.313 122.867 146.482H121.367C121.367 144.933 120.352 143.22 118.549 141.369C116.771 139.544 114.36 137.718 111.846 135.939C109.358 134.178 106.743 132.446 104.668 130.868C103.626 130.075 102.691 129.3 101.952 128.555C101.224 127.82 100.632 127.062 100.343 126.293L101.748 125.767ZM122.867 146.482C122.867 147.59 122.466 148.719 121.828 149.817C121.188 150.919 120.284 152.033 119.216 153.126C117.08 155.312 114.221 157.477 111.289 159.354C108.353 161.233 105.314 162.842 102.8 163.906C101.546 164.438 100.403 164.841 99.4604 165.072C98.9892 165.187 98.5504 165.264 98.1616 165.288C97.7856 165.311 97.3912 165.288 97.0486 165.151L97.6056 163.759C97.6503 163.776 97.7885 163.808 98.0707 163.79C98.3401 163.774 98.6851 163.718 99.1036 163.615C99.9399 163.41 101.001 163.039 102.215 162.525C104.641 161.498 107.605 159.93 110.48 158.09C113.357 156.249 116.115 154.153 118.143 152.078C119.157 151.04 119.973 150.024 120.531 149.064C121.091 148.099 121.367 147.233 121.367 146.482H122.867ZM97.0486 165.151C96.2481 164.831 95.9684 163.957 95.8653 163.22C95.7525 162.414 95.7954 161.393 95.9445 160.27C96.2442 158.012 96.9973 155.168 98.0185 152.418C99.0383 149.673 100.345 146.968 101.777 145.013C102.491 144.036 103.263 143.21 104.079 142.665C104.899 142.117 105.825 141.818 106.786 142.031L106.461 143.496C106.028 143.399 105.52 143.506 104.912 143.912C104.299 144.322 103.648 144.996 102.987 145.898C101.669 147.7 100.419 150.263 99.4246 152.941C98.4315 155.614 97.7128 158.348 97.4314 160.467C97.29 161.533 97.2652 162.4 97.3508 163.012C97.4463 163.694 97.6314 163.769 97.6056 163.759L97.0486 165.151ZM106.786 142.031C108.317 142.372 110.075 143.285 111.919 144.511C113.777 145.746 115.779 147.337 117.805 149.091C121.858 152.598 126.06 156.801 129.465 160.206L128.404 161.267C124.992 157.854 120.828 153.691 116.824 150.225C114.822 148.493 112.873 146.947 111.089 145.76C109.292 144.566 107.719 143.775 106.461 143.496L106.786 142.031ZM129.465 160.206C130.235 160.976 131.539 161.835 133.298 162.771C135.043 163.701 137.182 164.679 139.581 165.702C144.402 167.758 150.137 169.943 155.794 172.284C161.413 174.609 166.903 177.068 171.073 179.619C173.157 180.894 174.943 182.211 176.255 183.567C177.561 184.918 178.459 186.371 178.641 187.918L177.151 188.093C177.023 187.007 176.371 185.845 175.177 184.61C173.988 183.381 172.321 182.141 170.29 180.899C166.229 178.414 160.834 175.992 155.22 173.67C149.644 171.362 143.797 169.131 138.992 167.082C136.579 166.052 134.394 165.054 132.593 164.095C130.805 163.144 129.338 162.201 128.404 161.267L129.465 160.206ZM178.641 187.918C178.958 190.614 178.774 192.735 178.143 194.258C177.497 195.818 176.366 196.765 174.896 196.961C173.485 197.149 171.908 196.625 170.341 195.607C168.76 194.581 167.112 193.004 165.526 190.942L166.715 190.028C168.227 191.994 169.755 193.439 171.158 194.349C172.573 195.268 173.785 195.596 174.698 195.474C175.552 195.36 176.28 194.835 176.757 193.684C177.25 192.495 177.453 190.666 177.151 188.093L178.641 187.918ZM165.526 190.942C164.017 188.981 161.414 186.606 158.455 183.667C155.531 180.763 152.329 177.368 149.767 173.466C147.203 169.56 145.262 165.12 144.891 160.124C144.52 155.118 145.73 149.619 149.365 143.615L150.648 144.391C147.155 150.162 146.042 155.354 146.387 160.013C146.733 164.681 148.55 168.878 151.021 172.643C153.495 176.41 156.606 179.716 159.512 182.603C162.383 185.455 165.125 187.961 166.715 190.028L165.526 190.942ZM149.365 143.615C152.943 137.704 156.402 132.728 159.339 128.561C162.287 124.377 164.676 121.05 166.162 118.383C166.904 117.052 167.395 115.93 167.622 114.983C167.848 114.042 167.801 113.331 167.541 112.768C167.281 112.206 166.757 111.678 165.8 111.207C164.836 110.732 163.484 110.341 161.659 110.037L161.905 108.557C163.799 108.872 165.313 109.295 166.463 109.861C167.619 110.431 168.455 111.171 168.903 112.139C169.349 113.106 169.356 114.187 169.08 115.333C168.807 116.473 168.242 117.733 167.473 119.113C165.937 121.869 163.485 125.281 160.565 129.425C157.633 133.586 154.198 138.527 150.648 144.391L149.365 143.615ZM161.659 110.037C154.269 108.805 145.342 108.19 137.586 108.728C133.707 108.997 130.147 109.552 127.228 110.449C124.293 111.351 122.096 112.573 120.839 114.11L119.678 113.16C121.209 111.288 123.738 109.953 126.787 109.015C129.853 108.073 133.536 107.505 137.482 107.231C145.375 106.684 154.421 107.309 161.905 108.557L161.659 110.037Z" fill="#131441"/>
<path d="M71.1755 134.579C71.246 134.171 71.6341 133.897 72.0423 133.967C72.4504 134.038 72.7241 134.426 72.6536 134.834L71.1755 134.579ZM60.1391 166.314L59.3993 166.437L60.1391 166.314ZM270.42 142.892L269.951 143.478L270.42 142.892ZM251.112 179.374C250.816 179.664 250.341 179.659 250.052 179.363C249.762 179.067 249.767 178.592 250.063 178.302L251.112 179.374ZM72.6536 134.834C71.2064 143.207 68.8764 154.863 66.591 162.576C66.0192 164.506 65.4456 166.205 64.8839 167.551C64.3358 168.864 63.7578 169.947 63.1387 170.544C62.8258 170.845 62.3938 171.128 61.8646 171.104C61.3145 171.079 60.9091 170.737 60.6307 170.353C60.0987 169.618 59.7086 168.294 59.3993 166.437L60.8789 166.191C61.1893 168.053 61.5417 169.053 61.8457 169.473C61.9853 169.666 62.0213 169.609 61.9324 169.605C61.8644 169.602 61.9134 169.641 62.0975 169.464C62.4727 169.102 62.9534 168.282 63.4996 166.973C64.0322 165.697 64.5883 164.055 65.1528 162.15C67.4122 154.524 69.7304 142.939 71.1755 134.579L72.6536 134.834ZM59.3993 166.437C58.6144 161.728 58.9358 158.392 60.107 156.2C61.3155 153.938 63.3611 153.014 65.6395 153.014C67.8726 153.014 70.3478 153.892 72.628 155.206C74.9179 156.526 77.0791 158.325 78.6883 160.256L77.5359 161.216C76.0463 159.429 74.0241 157.742 71.8789 156.506C69.7239 155.263 67.5122 154.514 65.6395 154.514C63.812 154.514 62.3326 155.217 61.43 156.906C60.4902 158.665 60.1143 161.604 60.8789 166.191L59.3993 166.437ZM78.6883 160.256C80.1547 162.016 82.5763 163.741 85.7274 165.803C88.8464 167.844 92.6333 170.187 96.6826 173.146C104.802 179.079 114.03 187.524 121.534 201.281L120.217 202C112.847 188.487 103.792 180.199 95.7975 174.357C91.7899 171.428 88.0622 169.123 84.9062 167.058C81.7823 165.014 79.1683 163.175 77.5359 161.216L78.6883 160.256ZM121.534 201.281C128.887 214.762 140.498 223.583 151.401 225.93C156.846 227.102 162.089 226.657 166.556 224.414C171.016 222.175 174.773 218.108 177.195 211.904L178.592 212.449C176.055 218.95 172.065 223.327 167.229 225.755C162.4 228.18 156.797 228.626 151.086 227.396C139.678 224.941 127.738 215.788 120.217 202L121.534 201.281ZM177.195 211.904C182.123 199.274 184.592 186.17 186.53 175.706C187.496 170.49 188.334 165.903 189.284 162.39C189.758 160.633 190.269 159.113 190.851 157.902C191.427 156.704 192.109 155.729 192.971 155.154L193.803 156.402C193.271 156.757 192.733 157.448 192.203 158.552C191.678 159.643 191.196 161.063 190.732 162.782C189.802 166.222 188.975 170.737 188.005 175.98C186.069 186.433 183.579 199.669 178.592 212.449L177.195 211.904ZM192.971 155.154C194.493 154.139 196.046 153.758 197.555 154.044C199.051 154.327 200.393 155.245 201.551 156.61C203.852 159.322 205.585 163.976 206.523 169.916L205.042 170.15C204.12 164.314 202.445 159.982 200.407 157.58C199.396 156.389 198.336 155.719 197.276 155.518C196.229 155.319 195.07 155.558 193.803 156.402L192.971 155.154ZM206.523 169.916C206.74 171.29 207.395 173.184 208.404 175.553C209.408 177.908 210.736 180.679 212.266 183.792C215.32 190.007 219.166 197.563 222.739 205.756C229.869 222.109 236.008 241.208 232.546 257.574L231.078 257.263C234.434 241.402 228.488 222.696 221.364 206.356C217.809 198.203 213.985 190.692 210.92 184.453C209.389 181.339 208.045 178.537 207.024 176.14C206.009 173.757 205.289 171.719 205.042 170.15L206.523 169.916ZM232.546 257.574C230.808 265.792 227.163 271.162 222.616 274.979C218.095 278.774 212.712 281.004 207.576 283.001C202.393 285.017 197.51 286.783 193.739 289.637C190.026 292.448 187.395 296.319 186.795 302.609L185.302 302.467C185.943 295.742 188.8 291.495 192.834 288.441C196.811 285.43 201.936 283.586 207.032 281.604C212.174 279.604 217.341 277.448 221.652 273.83C225.938 270.232 229.408 265.16 231.078 257.263L232.546 257.574ZM186.795 302.609C186.184 309.032 186.799 314.66 188.235 319.129C189.674 323.608 191.92 326.87 194.528 328.645C197.103 330.398 200.077 330.738 203.165 329.311C206.293 327.865 209.601 324.571 212.658 318.915L213.978 319.628C210.838 325.438 207.328 329.039 203.794 330.672C200.22 332.325 196.687 331.929 193.684 329.885C190.714 327.864 188.311 324.27 186.807 319.588C185.299 314.896 184.674 309.059 185.302 302.467L186.795 302.609ZM212.658 318.915C215.652 313.376 215.843 307.799 214.915 302.252C213.977 296.643 211.939 291.239 210.496 285.85C209.074 280.54 208.259 275.311 210.032 270.438C211.816 265.534 216.151 261.163 224.621 257.398L225.231 258.769C216.968 262.441 213.035 266.571 211.441 270.951C209.837 275.362 210.536 280.2 211.945 285.462C213.332 290.645 215.442 296.315 216.395 302.005C217.357 307.756 217.182 313.701 213.978 319.628L212.658 318.915ZM224.621 257.398C233.028 253.662 242.411 250.481 251.542 247.563C260.688 244.639 269.56 241.987 277.011 239.292C284.487 236.588 290.39 233.89 293.661 230.929C295.284 229.46 296.184 227.992 296.378 226.496C296.57 225.014 296.086 223.35 294.616 221.439L295.805 220.524C297.433 222.642 298.123 224.694 297.865 226.688C297.609 228.669 296.437 230.439 294.667 232.041C291.151 235.224 284.982 238.004 277.521 240.703C270.035 243.41 261.104 246.081 251.998 248.991C242.876 251.907 233.558 255.068 225.231 258.769L224.621 257.398ZM294.616 221.439C288.505 213.495 280.467 209.271 273.695 204.311C270.337 201.851 267.308 199.211 265.124 195.855C262.929 192.482 261.613 188.426 261.613 183.176H263.113C263.113 188.152 264.353 191.921 266.381 195.037C268.419 198.168 271.277 200.68 274.582 203.101C281.135 207.901 289.52 212.355 295.805 220.524L294.616 221.439ZM261.613 183.176C261.613 172.99 261.302 160.994 262.159 152.5C262.374 150.371 262.664 148.441 263.056 146.803C263.446 145.174 263.947 143.783 264.611 142.764C265.279 141.737 266.172 141.002 267.34 140.902C268.475 140.804 269.662 141.325 270.888 142.306L269.951 143.478C268.854 142.6 268.046 142.346 267.469 142.396C266.925 142.443 266.39 142.779 265.868 143.582C265.34 144.393 264.888 145.592 264.515 147.152C264.144 148.702 263.863 150.559 263.652 152.651C262.804 161.045 263.113 172.911 263.113 183.176H261.613ZM270.888 142.306C273.093 144.07 273.331 146.854 272.55 149.87C271.767 152.897 269.911 156.396 267.559 159.947C262.845 167.062 255.987 174.603 251.112 179.374L250.063 178.302C254.898 173.57 261.675 166.113 266.309 159.118C268.63 155.614 270.377 152.28 271.098 149.494C271.822 146.698 271.465 144.689 269.951 143.478L270.888 142.306Z" fill="#131441"/>
<path d="M86.868 31.9199L86.998 31.1812L86.868 31.9199ZM116.538 5.206L116.498 4.45705L116.538 5.206ZM89.4706 26.6819L88.7269 26.7791L88.9363 28.3804L90.0247 27.1874L89.4706 26.6819ZM66.2754 38.2446C66.3456 36.9035 67.3138 34.8216 70.3358 33.397C73.3729 31.9653 78.4898 31.206 86.7379 32.6585L86.998 31.1812C78.5893 29.7004 73.1222 30.4252 69.6962 32.0402C66.255 33.6624 64.8808 36.19 64.7775 38.1663L66.2754 38.2446ZM86.7379 32.6585C91.9619 33.5784 97.2158 34.2679 102.134 34.9141C107.061 35.5615 111.641 36.1643 115.551 36.9123C119.476 37.6631 122.647 38.5465 124.79 39.7222C126.917 40.8888 127.866 42.2376 127.761 43.9206L129.258 44.0136C129.414 41.5062 127.891 39.7122 125.512 38.4071C123.149 37.1112 119.781 36.1941 115.833 35.439C111.871 34.6811 107.244 34.0727 102.329 33.4269C97.4061 32.78 92.1845 32.0946 86.998 31.1812L86.7379 32.6585ZM127.761 43.9206C127.498 48.1537 127.241 55.543 126.276 60.655C126.036 61.9275 125.757 63.0306 125.434 63.8937C125.101 64.7815 124.759 65.3104 124.456 65.5518C124.32 65.66 124.212 65.6942 124.123 65.6998C124.031 65.7055 123.888 65.6848 123.679 65.5654C123.231 65.3108 122.621 64.6886 121.858 63.4727L120.587 64.2701C121.386 65.5423 122.158 66.426 122.937 66.8691C123.34 67.0986 123.771 67.2247 124.217 67.1969C124.665 67.1689 125.059 66.9894 125.39 66.7252C126.023 66.2218 126.482 65.3716 126.838 64.42C127.204 63.4437 127.503 62.247 127.75 60.9332C128.738 55.7002 129.001 48.1612 129.258 44.0136L127.761 43.9206ZM121.858 63.4727C118.868 58.7088 119.186 54.658 120.525 51.8164C121.202 50.3794 122.146 49.2392 123.081 48.465C124.044 47.6673 124.899 47.3361 125.387 47.3361V45.8361C124.387 45.8361 123.197 46.4215 122.124 47.3098C121.024 48.2215 119.941 49.5367 119.168 51.177C117.607 54.49 117.331 59.0819 120.587 64.2701L121.858 63.4727ZM125.387 47.3361C126.013 47.3361 127.101 47.567 128.658 47.9892C130.189 48.4047 132.061 48.972 134.232 49.5983C138.554 50.8448 143.968 52.2976 149.749 53.0909L149.953 51.6048C144.283 50.8267 138.953 49.3986 134.648 48.1571C132.507 47.5394 130.596 46.9608 129.05 46.5415C127.53 46.129 126.247 45.8361 125.387 45.8361V47.3361ZM149.749 53.0909C151.17 53.2859 152.168 53.373 152.763 53.3257C152.917 53.3134 153.08 53.2899 153.232 53.2408C153.369 53.1967 153.602 53.0992 153.766 52.8676C153.964 52.5875 153.952 52.2765 153.873 52.0509C153.805 51.8579 153.685 51.7109 153.597 51.616C153.414 51.4194 153.151 51.2245 152.873 51.0391C152.584 50.8461 152.229 50.6319 151.828 50.4002C151.028 49.9382 149.993 49.3783 148.848 48.7452C146.541 47.4703 143.728 45.8678 141.14 44.0051C138.541 42.135 136.23 40.0448 134.877 37.8161L133.595 38.5947C135.104 41.0803 137.608 43.3115 140.263 45.2226C142.929 47.1409 145.809 48.7794 148.122 50.058C149.287 50.7017 150.294 51.2466 151.078 51.6992C151.468 51.9248 151.791 52.1203 152.041 52.2871C152.303 52.4616 152.442 52.5767 152.499 52.6379C152.53 52.6719 152.49 52.6407 152.458 52.5502C152.415 52.4272 152.397 52.2053 152.541 52.0009C152.599 51.9188 152.663 51.8713 152.703 51.847C152.742 51.823 152.769 51.8142 152.772 51.8131C152.775 51.8122 152.74 51.8227 152.644 51.8304C152.236 51.8629 151.395 51.8027 149.953 51.6048L149.749 53.0909ZM134.877 37.8161C133.592 35.7009 133.581 32.6064 133.973 28.9302C134.354 25.3608 135.116 21.2652 135.116 17.5808C135.116 13.8639 134.353 10.3043 131.51 7.80958C128.687 5.33308 123.986 4.06047 116.498 4.45705L116.578 5.95495C123.925 5.56584 128.138 6.84674 130.52 8.93712C132.882 11.0092 133.616 14.0299 133.616 17.5808C133.616 21.1641 132.881 25.0237 132.481 28.7711C132.093 32.4118 132.016 35.9957 133.595 38.5947L134.877 37.8161ZM116.498 4.45705C104.49 5.09304 97.2946 8.85709 93.2182 13.4281C89.1518 17.9878 88.2675 23.2658 88.7269 26.7791L90.2143 26.5846C89.8061 23.4632 90.5875 18.6317 94.3377 14.4265C98.0778 10.2326 104.85 6.57609 116.578 5.95495L116.498 4.45705ZM90.0247 27.1874C92.469 24.508 95.1924 21.2492 97.5709 17.9562C99.9421 14.6732 102.001 11.3148 103.082 8.44283C103.621 7.00903 103.938 5.64263 103.894 4.43925C103.85 3.2143 103.426 2.11892 102.459 1.35024C101.518 0.602315 100.172 0.251802 98.4581 0.250007C96.7372 0.248204 94.5626 0.597602 91.8735 1.34043L92.2729 2.78628C94.8931 2.06248 96.9229 1.7484 98.4566 1.75001C99.9978 1.75162 100.956 2.07141 101.526 2.5244C102.069 2.95664 102.362 3.59279 102.395 4.49373C102.429 5.41623 102.184 6.57007 101.678 7.91458C100.667 10.5993 98.7009 13.8298 96.3549 17.0779C94.0161 20.316 91.3304 23.5305 88.9165 26.1764L90.0247 27.1874ZM91.8735 1.34043C70.1987 7.32779 63.0572 28.3935 62.1769 38.138L63.6708 38.2729C64.5255 28.8115 71.4729 8.53201 92.2729 2.78628L91.8735 1.34043Z" fill="#131441"/>
</svg>
