<svg width="156" height="125" fill="none" xmlns="http://www.w3.org/2000/svg"><path d="M68.474 74.278a1.5 1.5 0 1 0-2.948-.556l2.948.556ZM0 112.217l12.39 12.104 4.287-16.782L0 112.217Zm5.017 2.829a1.5 1.5 0 0 0 .629-2.934l-.63 2.934Zm11.246-1.584a1.501 1.501 0 0 0-.11 2.998l.11-2.998Zm11.14 2.291a1.5 1.5 0 0 0-.498-2.959l.497 2.959Zm9.719-5.872a1.5 1.5 0 1 0 1.145 2.772l-1.145-2.772Zm11.025-2.737a1.5 1.5 0 1 0-1.758-2.431l1.758 2.431Zm6.065-9.606a1.5 1.5 0 0 0 2.268 1.964l-2.268-1.964Zm8.67-7.34a1.5 1.5 0 0 0-2.643-1.42l2.642 1.42Zm1.396-11.282a1.5 1.5 0 1 0 2.878.846l-2.879-.846ZM16.153 116.46a55.485 55.485 0 0 0 11.25-.707l-.498-2.959c-3.378.568-6.931.804-10.642.668l-.11 2.998Zm22.114-3.807a48.325 48.325 0 0 0 9.88-5.509l-1.758-2.431a45.343 45.343 0 0 1-9.267 5.168l1.145 2.772Zm18.213-13.15a51.382 51.382 0 0 0 6.401-9.304l-2.642-1.422a48.38 48.38 0 0 1-6.027 8.76l2.268 1.965Zm10.676-19.74a56.715 56.715 0 0 0 1.318-5.485l-2.948-.556a53.764 53.764 0 0 1-1.248 5.194l2.878.846ZM42.85 26.747a4.561 4.561 0 0 0-.083.423c-.032.194-.06.338-.085.432a1.227 1.227 0 0 1-.618.795c-.315.172-.662.207-1.04.106-.571-.154-.898-.494-.98-1.021-.05-.337.007-.817.174-1.44.06-.226.162-.53.305-.909-.774-.207-2.208-.578-4.303-1.112a573.3 573.3 0 0 1-4.29-1.12c-.248.85-.4 1.38-.455 1.587a1.226 1.226 0 0 1-.617.795c-.31.173-.653.21-1.03.108-.378-.1-.66-.304-.848-.61a1.242 1.242 0 0 1-.127-.996c.074-.276.191-.69.352-1.24.161-.55.279-.963.353-1.24.006-.2.014-.316.022-.348.172-.641.734-.928 1.687-.862 1.956-2.32 3.364-5.084 4.223-8.29.063-.234.116-.583.16-1.05.052-.471.106-.81.162-1.018.222-.83.932-1.092 2.13-.784l4.798 1.265 1.477.335c.23-.053.464-.047.703.017.377.1.66.305.847.611.188.306.234.639.138.997-.17.635-.416 1.587-.735 2.857a214.54 214.54 0 0 1-.73 2.837c-.287 1.07-.804 2.861-1.552 5.377l.065.058c.55.336.742.816.575 1.438-.06.227-.174.56-.339 1.001a11.97 11.97 0 0 0-.339 1.001Zm.038-13.8c-.36-.09-.832-.216-1.415-.379-.726-.208-1.196-.34-1.41-.398-.402-.108-.98-.253-1.734-.434l-.22.82c-.338 1.264-.858 2.652-1.56 4.162-.773 1.653-1.56 2.996-2.363 4.028.44.118 1.144.286 2.11.504.92.213 1.625.385 2.116.517.421.113 1.049.298 1.883.555.156-.558.408-1.41.756-2.557.328-1.072.58-1.938.757-2.598a913.1 913.1 0 0 0 1.08-4.22Zm10.91 15.996c-.378-.101-.661-.302-.85-.602a1.199 1.199 0 0 1-.133-.976c.05-.188.104-.45.16-.786.062-.381.108-.642.139-.782.109-.483.265-1.102.467-1.856.074-.277.366-1.317.877-3.122-.303-.054-.599-.12-.888-.197a76.504 76.504 0 0 1-2.666-.765L50.43 21.7c-.51 1.906-1.025 3.22-1.542 3.945-.773 1.073-1.82 1.433-3.14 1.08a3.153 3.153 0 0 1-1.33-.7c-.477-.432-.642-.924-.493-1.478.082-.308.26-.546.535-.716.28-.167.597-.204.95-.11.138.038.312.132.52.282.21.15.368.24.475.268.427.115.858-.636 1.29-2.252.124-.459.273-1.154.448-2.084a33.84 33.84 0 0 1 .457-2.082c.099-.37.313-.63.643-.778.33-.147.682-.17 1.06-.07.163.044.382.11.655.196.34.118.555.193.648.224.678.21 1.552.457 2.621.743.233.063.59.114 1.07.156.482.041.842.094 1.08.158.95.254 1.318.78 1.104 1.58-.136.509-.35 1.27-.642 2.284-.284 1.009-.493 1.765-.628 2.268a47.668 47.668 0 0 0-.45 1.79c-.034.153-.085.433-.154.839-.053.35-.106.625-.16.826-.095.352-.299.611-.613.776-.314.166-.66.198-1.037.097Zm9.921 2.628a1.466 1.466 0 0 1-.862-.595 1.137 1.137 0 0 1-.187-1c.047-.177.182-.727.402-1.652-1.085.1-2.618.592-4.601 1.477-.352.155-.7.186-1.046.093a1.539 1.539 0 0 1-.878-.609 1.156 1.156 0 0 1-.18-.988c.158-.591 1.278-1.174 3.36-1.749-1.152-1.01-1.6-1.992-1.344-2.948.391-1.459 1.74-2.368 4.047-2.727.95-.15 2.18-.023 3.69.382.44.118.765.363.975.736.218.369.272.757.162 1.166-.222.83-.529 2.09-.92 3.777a112.494 112.494 0 0 1-.912 3.78 1.137 1.137 0 0 1-.65.766c-.34.158-.691.189-1.056.09Zm.54-8.277c-.5-.1-1.074-.069-1.724.094-.752.19-1.21.491-1.375.905.137.495.46.885.97 1.17.321.187.822.369 1.502.544.126-.593.335-1.498.627-2.713ZM88.353 38.94a4.528 4.528 0 0 0-.083.423c-.031.194-.06.338-.085.432a1.226 1.226 0 0 1-.618.795c-.315.171-.662.207-1.039.106-.572-.154-.899-.494-.98-1.021-.051-.337.007-.817.173-1.44.061-.226.163-.53.305-.91-.774-.207-2.208-.577-4.302-1.111a574.638 574.638 0 0 1-4.29-1.12c-.249.85-.4 1.38-.456 1.587a1.227 1.227 0 0 1-.617.795c-.31.173-.653.21-1.03.108-.378-.101-.66-.305-.847-.611a1.242 1.242 0 0 1-.128-.995c.074-.276.191-.69.352-1.24.161-.55.279-.963.353-1.24.006-.2.014-.316.022-.348.172-.641.734-.929 1.687-.862 1.956-2.32 3.364-5.084 4.224-8.291.062-.233.115-.582.16-1.05.051-.47.105-.81.16-1.017.223-.83.934-1.092 2.132-.784l4.797 1.265 1.477.335c.23-.053.464-.047.703.017.378.1.66.304.847.61.188.307.234.64.138.998-.17.635-.416 1.587-.735 2.856a213.298 213.298 0 0 1-.73 2.838c-.287 1.069-.804 2.861-1.552 5.377l.065.058c.55.336.742.816.575 1.438-.06.226-.173.56-.339 1.001-.165.441-.278.775-.339 1.001Zm.038-13.8c-.36-.09-.832-.216-1.415-.38-.726-.207-1.196-.34-1.41-.397-.402-.108-.98-.253-1.733-.434l-.22.82c-.34 1.264-.86 2.652-1.56 4.162-.774 1.653-1.561 2.996-2.364 4.028.44.118 1.144.286 2.11.504.92.213 1.625.385 2.116.517.421.113 1.049.298 1.883.555.156-.558.408-1.41.756-2.558a81.26 81.26 0 0 0 .757-2.597c.066-.246.426-1.652 1.08-4.22Zm14.494 3.6a1.551 1.551 0 0 1-.381-.162 11.72 11.72 0 0 0-2.86-1.212 11.434 11.434 0 0 0-1.55-.293c-.56-.07-1.166-.11-1.817-.123-.224.836-.585 2.07-1.083 3.703.359.07 1.62.282 3.782.64 1.233.202 2.01.346 2.331.432.371.1.656.304.856.613.202.304.251.65.146 1.04-.2.749-.713 1.066-1.539.953-.513-.097-1.281-.236-2.305-.416a143.55 143.55 0 0 1-4.136-.713 38.153 38.153 0 0 0-.584 1.916c-.33 1.232-.446 1.953-.347 2.161.048.1.433.248 1.156.441.39.105.98.253 1.772.445a83.6 83.6 0 0 1 1.771.444c.126.034.316.065.572.093.255.028.443.058.562.09.365.097.648.285.851.561.233.312.293.678.18 1.1-.189.704-.67 1.027-1.442.968-.661-.049-1.982-.339-3.963-.87-2.05-.549-3.312-1.184-3.787-1.904-.522-.794-.51-2.206.034-4.237.226-.843.624-2.09 1.195-3.744.58-1.658.98-2.905 1.205-3.742.059-.22.114-.552.166-.996.053-.451.11-.787.168-1.007.257-.956.825-1.316 1.705-1.08.277.075.51.221.701.44.778.014 1.506.064 2.184.151.686.083 1.32.203 1.906.36 1.584.424 2.803.946 3.654 1.565.52.375.702.852.547 1.43a1.3 1.3 0 0 1-.572.777 1.26 1.26 0 0 1-1.078.176Zm13.628 4.491c-.491-.131-1.245-.37-2.264-.718-.982-.337-1.737-.573-2.267-.708-.167.723-.424 2.023-.772 3.898-.303 1.658-.58 2.958-.833 3.901-.057.214-.12.538-.189.97a10.52 10.52 0 0 1-.189.971c-.127.472-.341.87-.644 1.193-.387.415-.82.559-1.298.43a1.434 1.434 0 0 1-.826-.575 1.194 1.194 0 0 1-.196-1.043c.024-.088.075-.216.153-.384.081-.174.133-.308.159-.402.077-.29.172-.732.285-1.329.119-.595.218-1.04.297-1.336.226-.842.466-2.001.72-3.477.292-1.694.51-2.86.653-3.495l-.49-.131c-1.403-.376-2.489-.775-3.259-1.197-.652-.357-.891-.862-.716-1.516.086-.32.277-.58.572-.777.347-.237.73-.283 1.149-.137.217.072.703.259 1.457.562a14.77 14.77 0 0 0 1.482.508c.383.103.957.25 1.721.442.771.193 1.348.34 1.732.443.478.128 1.185.355 2.123.68a37.07 37.07 0 0 0 2.125.67c.377.102.659.309.845.622.192.314.24.65.144 1.009a1.275 1.275 0 0 1-.632.811 1.343 1.343 0 0 1-1.042.115Zm11.897 2.349a1.551 1.551 0 0 1-.381-.163 11.72 11.72 0 0 0-2.86-1.211 11.445 11.445 0 0 0-1.549-.294c-.561-.07-1.167-.11-1.817-.123-.224.837-.586 2.071-1.084 3.703.359.07 1.62.283 3.782.64 1.233.202 2.01.346 2.331.432.371.1.657.304.857.614.201.303.25.65.146 1.04-.201.748-.714 1.066-1.54.952-.513-.097-1.281-.235-2.305-.415-.92-.139-2.298-.377-4.135-.714a38.837 38.837 0 0 0-.585 1.916c-.33 1.233-.445 1.953-.346 2.162.047.1.432.247 1.155.44.39.105.981.253 1.772.445s1.382.34 1.771.445c.126.033.317.064.572.092.256.028.443.058.562.09.365.098.649.285.851.562.233.311.293.678.18 1.1-.188.704-.669 1.026-1.442.968-.661-.05-1.982-.34-3.963-.87-2.05-.55-3.312-1.184-3.786-1.904-.522-.794-.511-2.206.033-4.238.226-.842.624-2.09 1.195-3.744.58-1.658.981-2.905 1.205-3.741.059-.22.115-.553.166-.997.054-.45.11-.786.169-1.006.256-.956.824-1.316 1.705-1.08.276.074.51.22.7.44.779.014 1.507.064 2.184.15.686.083 1.321.203 1.906.36 1.585.424 2.803.946 3.655 1.566.519.375.702.851.547 1.43a1.306 1.306 0 0 1-.573.777 1.26 1.26 0 0 1-1.078.176Zm11.616 6.115c-.832.438-2.04 1.149-3.625 2.133a98.21 98.21 0 0 0-4.194 3.203c-.433.356-1.087.885-1.962 1.587-.424.325-.847.43-1.268.317-.422-.112-.73-.333-.925-.662-.193-.335-.224-.697-.093-1.086 1.189-3.557 1.838-5.54 1.948-5.949.44-1.641.813-3.172 1.119-4.593.021-.102.07-.359.146-.77.059-.321.115-.58.167-.774.096-.358.299-.624.608-.798.315-.171.662-.206 1.039-.105.378.1.657.304.838.608.188.307.233.64.137.998a7.367 7.367 0 0 0-.145.73c-.066.372-.11.613-.133.722a73.7 73.7 0 0 1-.785 3.156 67.633 67.633 0 0 1-.862 2.954c1.894-1.46 4.024-2.804 6.388-4.031.4-.21.896-.539 1.488-.987.72-.548 1.202-.9 1.446-1.058.331-.531.824-.71 1.478-.534.377.101.661.298.852.592.197.296.247.626.149.99-.104.39-.277.971-.517 1.742-.239.766-.41 1.34-.513 1.723-.117.44-.302 1.102-.552 1.986-.248.877-.431 1.535-.549 1.976a67.874 67.874 0 0 1-.766 2.554 74.965 74.965 0 0 0-.758 2.567 1.22 1.22 0 0 1-.615.786 1.35 1.35 0 0 1-1.03.108c-.378-.1-.66-.305-.847-.61a1.211 1.211 0 0 1-.14-.989c.157-.585.412-1.45.766-2.595.362-1.15.621-2.014.776-2.593.112-.421.267-.973.463-1.655.248-.85.405-1.398.471-1.643Zm3.206-8.382c-.337.908-1.15 1.425-2.437 1.551-.943.098-2.003-.01-3.179-.325-.987-.265-1.777-.777-2.369-1.535-.625-.788-.825-1.6-.601-2.436a.832.832 0 0 1 .474-.56c.255-.12.536-.14.844-.057.308.082.543.24.703.471a.823.823 0 0 1 .139.725c-.082.308.01.62.276.933.265.32.605.536 1.02.647 1.647.442 2.673.35 3.077-.277.288-.449.703-.6 1.244-.455.352.094.603.266.752.515a.875.875 0 0 1 .057.803ZM24.605 44.846a1.174 1.174 0 0 1-.61.767 1.35 1.35 0 0 1-1.03.108c-.377-.101-.66-.305-.847-.611-.19-.3-.238-.623-.145-.97.101-.377.272-.937.512-1.682.241-.75.413-1.315.514-1.692.092-.346.174-.715.246-1.107-1.593 1.265-2.954 2.144-4.084 2.637-1.02.44-1.789.804-2.304 1.09-.513.281-1.005.358-1.477.232a1.78 1.78 0 0 1-.873-.517 1.054 1.054 0 0 1-.24-1.025c.446-1.667.88-3.414 1.303-5.242.434-1.899.647-2.83.637-2.791a1.21 1.21 0 0 1 .605-.789c.31-.173.659-.207 1.049-.103.704.189 1.037.67.999 1.44-.002.108-.137.726-.405 1.853l-.87 3.62c1.008-.512 2.114-1.183 3.32-2.013.282-.194 1.323-.95 3.125-2.266.596-.44 1.168-.587 1.715-.44.371.1.65.302.838.608.19.3.238.623.145.97a173.48 173.48 0 0 0-.75 2.953c-.326 1.314-.577 2.299-.752 2.953-.06.226-.164.562-.31 1.008-.147.446-.25.783-.311 1.009Zm17.726 5.083c-1.612.155-3.537-.068-5.776-.668-.377-.1-.675-.35-.892-.744-.212-.394-.27-.77-.173-1.128l2.679-10c.096-.432.194-.864.296-1.295.111-.49.236-.894.376-1.214.246-.567.893-.778 1.939-.633.515-.01 1.326.133 2.433.43 1.188.318 2.224 1.007 3.106 2.066 1.037 1.235 1.377 2.522 1.018 3.861-.194.724-.49 1.298-.887 1.724-.315.347-.792.681-1.43 1.002.53.459.951 1.05 1.263 1.774.355.81.445 1.545.268 2.205-.224.837-.892 1.507-2.005 2.01a7.121 7.121 0 0 1-2.215.61Zm.197-12.696c-.811-.217-1.3-.341-1.467-.373l-.527 2.003-.54 1.978c.554.222.979.36 1.275.412 1.964.365 3.116-.085 3.455-1.349.12-.446-.048-.953-.503-1.52-.468-.59-1.033-.974-1.693-1.15Zm-.684 6.965a75.035 75.035 0 0 1-2.548-.754l-.945 3.528c1.097.234 2.325.34 3.685.32 1.191-.017 1.83-.21 1.915-.578.11-.49-.13-1.016-.72-1.578-.46-.447-.922-.76-1.387-.938Zm9.14 8.869c-1.12-.3-2.078-.773-2.876-1.418-.846-.692-1.262-1.39-1.249-2.094.002-.107.016-.211.043-.312a1.15 1.15 0 0 1 .617-.754 1.418 1.418 0 0 1 1.049-.103c.59.158 1.06.51 1.406 1.054.346.544.906.92 1.68 1.127 1.163.312 2.023.397 2.58.257.65-.163 1.085-.657 1.306-1.48a1.7 1.7 0 0 0-.327-1.574c-.344-.45-.847-.763-1.507-.94a5.09 5.09 0 0 0-.364-.077 9.972 9.972 0 0 1-.36-.087 1.454 1.454 0 0 1-.825-.544 1.092 1.092 0 0 1-.183-.979 1.32 1.32 0 0 1 .539-.766c.273-.19.585-.27.935-.244.144.018.364.05.662.096a3.458 3.458 0 0 0 1.834-.206c.568-.232.91-.568 1.029-1.008.072-.27-.059-.6-.393-.985-.333-.393-.66-.632-.98-.718-.95-.255-1.767-.312-2.452-.172-.24.064-.478.125-.716.183-.28.066-.525.071-.733.016a1.728 1.728 0 0 1-.874-.548c-.273-.316-.36-.653-.265-1.011.206-.767.906-1.217 2.1-1.348 1.029-.116 2.232.011 3.609.38a4.82 4.82 0 0 1 2.64 1.77c.752.99.981 2.035.686 3.135-.323 1.208-1.035 2.092-2.136 2.653.83 1.105 1.064 2.33.703 3.676-.44 1.642-1.365 2.691-2.775 3.15-1.181.384-2.649.34-4.404-.13Zm12.024-2.844a11.177 11.177 0 0 1-.775-.279c-.273.87-.68 2.312-1.219 4.324-.089.333-.282.588-.579.765a1.227 1.227 0 0 1-.983.121 1.26 1.26 0 0 1-.8-.599 1.23 1.23 0 0 1-.119-.952l.706-2.631c.26-.975.71-2.401 1.348-4.28.64-1.91 1.092-3.343 1.354-4.297.445-1.634 1.113-2.294 2.007-1.98.229 0 .535.039.92.115.385.07.848.177 1.39.322 1.232.33 2.282 1.04 3.15 2.128.961 1.215 1.27 2.463.927 3.746-.432 1.61-1.413 2.719-2.944 3.326-1.356.533-2.817.59-4.383.17Zm2.38-6.996a14.236 14.236 0 0 0-.54-.134 3.486 3.486 0 0 0-.392-.085c-.08.295-.201.738-.366 1.327-.2.695-.55 1.767-1.053 3.216a5.4 5.4 0 0 0 .62.247c.982.263 1.859.249 2.63-.043.826-.311 1.348-.876 1.567-1.694.143-.534-.054-1.096-.59-1.684a3.809 3.809 0 0 0-1.876-1.15Zm9.875 16.537c-1.862-.498-3.303-1.457-4.325-2.877-1.09-1.519-1.39-3.187-.903-5.004.573-2.138 1.765-3.908 3.576-5.31 2.034-1.578 4.192-2.062 6.475-1.45 2.194.588 3.704 1.532 4.529 2.831.824 1.3.966 2.959.425 4.977-.573 2.138-1.708 3.91-3.406 5.316-1.958 1.625-4.082 2.13-6.371 1.517ZM79.4 47.68c-1.403-.376-2.786-.019-4.15 1.071-1.277 1.02-2.123 2.303-2.537 3.85-.28 1.044-.102 2.001.534 2.873.611.837 1.511 1.416 2.7 1.734 1.383.37 2.72 0 4.008-1.11 1.18-1.011 1.982-2.306 2.405-3.885.354-1.32.305-2.317-.148-2.992-.435-.642-1.372-1.156-2.812-1.541Zm17.14 6.402c-.566-.152-.904-.563-1.015-1.233-.05-.316-.13-.52-.24-.61-.083-.07-.326-.158-.728-.266-.793-.212-1.873.16-3.24 1.114-1.915 1.334-3.073 2.752-3.476 4.255a2.579 2.579 0 0 0 .216 1.948c.327.614.812 1.006 1.453 1.178.623.167 1.299.173 2.028.018.258-.059.819-.239 1.681-.54.579-.196.993-.26 1.245-.193.377.101.66.326.85.673.177.324.22.652.131.986-.1.37-.35.65-.75.84-2.121.995-4.077 1.253-5.87.773-1.414-.38-2.471-1.215-3.17-2.508-.664-1.243-.816-2.537-.455-3.883.564-2.107 2.062-4.01 4.492-5.711 2.065-1.442 3.915-1.944 5.55-1.506.276.074.522.15.737.228.222.08.412.16.572.244.35-.196.719-.242 1.108-.138.642.172.94.646.893 1.422a9.742 9.742 0 0 1-.335 1.892 1.503 1.503 0 0 1-.503.785c-.33.276-.722.353-1.174.232Zm10.496 13.802c-.868-.233-1.127-1-.779-2.301.149-.554.381-1.384.699-2.493.318-1.114.552-1.948.7-2.501.16-.598.369-1.441.628-2.531.28-1.172.489-2.013.625-2.522a76.366 76.366 0 0 1-2.697-.763 61.465 61.465 0 0 0-1.94-.57 16.672 16.672 0 0 0-.531-.133c-.14.825-.344 1.738-.612 2.738a88.007 88.007 0 0 1-.742 2.541 103.633 103.633 0 0 0-.729 2.534c-.368 1.371-.887 2.317-1.559 2.838-.81.632-1.941.754-3.394.365a1.35 1.35 0 0 1-.838-.61 1.227 1.227 0 0 1-.137-.996c.135-.504.382-.798.742-.883.15-.034.537-.018 1.16.048.303.027.538-.021.706-.145.285-.207.517-.647.697-1.32.152-.565.395-1.41.73-2.534.343-1.128.59-1.975.742-2.54.345-1.29.577-2.431.694-3.424a1.27 1.27 0 0 1 .004-.656c.093-.346.295-.609.606-.788.311-.18.652-.22 1.023-.12.232.062.577.171 1.034.327.465.152.817.26 1.056.324l5.962 1.597c.364.098.646.305.844.62.205.318.26.653.166 1.005-.33 1.233-.802 3.095-1.416 5.586a316.674 316.674 0 0 1-1.416 5.586c-.377 1.408-1.053 1.982-2.028 1.721Zm7.925 2.043c-.296-.08-.698-.2-1.207-.364-.584-.184-.986-.308-1.204-.373-.148 0-.292-.018-.43-.055-.925-.248-1.213-1.02-.866-2.315.045-.17.232-.69.559-1.559.436-1.15.793-2.24 1.069-3.272.19-.71.417-1.721.681-3.032.272-1.316.503-2.33.693-3.04.271-1.012.847-1.4 1.728-1.165.44.118.753.347.938.687.167.307.201.646.101 1.017-.242.906-.526 2.165-.85 3.776.331.075.603.142.817.199 1.999.536 3.392 1.226 4.177 2.07.989 1.06 1.234 2.524.734 4.392-.425 1.585-1.321 2.615-2.689 3.09-1.168.41-2.585.39-4.251-.056Zm1.772-6.916a19.272 19.272 0 0 0-1.192-.269 9.685 9.685 0 0 1-.104.427c-.184.686-.605 1.968-1.263 3.847a71.48 71.48 0 0 0 1.457.41c2.056.552 3.269.139 3.638-1.238.256-.956.164-1.668-.277-2.137-.355-.385-1.108-.732-2.259-1.04Zm14.844-.724c-.327-.088-1.2-.416-2.618-.984-.398 1.133-.854 2.659-1.368 4.577l-1.144 4.233c.841.205 1.696.424 2.564.656.377.101.654.31.832.628.184.319.229.654.135 1.007-.094.352-.301.62-.62.804-.311.18-.655.219-1.032.118a68.11 68.11 0 0 0-1.593-.397 101.79 101.79 0 0 1-1.589-.405c-.415-.112-1.052-.225-1.911-.34-.861-.11-1.498-.22-1.913-.331a1.342 1.342 0 0 1-.845-.62 1.292 1.292 0 0 1-.125-1.005c.094-.352.298-.621.61-.807a1.326 1.326 0 0 1 1.045-.124c.427.114 1.003.218 1.726.31.186-.745.561-2.168 1.124-4.268a62.72 62.72 0 0 1 1.5-4.845L124.294 60a1.377 1.377 0 0 1-.854-.623 1.268 1.268 0 0 1-.132-1.017c.099-.37.306-.639.62-.804.29-.151.609-.197.957-.138.566.098 1.535.33 2.906.698 1.233.33 2.785.888 4.658 1.673.745.314 1.015.851.811 1.612-.108.403-.35.678-.727.827-.31.126-.628.145-.955.057Zm15.283 2.953c-1.084.727-1.938 1.347-2.561 1.861-.665.57-1.704 1.38-3.118 2.43.415 1.096.828 2.194 1.241 3.295.491 1.284.954 2.362 1.388 3.233.162.327.202.64.121.943-.094.352-.311.62-.65.806a1.351 1.351 0 0 1-1.047.134c-.623-.167-1.245-1.102-1.867-2.805a88.62 88.62 0 0 0-.759-2.185c-.167-.436-.42-1.087-.761-1.953-1.008.667-2.277 1.48-3.808 2.437-.491.327-1.24.793-2.245 1.4-.348.19-.701.237-1.059.141a1.381 1.381 0 0 1-.849-.642 1.237 1.237 0 0 1-.163-1.014c.081-.302.265-.55.553-.742.491-.3 1.226-.753 2.204-1.36 1.07-.67 2.508-1.6 4.316-2.787-.42-.975-.874-1.96-1.362-2.953-.04-.078-.276-.633-.707-1.665-.284-.676-.57-1.205-.859-1.585-.281-.386-.369-.773-.265-1.163.09-.333.295-.598.618-.795.33-.202.687-.25 1.07-.148.34.091.723.45 1.148 1.076.308.46.546.904.714 1.334.17.423.426 1.037.77 1.844.42.847.815 1.698 1.186 2.552 1.072-.832 2.141-1.664 3.207-2.497 1.624-1.183 2.66-1.714 3.106-1.594.365.097.648.311.849.642.203.324.258.662.163 1.014-.079.295-.27.544-.574.746Z" fill="#131441"/></svg>