<svg width="102" height="115" fill="none" xmlns="http://www.w3.org/2000/svg"><path d="M88.632 63.225a1 1 0 1 0-1.264 1.55l1.264-1.55ZM61 109l10.38 5.059-.809-11.519L61 109Zm5.622.605a1 1 0 0 0-.285-1.98l.285 1.98Zm9.843-5.173a1 1 0 0 0 .916 1.778l-.916-1.778Zm9.883-5.075a1 1 0 1 0-1.474-1.351l1.474 1.351Zm4.244-10.276a1 1 0 1 0 1.843.776l-1.843-.776Zm4.289-10.26a1 1 0 1 0-2-.05l2 .05Zm-4.253-10.134a1 1 0 0 0 1.743-.98l-1.743.98ZM77.38 106.21a32.073 32.073 0 0 0 8.967-6.853l-1.474-1.351a30.061 30.061 0 0 1-8.41 6.426l.917 1.778Zm15.054-16.353c1.53-3.633 2.354-7.418 2.446-11.035l-2-.051c-.085 3.353-.85 6.894-2.289 10.31l1.843.776Zm-.064-22.15c-.962-1.713-2.207-3.234-3.74-4.482l-1.263 1.55c1.325 1.08 2.411 2.402 3.26 3.912l1.743-.98ZM22.013 18.827a3.175 3.175 0 0 0-.058.296 3.389 3.389 0 0 1-.06.302.859.859 0 0 1-.432.556.953.953 0 0 1-.728.074c-.4-.107-.629-.345-.686-.714-.035-.236.005-.572.122-1.008.042-.158.113-.37.213-.636-.542-.145-1.546-.405-3.012-.779a399.466 399.466 0 0 1-3.003-.783c-.173.595-.28.965-.319 1.11a.859.859 0 0 1-.432.557.93.93 0 0 1-.72.075.953.953 0 0 1-.594-.427.87.87 0 0 1-.09-.697c.053-.193.135-.483.248-.868.112-.385.194-.674.246-.868.005-.14.01-.221.016-.243.12-.45.514-.65 1.18-.604 1.37-1.624 2.356-3.559 2.957-5.804.044-.162.081-.407.112-.734.037-.33.074-.567.113-.713.156-.58.653-.764 1.492-.548l3.358.885 1.034.235c.16-.037.325-.033.492.011.264.071.462.214.593.428a.859.859 0 0 1 .096.698c-.119.445-.29 1.111-.514 2-.223.884-.393 1.546-.511 1.986-.2.748-.563 2.003-1.087 3.764l.046.04c.385.236.52.571.403 1.007a8.31 8.31 0 0 1-.238.701 8.385 8.385 0 0 0-.237.7Zm.027-9.66a37.907 37.907 0 0 1-.99-.266 78.413 78.413 0 0 0-.988-.278 53.297 53.297 0 0 0-1.213-.304l-.154.574c-.238.885-.602 1.856-1.092 2.913-.542 1.158-1.093 2.097-1.655 2.82.308.082.8.2 1.477.353.644.149 1.138.27 1.481.361.295.08.735.209 1.319.389.109-.39.285-.987.529-1.79.23-.75.406-1.357.53-1.819.046-.171.297-1.156.756-2.953Zm7.636 11.196a.968.968 0 0 1-.595-.42.84.84 0 0 1-.093-.684c.036-.132.073-.315.113-.55.043-.267.075-.45.097-.547.076-.338.185-.772.326-1.3.052-.194.257-.922.614-2.185a7.507 7.507 0 0 1-.62-.138 53.818 53.818 0 0 1-1.867-.536l-.332 1.291c-.357 1.334-.717 2.255-1.08 2.761-.54.752-1.273 1.004-2.198.756-.37-.099-.68-.262-.93-.49-.334-.302-.45-.646-.346-1.034a.818.818 0 0 1 .375-.5.829.829 0 0 1 .665-.078c.096.026.218.092.364.197.147.106.257.168.332.188.3.08.6-.445.904-1.576.086-.322.19-.808.313-1.46.127-.65.234-1.135.32-1.456.07-.26.22-.442.45-.545.23-.103.478-.12.742-.049.114.03.267.077.459.137l.453.157c.475.146 1.087.32 1.835.52.163.044.413.08.75.109.336.029.588.066.756.11.664.178.922.547.772 1.106-.096.357-.246.89-.45 1.6-.199.706-.345 1.235-.44 1.587-.134.502-.239.92-.314 1.253-.024.107-.06.303-.108.587a5.597 5.597 0 0 1-.112.579.829.829 0 0 1-.429.543.968.968 0 0 1-.726.067Zm6.945 1.84c-.26-.07-.46-.208-.603-.416a.796.796 0 0 1-.13-.7c.032-.124.126-.51.28-1.157-.759.07-1.832.415-3.22 1.034-.246.109-.49.13-.733.066a1.077 1.077 0 0 1-.614-.427.809.809 0 0 1-.126-.692c.11-.414.895-.822 2.352-1.224-.806-.707-1.12-1.394-.94-2.064.273-1.02 1.217-1.657 2.832-1.909.665-.104 1.526-.015 2.582.268.309.082.536.254.683.515.153.258.19.53.114.816a88.11 88.11 0 0 0-.645 2.644 78.843 78.843 0 0 1-.638 2.646.796.796 0 0 1-.455.536 1.051 1.051 0 0 1-.739.064ZM37 16.41c-.35-.07-.752-.048-1.207.066-.526.133-.847.344-.962.634.096.346.322.62.68.819.224.13.574.258 1.05.38.088-.415.234-1.048.439-1.899Zm16.867 10.953a3.206 3.206 0 0 0-.058.296 3.4 3.4 0 0 1-.06.302.859.859 0 0 1-.432.556.954.954 0 0 1-.728.075c-.4-.108-.629-.346-.686-.715-.035-.236.005-.572.122-1.008.042-.158.113-.37.213-.636-.542-.145-1.546-.405-3.012-.779a397.994 397.994 0 0 1-3.003-.784c-.173.596-.28.966-.319 1.111a.859.859 0 0 1-.432.557.93.93 0 0 1-.72.075.954.954 0 0 1-.594-.427.87.87 0 0 1-.09-.697c.053-.193.135-.483.248-.868.112-.385.194-.674.246-.868.005-.14.01-.221.016-.243.12-.45.514-.65 1.18-.604 1.37-1.624 2.356-3.559 2.957-5.804.044-.163.081-.407.112-.734.036-.33.074-.568.113-.713.156-.58.653-.764 1.492-.548l3.358.885 1.034.235c.16-.037.325-.033.492.011.264.071.462.214.593.428a.859.859 0 0 1 .096.698c-.119.445-.29 1.111-.514 2-.223.884-.393 1.546-.511 1.986-.2.748-.563 2.003-1.087 3.764l.046.04c.385.236.52.571.402 1.007a8.31 8.31 0 0 1-.237.7 8.384 8.384 0 0 0-.237.702Zm.026-9.66a37.753 37.753 0 0 1-.99-.266 78.45 78.45 0 0 0-.987-.279 53.529 53.529 0 0 0-1.213-.303l-.154.574c-.238.885-.602 1.856-1.093 2.913-.54 1.157-1.092 2.097-1.654 2.82.308.082.8.2 1.477.353.644.149 1.138.27 1.481.361.295.08.734.209 1.319.389.109-.39.285-.987.529-1.79.229-.75.406-1.357.53-1.819.045-.171.297-1.156.755-2.954Zm10.146 2.52a1.091 1.091 0 0 1-.267-.114 8.2 8.2 0 0 0-2.002-.848 7.996 7.996 0 0 0-1.084-.206 12.298 12.298 0 0 0-1.272-.086c-.157.586-.41 1.45-.758 2.593.25.048 1.133.197 2.647.447.863.142 1.407.243 1.631.303.26.07.46.213.6.43.141.212.175.454.102.727-.14.524-.5.747-1.077.667-.36-.068-.897-.165-1.614-.29-.644-.098-1.609-.264-2.895-.5-.18.55-.317.998-.409 1.34-.231.864-.312 1.368-.242 1.514.033.07.302.173.808.309.273.073.687.177 1.24.31.554.135.968.239 1.24.312.089.023.222.045.4.065.18.02.31.04.395.063.255.068.453.2.595.393.163.218.205.475.126.77-.132.493-.468.719-1.01.677-.462-.034-1.387-.237-2.773-.608-1.435-.385-2.319-.83-2.651-1.333-.365-.556-.358-1.545.023-2.967.158-.59.437-1.463.837-2.62.405-1.16.687-2.034.843-2.62.042-.153.08-.386.117-.697.037-.316.076-.55.118-.705.179-.669.577-.92 1.193-.755a.967.967 0 0 1 .49.308c.545.009 1.055.044 1.53.105.48.058.924.142 1.333.251 1.11.298 1.962.663 2.559 1.096.363.263.49.597.382 1.002a.912.912 0 0 1-.4.544.883.883 0 0 1-.755.123Zm9.54 3.143c-.344-.092-.872-.26-1.585-.502a22.15 22.15 0 0 0-1.587-.496 75.232 75.232 0 0 0-.54 2.729c-.212 1.16-.406 2.07-.583 2.73-.04.15-.085.377-.133.68-.048.303-.092.53-.132.68a1.93 1.93 0 0 1-.45.834c-.272.29-.575.391-.91.301a1.005 1.005 0 0 1-.578-.402.835.835 0 0 1-.137-.73c.017-.062.053-.152.108-.269.056-.122.093-.216.11-.282.055-.202.121-.512.2-.93.083-.416.153-.728.208-.935.158-.59.326-1.401.504-2.434.204-1.186.357-2.002.457-2.446l-.343-.092c-.982-.263-1.742-.543-2.281-.838-.457-.25-.624-.604-.501-1.061a.928.928 0 0 1 .4-.544.853.853 0 0 1 .804-.096c.152.05.492.181 1.02.393.423.166.769.284 1.037.356.269.072.67.175 1.206.309.539.135.943.239 1.211.31.335.09.83.249 1.487.477.657.223 1.153.38 1.487.469a.94.94 0 0 1 .592.434.87.87 0 0 1 .1.707.892.892 0 0 1-.442.568.94.94 0 0 1-.73.08Zm8.328 1.645a1.09 1.09 0 0 1-.267-.115 8.202 8.202 0 0 0-2.002-.847 7.978 7.978 0 0 0-1.084-.206 12.324 12.324 0 0 0-1.272-.086c-.157.585-.41 1.45-.759 2.592.251.049 1.134.198 2.647.448.864.141 1.408.242 1.632.302.26.07.46.213.6.43.141.213.175.455.102.728-.14.524-.5.746-1.078.667-.359-.068-.897-.165-1.613-.291-.644-.097-1.609-.264-2.895-.5-.18.551-.317.998-.409 1.341-.231.863-.312 1.368-.243 1.514.033.07.303.173.81.308.272.073.686.177 1.24.311.553.135.966.238 1.24.311.087.024.22.046.4.065.178.02.31.04.393.063.255.069.454.2.596.393.163.219.205.475.126.77-.132.493-.469.72-1.01.678-.462-.034-1.387-.237-2.774-.609-1.435-.384-2.318-.829-2.65-1.333-.366-.555-.358-1.544.023-2.966.158-.59.437-1.463.837-2.62.405-1.161.686-2.034.843-2.62.041-.154.08-.386.116-.697.038-.316.077-.55.118-.705.18-.669.577-.921 1.194-.756a.969.969 0 0 1 .49.309c.545.009 1.055.044 1.529.105.48.058.925.141 1.334.251 1.11.297 1.962.663 2.558 1.096.364.263.492.596.383 1.001a.912.912 0 0 1-.4.544.883.883 0 0 1-.755.123Zm8.13 4.28c-.581.306-1.427.804-2.536 1.493-.882.632-1.86 1.38-2.937 2.242-.302.25-.76.62-1.373 1.111-.297.227-.593.301-.888.222-.295-.079-.51-.233-.647-.463a.889.889 0 0 1-.065-.76c.832-2.49 1.287-3.879 1.363-4.165.308-1.149.57-2.22.784-3.215.015-.072.049-.251.102-.539.041-.225.08-.405.117-.542a.87.87 0 0 1 .426-.558.953.953 0 0 1 .727-.074.93.93 0 0 1 .587.426.858.858 0 0 1 .096.698 5.16 5.16 0 0 0-.102.51c-.046.262-.077.43-.093.507a52.537 52.537 0 0 1-.55 2.209c-.188.704-.39 1.393-.603 2.067a29.72 29.72 0 0 1 4.471-2.821 7.92 7.92 0 0 0 1.042-.69c.504-.385.841-.631 1.012-.741.232-.372.577-.497 1.035-.374.264.07.463.209.596.414a.815.815 0 0 1 .105.694c-.073.272-.194.679-.362 1.219-.168.535-.287.937-.36 1.206-.082.308-.21.771-.386 1.39a109.76 109.76 0 0 0-.384 1.383c-.108.4-.286.996-.536 1.788a53.154 53.154 0 0 0-.531 1.797.85.85 0 0 1-.43.55.945.945 0 0 1-.721.076.954.954 0 0 1-.594-.428.85.85 0 0 1-.097-.692c.11-.409.288-1.014.536-1.816.253-.805.434-1.41.543-1.815.079-.295.187-.681.324-1.159.174-.595.284-.978.33-1.15Zm2.245-5.867c-.236.635-.805.997-1.706 1.086-.66.068-1.402-.008-2.225-.229-.691-.185-1.244-.543-1.658-1.074-.438-.551-.578-1.12-.42-1.705a.583.583 0 0 1 .33-.392.837.837 0 0 1 .592-.04c.215.058.38.168.492.33a.576.576 0 0 1 .097.507c-.058.216.007.434.193.654.185.224.423.375.714.453 1.153.309 1.871.244 2.154-.195.202-.313.492-.42.87-.318.247.066.423.186.527.36a.613.613 0 0 1 .04.563ZM9.19 31.688a.822.822 0 0 1-.427.537.945.945 0 0 1-.721.076.954.954 0 0 1-.593-.428.822.822 0 0 1-.102-.678c.071-.265.19-.657.359-1.178.169-.526.289-.92.36-1.185.064-.242.122-.5.172-.775-1.115.886-2.068 1.501-2.859 1.846-.715.309-1.252.563-1.613.764-.359.196-.704.25-1.034.161a1.245 1.245 0 0 1-.61-.361.738.738 0 0 1-.17-.718c.313-1.166.617-2.39.913-3.67l.446-1.953a.848.848 0 0 1 .424-.552c.216-.121.46-.145.734-.072.493.132.726.468.7 1.008-.002.075-.097.508-.285 1.297l-.608 2.534c.705-.359 1.48-.828 2.324-1.409.197-.136.926-.665 2.187-1.586.418-.308.818-.411 1.201-.309.26.07.455.212.587.426.132.21.166.437.1.679-.122.457-.297 1.147-.525 2.067-.227.92-.403 1.61-.525 2.067-.043.159-.115.394-.218.706-.102.312-.175.548-.217.706Zm12.408 3.558c-1.128.109-2.476-.047-4.043-.467-.264-.07-.473-.245-.625-.521-.148-.276-.188-.54-.121-.79l1.875-7c.067-.302.137-.604.208-.906.078-.343.165-.626.263-.85.172-.397.625-.545 1.357-.443.36-.007.928.093 1.703.3.832.224 1.557.706 2.175 1.447.726.864.963 1.766.712 2.703-.136.506-.343.909-.62 1.207-.221.243-.555.476-1.002.7.371.322.666.736.884 1.243.25.567.312 1.081.188 1.544-.157.585-.625 1.054-1.403 1.407a4.987 4.987 0 0 1-1.551.426Zm.138-8.887c-.568-.152-.91-.239-1.027-.26l-.369 1.4-.378 1.386c.388.155.685.252.892.288 1.376.256 2.182-.06 2.419-.944.084-.313-.034-.667-.352-1.064-.328-.413-.723-.682-1.185-.806Zm-.479 4.876c-.4-.108-.995-.284-1.783-.528l-.662 2.47c.768.163 1.628.238 2.58.224.833-.013 1.28-.148 1.34-.406.077-.342-.09-.71-.504-1.104-.322-.313-.646-.532-.97-.656Zm6.398 6.208c-.784-.21-1.455-.541-2.013-.993-.592-.484-.884-.972-.874-1.465a.894.894 0 0 1 .03-.219.805.805 0 0 1 .432-.528.993.993 0 0 1 .734-.072c.414.11.742.357.984.738.242.38.634.644 1.175.789.815.218 1.417.278 1.807.18.455-.114.76-.46.914-1.036a1.19 1.19 0 0 0-.228-1.102c-.242-.315-.593-.534-1.056-.658a3.558 3.558 0 0 0-.254-.054 7.111 7.111 0 0 1-.253-.06 1.018 1.018 0 0 1-.577-.382.765.765 0 0 1-.128-.685.925.925 0 0 1 .377-.536.984.984 0 0 1 .655-.171c.1.013.255.035.463.067a2.42 2.42 0 0 0 1.284-.144c.398-.162.638-.398.72-.706.05-.19-.04-.419-.275-.69-.233-.274-.462-.442-.686-.502-.665-.178-1.237-.218-1.716-.12-.168.045-.335.087-.502.128a1.05 1.05 0 0 1-.512.011 1.21 1.21 0 0 1-.612-.383c-.191-.221-.253-.457-.186-.708.144-.537.634-.852 1.47-.944.72-.08 1.562.008 2.527.267a3.374 3.374 0 0 1 1.847 1.238c.527.693.687 1.425.48 2.195-.226.845-.724 1.464-1.495 1.857.581.774.745 1.631.493 2.573-.308 1.15-.956 1.884-1.943 2.205-.827.269-1.854.239-3.082-.09Zm8.417-1.991a7.829 7.829 0 0 1-.542-.195c-.192.61-.476 1.618-.854 3.027a.86.86 0 0 1-.405.535.859.859 0 0 1-.688.085.88.88 0 0 1-.56-.42.86.86 0 0 1-.083-.666l.493-1.842c.183-.682.498-1.68.944-2.995.448-1.338.764-2.34.948-3.009.311-1.143.78-1.605 1.405-1.386.16 0 .375.028.643.08.27.05.595.125.973.226.863.231 1.598.728 2.206 1.49.673.85.89 1.724.648 2.622-.302 1.127-.988 1.903-2.06 2.329-.95.373-1.972.413-3.068.119Zm1.666-4.897a9.945 9.945 0 0 0-.378-.094 2.435 2.435 0 0 0-.274-.06c-.056.207-.141.517-.256.93-.14.486-.386 1.236-.738 2.25.215.096.36.154.435.174.686.184 1.3.174 1.84-.03.578-.218.944-.614 1.097-1.186.1-.374-.038-.767-.413-1.18a2.667 2.667 0 0 0-1.313-.804Zm6.912 11.576c-1.303-.349-2.312-1.02-3.027-2.014-.762-1.063-.973-2.23-.633-3.503.402-1.497 1.236-2.736 2.504-3.717 1.424-1.105 2.934-1.443 4.532-1.015 1.537.412 2.593 1.073 3.17 1.982.578.91.677 2.07.299 3.484a7.104 7.104 0 0 1-2.385 3.72c-1.37 1.138-2.858 1.492-4.46 1.063Zm2.897-8.46c-.982-.262-1.95-.012-2.905.751a5.04 5.04 0 0 0-1.776 2.695c-.196.73-.071 1.4.374 2.01.428.587 1.058.992 1.89 1.215.968.26 1.903 0 2.805-.777.827-.708 1.388-1.615 1.684-2.72.248-.924.213-1.622-.104-2.094-.304-.45-.96-.81-1.968-1.08Zm11.998 4.482c-.397-.106-.633-.393-.71-.862-.035-.222-.092-.364-.169-.428-.058-.048-.227-.11-.51-.186-.554-.148-1.31.111-2.267.78-1.34.933-2.152 1.926-2.433 2.978-.129.48-.079.935.15 1.364.23.43.57.705 1.018.825.436.117.91.12 1.42.012.18-.041.573-.167 1.177-.378.404-.137.695-.182.87-.135.265.071.463.228.596.471a.906.906 0 0 1 .092.69c-.07.26-.245.456-.526.588-1.484.697-2.854.877-4.108.541-.99-.265-1.73-.85-2.22-1.755-.464-.87-.57-1.776-.318-2.718.395-1.475 1.443-2.807 3.145-3.998 1.445-1.01 2.74-1.36 3.884-1.054.194.052.366.105.517.16.154.055.288.112.4.17a1 1 0 0 1 .776-.096c.449.12.657.452.625.995-.025.39-.103.832-.235 1.325-.059.22-.176.403-.352.55-.231.192-.505.246-.822.161Zm7.347 9.662c-.607-.163-.789-.7-.545-1.611.104-.388.267-.97.489-1.745.223-.78.386-1.363.49-1.75a66.67 66.67 0 0 0 .44-1.773c.196-.82.342-1.408.437-1.765l-.528-.141a53.434 53.434 0 0 1-1.36-.393 42.755 42.755 0 0 0-1.358-.4c-.11-.029-.234-.06-.371-.092a21.176 21.176 0 0 1-.429 1.916c-.106.397-.279.99-.519 1.78a72.553 72.553 0 0 0-.51 1.773c-.258.96-.621 1.622-1.092 1.987-.567.442-1.359.527-2.376.255a.945.945 0 0 1-.586-.426.859.859 0 0 1-.096-.698c.094-.352.267-.559.52-.618.105-.024.376-.013.811.033.212.02.377-.014.495-.1.199-.146.361-.454.488-.925.106-.396.276-.987.51-1.774.24-.79.413-1.382.52-1.778.241-.903.403-1.702.486-2.397a.886.886 0 0 1 .003-.459.876.876 0 0 1 .423-.551.908.908 0 0 1 .717-.085c.163.044.404.12.724.23.325.106.572.181.739.226l4.173 1.118a.97.97 0 0 1 .591.435.844.844 0 0 1 .116.703c-.231.863-.561 2.166-.991 3.91-.43 1.744-.76 3.047-.991 3.91-.264.986-.738 1.388-1.42 1.205Zm5.548 1.43c-.207-.056-.489-.14-.845-.255-.41-.129-.69-.216-.843-.261-.104 0-.204-.013-.301-.038-.647-.174-.85-.714-.606-1.62.031-.12.162-.483.391-1.092a23.99 23.99 0 0 0 .748-2.29c.134-.498.293-1.206.477-2.123.19-.921.352-1.63.485-2.128.19-.709.593-.98 1.21-.815.308.082.527.242.656.48.117.215.14.453.071.712a45.37 45.37 0 0 0-.595 2.644c.232.052.422.098.572.139 1.4.375 2.374.858 2.924 1.448.692.743.864 1.767.513 3.075-.297 1.11-.924 1.83-1.882 2.164-.817.286-1.809.272-2.975-.04Zm1.24-4.841c-.216-.058-.494-.12-.834-.189a6.53 6.53 0 0 1-.073.3c-.129.48-.423 1.377-.885 2.692.412.12.752.216 1.02.288 1.44.386 2.289.096 2.547-.868.18-.669.115-1.167-.194-1.495-.248-.27-.775-.512-1.58-.728Zm10.39-.507c-.228-.061-.84-.291-1.832-.69-.278.794-.598 1.862-.957 3.205l-.801 2.963c.589.144 1.187.297 1.794.46.264.07.459.217.583.439.13.223.16.458.095.704a.895.895 0 0 1-.434.564.917.917 0 0 1-.723.082 46.666 46.666 0 0 0-1.115-.278 69.851 69.851 0 0 1-1.113-.283c-.29-.078-.736-.158-1.337-.239-.602-.076-1.049-.153-1.34-.231a.94.94 0 0 1-.59-.435.906.906 0 0 1-.088-.702.906.906 0 0 1 .427-.565.927.927 0 0 1 .731-.087c.3.08.702.152 1.209.217.13-.522.392-1.518.786-2.988.321-1.197.671-2.328 1.05-3.392l-1.443-.344a.963.963 0 0 1-.598-.436.888.888 0 0 1-.092-.711.853.853 0 0 1 .434-.563c.203-.106.426-.139.67-.097.396.069 1.075.232 2.034.489.863.23 1.95.621 3.26 1.17.522.22.711.597.568 1.13a.813.813 0 0 1-.508.578c-.218.088-.44.101-.67.04Zm10.7 2.067a23.35 23.35 0 0 0-1.794 1.303c-.465.399-1.193.966-2.182 1.701.29.767.58 1.535.868 2.306.344.9.668 1.654.972 2.264a.916.916 0 0 1 .085.66.886.886 0 0 1-.456.564.945.945 0 0 1-.733.093c-.435-.116-.87-.77-1.306-1.963a62.973 62.973 0 0 0-.532-1.53c-.116-.305-.294-.76-.532-1.367a129.51 129.51 0 0 1-2.665 1.706c-.345.229-.869.556-1.572.98a.971.971 0 0 1-.742.1.968.968 0 0 1-.594-.45.865.865 0 0 1-.114-.71.894.894 0 0 1 .387-.52c.344-.21.858-.527 1.543-.952.749-.47 1.756-1.12 3.02-1.95a44.764 44.764 0 0 0-.953-2.068 51.167 51.167 0 0 1-.494-1.165c-.199-.474-.4-.843-.602-1.11-.196-.27-.258-.541-.185-.814a.917.917 0 0 1 .432-.556.924.924 0 0 1 .75-.104c.238.064.505.315.803.753.216.322.382.633.5.934.119.296.299.726.539 1.29.294.594.57 1.19.83 1.787.75-.582 1.5-1.165 2.245-1.748 1.137-.828 1.862-1.2 2.175-1.116a.969.969 0 0 1 .594.45c.142.227.18.463.114.71-.055.207-.19.38-.402.522Z" fill="#131441"/></svg>