<svg width="586" height="539" fill="none" xmlns="http://www.w3.org/2000/svg"><path fill-rule="evenodd" clip-rule="evenodd" d="M392.984 71.28c-3.316.276-5.622.774-10.769 2.324-10.585 3.188-20.374 8.567-27.517 15.122-3 2.752-3.314 3.142-4.908 6.07-1.878 3.455-3.895 8.553-4.166 10.533-.17 1.234-.16 1.255.272.639l.447-.639-.157.766c-.086.421-.342 1.915-.569 3.319-.228 1.403-.571 3.188-.763 3.966-.41 1.662-.205 2.611.748 3.458.577.513.978.616 2.402.616h1.708l-.158 1.596c-.087.877-.291 1.671-.451 1.764-.161.093-.881.247-1.6.343-1.726.23-3.863 1.213-4.578 2.106-.77.961-.941 2.086-.69 4.529l.209 2.042.67-1.531c1.79-4.1 1.625-4.019 8.224-4.057 2.69-.015 7.668.03 11.064.1 5.983.124 6.214.11 7.493-.45.732-.321 1.468-.866 1.651-1.225.364-.708.412-6.201.065-7.259-.173-.524-.402-.095-1.286 2.397l-1.077 3.036-3.926-.228c-2.159-.125-6.284-.227-9.166-.227h-5.241v-.813c0-.448-.126-1.108-.279-1.468-.234-.546-.198-.656.215-.66 3.215-.033 12.959-1.269 16.289-2.066 1.105-.265 2.573-.613 3.263-.774.822-.192 1.118-.359.861-.483-.903-.44-6.805-.756-14.114-.756l-7.814-.001-.669-3.254c-1.442-7.007-1.419-6.476-.345-7.964l.947-1.312.532.778c.677.989 2.127 1.083 3.062.198.902-.854 2.833-4.667 3.577-7.065.622-2.005.728-2.155 2.503-3.542 1.019-.797 1.736-1.277 1.594-1.067a99.58 99.58 0 0 1-1.493 2.024c-1.971 2.621-2.517 4.1-2.524 6.826-.004 2.146.055 2.398.713 3.032.845.815 2.245 1.393 3.365 1.389 1.2-.003 3.59-1.091 4.491-2.043 1.239-1.309 2.857-4.401 4.204-8.037 1.509-4.072 3.428-8.544 4.396-10.241.759-1.33 1.3-1.644 6.229-3.61 1.867-.746 8.89-2.753 10.503-3.003l1.127-.174-1.292.75c-2.986 1.733-6.243 5.523-9.057 10.535-2.227 3.968-6.701 9.812-7.185 9.385-.116-.103-.06-1.022.125-2.042.365-2.005 1.903-5.116 3.526-7.133 1.851-2.3 6.207-7.234 6.812-7.716 1.64-1.308-.089-.769-2.836.884-5.789 3.482-10.079 8.117-11.92 12.876-.641 1.657-.9 5.62-.447 6.84.748 2.013 3.356 3.115 5.686 2.401 1.852-.567 2.743-1.367 5.19-4.659 2.921-3.93 3.711-5.34 5.353-9.561 1.874-4.816 4.099-8.79 5.903-10.545 2.256-2.194 2.901-2.46 6.659-2.736 3.724-.273 10.476-.318 12.101-.08l1.103.163-1.964.559c-5.209 1.482-9.65 4.51-12.929 8.811-1.51 1.982-2.703 4.333-3.991 7.867-1.242 3.406-2.578 5.703-3.601 6.19-.459.218-.538.163-.538-.376 0-.966.804-3.833 1.605-5.727 1.93-4.559 6.597-10.454 11.996-15.154l1.111-.966-1.254.392c-3.174.993-7.304 3.731-10.457 6.933-2.945 2.99-4.205 4.682-6.02 8.08-1.752 3.282-2.244 4.922-2.245 7.49-.001 1.548.115 1.994.739 2.831 1.487 1.997 4.844 2.478 7.576 1.085 2.803-1.43 4.444-4.03 6.165-9.772.64-2.135 1.539-4.748 1.998-5.806 1.933-4.455 5.94-8.874 10.29-11.347 2.085-1.186 2.152-1.204 3.877-1.047 10.589.958 16.419 1.958 24.583 4.218 6.655 1.843 17.38 4.053 27.095 5.584 3.868.61 3.726.43-1.538-1.948-4.195-1.896-9.637-3.605-17.66-5.546a444.653 444.653 0 0 1-7.179-1.792c-4.691-1.248-14.082-3.226-18.174-3.828-8.766-1.289-20.178-1.747-27.77-1.116Zm27.651 7.751c-7.542 1.846-15.323 9.446-17.924 17.508-1.395 4.322-.624 6.721 2.587 8.05 3.468 1.435 7.058.136 9.471-3.43.539-.795 1.906-3.513 3.039-6.04 2.694-6.01 3.964-8.295 5.815-10.459 1.934-2.262 3.987-3.53 7.259-4.485l2.59-.756-2.871.097c-4.453.15-7.185 1.287-10.67 4.443-2.604 2.358-5.052 5.706-7.473 10.22-2.111 3.938-3.46 5.662-4.428 5.662-1.45 0 1.291-7.425 4.274-11.576 2.542-3.537 6.965-7.392 10.041-8.75.829-.365 1.508-.709 1.508-.762 0-.205-1.924-.039-3.218.278Zm16.714 4.842c-4.431.722-7.343 2.07-10.496 4.861-1.33 1.177-2.709 2.696-3.246 3.577-1.292 2.12-3.358 6.849-3.765 8.615-.907 3.946 2.363 6.885 8.094 7.275 1.683.115 2.129.044 3.492-.548 2.254-.98 3.344-2.216 5.801-6.577 4.013-7.123 6.392-9.654 10.888-11.581 2.639-1.132 4.858-1.631 7.447-1.676 3.019-.053 3.075-.356.163-.88-6.737-1.21-12.236.147-17.026 4.204-2.81 2.38-3.684 3.449-6.067 7.422-1.052 1.755-2.347 3.555-2.877 3.999-.868.729-1.067.788-2.022.597a15.737 15.737 0 0 1-1.929-.533c-.827-.304-.861-.374-.696-1.448.096-.62.822-2.582 1.614-4.36 2.244-5.04 4.759-7.668 9.104-9.511 1.847-.784 10.074-2.783 11.451-2.783.382 0 .695-.1.695-.223 0-.606-7.645-.915-10.625-.43Zm-68.6 2.333c-.93 1.252-2.624 3.82-3.764 5.706-3.069 5.08-4.265 6.535-3.739 4.547.824-3.116 6.071-11.094 7.965-12.11.584-.313 1.1-.535 1.146-.494.047.041-.677 1.1-1.608 2.35Zm102.532.924c4.528 3.624 7.642 5.87 13.879 10.012 3.949 2.622 8.277 5.536 9.62 6.475 3.402 2.381 8.329 6.831 11.081 10.008 6.921 7.992 8.924 11.774 10.749 20.293 1.065 4.977 1.568 11.811 1.127 15.311-.342 2.709-.918 4.86-1.296 4.842-.147-.008-.753-.107-1.345-.22-.81-.156-1.077-.334-1.077-.72 0-.42-.076-.457-.417-.206-.246.182-.687.233-1.077.125-.626-.173-.636-.159-.182.298.446.45.436.591-.149 2.19l-.627 1.71-2.578-1.432c-3.34-1.855-6.018-2.976-9.892-4.143-2.613-.787-3.089-.869-2.861-.491.615 1.021 6.226 4.564 13.282 8.386 2.81 1.522 4.775 3.284 4.813 4.316.066 1.809-.107 3.509-.467 4.571-.219.647-.355 1.214-.303 1.26.254.226 2.074-2.011 2.934-3.607 1.067-1.979 1.225-3.315.534-4.503-.24-.413-1.457-1.501-2.704-2.418l-2.268-1.668.886-1.527.886-1.527.741.433c2.481 1.452 3.589 1.44 4.533-.048 3.671-5.789 4.833-14 3.125-22.08-.821-3.888-2.724-9.397-4.184-12.116-1.12-2.087-3.646-5.485-6.458-8.688-7.614-8.674-12.901-12.675-24.703-18.694-2.437-1.244-14.932-6.59-15.937-6.82-.647-.148-.614-.081.335.678Zm-86.709 26.122c.244.217 4.895 1.592 9.049 2.675 3.304.861 13.972 2.65 19.033 3.191 4.064.434 13.639 2.052 19.094 3.226 7.611 1.637 11.034 2.34 16.082 3.302 5.98 1.139 6.703 1.327 14.652 3.813 9.505 2.972 11.772 3.797 13.992 5.094 2.219 1.297 2.594 1.788 2.555 3.34-.04 1.558-.446 2.472-1.553 3.492-1.15 1.061-.665 1.061 1.112 0 1.784-1.065 3.049-3.132 3.049-4.982 0-1.423-.202-1.843-1.612-3.343-3.075-3.271-7.79-5.552-17.195-8.317-3.512-1.033-7.29-2.061-8.395-2.284-1.106-.223-4.143-.818-6.748-1.322-2.606-.504-8.052-1.647-12.102-2.542-4.05-.894-8.831-1.869-10.625-2.166-1.794-.298-4.876-.811-6.85-1.142-4.785-.801-9.993-1.323-17.804-1.787-6.271-.372-16.048-.526-15.734-.248Zm-2.046 1.206c-.013.528-.29 2.021-.615 3.318-1.033 4.115-.5 4.82 4.225 5.587 1.713.278 5.311 1.011 7.996 1.628 2.685.616 8.694 1.761 13.353 2.543 4.659.781 11.185 1.947 14.501 2.591 5.77 1.119 17.869 4.188 22.111 5.609 7.467 2.501 14.929 4.302 20.388 4.921 4.194.476 8.532.824 8.675.697.362-.322-11.122-4.611-17.864-6.673a257.377 257.377 0 0 1-5.887-1.92c-1.974-.67-5.656-1.755-8.183-2.411a550.743 550.743 0 0 1-7.754-2.075c-3.642-1.017-13.507-3.144-18.952-4.087a236.653 236.653 0 0 1-6.604-1.248c-1.58-.331-4.681-.902-6.892-1.269-2.211-.368-5.054-.846-6.317-1.063-1.268-.218-4.061-.412-6.232-.433-2.178-.021-4.061-.152-4.219-.294-.157-.14-.427-1.273-.601-2.516-.173-1.244-.493-2.623-.71-3.064l-.396-.801-.023.96Zm-29.744 14.635c-3.218.287-10.481 1.959-10.481 2.413 0 .1 1.491.33 3.314.51 2.836.281 3.287.387 3.119.733-.107.222-.258 1.409-.334 2.637-.077 1.229-.156 2.24-.176 2.246-.02.008-1.729.168-3.798.357-4.308.393-5.42.779-6.037 2.092-.53 1.128-1.031 4.684-.914 6.496l.088 1.376 1.198-2.206c.66-1.213 1.525-2.663 1.923-3.224l.723-1.019 4.826-.155c6.233-.201 10.896-.56 16.599-1.278l4.595-.579-1.131-.433c-1.907-.729-5.763-1.182-11.521-1.354l-5.501-.164.27-1.045c.251-.973.165-2.391-.219-3.599-.157-.495-.025-.51 4.519-.51 2.575 0 6.701-.09 9.169-.2l4.488-.201.12 2.433c.126 2.567.601 3.682.892 2.092.088-.486.559-1.69 1.045-2.674.486-.985.884-2.185.884-2.666 0-1.441-.516-1.633-4.882-1.815-6.391-.266-11.559-.372-12.778-.263Zm28.455 1.047c3.104 1.3 15.621 3.648 25.512 4.786 3.107.358 17.585 2.893 27.011 4.729 3.775.736 13.591 3.188 20.962 5.236 2.211.614 6.023 1.655 8.471 2.312 7.304 1.961 11.438 3.684 12.419 5.175.637.967.67 3.537.062 4.83l-.441.939.726-.607c2.016-1.683 2.784-5.079 1.612-7.121-.898-1.566-4.302-3.964-7.965-5.612-6.934-3.121-30.748-9.132-46.184-11.658-1.421-.232-4.523-.806-6.892-1.274-8.726-1.726-17.102-2.454-28.976-2.52l-8.301-.046 1.984.831Zm-3.589.46c-.197.421-.599 2.509-.893 4.639-.593 4.289-.461 5.416.713 6.1.375.218 3.308.795 6.519 1.282 11.822 1.793 20.56 3.208 23.498 3.803 1.658.336 4.243.794 5.743 1.017 1.5.224 4.602.741 6.892 1.151 2.29.409 5.262.927 6.604 1.15 1.343.224 6.576 1.314 11.63 2.422 5.054 1.108 10.352 2.202 11.773 2.429 1.422.228 4.523.742 6.892 1.142 2.369.4 6.116.857 8.328 1.015l5.235.374c.668.048 1.153-.003 1.076-.113-.246-.354-6.164-2.468-11.767-4.203-6.01-1.86-24.058-5.948-33.775-7.65-3.316-.581-5.72-1.046-17.195-3.324-9.223-1.831-14.69-2.582-22.275-3.062-3.305-.208-6.23-.381-6.5-.383-.34-.002-.545-.296-.674-.961a38.549 38.549 0 0 0-.595-2.424c-.226-.807-.514-2.3-.64-3.318-.223-1.79-.243-1.826-.589-1.086Zm117.364 11.04c-.8.828-.81 1.374-.089 4.91.395 1.94.718 3.595.718 3.68 0 .084.13.153.287.153.158 0 .284-.259.28-.575-.006-.49 1.148-4.982 1.354-5.267.128-.177 3.174 1.247 5.312 2.483 3.23 1.869 6.984 3.732 10.085 5.006l2.816 1.157-.913-1.13c-2.562-3.171-10.365-8.044-16.333-10.2-2.158-.779-2.928-.827-3.517-.217Zm-144.176 4.426c-2.528.237-5.786.994-8.535 1.983l-1.867.671 1.8.155c.989.085 1.833.201 1.874.257.042.056.029 1.394-.029 2.974l-.106 2.871-1.338.005c-1.304.004-3.795.401-6.344 1.012-.693.165-1.644.643-2.114 1.06l-.854.76.198 2.347c.11 1.291.299 2.749.422 3.24.214.858.258.791 1.14-1.713.89-2.525.947-2.61 1.843-2.731 2.102-.282 8.277-.704 13.472-.919 5.628-.233 7.257-.417 10.532-1.19 1.605-.379 1.746-.46 1.149-.656-1.84-.605-7.676-1.267-12.327-1.398l-5.04-.142.37-1.6c.247-1.068.288-1.99.124-2.773l-.247-1.173 8.578-.032 9.008-.031c1.28 0 1.254-.064 1.2 2.986-.036 2.051.056 3.018.308 3.242.287.255.359.231.359-.124 0-.243.581-1.749 1.292-3.347 2.17-4.878 2.051-5.039-4.164-5.608-4.743-.434-7.126-.462-10.704-.126Zm31.88 1.914c-.063.057-1.785.114-3.825.127l-3.711.023 1.292.587c1.418.643 8.86 2.23 12.491 2.664 1.264.151 5.076.569 8.472.929 11.188 1.187 16.875 1.895 20.305 2.528 3.625.67 6.981 1.264 16.73 2.963 3.391.591 6.686 1.224 7.322 1.406 10.28 2.946 14.142 4.114 16.333 4.94 1.445.545 4.025 1.348 5.733 1.785 6.182 1.581 7.815 2.798 7.05 5.257-.439 1.417-1.361 2.088-3.374 2.457-2.24.411-1.733.722 1.186.727 2.161.004 2.257-.022 3.392-.934 2-1.606 2.895-3.874 2.288-5.801-.647-2.054-4.214-4.547-8.766-6.128-1.106-.383-3.303-1.2-4.882-1.813-3.457-1.343-17.035-4.975-21.87-5.851-1.909-.345-5.91-.986-8.891-1.424-2.981-.438-6.583-1.026-8.005-1.308-6.68-1.323-16.248-2.627-22.116-3.014-3.792-.251-16.904-.341-17.154-.12Zm-7.507 5.349c-.457.911-.891 2.205-.964 2.876-.112 1.034-.02 1.339.599 1.992.973 1.028 2.274 1.501 6.223 2.261 1.816.349 4.917 1.043 6.891 1.54 3.436.867 13.809 2.683 21.106 3.696 1.895.263 4.738.71 6.318.994l5.886 1.055c1.659.296 5.148.933 7.753 1.415 2.606.482 6.225 1.06 8.041 1.286 3.263.405 12.64.862 12.63.615-.028-.703-22.064-6.877-27.813-7.793a1345.4 1345.4 0 0 1-17.696-2.969c-14.421-2.559-17.794-3.042-22.626-3.248-2.939-.125-4.951-.319-5.151-.497-.207-.184-.309-1.142-.274-2.593.031-1.265.023-2.297-.018-2.293-.04.004-.447.752-.905 1.663Zm117.007 4.874c-.776.877-.767 2.17.04 5.507l.635 2.626.693-2.68c.381-1.474.719-2.707.75-2.741.05-.054 12.013 4.473 14.014 5.303.922.383.906.305.379 1.923-.472 1.447-.887 4.194-.634 4.194.486 0 1.452-2.349 1.598-3.889l.164-1.719 1.508.623c.887.366 1.508.504 1.508.336 0-.587-4.578-4.2-6.771-5.344-3.66-1.91-4.741-2.403-6.869-3.132a191.49 191.49 0 0 1-3.356-1.185c-1.889-.695-2.931-.645-3.659.178Zm-146.182 4.084c-2.046.15-8.447 1.154-8.708 1.367-.13.106.678.392 1.795.636 1.117.243 2.031.469 2.031.502 0 .032-.258.957-.574 2.055-.316 1.098-.574 2.737-.574 3.643v1.648l-1.221-.154c-.671-.085-2.615-.168-4.32-.186-4.536-.047-4.844.338-4.095 5.112.246 1.565.447 3.307.447 3.872s.119.962.264.882c.397-.218 1.698-3.908 1.915-5.432.105-.734.336-1.437.513-1.561.178-.123 1.618-.291 3.201-.373 2.938-.151 7.269-.818 7.697-1.185.13-.113-.623-.356-1.674-.542-2.141-.378-2.032-.099-1.14-2.916.345-1.089.436-2.013.314-3.199l-.171-1.666 3.083.308c1.696.169 4.795.389 6.888.488 2.093.1 3.805.243 3.805.318 0 .399-3.994 4.746-4.733 5.152-.477.262-1.771.622-2.877.799l-2.01.324 1.436.309c3.349.72 5.033.315 8.946-2.154 2.754-1.738 4.908-3.723 5.3-4.884.26-.772.233-1.092-.147-1.745-.256-.44-.69-.903-.964-1.031-.52-.24-12.163-.552-14.427-.387Zm32.068 2.499-4.832.274 1.673.581c.92.32 3.03.812 4.688 1.094 1.658.282 3.478.623 4.043.757 1.171.279 12.018 1.943 15.053 2.31 1.105.134 4.465.537 7.466.895 9.974 1.191 21.177 2.988 30.126 4.833.966.199 3.242.76 5.055 1.247 1.814.487 4.59 1.174 6.169 1.529 3.462.777 14.751 3.975 16.609 4.705.73.288 1.783.831 2.338 1.208 1.191.806 1.326 1.752.467 3.25-.646 1.125-.581 1.159.528.281.966-.765 1.738-2.074 1.738-2.946 0-.793-2.249-3.31-3.953-4.425-2.188-1.431-10.66-5.113-13.742-5.972-8.651-2.413-19.731-4.521-38.3-7.288-10.432-1.554-14.593-2.063-18.952-2.321-4.409-.26-11.692-.265-16.174-.012Zm-5.787 1.702c.963 1.451 3.782 5.086 4.403 5.679 1.376 1.314 4.205 3.182 6.192 4.086 3.388 1.543 10.692 3.247 18.258 4.26 8.553 1.145 19.921 2.874 24.264 3.691 9.202 1.73 15.578 2.983 18.809 3.697 3.648.806 11.202 1.89 11.989 1.721.474-.102-8.513-4.157-12.61-5.69-4.893-1.831-15.536-3.951-33.981-6.77-5.528-.845-11.472-1.871-13.21-2.279-1.737-.409-4.127-.871-5.312-1.027-6.81-.896-11.262-2.45-15.552-5.426-3.156-2.191-3.587-2.448-3.25-1.942Zm119.306.96c0 .161.15.292.333.292.183 0 2.089 1.014 4.236 2.254 2.146 1.239 5.517 3.037 7.492 3.995 4.915 2.387 7.018 3.604 8.077 4.676.89.901.897.929.718 2.969l-.181 2.06 1.013-1.404c1.327-1.837 1.682-3.027 1.29-4.322-.25-.824-.728-1.298-2.668-2.644-4.593-3.189-8.596-5.198-13.799-6.925-2.933-.974-6.511-1.496-6.511-.951Zm-2.702 5.779c-1.186 1.139-1.677 4.998-.995 7.825l.324 1.34.628-1.901c.345-1.046.983-2.517 1.418-3.268.78-1.344.807-1.362 1.849-1.208.582.086 4.546 1.704 8.811 3.596 4.264 1.891 8.14 3.511 8.614 3.6.787.148.675-.009-1.292-1.804a37.914 37.914 0 0 0-10.194-6.649c-4.988-2.198-7.951-2.693-9.163-1.531Zm-150.397 6.888c-1.368.198-3.23.553-4.139.788-1.803.466-1.711.692.41 1.002 1.207.177 1.244.21 1.077.954-.096.424-.174 1.791-.174 3.037v2.265h-2.976c-3.352 0-4.195.332-4.955 1.949-.479 1.019-.514 3.663-.073 5.492l.324 1.34.62-1.913c.341-1.052.882-2.31 1.201-2.795l.58-.882 5.152-.021c6.142-.024 11.169-.277 13.336-.67l1.58-.286-2.154-.612c-3.079-.875-5.605-1.31-8.751-1.506-2.329-.146-2.726-.234-2.614-.581.352-1.08.445-2.836.214-4.06l-.254-1.354 1.467.135c.807.074 2.759.204 4.339.289 1.579.085 3.744.328 4.811.538 2.643.523 3.37 1.21 4.406 4.162.444 1.267.91 2.213 1.035 2.102.125-.111.311-1.256.414-2.543.307-3.849-.676-5.301-4.376-6.465-2.213-.696-7.058-.865-10.5-.365Zm40.891 1.778c-1.305.192-3.3.599-4.433.906-1.77.477-2.288.763-3.659 2.018-1.425 1.305-4.257 5.276-3.954 5.546.065.058.904-.518 1.864-1.279 2.63-2.086 4.188-2.948 5.832-3.225 1.882-.317 6.245-.315 9.593.006 1.422.136 4.071.366 5.887.51 7.653.61 13.61 1.431 22.541 3.107a3169.47 3169.47 0 0 0 14.215 2.635c7.178 1.299 20.424 4.536 24.548 5.998 5.165 1.832 8.872 3.5 10.353 4.659 1.503 1.176 1.662 2.087.673 3.84l-.606 1.074 1.071-.893c1.17-.975 1.865-2.166 1.865-3.195 0-2.967-7.039-8.113-15.018-10.979-2.858-1.027-13.105-3.433-20.158-4.733-2.843-.525-9.498-1.773-14.789-2.774-12.47-2.36-20.094-3.311-27.71-3.459-4.046-.078-6.445-.008-8.115.238Zm109.767 1.595c2.647 2.231 8.41 5.372 17.043 9.287l3.547 1.608-.173.909a53.066 53.066 0 0 0-.355 2.314l-.183 1.404 1.619-2.158c.89-1.186 1.618-2.301 1.618-2.476 0-.83-.812-1.704-2.275-2.445-.881-.447-3.023-1.634-4.76-2.64-4.043-2.339-7.213-3.749-10.869-4.835-3.035-.901-5.725-1.401-5.212-.968Zm-4.634 6.298c-.676.517-.806.839-.907 2.246-.099 1.378.578 5.507 1.249 7.616.067.211.996.975 2.064 1.699 3.628 2.457 8.142 4.592 14.181 6.707 4.403 1.541 4.368 1.5 4.216 5.022l-.124 2.886.563-.818c1.273-1.85 2.488-4.432 2.488-5.286 0-1.245-.58-1.878-2.667-2.911-3.776-1.869-11.939-5.112-15.81-6.282-2.225-.672-4.092-1.345-4.148-1.495-.153-.407 1.083-5.738 1.395-6.02.171-.154 2.039.399 5.079 1.501 2.645.959 5.971 2.141 7.393 2.627 1.421.486 2.641.933 2.71.994.07.061-.173.654-.538 1.318-.601 1.094-1.2 4.397-.797 4.397.309 0 1.927-4.071 1.927-4.846 0-.677.085-.762.646-.649 2.536.512 3.365.633 4.362.639l1.132.006-1.562-.846a171.47 171.47 0 0 1-3.194-1.783c-4.579-2.632-16.243-7.326-18.203-7.326-.366 0-1.021.272-1.455.604Zm-114.465 3.12c2.947 1.25 8.901 2.733 12.709 3.165 1.342.153 3.668.496 5.168.763 1.501.268 4.085.611 5.743.765 1.659.152 4.308.498 5.887.767 1.58.269 5.262.841 8.184 1.273 2.922.431 6.282.949 7.466 1.15 1.185.202 3.187.496 4.451.653 1.263.158 4.171.612 6.461 1.009 2.29.397 5.585.913 7.322 1.147 1.738.233 4.774.767 6.749 1.187 2.892.615 12.137 2.003 13.352 2.005.554.001-2.91-1.636-6.892-3.256-5.796-2.359-9.295-3.534-12.752-4.283-1.673-.363-4.105-.888-5.405-1.168-2.276-.489-8.482-1.454-19.502-3.03-2.865-.41-6.498-.978-8.071-1.263-4.553-.825-11.947-1.353-20.315-1.45-4.264-.05-8.699-.206-9.856-.348-3.437-.421-3.537-.29-.699.914Zm-32.805 3.179c-2.674.263-6.174.978-6.174 1.26 0 .108.517.269 1.148.359.632.09 1.147.19 1.145.224-.002.033-.26.789-.574 1.679-.354 1.004-.571 2.335-.571 3.509v1.892h-2.737c-5.273 0-6.037.912-4.954 5.921.329 1.522.661 2.712.737 2.643.077-.068.434-1.233.794-2.589.36-1.356.847-2.638 1.083-2.847.371-.329.932-.342 4.117-.094 5.736.447 12.856.631 16.296.421l3.131-.191-2.126-.826c-3.458-1.343-9.531-2.422-13.69-2.433l-1.8-.005.193-.702c.106-.386.375-1.161.598-1.723.222-.561.481-1.804.573-2.762.164-1.683.192-1.736.859-1.587 2.397.535 10.65 1.299 16.01 1.483l1.71.058-.056 3.702-.055 3.701.613-1.149c.336-.632 1.316-2.432 2.176-4 2.049-3.735 1.851-4.373-1.462-4.709-.971-.098-3.251-.409-5.067-.692-4.036-.627-8.846-.846-11.917-.543Zm29.455 2.938c-2.367.456-2.905.88-1.116.88.725 0 2.536.281 4.023.625 1.488.343 4.571.924 6.851 1.29 2.281.366 4.987.828 6.013 1.028 3.346.65 12.706 1.855 19.958 2.57 3.369.332 13.839 2.255 17.947 3.296 2.448.621 5.743 1.356 7.322 1.634 3.052.538 20.959 4.506 21.382 4.739.138.075 2.287.598 4.776 1.161 3.205.724 4.814 1.218 5.513 1.692.912.618.976.753.848 1.769-.135 1.062-.745 2.322-2.027 4.184l-.611.887.988-.625c1.569-.993 3.199-2.594 3.769-3.702.644-1.249.687-2.96.101-3.968-.532-.914-2.754-2.513-4.308-3.098-5.014-1.89-10.307-3.598-13.201-4.26-6.375-1.457-12.904-2.806-15.518-3.206-2.7-.413-5.878-1.101-8.98-1.943-5.132-1.394-21.171-3.664-34.224-4.843-6.749-.61-16.623-.666-19.506-.11Zm-2.894 3.151c0 .266-.387 1.293-.861 2.283-1.069 2.234-1.123 3.562-.176 4.353.596.498 1.152.602 4.279.799 1.976.124 4.413.395 5.416.601 1.003.206 2.922.5 4.264.654 2.48.283 6.946 1.075 18.809 3.335 3.633.692 7.768 1.443 9.189 1.669 1.421.226 3.941.8 5.599 1.277 4.535 1.302 18.323 4.107 22.398 4.556 1.975.218 5.27.619 7.323.892 3.918.521 9.907.96 9.907.727 0-.183-5.6-2.262-9.893-3.672-1.903-.626-5.011-1.468-6.906-1.873-1.895-.404-4.479-1.025-5.743-1.38-1.263-.356-4.482-1.112-7.152-1.682-2.671-.57-6.483-1.491-8.471-2.048-1.989-.557-5.497-1.351-7.796-1.764-2.298-.413-5.206-.98-6.461-1.26-1.255-.279-3.767-.752-5.583-1.05-1.817-.299-4.851-.83-6.744-1.182-2.112-.392-5.274-.735-8.184-.888-2.608-.138-4.958-.309-5.221-.381-.443-.122-3.27.127-6.198.546l-1.22.174v-2.585c0-1.553-.115-2.585-.287-2.585-.158 0-.288.218-.288.484Zm117.108 4.06c-1.039 1.097-1.296 4.635-.637 8.729l.186 1.149.777-2.17c.428-1.193 1.075-2.775 1.439-3.516.748-1.525.514-1.51 3.886-.258 5.524 2.05 9.304 3.331 10.748 3.644 1.718.372 5.138.768 4.902.569-.371-.313-7.608-4.223-9.907-5.352-2.849-1.4-8.037-3.248-9.644-3.436-.876-.102-1.138-.006-1.75.641Zm-152.715 6.651-1.292.17 1.682.578c3.771 1.296 11.004 2.629 16.308 3.006 1.367.098 2.646.266 2.845.375.309.17.749 3.016.825 5.339.028.872.352.455 1.374-1.774 1.076-2.345 1.423-4.331.938-5.372-.425-.913-.846-1.023-6.886-1.799-4.558-.586-13.149-.87-15.794-.523Zm169.922 2.844c-.426.772-.858 2.049-.958 2.836l-.182 1.432-2.48-.867c-1.364-.477-3.185-1.05-4.046-1.274-2.476-.643-9.202-1.81-9.202-1.597 0 .331 2.639 1.922 4.738 2.855 2.643 1.175 6.247 2.479 9.619 3.482 1.501.447 3.439 1.189 4.308 1.651l1.579.839v2.219c0 2.503.087 2.495 1.603-.146 1.162-2.025 1.109-2.859-.259-4.003-.886-.742-4.068-2.595-4.966-2.892-.114-.037.112-.911.502-1.941.439-1.156.673-2.279.615-2.935l-.095-1.063-.776 1.404Zm-133.31 1.016c-1.895.105-3.693.207-3.996.226-.922.058-.39.259 2.775 1.049 6.002 1.498 16.029 3.045 29.075 4.484 10.667 1.177 16.11 1.975 25.126 3.684l8.759 1.664c5.21.992 11.806 2.514 17.085 3.943 1.975.534 5.27 1.342 7.323 1.795 4.189.925 6.748 2.043 6.748 2.948 0 .635-1.728 3.266-2.819 4.293-.424.399-1.138.896-1.587 1.104-.449.208-.745.442-.657.52.276.246 3.103-.699 4.176-1.395 4.972-3.223 5.625-5.987 2.071-8.772-1.613-1.264-2.513-1.684-6.514-3.036-5.248-1.774-15.112-4.095-24.391-5.738a792.286 792.286 0 0 1-6.173-1.122c-8.609-1.616-27.362-4.243-37.33-5.229-4.683-.464-14.935-.682-19.671-.418Zm-6.046 6.305c-.118 1.238-.226 2.91-.24 3.716-.039 2.268.403 2.53 5.856 3.467 2.448.421 5.484.842 6.748.935 1.263.093 3.525.327 5.025.521 1.5.194 4.408.479 6.461.633 8.406.633 14.911 1.621 28.572 4.338 2.764.55 6.317 1.228 7.897 1.506 1.579.278 4.616.851 6.748 1.273 3.867.765 11.619 1.887 15.289 2.213 1.065.095 2.681.086 3.59-.019l1.652-.192-2.01-.563c-1.105-.31-3.431-1.087-5.169-1.727-4.6-1.693-15.319-4.669-19.117-5.306-1.804-.304-7.674-1.407-13.044-2.453-17.025-3.316-26.789-4.43-38.818-4.431-6.64 0-7.243-.037-7.378-.447-.081-.246-.492-1.596-.913-2.999-.421-1.404-.803-2.59-.85-2.635-.046-.045-.181.931-.299 2.17Zm-36.98-1.176c-.508.644-.578 2.007-.216 4.193l.212 1.276.35-.765c.192-.422.555-1.254.807-1.851.301-.713.632-1.085.964-1.085.279 0 2.232.219 4.341.486 7.855.996 16.679 1.278 19.446.621.611-.145.543-.209-.655-.613-1.977-.667-6.864-1.777-9.646-2.192-1.342-.199-5.295-.433-8.783-.52l-6.343-.156-.477.606Zm155.425.983c-.461.41-.851 1.013-.866 1.34-.061 1.359.095 3.008.461 4.892.215 1.101.328 2.145.252 2.32-.076.176.062.467.306.647s.444.492.444.694c0 .202.127.297.282.212.155-.086 1.082.327 2.06.918 2.373 1.432 9.064 4.25 13.472 5.674 1.963.634 3.812 1.236 4.109 1.339.491.17.525.402.381 2.618-.176 2.726-.162 2.722 1.549-.342 1.581-2.832 1.164-3.935-1.872-4.949-.803-.269-3.333-1.294-5.624-2.278-4.279-1.841-8.846-3.327-11.995-3.905-1.629-.3-1.788-.386-1.786-.98.002-.566.941-4.456 1.277-5.288.148-.366 2.897.243 6.474 1.435 1.343.447 3.922 1.213 5.733 1.701 1.81.488 3.33.922 3.377.964.048.042-.178.605-.5 1.253-.645 1.297-1.17 5.612-.627 5.155.595-.5 1.552-3.089 1.746-4.722.127-1.071.318-1.637.538-1.598.188.034 1.282.131 2.431.216l2.091.154-2.441-1.322c-4.844-2.625-9.886-4.556-16.015-6.135-3.682-.948-4.204-.949-5.257-.013Zm-155.185 6.109-1.722.164 1.722.719c3.088 1.288 8.65 2.422 15.879 3.239 5.595.632 6.614.872 6.804 1.603.081.311.179 1.657.218 2.99l.072 2.425 1.144-2.042c1.003-1.788 1.146-2.263 1.149-3.816.005-2.111.192-1.98-4.734-3.308-5.415-1.461-9.029-1.986-14.214-2.067-2.527-.039-5.37.003-6.318.093Zm40.92 4.721c-3.133.287-3.251.319-2.297.61.553.17 3.008.719 5.456 1.221 21.003 4.309 18.724 3.936 31.156 5.103 5.705.536 15.421 2.012 21.967 3.336 3.08.624 6.246 1.257 7.036 1.408.789.151 2.475.548 3.745.882 1.271.335 4.021.951 6.112 1.37 4.451.892 12.284 3.165 15.074 4.375 3.847 1.667 4.614 3.555 2.63 6.482-.555.82-.966 1.53-.913 1.577.194.173 3.388-2.535 3.76-3.188 1.134-1.993.734-4.249-1.078-6.079-3.024-3.054-10.798-6.404-17.701-7.627-1.974-.35-4.494-.855-5.599-1.122-2.592-.627-15.393-2.976-19.67-3.611-1.817-.269-4.694-.72-6.395-1.002-1.701-.283-4.803-.69-6.892-.906-2.09-.217-6.965-.801-10.834-1.299-13.584-1.747-19.394-2.095-25.557-1.53Zm-7.747 1.952c-.006.351-.396 2.017-.868 3.702-1.076 3.846-1.101 4.94-.135 5.961.814.859 2.229 1.33 5.878 1.956 1.343.23 3.162.58 4.043.777.881.197 3.659.596 6.174.887 6.224.719 14.706 1.679 19.217 2.175 9.401 1.032 16.22 1.966 21.249 2.911l10.194 1.912c2.606.488 5.772 1.014 7.035 1.168 1.264.154 3.848.499 5.744.767 3.331.47 11.634.973 11.342.687-.237-.232-10.604-3.773-12.922-4.413-3.879-1.072-12.738-3.146-14.645-3.429-1.026-.152-4.128-.671-6.891-1.153-4.184-.73-13.618-2.002-18.953-2.556-1.271-.132-5.739-.742-14.788-2.02-2.527-.357-6.081-.77-7.897-.917-1.816-.147-4.142-.375-5.169-.507-1.026-.132-2.794-.242-3.929-.245-1.135-.003-2.395-.117-2.8-.254-.664-.224-.737-.383-.737-1.618 0-1.721-.558-5.537-.885-6.046-.187-.29-.248-.229-.257.255Zm-36.076.177c-.334.058-.954.427-1.379.821-.672.624-.881 1.257-1.619 4.901-.899 4.445-1.047 7.029-.526 9.189.263 1.091.228 1.745-.193 3.65-1.152 5.202-.033 10.311 3.512 16.044.715 1.157 1.796 2.678 2.401 3.38 1.377 1.598 5.733 5.656 5.731 5.34 0-.13-.774-1.651-1.718-3.381-2.815-5.157-7.13-15.976-7.908-19.828-.255-1.263-.639-2.835-.853-3.492-.591-1.816.004-3.813 2.495-8.376l2.099-3.845 1.723.139c.948.076 3.467.429 5.599.785 2.133.357 4.875.812 6.095 1.012 2.814.46 9.986.797 9.986.469 0-.882-15.551-5.435-21.68-6.348-1.264-.188-2.491-.392-2.728-.453-.237-.062-.704-.065-1.037-.007Zm156.108 2.625c-.809.719-1.013 1.592-1.013 4.346 0 2.564.637 5.628 1.049 5.05.129-.18.237-.638.239-1.017.006-.849 1.288-4.516 1.795-5.132.348-.424.563-.38 3.415.682 1.674.623 4.769 1.667 6.878 2.319 2.108.652 3.879 1.226 3.935 1.276.056.05-.188.59-.543 1.2-.479.821-.679 1.69-.773 3.343-.092 1.613-.232 2.234-.504 2.234-.206 0-1.939-.52-3.85-1.156-3.817-1.269-10.348-2.737-10.348-2.326 0 .329 4.209 2.804 6.46 3.799 3.225 1.425 4.757 1.868 8.098 2.342 3.765.534 4.489 1.083 4.489 3.399 0 .458.051.834.112.834.062 0 .377-.533.702-1.184.651-1.311.584-2.522-.2-3.586-.513-.696-3.064-1.861-4.083-1.864-.796-.004-.8-.157-.043-1.705.375-.768.662-2.031.759-3.345.13-1.779.228-2.094.617-1.997.254.062.914.188 1.466.28.553.091 1.264.23 1.58.308.567.14.567.135.025-.404-1.671-1.663-11.408-6.257-16.269-7.676-2.253-.657-3.271-.662-3.993-.02Zm-148.87 10.754c-.897.627-2.482 3.311-3.234 5.476-.7 2.018-.699 9.276.002 11.982 1.242 4.792 2.574 7.852 3.871 8.894l.586.47-.416-1.227c-.228-.675-.545-3.154-.704-5.509-.237-3.498-.208-4.912.158-7.719.247-1.889.617-3.869.823-4.398l.375-.963.197 1.931c.108 1.062.12 2.553.025 3.312-.409 3.294.971 13.053 2.506 17.717.752 2.286 2.161 4.77 3.663 6.459 2.773 3.118 7.334 6.481 11.039 8.14 1.821.815 7.532 2.631 8.274 2.631.17 0-1.226-.904-3.104-2.009-3.283-1.933-6.648-4.666-9.468-7.691-1.883-2.019-4.326-5.514-5.113-7.315-1.348-3.081-2.819-11.633-2.716-15.786.025-1.007.028-1.004.254.255.126.702.38 2.415.566 3.806.357 2.671 2.075 8.305 3.259 10.685.953 1.916 3.617 5.468 5.402 7.205.805.783 1.508 1.384 1.561 1.337.054-.048-.397-1.115-1.002-2.371-2.202-4.575-2.899-6.808-3.605-11.549-.713-4.785-1.129-11.831-.75-12.686.137-.308.307 1.007.43 3.318.449 8.456 1.443 12.98 4.209 19.145 1.887 4.206 3.242 6.089 6.431 8.938 5.038 4.5 10.217 7.602 16.512 9.891 4.048 1.472 4.035 1.37-.174-1.428-2.95-1.96-5.029-3.616-7.649-6.09-7.819-7.385-9.678-9.925-11.821-16.161-1.8-5.236-2.016-6.812-1.959-14.295.056-7.306-.144-8.59-1.575-10.102-.883-.932-2.707-1.754-3.915-1.762-2.104-.014-4.001 1.771-5.085 4.784l-.527 1.465-.015-2.396c-.02-3.105-.415-4.209-2.039-5.707-1.261-1.163-1.385-1.214-2.91-1.214-1.185 0-1.791.137-2.362.537Zm26.436 5.205c-1.459.449-2.347 1.226-3.198 2.795-1.162 2.144-1.398 4.233-1.209 10.729.183 6.278.545 8.506 2.065 12.698.912 2.515 1.932 4.169 3.744 6.069 1.285 1.348 4.368 3.468 4.662 3.206.077-.069-.265-.536-.76-1.039-2.045-2.069-3.542-5.516-4.252-9.784-.837-5.038-.445-19.352.506-18.498.454.408.834 3.589.836 7.008.006 10.259 2.417 18.161 7.271 23.83 1.936 2.261 6.079 5.465 8.596 6.647 2.05.963 15.178 5.791 15.344 5.643.127-.113-7.728-5.314-10.669-7.064-2.718-1.617-6.841-5.082-8.768-7.369-1.714-2.035-3.774-5.493-4.578-7.685-1.326-3.616-1.733-6.821-1.832-14.422-.077-5.872-.181-7.385-.582-8.476-1.205-3.281-4.347-5.158-7.176-4.288Zm118.449 1.167c-.304.291-.635.893-.736 1.339-.18.803.685 6.301.992 6.301.088 0 .48-1.177.872-2.616.671-2.462.758-2.621 1.483-2.696.424-.044 3.004.55 5.735 1.321 4.565 1.288 5.837 1.613 8.053 2.057l.793.159-.623 1.079c-.403.699-.67 1.733-.758 2.936-.115 1.555-.213 1.839-.601 1.742-.255-.063-1.046-.191-1.757-.282-.71-.092-3.165-.557-5.455-1.034-6.694-1.395-7.754-1.586-7.754-1.4 0 .26 5.33 2.915 7.323 3.648.947.349 2.928 1.013 4.401 1.476 1.473.463 3.185 1.168 3.805 1.567.95.612 1.126.869 1.126 1.642 0 2.237-3.074 9.605-5.847 14.013-5.074 8.065-15.012 16.339-22.581 18.799l-2.154.7 1.867.012c7.501.05 19.552-6.329 24.61-13.027 2.151-2.849 3.633-5.205 4.962-7.89 4.04-8.158 4.599-9.639 4.599-12.185 0-1.765-.405-3.006-1.26-3.865-.617-.62-3.292-1.816-4.06-1.816-.534 0-.533-.423.002-1.772.233-.588.51-1.811.614-2.718.156-1.349.274-1.627.652-1.53.81.208 3.765.468 3.765.332 0-.246-4.209-2.463-6.198-3.264-3.495-1.409-7.363-2.566-10.252-3.068-3.689-.641-4.913-.632-5.618.04Zm-102.508 1.012c-1.257.251-2.391 1.247-3.436 3.019-1.752 2.967-1.926 3.796-1.916 9.097.01 5.138.288 7.222 1.464 10.953.892 2.829 1.803 4.451 3.159 5.622 1.077.93 5.281 3.287 5.506 3.087.069-.061-.547-.776-1.368-1.59-1.994-1.976-2.926-3.433-3.386-5.295-.551-2.231-.767-9.425-.395-13.159.345-3.453.651-4.724 1.326-5.5.429-.495.436-.495.866 0 .657.755.966 1.948 1.591 6.138.314 2.106.764 5.113 1 6.683.237 1.571.888 4.442 1.447 6.382 1.789 6.2 4.492 10.228 9.76 14.543 4.857 3.976 6.817 5.207 10.572 6.64 2.422.924 15.516 4.938 16.082 4.929.393-.005-2.517-1.705-10.318-6.024-5.55-3.073-6.244-3.546-10.642-7.244-5.237-4.404-6.477-5.738-8.157-8.77-1.662-3-3.335-9.036-3.724-13.438-.769-8.69-1.045-10.259-2.17-12.367-1.343-2.516-4.683-4.221-7.261-3.706Zm19.588 3.033c-1.401.565-2.347 1.6-3.547 3.881-1.436 2.728-1.803 4.848-1.651 9.542.143 4.4.428 5.608 1.995 8.465.902 1.646 2.366 3.404 2.833 3.404.15 0 .087-.258-.139-.574-.731-1.018-1.433-4.763-1.401-7.466.044-3.692 1.224-8.136 2.842-10.709 1.054-1.677 1.327-1.799 2.334-1.046 1.089.815 1.244 1.179 2.66 6.267 1.893 6.803 4.128 11.505 7.182 15.109 2.361 2.786 7.256 6.441 13.421 10.019 3.889 2.258 11.839 6.12 11.839 5.751 0-.112-1.453-1.331-3.23-2.709-5.628-4.365-17.051-14.569-18.52-16.543-2.592-3.482-4.339-7.815-5.784-14.336-1.015-4.587-1.622-5.841-3.583-7.412-2.584-2.069-4.898-2.593-7.251-1.643Zm4.251 30.835c2.11 2.724 6.353 6.588 9.235 8.411 2.523 1.595 5.104 2.801 11.817 5.523 5.226 2.119 5.934 2.314 7.782 2.144 1.655-.151 4.711-1.447 6.432-2.727l1.005-.747-1.586.364c-2.763.634-5.309.863-6.646.597-.684-.136-3.053-1.203-5.264-2.37a5563.183 5563.183 0 0 0-7.897-4.159 268.055 268.055 0 0 1-8.184-4.541c-4.756-2.765-7.824-4.464-8.062-4.464-.086 0 .53.886 1.368 1.969Zm-24.72 14.24c-.765 4.922-2.398 12.962-3.475 17.102-1.859 7.149-2.737 12.038-3.155 17.572-.467 6.161.405 8.938 3.794 12.083 1.646 1.527 6.524 5.008 8.006 5.713.779.371.8.401-2.399-3.445-3.357-4.035-4.618-6.307-4.763-8.583-.161-2.536 1.279-12.529 2.959-20.532.383-1.825.85-4.524 1.038-5.998.571-4.471-.004-11.346-1.261-15.061l-.388-1.148-.356 2.297Zm76.497 4.228c-7.645.181-8.756.313-12.587 1.496-1.758.543-4.909 2.037-4.695 2.227.068.06 3.274-.002 7.124-.14 8.774-.312 12.309-.894 16.26-2.674 1.286-.578 2.256-1.267 1.597-1.133-.128.026-3.592.127-7.699.224Zm13.021.538c-.262.492-1.44 2.263-2.619 3.935-5.061 7.181-10.174 17.363-11.846 23.589-.395 1.474-.92 3.37-1.166 4.212-.246.842-.561 2.09-.701 2.774-.454 2.216-1.184 3.798-3.471 7.515-2.692 4.375-3.075 4.887-4.963 6.642-2.35 2.184-4.67 2.959-6.652 2.223l-1.056-.392.427.574c.8 1.075 2.177 1.575 4.368 1.584 1.76.008 2.254-.102 3.797-.845 2.306-1.11 4.607-3.127 5.736-5.029.496-.834 1.367-2.807 1.936-4.384 1.149-3.182 1.353-5.724.607-7.584-.39-.975-.375-1.044.515-2.261 1.308-1.787 4.839-7.74 8.812-14.856 4.502-8.062 7.221-15.143 6.853-17.847l-.101-.744-.476.894Zm-42.543 7.615c-3.695 7.697-6.445 15.523-9.192 26.163-1.686 6.53-2.063 8.419-2.37 11.888-.373 4.223.816 5.962 6.967 10.191a410.361 410.361 0 0 1 3.331 2.303c.276.205-5.623-1.152-6.831-1.571-2.019-.701-6.142-5.378-6.725-7.631-.369-1.422-.381-8.96-.02-12.372.588-5.546.646-7.732.288-10.69-.2-1.652-.463-2.909-.583-2.794-.226.218-2.784 9.479-3.548 12.846-.374 1.649-.79 5.179-1.153 9.791-.188 2.388.304 5.173 1.161 6.573.973 1.589 5.091 5.084 6.95 5.898 1.239.542 1.696.584 6.502.584 4.409 0 5.306.066 6.102.453.513.249.933.397.933.327 0-.069-.605-.731-1.345-1.471-1.649-1.65-5.995-6.849-6.893-8.243-.775-1.205-.823-2.327-.244-5.708.405-2.371.729-3.269.729-2.026 0 .998 1.122 6.617 1.493 7.478.581 1.347 1.298 2.05 2.865 2.805l1.528.737-.92-.937c-1.458-1.484-1.668-2.492-1.278-6.119.184-1.717.469-5.132.632-7.589.34-5.113.367-5.189 3.682-10.177 2.175-3.272 3.771-5.992 3.771-6.426 0-.416-4.969 3.437-6.917 5.363l-1.686 1.667.575-1.787c2.364-7.341 3.961-15.047 4.456-21.505.11-1.439.143-2.617.073-2.617-.069 0-1.119 2.068-2.333 4.596Zm-35.65 8.098c-.966.218-1.808.833-2.124 1.55-.864 1.962-1.268 16.111-.626 21.963.277 2.534 1.098 7.219 1.295 7.394.463.411 2.059-10.269 2.74-18.33.326-3.861.724-7.296.883-7.634l.289-.614 6.519.181c3.585.099 7.294.274 8.241.387.948.113 1.776.166 1.839.117.247-.188-4.577-1.968-8.659-3.196-5.32-1.6-8.724-2.195-10.397-1.818Zm50.538 1.136c-1.125.527-4.646 3.449-4.41 3.659.067.059.891-.172 1.83-.514.939-.341 2.363-.754 3.164-.915 1.939-.392 2.676-.038 5.198 2.492 3.186 3.196 5.348 5.197 5.483 5.077.258-.229-1.425-4.215-2.368-5.607-2.911-4.297-5.784-5.651-8.897-4.192Zm-43.322 7.34c-.264.762-.48 1.492-.48 1.622 0 .13-.828 1.804-1.841 3.719-2.52 4.764-2.749 6.957-.959 9.19.356.443 1 1.24 1.432 1.769.432.53.912 1.558 1.067 2.285.155.727.448 1.56.651 1.85.469.674 2.015 1.086 3.67.979l1.293-.083-1.436-.638-1.436-.638-.155-2.298c-.137-2.039-.277-2.498-1.246-4.084-1.035-1.693-1.083-1.874-.921-3.446.094-.912.44-2.406.768-3.318.775-2.155.972-5.081.466-6.892l-.393-1.404-.48 1.387Zm43.995.872c-1.684.413-4.023 1.741-4.928 2.796-1.095 1.277-2.068 3.15-3.079 5.921-.771 2.115-.956 3.082-1.076 5.641-.218 4.62.502 7.589 2.013 8.305.543.257.594.249.324-.056-.652-.736-.651-1.735.002-4.594.919-4.024 4.266-11.326 6.05-13.2 1.015-1.066 2.708-1.839 4.028-1.839 2.003 0 4.578 1.359 5.406 2.854l.47.847.007-.982c.023-3.558-5.079-6.71-9.217-5.693Zm-38.03 2.434c-1.434.579-3.082 2.246-3.527 3.567-.42 1.246-.429 4.329-.019 6.307.321 1.548 1.3 3.615 2.198 4.641.486.554.5.473.415-2.425-.048-1.649.028-4.294.17-5.876.235-2.623.333-2.962 1.102-3.829.529-.597 1.643-1.307 2.988-1.905l2.145-.953-2.153.001c-1.477.001-2.52.15-3.319.472Zm42.895 7.674c-3.785 3.395-4.926 4.841-6.74 8.535-.698 1.42-1.538 3.024-1.867 3.564-.559.917-.564.965-.063.721.747-.363 2.843-2.369 4.848-4.639.93-1.053 2.099-2.374 2.598-2.935 2.685-3.024 4.941-6.833 4.671-7.889-.057-.222-1.407.813-3.447 2.643Zm-56.393 15.41c-.388.893.046 5.093.652 6.3l.576 1.149.215-1.699c.259-2.042.018-3.812-.706-5.193-.44-.84-.571-.939-.737-.557Zm51.275 3.7c-2.382 1.031-3.643 1.133-8.641.701-2.65-.229-5.587-.001-4.831.374.752.375 8.066 2.546 8.574 2.546 1.17 0 3.436-.825 4.509-1.641l1.166-.886.354 1.455c.537 2.201 1.572 4.023 3.681 6.482 1.051 1.225 1.938 2.204 1.97 2.174.033-.029-.066-.685-.22-1.458-.352-1.772-2.388-5.532-4.078-7.529l-1.295-1.531.578-.83c.317-.457.534-.821.482-.81-.052.011-1.064.44-2.249.953Zm-50.481 4.274c-.837.2-2.516.781-3.733 1.29-1.216.51-2.922 1.132-3.791 1.382-1.566.45-1.572.456-.718.67 1.083.271 4.509.264 7.33-.017 2.065-.205 2.236-.18 3.876.554 2.328 1.043 5.833 2.001 10.474 2.864 3.6.669 8.615 1.218 8.615.943 0-.308-14.811-6.631-17.128-7.312-2.975-.874-2.87-.866-4.925-.374Zm21.479 1.192c0 1.321 1.303 5.302 1.735 5.302.151 0 .272-.717.268-1.595-.006-1.562-.538-3.04-1.563-4.34-.423-.537-.44-.512-.44.633Zm-30.73 4.218c-.007 2.037-.185 2.316-1.599 2.505-1.584.211-3.681 1.38-4.427 2.467-.775 1.13-.772 1.711.006 1.085.556-.447.626-.448 1.651-.021.589.245 2.303 1.067 3.808 1.826 4.578 2.31 9.989 4.06 18.225 5.894 4.545 1.012 5.438 1.136 7.402 1.028l2.234-.124-.162.807c-.908 4.528-1.415 21.309-1.599 52.878-.074 12.596.208 17.856 1.463 27.313.709 5.34 1.965 11.664 2.392 12.043.539.48 1.112-21.511.723-27.732-.165-2.65-.152-8.025.036-14.55.164-5.691.421-17.834.573-26.984.226-13.693.204-17.329-.126-20.546-.221-2.151-.353-3.954-.293-4.006.06-.053.986.089 2.06.316s4.73.704 8.126 1.06c4.61.483 6.259.748 6.51 1.043.634.746.672 2.251 1.117 43.875l.14 13.018 1.286 9.41c.707 5.176 1.479 10.074 1.716 10.886.236.811.434 1.803.438 2.204.007.538.074.629.259.346.491-.753 1.024-8.142.996-13.784-.134-25.992-.096-35.041.2-48.549.36-16.389.308-17.519-.904-19.631-.793-1.382-2.119-2.272-3.388-2.272-2.07 0-11.424.764-13.97 1.141-1.421.21-3.055.384-3.63.387-1.146.004-1.174-.038-1.551-2.357-.186-1.15-.162-1.214.482-1.234.625-.019.608-.048-.201-.364-.572-.223-1.067-.712-1.414-1.395-.713-1.405-1.141-1.61-.891-.426.108.511.091.93-.037.93s-2.04-.586-4.249-1.301c-9.185-2.976-11.108-3.34-17.103-3.237l-4.141.071 1.918.811c2.598 1.098 8.845 3.014 12.87 3.948 2.519.584 4.205.8 7.107.913 3.622.141 3.805.173 3.803.684-.003.567-.559 3.8-.672 3.9-.177.158-2.842-.839-5.98-2.237-4.384-1.954-8.663-3.583-11.6-4.416-3.576-1.014-9.161-2.197-11.417-2.419-2.151-.211-1.991-.361.72-.673.739-.085 1.69-.396 2.114-.693.67-.468.752-.678.635-1.608-.161-1.262-1.049-3.443-1.404-3.443-.136 0-.25.546-.252 1.213Zm41.641 1.35c-3.245.292-9.763 1.31-9.763 1.525 0 .212 4.513 1.182 6.461 1.389.79.084 4.156.314 7.481.51 7.031.416 10.228.253 15.617-.796 4.184-.814 4.042-.921-1.802-1.355a169.6 169.6 0 0 1-7.512-.761c-5.035-.649-7.579-.773-10.482-.512Zm25.468 7.304c.144 2.883 2.449 16.18 3.688 21.276.883 3.633 2.518 13.556 3.134 19.016.725 6.433 1.496 10.77 4.295 24.161.401 1.918.992 5.708 1.314 8.424.818 6.892.828 6.97 1.633 11.957.396 2.457 1.096 6.19 1.554 8.296.459 2.106.839 4.116.846 4.467.01.612.025.617.359.128.252-.37.376-3.273.45-10.555.133-13.207.014-14.211-3.362-28.244-1.106-4.601-2.226-11.106-2.637-15.316-1.458-14.938-3.628-27.22-6.059-34.283-.741-2.156-4.808-11.59-5.121-11.88-.128-.119-.171 1.03-.094 2.553Zm-66.912 1.549c-.296.425-2.748 11.722-3.119 14.365-.571 4.07-.48 16.673.149 20.464.271 1.638.679 3.528.907 4.2.227.672.386 1.227.352 1.233-.766.149-2.495 1.237-2.974 1.872-1.143 1.514-1.293 2.959-.946 9.094.176 3.101.454 5.782.617 5.957.163.176.778.319 1.365.319 1.231 0 3.366.622 6.04 1.759 1.071.455 2.33.793 2.953.793.93.001 1.169-.124 1.659-.861.498-.75.764-.883 2.072-1.036.825-.096 3.051-.512 4.946-.924 1.895-.413 3.672-.751 3.949-.751 1.124-.002.392-.462-1.219-.766-2.432-.459-5.29-.223-7.323.604-.918.373-1.72.633-1.783.577-.062-.056.087-1.407.333-3.003.52-3.376.689-7.246.353-8.07-.202-.492-.139-.574.442-.574 1.797 0 8.263-2.144 8.263-2.74 0-.322-4.967.099-6.818.577-.896.232-2.235.694-2.976 1.028-1.275.574-1.483.593-3.875.352-2.382-.241-2.956-.367-2.675-.588.066-.052 1.956-.918 4.2-1.927 4.306-1.934 7.854-3.887 7.338-4.04-.513-.152-7.512.929-10.367 1.601-1.475.347-2.81.631-2.967.631-.182 0-.219-.724-.102-1.978.334-3.575 1.311-11.358 1.866-14.869.833-5.267.881-5.872.914-11.486.025-4.329-.08-5.806-.608-8.551-.663-3.448-.715-3.624-.966-3.262Zm3.423 46.605 1.463.657-.385 1.611c-.211.886-.538 3.019-.726 4.738l-.342 3.127h-1.774c-1.617 0-4.67-.377-4.931-.609-.059-.053.224-1.145.63-2.428.406-1.282.996-3.679 1.312-5.326.815-4.257.663-4.027 2.09-3.158.66.403 1.859 1.027 2.663 1.388Zm-4.452 13.452c-.353 1.421-.817 4.661-1.499 10.465-.449 3.816-.435 9.764.029 12.763.432 2.8 1.462 6.473 1.739 6.206.402-.387 1.716-7.595 2.039-11.183.433-4.81.175-9.041-.886-14.55-.486-2.527-.927-4.71-.979-4.85-.052-.14-.251.377-.443 1.149Zm49.815 27.135c-.464.308-2.247 1.489-3.964 2.624-1.716 1.135-5.264 3.892-7.883 6.126-5.682 4.847-7.942 6.595-9.238 7.148-.688.293-1.757.408-3.733.401-3.337-.012-5.385-.499-12.826-3.051-2.839-.973-6.607-2.142-8.374-2.598-2.686-.694-3.486-1.025-4.881-2.022-2.029-1.451-2.17-2.069-1.113-4.877l.721-1.914-1.283 1.276c-3.192 3.174-3.213 5.58-.075 8.465l1.157 1.064-.149 4.68c-.151 4.697-.721 8.309-1.533 9.709-.71 1.224-.514 2.451.542 3.389 1.665 1.481 8.194 3.08 15.139 3.708 4.05.366 8.956 1.147 11.024 1.755l1.69.496-.685-.605c-1.153-1.016-5.29-3.086-8.087-4.046-4.547-1.56-12.66-4.277-13.562-4.541l-.861-.253.097-2.787c.111-3.182-.375-5.781-1.672-8.941-.454-1.105-.801-2.01-.772-2.01.218 0 7.55 3.009 10.1 4.145 6.857 3.054 10.343 4.026 15.093 4.206 5.579.211 6.171-.002 10.327-3.716 1.898-1.696 4.61-4.513 6.306-6.55 1.636-1.965 4.282-5.124 5.88-7.019 4.181-4.96 4.537-5.54 2.615-4.262Zm-45.964 4.899c.736.532 6.696 3.67 8.758 4.611 1.7.776 16.427 5.232 16.301 4.932-.139-.33-5.215-3.869-7.112-4.958-4.775-2.743-10.454-4.436-16.229-4.84-2.146-.15-2.256-.134-1.718.255Zm77.819 7.938c-1.579.912-5.779 2.948-9.333 4.524-8.643 3.835-19.871 8.992-24.982 11.474-3.449 1.675-18.197 10.133-17.989 10.317.412.367 8.921-2.089 12.82-3.699.711-.294 3.489-1.434 6.174-2.533 8.483-3.473 16.071-7.148 21.68-10.499 2.922-1.745 5.829-3.524 6.461-3.953 2.213-1.503 8.766-7.387 8.132-7.302-.05.007-1.384.759-2.963 1.671Zm-54.536 11.921c-.52 3.082-.027 7.246 1.196 10.112.395.925.597.22.815-2.849.154-2.177.083-2.993-.42-4.862-.333-1.235-.782-2.545-.998-2.912l-.394-.668-.199 1.179ZM195.306 415.116c0 .966-.572 3.022-1.272 4.569-1.191 2.636-1.59 2.771-6.332 2.137-2.783-.373-6.944-.166-9.246.459-6.596 1.791-7.674 6.063-2.836 11.24 2.677 2.865 10.361 22.071 14.991 37.47 2.003 6.66 3.641 12.578 3.641 13.152 0 .581-1.162.749-2.625.378-3.584-.906-9.006 1.571-12.438 5.683-3.777 4.526-3.871 10.359-.235 14.715 5.463 6.546 13.508 7.049 19.065 1.193 2.971-3.133 3.077-3.599 2.967-13-.158-13.447-5.653-33.935-15.579-58.082-.481-1.171.814-2.194 4.886-3.858l5.539-2.265.897-6.605c.613-4.522.53-6.972-.263-7.772-.844-.851-1.16-.692-1.16.586Zm40.507 7.849c-2.037 19.182 3.599 57.583 12.729 86.722 1.431 4.569 2.603 8.403 2.604 8.519 0 .115-2.253.071-5.005-.1-6.006-.373-10.899 2.273-13.469 7.281-2.666 5.2-1.329 8.136 5.077 11.142 6.588 3.093 9.328 3.248 11.652.658 2.543-2.833 2.184-4.269-2.048-8.177-3.558-3.286-3.667-3.57-1.751-4.603 3.009-1.624 6.469-.292 8.246 3.173 1.526 2.976 3.972 3.991 5.117 2.122.313-.511-1.524-8.039-4.083-16.73-11.42-38.787-15.212-57.735-16.084-80.365-.332-8.636-.971-15.931-1.419-16.21-.448-.278-1.153 2.677-1.566 6.568ZM54.334 432.16c-1.852 1.926-3.367 4.01-3.367 4.63 0 2.675-8.696 10.977-12.61 12.041-5.181 1.406-7.894.322-13.027-5.203-7.138-7.684-17.262-5.591-22.851 4.725-3.65 6.735-2.555 13.637 4.599 29.009 3.168 6.805 6.039 13.642 6.381 15.19.607 2.749.468 2.837-5.695 3.558-3.475.407-6.622 1.235-6.994 1.841-1.569 2.559-.607 12.405 1.676 17.16 2.938 6.118 5.224 6.312 10.59.902 3-3.025 4.256-5.414 5.165-9.832 1.726-8.382.127-15.257-7.008-30.134-5.393-11.245-6.056-13.354-6.056-19.274 0-7.467 1.696-10.339 7.588-12.853 4.536-1.936 7.62-.612 11.168 4.792 3.23 4.922 9.538 8.63 14.653 8.614 1.907-.005 6.002-1.2 9.101-2.655 3.1-1.454 6.504-2.645 7.564-2.645 2.526 0 5.238-2.801 5.238-5.41 0-1.139 1.2-3.899 2.665-6.13 2.766-4.216 2.69-6.397-.354-9.971-2.332-2.737-4.649-2.285-8.426 1.645Zm142.018 63.205c.004 1.343-.717 3.853-1.601 5.577-1.284 2.505-2.3 3.134-5.066 3.134-6.574 0-9.592-4.942-5.522-9.045 2.03-2.047 3.489-2.509 7.357-2.331 4.265.197 4.826.506 4.832 2.665ZM13.745 505.821c-.57 3.541-4.21 8.877-6.054 8.877-1.118 0-3.08-6.195-3.08-9.718 0-2.894.216-3.029 4.878-3.029h4.88l-.624 3.87ZM532.987 2.242c-1.226 1.275-2.23 2.656-2.23 3.067 0 1.771-5.759 7.27-8.352 7.975-3.432.932-5.229.214-8.628-3.446-4.728-5.09-11.433-3.703-15.135 3.13-2.417 4.461-1.692 9.032 3.046 19.215 2.098 4.507 4 9.036 4.226 10.062.402 1.82.31 1.878-3.772 2.356-2.301.27-4.386.818-4.632 1.22-1.039 1.695-.402 8.216 1.11 11.366 1.946 4.053 3.46 4.181 7.014.598 1.987-2.004 2.819-3.587 3.421-6.513 1.143-5.552.084-10.106-4.642-19.96-3.572-7.448-4.011-8.846-4.011-12.767 0-4.946 1.124-6.848 5.026-8.514 3.004-1.282 5.047-.405 7.397 3.174 2.139 3.26 6.317 5.717 9.705 5.707 1.263-.004 3.975-.796 6.028-1.76 2.053-.963 4.308-1.752 5.01-1.752 1.673 0 3.47-1.855 3.47-3.583 0-.754.794-2.582 1.764-4.06 1.833-2.793 1.782-4.238-.234-6.605-1.544-1.813-3.079-1.513-5.581 1.09Zm49.184 34.091c-.168.29-.361 3.694-.427 7.564-.151 8.777-1.858 13.19-6.379 16.492-4.284 3.129-7.331 3.892-11.743 2.937-4.801-1.038-4.629-1.067-6.716 1.152-5.307 5.641-6.462 13.341-3.621 24.118 2.358 8.941 2.769 11.628 2.249 14.733l-.44 2.622-3.33-.322c-4.056-.393-7.27 1.083-8.783 4.032-1.377 2.685-1.338 3.26.337 4.949 1.755 1.769 6.014 1.867 8.392.192 2.603-1.833 5.068-5.038 5.481-7.126.793-4.004.195-13.36-1.222-19.1-1.722-6.975-1.893-12.492-.486-15.678 1.885-4.27 2.106-4.394 4.599-2.604 4.754 3.414 14.32 2.18 19.468-2.509l2.68-2.441.414 5.108c.227 2.809.614 8.497.861 12.64l.448 7.533-2.454-.402c-3.169-.518-6.161 1.222-8.11 4.718-2.88 5.169-.919 10.522 3.855 10.522 2.344 0 5.849-2.472 5.849-4.124 0-.368.656-.497 1.457-.286 1.457.385 1.457.382 1.395-23.108-.034-12.922-.014-25.869.046-28.771.131-6.396-1.202-13.369-2.557-13.369-.526 0-1.094.238-1.263.528Zm-76.067 14.7c-.378 2.346-2.788 5.88-4.01 5.88-.74 0-2.04-4.103-2.04-6.437 0-1.916.143-2.006 3.231-2.006h3.232l-.413 2.564Zm74.772 48.332c.134.694-.222 1.173-.872 1.173-.647 0-1.098-.602-1.098-1.466 0-1.715 1.631-1.473 1.97.293Zm-27.483 9.545c.725 1.183-4.488 5.093-6.481 4.86-2.473-.289-2.873-2.826-.687-4.369 1.705-1.205 6.528-1.535 7.168-.491Z" fill="#131441"/></svg>