<svg width="274" height="219" fill="none" xmlns="http://www.w3.org/2000/svg"><path d="m210.45 160.578-.498-.047.498.047Zm-13.082-26.405-.461.194.017.039.022.036.422-.269Zm-7.994-7.752-.166-.471.166.471Zm-9.932-78.972.147.478-.147-.478Zm-1.453-4.36.158.474-.158-.474Zm7.509-2.423.47.171-.47-.17Zm.727 3.392.353.353-.353-.353Zm-4.118 3.391-.309-.393-1.137.893h1.446v-.5Zm4.118-.727.3.4-.3-.4Zm-40.213 31.734-.447-.223.447.223Zm5.814-10.416.394.307.041-.052.026-.061-.461-.194Zm1.938-4.603.496.06-.957-.254.461.194Zm-3.149 13.566-.442-.236.442.236Zm-8.237 43.362.344-.363-.344.363Zm6.783 2.423-.033-.499-.171.011-.128.114.332.374Zm6.783 4.36-.413.282.413-.282Zm37.791-21.802-.278-.416.278.416Zm2.664-1.696.41.287-.667-.716.257.429Zm-3.633 9.448.416-.278-.416.278ZM125.5 150c0 2.234-.083 3.411-.167 4.454-.084 1.053-.17 1.984-.17 3.702h1c0-1.675.083-2.571.167-3.623.085-1.062.17-2.267.17-4.533h-1Zm-.337 8.156c0 1.759.119 2.942-.055 4.136-.167 1.142-.61 2.275-1.779 3.795l.792.61c1.254-1.629 1.78-2.919 1.976-4.26.189-1.289.066-2.65.066-4.281h-1Zm-1.834 7.931c-1.263 1.641-3.162 5.52-4.442 9.697-.643 2.096-1.137 4.29-1.315 6.337-.177 2.04-.045 3.98.604 5.539l.923-.385c-.561-1.347-.702-3.103-.531-5.067.17-1.957.645-4.079 1.275-6.131 1.263-4.12 3.118-7.872 4.278-9.38l-.792-.61Zm-5.153 21.573c1.255 3.01 3.311 4.486 5.559 4.022 2.162-.446 4.191-2.65 5.545-6.217l-.935-.355c-1.312 3.457-3.158 5.251-4.812 5.592-1.567.324-3.266-.623-4.434-3.427l-.923.385Zm11.104-2.195c1.285-3.389 3.805-5.864 6.184-7.881 1.168-.991 2.348-1.908 3.255-2.724.904-.813 1.665-1.632 1.953-2.496l-.948-.316c-.197.589-.768 1.254-1.674 2.069-.901.811-2.008 1.665-3.232 2.704-2.406 2.04-5.094 4.652-6.473 8.289l.935.355Zm11.392-13.101c.491-1.473.817-2.753.752-4.267-.064-1.508-.512-3.206-1.492-5.533l-.922.388c.958 2.276 1.358 3.848 1.415 5.187.057 1.332-.223 2.475-.701 3.909l.948.316Zm-.74-9.8c-.469-1.113-.629-1.897-.642-2.486-.013-.578.115-.999.28-1.398.155-.375.406-.851.525-1.362.128-.556.119-1.18-.15-1.985l-.948.316c.216.648.206 1.084.123 1.444-.093.405-.266.701-.474 1.204a4.253 4.253 0 0 0-.356 1.804c.017.752.22 1.663.72 2.851l.922-.388Zm.013-7.231c-.511-1.536-1.476-2.964-2.728-3.853-1.266-.9-2.84-1.252-4.479-.569l.385.923c1.268-.528 2.48-.275 3.515.461 1.049.746 1.902 1.982 2.359 3.354l.948-.316Zm-7.207-4.422c-.807.336-1.354.823-1.605 1.423-.253.605-.169 1.238.112 1.782.55 1.063 1.885 1.875 3.381 1.875v-1c-1.168 0-2.135-.642-2.493-1.335-.173-.335-.195-.655-.078-.936.12-.285.421-.616 1.068-.886l-.385-.923Zm1.888 5.08c.686 0 1.413-.079 2.056-.118.666-.041 1.286-.045 1.869.077.574.12 1.118.363 1.632.83.519.472 1.027 1.192 1.492 2.296l.922-.388c-.505-1.197-1.086-2.052-1.741-2.647a4.382 4.382 0 0 0-2.1-1.07c-.718-.15-1.447-.139-2.135-.097-.713.044-1.348.117-1.995.117v1Zm7.049 3.085c.457 1.086.663 2.257.825 3.443.158 1.162.278 2.375.578 3.434.306 1.078.815 2.066 1.798 2.772.976.7 2.35 1.074 4.285 1.074v-1c-1.819 0-2.959-.353-3.702-.887-.735-.527-1.149-1.281-1.419-2.232-.275-.97-.383-2.074-.55-3.296-.163-1.199-.382-2.481-.893-3.696l-.922.388Zm7.486 10.723c3.746 0 14.571.363 25.181.636 5.3.136 10.542.25 14.809.284 4.249.034 7.574-.01 9.009-.198l-.13-.991c-1.351.176-4.596.223-8.871.189-4.258-.034-9.493-.148-14.791-.284-10.587-.272-21.444-.636-25.207-.636v1Zm48.999.722c2.859-.372 5.904-1.49 8.307-3.175 2.397-1.681 4.219-3.976 4.48-6.721l-.995-.094c-.223 2.343-1.793 4.408-4.059 5.997-2.261 1.585-5.15 2.648-7.863 3.002l.13.991Zm12.787-9.896c.057-.597-.058-1.349-.279-2.186-.224-.848-.568-1.826-.999-2.892-.865-2.134-2.097-4.658-3.477-7.267-2.762-5.219-6.136-10.815-8.402-14.375l-.844.537c2.257 3.545 5.617 9.117 8.362 14.306 1.373 2.595 2.588 5.086 3.434 7.174.423 1.045.75 1.98.959 2.772.212.802.291 1.417.251 1.837l.995.094Zm-13.118-26.646c-.658-1.562-1.856-3.839-3.324-5.59-.733-.874-1.556-1.644-2.436-2.119-.89-.479-1.87-.67-2.861-.32l.333.943c.655-.232 1.337-.128 2.053.258.725.39 1.453 1.055 2.145 1.881 1.383 1.649 2.534 3.829 3.168 5.335l.922-.388Zm-8.621-8.029c-2.145.757-4.744 2.498-7.007 4.486-2.26 1.985-4.259 4.28-5.15 6.19l.906.423c.805-1.724 2.682-3.91 4.904-5.862 2.218-1.948 4.706-3.598 6.68-4.294l-.333-.943Zm-12.157 10.676c-.882 1.89-1.916 5.189-4.743 7.549-2.777 2.319-7.378 3.779-15.509 1.627l-.256.966c8.342 2.209 13.309.761 16.406-1.825 3.048-2.545 4.194-6.151 5.008-7.894l-.906-.423Zm-20.252 9.176c-3.977-1.053-7.22-3.721-9.703-7.099-2.483-3.379-4.184-7.441-5.079-11.217-.9-3.792-.969-7.221-.269-9.354.349-1.064.863-1.726 1.476-2.013.599-.281 1.426-.265 2.555.328l.465-.886c-1.293-.678-2.464-.807-3.444-.348-.965.452-1.61 1.412-2.002 2.607-.784 2.387-.672 6.029.246 9.897.921 3.885 2.672 8.075 5.246 11.578 2.575 3.503 5.993 6.346 10.253 7.473l.256-.966Zm-11.02-29.355c4.79 2.514 7.884 5.434 10.61 7.609 2.706 2.159 5.117 3.637 8.393 2.851l-.234-.972c-2.781.668-4.851-.519-7.535-2.66-2.664-2.125-5.869-5.141-10.769-7.714l-.465.886Zm19.003 10.46c3.095-.743 4.936-2.083 5.564-3.896.622-1.798-.027-3.849-1.393-5.837l-.824.567c1.298 1.888 1.739 3.592 1.272 4.943-.463 1.337-1.892 2.54-4.853 3.251l.234.972Zm4.171-9.733c-1.332-1.936-2.687-3.788-3.904-5.006-.605-.604-1.213-1.091-1.799-1.337-.61-.256-1.262-.272-1.812.186l.64.769c.177-.148.402-.194.785-.033.405.17.902.546 1.479 1.122 1.144 1.145 2.453 2.927 3.787 4.866l.824-.567Zm-7.515-6.157c-.421.351-.78.817-1.022 1.317-.241.497-.384 1.062-.323 1.606.063.564.345 1.086.906 1.431.541.332 1.29.47 2.246.406l-.067-.998c-.844.057-1.358-.078-1.655-.26a.88.88 0 0 1-.437-.69c-.034-.304.044-.677.229-1.058.184-.379.457-.73.763-.985l-.64-.769Zm1.807 4.76c1.025-.069 2.054-.546 2.887-1.209.832-.664 1.518-1.552 1.814-2.503.302-.969.197-2.018-.588-2.881-.761-.835-2.094-1.421-4.085-1.67l-.124.993c1.886.235 2.94.77 3.469 1.35.504.553.59 1.215.373 1.911-.223.715-.766 1.447-1.482 2.017-.716.571-1.557.942-2.331.994l.067.998Zm.028-8.263c-3.88-.485-7.406-.85-10.239-1.002-1.417-.076-2.668-.1-3.708-.057-1.03.042-1.89.15-2.503.354l.316.949c.476-.159 1.222-.263 2.228-.304.997-.041 2.213-.019 3.613.057 2.799.15 6.298.512 10.169.996l.124-.993Zm-16.45-.705c-.61.204-1.455.711-2.342 1.237-.916.544-1.929 1.142-2.944 1.598-1.022.459-1.989.747-2.816.717-.789-.028-1.464-.344-1.975-1.162l-.848.53c.7 1.12 1.69 1.592 2.787 1.632 1.058.038 2.195-.325 3.262-.805 1.075-.483 2.136-1.111 3.044-1.65.938-.556 1.667-.988 2.148-1.148l-.316-.949Zm-10.077 2.39c-1.212-1.939-3.434-5.483-5.174-9.502-1.747-4.037-2.966-8.462-2.268-12.185l-.983-.184c-.756 4.029.568 8.687 2.334 12.766 1.773 4.096 4.032 7.698 5.243 9.635l.848-.53Zm-7.442-21.687c1.45-7.734 6.287-25.87 8.453-31.402l-.932-.365c-2.195 5.61-7.047 23.812-8.504 31.583l.983.184Zm8.453-31.402c2.185-5.586 5.524-14.86 15.52-20.335l-.48-.877c-10.353 5.67-13.797 15.29-15.972 20.847l.932.365Zm15.52-20.335c2.545-1.393 4.505-2.41 6.072-3.045 1.575-.638 2.686-.862 3.553-.744.832.114 1.513.555 2.209 1.444.71.907 1.401 2.236 2.25 4.056l.906-.423c-.846-1.814-1.579-3.24-2.368-4.249-.803-1.026-1.696-1.66-2.862-1.819-1.132-.154-2.444.152-4.063.808-1.628.66-3.634 1.702-6.177 3.095l.48.877Zm14.084 1.71c1.72 3.686 3.88 6.536 6.036 8.348 2.13 1.79 4.369 2.655 6.192 2.094l-.294-.956c-1.326.408-3.206-.181-5.254-1.903-2.023-1.7-4.102-4.423-5.774-8.005l-.906.423Zm12.228 10.442c1.091-.336 1.692-1.039 1.831-1.889.131-.806-.17-1.644-.651-2.282l-.798.603c.366.485.538 1.053.462 1.518-.069.421-.355.853-1.138 1.094l.294.956Zm1.18-4.17c-.643-.853-1.769-1.533-2.939-1.143l.317.949c.595-.199 1.314.12 1.824.796l.798-.603Zm-2.939-1.143c-.3.1-.56.226-.745.397-.2.183-.343.455-.276.775.058.274.25.465.409.584.17.128.378.23.592.308.429.158.963.252 1.468.239.487-.013 1.052-.128 1.438-.499l-.692-.721c-.119.114-.378.21-.772.22a3.115 3.115 0 0 1-1.097-.177 1.397 1.397 0 0 1-.338-.17c-.079-.06-.044-.064-.029.01.025.119-.045.184-.026.167.034-.032.14-.102.385-.184l-.317-.949Zm2.83-.78c.648.345 1.686.733 2.698.737.512.002 1.045-.093 1.517-.37.481-.281.862-.73 1.093-1.364l-.94-.342c-.157.432-.393.688-.658.843-.275.16-.617.235-1.007.233-.793-.003-1.669-.319-2.232-.62l-.471.883Zm5.308-.997c.251-.689.498-1.572.751-2.504.255-.94.517-1.937.802-2.882.286-.947.587-1.819.915-2.507.34-.712.663-1.131.944-1.291l-.496-.869c-.567.324-1.001.996-1.35 1.73-.361.757-.68 1.687-.97 2.648-.291.963-.558 1.98-.81 2.91-.255.937-.492 1.78-.726 2.423l.94.342Zm3.412-9.184c.817-.467 2.273-1.105 3.496-1.304.621-.1 1.097-.074 1.395.063a.632.632 0 0 1 .296.257c.067.112.121.284.121.55h1c0-.401-.082-.76-.26-1.06a1.641 1.641 0 0 0-.738-.655c-.573-.264-1.294-.253-1.974-.142-1.382.225-2.954.92-3.832 1.422l.496.869Zm5.308-.434c0 1.244-.522 3.54-1.298 5.542-.387.995-.824 1.885-1.268 2.516-.222.316-.434.548-.626.698-.193.15-.333.191-.426.191v1c.392 0 .743-.17 1.04-.402.298-.232.575-.55.83-.912.51-.724.981-1.697 1.382-2.73.798-2.056 1.366-4.483 1.366-5.904h-1Zm-3.618 8.947c-.596 0-1.179.204-1.708.487-.533.285-1.04.666-1.495 1.058-.894.77-1.674 1.671-1.996 1.993l.707.707c.405-.404 1.079-1.199 1.942-1.943.423-.365.869-.696 1.313-.933.447-.24.864-.369 1.237-.369v-1Zm-5.199 3.538c-.554.554-2.928 2.452-4.073 3.352l.618.786c1.116-.877 3.554-2.823 4.162-3.43l-.707-.708Zm-3.764 4.245c.542 0 1.401-.037 2.229-.15a9.086 9.086 0 0 0 1.201-.237c.36-.1.72-.24.988-.44l-.6-.8c-.12.09-.338.188-.658.277a8.091 8.091 0 0 1-1.066.209c-.774.105-1.587.141-2.094.141v1Zm4.418-.827c.23-.172.712-.494 1.358-.932a75.784 75.784 0 0 0 2.21-1.547c.794-.58 1.609-1.21 2.322-1.838.706-.622 1.336-1.262 1.736-1.862l-.832-.554c-.327.49-.879 1.061-1.565 1.666-.681.6-1.47 1.21-2.251 1.78-.78.57-1.547 1.096-2.181 1.527-.625.424-1.142.769-1.397.96l.6.8Zm7.626-6.179c.391-.586.832-1.537 1.299-2.569.477-1.051.992-2.217 1.545-3.293.556-1.082 1.13-2.032 1.707-2.662.594-.647 1.061-.822 1.442-.718l.263-.965c-.952-.26-1.786.293-2.442 1.008-.672.733-1.295 1.781-1.859 2.88-.567 1.104-1.096 2.3-1.566 3.337-.479 1.058-.886 1.924-1.221 2.428l.832.554Zm5.993-9.242c.62.169 1.024.378 1.319.685.298.31.533.768.719 1.525.379 1.547.499 4.085.743 8.478l.999-.055c-.241-4.328-.363-6.998-.771-8.661-.208-.848-.502-1.495-.969-1.98-.47-.488-1.065-.763-1.777-.957l-.263.965Zm2.781 10.688c.243 4.364.302 8.265.454 11.713.152 3.422.395 6.377 1.015 8.735l.968-.254c-.591-2.244-.832-5.104-.984-8.525-.15-3.395-.212-7.368-.454-11.724l-.999.055Zm1.469 20.448c.63 2.393 1.589 3.614 2.212 4.593.309.485.518.884.609 1.34.09.45.074 1.003-.153 1.797l.961.275c.258-.902.302-1.621.173-2.268-.129-.642-.419-1.167-.746-1.68-.649-1.02-1.507-2.1-2.088-4.311l-.968.254Zm2.668 7.73c-.448 1.567-1.758 3.122-2.854 4.31-.522.566-1.025 1.078-1.285 1.416a1.935 1.935 0 0 0-.185.279.728.728 0 0 0-.087.45c.02.12.078.24.18.332a.617.617 0 0 0 .277.142c.144.034.291.018.399 0l-.165-.986c-.074.012-.061 0-.009.012a.426.426 0 0 1 .305.338c.022.135-.033.213-.012.172a.896.896 0 0 1 .088-.129c.225-.29.661-.732 1.229-1.348 1.083-1.174 2.559-2.889 3.08-4.713l-.961-.275Zm-3.555 6.929c.438-.073 1.025-.314 1.611-.584.6-.277 1.262-.616 1.861-.916.611-.305 1.146-.564 1.525-.704.2-.075.301-.094.329-.095.017 0-.063.009-.161-.056a.393.393 0 0 1-.176-.318h1a.609.609 0 0 0-.269-.514.723.723 0 0 0-.427-.111c-.203.007-.435.079-.644.156-.439.162-1.024.448-1.624.748-.612.306-1.252.633-1.833.902-.596.275-1.069.458-1.357.506l.165.986Zm4.989-2.673c0-.055.014-.065-.013.003a2.2 2.2 0 0 1-.115.232c-.112.2-.281.46-.498.764a21.073 21.073 0 0 1-1.721 2.08c-.684.728-1.431 1.422-2.144 1.93-.733.522-1.351.789-1.792.789v1c.77 0 1.606-.43 2.372-.975.786-.56 1.583-1.304 2.293-2.06a22.066 22.066 0 0 0 1.806-2.182c.229-.32.42-.614.557-.858.067-.122.126-.239.169-.346.038-.093.086-.232.086-.377h-1Zm-6.283 5.798c-.612 0-1.3.03-1.942.046-.655.015-1.279.014-1.821-.043-.551-.058-.957-.17-1.214-.333-.221-.141-.337-.32-.337-.623h-1c0 .665.308 1.152.799 1.466.455.29 1.049.421 1.648.484.609.064 1.287.064 1.948.048.676-.015 1.32-.045 1.919-.045v-1Zm-5.314-.953c0-.192.045-.533.136-1.038.089-.495.215-1.11.365-1.832.299-1.441.687-3.29 1.037-5.375.699-4.165 1.253-9.309.638-14.106l-.991.127c.596 4.651.06 9.681-.633 13.813-.347 2.064-.731 3.894-1.03 5.338-.15.72-.279 1.348-.37 1.857-.09.499-.152.923-.152 1.216h1Zm2.176-22.35c-.6-4.684-.177-7.924-.177-10.142 0-1.069-.096-2.01-.604-2.67-.538-.7-1.422-.948-2.621-.948v1c1.102 0 1.58.235 1.829.558.279.362.396.98.396 2.06 0 2.082-.425 5.504.186 10.268l.991-.127Zm-3.402-13.76c-1.265 0-2.262.403-2.989 1.135-.717.72-1.127 1.715-1.319 2.822-.384 2.204.066 5.02.926 7.601l.949-.316c-.835-2.506-1.234-5.14-.89-7.114.171-.982.518-1.76 1.043-2.288.514-.518 1.243-.84 2.28-.84v-1Zm-3.382 11.558c1.66 4.979 1.666 11.172-.005 16.902l.96.28c1.72-5.899 1.726-12.302-.006-17.498l-.949.316Zm-.005 16.902c-1.723 5.905-.747 11.88-.747 13.221h1c0-1.566-.963-7.218.707-12.941l-.96-.28Zm-.747 13.221c0 .673-.065 1.735.134 2.596.102.441.284.89.625 1.233.356.355.837.547 1.437.547v-1c-.37 0-.585-.11-.729-.255-.158-.157-.279-.404-.359-.75-.165-.714-.108-1.59-.108-2.37h-1Zm2.196 4.376c.579 0 1.284-.194 1.976-.471a12.049 12.049 0 0 0 2.084-1.095c.642-.423 1.227-.903 1.61-1.38.191-.238.353-.502.431-.78a1.127 1.127 0 0 0-.101-.907l-.857.514c.003.007.021.032-.004.121-.028.1-.103.244-.249.426-.291.363-.781.776-1.38 1.17a11.07 11.07 0 0 1-1.906 1.003c-.648.26-1.214.4-1.604.4v1Zm6-4.633c-.475-.791-1.328-1.151-2.215-1.151-.886 0-1.845.351-2.652 1.024l.64.768c.646-.538 1.383-.792 2.012-.792.626 0 1.106.246 1.358.665l.857-.514Zm-4.867-.127c-.459.383-.759.986-.992 1.458-.125.254-.233.48-.347.678a1.75 1.75 0 0 1-.311.42c-.084.076-.145.095-.199.096-.066.002-.198-.02-.419-.166-.458-.298-1.123-1-2.089-2.387l-.821.57c.973 1.4 1.731 2.242 2.363 2.655.324.21.654.336.989.328.347-.008.627-.156.845-.353.21-.188.373-.43.508-.664.135-.234.261-.497.379-.735.252-.513.467-.909.734-1.132l-.64-.768Zm-4.357.099c-1.859-2.674-2.451-6.01-2.363-8.6.044-1.297.258-2.368.541-3.05.144-.348.288-.549.396-.642.05-.042.076-.049.079-.05.001 0 .001 0 0 0h-.001.001l.002.001.011.004.394-.919c-.426-.182-.833-.055-1.137.205-.28.24-.499.607-.669 1.017-.344.831-.57 2.031-.617 3.4-.093 2.74.526 6.306 2.542 9.205l.821-.571Zm-1.334-12.337c-.043-.018-.02-.03.036.074.053.098.109.251.162.471.105.438.176 1.054.215 1.808.078 1.502.026 3.464-.079 5.458a188.05 188.05 0 0 1-.397 5.587c-.13 1.565-.24 2.77-.24 3.1h1c0-.275.102-1.402.237-3.017.132-1.59.292-3.61.398-5.617.107-2.002.161-4.007.08-5.563-.04-.776-.115-1.462-.242-1.99a2.999 2.999 0 0 0-.253-.71c-.105-.196-.268-.41-.523-.52l-.394.92Zm-.303 16.498c0 .305.032.715.042 1.016.011.339.001.63-.057.862-.056.222-.144.349-.265.426-.129.082-.379.16-.86.106l-.111.994c.609.068 1.116-.007 1.509-.257.402-.256.601-.644.697-1.027.093-.373.098-.78.086-1.137-.012-.395-.041-.682-.041-.983h-1Zm-1.14 2.41c-.511-.057-.997-.17-1.515-.29-.508-.116-1.047-.237-1.617-.286-1.173-.101-2.437.11-3.984 1.142l.555.832c1.36-.907 2.398-1.06 3.344-.978.49.042.965.148 1.479.265.504.116 1.048.245 1.627.31l.111-.995Zm-7.116.566c-2.914 1.943-7.434 5.756-17.489 7.432l.165.987c10.294-1.716 14.979-5.654 17.879-7.587l-.555-.832Zm-17.489 7.432c-2.563.427-4.502.901-6.023 1.305-1.539.408-2.593.729-3.456.876-.835.141-1.411.102-1.979-.164-.594-.28-1.234-.834-2.135-1.855l-.75.662c.916 1.039 1.669 1.726 2.46 2.098.818.384 1.62.406 2.571.245.923-.157 2.065-.502 3.546-.896 1.5-.398 3.407-.864 5.931-1.284l-.165-.987Zm-13.593.163c-1.758-1.993-3.538-5.247-4.368-9.013-.829-3.76-.706-8 1.291-11.993l-.894-.447c-2.122 4.242-2.241 8.724-1.374 12.655.865 3.925 2.72 7.334 4.595 9.459l.75-.661Zm-3.077-21.006c3.295-6.59 5.23-9.65 5.761-10.333l-.789-.614c-.599.77-2.572 3.91-5.866 10.5l.894.447Zm5.828-10.446 1.938-4.603-.922-.388-1.938 4.603.922.388Zm.98-4.858a89.807 89.807 0 0 1-1.137 6.894c-.544 2.618-1.219 5.115-1.957 6.498l.883.47c.813-1.525 1.51-4.154 2.053-6.765.546-2.63.948-5.309 1.151-6.975l-.993-.122Zm-3.094 13.392c-1.951 3.658-2.995 6.704-2.226 10.037l.974-.225c-.684-2.965.21-5.733 2.135-9.342l-.883-.47Zm-2.226 10.037c.359 1.557.781 4.023 1.175 6.331.391 2.282.76 4.44 1.012 5.322l.961-.275c-.232-.814-.59-2.895-.987-5.216-.392-2.294-.819-4.795-1.187-6.387l-.974.225Zm2.187 11.653c.238.833.384 1.629.179 2.398-.199.748-.757 1.561-2.131 2.362l.504.864c1.534-.895 2.308-1.898 2.593-2.968.28-1.047.063-2.068-.184-2.93l-.961.274Zm-1.952 4.76c-1.42.828-3.194 1.538-4.822 2.244-.804.349-1.572.698-2.219 1.055-.637.351-1.205.736-1.569 1.173l.768.641c.241-.29.673-.602 1.284-.939.602-.332 1.333-.665 2.134-1.012 1.582-.687 3.441-1.431 4.928-2.298l-.504-.864Zm-8.61 4.472c-.38.456-.689 1.231-.885 2.147-.199.933-.293 2.071-.199 3.299.189 2.457 1.136 5.309 3.546 7.592l.688-.726c-2.193-2.077-3.062-4.676-3.237-6.943a10.739 10.739 0 0 1 .18-3.014c.183-.855.449-1.443.675-1.714l-.768-.641Zm2.462 13.038c1.884 1.784 3.476 2.611 4.737 2.887 1.254.274 2.208.004 2.722-.454l-.664-.747c-.212.188-.809.451-1.844.224-1.029-.225-2.464-.932-4.263-2.636l-.688.726Zm7.16 2.558c1.014-.067 3.905.59 6.337 4.144l.826-.564c-2.607-3.81-5.821-4.671-7.229-4.577l.066.997Zm6.337 4.144c.782 1.143 1.42 2.168 1.875 3.06.46.901.714 1.629.765 2.185.05.535-.087.853-.355 1.063-.307.241-.88.42-1.872.42v1c1.067 0 1.917-.185 2.489-.633.61-.478.805-1.175.734-1.942-.069-.746-.391-1.608-.87-2.547-.483-.947-1.148-2.012-1.94-3.17l-.826.564Zm.413 6.728c-1.88 0-3.884-1.119-5.418-2.506-.76-.686-1.379-1.417-1.791-2.065a4.53 4.53 0 0 1-.441-.869c-.09-.256-.106-.43-.091-.53l-.99-.142c-.047.324.021.672.139 1.005.12.34.305.703.539 1.071.467.737 1.149 1.536 1.964 2.272 1.616 1.46 3.851 2.764 6.089 2.764v-1Zm-7.741-5.97a.7.7 0 0 1 .367-.548c.215-.121.537-.184.937-.146.8.078 1.762.552 2.403 1.408l.8-.6c-.812-1.083-2.03-1.699-3.107-1.803-.539-.052-1.081.021-1.524.27-.46.259-.783.694-.866 1.277l.99.142Zm3.707.714c.357.475.878 1.235 1.504 2.132.622.89 1.338 1.904 2.072 2.867.731.96 1.489 1.882 2.195 2.584.352.35.702.656 1.037.885.328.225.682.404 1.04.449l.124-.993c-.127-.016-.325-.094-.599-.281a6.706 6.706 0 0 1-.897-.769c-.657-.654-1.383-1.534-2.105-2.481a85.383 85.383 0 0 1-2.047-2.833c-.615-.882-1.154-1.667-1.524-2.16l-.8.6Zm7.848 8.917c.973.121 5.176.782 9.412 1.361 2.106.288 4.211.554 5.897.718.843.082 1.588.139 2.179.16.296.01.559.012.781.002.213-.009.419-.03.583-.077l-.274-.961a1.805 1.805 0 0 1-.352.039 9.244 9.244 0 0 1-.702-.003 35.477 35.477 0 0 1-2.118-.155c-1.667-.162-3.756-.426-5.859-.713-4.182-.572-8.458-1.243-9.423-1.364l-.124.993Zm18.852 2.164c.522-.149.99-.499 1.006-1.087.015-.517-.342-.969-.778-1.304-.906-.697-2.604-1.255-4.968-1.255v1c2.239 0 3.69.533 4.359 1.048.352.271.388.454.388.483l-.001.004c0 .001-.003.008-.017.022a.627.627 0 0 1-.263.128l.274.961Zm-4.74-3.646c-2.267 0-5.259-.358-7.85-.632-1.286-.136-2.475-.252-3.407-.286a9.38 9.38 0 0 0-1.221.017c-.17.017-.332.042-.476.081-.14.037-.295.095-.427.194l.6.8c-.011.009.006-.007.085-.028.074-.02.178-.038.315-.051a8.41 8.41 0 0 1 1.087-.014c.893.033 2.05.145 3.338.281 2.557.271 5.621.638 7.956.638v-1Zm-13.381-.626a.757.757 0 0 0-.299.49.934.934 0 0 0 .063.489c.099.258.298.52.51.759.435.492 1.098 1.074 1.758 1.645.674.582 1.354 1.158 1.869 1.666.257.253.458.475.591.659.149.206.153.283.153.264h1c0-.322-.178-.624-.343-.851a6.728 6.728 0 0 0-.699-.785c-.545-.537-1.259-1.142-1.917-1.71-.672-.581-1.281-1.119-1.663-1.551-.197-.222-.294-.373-.327-.457-.015-.038.001-.022-.008.03a.248.248 0 0 1-.088.152l-.6-.8Zm4.645 5.972c0 .143-.106.445-.377.827a4.04 4.04 0 0 1-.978.97c-.382.258-.712.358-.947.33-.182-.022-.417-.135-.61-.617l-.928.371c.291.729.783 1.162 1.419 1.238.582.071 1.16-.178 1.627-.495a5.04 5.04 0 0 0 1.232-1.218c.304-.428.562-.943.562-1.406h-1Zm-2.912 1.51c-.109-.273-.135-.441-.132-.534a.208.208 0 0 1 .011-.067l.008-.01c.017-.014.08-.055.246-.081a3.31 3.31 0 0 1 .648-.016c.552.029 1.231.131 2.031.231.784.099 1.657.194 2.538.194v-1c-.815 0-1.638-.088-2.413-.186-.76-.096-1.503-.206-2.103-.238a4.194 4.194 0 0 0-.856.028c-.256.04-.53.125-.748.314-.501.437-.41 1.108-.158 1.736l.928-.371Zm5.35-.283c1.916 0 3.74-1.288 5.141-3 1.413-1.727 2.482-3.986 2.861-6.134l-.985-.174c-.347 1.969-1.338 4.072-2.65 5.675-1.324 1.618-2.892 2.633-4.367 2.633v1Zm8.002-9.134c.692-3.921 3.94-7.656 8.379-9.058l-.301-.954c-4.767 1.506-8.301 5.522-9.063 9.838l.985.174Zm8.379-9.058c1.14-.36 2.263-.659 3.315-.953 1.043-.291 2.022-.578 2.838-.907.807-.326 1.521-.719 1.98-1.256.489-.573.659-1.275.435-2.095l-.965.263c.14.512.037.87-.23 1.182-.298.349-.826.668-1.594.978-.758.306-1.687.58-2.733.872-1.038.289-2.186.596-3.347.962l.301.954Zm8.568-5.211c-.211-.773-.661-1.418-1.17-1.971-.506-.55-1.103-1.043-1.621-1.487-.536-.459-.981-.861-1.27-1.266-.277-.389-.374-.73-.293-1.092l-.977-.217c-.161.727.075 1.355.456 1.89.37.519.909.995 1.433 1.444.541.464 1.08.91 1.536 1.405.452.491.789.997.941 1.557l.965-.263Zm-4.354-5.816c.102-.463.415-1.133.887-1.923a27.022 27.022 0 0 1 1.687-2.455 32.045 32.045 0 0 1 1.869-2.239c.596-.644 1.092-1.105 1.402-1.312l-.555-.832c-.416.278-.981.816-1.581 1.466-.61.66-1.286 1.466-1.93 2.31a28.127 28.127 0 0 0-1.751 2.549c-.482.807-.865 1.591-1.005 2.219l.977.217Zm5.845-7.929a71.964 71.964 0 0 1 2.645-1.683l-.515-.858c-.41.246-1.515.929-2.685 1.709l.555.832Zm1.978-2.399c-.859 1.228-2.076 3.18-2.934 5.057-.429.937-.778 1.877-.942 2.709-.16.808-.17 1.637.236 2.246l.832-.555c-.176-.263-.235-.748-.087-1.497.143-.723.457-1.583.87-2.487.826-1.805 2.007-3.704 2.844-4.899l-.819-.574Zm-3.64 10.012c.429.644 1.071 1.1 1.734 1.457.66.356 1.399.642 2.031.907.659.275 1.191.523 1.548.812.332.27.456.525.42.852l.993.11c.085-.764-.275-1.326-.783-1.738-.484-.393-1.148-.689-1.792-.959-.669-.28-1.339-.539-1.943-.864-.601-.324-1.079-.685-1.376-1.132l-.832.555Zm5.733 4.028c-.021.186-.112.461-.289.817-.172.347-.41.739-.691 1.151a21.068 21.068 0 0 1-1.947 2.408c-.333.356-.648.665-.921.906-.282.248-.491.397-.612.457-.074.036-.044.004.045.012a.395.395 0 0 1 .225.103.37.37 0 0 1 .111.19c.013.061-.006.066.024-.041a2.99 2.99 0 0 1 .161-.409l-.908-.419c-.097.21-.17.396-.216.558-.04.145-.078.336-.038.522a.63.63 0 0 0 .185.332.618.618 0 0 0 .363.16c.2.019.381-.057.491-.112.245-.121.535-.344.829-.603.304-.266.643-.6.991-.972a22.022 22.022 0 0 0 2.043-2.528c.298-.436.562-.869.761-1.271.195-.394.347-.792.386-1.151l-.993-.11Zm-3.894 5.594c.35-.759.783-1.491 1.278-2.09.498-.601 1.038-1.04 1.597-1.256.542-.21 1.127-.22 1.774.081.664.309 1.419.961 2.239 2.131l.819-.573c-.876-1.252-1.755-2.054-2.636-2.464-.898-.418-1.766-.414-2.556-.108-.774.299-1.445.873-2.007 1.551-.564.682-1.04 1.493-1.416 2.309l.908.419Zm6.888-1.134c1.669 2.384 5.89 10.399 9.772 18.255 1.937 3.918 3.781 7.781 5.171 10.859a102.858 102.858 0 0 1 1.695 3.928c.428 1.071.669 1.789.719 2.116l.989-.153c-.071-.46-.361-1.287-.78-2.334a104.635 104.635 0 0 0-1.712-3.969c-1.396-3.092-3.246-6.966-5.185-10.89-3.87-7.83-8.127-15.925-9.85-18.385l-.819.573Zm17.357 35.158c.229 1.485.119 5.213-1.305 8.951-1.418 3.722-4.112 7.39-9.007 8.906l.295.955c5.279-1.634 8.157-5.596 9.646-9.505 1.483-3.893 1.615-7.796 1.36-9.46l-.989.153Zm-10.312 17.857c-5.091 1.575-13.392 4.989-21.518 7.848-4.082 1.437-8.137 2.74-11.769 3.624-3.645.886-6.817 1.338-9.151 1.105l-.1.995c2.51.251 5.819-.236 9.487-1.129 3.68-.895 7.771-2.211 11.865-3.651 8.225-2.894 16.397-6.264 21.481-7.837l-.295-.955Zm-42.438 12.577c-4.686-.469-7.386-2.799-8.637-5.045-.631-1.133-.887-2.232-.861-3.06.028-.869.342-1.25.628-1.336l-.287-.957c-.924.277-1.308 1.259-1.34 2.26-.034 1.042.285 2.32.986 3.579 1.414 2.538 4.407 5.053 9.411 5.554l.1-.995Zm-8.87-9.441c.552-.165 2.028-.373 4.121-.606 2.069-.23 4.684-.48 7.47-.737 5.565-.514 11.815-1.06 15.702-1.546l-.124-.993c-3.866.484-10.091 1.028-15.67 1.543-2.786.257-5.409.508-7.489.739-2.055.229-3.638.445-4.297.643l.287.957Zm27.293-2.889c3.952-.494 10.192-2.761 13.602-4.727.852-.491 1.563-.983 2.019-1.446.226-.23.422-.484.523-.756.109-.292.114-.626-.084-.927-.178-.273-.474-.441-.79-.552-.324-.113-.734-.188-1.223-.231-.981-.085-2.367-.048-4.226.135l.098.995c1.835-.18 3.151-.211 4.041-.133.446.038.764.103.98.178.223.078.279.148.284.156l-.003-.006-.002-.011c0-.004.002.01-.012.047-.031.083-.116.218-.298.403-.361.366-.978.805-1.807 1.282-3.312 1.91-9.426 4.125-13.226 4.6l.124.993Zm9.821-8.504c-7.406.729-17.596 2.245-26.056 3.852-4.229.804-8.036 1.632-10.852 2.397-1.406.383-2.578.753-3.435 1.102a7.252 7.252 0 0 0-1.074.523c-.259.162-.532.375-.658.657l.914.406c-.004.01.039-.068.273-.214.212-.133.518-.282.921-.446.803-.326 1.93-.684 3.322-1.063 2.779-.755 6.557-1.578 10.776-2.379 8.436-1.603 18.596-3.114 25.967-3.84l-.098-.995Zm-42.075 8.531c-.543 1.223-.587 3.036-.278 4.888.312 1.871.997 3.872 2.005 5.509l.852-.524c-.93-1.511-1.577-3.386-1.871-5.149-.297-1.781-.219-3.36.206-4.318l-.914-.406Zm1.727 10.397c.494.803 1.218 1.82 1.919 2.829.71 1.021 1.399 2.036 1.853 2.871.228.42.383.769.456 1.034.083.299.023.348.05.31.052-.073.073.019-.256-.022-.306-.038-.777-.178-1.459-.475l-.398.917c.71.309 1.285.495 1.733.55.425.053.91.007 1.192-.387.259-.36.197-.817.102-1.159-.103-.375-.301-.802-.542-1.245-.484-.891-1.204-1.95-1.91-2.965-.714-1.028-1.413-2.01-1.888-2.782l-.852.524Zm2.563 6.547c-2.528-1.099-3.401-3.749-4.01-6.581-.295-1.371-.533-2.807-.889-3.973-.354-1.16-.872-2.227-1.846-2.751l-.474.88c.601.324 1.022 1.044 1.364 2.163.34 1.113.556 2.447.867 3.892.602 2.8 1.546 5.964 4.59 7.287l.398-.917Zm-6.745-13.305c-1.675-.902-3.853-1.224-5.634-.868-.894.179-1.724.536-2.338 1.115-.625.589-1.001 1.386-1.001 2.373h1c0-.708.26-1.243.687-1.646.438-.413 1.077-.707 1.848-.861 1.549-.31 3.49-.026 4.964.767l.474-.88Zm-8.973 2.62c0 3.437.961 7.93-2.152 16.792l.943.332c3.185-9.065 2.209-13.777 2.209-17.124h-1Zm-2.152 16.792c-1.611 4.583-1.608 9.765-.775 13.743.416 1.988 1.046 3.709 1.812 4.916.743 1.171 1.734 2.032 2.897 1.866l-.142-.99c-.533.076-1.207-.304-1.911-1.412-.679-1.071-1.276-2.666-1.677-4.585-.803-3.834-.8-8.827.739-13.206l-.943-.332Zm3.934 20.525c1.705-.244 3.72-.621 5.416-2.187 1.698-1.567 2.998-4.248 3.489-8.914l-.995-.105c-.478 4.539-1.722 6.945-3.173 8.285-1.453 1.341-3.193 1.69-4.879 1.931l.142.99Zm8.905-11.101c.241-2.294.496-3.902.786-5.056.291-1.155.609-1.82.955-2.256.34-.428.738-.676 1.286-.945.539-.264 1.252-.559 2.067-1.06l-.524-.852c-.76.468-1.379.719-1.983 1.014-.596.292-1.151.62-1.629 1.221-.471.593-.834 1.412-1.142 2.634-.307 1.223-.568 2.886-.811 5.195l.995.105Zm5.094-9.317c.83-.51 1.33-1.039 1.534-1.577.217-.573.072-1.09-.237-1.447-.287-.331-.719-.531-1.124-.525a.966.966 0 0 0-.641.239.926.926 0 0 0-.294.704h1c0-.037.008-.002-.035.037-.034.031-.052.021-.014.02a.52.52 0 0 1 .352.18c.085.097.136.231.058.438-.091.241-.378.621-1.123 1.079l.524.852Zm-.762-2.606c0 .497-.276 2.035.888 3.305 1.156 1.261 3.596 2.162 8.587 2.04l-.024-1c-4.941.121-6.983-.796-7.825-1.715-.834-.91-.626-1.915-.626-2.63h-1Zm9.475 5.345c9.955-.243 17.541-.972 26.592-4.886l-.397-.918c-8.876 3.838-16.31 4.562-26.219 4.804l.024 1Zm26.592-4.886c8.846-3.825 21.341-4.804 38.276-3.352l.085-.997c-16.979-1.455-29.679-.495-38.758 3.431l.397.918Zm38.276-3.352c8.346.715 11.161 4.002 16.174 6.607 5.027 2.612 11.953 4.299 28.121 1.624l-.164-.986c-16.051 2.655-22.732.95-27.496-1.525-4.777-2.483-7.939-5.978-16.55-6.717l-.085.997Z" fill="#131441"/><path d="m192.177 30.491-.017.5h.017v-.5Zm.018-.5c-6.836-.244-10.387 0-14.934-.958l-.206.979c4.659.98 8.375.739 15.105.979l.035-1Zm-14.934-.958c-1.161-.244-1.995-.408-2.638-.555-.643-.146-1.043-.265-1.337-.406-.547-.261-.774-.607-1.526-1.734l-.832.555c.702 1.053 1.08 1.677 1.926 2.081.402.192.896.33 1.547.48.652.148 1.514.318 2.654.558l.206-.979Zm-5.501-2.695c-.347-.521-.788-1.342-1.283-2.252-.486-.893-1.019-1.86-1.534-2.625a7.286 7.286 0 0 0-.782-.998c-.248-.254-.556-.501-.909-.572a.945.945 0 0 0-.592.068 1.133 1.133 0 0 0-.447.395c-.216.313-.355.768-.449 1.334l.986.165c.088-.525.198-.804.287-.933.04-.058.059-.061.046-.055-.018.008-.034.005-.027.007.044.009.174.07.389.29.201.206.426.498.668.858.485.719.996 1.644 1.486 2.544.482.885.95 1.76 1.329 2.329l.832-.555Zm-5.996-4.65c-.192 1.149-.158 2.226-.073 3.156.042.464.099.898.146 1.28.049.39.088.72.102 1.001.015.287 0 .479-.035.604-.031.108-.065.13-.087.141-.042.023-.161.06-.436.028-.27-.032-.639-.124-1.138-.3l-.333.943c.531.187.979.306 1.355.35.37.044.725.02 1.023-.138.319-.17.493-.452.578-.752.08-.284.088-.607.072-.926a14.95 14.95 0 0 0-.108-1.074c-.049-.39-.103-.804-.143-1.248-.081-.886-.109-1.869.063-2.9l-.986-.165Zm-1.521 5.91c-1.045-.37-1.839-.645-2.424-.94-.582-.295-.856-.563-.97-.859-.118-.303-.117-.762.157-1.552.272-.783.783-1.81 1.568-3.2l-.871-.491c-.789 1.396-1.338 2.49-1.641 3.363-.302.868-.392 1.606-.146 2.241.249.642.793 1.056 1.452 1.39.657.332 1.528.633 2.542.99l.333-.942Zm-1.669-6.55c1.621-2.868 2.007-6.08 2.655-8.822.658-2.779 1.585-5.155 4.195-6.743l-.52-.855c-2.962 1.803-3.973 4.515-4.648 7.368-.683 2.89-1.024 5.856-2.553 8.56l.871.492Zm6.85-15.565c2.76-1.68 5.249-2.862 8.142-3.481 2.894-.62 6.224-.685 10.668-.085l.134-.99c-4.518-.611-7.971-.555-11.012.097-3.043.652-5.64 1.893-8.452 3.604l.52.855Zm18.81-3.566c4.386.593 7.048 2.182 8.678 4.126 1.637 1.954 2.283 4.326 2.52 6.575l.994-.105c-.247-2.354-.934-4.948-2.748-7.112-1.822-2.174-4.732-3.856-9.31-4.475l-.134.991Zm11.198 10.7c.246 2.337 1.108 5.549 1.704 8.32.302 1.405.538 2.7.611 3.756.036.528.031.98-.021 1.345-.053.37-.148.614-.259.762l.8.6c.252-.336.384-.766.449-1.222.066-.46.068-.987.028-1.554-.078-1.131-.327-2.485-.63-3.897-.616-2.861-1.449-5.948-1.688-8.214l-.994.105Zm2.035 14.183c-.304.405-.826.819-1.528 1.211-.696.39-1.535.74-2.436 1.036-1.808.593-3.814.944-5.326.944v1c1.639 0 3.751-.375 5.637-.993.946-.31 1.847-.686 2.613-1.114.759-.425 1.417-.92 1.84-1.484l-.8-.6ZM190.481 89.601l.23.445.009-.005.008-.005-.247-.435Zm-8.963 8.237-.474-.158.474.158Zm8.734-8.681a30.902 30.902 0 0 0-5.072 3.352c-1.796 1.473-3.508 3.285-4.136 5.17l.949.317c.534-1.603 2.053-3.263 3.821-4.713a29.883 29.883 0 0 1 4.897-3.237l-.459-.889Zm-9.208 8.523c-.795 2.384.065 5.07 1.804 6.645.878.795 1.993 1.32 3.249 1.371 1.258.05 2.612-.377 3.961-1.404l-.606-.796c-1.195.91-2.325 1.24-3.315 1.2-.992-.04-1.89-.453-2.618-1.112-1.47-1.332-2.185-3.612-1.526-5.588l-.949-.316Zm9.014 6.612c5.088-3.877 8.503-6.56 12.162-10.219l-.707-.707c-3.607 3.608-6.975 6.255-12.061 10.13l.606.796Zm12.162-10.219c1.778-1.778 5.415-4.223 8.597-6.487 1.573-1.12 3.032-2.193 4.054-3.099.509-.45.932-.88 1.208-1.269.138-.194.255-.4.319-.61a1.032 1.032 0 0 0-.021-.713l-.919.394c-.015-.035.003-.039-.017.027-.021.07-.073.177-.178.324-.208.294-.564.664-1.055 1.099-.977.865-2.395 1.911-3.971 3.032-3.116 2.218-6.868 4.74-8.724 6.595l.707.707Zm14.157-12.178a1.057 1.057 0 0 0-.276-.4.647.647 0 0 0-.297-.142.603.603 0 0 0-.363.046.762.762 0 0 0-.349.354 1.523 1.523 0 0 0-.126.371c-.103.488-.07 1.237.273 1.848.178.316.446.606.83.786.383.18.84.232 1.363.143 1.023-.175 2.365-.9 4.141-2.43l-.653-.758c-1.736 1.497-2.908 2.074-3.656 2.202-.363.062-.606.015-.769-.062a.854.854 0 0 1-.384-.371c-.202-.358-.23-.85-.166-1.15.015-.07.03-.11.037-.123.014-.028-.013.048-.124.099a.393.393 0 0 1-.235.028.352.352 0 0 1-.163-.074c-.044-.036-.036-.052-.002.027l.919-.394Zm5.196.575c3.538-3.05 5.963-6.075 6.945-8.324.48-1.098.677-2.152.299-2.934-.417-.862-1.373-1.132-2.538-1.003l.11.994c1.015-.113 1.391.162 1.527.444.175.36.145 1.047-.314 2.1-.896 2.05-3.194 4.96-6.682 7.966l.653.757Zm4.706-12.26c-2.282.253-5.08 1.443-7.296 2.828-1.112.695-2.101 1.453-2.818 2.191a5.874 5.874 0 0 0-.875 1.111c-.212.365-.357.756-.357 1.15h1c0-.153.059-.367.222-.647.16-.276.404-.585.726-.917.645-.662 1.564-1.373 2.632-2.04 2.145-1.34 4.798-2.452 6.876-2.683l-.11-.994Zm-11.346 7.28c0 .59.092 1.264.33 1.849.235.58.646 1.145 1.325 1.361.68.217 1.473.032 2.355-.53.886-.566 1.933-1.554 3.177-3.093l-.778-.629c-1.212 1.501-2.181 2.396-2.936 2.878-.759.484-1.234.51-1.515.421-.282-.09-.524-.346-.702-.784-.176-.434-.256-.974-.256-1.474h-1Zm7.187-.413c4.874-6.033 13-12.76 18.094-16.883l-.629-.778c-5.08 4.113-13.291 10.904-18.243 17.032l.778.629Zm18.094-16.883c2.522-2.042 4.616-3.643 5.91-4.906.644-.63 1.143-1.223 1.389-1.791.126-.292.194-.598.164-.91a1.543 1.543 0 0 0-.368-.854l-.768.64a.555.555 0 0 1 .141.31.858.858 0 0 1-.087.417c-.164.379-.542.86-1.17 1.472-1.25 1.22-3.274 2.768-5.84 4.844l.629.778Zm7.095-8.46c-.601-.722-1.109-1.407-1.413-2.07-.3-.653-.382-1.244-.192-1.813l-.949-.316c-.295.884-.135 1.746.232 2.546.362.79.944 1.56 1.554 2.292l.768-.64Zm-1.605-3.883c.218-.654.597-1.196.978-1.799.359-.569.743-1.226.743-1.993h-1c0 .445-.222.877-.589 1.459-.346.547-.815 1.217-1.081 2.017l.949.316Zm1.721-3.792c0-.403-.152-.917-.348-1.393a7.802 7.802 0 0 0-.77-1.435 4.21 4.21 0 0 0-.472-.577 1.731 1.731 0 0 0-.566-.399c-.233-.091-.531-.113-.803.071-.242.164-.37.43-.444.689l.961.274c.047-.165.086-.163.043-.134-.074.05-.141.024-.124.03.034.014.111.06.226.176.11.11.231.259.356.439.25.36.491.813.668 1.245.183.447.273.812.273 1.014h1Zm-3.403-3.044a1.32 1.32 0 0 0 .038.89c.114.27.312.476.53.63.425.297 1.01.456 1.568.535.571.082 1.177.09 1.692.045.258-.022.502-.059.713-.109.199-.047.412-.117.577-.227l-.554-.832a.972.972 0 0 1-.255.086 3.992 3.992 0 0 1-.567.086 6.686 6.686 0 0 1-1.465-.039c-.502-.071-.901-.2-1.135-.365a.498.498 0 0 1-.182-.198c-.019-.044-.032-.111.001-.228l-.961-.274Zm5.118 1.764c.214-.142.352-.386.443-.582.102-.22.191-.485.264-.769a7.997 7.997 0 0 0 .243-1.911c0-.627-.089-1.312-.399-1.787a1.257 1.257 0 0 0-.745-.554c-.329-.084-.674-.023-1.013.128l.406.913c.207-.091.316-.084.362-.072.038.01.09.036.152.13.144.222.237.657.237 1.242 0 .56-.085 1.17-.212 1.662a3.52 3.52 0 0 1-.202.597c-.079.171-.122.192-.09.171l.554.832Zm-1.207-5.475c-.318.14-.586.325-.758.574-.185.267-.23.57-.155.86.07.269.234.498.416.681.184.187.413.355.659.499a5.289 5.289 0 0 0 1.691.617c.575.102 1.218.105 1.723-.147l-.447-.895c-.222.111-.608.145-1.101.057a4.274 4.274 0 0 1-1.36-.495 2.232 2.232 0 0 1-.454-.339.59.59 0 0 1-.159-.23c-.004-.016-.006-.018.009-.04.028-.04.115-.127.342-.228l-.406-.914Zm3.576 3.084c.893-.447 1.563-1.497 1.857-2.414.15-.465.226-.962.149-1.392a1.34 1.34 0 0 0-.279-.631 1.099 1.099 0 0 0-.641-.377l-.196.98c.043.01.057.023.069.036.016.02.045.069.063.168.036.206.006.527-.117.91-.25.779-.792 1.545-1.352 1.825l.447.895Zm1.086-4.814c-.244-.049-.518-.028-.746.146a.898.898 0 0 0-.333.616c-.049.391.094.838.31 1.197.22.368.572.738 1.045.91.502.182 1.067.114 1.612-.276l-.581-.813c-.303.216-.525.209-.689.149-.194-.07-.387-.246-.53-.484-.148-.247-.186-.466-.175-.56.005-.039.01.009-.053.056-.068.053-.115.028-.056.04l.196-.98Zm1.888 2.593c.948-.677 1.728-1.86 2.088-2.874.178-.5.281-1.036.189-1.483a1.147 1.147 0 0 0-.363-.651 1.125 1.125 0 0 0-.751-.26v1c.046 0 .072.007.085.011l.011.005.002.001.003.003.008.013a.343.343 0 0 1 .026.079c.037.181.003.51-.152.948-.306.863-.979 1.86-1.727 2.395l.581.813Zm1.163-5.267c-.285 0-.544.085-.754.25a1.33 1.33 0 0 0-.419.595c-.158.426-.146.934-.04 1.376.106.442.327.906.682 1.212.182.158.409.28.676.32.27.04.543-.01.805-.141l-.447-.895a.35.35 0 0 1-.211.047.341.341 0 0 1-.17-.088c-.145-.125-.287-.373-.363-.688-.075-.314-.063-.61.006-.796a.338.338 0 0 1 .098-.155c.022-.017.059-.037.137-.037v-1Zm.95 3.612c.812-.406 2.078-1.493 2.899-2.566.406-.532.758-1.128.846-1.687a1.38 1.38 0 0 0-.132-.893c-.16-.292-.427-.492-.754-.615l-.351.937c.158.059.209.123.228.16.022.039.044.114.021.255-.048.304-.271.737-.652 1.235-.754.986-1.91 1.958-2.552 2.28l.447.894Zm2.859-5.76c-.533-.2-1.111-.243-1.487.16-.345.37-.303.896-.199 1.262.115.402.357.818.683 1.139.325.32.777.587 1.312.587v-1c-.192 0-.406-.097-.61-.3a1.684 1.684 0 0 1-.423-.7c-.077-.27-.005-.334-.032-.305-.059.063-.03-.07.405.093l.351-.937Zm.309 3.148c.259 0 .552-.068.841-.163a7.11 7.11 0 0 0 .947-.402c.656-.33 1.363-.782 1.955-1.278.577-.484 1.109-1.06 1.326-1.654.113-.309.152-.656.028-1-.125-.344-.389-.608-.736-.801l-.486.874c.199.11.26.21.282.269.022.06.03.158-.028.314-.123.339-.485.776-1.028 1.231a9.496 9.496 0 0 1-1.762 1.152 6.17 6.17 0 0 1-.812.345 1.858 1.858 0 0 1-.527.113v1Zm4.361-5.298c-.578-.321-1.183-.465-1.649-.146-.457.313-.505.881-.452 1.284.057.438.252.91.548 1.28.293.368.741.7 1.31.7v-1c-.157 0-.345-.093-.529-.323a1.686 1.686 0 0 1-.338-.787c-.038-.294.051-.346.026-.329-.036.024.087-.09.598.195l.486-.874Zm-.243 3.117c.467 0 .92-.153 1.308-.32.37-.16.786-.386 1.057-.516.152-.072.276-.124.379-.156a.497.497 0 0 1 .168-.033c.002 0-.009 0-.025-.008a.121.121 0 0 1-.034-.026c-.006-.008.023.023.046.157l.986-.165a1.308 1.308 0 0 0-.266-.636.893.893 0 0 0-.603-.316 1.428 1.428 0 0 0-.569.072c-.171.053-.345.13-.512.209-.364.173-.66.341-1.024.5-.347.15-.65.238-.911.238v1Zm2.899-.902c.13.785.401 1.683.128 2.83-.268 1.124-1.086 2.546-3.323 4.195l.593.805c2.366-1.743 3.364-3.35 3.702-4.769.333-1.396-.003-2.557-.114-3.226l-.986.165Zm-3.195 7.025c-2.283 1.682-4.306 3.093-5.941 4.334-1.639 1.245-2.957 2.368-3.847 3.513l.789.614c.805-1.035 2.032-2.092 3.663-3.33 1.635-1.242 3.609-2.617 5.929-4.326l-.593-.805Zm-9.788 7.847a12.63 12.63 0 0 0-1.057 1.627c-.286.513-.494.925-.726 1.287-.225.352-.436.595-.683.755-.239.155-.55.256-1.016.256v1c.625 0 1.132-.14 1.559-.417.419-.271.723-.65.982-1.055.253-.395.499-.875.758-1.339.266-.478.57-.983.972-1.5l-.789-.614Zm-3.482 3.925c-.324 0-.695-.22-1.188-.721-.235-.24-.474-.516-.731-.816-.253-.295-.523-.612-.806-.91-.559-.59-1.225-1.172-2.036-1.415-.849-.255-1.774-.118-2.783.555l.554.832c.807-.538 1.427-.584 1.941-.43.551.166 1.066.584 1.598 1.145.262.277.514.573.772.874.254.296.515.599.779.867.506.514 1.134 1.02 1.9 1.02v-1Zm-7.544-3.307c-1.845 1.23-5.99 4.644-9.975 7.965-4.011 3.343-7.865 6.594-9.18 7.55l.589.81c1.35-.983 5.248-4.272 9.231-7.591 4.009-3.341 8.101-6.71 9.889-7.902l-.554-.832Zm-19.155 15.515c-1.31.953-3.884 2.732-6.121 4.394-1.123.835-2.18 1.654-2.974 2.344-.396.345-.737.665-.99.946-.127.14-.239.278-.327.41a1.28 1.28 0 0 0-.2.449l.98.196c-.003.017 0-.01.054-.093.051-.076.128-.173.235-.292.214-.237.52-.528.904-.86.765-.666 1.797-1.467 2.915-2.297 2.245-1.669 4.758-3.403 6.113-4.388l-.589-.809Zm-10.612 8.543c-.078.388-.055.858.055 1.29.108.424.321.887.692 1.193.408.335.944.43 1.532.19.549-.223 1.13-.728 1.756-1.543l-.792-.61c-.585.76-1.033 1.102-1.341 1.227-.267.109-.411.052-.519-.036-.144-.119-.279-.352-.359-.67a2.032 2.032 0 0 1-.044-.845l-.98-.196Zm4.035 1.13a7.43 7.43 0 0 0 1.314-2.82c.22-.954.241-1.912.009-2.66-.116-.376-.305-.726-.592-.984a1.58 1.58 0 0 0-1.099-.405c-.815.01-1.754.558-2.804 1.608l.707.707c1.01-1.01 1.706-1.31 2.109-1.315a.58.58 0 0 1 .418.149c.116.103.226.276.306.536.162.524.167 1.292-.029 2.14a6.427 6.427 0 0 1-1.131 2.434l.792.61Zm-3.172-5.261c-1.044 1.044-2.495 2.694-4.208 4.641-1.719 1.954-3.713 4.22-5.857 6.515-4.299 4.602-9.159 9.274-13.568 11.776l.493.87c4.554-2.584 9.505-7.36 13.806-11.963 2.155-2.308 4.159-4.584 5.877-6.537 1.723-1.96 3.149-3.58 4.164-4.595l-.707-.707Z" fill="#131441"/><path d="M65.244 73.276c0 2.073-2.054 3.476-4.589 3.476-2.534 0-4.31-1.403-4.31-3.476 0-2.074 1.776-4.311 4.31-4.311 2.535 0 4.59 2.237 4.59 4.31ZM82.765 76.474c0 2.073-1.808 3.615-4.31 4.172-2.504.278-4.59-.569-4.59-2.642 0-2.074 2.055-3.755 4.59-3.755 2.534 0 4.31.151 4.31 2.225ZM101.26 99.557c0 2.074-2.781 4.728-5.284 5.284-2.503.279-5.145-.429-5.145-2.503 0-2.073 1.53-2.503 4.31-3.615 2.086-.834 6.119-1.24 6.119.834Z" fill="#FFD43A"/><path d="M120.338 64.356c1.454 1.793 3.78 6.309 1.454 10.03-2.907 4.651-10.321 3.925-12.501 6.25-2.18 2.326-3.343 5.524-.291 7.123 3.053 1.6-1.453-5.233-4.506-6.832-3.053-1.599-6.396-4.652-4.942-5.669 1.453-1.018 1.889.872 1.453 6.977-.436 6.106-.719 17.879-1.308 18.752-.927 1.374-2.18 3.053-5.233 3.053-3.053 0-3.198-2.762-.727-3.78 2.471-1.017 6.105-1.744 7.414-.872 1.308.872-.146 7.559-8.722 5.96-8.576-1.599-4.506-12.647-3.925-14.682.582-2.035 2.907-10.756-4.36-14.1-7.269-3.343-10.322.582-8.868 2.326 1.454 1.744 6.105 2.035 6.832-4.36.582-5.118-.145-14.537-.581-18.607L65.1 52v16.862c.145 2.423-.61 7.21-4.797 6.977-5.233-.29-2.035-7.268 2.035-4.942 4.07 2.326 2.762 6.977 1.599 8.722-1.163 1.744-3.198 5.814-8.286 5.378-5.087-.436-6.686.582-5.814 3.925.872 3.343 4.215 9.449 3.343 13.228-.872 3.779-5.669 11.774-15.263 11.338-9.594-.436-12.065-9.884-4.942-11.338 7.123-1.454 9.884 7.704 4.942 11.92-4.942 4.215-11.193 2.616-12.937-2.326-1.745-4.942-.436-10.175 6.977-18.461 7.414-8.286 7.559-17.298 4.506-18.316-3.052-1.017-6.686 5.233-3.924 21.223 2.761 15.99 4.215 19.915 4.506 22.386.29 2.471.436 6.396-2.035 8.576-2.471 2.181-7.268 1.454-7.414-1.744-.145-3.198 5.379-4.942 5.815-1.599.436 3.343-3.053 6.541-7.704 2.907-4.652-3.634-8.14-6.396-13.374-1.308-5.233 5.088-2.325 3.634-6.686 4.942-4.361 1.309-6.978 6.978-1.745 10.03 5.233 3.053 14.537 4.07 24.276.727 9.74-3.343 15.554-8.14 18.46-12.065 2.908-3.925 6.106-7.268 10.903-6.251 4.797 1.018 3.634 4.507 4.07 5.815.436 1.308 1.018 3.053 5.524 1.308 4.506-1.744 5.378.582 7.413 3.344 2.035 2.761 5.088 11.338 16.136 5.669 11.047-5.669 14.972-8.286 24.13-5.233 9.158 3.052 21.368 3.198 27.328 2.471 5.96-.727 15.118-3.78 16.862-9.158 1.744-5.378 1.308-8.867-5.669-9.158-6.978-.291-14.246 4.216-19.479 12.211C129.671 136.456 125.5 145 126 151" stroke="#131441"/></svg>