<svg width="452" height="630" fill="none" xmlns="http://www.w3.org/2000/svg"><path d="m267.978 461.832-.995-.094.995.094Zm-37.777-76.252-.921.388.032.077.046.071.843-.536Zm-23.085-22.387-.333-.943.333.943Zm-28.683-228.057.294.956-.294-.956Zm-4.197-12.592.316.949-.316-.949Zm21.687-6.996.939.342-.939-.342Zm2.098 9.794.707.707-.707-.707Zm-11.892 9.794-.618-.786-2.274 1.787 2.892-.001v-1Zm11.892-2.1.6.8-.6-.8ZM81.893 224.679l-.894-.447.894.447Zm16.79-30.081.79.614.08-.104.051-.122-.921-.388Zm5.596-13.292.993.121-1.914-.509.921.388Zm-9.094 39.176-.883-.47.883.47ZM71.4 345.705l.687-.726-.687.726Zm19.587 6.995-.066-.997-.342.022-.256.228.665.747Zm19.588 12.593-.825.564.825-.564Zm109.133-62.962.555.833-.555-.833Zm7.695-4.896.819.573-1.333-1.431.514.858Zm-10.493 27.283.832-.555-.832.555ZM22.155 432.675c1.021 4.426 1.02 7.468.765 10.625-.257 3.161-.79 6.587-.79 11.537h2c0-4.844.515-8.064.783-11.375.269-3.314.268-6.568-.81-11.236l-1.948.449Zm-.026 22.162c0 5.024.347 8.52-.164 12.01-.495 3.386-1.81 6.727-5.225 11.165l1.586 1.22c3.581-4.657 5.064-8.311 5.618-12.096.539-3.68.185-7.53.185-12.299h-2Zm-5.389 23.175c-3.6 4.68-9.065 15.825-12.755 27.862-1.85 6.034-3.268 12.337-3.779 18.21-.51 5.858-.124 11.376 1.713 15.785l1.846-.769c-1.66-3.986-2.063-9.136-1.566-14.843.495-5.692 1.875-11.85 3.698-17.796 3.655-11.923 9.033-22.815 12.429-27.229l-1.586-1.22ZM1.92 539.869c3.584 8.602 9.364 12.628 15.554 11.351 6.016-1.242 11.796-7.423 15.686-17.677l-1.87-.709c-3.806 10.033-9.219 15.395-14.22 16.427-4.83.996-9.892-1.974-13.304-10.161l-1.846.769Zm31.24-6.326c3.753-9.895 11.106-17.104 17.988-22.94 3.397-2.881 6.772-5.502 9.39-7.857 2.61-2.347 4.724-4.644 5.515-7.018l-1.897-.633c-.608 1.824-2.341 3.812-4.956 6.164-2.607 2.346-5.835 4.841-9.346 7.819-6.935 5.881-14.622 13.363-18.564 23.756l1.87.709Zm32.893-37.815c1.412-4.236 2.332-7.872 2.15-12.164-.183-4.279-1.456-9.126-4.276-15.824l-1.843.777c2.777 6.594 3.952 11.191 4.12 15.132.167 3.928-.662 7.288-2.048 11.446l1.897.633Zm-2.126-27.988c-1.367-3.247-1.849-5.569-1.889-7.34-.04-1.752.35-3.031.843-4.219.47-1.139 1.162-2.433 1.493-3.862.351-1.52.332-3.238-.42-5.494l-1.897.633c.648 1.942.629 3.284.368 4.41-.281 1.216-.815 2.151-1.393 3.548-.557 1.348-1.041 2.911-.993 5.029.047 2.098.614 4.673 2.045 8.072l1.843-.777Zm.027-20.915c-1.453-4.361-4.189-8.4-7.715-10.905-3.553-2.525-7.937-3.498-12.506-1.594l.77 1.846c3.825-1.594 7.486-.818 10.578 1.379 3.12 2.217 5.632 5.873 6.976 9.907l1.898-.633Zm-20.221-12.499c-2.259.941-3.73 2.277-4.396 3.87-.672 1.604-.457 3.294.307 4.77 1.503 2.907 5.194 5.175 9.37 5.175v-2c-3.519 0-6.474-1.928-7.594-4.094-.547-1.059-.638-2.124-.239-3.078.404-.964 1.382-1.989 3.321-2.797l-.77-1.846Zm5.281 13.815c1.963 0 4.022-.224 5.91-.34 1.934-.119 3.77-.133 5.516.232 1.725.361 3.372 1.096 4.92 2.504 1.56 1.418 3.06 3.557 4.42 6.786l1.843-.776c-1.439-3.416-3.087-5.824-4.916-7.489-1.84-1.674-3.822-2.557-5.857-2.983-2.015-.421-4.07-.392-6.049-.27-2.026.124-3.902.336-5.787.336v2Zm20.765 9.182c1.345 3.194 1.944 6.625 2.412 10.055.462 3.383.802 6.837 1.658 9.855.867 3.056 2.295 5.805 5.024 7.765 2.714 1.949 6.578 3.019 12.115 3.019v-2c-5.305 0-8.7-1.029-10.948-2.644-2.234-1.603-3.472-3.882-4.267-6.685-.806-2.841-1.122-6.077-1.6-9.58-.472-3.456-1.097-7.109-2.55-10.561l-1.844.776Zm21.21 30.694c10.826 0 42.1 1.048 72.729 1.836 15.304.393 30.439.721 42.757.82 12.282.098 21.849-.03 25.955-.566l-.258-1.983c-3.939.514-13.347.648-25.681.549-12.299-.098-27.42-.426-42.722-.819-30.583-.787-61.92-1.837-72.78-1.837v2Zm141.441 2.09c8.193-1.068 16.918-4.27 23.793-9.092 6.865-4.814 12.014-11.341 12.752-19.088l-1.991-.189c-.662 6.944-5.307 13.009-11.909 17.639-6.591 4.623-15.006 7.717-22.903 8.747l.258 1.983Zm36.545-28.18c.156-1.646-.161-3.756-.795-6.159-.64-2.423-1.625-5.228-2.868-8.298-2.487-6.142-6.038-13.416-10.021-20.944-7.967-15.059-17.706-31.208-24.245-41.483l-1.687 1.073c6.519 10.246 16.229 26.347 24.165 41.346 3.968 7.501 7.484 14.707 9.934 20.759 1.226 3.026 2.178 5.746 2.788 8.057.615 2.332.861 4.168.738 5.46l1.991.189Zm-37.851-76.736c-1.889-4.486-5.329-11.019-9.53-16.029-2.099-2.504-4.432-4.681-6.907-6.014-2.492-1.343-5.188-1.856-7.903-.898l.665 1.886c2.043-.72 4.145-.382 6.29.773 2.162 1.165 4.306 3.133 6.323 5.538 4.031 4.807 7.377 11.146 9.219 15.521l1.843-.777Zm-24.34-22.941c-6.118 2.16-13.575 7.149-20.09 12.871-6.509 5.717-12.227 12.297-14.762 17.73l1.812.846c2.362-5.061 7.837-11.423 14.27-17.073 6.426-5.645 13.661-10.449 19.435-12.488l-.665-1.886Zm-34.852 30.601c-2.517 5.393-5.553 15.055-13.814 21.954-8.162 6.815-21.613 11.025-45.187 4.785l-.512 1.934c23.997 6.352 38.178 2.167 46.981-5.184 8.703-7.268 11.964-17.543 14.344-22.643l-1.812-.846ZM112.93 419.59c-11.61-3.073-21.054-10.856-28.264-20.667-7.21-9.811-12.144-21.598-14.742-32.551-2.605-10.986-2.825-20.983-.766-27.254 1.028-3.132 2.57-5.176 4.496-6.078 1.898-.889 4.44-.794 7.774.956l.93-1.77c-3.662-1.923-6.89-2.243-9.552-.998-2.63 1.232-4.434 3.872-5.548 7.266-2.226 6.78-1.921 17.202.72 28.34 2.65 11.17 7.684 23.213 15.077 33.273 7.393 10.061 17.188 18.194 29.363 21.417l.512-1.934Zm-31.502-85.594c13.881 7.288 22.864 15.762 30.71 22.021 7.805 6.227 14.617 10.366 23.855 8.149l-.467-1.945c-8.25 1.981-14.381-1.576-22.141-7.767-7.72-6.159-16.925-14.825-31.027-22.228l-.93 1.77Zm54.565 30.17c8.879-2.132 14.014-5.941 15.752-10.965 1.729-4.994-.052-10.763-3.968-16.459l-1.648 1.133c3.779 5.497 5.146 10.572 3.726 14.672-1.409 4.071-5.719 7.607-14.329 9.674l.467 1.945Zm11.784-27.424c-3.846-5.594-7.74-10.911-11.223-14.394-1.734-1.734-3.44-3.09-5.053-3.768-1.658-.696-3.354-.714-4.776.471l1.28 1.537c.676-.564 1.517-.669 2.722-.164 1.251.526 2.737 1.662 4.413 3.338 3.338 3.338 7.139 8.514 10.989 14.113l1.648-1.133Zm-21.052-17.691c-1.164.97-2.162 2.265-2.837 3.655-.671 1.383-1.055 2.931-.891 4.396.169 1.503.916 2.883 2.409 3.801 1.453.894 3.512 1.291 6.224 1.109l-.135-1.996c-2.487.167-4.076-.223-5.041-.816-.924-.568-1.363-1.375-1.469-2.321-.111-.984.143-2.147.703-3.3.556-1.146 1.382-2.212 2.317-2.991l-1.28-1.537Zm4.905 12.961c2.85-.192 5.736-1.522 8.09-3.397 2.352-1.874 4.268-4.37 5.091-7.01.834-2.678.54-5.537-1.603-7.89-2.093-2.298-5.819-3.968-11.522-4.681l-.248 1.985c5.491.686 8.661 2.252 10.291 4.042 1.58 1.735 1.836 3.817 1.172 5.949-.676 2.169-2.308 4.352-4.428 6.041-2.119 1.688-4.63 2.807-6.978 2.965l.135 1.996Zm.056-22.978c-11.201-1.4-21.372-2.452-29.539-2.892-4.084-.219-7.681-.286-10.665-.164-2.964.121-5.396.431-7.107 1.001l.633 1.898c1.437-.479 3.64-.781 6.556-.901 2.897-.118 6.426-.054 10.475.164 8.098.435 18.215 1.481 29.399 2.879l.248-1.985Zm-47.31-2.055c-1.704.568-4.093 1.999-6.677 3.532-2.641 1.568-5.589 3.309-8.546 4.638-2.971 1.335-5.84 2.2-8.331 2.11-2.414-.087-4.503-1.067-6.064-3.564l-1.696 1.06c1.938 3.1 4.659 4.393 7.688 4.502 2.953.107 6.16-.908 9.223-2.284 3.077-1.382 6.12-3.183 8.747-4.742 2.685-1.593 4.842-2.873 6.288-3.354l-.633-1.898Zm-29.618 6.716c-3.498-5.599-9.932-15.86-14.97-27.5-5.054-11.676-8.623-24.56-6.581-35.447l-1.966-.368c-2.156 11.499 1.62 24.849 6.711 36.609 5.105 11.795 11.614 22.171 15.11 27.766l1.696-1.06Zm-21.551-62.947c4.19-22.349 18.167-74.751 24.433-90.763l-1.863-.729c-6.326 16.168-20.332 68.701-24.536 91.124l1.966.368Zm24.433-90.763c6.307-16.118 15.995-43.056 45.021-58.951l-.961-1.754c-29.738 16.285-39.637 43.913-45.923 59.976l1.863.729Zm45.021-58.951c7.347-4.023 13.028-6.97 17.581-8.815 4.568-1.851 7.865-2.534 10.486-2.177 2.552.348 4.613 1.707 6.671 4.337 2.085 2.664 4.098 6.545 6.549 11.798l1.812-.846c-2.445-5.241-4.543-9.318-6.786-12.185-2.271-2.9-4.757-4.646-7.976-5.085-3.151-.43-6.85.417-11.507 2.304-4.673 1.894-10.447 4.894-17.791 8.915l.961 1.754Zm41.287 5.143c4.945 10.596 11.147 18.769 17.315 23.953 6.115 5.141 12.42 7.514 17.464 5.962l-.588-1.912c-4.05 1.246-9.637-.578-15.589-5.581-5.901-4.96-11.941-12.878-16.79-23.268l-1.812.846Zm34.779 29.915c3.015-.928 4.611-2.837 4.98-5.101.355-2.176-.458-4.478-1.796-6.251l-1.597 1.205c1.109 1.468 1.663 3.23 1.419 4.724-.229 1.406-1.195 2.773-3.594 3.511l.588 1.912Zm3.184-11.352c-1.798-2.382-4.868-4.186-7.991-3.145l.632 1.898c1.975-.659 4.232.424 5.762 2.452l1.597-1.205Zm-7.991-3.145c-.843.281-1.525.621-1.993 1.05-.497.458-.814 1.092-.662 1.82.134.638.587 1.107 1.011 1.425.447.334 1.005.61 1.598.828 1.187.436 2.672.698 4.073.662 1.367-.035 2.861-.36 3.858-1.316l-1.385-1.444c-.462.444-1.344.731-2.524.761a9.454 9.454 0 0 1-3.332-.54c-.478-.176-.846-.37-1.089-.552-.265-.199-.265-.293-.252-.234.031.148-.078.187.058.063.166-.153.54-.382 1.271-.625l-.632-1.898Zm8.24-3.066c1.833.978 4.76 2.064 7.584 2.077 1.424.006 2.879-.26 4.155-1.007 1.293-.758 2.33-1.967 2.963-3.709l-1.879-.684c-.486 1.337-1.233 2.162-2.095 2.667-.88.515-1.953.738-3.135.733-2.387-.011-4.987-.953-6.652-1.841l-.941 1.764Zm14.702-2.639c.717-1.969 1.426-4.501 2.157-7.196.735-2.71 1.495-5.598 2.321-8.335.826-2.74 1.705-5.284 2.667-7.302.984-2.066 1.968-3.388 2.905-3.924l-.992-1.736c-1.511.863-2.714 2.69-3.719 4.8-1.027 2.156-1.941 4.816-2.776 7.585-.836 2.772-1.607 5.699-2.336 8.389-.734 2.705-1.423 5.157-2.106 7.035l1.879.684Zm10.05-26.757c2.387-1.364 6.644-3.23 10.246-3.816 1.82-.296 3.303-.236 4.285.216.467.216.813.516 1.051.918.243.409.411.988.411 1.814h2c0-1.097-.225-2.049-.69-2.834-.47-.792-1.145-1.35-1.935-1.714-1.533-.706-3.504-.69-5.444-.374-3.918.638-8.406 2.62-10.916 4.054l.992 1.736Zm15.993-.868c0 3.672-1.527 10.361-3.78 16.166-1.122 2.892-2.399 5.497-3.711 7.361-.656.932-1.296 1.642-1.898 2.11-.604.47-1.103.646-1.503.646v2c.998 0 1.92-.436 2.732-1.067.813-.633 1.584-1.514 2.305-2.538 1.443-2.05 2.789-4.822 3.94-7.789 2.295-5.913 3.915-12.866 3.915-16.889h-2Zm-10.892 26.283c-1.623 0-3.231.555-4.724 1.354-1.498.801-2.937 1.879-4.237 2.999-2.566 2.213-4.771 4.768-5.738 5.734l1.414 1.414c1.133-1.131 3.125-3.473 5.63-5.633 1.237-1.066 2.552-2.043 3.874-2.751 1.328-.71 2.605-1.117 3.781-1.117v-2Zm-14.699 10.087c-1.625 1.624-8.51 7.127-11.803 9.715l1.236 1.572c3.236-2.543 10.248-8.141 11.981-9.873l-1.414-1.414Zm-11.185 11.501c1.551 0 4.01-.107 6.378-.43 1.184-.161 2.365-.378 3.408-.671 1.023-.286 1.998-.668 2.706-1.199l-1.2-1.6c-.411.309-1.103.609-2.046.874-.924.259-2.007.461-3.138.615a48.58 48.58 0 0 1-6.108.411v2Zm12.492-2.3c.675-.506 2.082-1.444 3.94-2.705a219.765 219.765 0 0 0 6.369-4.457c2.286-1.67 4.63-3.483 6.673-5.281 2.031-1.789 3.814-3.606 4.937-5.29l-1.664-1.109c-.976 1.464-2.604 3.145-4.595 4.898-1.979 1.743-4.27 3.515-6.531 5.167a221.108 221.108 0 0 1-6.311 4.417c-1.815 1.231-3.293 2.217-4.018 2.76l1.2 1.6Zm21.919-17.733c1.104-1.657 2.364-4.365 3.719-7.357 1.372-3.03 2.867-6.41 4.471-9.53 1.609-3.132 3.287-5.918 4.996-7.783 1.741-1.9 3.254-2.572 4.607-2.203l.526-1.93c-2.494-.68-4.742.747-6.607 2.782-1.898 2.07-3.675 5.055-5.301 8.22-1.632 3.175-3.154 6.615-4.514 9.619-1.378 3.042-2.567 5.581-3.561 7.073l1.664 1.109Zm17.793-26.873c1.833.5 3.083 1.133 4.013 2.1.935.971 1.641 2.378 2.187 4.605 1.108 4.518 1.456 11.906 2.159 24.564l1.997-.111c-.696-12.526-1.048-20.178-2.213-24.93-.591-2.407-1.415-4.191-2.689-5.515-1.277-1.328-2.913-2.093-4.928-2.643l-.526 1.93Zm8.359 31.269c.7 12.6.872 23.896 1.311 33.831.438 9.882 1.139 18.372 2.918 25.132l1.934-.509c-1.719-6.532-2.417-14.831-2.854-24.712-.435-9.828-.613-21.268-1.312-33.853l-1.997.111Zm4.229 58.963c1.797 6.828 4.521 10.292 6.332 13.137.9 1.415 1.54 2.621 1.82 4.021.277 1.388.217 3.059-.451 5.399l1.923.549c.73-2.557.845-4.559.489-6.341-.354-1.77-1.158-3.231-2.094-4.702-1.862-2.926-4.384-6.108-6.085-12.572l-1.934.509Zm7.701 22.557c-1.326 4.638-5.182 9.201-8.343 12.626-1.529 1.655-2.951 3.103-3.686 4.057-.19.246-.365.497-.491.74-.104.2-.279.584-.207 1.022.042.258.166.509.381.705.2.181.425.265.601.306.329.076.682.043.978-.007l-.329-1.972c-.228.038-.264.016-.2.03.044.01.167.046.294.162a.793.793 0 0 1 .249.454c.038.238-.06.353.008.221.046-.089.139-.232.299-.44.664-.86 1.953-2.167 3.572-3.922 3.135-3.396 7.324-8.278 8.797-13.433l-1.923-.549Zm-10.767 19.449c1.2-.199 2.844-.87 4.539-1.652 1.724-.796 3.627-1.769 5.363-2.637 1.759-.88 3.327-1.64 4.447-2.055.582-.216.931-.294 1.09-.299.086-.003-.035.022-.203-.09a.69.69 0 0 1-.31-.549h2c0-.399-.163-.837-.58-1.115-.344-.229-.725-.253-.972-.245-.508.016-1.121.201-1.72.422-1.241.46-2.908 1.273-4.647 2.142-1.762.881-3.619 1.832-5.306 2.61-1.715.792-3.131 1.346-4.03 1.496l.329 1.972Zm14.926-7.282c0-.07.013-.032-.071.176-.073.181-.19.421-.357.72-.334.597-.83 1.365-1.463 2.25-1.262 1.765-3.027 3.939-5.009 6.051-1.985 2.115-4.165 4.141-6.256 5.63-2.132 1.518-4.012 2.362-5.432 2.362v2c2.078 0 4.395-1.168 6.592-2.733 2.237-1.593 4.517-3.72 6.554-5.89 2.04-2.173 3.861-4.416 5.178-6.257.657-.919 1.199-1.753 1.582-2.437.191-.341.351-.662.466-.948.104-.258.216-.592.216-.924h-2Zm-18.588 17.189c-1.762 0-3.73.088-5.598.131-1.896.044-3.722.042-5.316-.126-1.614-.17-2.869-.499-3.698-1.029-.758-.483-1.178-1.136-1.178-2.174h-2c0 1.761.804 3.032 2.102 3.86 1.226.783 2.856 1.152 4.565 1.332 1.729.182 3.663.181 5.571.137 1.936-.045 3.816-.131 5.552-.131v-2Zm-15.79-3.198c0-.598.136-1.619.398-3.076.259-1.434.625-3.216 1.057-5.301.863-4.162 1.982-9.493 2.991-15.505 2.017-12.012 3.61-26.817 1.842-40.605l-1.984.254c1.731 13.496.176 28.072-1.83 40.02-1.002 5.968-2.113 11.262-2.977 15.43-.432 2.079-.803 3.888-1.067 5.353-.26 1.443-.43 2.63-.43 3.43h2Zm6.288-64.487c-1.738-13.56-.516-22.997-.516-29.342 0-3.091-.285-5.668-1.651-7.441-1.426-1.851-3.799-2.565-7.22-2.565v2c3.226 0 4.788.686 5.636 1.786.907 1.178 1.235 3.104 1.235 6.22 0 6.073-1.227 15.874.532 29.596l1.984-.254Zm-9.387-39.348c-3.551 0-6.311 1.13-8.317 3.148-1.984 1.996-3.14 4.77-3.686 7.911-1.09 6.265.186 14.316 2.66 21.737l1.897-.633c-2.423-7.27-3.596-14.959-2.587-20.761.503-2.892 1.533-5.233 3.135-6.844 1.58-1.589 3.804-2.558 6.898-2.558v-2Zm-9.343 32.796c4.824 14.473 4.836 32.452-.011 49.073l1.92.56c4.946-16.959 4.958-35.358-.012-50.266l-1.897.633Zm-.011 49.073c-4.951 16.971-2.139 34.084-2.139 38.056h2c0-4.422-2.785-20.889 2.059-37.496l-1.92-.56Zm-2.139 38.056c0 1.992-.183 4.976.375 7.396.285 1.232.783 2.441 1.689 3.346.932.933 2.204 1.451 3.833 1.451v-2c-1.17 0-1.909-.355-2.419-.865-.538-.538-.914-1.341-1.154-2.382-.491-2.127-.324-4.74-.324-6.946h-2Zm5.897 12.193c1.588 0 3.564-.535 5.542-1.328 2-.803 4.093-1.906 5.939-3.121 1.835-1.209 3.483-2.565 4.547-3.893.532-.663.96-1.37 1.165-2.093.211-.744.191-1.545-.246-2.272l-1.715 1.029c.089.147.134.352.036.698-.104.368-.358.836-.8 1.386-.881 1.099-2.337 2.322-4.087 3.474a32.34 32.34 0 0 1-5.583 2.935c-1.892.759-3.588 1.185-4.798 1.185v2Zm16.947-12.707c-1.272-2.121-3.57-3.109-6.016-3.109-2.443 0-5.114.972-7.374 2.855l1.28 1.537c1.938-1.615 4.164-2.392 6.094-2.392 1.925 0 3.475.761 4.301 2.138l1.715-1.029Zm-13.39-.254c-1.241 1.035-2.07 2.685-2.749 4.065-.358.726-.679 1.394-1.019 1.984-.341.592-.661 1.032-.983 1.322-.304.273-.576.384-.863.391-.309.007-.778-.104-1.463-.551-1.4-.914-3.362-3.002-6.153-7.014l-1.642 1.142c2.806 4.034 4.954 6.405 6.702 7.547.889.58 1.754.895 2.603.875.872-.02 1.583-.39 2.154-.904.553-.498.998-1.15 1.378-1.81.381-.661.738-1.404 1.08-2.099.72-1.461 1.378-2.697 2.235-3.411l-1.28-1.537Zm-13.23.197c-5.44-7.82-7.162-17.558-6.904-25.104.128-3.775.75-6.925 1.596-8.963.428-1.031.875-1.685 1.264-2.018.343-.294.547-.28.731-.201l.788-1.838c-1.041-.446-2.04-.148-2.82.52-.734.629-1.33 1.614-1.81 2.77-.969 2.334-1.615 5.743-1.748 9.662-.268 7.845 1.509 18.045 7.261 26.314l1.642-1.142Zm-3.313-36.286c.008.003.136.07.32.411.176.329.35.812.507 1.467.314 1.304.52 3.113.634 5.3.227 4.362.076 10.047-.23 15.81-.305 5.756-.763 11.559-1.145 16.147-.379 4.541-.692 7.986-.692 8.915h2c0-.819.298-4.107.685-8.749.383-4.593.843-10.42 1.15-16.207.306-5.78.462-11.55.229-16.02-.116-2.229-.33-4.181-.686-5.664-.178-.739-.401-1.406-.691-1.945-.282-.526-.69-1.045-1.293-1.303l-.788 1.838Zm-.606 48.05c0 .879.091 2.008.12 2.919.033.987.005 1.877-.178 2.61-.178.714-.483 1.197-.956 1.498-.491.314-1.326.535-2.773.374l-.221 1.988c1.701.189 3.052-.027 4.07-.675 1.035-.661 1.562-1.664 1.82-2.7.254-1.015.271-2.137.237-3.16-.036-1.101-.119-1.983-.119-2.854h-2Zm-3.787 7.401c-1.506-.167-2.934-.502-4.423-.844-1.47-.338-2.999-.682-4.609-.82-3.288-.281-6.836.302-11.221 3.225l1.109 1.664c4.011-2.673 7.108-3.139 9.941-2.896 1.451.125 2.852.436 4.333.776 1.462.336 3.007.701 4.649.883l.221-1.988Zm-20.253 1.561c-8.41 5.607-21.536 16.676-50.678 21.533l.329 1.972c29.621-4.937 43.079-16.254 51.458-21.841l-1.109-1.664Zm-50.678 21.533a181.226 181.226 0 0 0-17.352 3.758c-4.419 1.174-7.502 2.111-10.021 2.538-2.464.418-4.227.313-5.977-.509-1.805-.848-3.703-2.507-6.31-5.463l-1.5 1.324c2.639 2.991 4.763 4.917 6.96 5.949 2.25 1.057 4.465 1.128 7.161.671 2.64-.447 5.897-1.434 10.201-2.577a179.565 179.565 0 0 1 17.167-3.719l-.329-1.972Zm-39.66.324c-5.13-5.813-10.302-15.277-12.716-26.224-2.41-10.935-2.056-23.284 3.765-34.928L81 224.232c-6.071 12.142-6.416 24.977-3.93 36.253 2.483 11.264 7.805 21.039 13.169 27.118l1.5-1.324Zm-8.95-61.152c9.514-19.029 15.119-27.902 16.684-29.915l-1.579-1.228c-1.699 2.185-7.38 11.22-16.894 30.248l1.788.895Zm16.816-30.141 5.597-13.292-1.843-.776-5.597 13.292 1.843.776Zm3.683-13.801c-.581 4.758-1.731 12.425-3.292 19.943-1.57 7.557-3.53 14.828-5.693 18.884l1.765.941c2.315-4.34 4.319-11.876 5.886-19.418 1.575-7.581 2.733-15.305 3.319-20.108l-1.985-.242Zm-8.985 38.827c-5.622 10.542-8.571 19.215-6.388 28.678l1.95-.45c-2.014-8.726.633-16.843 6.203-27.287l-1.764-.941Zm-6.388 28.678c1.042 4.512 2.26 11.648 3.4 18.307 1.13 6.606 2.19 12.805 2.91 15.322l1.922-.55c-.68-2.38-1.718-8.424-2.861-15.109-1.135-6.633-2.364-13.838-3.422-18.42l-1.949.45Zm6.31 33.629c.69 2.418 1.145 4.817.52 7.163-.614 2.301-2.322 4.734-6.36 7.089l1.009 1.727c4.357-2.542 6.497-5.355 7.283-8.301.773-2.901.179-5.749-.53-8.228l-1.923.55Zm-5.84 14.252c-4.13 2.409-9.292 4.474-13.972 6.504-2.32 1.007-4.522 2.007-6.37 3.026-1.83 1.009-3.408 2.088-4.406 3.286l1.536 1.28c.751-.901 2.058-1.834 3.836-2.815 1.759-.97 3.886-1.938 6.2-2.942 4.59-1.991 9.92-4.124 14.185-6.612l-1.008-1.727Zm-24.748 12.816c-1.028 1.233-1.902 3.387-2.462 6.006-.567 2.653-.835 5.897-.565 9.402.539 7.01 3.24 15.133 10.103 21.636l1.375-1.452c-6.428-6.09-8.974-13.707-9.484-20.338-.255-3.316 0-6.368.527-8.83.534-2.498 1.32-4.278 2.042-5.144l-1.536-1.28Zm7.076 37.044c5.401 5.117 9.93 7.452 13.468 8.226 3.525.77 6.12-.008 7.472-1.209l-1.329-1.495c-.747.664-2.63 1.425-5.715.75-3.073-.672-7.289-2.768-12.52-7.724l-1.376 1.452Zm20.342 7.267c3.103-.207 11.596 1.782 18.696 12.159l1.651-1.129c-7.451-10.889-16.588-13.285-20.48-13.025l.133 1.995Zm18.696 12.159c2.263 3.307 4.116 6.284 5.444 8.886 1.336 2.618 2.098 4.779 2.256 6.47.153 1.648-.269 2.733-1.196 3.46-1.003.787-2.781 1.306-5.679 1.306v2c3.049 0 5.381-.53 6.914-1.732 1.609-1.263 2.149-3.107 1.952-5.219-.192-2.069-1.091-4.5-2.466-7.194-1.383-2.71-3.29-5.767-5.574-9.106l-1.651 1.129Zm.825 20.122c-5.588 0-11.478-3.313-15.944-7.349-2.218-2.005-4.035-4.145-5.247-6.057-.607-.957-1.049-1.836-1.318-2.597-.273-.775-.341-1.355-.286-1.744l-1.98-.283c-.12.836.053 1.765.38 2.692.333.942.853 1.959 1.514 3.003 1.324 2.088 3.267 4.364 5.596 6.469 4.629 4.184 10.981 7.866 17.285 7.866v-2ZM87.78 368.232c.13-.906.593-1.516 1.282-1.904.724-.408 1.75-.595 2.966-.478 2.434.236 5.326 1.669 7.254 4.24l1.6-1.2c-2.27-3.026-5.674-4.741-8.661-5.03-1.495-.145-2.961.061-4.14.725-1.212.683-2.06 1.822-2.28 3.364l1.979.283Zm11.502 1.858c1.036 1.381 2.549 3.586 4.352 6.17 1.794 2.571 3.859 5.493 5.971 8.265 2.108 2.767 4.283 5.411 6.299 7.415 1.008 1.002 1.996 1.865 2.933 2.506.923.631 1.877 1.104 2.807 1.221l.248-1.985c-.468-.059-1.11-.329-1.926-.886-.8-.548-1.692-1.319-2.652-2.274-1.919-1.908-4.029-4.468-6.118-7.21-2.086-2.737-4.131-5.63-5.922-8.197-1.782-2.553-3.329-4.808-4.392-6.225l-1.6 1.2Zm22.362 25.577c2.807.35 14.976 2.264 27.185 3.933 6.081.831 12.152 1.599 17.014 2.071 2.43.235 4.571.399 6.266.459a29 29 0 0 0 2.219.007c.606-.026 1.159-.084 1.582-.205l-.55-1.923c-.189.054-.549.105-1.119.13-.552.024-1.243.021-2.062-.008-1.636-.058-3.73-.217-6.143-.451-4.822-.468-10.863-1.231-16.936-2.061-12.102-1.654-24.417-3.588-27.208-3.937l-.248 1.985Zm54.266 6.265c1.42-.406 2.544-1.309 2.583-2.727.035-1.274-.853-2.462-2.073-3.4-2.512-1.933-7.306-3.531-14.077-3.531v2c6.522 0 10.822 1.55 12.857 3.116 1.054.811 1.302 1.46 1.294 1.76-.005.156-.105.565-1.134.859l.55 1.923Zm-13.567-9.658c-6.578 0-15.25-1.04-22.718-1.83-3.713-.393-7.134-.724-9.807-.824-1.335-.05-2.515-.043-3.466.049a8.172 8.172 0 0 0-1.304.219c-.377.101-.762.25-1.081.488l1.199 1.601c.032-.024.143-.088.399-.156.245-.066.569-.121.98-.161.822-.08 1.899-.09 3.198-.041 2.596.097 5.952.421 9.672.814 7.398.783 16.215 1.841 22.928 1.841v-2Zm-38.376-1.898a1.738 1.738 0 0 0-.692 1.131c-.068.429.025.839.157 1.18.258.669.786 1.375 1.392 2.059 1.233 1.393 3.124 3.056 5.035 4.707 1.94 1.675 3.917 3.352 5.417 4.831.751.739 1.35 1.4 1.756 1.96.439.604.526.926.526 1.023h2c0-.778-.437-1.55-.906-2.197-.501-.691-1.191-1.441-1.972-2.21-1.56-1.538-3.605-3.272-5.513-4.92-1.936-1.673-3.718-3.246-4.846-4.519-.575-.649-.9-1.135-1.024-1.455-.059-.153-.04-.188-.047-.144a.272.272 0 0 1-.084.155l-1.199-1.601Zm13.591 16.891c0 .554-.372 1.521-1.171 2.645-.769 1.083-1.822 2.154-2.938 2.911-1.138.772-2.202 1.126-3.035 1.026-.728-.088-1.52-.554-2.121-2.057l-1.857.743c.799 1.995 2.106 3.103 3.739 3.299 1.528.184 3.087-.468 4.397-1.356 1.334-.905 2.554-2.152 3.446-3.408.863-1.215 1.54-2.609 1.54-3.803h-2Zm-9.265 4.525c-.681-1.703-.35-2.137-.206-2.263.138-.12.414-.256.933-.337.511-.08 1.164-.094 1.965-.052 1.613.085 3.605.382 5.896.671 2.26.285 4.76.554 7.274.554v-2c-2.383 0-4.781-.255-7.024-.538-2.212-.28-4.331-.595-6.041-.685-.86-.045-1.672-.037-2.38.074-.699.11-1.397.335-1.936.805-1.211 1.055-1.055 2.719-.338 4.514l1.857-.743Zm15.862-1.427c5.338 0 10.491-3.596 14.503-8.499 4.036-4.934 7.087-11.386 8.168-17.511l-1.97-.348c-1.017 5.767-3.913 11.907-7.746 16.593-3.859 4.715-8.5 7.765-12.955 7.765v2Zm22.671-26.01c2.029-11.499 11.537-22.41 24.501-26.504l-.603-1.907c-13.62 4.301-23.699 15.776-25.868 28.063l1.97.348Zm24.501-26.504c3.302-1.042 6.555-1.91 9.586-2.756 3.014-.84 5.819-1.662 8.151-2.604 2.313-.934 4.291-2.035 5.545-3.502 1.316-1.539 1.776-3.414 1.167-5.646l-1.93.526c.441 1.615.114 2.801-.757 3.82-.932 1.091-2.54 2.045-4.774 2.947-2.215.895-4.919 1.691-7.939 2.533-3.003.838-6.307 1.719-9.652 2.775l.603 1.907Zm24.449-14.508c-.583-2.137-1.833-3.937-3.279-5.508-1.439-1.563-3.136-2.965-4.643-4.257-1.542-1.322-2.87-2.515-3.739-3.735-.847-1.188-1.189-2.3-.92-3.509l-1.952-.434c-.431 1.939.189 3.626 1.244 5.105 1.032 1.448 2.547 2.79 4.065 4.091 1.554 1.332 3.136 2.64 4.473 4.094 1.331 1.446 2.355 2.969 2.821 4.679l1.93-.526Zm-12.581-17.009c.313-1.41 1.248-3.395 2.615-5.684 1.353-2.265 3.078-4.747 4.899-7.131 1.819-2.383 3.723-4.654 5.427-6.497 1.722-1.864 3.184-3.23 4.127-3.858l-1.11-1.665c-1.156.771-2.754 2.291-4.486 4.165-1.751 1.895-3.695 4.214-5.548 6.641-1.852 2.426-3.624 4.972-5.026 7.319-1.388 2.324-2.464 4.537-2.85 6.276l1.952.434Zm17.068-23.17a215.196 215.196 0 0 1 7.655-4.872l-1.029-1.715a218.94 218.94 0 0 0-7.736 4.922l1.11 1.665Zm6.321-6.303c-2.471 3.53-5.969 9.145-8.433 14.534-1.23 2.69-2.223 5.368-2.688 7.725-.456 2.306-.455 4.548.615 6.152l1.664-1.109c-.61-.914-.749-2.468-.317-4.656.422-2.138 1.345-4.655 2.545-7.281 2.398-5.245 5.826-10.752 8.252-14.218l-1.638-1.147Zm-10.506 28.411c1.18 1.772 2.963 3.047 4.85 4.064 1.882 1.014 3.984 1.828 5.827 2.599 1.894.793 3.49 1.531 4.576 2.412 1.038.841 1.501 1.715 1.374 2.851l1.988.221c.224-2.012-.713-3.499-2.102-4.626-1.341-1.087-3.198-1.922-5.064-2.703-1.917-.802-3.881-1.562-5.651-2.515-1.763-.95-3.216-2.035-4.134-3.412l-1.664 1.109Zm16.627 11.926c-.068.615-.358 1.464-.876 2.509-.51 1.028-1.207 2.178-2.027 3.378-1.639 2.4-3.726 4.94-5.664 7.007a40.673 40.673 0 0 1-2.693 2.645c-.82.721-1.457 1.183-1.864 1.384-.228.113-.235.068-.108.08a.68.68 0 0 1 .39.181.63.63 0 0 1 .19.315c.014.067-.016-.005.075-.332.083-.294.237-.703.488-1.246l-1.816-.838c-.274.594-.475 1.109-.597 1.544-.113.403-.198.867-.105 1.294.051.236.165.507.403.728.243.226.531.321.787.345.45.042.879-.129 1.18-.278.654-.324 1.454-.933 2.298-1.676a42.21 42.21 0 0 0 2.831-2.778c1.997-2.13 4.151-4.75 5.856-7.247.853-1.248 1.604-2.481 2.168-3.618.556-1.12.966-2.216 1.072-3.176l-1.988-.221Zm-12.089 15.921c1.023-2.217 2.292-4.367 3.753-6.131 1.467-1.771 3.085-3.1 4.794-3.761 1.675-.647 3.491-.674 5.47.247 2.013.938 4.25 2.885 6.642 6.302l1.638-1.147c-2.505-3.579-4.99-5.828-7.436-6.968-2.481-1.155-4.862-1.139-7.035-.299-2.139.826-4.019 2.425-5.613 4.35-1.599 1.93-2.954 4.239-4.029 6.569l1.816.838Zm20.659-3.343c4.843 6.919 17.049 30.1 28.255 52.774 5.593 11.318 10.922 22.478 14.938 31.373 2.009 4.448 3.686 8.322 4.902 11.362 1.234 3.082 1.95 5.203 2.105 6.206l1.976-.304c-.195-1.27-1.009-3.609-2.224-6.645-1.232-3.078-2.922-6.982-4.936-11.442-4.029-8.923-9.368-20.105-14.968-31.436-11.181-22.623-23.459-45.963-28.41-53.035l-1.638 1.147Zm50.2 101.715c.672 4.369.344 15.212-3.794 26.076-4.127 10.832-11.987 21.556-26.295 25.984l.592 1.911c15.074-4.666 23.303-15.978 27.572-27.183 4.256-11.173 4.628-22.366 3.901-27.092l-1.976.304Zm-30.089 52.06c-14.697 4.549-38.611 14.388-62.123 22.661-11.792 4.149-23.518 7.919-34.03 10.476-10.535 2.563-19.755 3.883-26.575 3.201l-.199 1.99c7.171.717 16.664-.673 27.247-3.248 10.606-2.58 22.404-6.375 34.221-10.533 23.71-8.342 47.367-18.091 62.051-22.636l-.592-1.911Zm-122.728 36.338c-13.673-1.367-21.6-8.178-25.285-14.795-1.853-3.326-2.622-6.581-2.541-9.067.083-2.567 1.018-3.933 2.129-4.267l-.574-1.915c-2.387.716-3.463 3.284-3.554 6.117-.095 2.914.798 6.524 2.793 10.106 4.01 7.199 12.522 14.38 26.833 15.811l.199-1.99Zm-25.697-28.129c1.642-.492 5.95-1.096 11.979-1.767 5.979-.666 13.535-1.386 21.58-2.13 16.076-1.485 34.115-3.061 45.329-4.463l-.248-1.985c-11.172 1.397-29.161 2.969-45.265 4.457-8.045.743-15.617 1.465-21.618 2.133-5.951.663-10.475 1.283-12.331 1.84l.574 1.915Zm78.888-8.36c11.345-1.418 29.311-7.94 39.114-13.593 2.451-1.412 4.462-2.811 5.737-4.105.634-.643 1.149-1.323 1.41-2.025.277-.742.28-1.553-.197-2.28-.439-.669-1.186-1.112-2.058-1.417-.887-.311-2.029-.522-3.423-.643-2.792-.243-6.765-.138-12.122.389l.195 1.99c5.311-.522 9.143-.614 11.754-.387 1.307.114 2.266.304 2.936.539.687.24.954.486 1.045.626.054.082.102.2-.004.484-.12.324-.415.767-.961 1.321-1.083 1.099-2.908 2.39-5.311 3.776-9.609 5.54-27.322 11.96-38.363 13.34l.248 1.985Zm28.461-23.674c-21.372 2.102-50.784 6.479-75.205 11.118-12.209 2.32-23.191 4.708-31.305 6.915-4.054 1.103-7.418 2.167-9.871 3.163-1.224.498-2.252.99-3.033 1.477-.737.46-1.423 1.015-1.728 1.701l1.828.813c.044-.101.272-.388.959-.817.643-.401 1.553-.844 2.727-1.321 2.343-.952 5.618-1.991 9.643-3.086 8.041-2.187 18.965-4.564 31.153-6.88 24.374-4.63 53.726-8.997 75.027-11.093l-.195-1.99ZM99.168 504.1c-1.517 3.414-1.659 8.544-.772 13.862.892 5.354 2.855 11.077 5.731 15.75l1.703-1.048c-2.72-4.421-4.605-9.892-5.461-15.031-.863-5.175-.654-9.838.627-12.72l-1.828-.813Zm4.959 29.612c1.418 2.305 3.499 5.226 5.529 8.147 2.048 2.946 4.05 5.898 5.375 8.335.665 1.222 1.131 2.264 1.356 3.08.244.882.124 1.203.076 1.27-.008.011-.043.062-.205.105-.179.047-.48.073-.951.014-.946-.117-2.35-.542-4.333-1.404l-.797 1.834c2.04.887 3.652 1.402 4.884 1.555 1.184.147 2.36-.008 3.027-.938.619-.863.494-2.001.227-2.969-.286-1.034-.836-2.233-1.527-3.503-1.385-2.547-3.45-5.586-5.49-8.521-2.058-2.96-4.088-5.81-5.468-8.053l-1.703 1.048Zm6.847 19.547c-7.53-3.274-10.083-11.154-11.838-19.319-.859-3.992-1.536-8.095-2.558-11.439-1.018-3.331-2.47-6.257-5.116-7.682l-.949 1.761c1.902 1.024 3.16 3.256 4.153 6.506.99 3.237 1.624 7.135 2.514 11.275 1.742 8.101 4.437 17.01 12.997 20.732l.797-1.834Zm-19.512-38.44c-4.749-2.557-10.932-3.469-15.974-2.461-2.527.505-4.84 1.508-6.534 3.106-1.718 1.618-2.752 3.805-2.752 6.532h2c0-2.17.802-3.832 2.124-5.077 1.344-1.267 3.273-2.144 5.555-2.6 4.577-.915 10.287-.079 14.632 2.261l.949-1.761Zm-25.26 7.177c0 9.883 2.784 22.956-6.24 48.638l1.888.663c9.165-26.087 6.352-39.597 6.352-49.301h-2Zm-6.24 48.638c-4.618 13.145-4.612 28.026-2.22 39.45 1.194 5.709 2.999 10.623 5.173 14.049 2.127 3.352 4.85 5.626 7.926 5.187l-.282-1.98c-1.82.26-3.907-1.051-5.956-4.279-2.001-3.154-3.738-7.816-4.904-13.387-2.331-11.137-2.325-25.639 2.15-38.377l-1.886-.663Zm10.88 58.686c4.915-.702 10.612-1.78 15.402-6.202 4.795-4.426 8.523-12.045 9.935-25.464l-1.989-.21c-1.385 13.165-5.003 20.236-9.302 24.205-4.305 3.973-9.452 4.994-14.33 5.691l.283 1.98Zm25.337-31.666c.698-6.631 1.436-11.298 2.282-14.661.847-3.365 1.785-5.354 2.841-6.684 1.043-1.313 2.263-2.064 3.865-2.85 1.587-.777 3.604-1.608 5.932-3.041l-1.048-1.703c-2.219 1.365-4.049 2.108-5.764 2.948-1.698.833-3.233 1.743-4.551 3.403-1.305 1.643-2.334 3.939-3.215 7.439-.88 3.501-1.63 8.278-2.33 14.939l1.988.21Zm14.92-27.236c2.359-1.451 3.709-2.911 4.248-4.334.565-1.492.188-2.816-.606-3.731-.747-.863-1.875-1.377-2.902-1.362-.526.008-1.104.16-1.562.575-.476.431-.702 1.037-.702 1.704h2c0-.11.018-.169.028-.194.009-.022.015-.027.017-.028.003-.003.065-.054.25-.057.393-.006.971.222 1.36.672.344.396.535.953.247 1.712-.314.829-1.237 1.993-3.426 3.34l1.048 1.703Zm-1.524-7.148c0 1.531-.767 5.736 2.449 9.246 3.199 3.489 10.069 6.096 24.46 5.745l-.049-1.999c-14.291.348-20.364-2.291-22.936-5.098-2.555-2.787-1.924-5.927-1.924-7.894h-2Zm26.909 14.991c28.728-.701 50.566-2.804 76.625-14.073l-.794-1.836c-25.708 11.118-47.244 13.211-75.88 13.91l.049 1.999Zm76.625-14.073c25.651-11.092 61.824-13.909 110.749-9.715l.171-1.993c-49.015-4.201-85.596-1.422-111.714 9.872l.794 1.836Zm110.749-9.715c24.22 2.076 32.502 11.661 46.875 19.129 14.401 7.482 34.292 12.361 80.93 4.646l-.326-1.973c-46.404 7.676-65.807 2.761-79.682-4.448-13.901-7.223-22.876-17.226-47.626-19.347l-.171 1.993Z" fill="#131441"/><path d="m215.212 86.166-.035 1h.035v-1Zm.036-1c-19.694-.703-30.023-.002-43.203-2.777l-.412 1.957c13.404 2.822 24.062 2.123 43.544 2.82l.071-2Zm-43.203-2.777c-3.344-.704-5.765-1.18-7.624-1.603-1.861-.425-3.057-.777-3.956-1.206-1.711-.819-2.435-1.94-4.583-5.162l-1.665 1.11c2.05 3.073 3.075 4.75 5.385 5.856 1.114.532 2.497.924 4.374 1.352 1.879.428 4.355.915 7.657 1.61l.412-1.957Zm-16.163-7.971c-1.018-1.526-2.302-3.921-3.725-6.537-1.407-2.584-2.937-5.358-4.411-7.546-.736-1.093-1.479-2.072-2.208-2.819-.701-.718-1.51-1.35-2.393-1.527a2.282 2.282 0 0 0-1.434.162c-.458.214-.824.568-1.115.991-.565.823-.955 2.06-1.224 3.675l1.973.329c.255-1.533.587-2.417.899-2.87.148-.215.26-.288.313-.313.042-.02.095-.033.196-.013.265.053.718.312 1.354.963.608.623 1.274 1.49 1.981 2.54 1.412 2.096 2.898 4.788 4.312 7.385 1.397 2.566 2.736 5.068 3.817 6.69l1.665-1.11Zm-16.51-13.601c-.544 3.265-.451 6.332-.206 9 .122 1.332.283 2.575.422 3.684.14 1.12.255 2.09.297 2.921.042.842.002 1.455-.12 1.887-.112.399-.273.576-.467.68-.236.125-.683.227-1.52.129-.826-.097-1.928-.377-3.383-.89l-.665 1.886c1.518.536 2.778.868 3.815.99 1.027.12 1.946.048 2.694-.351.79-.421 1.23-1.119 1.451-1.9.211-.75.237-1.623.192-2.53-.046-.918-.171-1.96-.31-3.07-.14-1.12-.296-2.326-.414-3.618-.237-2.58-.318-5.458.187-8.49l-1.973-.328Zm-4.977 17.41c-3.004-1.06-5.331-1.865-7.051-2.736-1.716-.868-2.627-1.706-3.017-2.715-.397-1.024-.355-2.471.449-4.788.799-2.303 2.291-5.297 4.561-9.312l-1.742-.984c-2.277 4.03-3.846 7.156-4.708 9.64-.858 2.472-1.079 4.479-.425 6.166.658 1.701 2.109 2.831 3.978 3.777 1.865.944 4.347 1.8 7.29 2.839l.665-1.886Zm-5.058-19.551c4.639-8.21 5.733-17.374 7.622-25.36 1.906-8.058 4.621-15.067 12.314-19.75l-1.04-1.708c-8.397 5.11-11.279 12.792-13.22 20.998-1.959 8.28-2.963 16.955-7.418 24.836l1.742.984Zm19.936-45.11c7.993-4.865 15.23-8.303 23.65-10.108 8.423-1.804 18.094-1.988 30.962-.249l.268-1.982c-13.017-1.759-22.933-1.592-31.649.276-8.721 1.868-16.174 5.426-24.271 10.355l1.04 1.708Zm54.612-10.357c12.75 1.723 20.547 6.352 25.339 12.07 4.807 5.734 6.691 12.683 7.379 19.225l1.989-.21c-.71-6.75-2.674-14.143-7.835-20.3-5.177-6.177-13.47-10.992-26.604-12.767l-.268 1.982Zm32.718 31.295c.707 6.716 3.185 15.935 4.914 23.978.873 4.059 1.56 7.826 1.773 10.91.107 1.54.092 2.877-.064 3.975-.157 1.108-.448 1.894-.832 2.406l1.6 1.2c.666-.888 1.031-2.047 1.213-3.325.182-1.287.19-2.776.078-4.394-.224-3.235-.936-7.12-1.812-11.193-1.769-8.222-4.188-17.191-4.881-23.767l-1.989.21Zm5.791 41.269c-.93 1.24-2.499 2.47-4.552 3.618-2.039 1.141-4.491 2.167-7.114 3.027-5.255 1.723-11.095 2.748-15.516 2.748v2c4.675 0 10.727-1.073 16.139-2.848 2.711-.888 5.288-1.962 7.468-3.181 2.166-1.213 4.007-2.606 5.175-4.164l-1.6-1.2ZM210.314 256.865l.459.888.018-.009.017-.01-.494-.869ZM184.43 280.65l-.948-.316.948.316Zm25.426-24.674c-3.667 1.893-9.359 5.358-14.569 9.63-5.176 4.243-10.032 9.408-11.805 14.728l1.897.632c1.585-4.754 6.056-9.616 11.176-13.814 5.085-4.17 10.656-7.56 14.218-9.399l-.917-1.777Zm-26.374 24.358c-2.235 6.704.184 14.281 5.087 18.721 2.467 2.235 5.592 3.702 9.102 3.844 3.515.142 7.324-1.048 11.151-3.964l-1.212-1.591c-3.519 2.68-6.88 3.677-9.858 3.556-2.983-.12-5.674-1.365-7.841-3.327-4.366-3.954-6.495-10.719-4.532-16.607l-1.897-.632Zm25.34 18.601c14.693-11.195 24.534-18.925 35.079-29.47l-1.414-1.415c-10.442 10.442-20.188 18.102-34.877 29.294l1.212 1.591Zm35.079-29.47c5.169-5.169 15.723-12.264 24.882-18.781 4.545-3.234 8.739-6.323 11.67-8.92 1.461-1.295 2.655-2.508 3.421-3.589.383-.54.691-1.091.857-1.637.168-.553.208-1.167-.043-1.754l-1.838.788c.01.025.045.128-.033.384-.08.263-.258.616-.574 1.062-.633.892-1.691 1.985-3.116 3.249-2.841 2.518-6.953 5.55-11.503 8.787-9.03 6.425-19.812 13.672-25.137 18.996l1.414 1.415Zm40.787-34.681c-.155-.361-.365-.73-.674-.988a1.422 1.422 0 0 0-.653-.315 1.304 1.304 0 0 0-.783.1c-.422.194-.664.562-.797.821a3.926 3.926 0 0 0-.324.963c-.28 1.324-.189 3.374.741 5.026.476.847 1.187 1.611 2.197 2.086 1.01.476 2.235.622 3.674.376 2.832-.484 6.632-2.511 11.743-6.917l-1.306-1.515c-5.032 4.338-8.491 6.071-10.774 6.461-1.119.191-1.916.054-2.485-.214-.57-.268-.996-.706-1.306-1.258-.645-1.146-.728-2.682-.527-3.631.048-.228.104-.381.147-.464.058-.113.036-.002-.148.083a.694.694 0 0 1-.414.05.585.585 0 0 1-.267-.117c-.048-.04.01-.01.118.241l1.838-.788Zm15.124 1.152c10.194-8.788 17.142-17.474 19.939-23.88 1.376-3.151 1.871-6.033.869-8.105-1.078-2.23-3.582-3.012-6.88-2.646l.221 1.988c2.998-.333 4.341.458 4.859 1.529.594 1.229.433 3.375-.902 6.433-2.624 6.011-9.318 14.464-19.412 23.166l1.306 1.515Zm13.928-34.631c-6.5.722-14.515 4.124-20.882 8.104-3.192 1.995-6.017 4.164-8.057 6.261-1.02 1.048-1.865 2.1-2.46 3.122-.59 1.015-.971 2.067-.971 3.095h2c0-.545.208-1.243.7-2.089.488-.838 1.217-1.76 2.164-2.734 1.895-1.947 4.58-4.019 7.684-5.959 6.225-3.891 13.95-7.135 20.043-7.812l-.221-1.988Zm-32.37 20.582c0 1.664.262 3.553.92 5.174.654 1.612 1.767 3.108 3.55 3.676 1.787.569 3.935.107 6.429-1.484 2.5-1.595 5.489-4.408 9.067-8.836l-1.555-1.257c-3.516 4.351-6.348 6.978-8.588 8.407-2.246 1.432-3.759 1.578-4.746 1.264-.99-.315-1.765-1.194-2.304-2.522-.535-1.32-.773-2.938-.773-4.422h-2Zm19.966-1.47c14.11-17.464 37.614-36.917 52.319-48.821l-1.258-1.555c-14.677 11.882-38.351 31.463-52.616 49.119l1.555 1.257Zm52.319-48.821c7.302-5.911 13.317-10.512 17.034-14.141 1.853-1.808 3.242-3.474 3.914-5.03.343-.793.519-1.601.441-2.409-.079-.819-.411-1.562-.962-2.224l-1.537 1.281c.323.387.472.759.508 1.134.037.387-.038.852-.286 1.425-.508 1.177-1.655 2.616-3.475 4.392-3.629 3.542-9.506 8.036-16.895 14.017l1.258 1.555Zm20.427-23.804c-1.74-2.088-3.241-4.101-4.144-6.072-.895-1.953-1.167-3.781-.573-5.563l-1.897-.633c-.805 2.415-.377 4.784.651 7.029 1.021 2.227 2.668 4.41 4.426 6.52l1.537-1.281Zm-4.717-11.635c.651-1.954 1.785-3.574 2.87-5.292 1.041-1.649 2.078-3.447 2.078-5.518h-2c0 1.427-.712 2.776-1.769 4.45-1.014 1.606-2.328 3.483-3.076 5.727l1.897.633Zm4.948-10.81c0-1.076-.412-2.492-.971-3.855-.571-1.393-1.347-2.857-2.18-4.06a11.736 11.736 0 0 0-1.309-1.605c-.44-.44-.942-.837-1.485-1.052-.576-.226-1.275-.268-1.908.16-.572.386-.902 1.037-1.104 1.742l1.923.55a2.22 2.22 0 0 1 .205-.512c.061-.101.099-.125.096-.123-.059.04-.091-.013.055.044.177.07.451.252.804.605.342.342.708.794 1.079 1.33.742 1.071 1.452 2.405 1.974 3.679.534 1.304.821 2.424.821 3.097h2Zm-8.957-8.67c-.229.804-.201 1.575.093 2.275.287.686.793 1.219 1.377 1.628 1.142.801 2.749 1.245 4.335 1.472 1.612.23 3.328.253 4.786.126a14.058 14.058 0 0 0 1.993-.303c.56-.133 1.113-.319 1.525-.593l-1.11-1.664c-.113.075-.39.195-.877.311-.464.11-1.045.2-1.704.257a19.746 19.746 0 0 1-4.33-.114c-1.475-.211-2.711-.597-3.47-1.13-.368-.257-.578-.517-.681-.763-.097-.232-.134-.532-.014-.952l-1.923-.55Zm14.109 4.605c.507-.338.865-.943 1.123-1.499.279-.602.527-1.342.733-2.145.413-1.606.688-3.57.688-5.408 0-1.791-.259-3.658-1.081-4.919-.432-.662-1.049-1.2-1.888-1.412-.824-.208-1.716-.063-2.635.345l.812 1.828c.655-.291 1.076-.299 1.333-.234.244.061.479.222.703.566.489.751.756 2.119.756 3.826 0 1.66-.251 3.456-.625 4.91-.187.727-.398 1.343-.611 1.801a3.452 3.452 0 0 1-.29.523c-.09.129-.138.16-.128.154l1.11 1.664Zm-3.06-15.038c-.877.39-1.573.88-2.005 1.505a2.522 2.522 0 0 0-.382 2.119c.175.675.594 1.269 1.086 1.767.499.506 1.126.967 1.814 1.37 1.372.804 3.08 1.435 4.736 1.728 1.623.288 3.366.281 4.699-.385l-.895-1.789c-.766.383-1.996.463-3.455.205-1.427-.253-2.911-.803-4.074-1.485-.581-.34-1.057-.699-1.402-1.049-.353-.357-.519-.653-.573-.864a.525.525 0 0 1 .091-.479c.144-.209.476-.506 1.172-.815l-.812-1.828Zm9.948 8.104c2.431-1.216 4.308-4.124 5.139-6.71.42-1.306.619-2.664.415-3.805-.103-.579-.319-1.148-.709-1.617a2.736 2.736 0 0 0-1.598-.937l-.393 1.962a.738.738 0 0 1 .454.254c.11.133.217.351.277.69.125.695.017 1.698-.35 2.841-.742 2.31-2.363 4.65-4.13 5.533l.895 1.789Zm3.247-13.069c-.623-.124-1.271-.062-1.797.339-.514.391-.727.967-.791 1.48-.125.999.242 2.188.834 3.175.603 1.005 1.549 1.986 2.79 2.437 1.299.473 2.778.31 4.246-.738l-1.163-1.628c-.981.701-1.775.714-2.4.487-.683-.249-1.311-.842-1.758-1.587-.457-.762-.615-1.497-.564-1.898.023-.186.072-.179.018-.138-.067.052-.06-.018.192.033l.393-1.962Zm5.282 6.693c2.647-1.892 4.854-5.226 5.87-8.088.503-1.418.769-2.871.529-4.044-.124-.607-.397-1.198-.905-1.635-.515-.444-1.167-.64-1.878-.64v2c.338 0 .494.087.573.155.085.073.189.22.251.52.131.642.004 1.681-.455 2.975-.908 2.559-2.899 5.522-5.148 7.129l1.163 1.628Zm3.616-14.407c-.732 0-1.38.218-1.905.63-.514.403-.854.947-1.066 1.52-.417 1.125-.393 2.496-.1 3.718.292 1.219.896 2.463 1.827 3.267.476.411 1.056.721 1.728.821.678.101 1.376-.024 2.062-.367l-.895-1.788c-.364.182-.649.21-.873.177-.23-.034-.469-.145-.715-.357-.512-.442-.957-1.253-1.19-2.22-.231-.965-.208-1.91.031-2.557.116-.313.268-.517.426-.641.147-.116.352-.204.67-.204v-2Zm2.546 9.589c2.268-1.134 5.877-4.222 8.217-7.282 1.162-1.52 2.121-3.17 2.358-4.671.122-.773.063-1.575-.333-2.296-.4-.73-1.075-1.247-1.944-1.573l-.702 1.873c.531.199.774.446.893.662.123.225.185.548.11 1.022-.156.992-.859 2.314-1.971 3.768-2.207 2.886-5.593 5.744-7.523 6.709l.895 1.788Zm8.298-15.822c-1.497-.561-2.92-.606-3.814.352-.831.89-.761 2.205-.471 3.22.31 1.085.968 2.22 1.855 3.094.886.873 2.086 1.566 3.478 1.566v-2c-.706 0-1.429-.355-2.074-.99-.643-.635-1.122-1.468-1.336-2.22-.235-.82-.078-1.21.01-1.305.024-.026.349-.332 1.65.156l.702-1.873Zm1.048 8.233c.68 0 1.475-.18 2.289-.449a20.229 20.229 0 0 0 2.675-1.134c1.866-.939 3.878-2.226 5.56-3.636 1.652-1.383 3.111-2.988 3.696-4.588.302-.824.396-1.717.082-2.582-.315-.869-.987-1.559-1.923-2.079l-.972 1.749c.638.354.907.714 1.015 1.012.109.302.111.693-.08 1.213-.398 1.09-1.518 2.415-3.102 3.742-1.554 1.302-3.434 2.507-5.175 3.382-.869.438-1.689.786-2.404 1.023-.73.241-1.291.346-1.661.346v2Zm12.379-14.468c-1.641-.911-3.172-1.212-4.297-.442-1.105.756-1.261 2.169-1.116 3.283a7.285 7.285 0 0 0 1.489 3.478c.799 1.002 1.976 1.852 3.438 1.852v-2c-.637 0-1.296-.373-1.874-1.099a5.278 5.278 0 0 1-1.069-2.49c-.117-.898.121-1.278.261-1.374.122-.083.689-.297 2.196.54l.972-1.748Zm-.486 8.171c1.255 0 2.499-.414 3.6-.891 1.065-.461 2.213-1.087 3.039-1.48a9.07 9.07 0 0 1 1.153-.476c.335-.104.544-.123.662-.11.082.008.1.025.125.056.051.06.157.237.229.665l1.972-.328c-.103-.62-.303-1.187-.67-1.624a2.136 2.136 0 0 0-1.447-.758c-.504-.053-1.011.048-1.466.19-.463.144-.945.354-1.418.58-1.011.48-1.918.993-2.974 1.45-1.019.441-1.961.726-2.805.726v2Zm8.808-2.236c.369 2.216 1.178 4.926.363 8.349-.804 3.378-3.247 7.566-9.764 12.369l1.186 1.61c6.775-4.992 9.579-9.548 10.524-13.516.934-3.922-.006-7.159-.337-9.14l-1.972.328Zm-9.401 20.718c-6.609 4.869-12.429 8.928-17.151 12.513-4.73 3.591-8.494 6.805-11.028 10.064l1.579 1.228c2.362-3.038 5.945-6.12 10.658-9.699 4.722-3.585 10.445-7.572 17.128-12.496l-1.186-1.61Zm-28.179 22.577c-1.268 1.631-2.215 3.21-3.013 4.641-.815 1.459-1.433 2.681-2.112 3.741-.665 1.039-1.316 1.8-2.106 2.312-.773.501-1.757.812-3.173.812v2c1.733 0 3.11-.388 4.26-1.133 1.134-.734 1.97-1.766 2.704-2.913.721-1.126 1.414-2.484 2.173-3.845.776-1.389 1.666-2.87 2.846-4.387l-1.579-1.228Zm-10.404 11.506c-1.132 0-2.318-.765-3.747-2.215-.693-.704-1.393-1.515-2.134-2.379-.733-.855-1.505-1.761-2.312-2.614-1.602-1.69-3.457-3.296-5.686-3.964-2.301-.691-4.836-.338-7.662 1.546l1.109 1.664c2.421-1.613 4.345-1.785 5.979-1.295 1.706.512 3.261 1.792 4.808 3.425.766.809 1.503 1.673 2.246 2.54.734.857 1.478 1.719 2.227 2.48 1.457 1.479 3.156 2.812 5.172 2.812v-2Zm-21.541-9.626c-5.304 3.536-17.249 13.376-28.768 22.975-11.571 9.643-22.72 19.049-26.532 21.821l1.177 1.617c3.883-2.824 15.121-12.306 26.635-21.902 11.567-9.638 23.407-19.386 28.597-22.847l-1.109-1.664Zm-55.3 44.796c-3.803 2.766-11.209 7.882-17.672 12.686-3.241 2.409-6.283 4.766-8.564 6.748-1.138.99-2.107 1.902-2.821 2.693a9.815 9.815 0 0 0-.901 1.133c-.228.344-.435.733-.516 1.138l1.962.392c.006-.032.051-.168.222-.426.162-.245.399-.544.717-.896.636-.705 1.536-1.557 2.649-2.524 2.223-1.931 5.215-4.252 8.445-6.653 6.479-4.816 13.764-9.843 17.656-12.674l-1.177-1.617Zm-30.474 24.398c-.208 1.044-.15 2.334.154 3.526.301 1.18.882 2.414 1.853 3.213 1.043.859 2.419 1.116 3.975.483 1.476-.601 3.095-1.989 4.886-4.318l-1.585-1.219c-1.707 2.218-3.061 3.28-4.055 3.684-.915.372-1.506.192-1.95-.173-.516-.425-.94-1.202-1.186-2.165-.242-.95-.271-1.934-.13-2.639l-1.962-.392Zm10.868 2.904c1.846-2.4 3.083-5.246 3.712-7.97.626-2.709.673-5.392.036-7.452-.32-1.035-.831-1.966-1.583-2.642-.771-.693-1.744-1.071-2.872-1.057-2.171.027-4.775 1.499-7.788 4.513l1.414 1.414c2.933-2.934 5.051-3.911 6.399-3.927.633-.008 1.118.192 1.51.544.409.368.761.945 1.009 1.746.5 1.614.503 3.916-.073 6.41-.573 2.479-1.698 5.055-3.349 7.202l1.585 1.219Zm-8.495-14.608c-3.002 3.002-7.181 7.755-12.133 13.383-4.964 5.642-10.726 12.19-16.923 18.824-12.415 13.29-26.491 26.829-39.288 34.091l.987 1.739c13.087-7.426 27.343-21.17 39.763-34.465 6.22-6.658 12.001-13.228 16.962-18.867 4.973-5.653 9.101-10.346 12.046-13.291l-1.414-1.414Z" fill="#131441"/></svg>