<svg width="553" height="194" fill="none" xmlns="http://www.w3.org/2000/svg"><circle r="8.728" transform="matrix(-1 0 0 1 324.693 131.919)" fill="#FFD43A"/><circle r="23.907" transform="matrix(-1 0 0 1 196.431 116.74)" fill="#FFD43A"/><path d="M73.555 147.823c6.377 10.66 9.596 19.867 13.587 19.008 3.99-.858 1.63-8.791-1.214-22.009-2.843-13.219-6.307-23.346-10.297-22.487-3.99.858-4.92 12.27-2.076 25.488ZM317.104 153.929c0 3.563 4.128 3.415 10.625 3.415s11.764-4.406 11.764-7.969c0-3.562-5.267-2.277-11.764-2.277-6.497 0-10.625 3.268-10.625 6.831Z" fill="#FFD43A"/><path d="M1 189.951c2.462-.638 8.7-2.682 13.953-5.748 6.566-3.833 7.387-7.939 19.424-1.917 12.038 6.023 20.793 11.497 36.113 9.581 15.321-1.916 21.887-2.189 21.34-9.581-.547-7.391-5.198-14.783 1.368-18.889 6.566-4.106 10.67-8.213 6.84-20.532s-6.293-10.95-8.208-13.414c-1.915-2.463-6.566-6.296-3.83-13.961 2.736-7.665-.82-18.341-8.481-20.805-7.66-2.464-10.123-1.643-10.123-.822 0 .822 7.113 21.08 6.293 24.638-.821 3.559-3.283 5.475-3.83 7.392-.548 1.916 1.914 20.531 3.83 22.447 1.915 1.917 5.198 7.939 6.292 12.319 1.094 4.38 7.934 12.593 6.019 2.738s-3.557-14.509-3.557-18.342c0-3.832-2.462-17.52-4.924-19.162-2.463-1.643-7.934 1.368-10.123-6.57-2.189-7.939-9.302-41.063-9.575-44.075-.274-3.011 3.556-10.129 6.019-11.771 2.462-1.643 2.188-2.464 1.094-2.464s-7.66 1.095-4.377-1.642c3.282-2.738 3.009-4.107 1.094-3.56-1.915.548-4.104 2.19-5.745-2.463-1.642-4.654-2.19-4.928-3.01-4.928-.82 0-.82 5.475-1.368 6.844-.547 1.369-4.65 3.011-4.65 3.832 0 .822 6.839.548 6.839 1.37 0 .82-7.113 4.106-6.293 5.2.821 1.096 9.029-1.642 12.585 5.476 3.557 7.117 5.746 15.877 5.746 17.52 0 1.642-.548 3.558-1.915 4.38-1.368.822-13.68 5.749-14.227 12.593-.547 6.843 2.736 11.497 3.557 13.14.82 1.642.273 5.749 1.368 5.749 1.094 0 5.745-1.369 7.113 1.369 1.368 2.737.82 9.033-.274 10.676-1.094 1.642-4.104 4.106-5.198 4.927-1.094.822 1.094 2.19 1.368 3.012.274.821.547 14.235 1.368 15.877.82 1.643 1.642 8.213 12.311 10.129 10.67 1.916 22.434-1.643 26.812-5.749 4.377-4.106 8.754-12.592 4.103-21.9-4.65-9.308-7.66-12.045 5.199-12.045 12.858 0 22.16 3.011 36.934 10.403 14.773 7.391 33.103 6.57 37.207 4.38 4.104-2.19 10.396-9.855 9.302-12.319-1.094-2.464-4.104-3.012-4.924-1.095-.821 1.916 0 12.866 2.462 10.95 2.462-1.916 7.113-9.582 6.566-17.52-.547-7.939-3.83-11.224-1.642-15.604 2.189-4.38 6.84-4.38 8.481-7.939 1.642-3.559 15.321-56.94 15.868-59.405.548-2.463 0-5.201-1.641-6.843-1.642-1.643-4.651-8.213-.547-9.308 4.103-1.095 10.396-.548 11.217-4.654.82-4.106-1.368-9.308-6.293-7.939-4.924 1.369-6.292 6.114-3.83 9.034 2.463 2.92 6.84 4.106 6.566 6.023-.273 1.916-.547 4.106-2.188 5.475-1.642 1.368-6.566.273-7.934 1.916-1.095 1.314-8.846 30.66-12.585 45.17-1.551 5.11-3.94 15.713-1.095 17.246 3.557 1.916 15.048 3.832 18.604 15.33 3.557 11.498-1.094 28.744-17.509 32.577-16.415 3.832-27.632-6.844-29-10.677-1.368-3.832-5.198-18.889 1.368-26.828 6.566-7.938 12.205-12.318 21.339-12.045 9.135.274 16.689.548 28.453 4.107 11.764 3.558 32.283 18.341 45.415 27.375 13.132 9.034 16.689 6.023 20.793 1.916 4.103-4.106 6.292-9.581 13.405-7.665 7.113 1.916 10.944 4.106 12.585 0 1.642-4.106.274-6.296-.547-5.749-.821.548-2.189 2.464-6.84 2.738s-9.849 2.737-5.745 9.581c4.104 6.844 6.84 7.392 6.292 10.129-.547 2.738-7.66 18.342-2.462 27.102 5.198 8.76 8.755 15.604 32.01 13.687 23.254-1.916 21.886-30.934 15.868-37.504-6.019-6.57-13.133-10.95-12.312-18.068.821-7.117.547-11.223-4.104-14.235-4.651-3.011-10.122-2.19-13.132-1.095-3.009 1.095-5.471 6.023-6.839 4.654-1.368-1.369-10.123-32.577-10.944-37.778-.82-5.201-1.915-10.676.548-14.509 2.462-3.832 2.462-5.749 2.188-8.213-.273-2.463-3.556-14.235-4.377-13.687-.821.547-2.189 3.011-3.83 3.285-1.642.274-4.651-.821-4.651.821 0 1.643 3.283 5.749 3.009 8.486-.273 2.738-1.641 9.308 0 10.403 1.642 1.095 8.755-1.095 10.67 1.643 1.915 2.737 7.934 29.291 9.849 34.219 1.915 4.927 8.208 25.185 9.849 28.47 1.642 3.285 3.557 12.593-5.745 12.045-9.302-.547-10.396-9.581-4.651-13.414 5.745-3.832 12.038-1.916 13.405.548 1.368 2.464 3.283 17.246 3.01 20.805-.274 3.559 2.189 6.844-7.113 7.665-7.442.657-10.579.274-11.217 0l.547-3.558c4.651-1.917 15.649-5.585 22.434-4.928 8.481.821 11.217 5.201 15.321 7.118 4.103 1.916 13.679 2.19 16.141 0 2.462-2.19 6.566-13.414 16.962-15.057 10.397-1.642 18.878-2.737 23.255-6.022 3.502-2.629 15.321-40.698 20.792-59.405 4.013-14.509 12.749-43.472 15.595-43.253 3.556.274 5.198 3.011 6.566 11.224 1.368 8.212 2.462 22.721 5.198 23.543 2.736.82 10.122-1.643 10.122 0 0 1.642-29.273 34.493-32.83 38.599-3.556 4.106-19.424 21.353-16.415 25.733 3.01 4.38 8.755 0 19.972-15.878s33.377-46.812 35.019-47.907c1.641-1.095 3.283-3.011 1.641 2.738-1.641 5.749-31.462 55.845-33.65 59.678-2.189 3.833-6.84 12.319-7.387 14.235-.547 1.916.273 5.475-8.755 5.201-9.028-.273-29.273-2.611-29.547-6.296-.274-3.685 1.368-10.95 3.009-11.771 1.642-.822 6.84-2.738 9.029-6.297 2.188-3.558 11.764-31.207 15.868-50.37 4.103-19.163 12.037-52.287 13.132-58.31 1.094-6.022 0-13.687 6.566-12.866 6.566.821 14.226 3.011 18.33 14.783 4.104 11.771.821 36.135 2.189 38.051 1.367 1.917 8.48 0 11.216 0 2.736 0 5.746-.82 6.84 3.285 1.094 4.107-1.094 28.745 8.208 31.756 9.302 3.011 22.707-11.224 33.651-11.498 10.943-.274 13.132 7.391 15.32 11.498 1.751 3.285 6.566 7.391 8.755 9.034" stroke="#131441" stroke-width="2"/></svg>