<svg width="314" height="157" fill="none" xmlns="http://www.w3.org/2000/svg"><circle r="7.065" transform="matrix(-1 0 0 1 263.009 106.971)" fill="#FFD43A"/><circle r="19.351" transform="matrix(-1 0 0 1 159.188 94.685)" fill="#FFD43A"/><path d="M59.729 119.844c5.162 8.628 7.768 16.081 10.998 15.386 3.23-.695 1.32-7.116-.983-17.815-2.301-10.7-5.105-18.897-8.334-18.202-3.23.695-3.983 9.932-1.681 20.631ZM256.866 124.786c0 2.884 3.341 2.765 8.6 2.765 5.259 0 9.522-3.567 9.522-6.45 0-2.884-4.263-1.843-9.522-1.843s-8.6 2.645-8.6 5.528Z" fill="#FFD43A"/><path d="M1 153.944c1.993-.517 7.042-2.171 11.294-4.653 5.315-3.102 5.98-6.426 15.723-1.551 9.744 4.875 16.83 9.306 29.231 7.755 12.401-1.551 17.716-1.772 17.273-7.755-.443-5.983-4.207-11.966 1.108-15.29 5.314-3.324 8.636-6.647 5.536-16.619-3.1-9.971-5.094-8.863-6.644-10.858-1.55-1.994-5.315-5.096-3.1-11.3 2.214-6.205-.664-14.847-6.865-16.841-6.2-1.994-8.194-1.33-8.194-.665S62.12 93.23 61.456 96.11c-.665 2.88-2.658 4.432-3.1 5.983-.444 1.551 1.55 16.619 3.1 18.17 1.55 1.551 4.207 6.426 5.093 9.971.886 3.546 6.422 10.193 4.872 2.216-1.55-7.977-2.879-11.744-2.879-14.846 0-3.102-1.993-14.182-3.986-15.511-1.993-1.33-6.422 1.108-8.194-5.318-1.771-6.426-7.529-33.238-7.75-35.676-.222-2.437 2.878-8.198 4.871-9.528 1.994-1.33 1.772-1.994.886-1.994s-6.2.886-3.543-1.33 2.436-3.324.886-2.88c-1.55.443-3.322 1.772-4.65-1.995-1.33-3.767-1.772-3.988-2.436-3.988-.665 0-.665 4.431-1.108 5.54-.443 1.107-3.764 2.437-3.764 3.102 0 .664 5.536.443 5.536 1.107 0 .665-5.758 3.324-5.093 4.21.664.887 7.307-1.329 10.186 4.432 2.88 5.761 4.65 12.852 4.65 14.182s-.442 2.88-1.55 3.545c-1.107.665-11.072 4.654-11.515 10.193-.443 5.54 2.215 9.307 2.879 10.636.664 1.33.221 4.654 1.107 4.654s4.65-1.108 5.758 1.108c1.107 2.215.664 7.312-.222 8.641-.885 1.33-3.321 3.324-4.207 3.989-.886.665.886 1.773 1.107 2.437.222.665.443 11.523 1.107 12.852.665 1.33 1.33 6.648 9.966 8.199 8.636 1.551 18.158-1.33 21.702-4.653 3.543-3.324 7.086-10.193 3.322-17.727-3.765-7.534-6.201-9.75 4.207-9.75s17.938 2.438 29.896 8.42c11.958 5.983 26.795 5.318 30.117 3.546 3.322-1.773 8.415-7.977 7.529-9.972-.886-1.994-3.321-2.437-3.986-.886-.664 1.551.001 10.415 1.993 8.864 1.993-1.552 5.758-7.756 5.315-14.182-.443-6.426-3.1-9.085-1.329-12.63 1.772-3.546 5.537-3.546 6.865-6.426 1.329-2.881 12.402-46.09 12.844-48.085.443-1.994 0-4.21-1.328-5.54-1.329-1.329-3.765-6.647-.443-7.533 3.322-.887 8.415-.444 9.079-3.767.665-3.324-1.107-7.534-5.093-6.426-3.986 1.108-5.093 4.948-3.1 7.312 1.993 2.364 5.536 3.324 5.315 4.875-.222 1.551-.443 3.324-1.772 4.432-1.329 1.108-5.315.221-6.422 1.55-.886 1.065-7.16 24.819-10.187 36.563-1.255 4.136-3.189 12.719-.885 13.96 2.878 1.55 12.179 3.102 15.058 12.408 2.879 9.307-.886 23.267-14.173 26.369-13.287 3.102-22.366-5.539-23.473-8.642-1.108-3.102-4.208-15.29 1.107-21.715 5.315-6.426 9.879-9.971 17.273-9.75 7.394.222 13.508.443 23.031 3.324 9.522 2.88 26.131 14.846 36.76 22.158 10.63 7.313 13.509 4.875 16.831 1.552 3.321-3.324 5.093-7.756 10.851-6.205 5.757 1.551 8.858 3.324 10.186 0 1.329-3.324.222-5.096-.443-4.653-.664.443-1.771 1.994-5.536 2.216-3.765.221-7.972 2.216-4.65 7.755 3.321 5.54 5.536 5.983 5.093 8.199-.443 2.216-6.201 14.846-1.993 21.937 4.207 7.091 7.086 12.63 25.91 11.079 18.823-1.551 17.715-25.039 12.844-30.357-4.872-5.318-10.63-8.863-9.966-14.625.665-5.761.443-9.085-3.321-11.522-3.765-2.438-8.194-1.773-10.63-.887-2.436.887-4.429 4.875-5.536 3.767-1.107-1.107-8.194-26.368-8.858-30.578-.665-4.21-1.55-8.642.443-11.745 1.993-3.102 1.993-4.653 1.771-6.647-.221-1.995-2.879-11.523-3.543-11.08-.664.444-1.771 2.438-3.1 2.66-1.329.221-3.765-.665-3.765.664 0 1.33 2.658 4.654 2.436 6.87-.221 2.215-1.329 7.533 0 8.42 1.329.886 7.087-.887 8.637 1.33 1.55 2.215 6.422 23.709 7.972 27.698 1.55 3.988 6.643 20.386 7.972 23.045 1.329 2.659 2.879 10.193-4.65 9.749-7.53-.443-8.415-7.755-3.765-10.857 4.65-3.103 9.744-1.551 10.851.443 1.107 1.994 2.657 13.96 2.436 16.84-.222 2.881 1.772 5.54-5.758 6.205-6.023.532-8.562.221-9.079 0l.443-2.881c3.764-1.551 12.667-4.52 18.159-3.988 6.864.664 9.079 4.21 12.401 5.761 3.321 1.551 11.072 1.773 13.065 0 1.993-1.773 5.315-10.858 13.73-12.187 8.415-1.33 15.28-2.216 18.823-4.875 2.835-2.128 12.402-32.943 16.831-48.085 3.247-11.744 10.319-35.188 12.622-35.01 2.879.221 4.208 2.437 5.315 9.085 1.107 6.647 1.993 18.391 4.207 19.056 2.215.665 8.194-1.33 8.194 0s-23.695 27.92-26.574 31.244c-2.879 3.324-15.723 17.284-13.287 20.829 2.436 3.545 7.087 0 16.166-12.852s27.017-37.891 28.346-38.778c1.328-.886 2.657-2.437 1.328 2.216-1.328 4.654-25.466 45.204-27.238 48.306-1.771 3.102-5.536 9.972-5.979 11.523-.443 1.551.221 4.431-7.086 4.21-7.308-.222-23.695-2.114-23.917-5.097-.221-2.983 1.107-8.863 2.436-9.528 1.329-.665 5.536-2.216 7.308-5.096 1.771-2.881 9.522-25.261 12.844-40.772 3.322-15.511 9.744-42.323 10.629-47.198.886-4.875 0-11.08 5.315-10.415 5.315.665 11.516 2.438 14.837 11.966 3.322 9.528.665 29.25 1.772 30.8 1.107 1.552 6.865 0 9.079 0 2.215 0 4.651-.664 5.537 2.66.885 3.323-.886 23.266 6.643 25.704 7.529 2.437 18.38-9.086 27.238-9.307 8.858-.222 10.63 5.983 12.402 9.307 1.417 2.659 5.314 5.982 7.086 7.312" stroke="#131441" stroke-width="2"/></svg>