<svg width="223" height="1463" viewBox="0 0 223 1463" fill="none" xmlns="http://www.w3.org/2000/svg">
<path opacity="0.6" d="M0.499957 1319.67L91.535 1351.8L0.499961 1393.38L0.499964 1463L153.59 1383.3C163.355 1390.23 167.135 1399.68 167.135 1415.75L167.135 1431.5L222.26 1431.5L222.26 1411.97C222.26 1363.77 202.415 1337.31 148.55 1315.26L0.499954 1254.15L0.499957 1319.67ZM0.814945 1125.29L96.26 1125.29C99.725 1134.74 101.615 1143.24 101.615 1150.49C101.615 1169.39 89.96 1180.73 67.28 1180.73L0.814947 1180.73L0.81495 1242.47L68.54 1242.47C125.87 1242.47 157.055 1205.93 157.055 1158.36C157.055 1147.65 155.48 1136.63 152.33 1125.29L221.315 1125.29L221.315 1063.55L0.814942 1063.55L0.814945 1125.29ZM0.499938 874.285L118.94 961.225L0.499942 961.225L0.499944 1021.07L221 1021.07L221 973.825L103.505 886.255L221 886.255L221 826.405L0.499936 826.405L0.499938 874.285ZM0.499927 618.527L0.499935 799.337L55.3099 799.337L55.3099 739.487L221 739.487L221 678.377L55.3099 678.377L55.3099 618.527L0.499927 618.527ZM168.395 530.853L135.32 530.853L135.32 458.403L85.5499 458.403L85.5499 530.853L53.1049 530.853L53.1049 450.213L0.499919 450.213L0.499926 591.333L221 591.333L221 447.378L168.395 447.378L168.395 530.853ZM0.499916 369.768L130.595 385.203C155.165 388.038 166.19 397.488 166.19 416.073L166.19 426.783L221.63 426.783L221.63 408.828C221.63 359.373 192.335 331.653 132.8 324.723L55.9399 316.218L55.9399 273.693L221 273.693L221 212.898L0.499909 212.898L0.499916 369.768ZM0.499904 98.378C0.499906 145.628 33.2599 179.333 78.3049 179.333C106.97 179.333 129.335 165.158 141.62 140.903L221 184.373L221 116.648L152.33 80.423L152.33 59.948L221 59.948L221 0.0979988L0.4999 0.0980084L0.499904 98.378ZM103.19 89.243C103.19 105.308 93.4249 116.018 78.3049 116.018C63.8149 116.018 54.0499 105.308 54.0499 89.243L54.0499 59.948L103.19 59.948L103.19 89.243Z" fill="white"/>
</svg>
