<svg width="877" height="683" fill="none" xmlns="http://www.w3.org/2000/svg"><path d="m729.5 315 7.117 48.018 26.032-40.972-13.029 46.761 40.446-26.841-30.922 37.419 47.867-8.07-43.469 21.607 47.012 12.097-48.499 2.059 38.026 30.172-45.143-17.846 22.466 43.031-33.981-34.664 3.022 48.448L729.5 430.73l-16.945 45.489 3.022-48.448-33.981 34.664 22.466-43.031-45.143 17.846 38.026-30.172-48.499-2.059 47.012-12.097-43.469-21.607 47.867 8.07-30.922-37.419 40.446 26.841-13.029-46.761 26.032 40.972L729.5 315Z" fill="#FFD43A" style="mix-blend-mode:overlay"/><path d="M876 1.512c-98.127-13.888-28.353 260.28-19.779 165.307 6.564-72.715-95.014-50.638-50.102 12.991 69.881 99.005 38.01 95.421 17.435 149.627-10.985 28.941-17.174 69.262 0 98.431 12.975 22.039 74.828 98.345 20.171 123.534-54.657 25.189-70.293-6.163-67.882-10.987 2.412-4.823 40.993-5.895 44.208 0 3.215 5.895-23.042 5.36-23.577-10.451-.536-15.81 10.449-55.201 6.43-80.39s-9.914-83.607-22.506-99.953c-12.593-16.346-27.329-26.797-37.51-14.738-10.181 12.059-13.396 19.294-13.932 36.712-11.789 3.215-21.702 5.895-26.525 21.169-4.822 15.274-2.679 17.686 2.68 14.471 5.358-3.216 21.702-6.432 34.294-4.02 12.593 2.412 19.559 4.823 17.951 8.307-1.607 3.484-21.702 7.235-36.974 5.092-15.271-2.144-23.309-3.825-17.951-7.236 5.359-3.41 32.687-9.647 52.514-3.751 3.644 1.286 5.269.536 5.626 0 .983-5.985-.107-19.669-12.324-26.529-12.218-6.86-16.344-7.861-16.88-7.503-.178-8.307 1.876-26.368 11.521-32.157 12.057-7.235 20.898-9.914 33.491 12.059s16.076 48.234 18.755 71.012c2.679 22.777 7.502 112.547 6.162 115.226-1.339 2.68-8.841 9.915-32.151 10.183-23.31.268-31.079.804-29.204-1.34 1.876-2.143 9.645-1.875 15.808-27.332 6.162-25.457 9.109-35.372-2.412-38.32-11.52-2.948-11.253 8.307-11.788 13.399-.536 5.091-1.34 20.097-5.627 25.992-4.287 5.896-3.483 10.183-19.826 6.7-16.344-3.484-38.582-5.896-70.465-1.876-31.883 4.019-67.518 8.843-86.54 6.699-19.023-2.144-14.736-.804-15.808-7.503-1.072-6.699-2.143-12.327 3.215-13.398 3.186-.638 13.57-2.791 24.114-4.601M1 680.295c19.47 3.484 54.657 5.895 84.665-38.052 37.509-54.933 5.058-141.83-36.706-110.403-28.132 21.17 43.136 90.63 115.208 102.364 34.563 5.628 116.548 20.098 158.345-13.398 41.796-33.496 34.026-77.175 91.898-73.96 57.873 3.216 34.295-1.339 48.495-2.947 14.2-1.608 20.095-.268 23.31-1.34s9.913-22.242 9.913-26.797-6.43-5.985-4.287-6.163c2.144-.179.536 3.215-.536 5.359-1.071 2.144-12.86 3.216-24.649 2.68-11.789-.536-8.574-5.628 1.34-9.111 9.913-3.484 23.309 1.34 23.845 2.412.536 1.071-11.253 1.607-14.736 0-3.483-1.608-2.947-32.425-4.019-39.392-1.071-6.967-7.77-4.287-10.449-2.68-2.679 1.608-5.626 6.968-7.502 7.504-1.875.536 1.072-6.164 2.947-9.647 1.876-3.484 2.412-7.235 0-9.379-2.411-2.144-6.698 5.091-9.109 8.843-2.411 3.751-4.823 5.091-4.287-4.288.536-9.379 5.091-11.254 6.698-12.058 1.608-.804 2.947.536 2.412 1.34-.536.803-6.699 1.607-10.45-1.34-3.75-2.948.001-7.817 2.144-9.379 2.143-1.563 8.841.804 2.947 2.144-5.894 1.339-6.698-2.412-6.698-5.092 0-2.68 4.823-5.895 12.592-6.699 7.77-.804 8.842 8.039 10.985 8.039 2.144 0-5.894-6.163-5.894-10.987 0-4.823 5.627-5.627 10.449-3.215 4.823 2.411 2.144 10.45 3.483 10.986 1.34.536-.536-3.215 0-7.771.536-4.555 6.43-4.555 9.646-4.823 3.215-.268 5.894-.804 7.502 3.215 1.607 4.02-12.325 6.164-11.521 7.236.803 1.071 12.86-3.484 21.702-1.876 8.841 1.608 7.77 7.235 1.875 7.235-5.894 0-8.841 2.144-8.306 3.752.536 1.607 12.593.535 16.88 2.411 4.287 1.876 2.679 6.699-1.876 7.235-4.554.536-10.717-5.627-15.539-5.091-4.823.536-1.608 4.823 7.502 6.967 9.109 2.144 6.966 6.431 5.626 7.771-1.34 1.34-6.698 2.144-10.717 0-4.019-2.143-5.894-7.503 1.072-2.411 6.966 5.091 6.698 13.398 5.358 15.274-1.339 1.876-6.966 1.608-13.664-4.556-6.698-6.163-3.215-8.575.804-4.019 4.019 4.555 5.09 12.326-1.34 14.47s-5.09-5.359-5.358-9.379c-.268-4.019-4.823-8.307-5.895-2.412-1.071 5.896-6.43 43.411-8.573 44.751-2.144 1.34-13.129-2.679-11.789 12.327 1.339 15.006 17.415 19.562 26.792 20.901 9.378 1.34 19.827-4.287 43.137-1.339 23.309 2.947 32.419 8.843 23.041 16.614-9.377 7.771-4.287-11.255-1.875-12.863 2.411-1.608 45.815-1.34 74.751-1.072 28.936.268 102.884 1.876 105.027 3.216 2.144 1.34 0 14.738 4.823 10.183 4.823-4.556 7.502-14.065 0-17.418-7.502-3.354-57.068.268-79.306 1.34-22.238 1.071-54.925.268-87.88 0s-35.366-4.556-40.189-12.595c-4.823-8.039-8.306-39.123-8.038-48.234.268-9.111 4.555-15.542 13.664-6.164 9.11 9.379 7.502 37.516 9.914 33.764 2.411-3.751-3.751-27.6-3.215-33.228.535-5.627-1.608-11.79 6.698-15.81 8.306-4.019 24.113-2.68 35.366-2.412 11.253.268 28.936-1.607 34.027-2.411 5.09-.804 17.683-6.432 25.721.804 8.037 7.235-9.11 4.555-13.129 4.823-4.019.268-4.822 3.752-3.483 15.006 1.34 11.255 9.378 22.778 13.932 25.189 4.555 2.412 6.163-.536 12.325-2.947 6.162-2.412 28.936-1.608 26.525-.536-2.412 1.072-27.865 1.072-22.238 0 5.626-1.072 14.736-1.608 21.97-1.608 7.234 0 2.679-17.15 1.339-27.065-1.339-9.915-6.43-9.111-10.717-9.647-4.286-.536-17.951 3.752-20.094 3.752-2.143 0-7.502-3.752-1.876-7.771 5.627-4.02 33.223-1.876 42.333-1.34 9.109.536 45.815 2.68 51.174 8.039 5.358 5.359-16.076 5.627-9.646 6.431 6.431.804 5.091-3.215-2.143-3.215s16.076 6.699 17.147 9.378c1.072 2.68-12.592 29.209-16.075 30.817-3.483 1.608-9.914-4.288-12.325-5.091-2.411-.804-28.936-2.216-30.276-3.484-1.339-1.268-.803-.268-.803-2.948 0-2.679 32.955-27.601 38.045-28.137 5.091-.535 16.076 1.608 18.755 2.68 2.679 1.072-1.34 32.156-4.019 42.339-2.679 10.183-11.789 11.255-9.109 9.379 2.679-1.876 4.554-9.915 3.215-14.47-1.34-4.556-7.234-5.091-17.951-6.431-10.717-1.34-43.94-2.144-58.944 1.34-15.004 3.483-11.789 9.646-11.253 16.613.429 5.574-2.322 7.504-3.751 7.772.089-4.556.214-14.364 0-17.15-.268-3.484-2.679-5.628-5.359-7.235-2.679-1.608-30.007-.804-42.6 0-5.105.325-12.369 1.4-19.558 2.634m0 0c.535-3.2 1.554-12.013 1.339-21.66-.268-12.059-2.411-18.49 5.359-18.49s37.509-.536 39.385 2.144c1.875 2.679.268 25.457-2.144 29.208-2.411 3.752-8.573 7.503-29.471 5.36-20.899-2.144-32.152 4.823-36.974 4.555-4.823-.268-10.181-8.575-11.521-20.634-1.34-12.058 3.483-16.882 9.913-15.542 6.43 1.34 6.966 1.608 9.646 1.072 2.679-.536 7.234-4.555 8.573.804 1.34 5.359 0 13.666.536 16.882.429 2.573 3.751 11.939 5.359 16.301Z" stroke="#fff" stroke-width="2"/></svg>