<svg width="652" height="622" fill="none" xmlns="http://www.w3.org/2000/svg"><path d="M652 613.562h-67.474c-13.468 0-79.416-3.255-64.09-13.948 15.326-10.694 37.618-33.475 21.364-31.151-16.255 2.325-35.761 9.764-22.757-8.833 13.004-18.598 26.472-31.616 17.648-62.301-8.824-30.686-13.004-41.379-20.435-41.844-7.43-.465-6.502-4.649-3.251-13.948s10.682-21.852-10.217-12.088c-20.899 9.763-47.371 20.922-32.045 0s34.367-47.888 11.61-26.037c-22.756 21.852-44.584 33.476-60.839 34.87-16.255 1.395-31.581.465-26.472-14.413 5.109-14.877 10.217-57.651 8.824-83.222-1.393-25.571-.464-62.766-10.217-81.828-9.753-19.062-19.97-15.808-29.259-16.273-9.288-.465-43.191-1.86-63.161-7.439s-23.686-3.719-20.899-17.202c2.786-13.483 16.255-41.844 25.543-55.792s22.757-32.08 25.079-35.8c1.857-2.975 1.703-8.368 1.393-10.693 16.564 1.86 50.529 5.393 53.873 4.649 4.18-.93 9.753-4.184 9.288-9.298-.464-5.115 4.18-2.79 8.36-2.325 4.18.465 16.719 6.509 8.36 17.667-8.36 11.159-16.72 2.325-21.364 0-3.715-1.859-6.811-3.254-7.895-3.719 4.18-3.255 11.053-10.601 5.109-13.948-7.431-4.184-13.004-10.228-15.791-6.509-2.786 3.719-5.108 18.132-1.393 13.483 3.715-4.649 12.54-20.458-13.004-24.177-25.543-3.72-16.255 17.203-14.397 17.203 1.858 0 12.54-13.019 8.824-13.948-3.715-.93-7.895 16.273-4.644 16.273 3.251 0 14.862-12.554 12.539-13.484-2.322-.93-13.468 14.878-4.644 15.343 8.824.465-19.97-15.343-30.187-16.737-10.218-1.395-5.573 12.553-2.787 12.553 2.787 0 12.075 4.184 20.899 5.579 7.059 1.116 16.874 2.325 20.899 2.789 1.858-6.819 7.059-19.899 13.004-17.667 7.431 2.79 6.966 19.992-5.109 25.106-12.075 5.115-18.112 2.79-21.363 11.624-3.251 8.833-10.682 42.773-15.326 50.677-3.715 6.323-10.217 18.442-13.004 23.712-.464-2.48-2.693-6.974-7.895-5.115-6.502 2.325-5.109-.93 7.895-5.579s29.259-2.789 39.476-1.395c10.217 1.395 58.053 1.86 34.832-2.324-18.577-3.348-33.748-2.635-39.012-1.86-2.941 3.41-9.381 12.926-11.61 23.712-2.787 13.482-6.967 25.106-2.787 27.895 4.18 2.79 17.184 6.974 25.543 6.509 8.36-.465 21.364 3.721 24.615-9.763 3.251-13.483 5.573-27.896 10.217-35.335s8.824-6.509 20.899-5.114c12.075 1.395 23.221 3.254 28.33 3.254 5.108 0 9.753 1.86 12.075 0 2.322-1.859-12.075 2.79-12.075 5.115 0 2.324.464 16.737 12.075 16.737 11.61 0 32.045-8.369 33.903-16.737 1.857-8.369-4.18-16.738-1.394-23.712 2.787-6.974 20.435-20.457 15.791-37.659-4.644-17.203-10.682-23.247-20.899-30.686-10.218-7.438-10.682-12.088-19.042-12.088-8.359 0-19.505.466-5.108-4.184 14.397-4.65 35.296-2.325 42.262 4.184 6.967 6.509 11.146 11.159 11.611 16.273.464 5.114 0 6.509 2.322 7.438 2.322.93 9.753 6.044 6.037 19.063-3.715 13.018-3.715 19.992-14.861 26.966s-20.899 9.763-21.364 13.018c-.464 3.254 6.502 13.483 6.502 9.298 0-3.347-6.811-13.173-10.217-17.667 5.573-1.705 16.069-6.974 13.468-14.413-2.6-7.439-8.824.31-11.61 5.114 3.406-4.029 9.195-14.134 5.108-22.316-5.108-10.229 11.611-11.159 6.502-14.413-5.108-3.255-19.041-2.324-23.685-12.088-4.644-9.764-3.716-14.414-12.075-8.369-8.36 6.044-23.221 13.948-29.723 28.826-6.502 14.877-12.075 41.378-3.716 43.703 8.36 2.325 20.435-.465 21.828 2.325 1.394 2.789 7.431 12.553 4.644 18.132-2.786 5.579-15.325 15.343-8.359 19.992 6.966 4.649 14.397 5.579 26.007 0 11.611-5.579 20.435-23.246 25.079-19.992 4.645 3.255 13.004 7.905 16.72 10.694 3.715 2.789 11.61 14.878-7.431 24.641-19.042 9.763 11.146-20.922 17.183-15.343 6.038 5.579 36.69 38.124 41.334 44.634 4.644 6.509 15.79 18.597 6.502 24.641-9.289 6.044-25.079 12.088-24.615 15.808.465 3.719 8.36 3.254 8.825 9.298.464 6.044 2.322 19.062 17.648 39.984 15.325 20.922 34.831 56.722 32.045 76.249-2.787 19.527-10.682 24.641-11.146 29.756-.465 5.114 3.251 8.833 11.146 6.044 7.895-2.79 12.539-6.044 8.359-7.439-4.18-1.395-9.288 16.737-1.857 20.457 7.43 3.719 31.116 9.763 26.472-15.343-4.645-25.106-13.004-77.179-22.293-103.68-9.288-26.501-20.434-52.537-27.865-61.835-7.431-9.299-8.824-13.019-9.288-10.229-.465 2.79 1.857 4.184-3.716 8.369-5.573 4.184-32.974 21.387-39.94 19.527-6.966-1.86-22.292-21.852-22.757-27.896-.464-6.044 1.394-13.018 4.644-11.623 3.251 1.395 0 30.22 0 42.308 0 12.089-.928 33.94 1.858 54.397 2.787 20.457 35.761 79.969-9.753 92.987-45.513 13.018-92.884 5.114-100.779 6.509-7.896 1.395-28.795 5.579-22.293 13.948 6.502 8.369 38.083 27.431 28.33 42.308-9.753 14.878-33.903 34.405-43.656 39.52-9.752 5.114-12.539 12.088 0 15.807 12.54 3.72 19.042 14.413 17.184 19.992-1.858 5.58-.929-22.316-5.573-24.641-4.644-2.325-18.112-5.579-14.862-2.79 3.251 2.79 19.042 9.298 31.581-3.254 12.54-12.553 34.367-40.449 38.547-44.634 4.18-4.184 19.97-13.018 8.36-14.412-11.611-1.395-46.442-12.554-23.221-9.299 23.221 3.255 24.15 6.509 9.753-7.439-14.397-13.948-15.791-18.131 0-7.903 15.79 10.228 31.116 25.57 31.116 15.342s-7.431-17.667-8.36-11.623c-.929 6.044 15.791 59.976 19.97 71.599C486.533 584.27 496.286 621 508.361 621s58.982-4.184 57.124-13.948c-1.858-9.764-7.431-20.922-11.611-43.703-4.179-22.782-9.752-64.626-9.752-73.925 0-7.438-1.548-25.725-2.322-33.939-3.406 10.693-24.615 29.29-82.203 18.132-71.986-13.948-63.626-35.334-58.517-32.08 5.108 3.254-6.502 28.36-11.611 36.729-5.109 8.369-59.446 88.337-62.233 106.004-2.786 17.668-3.715 29.292 8.824 29.292 12.54 0-37.618-3.254-84.06 0" stroke="#000" stroke-width="2"/><path d="M332.555 430.101c-9.487-.587-27.547-2.745-23.893-6.686 4.568-4.926 9.136-5.63 8.784 13.019-.351 18.648 1.054 91.131-2.811 102.743-3.865 11.611-15.109 14.426-15.46 10.203-.351-4.222 18.271-1.055 15.46 6.686s-16.514 14.426-20.379 6.333c-3.865-8.093 8.784-41.519 3.514-77.76-5.271-36.242-5.271-39.76-6.325-16.538-1.054 23.223 2.46 50.668 0 60.168s-7.379 21.111-10.892 21.111c-3.514 0-13.352-53.13-15.109-64.741-1.757-11.612-1.406-30.612 8.081-39.409 9.487-8.796 5.974-15.13 11.244-17.593 5.271-2.463 18.622-1.759 21.785-10.203 3.162-8.445 3.513-15.834 0-19.705-3.514-3.87-6.676-7.037 2.108-12.315 8.784-5.277 44.624-27.093 49.543-31.315 4.919-4.222 14.757-15.482-3.163-7.741-17.919 7.741-37.947 24.278-42.164 26.39-4.216 2.111-28.109 20.055-29.514 22.518-1.406 2.463-4.92 14.427-1.406 11.964 3.514-2.463 3.865-9.852-5.27-8.093-9.136 1.759-2.109 18.648 5.27 12.315 7.379-6.334 20.731-16.186 28.109-16.186 7.379 0 20.38 11.26 16.515-11.259-3.865-22.519-.703-35.89-15.109-39.056-14.406-3.167-37.596.352-44.624-21.816-7.027-22.167 12.298-21.815 16.515-20.759 4.216 1.055 18.271 4.926 4.216 29.556-14.055 24.63-22.839 59.464-29.163 49.612-6.325-9.852 1.756-51.019 4.567-49.612 2.811 1.407 8.785 52.427 0 54.538-8.784 2.111-22.136 7.741-25.298 16.889-3.162 9.149-3.162 32.723 7.379 40.464s23.541 6.333 25.298-1.759c1.757-8.093.351-13.723 4.216-17.593 3.865-3.871 16.515.352 23.191-5.63 6.676-5.982 15.108-18.648 5.27-32.371-9.838-13.722-20.731-12.667-22.839-9.5-2.108 3.167-8.433 16.185-15.46 15.834-7.027-.352-21.785-4.223-22.839 7.74-1.054 11.964 3.514 42.223 12.298 35.89 8.784-6.333 17.568-24.63 17.568-41.168 0-16.537 1.406-63.334-.702-39.408-2.108 23.927-2.108 103.447-2.108 108.725 0 5.278 7.027 85.501 3.513 89.02-3.513 3.518-13.352.352-12.298-3.167 1.054-3.518 13.352-10.204 18.974 3.167 5.622 13.37-21.433 13.019-27.758 13.37" stroke="#131441" stroke-width="2"/><path d="M252.383 566.972c-5.063.515-17.917.258-28.832-4.896-13.644-6.443-23.683-2.578-35.525 2.319-11.841 4.896-22.911 15.462-21.881-2.319 1.03-17.782 7.465-40.461 24.713-40.719 17.248-.257-25.485 13.401-32.693 10.824-7.208-2.577 2.574-4.896 10.039-5.412 7.466-.515 23.684-.257 28.575 6.185 4.891 6.443 8.752 13.401 3.861 13.659-4.891.258.258-14.174 1.03-23.194s-3.862-96.641-1.287-98.702c2.574-2.062 6.693 13.4-3.347 13.4-10.039 0-23.94 8.247-8.752 12.886 15.188 4.639 33.465 3.866 37.069 0 3.604-3.866 2.832-11.339-4.376-12.886-7.208-1.546-17.763-2.061-18.792.774-1.03 2.834 1.029 104.114-4.634 106.433-5.663 2.32-21.624-21.647-12.356-24.997 9.267-3.351 7.722-4.381 7.722-15.205s.515-28.09-3.604-28.09c-4.118 0-37.326 9.792-40.158 4.896-2.832-4.896 34.238-11.916 36.04-8.247 1.802 3.67-36.555 7.216-37.842 10.309-1.287 3.092 6.178 49.48 1.802 58.5-4.376 9.019-26.515 36.594-51.743 24.997-25.228-11.597-25.228-48.449-10.812-59.788 14.416-11.339 28.06-14.69 41.961-11.082 11.121 2.887 16.475 10.481 17.762 13.917-3.861-9.536-18.792-26.287-47.624-17.009-28.831 9.277-20.765 10.738-13.128 10.308.514-3.178-.258-9.071-7.466-7.216-9.01 2.32-19.307 4.124-25.485 1.547-6.178-2.577-12.099-5.155-10.04-6.701 2.06-1.546 15.96 7.731 31.149 3.866 15.188-3.866 36.812-6.701 39.644-7.474 2.831-.773 2.831-11.854 19.307-12.37 16.475-.515 28.574-.257 26.257-1.804-2.317-1.546-26.515 3.351-27.802-4.123-1.287-7.474-2.832-24.225 3.604-23.967 6.436.258 29.861-1.031 31.663 3.093 1.802 4.123 3.862 24.224 4.634 10.566.772-13.659-5.406-18.555-12.871-18.813-7.466-.258-28.06 0-29.604 3.35-1.545 3.35-.515 31.956-2.317 30.925-1.802-1.031.515-26.286-3.861-27.059-4.377-.773-12.872-2.32-12.614 3.35.257 5.67 2.317 31.183-2.06 29.894-4.376-1.288-8.237-5.412-21.109-5.412-12.871 0-29.604 10.566-6.693 8.505 22.911-2.062 31.664.257 19.822-3.093-11.841-3.35-35.782-2.062-40.673-2.835-4.891-.773-12.614-2.834-12.614-4.381 0-1.546 22.91-1.804 24.455 0 1.545 1.804 0 5.412-1.802 4.381-1.802-1.03 2.317-30.925 2.832-34.275.515-3.35 22.396-5.154 29.089-2.577 6.693 2.577 8.753 7.989-6.178 4.381-14.93-3.608-21.881-5.154-22.911-6.7-1.03-1.547 34.238-4.124 37.842-5.155 3.604-1.03 1.544-3.865.772-9.277-.772-5.412-5.921-22.678 4.376-21.39 10.297 1.289 13.644 10.566 13.644 22.421 0 11.854-1.287 18.297-11.07 18.297-9.782 0 .773-4.639 2.832-6.958 2.06-2.319 6.693-6.185 3.347-14.947-3.347-8.762-11.842-25.513-14.674-24.483-2.831 1.031-7.98 14.948-7.98 18.298 0 3.35-3.861 15.72-6.95 13.916-3.09-1.804-5.664-20.359-5.664-23.451 0-3.093 1.545-9.278 1.802-11.082.206-1.443-2.316-3.006-3.604-3.608 0-5.068.36-15.462 1.802-16.493 1.802-1.289 10.04-.258 11.327 2.062 1.287 2.319 0 23.193-3.604 23.966-3.604.774-14.673-3.092-14.93-9.535-.258-6.443-1.545-18.555 4.118-18.297 5.664.258 17.505 9.019 19.565 5.412 2.059-3.608.772-16.494-6.95-17.267-7.724-.773-18.536-1.288-19.565 9.793-1.03 11.082 2.574 24.225.772 26.286-1.802 2.062-29.604 19.586-31.149 21.133-1.544 1.546 0 9.792 5.149 9.535 5.148-.258-7.208-5.67-9.267-4.897-2.06.773-11.585 10.309-6.436 11.339 5.148 1.031 12.099-.773 10.554-4.123-1.544-3.35-4.89-5.412-7.722-2.319-2.832 3.092-18.02 16.751-19.05 18.297-1.03 1.546 4.634 7.474 8.753 3.35 4.118-4.123-6.179-6.7-17.763-3.35-11.584 3.35-14.416 8.504-3.861 9.793 10.554 1.289 39.643 3.35 39.643-1.546 0-4.897-3.089-6.701-7.722-6.701-4.634 0-14.674-4.123-14.416 13.659.257 17.782-.515 81.178-1.03 87.105-.515 5.928-4.376 13.401-4.891 10.309-.515-3.093 8.752-41.749 8.752-44.326 0-2.577-2.574-8.762-9.524 3.608-6.95 12.37-21.367 44.326-17.505 43.81 3.861-.515 21.366-36.852 21.88-40.975.516-4.124 4.892-6.958 10.04 2.834 5.15 9.793 5.15 9.278 5.407-3.865.257-13.143-1.03-22.421 7.465-17.782 8.495 4.639 13.9-3.35 14.673 1.546.772 4.897 3.09 30.152 0 31.441-3.089 1.288-13.129-3.608-14.673-1.031-1.545 2.577 8.495 5.927 11.584 6.185 3.09.258 5.149 4.639 3.09 5.927-1.648 1.031-21.453 1.976-31.15 2.319-.858-.687-1.801-2.525 1.288-4.381 3.861-2.319 12.614-10.823 13.386-20.874.618-8.04.257-15.033 0-17.524" stroke="#131441" stroke-width="2"/><path d="m487 0 15.801 77.66 46.023-64.519-17.152 77.374 68.286-40.223L552.818 114l78.743-8.971-68.977 39.027 75.583 23.832-78.887 7.597L618.636 228l-75.157-25.146 32.864 72.117-58.431-53.542.691 79.249L487 228l-31.603 72.678.691-79.249-58.431 53.542 32.864-72.117L355.364 228l59.356-52.515-78.887-7.597 75.583-23.832-68.977-39.027L421.182 114l-47.14-63.708 68.286 40.223-17.152-77.374 46.023 64.52L487 0Z" fill="#FFD43A" style="mix-blend-mode:overlay"/></svg>