<svg width="158" height="168" fill="none" xmlns="http://www.w3.org/2000/svg"><path d="m87.797 34.07-8.62 30.393a2.5 2.5 0 0 0 .988 2.742l26.023 17.912c1.398.962.374 3.142-1.26 2.679l-30.393-8.62a2.5 2.5 0 0 0-2.741.988L53.88 106.187c-.962 1.398-3.142.373-2.678-1.26l8.62-30.393a2.5 2.5 0 0 0-.989-2.742L32.811 53.88c-1.398-.963-.373-3.142 1.26-2.679l30.394 8.62a2.5 2.5 0 0 0 2.74-.988L85.119 32.81c.963-1.398 3.142-.373 2.679 1.26ZM133.493 124.072l2.433 14.766a1.497 1.497 0 0 0 1.236 1.236l14.766 2.433c.559.092.559.894 0 .986l-14.766 2.433a1.497 1.497 0 0 0-1.236 1.236l-2.433 14.766c-.092.559-.894.559-.986 0l-2.433-14.766a1.497 1.497 0 0 0-1.236-1.236l-14.766-2.433c-.559-.092-.559-.894 0-.986l14.766-2.433a1.497 1.497 0 0 0 1.236-1.236l2.433-14.766c.092-.559.894-.559.986 0Z" fill="#FFD43A" stroke="#131441"/></svg>