<svg width="569" height="425" fill="none" xmlns="http://www.w3.org/2000/svg"><path d="M116.826 424c10.181-1.775 35.99-5.06 57.771-3.994 27.225 1.331 74.372 6.657 102.925-6.658 28.553-13.314 38.514-28.626 43.826-36.615 5.313-7.989 23.905-33.952 8.633-36.615-15.273-2.663-10.625 28.627 1.992 28.627s27.225-7.323 33.202-5.992c5.976 1.332 18.593 5.992 23.905 5.992 4.25 0 5.755-1.775 5.976-2.663 10.625 7.323 33.202 22.502 38.514 24.632 6.64 2.663 23.241 3.994 23.241-5.992s-25.233-36.614-29.881-40.609c-4.648-3.995-83.005-43.272-88.981-46.601-5.976-3.329-12.617-9.32-7.968-23.301 2.502-7.526 21.985-68.134 40.6-126.112m143.474 75.517c1.412-3.801 2.585-7.068 3.184-9.32 2.656-9.986 37.185-103.854 40.506-112.508 3.32-8.655 11.952-45.27 9.96-53.258-1.594-6.392-8.19-9.765-11.288-10.652-33.424-10.43-103.191-32.089-114.878-35.284-14.609-3.995-17.265 0-21.914 6.657-3.718 5.326-17.929 43.938-24.569 62.578-4.125 12.863-9.134 28.476-14.524 45.271m133.523 106.516c-4.849 13.059-12.519 32.425-9.433 38.613 3.984 7.988 61.091 7.988 44.49-19.972-16.601-27.961-30.633-30.624-35.057-18.641Zm-19.394 73.896c5.313 13.315 43.163 1.997 43.163-7.323s-18.593-43.938-27.226-35.949c-8.632 7.989-22.577 55.255-25.233 63.91-2.656 8.654-5.976 39.278-24.569 32.621-18.593-6.658-118.863-46.601-130.815-43.273-11.953 3.329-36.522 38.613-52.459 43.273-12.749 3.728-30.103 5.104-37.186 5.325 6.198-5.769 20.718-21.436 29.218-37.946 10.624-20.638 25.233-65.907 16.601-97.197-8.633-31.289-15.273-10.651-10.625-7.323 4.648 3.329 21.249 7.989 37.85-11.983 16.601-19.972 11.952-33.286 7.968-33.286s-6.64 16.643 10.625 17.309c17.265.665 56.443-8.655 59.763-17.309 3.32-8.655 2.656-18.641-7.304-19.306-3.715-.249-8.826-.603-13.851-.956m9.951-30.999c4.914-15.312-15.357-6.658-27.31 5.325-9.562 9.587-2.213 20.416 2.656 24.632 3.308.237 8.95.639 14.703 1.042m9.951-30.999-9.951 30.999m0 0c-8.221-.125-28.116-1.974-41.928-8.365-17.265-7.988-27.89-12.648-40.506 1.998-12.617 14.646-23.905 26.629-37.85 33.286s-28.554 27.295-39.842 48.598c-11.289 21.304-40.506 43.938-45.155 60.582-4.648 16.643-8.632 39.943 11.289 53.258 19.921 13.315 9.296-1.331 4.648-6.657-4.648-5.326-9.296-21.969-12.616-29.958-3.321-7.989-4.649-11.317-55.115-7.323-50.467 3.994-95.55-3.329-112.506-45.09m513.055-210.55-52.965-16.24" stroke="#131441" stroke-width="2" stroke-linecap="round" stroke-linejoin="round"/></svg>