<svg width="48" height="38" fill="none" xmlns="http://www.w3.org/2000/svg"><path d="M40.824 24.2c-.222-1.54-1.416-2.74-2.953-3.098-5.976-1.393-7.473-4.818-7.726-8.617-1.06-.196-2.945-.408-6.144-.408-3.2 0-5.085.212-6.145.409-.252 3.798-1.75 7.223-7.725 8.616-1.537.36-2.731 1.558-2.954 3.097l-1.152 7.943c-.406 2.797 1.658 5.32 4.528 5.32h26.896c2.868 0 4.934-2.523 4.528-5.32L40.824 24.2Zm-16.823 7.474c-3.235 0-5.857-2.585-5.857-5.77 0-3.184 2.622-5.768 5.857-5.768 3.234 0 5.857 2.584 5.857 5.769 0 3.184-2.625 5.769-5.857 5.769ZM47.07 9.769C47.015 6.308 38.163.541 24 .54 9.837.54.984 6.308.93 9.769c-.053 3.462.049 7.966 5.877 7.216 6.82-.879 6.4-3.249 6.4-6.636 0-2.364 5.546-2.934 10.793-2.934 5.247 0 10.79.57 10.793 2.934 0 3.387-.42 5.757 6.4 6.636 5.826.75 5.93-3.754 5.877-7.216Z" fill="#131441"/></svg>