<svg width="87" height="108" fill="none" xmlns="http://www.w3.org/2000/svg"><path d="M1 43.178v-.005C1 19.94 20.06 1 43.5 1 66.939 1 86 19.94 86 43.2v.005c.077 16.993-10.574 32.951-21.427 44.76-5.408 5.883-10.824 10.69-14.888 14.027a133.726 133.726 0 0 1-4.907 3.848c-.537.4-.969.714-1.28.936-2.514-1.782-12.193-8.846-21.688-19.25C11.17 75.87.923 60.193 1 43.178Zm19.75.022c0 12.493 10.188 22.6 22.75 22.6 12.563 0 22.75-10.107 22.75-22.6 0-12.493-10.188-22.6-22.75-22.6-12.563 0-22.75 10.107-22.75 22.6Z" fill="#FFD43A" stroke="#131441" stroke-width="2"/></svg>