<svg width="730" height="581" fill="none" xmlns="http://www.w3.org/2000/svg"><path d="M537.502 251c14.4 6.4 36 3.333 45 1 5-1.096 11.5 0 15.5 0s11-1 11-5.5-6.5-9-11-10.5c-3.6-1.2-20.167-1.833-28-2 1.5-2.167 4.5-7 4.5-9 0-2.5-7-4.5-10-4.5s-9 1.5-8 7c.8 4.4 7 6.167 10 6.5-6.5.667-21.1 2-27.5 2-8 0-19.5 7-1.5 15ZM572.002 189.5c1.2 4-6.834 7-11 8-7 2.59-44 8.5-62.5 7s-30.5-7-33.5-8.5-6.5-5 4-9c8.4-3.2 27.833-5.333 36.5-6l-1-7 3-8.5h3l2.5 15.5c9.333-.333 30.9-.7 42.5.5 14.5 1.5 15 3 16.5 8ZM198.498 188.5c3.2.8 57.5 4.5 63.5 5.5 18 3 26 3 34 .5 7.636-2.386 10.834-4 11.5-9 1-7.5-46.5-13-49-13s-3.5-12.5-6-13.5-2 12.5-5 13.5-10.5 1-30 3.5-23 11.5-19 12.5Z" fill="#FFD43A"/><ellipse cx="364" cy="476.5" rx="89" ry="90.5" fill="#FFD43A"/><path fill-rule="evenodd" clip-rule="evenodd" d="M601.207 11.65c0 12.995.662 17.784 3.73 26.983 4.55 13.642 13.054 25.571 25.254 35.424 5.346 4.318 18.16 12.958 27.903 18.814 11.309 6.797 20.012 12.827 29.641 20.536 6.101 4.885 16.299 15.715 19.987 21.226 9.411 14.065 15.402 28.787 18.09 44.459 1.088 6.337.933 21.266-.286 27.552-2.787 14.382-7.705 27.726-14.898 40.431-7.942 14.027-16.678 25.476-32.997 43.245-1.275 1.389-4.419 5.225-6.987 8.524-13.09 16.821-19.32 29.47-22.682 46.058-.825 4.067-.84 19.425-.024 23.584 2.985 15.218 6.463 22.707 18.582 40.011 12.045 17.199 20.503 34.084 24.603 49.115l1.145 4.193c2.44 8.933 3.552 18.424 3.539 30.196-.017 15.788-1.657 23.707-7.384 35.657-1.974 4.119-3.428 6.071-7.843 10.53-2.981 3.011-6.43 5.923-7.665 6.473-7.811 3.478-9.901 3.995-16.139 3.995-8.151 0-14.908-2.787-19.532-8.054-2.513-2.863-6.347-11.041-7.597-16.205-3.597-14.867-15.297-48.931-21.717-63.23a667.626 667.626 0 0 1-3.13-7.148c-5.076-11.774-11.788-24.286-16.065-29.949-2.698-3.574-8.548-8.892-14.175-12.889-6.63-4.709-9.956-8.063-11.865-11.968-2.852-5.83-3.032-7.951-2.447-28.73.296-10.553.539-39.306.539-63.895 0-43.86.023-44.732 1.198-46.048 1.705-1.91 4.829-3.779 8.982-5.373 3.311-1.271 4.838-1.408 19.461-1.747 14.365-.333 16.033-.478 17.597-1.533 2.122-1.429 3.365-4.226 2.918-6.565-.402-2.106-4.543-6.399-7.733-8.019-4.824-2.45-8.424-3.238-18.377-4.022-5.548-.437-10.209-.916-10.358-1.065-.149-.149.304-1.374 1.006-2.722 2.654-5.093.166-8.188-7.921-9.856-5.159-1.063-8.243-.388-10.627 2.329-1.503 1.711-1.835 2.61-1.835 4.97 0 3.066.607 3.953 3.829 5.6 2.965 1.514.781 1.877-11.584 1.92-10.999.04-11.897.129-14.864 1.468-4.167 1.883-6.124 4.233-6.124 7.359 0 3.356 1.763 5.529 6.167 7.6 8.445 3.97 17.227 6.019 21.144 4.931 3.301-.917 3.229-.973 3.222 2.49-.005 2.153-.436 3.901-1.364 5.541-2.033 3.593-3.03 7.25-4.324 15.873-1.037 6.91-1.247 63.849-.301 81.459 1.058 19.669 2.76 42.701 3.627 49.063.288 2.112.401 4.038.252 4.28-.149.241-1.398.153-2.774-.197-1.836-.466-3.692-.435-6.958.114-5.5.924-8.866 2.337-13.561 5.69-7.046 5.032-11.477 10.828-16.627 21.75-1.596 3.383-3.026 6.151-3.178 6.151-.152 0-.115-4.515.081-10.033.329-9.232-.023-16.845-1.542-33.392-.302-3.295-.84-9.494-1.196-13.777-.944-11.376-1.198-12.649-3.074-15.437l-1.704-2.532 4.72-.299c4.012-.255 5.099-.569 7.251-2.097 5.648-4.01 6.109-9.088 1.742-19.212-3.118-7.229-3.679-11.305-1.824-13.268.693-.734 2.805-1.779 4.693-2.322 8.593-2.473 12.005-6.122 13.298-14.218 1.025-6.415-.686-15.176-4.915-25.184-1.62-3.834-1.849-5.181-2.283-13.453-.573-10.905-1.249-15.435-3.681-24.649-1.725-6.534-1.783-7.135-1.15-11.68 1.338-9.596.401-32.687-1.522-37.493-.618-1.546-1.874-3.016-3.574-4.186-2.433-1.675-2.621-1.996-2.621-4.471 0-1.466.232-2.666.515-2.666.283 0 2.112.824 4.064 1.831 9.913 5.114 22.634 5.14 41.53.084 3.621-.969 9.079-3.039 10.544-3.999 4.82-3.159 3.67-11.415-1.862-13.359-4.949-1.739-22.918-3.125-40.515-3.125h-14.221l-.297-1.947c-.163-1.071-.418-3.622-.567-5.671-.15-2.048-.769-4.744-1.378-5.99-.966-1.979-1.372-2.265-3.202-2.265-1.963 0-2.21.228-3.892 3.594-1.453 2.906-1.836 4.518-2.003 8.423l-.207 4.828-8.616 1.038c-21.537 2.594-30.842 4.834-32.856 7.908-1.411 2.154-1.202 5.796.417 7.278 3.077 2.813 11.286 5.688 23.504 8.231 4.793.997 16.225 2.121 21.615 2.124l3.65.001.362 7.937c.438 9.583 1.646 17.398 4.13 26.713 2.625 9.85 2.697 10.952.906 14.009-1.737 2.965-2.86 4.052-5.98 5.787-2.942 1.635-3.614 1.592-6.611-.429-6.393-4.309-11.216-5.706-19.869-5.757-7.264-.043-8.543.212-13.811 2.752-5.857 2.823-12.836 9.831-14.571 14.633-.761 2.105-.73 2.331.459 3.293 1.485 1.203 3.289.838 12.055-2.444 11.689-4.377 18.365-5.868 29.342-6.551 9.098-.567 9.138-.555 13.262 3.736 6.116 6.365 12.487 17.239 12.487 21.314 0 5.517-6.544 7.969-17.779 6.66-7.722-.899-10.793-1.776-12.809-3.654-1.788-1.666-1.848-2.807-.509-9.713.821-4.232.687-6.116-.539-7.631-2.603-3.216-7.336 1.201-7.773 7.253-.216 2.984.018 4.089 1.534 7.279 1.149 2.415 1.931 5.216 2.186 7.827.222 2.273 1.049 5.493 1.875 7.299.812 1.778 1.478 3.353 1.478 3.501 0 .27-3.105 1.533-10.085 4.101-4.904 1.805-7.886 4.889-7.866 8.137.017 2.983 1.663 6.409 4.746 9.881 2.085 2.347 2.355 2.91 1.545 3.221-1.694.651-6.402-.318-9.029-1.858-5.257-3.081-13.955-14.374-16.622-21.578-.487-1.317-1.201-4.417-1.586-6.888-.762-4.892-1.503-9.468-2.398-14.824a940.548 940.548 0 0 1-2.145-13.511c-.352-2.355-2.056-4.608-3.486-4.608-3.191 0-6.967 7.088-6.967 13.077 0 3.224 1.843 8.701 4.349 12.928a399.424 399.424 0 0 1 5.296 9.184c.693 1.236 1.499 2.541 1.791 2.901.95 1.173-.111 1.359-2.354.412-4.304-1.818-8.869-2.521-16.488-2.542-8.707-.025-7.917.604-6.423-5.113.837-3.203.741-10.29-.174-12.822-.868-2.402-2.717-3.317-4.366-2.161-.628.44-1.939 2.374-2.914 4.297-1.403 2.771-1.816 4.461-1.984 8.128-.117 2.546.057 5.405.388 6.353.33.947.426 1.993.212 2.324-.968 1.502-9.651 4.445-25.238 8.556a603.41 603.41 0 0 0-9.047 2.468c-9.089 2.585-9.66 1.95-10.216-11.357-.23-5.488-.477-15.67-.55-22.626-.126-12.02-.067-12.785 1.208-15.419.738-1.525 2.112-3.321 3.052-3.991 4.596-3.273 12.824-5.376 25.891-6.616 9.394-.891 10.135-.679 8.52 2.443-2.081 4.025-3.079 9.323-2.792 14.817.234 4.482 4.979 5.808 8.794 2.457 4.758-4.179 5.917-9.962 3.554-17.731-.359-1.18-.196-1.347 1.307-1.344 2.974.006 15.429 3.513 20.37 5.736 2.393 1.077 4.063 1.079 4.952.008 1.243-1.498-.038-4.141-3.801-7.844-8.307-8.175-18.087-9.842-26.464-4.509-1.122.713-1.718.592-5.09-1.036-5.311-2.562-10.829-3.291-17.293-2.285-9.194 1.431-16.657 4.768-21.793 9.745-9.691 9.389-11.079 16.152-8.766 42.708.302 3.459.853 10.467 1.224 15.574.372 5.106 1.165 15.566 1.761 23.246 1.055 13.585.982 16.379-.498 19.145-1.158 2.164-2.425 1.578-3.917-1.811-3.186-7.247-3.64-10.476-3.64-25.906 0-7.906.354-17.879.786-22.162 1.671-16.55 1.533-24.716-.601-35.638-1.701-8.705-6-16.917-12.553-23.976-1.663-1.792-6.188-5.374-6.788-5.374-.231 0-1.136-.488-2.01-1.086-1.483-1.013-3.347-1.657-8.925-3.081-1.234-.315-4.131-.715-6.437-.888-2.305-.173-6.617-.586-9.581-.918-21.788-2.436-46.451-3.16-50.469-1.482-3.58 1.496-5.52 3.721-5.52 6.329 0 2.76 1.012 3.202 5.999 2.622 4.789-.555 5.419.099 1.821 1.893-6.676 3.328-7.991 6.487-12.555 30.154a696.15 696.15 0 0 1-1.854 8.984l-1.905 8.985c-.314 1.482-.712 4.721-.885 7.198-.302 4.303-.243 4.576 1.32 6.139.899.901 1.884 1.637 2.188 1.637.304 0 .408.233.232.519-.177.286-1.484.651-2.904.811-5.232.59-8.864 3.493-7.955 6.359.217.684 2.338 3.213 4.713 5.619 6.523 6.61 14.508 12.586 27.826 20.825 1.742 1.078 3.025 2.1 2.854 2.273-.541.539-10.042-4.558-13.805-7.407-6.446-4.88-8.206-5.7-12.278-5.719-4.67-.022-7.387 1.644-10.613 6.507-2.785 4.2-3.04 4.75-6.051 13.039a2831.689 2831.689 0 0 1-5.504 14.974c-1.712 4.612-3.913 11.486-4.891 15.274-1.521 5.892-1.738 7.667-1.499 12.279.481 9.292 3.752 15.798 10.06 20.012 5.577 3.725 11.67 4.007 19.998.925 9.811-3.63 12.891-4.231 16.599-3.232 1.349.363 3.218 1.427 4.154 2.363 2.474 2.474 2.303 5.485-.708 12.466-4.696 10.889-7.952 26.091-10.159 47.428-1.806 17.466-2.963 25.634-3.952 27.901-1.06 2.431-10.087 14.033-10.908 14.021-.229-.003-2.302-1.4-4.607-3.104a6895.311 6895.311 0 0 0-8.683-6.406c-14.629-10.769-23.667-20.333-28.205-29.845-3.198-6.701-4.4-11.546-5.244-21.135-.409-4.656-.898-44.939-1.292-106.534-.616-96.347-.665-99.109-1.801-101.336-1.338-2.622-3.253-4.165-5.173-4.165-2.372 0-2.317-1.317.144-3.472 4.804-4.205 14.336-11.153 23.768-17.322 22.486-14.709 34.179-24.904 42.291-36.873l1.939-2.86 2.753 2.424c3.443 3.031 7.709 5.453 12.737 7.232 3.348 1.184 5.021 1.372 11.976 1.347 8.608-.032 11.461-.566 18.808-3.522 5.457-2.194 8.138-4.544 8.138-7.132 0-3.916-3.648-6.566-13.173-9.569-7.787-2.456-19.813-5.016-28.444-6.055-10.995-1.325-10.479-1.156-10.483-3.423-.007-4.22-2.346-10.335-4.176-10.916-3.105-.985-5.401 2.797-5.401 8.898 0 4.516-.077 4.575-5.974 4.575-12.65 0-34.684 4.103-41.988 7.819-2.577 1.311-5.768 4.801-6.29 6.879-.206.823-.066 2.246.313 3.162l.69 1.664 17.193.731c9.456.403 20.023.746 23.481.763 3.458.017 6.798.231 7.422.476 1.034.406.954.616-.898 2.373-2.068 1.962-14.202 8.244-19.099 9.889-15.912 5.345-24.735 9.652-30.167 14.727-5.558 5.193-10 13.296-11.674 21.297-1.202 5.743-2.297 7.357-6.532 9.629-6.422 3.447-9.075 5.6-12.969 10.526-4.073 5.152-6.923 10.363-6.923 12.658 0 1.793 1.727 3.425 3.624 3.425 1.871 0 6.806-5.178 11.945-12.533 2.141-3.063 4.97-6.944 6.288-8.624l2.395-3.055.386 18.545c.212 10.2.689 26.631 1.06 36.514.371 9.883.939 25.583 1.261 34.89.322 9.306.856 24.602 1.185 33.991 1.464 41.737 1.843 52.526 2.394 68.283 1.342 38.28 1.785 54.419 1.503 54.701-.164.165-.986-.014-1.827-.398-2.612-1.19-8.227-.861-11.119.652-3.811 1.995-10.461 8.517-13.894 13.626-3.132 4.663-10.182 14.107-13.638 18.269-4.708 5.669-16.282 16.673-21.905 20.824-10.163 7.505-19.286 11.116-35.228 13.943-7.365 1.307-22.088 1.139-29.368-.335-19.104-3.864-36.276-5.326-49.612-4.224-4.247.351-8.356.639-9.132.639-1.18 0-1.41.305-1.41 1.867 0 1.648.158 1.823 1.347 1.491.742-.206 5.69-.548 10.998-.759 13.292-.53 27.63.571 41.847 3.21 2.635.49 6.812 1.264 9.282 1.722 15.285 2.829 39.175-1.207 55.029-9.297 7.036-3.59 22.818-17.502 30.952-27.284 3.628-4.363 10.577-13.727 13.652-18.398 2.78-4.222 8.126-9.639 11.393-11.543 4.099-2.39 8.965-2.292 11.667.233l1.86 1.737.005 7.696c.009 11.988 1.083 27.104 2.158 30.35.978 2.957 4.391 6.996 5.912 6.996 1.659 0 3.612-1.277 4.35-2.844.935-1.983.988-12.082.087-16.428-2.307-11.126-4.275-17.473-7.571-24.424l-2.116-4.463-.502-15.902c-.275-8.746-.781-23.853-1.123-33.571-.342-9.719-.883-25.217-1.204-34.441-.552-15.947-.986-28.3-2.405-68.582-1.467-41.644-1.747-49.936-2.385-70.678-.386-12.552-.457-23.266-.165-25.157l.507-3.294 2.278.073c2.761.088 3.888 1.114 4.594 4.185.295 1.283.685 45.116.869 97.566.318 90.85.634 107.418 2.196 115.302 1.799 9.083 5.949 17.927 11.809 25.172 6.325 7.819 12.163 12.943 27.53 24.161 4 2.92 7.272 5.562 7.272 5.87 0 .307-1.773 3.029-3.939 6.047-9.31 12.969-17.109 29.596-18.542 39.53-.847 5.877.94 11.826 3.554 11.826 4.476 0 14.211-15.699 24.142-38.933a230.325 230.325 0 0 0 2.6-6.289c1.597-4.084 2.124-5.091 2.662-5.091.331 0 3.97 2.189 8.087 4.864a928.117 928.117 0 0 0 13.772 8.764 4619.75 4619.75 0 0 1 9.881 6.143c8.514 5.32 13.18 7.912 22.761 12.644 16.572 8.185 25.214 11.591 36.219 14.28 9.722 2.374 15.597 3.124 24.554 3.133 20.124.023 37.454-4.894 57.084-16.196 16.458-9.477 31.069-24.943 38.566-40.824 9.66-20.463 10.949-46.052 3.73-74.058-6.08-23.586-17.004-40.974-33.511-53.342-3.632-2.721-14.02-8.351-19.162-10.385-14.243-5.633-32.918-8.301-49.842-7.121-21.923 1.529-38.969 6.905-54.047 17.045-4.51 3.033-12.826 10.572-16.83 15.259-3.668 4.293-7.768 11.154-9.842 16.471-5.846 14.987-7.354 22.237-8.367 40.218-1.021 18.109.431 33.096 4.285 44.237 1.642 4.746 4.493 10.804 6.485 13.776 2.668 3.982 2.627 4.333-.161 1.382-2.438-2.582-4.735-6.596-7.303-12.762-1.738-4.172-5.676-9.705-8.106-11.39-2.447-1.696-6.469-2.212-9.507-1.22-1.388.453-1.424.389-1.052-1.846.213-1.274.806-5.954 1.32-10.401l1.833-15.873c2.101-18.185 4.828-30.404 9.02-40.43 2.919-6.982 3.436-8.982 2.966-11.488-.989-5.273-5.213-8.404-11.848-8.78-4.177-.237-5.725.106-13.078 2.896-7.224 2.742-10.396 3.28-14.098 2.391-4.743-1.138-8.533-4.3-11.033-9.202-1.864-3.654-2.101-4.674-2.312-9.929-.286-7.131 1.084-13.785 4.879-23.689a1399.16 1399.16 0 0 0 3.999-10.781c5.022-13.669 5.493-14.837 7.242-17.983 4.495-8.079 9.368-8.8 17.635-2.609 5.02 3.759 16.667 9.787 22.73 11.763 4.763 1.554 8.466 2.33 14.97 3.143 2.965.37 6.333.905 7.486 1.188 1.152.283 3.578.789 5.389 1.124a684.4 684.4 0 0 1 6.886 1.32c5.101 1.009 16.799.971 19.761-.065 9.007-3.152 14.604-12.909 12.812-22.337-2.199-11.569-10.252-19.872-27.683-28.541-10.401-5.173-11.846-7.404-11.651-17.981.082-4.442-.128-6.132-.957-7.702-.953-1.805-1.257-1.974-2.96-1.64-4.229.828-6.407 3.794-7.517 10.24-1.074 6.239-1.903 8.572-3.39 9.547-3.084 2.021-11.303 3.882-22.427 5.078-13.689 1.472-17.034 1.677-18.914 1.158-3.174-.877-3.194-2.19-.246-16.082.734-3.459 1.538-7.367 1.788-8.685 2.641-13.947 5.078-24.255 6.31-26.686 1.43-2.824 3.864-5.076 6.87-6.358 4.359-1.858 4.799-1.997 12.021-3.804 1.507-.376 6.223-.73 10.479-.786 7.108-.093 7.929.011 10.06 1.278 4.27 2.539 4.678 3.392 2.875 6.016-1.367 1.986-2.305 4.408-3.055 7.881-.538 2.495-.428 3.697.86 9.389.731 3.233 4.492 4.266 6.701 1.839 2.16-2.372 2.731-4.155 3.012-9.397.248-4.64-.177-8.181-1.307-10.907-.624-1.504 1.88-3.505 4.386-3.505 2.787 0 8.111 1.942 15.047 5.488 6.206 3.173 11.142 6.655 15.936 11.241l3.091 2.957.43 6.008c.236 3.304.238 7.912.005 10.241-.412 4.103-.518 4.319-3.426 7.06-3.401 3.204-7.122 8.429-8.155 11.451-.382 1.12-.696 3.438-.696 5.151 0 2.512.349 3.596 1.8 5.601.991 1.367 2.169 2.486 2.619 2.486 1.235 0 5.722-5.145 6.959-7.981 1.192-2.73 2.485-7.964 3.567-14.436.381-2.282 1.252-4.934 1.934-5.892.682-.959 1.858-2.964 2.613-4.455l1.373-2.712.426 2.841c.484 3.229-.1 20.795-.946 28.442-1.055 9.544-1.381 26.9-.607 32.33 1.276 8.951 4.778 19.078 7.01 20.272 1.714.918 4.252.145 5.879-1.788 2.775-3.299 2.966-5.448 1.856-20.866-1.914-26.578-3.305-44.632-3.946-51.212-.445-4.569-.454-7.965-.028-11.081.652-4.764 1.838-9.772 2.224-9.386.127.127.372 9.501.545 20.832.412 27.156.786 29.326 5.427 31.54 2.072.988 2.304.961 10.599-1.212 23.581-6.179 29.317-7.949 33.723-10.41l2.76-1.541 10.85.59c7.43.404 11.836.923 13.979 1.647 3.22 1.087 5.337 2.775 4.725 3.767-.703 1.138-5.576 1.912-8.548 1.359-1.594-.297-6.441-.874-10.771-1.282-8.008-.755-16.69-.264-23.565 1.332-8.515 1.978-19.475 6.611-23.347 9.87-4.29 3.61-5.515 10.527-2.609 14.722 2.079 3.001 5.316 4.459 13.081 5.893 4.973.918 24.762.927 27.78.014 2.98-.902 3.342-.232 1.196 2.212-8.317 9.476-4.802 22.736 7.027 26.507 6.654 2.122 13.426 2.123 37.352.003 27.812-2.464 35.591-2.845 36.846-1.803 1.917 1.591 2.644 4.182 3.295 11.741.365 4.24.898 10.27 1.184 13.399 2.4 26.221 2.706 36.466 1.29 43.119-.436 2.046-.54 2.109-4.914 3.011-6.116 1.263-8.518 2.571-13.622 7.42-10.371 9.854-16.536 21.417-13.714 25.724 1.347 2.056 3.261 2.317 7.783 1.063 4.935-1.369 9.763-4.238 13.895-8.257 3.439-3.346 8.561-10.61 9.858-13.98.444-1.153 1.032-2.352 1.309-2.665.277-.313.503-1.024.503-1.579 0-.555.402-1.781.895-2.725 1.129-2.167 1.134-1.206.015 3.856-1.471 6.661-2.108 13.685-2.108 23.249 0 14.614 2.53 34.798 4.749 37.896 3.186 4.445 6.17 5.406 7.653 2.464.897-1.78.969-9.768.165-18.268l-1.474-15.574c-.909-9.594-1.217-26.354-.532-28.912.498-1.859 1.499-.954 4.108 3.712 3.704 6.625 5.332 12.12 12.304 41.522l2.416 10.183c.685 2.883 1.463 5.915 1.727 6.738.266.824.819 2.711 1.231 4.193 1.363 4.9 1.769 6.219 4.432 14.375 1.452 4.448 3.22 9.569 3.928 11.381 2.178 5.571 8.152 17.537 10.016 20.065 2.386 3.235 6.313 5.914 7.921 5.403 3.491-1.108 3.51-7.409.082-25.468-4.015-21.143-7.748-34.318-13.408-47.319a199.074 199.074 0 0 1-2.188-5.342c-.702-1.786-1.8-4.414-2.442-5.84-.641-1.427-1.733-3.875-2.426-5.439-2.052-4.633-7.463-16.086-14.363-30.398-3.589-7.444-7.975-9.977-11.923-6.888-2.006 1.57-3.592 1.543-3.592-.062 0-1.498 5.2-12.067 7.71-15.67 3.997-5.738 11.291-11.536 16.877-13.419 3.615-1.217 12.647-1.528 13.704-.471.792.792 1.706 5.991 1.945 11.054l.183 3.893-3.509.173c-7.673.379-12.359 4.887-12.359 11.892 0 2.906.318 4.071 1.706 6.236 2.147 3.351 3.357 4.35 6.453 5.323 4.626 1.454 8.685-1.047 11.463-7.062 1.303-2.823 1.431-3.698 1.072-7.338-.226-2.296-.172-4.133.121-4.133 1.14 0 5.04 3.452 7.282 6.445 3.351 4.473 5.17 9.696 8.394 24.103.701 3.129 1.522 6.768 1.826 8.086.304 1.318.952 4.148 1.44 6.289s1.32 5.78 1.849 8.086a2529.84 2529.84 0 0 1 2.728 11.98l1.822 8.086c2.449 10.843 8.064 19.439 13.687 20.953 2.971.801 7.381.262 9.071-1.109 2.429-1.971 2.031-10.019-1.072-21.641-.483-1.812-1.089-4.103-1.346-5.092-1.759-6.774-9.996-29.278-13.92-38.034-5.357-11.953-15.909-31.836-19.23-36.238-3.155-4.182-10.21-11.129-12.518-12.326-1.224-.635-2.488-1.646-2.81-2.248-.584-1.092-1.664-11.103-2.175-20.166l-.27-4.792.797 3.086c2.064 7.991 6.146 13.334 14.959 19.582 7.218 5.118 10.372 7.909 13.428 11.881 4.256 5.531 10.054 15.804 13.885 24.6 1.44 3.306 3.001 6.831 4.709 10.631 6.868 15.282 17.611 46.137 21.921 62.961 2.101 8.202 3.462 11.449 7.04 16.794 3.87 5.782 9.489 9.468 16.836 11.045 13.712 2.943 27.598-2.76 37.23-15.291 5.728-7.453 9.802-18.662 11.702-32.199 1.633-11.627.05-30.999-3.587-43.909-.697-2.47-1.493-5.301-1.77-6.289-3.474-12.378-13.578-32.159-23.711-46.42-11.635-16.373-15.107-23.523-18.327-37.735-1.113-4.916-.934-20.811.3-26.512 1.232-5.692 3.475-12.472 5.825-17.605 4.551-9.938 14.946-24.682 25.484-36.145 16.119-17.534 26.47-31.992 34.091-47.618 12.909-26.468 15.997-49.437 9.819-73.03-2.087-7.973-3.503-11.704-7.762-20.465-8.834-18.168-18.541-29.552-36.823-43.184-7.341-5.474-18.22-12.627-25.835-16.985-12.221-6.995-23.028-14.995-31.098-23.023-10.404-10.347-15.699-19.817-19.433-34.75-1.166-4.662-1.356-7.067-1.414-17.818L604.5.001h-1.646L601.207 0v11.65ZM253.776 163.969c1.16 3.065 1.29 6.621.257 7.017-1.74.668-2.302-1.098-2.043-6.418.129-2.648.911-2.91 1.786-.599Zm256.529 10.073.182 5.35h-1.797c-1.79 0-1.797-.012-1.977-3.843-.175-3.721.643-7.086 1.935-7.959 1.058-.716 1.469.885 1.657 6.452Zm-261.548.623c.521.2.947.746.947 1.215 0 .468.827 2.488 1.836 4.489 1.788 3.542 1.811 3.69.867 5.68-1.197 2.522-3.319 3.982-5.184 3.564-.776-.174-10.842-.594-22.369-.933-23.598-.696-27.246-.979-27.246-2.122 0-1.459 4.802-4.905 8.548-6.134 11.089-3.641 38.475-7.343 42.601-5.759Zm6.216 1.309c-.315 1.627-1.676 1.54-1.676-.107 0-1.134.24-1.437.928-1.172.51.195.847.771.748 1.279Zm16.407-.158c12.991 1.952 29.048 6.263 32.85 8.819 3.951 2.657 2.72 4.838-4.225 7.49-10.117 3.862-18.947 4.435-27.845 1.806-3.192-.943-7.21-3.153-10.357-5.696-4.021-3.251-4.4-4.12-3.941-9.056l.398-4.279h3.511c1.931 0 6.255.412 9.609.916Zm284.533 7.821c11.292.99 13.907 1.744 14.52 4.186.885 3.527-1.144 5.684-6.951 7.389a279.512 279.512 0 0 0-4.192 1.263c-.823.26-2.777.768-4.341 1.128-1.564.361-4.125.98-5.689 1.376-4.013 1.015-19.514.989-22.905-.038-3.156-.957-8.194-3.377-10.24-4.918-1.314-.992-1.436-1.508-1.436-6.06v-4.977l5.988-.313c8.755-.457 23.713-.048 35.246.964Zm-45.475-.587c1.03.395 1.245 2.431.4 3.767-.408.644-.755.399-1.513-1.066-.541-1.046-.821-2.164-.624-2.483.423-.684.498-.693 1.737-.218Zm-6.584.6c.522.201 1.405 1.346 1.962 2.546.556 1.199 1.902 3.365 2.991 4.813 1.849 2.458 1.979 2.942 1.979 7.337v4.706h-6.781c-9.17 0-16.059-1.068-29.147-4.517-3.603-.949-9.639-3.54-10.523-4.515-2.612-2.887 1.858-5.355 12.918-7.132 2.47-.396 5.838-.948 7.485-1.225 1.647-.277 5.823-.814 9.282-1.192 3.458-.379 6.691-.769 7.185-.867a68.263 68.263 0 0 1 1.299-.249c.22-.038.827.095 1.35.295Zm-266.212 20.12c-4.585 4.519-14.018 11.477-29.256 21.581-6.751 4.477-14.66 10.051-17.575 12.387-6.194 4.963-7.006 5.288-5.831 2.328.301-.756 1.158-2.993 1.904-4.97 4.478-11.849 14.092-19.159 33.479-25.454 4.419-1.435 10.566-3.929 14.79-6 1.905-.935 3.561-1.601 3.681-1.481.121.121-.416.844-1.192 1.609Zm279.783 6.876c1.275 2.633 1.369 3.681 1.552 17.221.179 13.22.122 14.227-.688 12.127-1.679-4.353-3.38-15.112-3.732-23.615-.31-7.48-.238-8.536.579-8.536.519 0 1.535 1.246 2.289 2.803Zm49.77 12.231c3.886.807 5.868 1.993 5.868 3.515 0 1.807-2.482 4.227-4.889 4.768-3.934.883-10.082-1.928-10.082-4.61 0-1.262 3.341-4.331 4.715-4.331.668 0 2.642.296 4.388.658Zm18.143 13.774c11.759.941 16.904 2.644 20.554 6.802 2.065 2.354 2.205 2.835 1.308 4.513-1.044 1.95-4.067 2.345-17.371 2.269-8.757-.049-13.927.178-16.167.71-3.792.902-10.42 3.75-11.032 4.742-.229.37-.805.673-1.279.673-1.547 0-.911-2.309 1.224-4.444 4.35-4.351 5.967-9.385 3.289-10.235-1.675-.532-4.476.169-5.542 1.386-1.473 1.682-2.828 4.752-2.828 6.405 0 2.867-4.887 3.993-11.498 2.649-4.909-.998-13.008-4.273-14.921-6.034-2.167-1.995-2.172-3.149-.024-5.298 2.733-2.734 5.655-3.224 19.856-3.329 10.067-.075 13.462-.304 15.569-1.051 2.825-1.001 3.444-.993 18.862.242Zm-309.885 5.788c1.117.284.585.479-2.095.769-1.977.213-6.204.727-9.395 1.142-3.191.414-6.149.638-6.575.496-1.14-.38 2.18-2.386 4.793-2.896 2.336-.455 10.776-.145 13.272.489Zm23.721.739c8.754.599 10.412.907 10.412 1.94 0 .387-1.253.466-3.444.218a354.32 354.32 0 0 0-7.036-.711c-1.976-.175-4.131-.564-4.79-.863-.659-.299-2.141-.643-3.294-.765-4.444-.47.081-.37 8.152.181Zm24.142 3.075c5.871 1.855 9.872 3.867 12.212 6.142 4.047 3.935 8.15 10.553 6.541 10.553-.292 0-1.59-.894-2.884-1.988-5.319-4.491-16.573-10.815-22.215-12.481-3.017-.891-3.223-1.373-.947-2.205 2.245-.82 4.739-.827 7.293-.021Zm-19.419 2.32c.204.33-.201.599-.898.599-.698 0-1.102-.269-.899-.599.204-.329.608-.599.899-.599.29 0 .694.27.898.599Zm97.191 6.043c1.546.359 3.207.778 3.692.931 1.875.592-.803 1.285-6.5 1.684-7.684.536-15.285 2.076-21.884 4.434-1.953.698-3.649 1.17-3.769 1.051-.574-.575 3.836-3.422 8.027-5.181 7.392-3.103 14.974-4.186 20.434-2.919Zm29.458 1.848c3.273 1.475 6.358 3.74 7.176 5.269.548 1.024.45 1.083-1.04.623-7.502-2.317-11.785-3.431-16.466-4.283-2.223-.404-4.042-.909-4.042-1.123 0-.542 2.402-1.688 4.192-1.998 2.614-.454 7.393.256 10.18 1.512Zm-262.583 6.489c-4.089 5.804-9.223 11.442-9.255 10.164-.071-2.852 11.61-17.701 12.365-15.717.155.407-1.245 2.906-3.11 5.553Zm135.649-4.458c1.445 3.802-.249 13.438-2.363 13.438-.687 0-1.843-3.861-1.843-6.159 0-2.486 2.191-8.815 3.052-8.815.314 0 .833.691 1.154 1.536Zm184.37-.296c4.164.678 10.038 2.715 11.25 3.903.888.87-1.48 1.445-5.942 1.445-5.858 0-17.546 2.961-29.594 7.497-4.664 1.756-4.407 1.722-4.407.585 0-1.616 7.892-8.986 11.491-10.73 6.581-3.187 10.462-3.797 17.202-2.7Zm32.342 1.605c2.177 8.127 3.854 21.718 2.678 21.708-.296-.003-1.115-1.013-1.819-2.246-1.737-3.044-5.453-7.936-8.488-11.175-1.379-1.472-2.507-2.82-2.507-2.996 0-.175.758-.711 1.685-1.191.927-.479 2.88-2.095 4.341-3.592 1.461-1.495 2.848-2.727 3.082-2.737.235-.01.697.994 1.028 2.229Zm-106.529 3.893c2.26 4.982.811 11.562-3.189 14.479-1.448 1.055-1.757 1.101-2.279.334-.746-1.097-.287-8.08.691-10.492 1.171-2.885 3.134-6.866 3.387-6.866.129 0 .755 1.145 1.39 2.545Zm-65.294 1.632c1.41 2.766 2.983 7.203 2.552 7.203-.5 0-2.597-2.574-3.415-4.193-.99-1.957-1.639-6.131-.882-5.663.315.195 1.1 1.388 1.745 2.653Zm17.782 5.519c-.191.477-.333.335-.362-.363-.026-.631.116-.984.315-.786.198.199.22.716.047 1.149Zm191.147 45.708c.038 37.859-.501 59.762-1.577 64.09-1.162 4.677-2.764-48.808-2.276-75.97.375-20.804.733-25.443 2.55-33.043.4-1.675.458-1.593.846 1.198.228 1.648.434 21.324.457 43.725Zm-208.323-36.502c0 1.793-.269 3.259-.599 3.259-.333 0-.598-1.608-.598-3.629 0-2.267.224-3.49.598-3.259.33.204.599 1.837.599 3.629Zm95.128 1.313a2565.82 2565.82 0 0 1 1.371 8.535c.339 2.141.862 5.024 1.161 6.405.3 1.381.539 3.268.532 4.193l-.013 1.681-1.182-1.498c-.65-.823-2.261-3.674-3.579-6.334-2.007-4.047-2.398-5.432-2.398-8.485 0-3.562 1.741-9.139 2.853-9.139.276 0 .841 2.089 1.255 4.642Zm44.395 1.619c0 2.658-1.209 5.463-1.891 4.387-.695-1.095-.615-3.161.191-4.93.972-2.133 1.7-1.9 1.7.543Zm-186.553 6.242c.196.618.314 3.246.262 5.84-.218 10.898 1.451 13.297 13.534 19.451 15.412 7.85 21.869 13.759 24.803 22.698 1.552 4.729 1.573 7.808.081 11.891-2.811 7.694-7.931 10.959-17.185 10.959-4.539 0-9.795-.726-9.795-1.352 0-.292.472-.535 1.048-.539 1.261-.011 5.373-1.41 9-3.062 5.906-2.692 10.917-9.322 10.905-14.43-.014-5.973-4.34-11.278-12.569-15.413-6.352-3.191-9.838-4.261-25.45-7.808-5.054-1.149-16.259-2.593-26.015-3.354-4.493-.349-4.931-.485-3.927-1.219.621-.455 2.191-.826 3.49-.826 2.484 0 8.833-.928 12.38-1.81 6.322-1.571 8.036-2.216 9.841-3.704 2.448-2.019 4.531-6.297 4.531-9.308 0-5.79 3.843-11.869 5.066-8.014Zm117.443 12.586c-1.14 4.62-2.221 5.686-2.949 2.907-.713-2.72.041-7.657 1.538-10.067l1.279-2.057.547 2.66c.404 1.968.296 3.675-.415 6.557Zm-76.414-1.729c-1.165 6.338-2.789 10.478-4.834 12.329-2.96 2.68-3.627-4.334-.862-9.055 2.115-3.609 5.176-7.049 5.74-6.45.249.264.229 1.693-.044 3.176Zm183.546-1.411c5.555 13.298 5.923 23.881 1.029 29.601-1.627 1.9-2.89 2.61-6.898 3.876-7.119 2.248-9.804 5.243-9.234 10.297.255 2.268.16 2.577-.682 2.225-2.505-1.048-9.612-2.063-18.644-2.665-5.434-.362-12.859-.913-16.499-1.225-3.64-.312-11.859-.578-18.264-.59l-11.645-.022 2.177-1.925c3.222-2.848 5.728-6.692 6.827-10.471l.974-3.353 1.548 2.057c3.07 4.076 9.493 9.919 12.427 11.302 4.791 2.26 15.269 1.694 15.269-.825 0-.395-1-1.887-2.222-3.315l-2.224-2.598 1.775.379c12.405 2.654 20.957 2.773 30.172.419 6.286-1.605 9.153-3.05 11.005-5.546 5.447-7.338 2.581-15.467-6.37-18.07-4.121-1.198-11.977-1.227-17.465-.065-2.305.489-4.609.893-5.12.899-1.189.013-3.493-4.706-3.959-8.112l-.36-2.621 1.725.544c.95.299 3.074.987 4.72 1.528 2.184.717 5.506 1.011 12.276 1.084 9.11.098 9.333.07 12.056-1.531 1.526-.897 2.932-2.043 3.124-2.546.582-1.517 1.519-1.038 2.482 1.269Zm-11.073 15.547c.479.48.2.961-1.02 1.761-2.458 1.615-10.478 1.563-13.314-.085-4.073-2.369-3.243-2.747 5.555-2.533 4.851.118 8.386.463 8.779.857Zm-19.288 2.323c5.064 4.262 13.607 5.314 19.432 2.394 1.731-.868 3.609-1.994 4.173-2.502 1.685-1.517 2.867-.549 2.864 2.348-.002 2.915-1.562 5.885-3.891 7.411-.856.562-4.035 1.658-7.065 2.438-6.75 1.738-17.459 1.972-24.261.531-6.936-1.469-8.535-2.727-7.29-5.735.878-2.12 2.965-3.713 8.36-6.382 4.751-2.349 5.431-2.394 7.678-.503Zm-224.73.909c2.964.327 8.219.892 11.677 1.256 7.354.775 23.503 4.196 29.94 6.344 8.181 2.728 15.114 7.193 17.082 11 1.121 2.166 1.138 6.731.034 8.834-1.405 2.677-5.228 5.951-8.917 7.636-7.886 3.602-20.441 4.414-28.153 1.821-14.453-4.86-25.484-10.861-39.627-21.558-5.142-3.889-13.474-11.795-13.474-12.786 0-2.477 18.488-3.975 31.438-2.547Zm180.009 4.045c.349.906.508 2.62.353 3.808-1.149 8.804-11.383 16.034-27.964 19.755-5.421 1.216-18.018 2.079-23.848 1.634-12.143-.928-17.219-2.58-18.916-6.157-2.959-6.236 2.345-11.427 16.52-16.171 12.185-4.079 21.427-4.833 36.326-2.968 8.181 1.025 12.525.839 14.612-.623 1.813-1.27 2.184-1.178 2.917.722Zm25.833-.314c-.341.42-.753 1.302-.914 1.961-.24.975-.308.913-.364-.33-.039-.839.249-1.846.639-2.236.912-.912 1.454-.4.639.605Zm1.347 23.21c3.952.302 11.767.872 17.365 1.266 5.936.418 10.852 1.054 11.79 1.526 4.844 2.434 4.559 8.514-.547 11.689-3.143 1.955-8.966 2.741-16.415 2.216-22.963-1.617-39.232-2.848-46.625-3.528-12.102-1.113-16.278-.545-18.898 2.57-1.564 1.859-1.942 5.02-.845 7.069 1.537 2.872 2.292 2.954 38.905 4.191 19.883.673 25.071 1.283 16.767 1.974-11.886.99-19.825 1.685-25.323 2.218-8.796.853-20.539.7-24.363-.318-3.884-1.034-7.558-3.472-9.438-6.262-1.824-2.708-1.875-8.173-.108-11.823 3.437-7.102 14.966-12.624 28.393-13.6 4.186-.303 20.754.155 29.342.812Zm38.604 15.503c.652 3.49-.303 5.967-3.057 7.932-1.958 1.396-2.305 1.433-12.493 1.325-10.91-.116-40.761-1.067-61.344-1.953-10.413-.449-12.042-.652-12.725-1.586-1.078-1.474-1-1.877.688-3.564 1.366-1.368 1.893-1.471 7.532-1.471 3.335 0 8.535.254 11.555.565 3.02.31 9.802.861 15.072 1.223 5.27.362 12.815.953 16.767 1.314 3.952.36 11.227.673 16.168.693 8.031.034 9.239-.097 11.409-1.231 3.157-1.651 5.835-4.43 7.211-7.482l1.103-2.446.799 1.959c.44 1.078 1.031 3.203 1.315 4.722Zm-131.688 22.55c22.255 2.936 40.214 11.158 53.605 24.542 16.456 16.446 27.233 46.947 27.192 76.956-.021 15.582-2.492 26.769-8.672 39.256-6.683 13.504-16.745 25.152-28.686 33.206-17.55 11.838-33.785 18.165-52.221 20.353-18.026 2.139-36.98-1.331-57.717-10.565-3.408-1.517-22.301-10.884-24.252-12.024-20.503-11.972-42.425-26.29-42.724-27.904-.115-.62.634-3.854 1.666-7.188 1.031-3.333 2.153-7.004 2.494-8.157 1.054-3.574 1.837-4.703 3.957-5.71 2.576-1.222 6.169-.712 7.805 1.109 2.288 2.548 5.146 7.225 6.255 10.235 2.148 5.833 4.261 9.304 9.031 14.833 3.565 4.132 6.984 6.486 9.42 6.486 1.276 0 2.583.691 4.354 2.302 4.093 3.721 12.175 8.956 19.598 12.693 5.711 2.875 19.229 7.111 26.647 8.351 2.306.385 5.652.95 7.436 1.256 4.338.742 24.574.708 30.415-.052 13.391-1.743 19.955-3.276 29.525-6.894 11.985-4.532 19.029-8.757 26.689-16.01 8.234-7.796 12.113-13.741 15.729-24.107 3.002-8.607 3.679-12.829 4.32-26.943.622-13.719.349-19.545-1.308-27.863-.831-4.169-4.15-15.088-4.816-15.843-.276-.312-.503-.896-.503-1.295 0-2.119-9.705-21.678-12.65-25.495-2.564-3.323-10.895-11.66-13.997-14.008-5.419-4.101-12.35-7.651-19.966-10.227-7.105-2.403-9.316-2.852-20.154-4.093-9.282-1.062-15.302-1.134-25.749-.307-13.301 1.053-16.54 1.754-27.546 5.955-6.171 2.357-16.563 8.261-20.774 11.803-7.806 6.566-14.239 16.255-20.417 30.749-6.333 14.856-8.355 25.61-8.391 44.624-.03 15.76 1.05 23.465 5.033 35.887 1.263 3.94 1.351 4.543.662 4.543-1.073 0-5.492-10.087-7.61-17.37-3.841-13.203-3.529-45.077.601-61.394.838-3.307 3.589-11.814 4.504-13.926.32-.741.888-2.089 1.261-2.995 2.836-6.893 6.885-12.578 14.003-19.658 14.366-14.289 32.518-22.295 57.476-25.349 6.907-.846 21.168-.726 28.475.238Zm1.765 10.754c13.894 2.334 20.067 4.449 30.24 10.36 7.056 4.1 16.77 13.827 20.781 20.81 3.031 5.275 7.732 15.482 10.209 22.161 4.554 12.285 5.841 20.274 5.826 36.186-.016 17.567-1.807 26.851-7.636 39.584-4.266 9.318-15.816 20.145-27.533 25.81-3.54 1.712-6.976 3.317-7.635 3.567-6.491 2.463-8.259 3.072-11.377 3.917-4.075 1.104-6.589 1.618-14.671 2.995-7.02 1.196-29.929 1.403-36.228.327-6.135-1.047-10.577-1.941-12.276-2.469-.823-.256-2.71-.803-4.192-1.214-12.296-3.417-25.57-10.401-33.788-17.779-3.245-2.913-3.551-3.397-5.954-9.419-9.561-23.963-11.559-48.177-5.955-72.221.883-3.794 3.315-11.672 4.343-14.075 2.04-4.766 2.81-6.444 4.536-9.883 2.09-4.166 2.504-4.928 5.692-10.482 2.489-4.337 9.143-11.192 14.06-14.486 5.614-3.76 17.759-9.772 19.741-9.772.466 0 .995-.239 1.175-.531.18-.291 1.072-.679 1.981-.861.91-.183 2.867-.629 4.349-.992 9.61-2.357 34.319-3.211 44.312-1.533Zm176.865 31.165c6.892 6.785 11.127 13.312 19.429 29.953 5.203 10.428 6.575 13.378 8.515 18.317a193.739 193.739 0 0 0 2.059 5.043c.431.988 1.379 3.414 2.108 5.391.728 1.976 1.554 4.132 1.836 4.791.473 1.109 4.667 13.861 5.908 17.969 2.16 7.146 4.254 18.537 3.821 20.796-.17.896-.687 1.942-1.148 2.324-1.186.985-6.02.318-7.931-1.094-3.579-2.643-7.233-9.929-8.943-17.833a673.323 673.323 0 0 0-1.582-7.038 3046.844 3046.844 0 0 1-3.355-14.674l-1.145-5.092c-.315-1.399-1.006-4.432-1.535-6.738l-1.855-8.086c-4.098-17.864-6.291-23.217-11.794-28.785-1.484-1.501-3.781-3.217-5.105-3.815-2.853-1.287-3.457-2.596-3.987-8.64-.213-2.423-.531-4.781-.708-5.241-.767-2 2.303-.61 5.412 2.452Zm-7.634 12.742c1.05.694 2.044 7.585 1.412 9.787-.753 2.628-2.972 5.733-4.64 6.493-2.637 1.202-4.399.747-6.773-1.749-5.067-5.328-3.1-12.766 3.812-14.408 2.568-.61 5.368-.666 6.189-.123Zm-50.067 13.828c0 .28-.297 1.425-.659 2.545-3.809 11.775-13.897 22.636-23.243 25.027-2.969.76-3.307.741-4.011-.222-1.784-2.44 4.343-12.611 12.126-20.131 4.729-4.57 6.176-5.62 9.499-6.897 2.153-.826 6.288-1.039 6.288-.322Zm19.132.789c.767.714 3.273 5.229 5.569 10.033 6.922 14.477 9.803 20.567 11.147 23.558l2.444 5.439a157.895 157.895 0 0 1 2.442 5.84 205.951 205.951 0 0 0 2.188 5.342 103.113 103.113 0 0 1 1.371 3.294c.251.659.738 1.872 1.08 2.696 3.687 8.858 7.474 21.966 9.689 33.542 4.271 22.318 5.069 28.754 3.674 29.616-1.01.625-5.283-5.027-8.016-10.605-6.093-12.428-9.447-21.43-13.668-36.681a128.578 128.578 0 0 0-1.146-3.893c-.464-1.443-1.194-4.423-4.4-17.969-4.01-16.942-7.169-29.394-8.281-32.644-1.763-5.15-5.065-11.568-7.483-14.545-1.698-2.092-1.948-2.728-1.354-3.444 1.05-1.265 3.133-1.081 4.744.421Zm-10.579 4.241c-.82 5.49-.358 23.67.932 36.687 1.579 15.929 1.935 23.562 1.122 24.065-5.058 3.126-8.192-47.662-3.768-61.051.191-.576.473-1.453.627-1.947.154-.494.568-.898.919-.898.43 0 .485 1.024.168 3.144Zm-321.22 63.194c.776 2.552 1.522 5.011 1.658 5.465 1.139 3.806 2.173 10.888 2.24 15.347.091 6.031-.3 7.648-1.718 7.103-1.731-.664-3.186-4.665-3.844-10.561-.735-6.588-.871-22-.195-21.996.247.002 1.084 2.091 1.859 4.642Zm56.012 1.354c-1.112 3.253-1.536 3.738-2.83 3.241-1.405-.539-1.265-1.144.948-4.119 2.344-3.152 3.134-2.783 1.882.878Zm-3.885 6.516 1.44 1.108-2.732 6.816c-7.325 18.267-17.47 37.449-21.953 41.508-1.131 1.023-1.254 1.03-1.612.099-.775-2.022.221-10.281 1.813-15.026 3.3-9.834 11.789-25.298 18.168-33.094 2.332-2.85 2.821-2.991 4.876-1.411Z" fill="#131441"/></svg>